/* XPM */
static char *xpm_[] = {
/* columns rows colors chars-per-pixel */
"64 64 174 2 ",
"   c #3F3021",
".  c #5B370F",
"X  c #5D380F",
"o  c #4C3213",
"O  c #523616",
"+  c #573817",
"@  c #5C3A15",
"#  c #5D3D1A",
"$  c #663E0F",
"%  c #633D13",
"&  c #613E19",
"*  c #463424",
"=  c #4A3726",
"-  c #4C3926",
";  c #4B3728",
":  c #4E3A2A",
">  c #5A3E21",
",  c #543E2C",
"<  c #583F2C",
"1  c #654016",
"2  c #6A4114",
"3  c #63421D",
"4  c #6C461A",
"5  c #6E4A1D",
"6  c #724B1D",
"7  c #5F4325",
"8  c #56402E",
"9  c #5A422E",
"0  c #5D4431",
"q  c #5E4834",
"w  c #654523",
"e  c #6A4722",
"r  c #6B4925",
"t  c #62452C",
"y  c #65492E",
"u  c #6C4C2C",
"i  c #714E2D",
"p  c #614633",
"a  c #644935",
"s  c #694D36",
"d  c #664C38",
"f  c #684B38",
"g  c #684C38",
"h  c #6A4D39",
"j  c #684F39",
"k  c #6B4E38",
"l  c #694E3A",
"z  c #6B4F3B",
"x  c #6C4F39",
"c  c #6C4F3B",
"v  c #6C4F3C",
"b  c #6A4E39",
"n  c #6E5034",
"m  c #6B5039",
"M  c #6C5039",
"N  c #6D503A",
"B  c #6E503B",
"V  c #6F533B",
"C  c #6F5138",
"Z  c #6A503C",
"A  c #6F513D",
"S  c #6F523C",
"D  c #6F543F",
"F  c #6E513B",
"G  c #745334",
"H  c #7B5733",
"J  c #70523B",
"K  c #705239",
"L  c #72543A",
"P  c #71533C",
"I  c #71533E",
"U  c #72543D",
"Y  c #71543E",
"T  c #72543F",
"R  c #75573F",
"E  c #77573F",
"W  c #74553E",
"Q  c #72543D",
"!  c #78573A",
"~  c #73583F",
"^  c #7B5A3B",
"/  c #6F5340",
"(  c #6E5541",
")  c #735640",
"_  c #745640",
"`  c #765641",
"'  c #745641",
"]  c #775840",
"[  c #765943",
"{  c #765943",
"}  c #785A43",
"|  c #7A5A43",
" . c #795B46",
".. c #7E5E46",
"X. c #7B5B43",
"o. c #765B49",
"O. c #7F5E48",
"+. c #7C5E4A",
"@. c #7C5D48",
"#. c #7A604B",
"$. c #7E6148",
"%. c #7E614A",
"&. c #805D2D",
"*. c #815F3E",
"=. c #866331",
"-. c #886230",
";. c #8A6831",
":. c #926B36",
">. c #9C743A",
",. c #A47F3B",
"<. c #AE7E39",
"1. c #BD7D31",
"2. c #B37C33",
"3. c #D85902",
"4. c #FF4800",
"5. c #E85400",
"6. c #ED5D00",
"7. c #FF5300",
"8. c #FF5C00",
"9. c #D4640B",
"0. c #DA6203",
"q. c #D6700F",
"w. c #CF721A",
"e. c #EE6600",
"r. c #EF6A00",
"t. c #FD6300",
"y. c #FC6B00",
"u. c #F37300",
"i. c #FD7500",
"p. c #FC7D00",
"a. c #C67A28",
"s. c #815F47",
"d. c #815F47",
"f. c #805F4A",
"g. c #805F49",
"h. c #816145",
"j. c #8F6A43",
"k. c #84634B",
"l. c #80614D",
"z. c #83654E",
"x. c #83634C",
"c. c #886449",
"v. c #8E6D4F",
"b. c #876651",
"n. c #876A54",
"m. c #8E6C54",
"M. c #8B6B52",
"N. c #916E51",
"B. c #8F7154",
"V. c #947152",
"C. c #927359",
"Z. c #95745D",
"A. c #93735B",
"S. c #AD833C",
"D. c #B18737",
"F. c #BA8435",
"G. c #DB9A1B",
"H. c #E58606",
"J. c #EC8C02",
"K. c #F78300",
"L. c #FE8A00",
"P. c #EC9102",
"I. c #FF9500",
"U. c #FF9A00",
"Y. c #FF9A0F",
"T. c #FF8B13",
"R. c #E09714",
"E. c #C39231",
"W. c #FF9C24",
"Q. c #FFAB2F",
"!. c #FFBD54",
"~. c #FFC874",
"^. c #FFCD86",
"/. c #FFE0AC",
/* pixels */
"....= x N 0 p 0 8 a k p 9 9 9 , N S f 0 a 0 v a p 9 0 9 p 9 a k ....= x N 0 p 0 8 a k p 9 9 9 , N S f 0 a 0 v a p 9 0 9 p 9 a k ",
"N m k a p 0 p , 8 9 9 p p 9 , p N k k p * k m.x l.a p 9 a , N s N m k a p 0 p , 8 9 9 p p 9 , p N k k p * k m.x l.a p 9 a , N s ",
"k p k U N * p N k U a ; D N P 9 9 9 0 k a k 0 k k , , , 0 , k k k p k U N * p N k U a ; D N P 9 9 9 0 k a k 0 k k , , , 0 , k k ",
"0 N J J k.9 p k p a O., E k a p J k x P _ k k 0 N k U S k N q k 0 N J J k.9 p k p a O., E k a p J k x P _ k k 0 N k U S k N q k ",
"0 f p k , * 9 p p 0 8 9 0 0 0 P L U k a a < d p x x P k p p , : 0 f p k , * 9 p p 0 8 9 0 0 0 P L U k a a < d p x x P k p p , : ",
"0 p , 0 a 9 0 , p 9 a a x J 0 p a k < ] P p 0 8 a S a a d a 0 p 0 p , 0 a 9 0 , p 9 a a x J 0 p a k < ] P p 0 8 a S a a d a 0 p ",
"N 9 0 _ k S S a = p x x k N a Z N p a d E p p 0 a N k ..x 0 k | N 9 0 _ k S S a = p x x k N a Z N p a d E p p 0 a N k ..x 0 k | ",
"a 0 U f k N S J , U U  .| P x z.: ] E 0 , p p N N d._ a k d / x a 0 U f k N S J , U U  .| P x z.: ] E 0 , p p N N d._ a k d / x ",
"p q Z.f.p p 0 a 0 N d O.S E _ E 9 N | ] s , m N z.a a p 0 0 p S p q Z.f.p p 0 a 0 N d O.S E _ E 9 N | ] s , m N z.a a p 0 0 p S ",
"p 8 O._ 9 0 0 0 p N x U ] E k U 0 _ ' d %.0 s ] C.p p 0 0 q ' p p 8 O._ 9 0 0 0 p N x U ] E k U 0 _ ' d %.0 s ] C.p p 0 0 0 ' p ",
"a , N p k 9 a f 0 a x J P J U U 0 k | p 0 , N k S p 0 p :   k #.a , N p k 9 a f 0 a x J P J U U 0 k | p 0 , N k S p 0 p :   k #.",
"q p k M._ k P p 9 k 0 k x a o.%.: 0 p d q 0 k ] p p 9 0 n.8 ' n.q p k M._ k P p 9 k 0 k x a o.%.: 0 p k q 0 k ] p p 9 0 n.8 ' n.",
"q N P k 9 p p 0 | k , 0 a 0 o.p 0 0 , x.a k 8 0 : @.S ' U p 0 q q N P k 9 p p 0 | k , 0 a 0 o.p 0 0 , x.a k 8 0 : @.S ' U p 0 q ",
"_ k 0 9 p , : N k N @.0 0 0 p a k a k p 0 q U X.p o.' q q p : 0 _ k 0 9 p , : N k N @.0 0 0 p a k a k p 0 q U X.p o.' q q p : 0 ",
"U d 0 9 a _ 0 a _ D _ ' 0 : U _ ' P ' a : ' N d a S a 0 p , * N U d 0 9 a _ 0 a _ D _ ' 0 : U _ ' P ' a : ' N d a S a 0 p , * N ",
"p < , 9 x U p a S k p a 0 k M.A.b.b.P S , U | q p p p p k a 0 p p < , 9 x U p a S k p a 0 k M.A.b.b.P S , U | q p p p p k a 0 p ",
"p , E , k p k d S k f < , f ] ' a d d v , k v 0 0 0 N k p 0 P 0 p , E , k p k d S k f < , f ] ' a d d v , k v 0 0 0 N k p 0 P 0 ",
"9 0 p 9 k p O.0 k N p 0 0 N _ 0 , 0 k 0 : 8 0 9 9 x x p 0 0 a * 9 0 p 9 k p O.0 k N p 0 0 N _ 0 , 0 k 0 : 8 0 9 9 x x p 0 0 a * ",
"] k p , | a 9 = p S 0 0 9 S U k 0 0 k , , x N a a x 0 , , p 9 0 ] k 0 , | a 9 = p S 0 0 9 S U k 0 0 k , , x N a a x 0 , , p 9 0 ",
"U S p 0 : p , , , a 0 8 a 0 P 0 0 , , 9 k N N S a N.p N k N 0 p D S p 0 : p , , , a 0 8 a 0 P 0 0 , , 9 k N N S a N.p N k N 0 p ",
"9 ( S 0   9 E N U 0 : a P U : : 0 p N U P N a f.k 0 P a k a @.k 9 ( S 0   9 E N U 0 : a P U : : 0 p N U P N a f.k 0 P a k a @.k ",
"0 o.a 8 - a N E a k , N a ] p a N N N a U ..k x , N k 0 9 , , 9 0 o.a 8 - a N E a k , N a ] p a N N N a U ..k x , N k 0 9 , , 9 ",
"0 9 0 k ] 9 p p a a p a p f a 0 p k k p p x , , N d p 9 , , : 8 0 9 0 k ] 9 p p a a p a p f a 0 p k k p p x , , N d p 9 , , : 8 ",
"k q N k k k a p 9 0 , x 9 a 0 X., k k 0 d d , 0 N 0 8 , , k 9 8 k q N k k k a p 9 0 , x 9 a 0 X., k k 0 d d , 0 N 0 8 , , k 9 8 ",
"p 0 ] k m 0 N p p , 0 p , a 0 p p p a 0 0 0 0 8 p 0 , M.| _ p a p 0 ] k m 0 N p p , 0 p , a 0 p p p a 0 0 0 0 8 p 0 , M.| _ p a ",
"9 0 p m 9 N s E p p N E J = p k _ | S 8 p D ~ D m m k | k , k O.9 0 a m 9 N a E p p N E J = p k _ | S 8 p D ~ D m m k | k , k O.",
"8 0 0 0 0 0 9 9 ( _ k o.p U k a S @.| 0 D U 0 0 0 o.m k , , k x 8 0 0 0 0 0 9 9 ( E k o.p U k a S @.| 0 D U 0 0 0 o.m k , , k k ",
"8 0 : N p 0 0 = X.a 0 p E S 9 9 0 p 0 d U 0 p 0 0 0 0 ' d , a k 8 0 : N p 0 0 = X.a 0 p E S 9 9 0 p 0 d U 0 p 0 0 0 0 ' d , a k ",
"0 8 * 0 k 9 S U a 0 p 0 k p p p 9 p s 8 ] 0 d p 0 a d o.d 0 , k 0 8 * 0 k 9 S U a 0 p 0 k p p p 9 p s 8 ] 0 d p 0 a d o.d 0 , k ",
", : , p 9 0 9 k k p 9 , a , 0 0 : , d d d d 0 0 k : s p 0 = , 9 , : , p 0 0 9 k k p 9 , a , 0 0 : , d d d d 0 0 k : s p 0 = , 9 ",
"a 0 0 a p 0 0 S p 0 0 x N a | x 9 k C.D , : , , 0 9 9 : p , p p a 0 0 a p 0 0 S p 0 0 x N a | x 9 k C.D , : , , 0 9 9 : p , p p ",
"' k , k S a k p 8 , _ N a ..S , p ] ..J q 0 d N a a p 0 a a p x ' k , k S a k p 8 , _ N a ..S , p ] ..J q 0 d N a a p 0 a a p x ",
"....= x N 0 p 0 8 a k p 9 9 9 , N S f 0 a 0 v a p 9 0 9 p 9 a k ....= x N 0 p 0 8 a k p 9 9 9 , N S f 0 a 0 v a p 9 0 9 p 9 a k ",
"N m k a p 0 p , 8 9 9 p p 9 , p N k k p * k m.x l.a p 9 a , N s N m k a p 0 p , 8 9 9 p p 9 , p N k k p * k m.x l.a p 9 a , N s ",
"k p k U N * p N k U a ; D N P 9 9 9 0 k a k 0 k k , , , 0 , k k k p k U N * p N k U a ; D N P 9 9 9 0 k a k 0 k k , , , 0 , k k ",
"0 N J J k.9 p k p a O., E k a p J k x P _ k k 0 N k U S k N q k 0 N J J k.9 p k p a O., E k a p J k x P _ k k 0 N k U S k N q k ",
"0 f p k , * 9 p p 0 8 9 0 0 0 P L U k a a < d p x x P k p p , : 0 f p k , * 9 p p 0 8 9 0 0 0 P L U k a a < d p x x P k p p , : ",
"0 p , 0 a 9 0 , p 9 a a x J 0 p a k < ] P p 0 8 a S a a f a 0 p 0 p , 0 a 9 0 , p 9 a a x J 0 p a k < ] P p 0 8 a S a a f a 0 p ",
"N 9 0 _ k S S a = p x x k N a Z N p a d E p p 0 a N k ..x 0 k | N 9 0 _ k S S a = p x x k N a Z N p a d E p p 0 a N k ..x 0 k | ",
"a 0 U f k N S J , U U  .| P x z.: ] E 0 , p p N N d._ a k d ) x a 0 U f k N S J , U U  .| P x z.: ] E 0 , p p N N d._ a k d ) x ",
"p q Z.f.p p 0 a 0 N d O.S E _ E 9 N | ] s , m N z.f a p 0 p p P a q Z.x.p p p a 0 N d O.S E _ E 9 N | ] s , m N z.a a p 0 0 p S ",
"p 8 O._ 9 0 0 0 p N x U ] E k U 0 _ ' d %.0 s ] C.p a p p p | k a 9 x.| t p 0 0 p N x U ] E k U 0 _ ' d %.0 s ] C.p p 0 0 0 ' p ",
"a , N p k 9 a f 0 f x J P J U U 0 k | p 0 , N k S p p k , = G x.G t L k N t f k 0 f x J P J U U 0 k | p 0 , N k S p 0 p :   k #.",
"q p k M._ k P p 9 k 0 k x a o.%.: 0 p k q 0 k ] a s y s B.y ^ v.u G ! V.X.J E a 9 x 0 k x a o.%.: 0 p k q 0 k ] p p 9 0 n.8 ' n.",
"q N P k 9 p p 0 | k , 0 a 0 o.p 0 0 , x.a k 8 0 , h.E ^ ^ u w w w u G G u s k a X.x , 0 a 0 o.p 0 0 , x.a k 8 0 : @.S ' U p 0 q ",
"_ k 0 9 p , : N k N @.0 0 0 p a k a k p 0 q U X.k h.^ u w 3 @ @ 3 % # 3 u t 9 ! G J O.0 0 0 p a k a k p 0 q U X.d o.' q q p : 0 ",
"U d 0 9 a _ 0 a _ D _ ' 0 : U _ ' P ' a : _ J x x ! u 3 @ X ;.S.S.>.2 @ 3 H u G X.U ] ' 0 : U _ ' P ' a : ' N d a S a 0 p , * N ",
"p < , 9 x U p a S k p a 0 k M.A.b.b.P S , E | a s u w @ 4 E.<.Q.~.K.q.:.1 r i ! E N a a p k M.A.b.b.P S , U | q p p p p k a 0 p ",
"p , E , k p k d S k f < , f ] ' a d d v , k S a s u w % G.Q.!.I.I.U.u.0.-.% r G ! G x 9 , f ] ' a d d v , k v 0 0 0 N k p 0 P 0 ",
"9 0 p 9 k p O.0 k N p 0 0 N _ 0 , 0 k 0 : 9 p y u G w % F.W.t.I.U.y.i.6.a.% w > n L a p 0 N _ 0 , 0 k 0 : 8 0 9 9 x x p 0 0 a * ",
"] k p , | a 9 = p S 0 0 9 S U k 0 0 k , , x J x ! G & $ /.T.4.L.U.7.t.r.9.4 @ o y ! p 0 9 S U k 0 0 k , , x N a a x 0 , , p 9 0 ",
"U S p 0 : p , , , a 0 8 a 0 P 0 0 , , 9 k N J E ! j.& 2 ^.I.U.I.I.U.L.r.3.6 3 O > n a 9 a 0 P 0 0 , , 9 k N N S a N.p N k N 0 p ",
"9 ( S 0   9 E N U 0 : a P U : : 0 p N U P N x c.! u 3 % Y.I.i.I.U.p.p.e.9.$ 3 w ! s , a P U : : 0 p N U P N a f.k 0 P a k a @.k ",
"0 o.a 8 - a N E a k , N a ] p a N N N a U ..N L y H 3 % P.L.7.L.U.8.y.5.2.% e H G J 9 J a ] p a N N N a U ..k x , N k 0 9 , , 9 ",
"0 9 0 k ] 9 p p a a p a p f a 0 p k k p p N 9 9 ! G 3 @ D.J.I.I.U.I.6.w.6 % r G G x s a p f a 0 p k k p p x , , m d p 9 , , : 8 ",
"d q N k k k a p 9 0 , x 9 a 0 X., k k 0 d d 8 p L s 7 + . ,.R.J.U.H.1.6 1 e G G y p , N 9 a 0 X., k k 0 d d , 0 m 0 8 , , k 9 8 ",
"p 0 ] k m 0 N p p , 0 p , a 0 p p p a 0 0 0 0 9 m y 7 ^ w 3 % &.=.5 3 3 r u ^ n s 9 p a , a 0 p p p a 0 0 0 0 8 p 0 , M.| _ p a ",
"9 0 a m 9 N a E p p N E J = p k _ | S 8 p U ~ U V L L *.u # 3 e @ # 3 u u ! G E s a N E J = p k _ | S 8 p D ~ D m m k | k , k O.",
"8 0 0 0 0 0 9 9 ( E k o.p U k a S @.| 0 D U 0 0 p ..L ! y t i i w u u u s s y 9 ' E x o.p U k a S @.| 0 D U 0 0 0 o.m k , , k x ",
"8 0 : N p 0 0 = X.a 0 p E S 9 9 0 p 0 d U 0 p 0 0 p a | J y G ! y u 7 ! k p p - X.a 9 p E S 9 9 0 p 0 d U 0 p 0 0 0 0 ' d , a k ",
"0 8 * 0 k 9 S U a 0 p 0 k p p p 9 p s 8 ] 0 d a 0 s k @.k a 9 L a t - p N 9 S U a 0 p 0 k p p p 9 p s 8 ] 0 d p 0 a d o.d 0 , k ",
", : , p 9 0 9 k k p 9 , a , 0 0 : , d d d d 0 0 k : k p 0 - 9 9 9 , , a 9 p 9 k k p 9 , a , 0 0 : , d d d d 0 0 k : s p 0 = , 9 ",
"a 0 0 a p 0 0 S p 0 0 x N a | x 9 k C.D , : , , 0 9 9 : p 8 p a a p 0 a p 0 0 S p 0 0 x N a | x 9 k C.D , : , , 0 9 9 : p , p p ",
"' k , k S a k p 8 , _ N a ..S , p ] ..J q 0 d N a a p 0 a a p x ' k , k S a k p 8 , _ N a ..S , p ] ..J q 0 d N a a p 0 a a p x "
};
