/* XPM */
static char *xpm_[] = {
/* columns rows colors chars-per-pixel */
"64 64 179 2 ",
"   c #3F3021",
".  c #453424",
"X  c #4A3726",
"o  c #4C3926",
"O  c #4B3728",
"+  c #4D3A2A",
"@  c #543E2C",
"#  c #583F2C",
"$  c #503E31",
"%  c #56402E",
"&  c #5A422E",
"*  c #4C423D",
"=  c #5D4431",
"-  c #5E4834",
";  c #554239",
":  c #5A463A",
">  c #5D493B",
",  c #614633",
"<  c #644935",
"1  c #694D37",
"2  c #664C38",
"3  c #694E3A",
"4  c #6A4E39",
"5  c #6C4F39",
"6  c #6C4F3B",
"7  c #6C4F3C",
"8  c #6A4E39",
"9  c #6B5039",
"0  c #6C5039",
"q  c #6D513A",
"w  c #6E503B",
"e  c #6F523A",
"r  c #6A503C",
"t  c #6F513D",
"y  c #6F523C",
"u  c #6F543F",
"i  c #6D513B",
"p  c #70533B",
"a  c #705238",
"s  c #71533C",
"d  c #71533E",
"f  c #72543D",
"g  c #71543E",
"h  c #72543F",
"j  c #76573F",
"k  c #72543D",
"l  c #73583F",
"z  c #593C41",
"x  c #663346",
"c  c #663D4D",
"v  c #5C4046",
"b  c #5E4E43",
"n  c #65444F",
"m  c #645243",
"M  c #6F5340",
"N  c #6E5542",
"B  c #6A564B",
"V  c #67594E",
"C  c #6E5D4F",
"Z  c #64564A",
"A  c #735640",
"S  c #745640",
"D  c #765641",
"F  c #745641",
"G  c #775841",
"H  c #765943",
"J  c #795A43",
"K  c #7E5E46",
"L  c #7A5B44",
"P  c #765B49",
"I  c #7F5E48",
"U  c #7C5E4A",
"Y  c #7D5D48",
"T  c #694A51",
"R  c #734559",
"E  c #754B5C",
"W  c #6C5C56",
"Q  c #755D5F",
"!  c #7D614A",
"~  c #6F6256",
"^  c #6F6458",
"/  c #726356",
"(  c #706358",
")  c #796D5E",
"_  c #76695C",
"`  c #7F5669",
"'  c #7F5968",
"]  c #7E5466",
"[  c #776C60",
"{  c #815F47",
"}  c #805F4A",
"|  c #84634B",
" . c #83634D",
".. c #876751",
"X. c #876A55",
"o. c #8E6C54",
"O. c #8B6B52",
"+. c #916E51",
"@. c #93735B",
"#. c #835C6B",
"$. c #88646C",
"%. c #836966",
"&. c #87716C",
"*. c #83786B",
"=. c #8A7D6D",
"-. c #8F6D74",
";. c #936D7C",
":. c #917D78",
">. c #9A7F7E",
",. c #917279",
"<. c #898173",
"1. c #928A7D",
"2. c #99837A",
"3. c #A1887C",
"4. c #987780",
"5. c #9A7A81",
"6. c #A08187",
"7. c #A38B84",
"8. c #A88E81",
"9. c #A88C8D",
"0. c #A39685",
"q. c #A89583",
"w. c #A6968A",
"e. c #A29B8C",
"r. c #AC9C8A",
"t. c #A9928A",
"y. c #B19B8D",
"u. c #AE9998",
"i. c #AB9493",
"p. c #A8A08F",
"a. c #B2A58E",
"s. c #A9A393",
"d. c #AEA997",
"f. c #B4A492",
"g. c #B8A696",
"h. c #B9AB96",
"j. c #BAA49F",
"k. c #B4AC9B",
"l. c #BBAC9A",
"z. c #BAB29E",
"x. c #BEAFA1",
"c. c #B8B5A3",
"v. c #C1B6A2",
"b. c #C3B9A5",
"n. c #C3B7AE",
"m. c #C8B7AD",
"M. c #C5B9AF",
"N. c #CABCA9",
"B. c #CDBDB5",
"V. c #CCC1AE",
"C. c #C4C0AD",
"Z. c #CDC3B3",
"A. c #CBC9B5",
"S. c #D1C5B2",
"D. c #D0CAB4",
"F. c #D4CEB9",
"G. c #D3D1BB",
"H. c #D9D4BE",
"J. c #D9CFC0",
"K. c #D7D5C0",
"L. c #DCD6C4",
"P. c #D9D9C3",
"I. c #D9D9C3",
"U. c #DEDFC9",
"Y. c #DFDED1",
"T. c #E1DCC6",
"R. c #E1DDCA",
"E. c #DFE0C9",
"W. c #E5E5CE",
"Q. c #E5E5CE",
"!. c #E6E8D2",
"~. c #ECEDD4",
"^. c #E8E4D0",
"/. c #EDF0D6",
"(. c #EFF2D9",
"). c #F0F0D7",
"_. c #F3F4DB",
"`. c #FFFFE5",
"'. c #FFFFE5",
/* pixels */
"K K o 5 q = , = % < 4 , & & & @ q y 1 = < = 7 < , & = & , & < 1 K K o 5 q = , = % < 4 , & & & @ p y 1 = < = 7 < , & = & , & < 1 ",
"q 9 4 < , = , @ % & & , , & @ , q 4 4 , . 1 o.5  .< , & < @ q 1 q 9 4 < , = , @ % & & , , & @ , q 4 4 , . 1 o.5  .< , & < @ q 1 ",
"1 , 1 f q . , q 1 f < O u q s & & & = 1 < 4 = 4 1 @ @ @ = @ 4 1 1 , 1 f q . , q 1 f < O u q s & & & = 1 < 4 = 4 1 @ @ @ = @ 4 1 ",
"= q p p | & , 4 , < I @ j 1 < , p 1 5 s S 4 4 = q 4 f y 4 q - 4 = q p p | & , 4 , < I @ j 1 < , p 1 5 s S 4 4 = q 4 f y 4 q - 4 ",
"= 1 , 4 @ . & , , = % & = = = s f f 4 < < # 2 , 5 5 s 1 , , @ + = 1 , 4 @ . & , , = % & = = = s f j 4 < < # 2 , 5 5 s 1 , , @ + ",
"= , @ = < & = @ , & < < 5 p = , < 1 # * * * * % < y < < 2 < = , = , @ = < & = @ , & < < 5 p = , < 1 # G s , = % < y < < 2 < = , ",
"q & = S 4 y y < X , 5 5 1 q < r q * * `.`.`.`.* * q 1 K 5 = 4 L q & = S 4 y y < X , 5 5 1 q < r q , < 2 j , , = < q 1 K 5 = 4 L ",
"< = f 1 4 q y p @ f f L L s 5  .* `.`.W.W.W.W.`.`.* * * 4 2 M 5 < = f 1 4 q y p @ f f L L s 5  .+ G j = @ , , q q { S < 4 2 M 5 ",
", - @.} , , = < = q 2 I y j * * `.W.W.P.P.P.P.W.W.`.`.`.* * , y , - @.} , , = < = q 2 I y j S j & q L G 1 @ 9 q  .< < , = = , y ",
", % I S & = = = , q 5 f G * `.`.W.P.P.P.P.P.P.P.P.W.W.W.`.`.* * , % I S & = = = , q 5 f G j 1 f = S f 2 ! = 1 G @., , = = = F , ",
"< @ q , 4 & < 1 = < 5 p * `.W.W.P.P.P.P.P.P.P.P.P.P.P.P.W.W.`.`.* @ q , 4 & < 1 = < 5 * * * * * * * * , = @ q 4 y , = , +   1 ! ",
"- , 4 O.S 4 s , & 4 = * `.W.W.P.P.P.P.P.P.P.P.P.P.P.P.P.P.P.W.W.`.* 4 O.S 4 s , & 4 * W.W.W.W.W.W.W.W.* - = 4 G , , & = X.% F X.",
"- q s 4 & , , = L 4 * `.W.W.P.P.P.P.P.P.P.P.P.P.P.P.P.P.P.P.P.W.W.`.* 4 & , , = L * W.P.P.P.P.P.P.P.P.W.* 4 % = + J y F f , = - ",
"S 4 = & , @ + q 1 * `.W.W.P.P.P.P.P.P.P.P.P.P.P.P.P.P.P.P.P.P.P.W.`.* & , @ + q * W.P.P.P.P.P.P.P.P.P.P.W.* f L , H F - - , + = ",
"f 2 = & < S = < * `.W.W.P.P.P.P.P.P.P.P.P.P.P.P.P.P.P.P.P.P.P.P.W.`.* & < S = * W.P.P.P.P.P.P.P.P.P.P.P.P.W.* 2 < y < = , @ . q ",
", # @ & 5 f , < * 3.`.W.P.P.P.P.P.P.P.P.P.P.P.P.P.P.P.P.P.P.P.W.W.`.* & 5 f * W.P.P.P.P.P.P.P.P.P.P.P.P.P.W.* - , , , , 4 < = , ",
", @ j @ 4 , 4 2 * a.3.`.W.P.P.P.P.P.P.P.P.P.P.P.P.P.P.P.P.P.W.W.`.3.* @ 4 , * W.P.P.P.P.P.P.P.P.P.P.P.P.P.W.* = = = q 4 , = s = ",
"& = , & 1 , I = * a.3.`.W.W.W.W.W.P.P.P.P.P.P.P.P.P.P.P.W.W.`.`.3.x * & 1 , * `.P.P.P.P.P.P.P.P.P.P.P.P.`.`.* & & 5 5 , = = < . ",
"G 1 , @ L < & X * v.a.3.`.`.`.`.W.W.W.W.W.W.W.W.W.W.W.W.`.`.3.3.c c * @ L < * 3.`.`.`.P.P.P.P.P.P.P.`.`.c c * < < 5 = @ @ , & = ",
"f y , = + , @ @ @ * v.a.3.3.3.3.`.`.`.`.`.`.`.`.`.`.`.`.3.3.;.' c c * = + , * 3.3.;.;.`.`.`.`.`.`.`.c c ' ' * y < +., q 4 q = , ",
"& N y =   & j q f * v.v.a.a.a.a.3.3.3.3.3.3.3.3.3.3.3.3.a.a.a.;.' c * =   & * 3.3.3.v.;.;.;.;.;.;.;.;.' ' ' * } 4 = s < 1 < J 4 ",
"= H < % o < q j < 4 * v.v.v.v.a.a.a.a.a.a.a.a.a.a.a.a.a.v.v.a.a.;.' * % o < * 3.3.3.v.v.v.v.v.v.v.;.' ' ' c * 5 @ q 4 = & @ @ & ",
"= & = 4 G & , , < < * v.v.v.v.v.a.a.a.a.a.a.a.a.a.a.a.v.v.v.a.;.' c * 4 G & , * 3.3.3.3.v.v.v.v.;.' ' ' c * @ @ q 2 , & @ @ + % ",
"4 - q 4 4 1 < , & = @ * v.v.v.v.v.v.a.a.a.a.a.a.a.a.v.v.v.v.a.;.' c * 4 4 1 < , * * 3.3.3.v.;.;.' c c c * 2 @ = q = % @ @ 4 & % ",
", = G 4 9 = q , , @ = , * v.v.v.v.v.v.v.v.v.v.v.v.v.v.v.v.a.;.' c x * 4 9 = q , , @ * * * ;.' c * * * * = = = % , = @ O.L S , < ",
"& = , 9 & q 1 j , , q j p * v.v.v.v.v.v.v.v.v.v.v.v.v.a.a.;.' c c * < 9 & q < j , , q j p * * * S L y % , u l u 9 9 4 L 4 @ 4 I ",
"% = = = = = & & N S 4 H , f * ' ' ' ' ;.v.v.v.v.a.a.a.a.a.' c c x * = = = = & & N j 4 H , f 1 < y Y L = u f = = = H 9 1 @ @ 4 4 ",
"% = + q , = = X K < = , j y & * * * * ' ' ;.v.a.a.a.a.;.c c c x * = + q , = = X K < = , j y & & = , = 2 f = , = = = = F 2 @ < 4 ",
"= % . = 4 & y f < = , = 4 , , , & , 1 * * ' ' ;.;.;.' c c x * * = % . = 4 & y f < = , = 4 , , , & , 1 % G = - m W Z 2 P 2 = @ 4 ",
"@ + @ , & = & 1 4 , & @ < @ = = + @ 2 2 2 * * * * * * * * * @ & @ + @ , = = & 1 4 , & @ < @ = = + @ 2 2 2 > <.A.~.G.= , = X @ & ",
"< = = < , = = y , = = 5 q < L 5 & 4 @.u @ + @ @ = & & + , @ , , < = = < , = = y , = = 5 q < L 5 & 4 @.2 + %.~.~.W.4.v + , @ , , ",
"F 4 @ 4 y < 4 , % @ S q < K y @ , G K p - = 2 q < < , = < < , 5 F 4 @ 4 y < 4 , % @ S q < K y @ , G B s.c.v.S.F.6.u.Z.1.< < , 5 ",
"K K o 5 q = , = % < 4 , & & & @ q y 1 = < = 7 < , & = & , & < 1 K K o 5 q = , = % < 4 , & & & @ q y c.(.Q.E.D.b.P.E./.F., & < 1 ",
"q 9 4 < , = , @ % & & , , & @ , q 4 4 , . 1 o.5  .< , & < @ q 1 q 9 4 < , = , @ % & & , , & @ , q 4 0.^.W.!.L.z.W.~.).^ < @ q 1 ",
"1 , 1 f q . , q 1 y ) d.m q s & & & = 1 < 4 = 4 1 @ @ @ = * * * * * * * * * * q 1 f < O u q s & & & ( f.N.J.[ : *.e.1.$ = @ 4 1 ",
"= q p p | & , 4 m =.L.B.:.1 < , p 1 5 s S 4 4 = q 4 f * * `.`.`.`.`.`.`.`.`.`.* , < I @ j 1 < , p 1 2 V b b 2 = 2 2 7 y 4 q - 4 ",
"= 1 , 4 @ . & , Z._.Z.H.Q.= = s f f 4 < < # 2 , 5 5 * `.`.W.W.W.W.W.W.W.W.W.W.`.* * * & = = = s f f 4 < < # 2 , 5 5 s 1 , , @ + ",
"= , @ = < & = @ / 0.B C C p = , < 1 # G s , = % * * `.W.W.P.P.P.P.P.P.P.P.P.P.W.`.`.`.* * p = , < 1 # G s , = % < y < < 2 < = , ",
"q & = S 4 y y < X , 5 5 1 q < r q , < 2 j , , * `.`.W.P.P.P.P.P.P.P.P.P.P.P.P.P.W.W.W.`.`.* * r q , < 2 j , , = < q 1 K 5 = 4 L ",
"< = f 1 4 q y p @ f f L L s 5  .+ G j = @ , * `.W.W.P.P.P.P.P.P.P.P.P.P.P.P.P.P.P.P.P.W.W.`.`.* + G j = @ , , q q { S < 4 2 A 5 ",
", - @.} , , = < = q 2 I y j S j & q L G 1 * `.W.W.P.P.P.P.P.P.P.P.P.P.P.P.P.P.P.P.P.P.P.P.W.W.`.* q L G 1 @ 9 q  .< < , = = , y ",
", % I S & = = = , q 5 f G j 1 f = S F 2 * `.W.W.P.P.P.P.P.P.P.P.P.P.P.P.P.P.P.P.P.P.P.P.P.P.W.W.`.* F 2 ! = 1 G @., , = = = F , ",
"< @ q , 4 & < 1 = < 5 p s p f f = 4 L * `.W.W.P.P.P.P.P.P.P.P.P.P.P.P.P.P.P.P.P.P.P.P.P.P.P.P.W.`.* L , = @ q 4 y , = , +   1 ! ",
"- , 4 O.S 4 s , & 9 = 4 5 < H ! + = * `.W.W.P.P.P.P.P.P.P.P.P.P.P.P.P.P.P.P.P.P.P.P.P.P.P.P.P.W.`.* , 4 - = 4 G , , & = X.% F X.",
"- q s 4 & , , = L 4 @ = < = H , = = * 3.`.W.P.P.P.P.P.P.P.P.P.P.P.P.P.P.P.P.P.P.P.P.P.P.P.P.W.W.`.* @  .< 4 % = + J y F f , = - ",
"S 4 = & , @ + q 1 q Y = = = , < 4 < * a.3.`.W.P.P.P.P.P.P.P.P.P.P.P.P.P.P.P.P.P.P.P.P.P.P.W.W.`.3.* 4 , = - f L 2 H F - - , + = ",
"f 2 = & < S = < S u S F = + f S F s * a.3.`.W.W.W.W.W.P.P.P.P.P.P.P.P.P.P.P.P.P.P.P.P.W.W.`.`.3.x * F < + F q 2 < y < = , @ . q ",
", # @ & 5 f , < 2 e.Y.C.: < O.@.....* v.a.3.`.`.`.`.W.W.W.W.W.W.W.W.W.W.W.W.W.W.W.W.W.`.`.3.3.c c * s y @ f L - , , , , 4 < = , ",
", @ j @ 4 , 4 2 p.R.P.H.z.) S F < 2 2 * v.a.3.3.3.3.`.`.`.`.`.`.`.`.`.`.`.`.`.`.`.`.`.3.3.;.' c c * 2 7 @ 4 7 = = = q 4 , = s = ",
"& = , & 1 , H s._.I.A.F.I.~.=.= @ = 4 * v.v.a.a.a.a.3.3.3.3.3.3.3.3.3.3.3.3.3.3.3.3.3.3.a.a.;.' c * 4 = + % = & & 5 5 , = = < . ",
"G 1 , @ L < ; t.l.I.E.Q.~.m.$.: = = 1 @ * v.v.v.v.a.a.a.3.3.3.3.3.3.3.3.3.3.3.3.3.a.a.v.a.a.a.;.' * 1 @ @ 5 q < < 5 = @ @ , & = ",
"f y , = + = &.r.q.f.b.S.j.E R z = @ @ & * v.v.v.v.v.a.a.a.a.a.3.3.3.3.3.3.3.3.a.a.a.v.v.a.a.;.' c * @ & 4 q q y < +., q 4 q = , ",
"& N y = . %.a.a.h.f.q.q.7.#.$.7.k.> q f s * v.v.v.v.v.v.a.a.a.a.a.a.a.a.a.a.a.a.a.v.v.v.a.a.;.' c * q f s q < } 4 = s < 1 < J 4 ",
"= H < b s.L.F.l.f.b.b.r.-.7.H.Q.Q.m q < f K * v.v.v.v.v.v.v.v.v.v.v.v.v.v.v.v.v.v.v.v.a.a.;.' c x * q < f K 4 5 @ q 4 = & @ @ & ",
"= & ( W.!.U.D.T.V.l.l.x.H.E.I.P.Q.<.4 , , 5 @ * v.v.v.v.v.v.v.v.v.v.v.v.v.v.v.v.v.v.a.a.;.' c c * 4 4 , , 5 @ @ q 2 , & @ @ + % ",
"4 - L.~.I.U.G.G.H.l.f.v.M.Q.Q.I.W.*.4 = 2 2 @ = * ' ' ' ' ;.a.a.a.a.v.v.v.v.v.a.a.a.a.a.' c c x * 4 4 = 2 2 @ = q = % @ @ 4 & % ",
", = g.N.T.Q.R.j.f.l.N.K.i.,.Z.^.Z.B < = = = = % , * * * * ' ' ;.;.;.a.a.a.a.a.;.;.;.;.c c c x * , , < = = = = % , = @ O.L S , < ",
"& = _ r.y.;.R $.g.G.!.(.Z.] ` 5.2.*.y % , u l u 9 9 4 L 4 * * ' ' ' ' ' ' ' ' ' ' ' c c x * * 4 S L y % , u l u 9 9 4 L 4 @ 4 I ",
"% = = = Q n T 2.~ b.L.l.>.n.9.8.0.B L = u f = = = H 9 1 @ @ 4 * * * * * * * * * * * * * * f 1 < y Y L = u f = = = H 9 1 @ @ 4 5 ",
"% = + q - = = X L / 7.#.Z._.w.( = , = 2 f = , = = = = F 2 @ < 4 % = + q , = = X K < = , j y & & = , = 2 f = , = = = = F 2 @ < 4 ",
"= % . = 4 & y f < = > W k.w.; , & , 1 % G = 2 , = < 2 P 2 = @ 4 = % . = 4 & y f < = , = 4 , , , & , 1 % G = 2 , = < 2 P 2 = @ 4 ",
"@ + @ , & = & 1 4 , & @ < @ = = + @ 2 2 2 2 = = 4 X 1 , = X @ & @ + @ , & = & 1 4 , & @ < @ = = + @ 2 2 2 2 = = 4 X 1 , = X @ & ",
"< = = < , = = y , = = 5 y < L 5 & 4 @.u @ + @ @ = & & + , @ , , < = = < , = = y , = = 5 q < L 5 & 4 @.u @ + @ @ = & & + , @ , , ",
"F 4 @ 4 y < 4 , % @ S q < K y @ , G K p - = 2 q < < , = < < , 5 F 4 @ 4 y < 4 , % @ S q < K y @ , G K p - = 2 q < < , = < < , 5 "
};
