/* XPM */
static char *xpm_[] = {
/* columns rows colors chars-per-pixel */
"64 64 256 2 ",
"   c #0D0C32",
".  c #2C0B33",
"X  c #152D3C",
"o  c #3A3523",
"O  c #332F32",
"+  c #251A14",
"@  c #54042D",
"#  c #77002B",
"$  c #6C0032",
"%  c #4A3726",
"&  c #4E3A2A",
"*  c #473525",
"=  c #543E2C",
"-  c #583F2C",
";  c #483235",
":  c #612A1A",
">  c #31432A",
",  c #56402E",
"<  c #5A422E",
"1  c #5D4431",
"2  c #5C4837",
"3  c #4C5133",
"4  c #614633",
"5  c #644935",
"6  c #694D37",
"7  c #664C38",
"8  c #6A4E39",
"9  c #6D513B",
"0  c #65533F",
"q  c #72543D",
"w  c #73593F",
"e  c #6B562B",
"r  c #526735",
"t  c #6A7330",
"y  c #705D18",
"u  c #001254",
"i  c #0F304F",
"p  c #2D314C",
"a  c #000F6F",
"s  c #05316F",
"d  c #2B1654",
"f  c #693550",
"g  c #49354F",
"h  c #354D4E",
"j  c #03526E",
"k  c #096A77",
"l  c #367177",
"z  c #284C62",
"x  c #585647",
"c  c #475954",
"v  c #565C53",
"b  c #4B514A",
"n  c #6A5745",
"m  c #745641",
"M  c #765942",
"N  c #7A5B44",
"B  c #7D5D48",
"V  c #765B49",
"C  c #63544A",
"Z  c #526A52",
"A  c #7D614A",
"S  c #6B6C52",
"D  c #4C5066",
"F  c #725370",
"G  c #486867",
"H  c #586964",
"J  c #487679",
"K  c #527371",
"L  c #6A746F",
"P  c #910A1C",
"I  c #B80A18",
"U  c #AF1624",
"Y  c #AF2A2E",
"T  c #971D21",
"R  c #C70E16",
"E  c #D0281D",
"W  c #F12D0B",
"Q  c #D33523",
"!  c #9B642A",
"~  c #F84D0E",
"^  c #EA572A",
"/  c #F76B30",
"(  c #E05829",
")  c #99355D",
"_  c #825D49",
"`  c #825951",
"'  c #83634D",
"]  c #896A53",
"[  c #93735B",
"{  c #916E51",
"}  c #B7655A",
"|  c #B36E66",
" . c #926066",
".. c #D25A4E",
"X. c #D26947",
"o. c #F27749",
"O. c #DE6D66",
"+. c #708B35",
"@. c #728B4A",
"#. c #7BA353",
"$. c #648469",
"%. c #908834",
"&. c #AD952D",
"*. c #8CA536",
"=. c #AFA932",
"-. c #9D930F",
";. c #FF883E",
":. c #CDAE34",
">. c #E4B61A",
",. c #F0D631",
"<. c #EDE235",
"1. c #90974B",
"2. c #A98A4C",
"3. c #8FAB57",
"4. c #ADB153",
"5. c #AFB466",
"6. c #8B9E67",
"7. c #FB9C53",
"8. c #F68F50",
"9. c #FFA656",
"0. c #FFB45D",
"q. c #E9986D",
"w. c #B2C654",
"e. c #B6C46F",
"r. c #ABD85D",
"t. c #D2CE53",
"y. c #F5F957",
"u. c #D1E57E",
"i. c #FBF878",
"p. c #F9F36B",
"a. c #D2D85D",
"s. c #B4C933",
"d. c #041290",
"f. c #082A91",
"g. c #003BAF",
"h. c #005A8C",
"j. c #066F8B",
"k. c #387A85",
"l. c #034FB2",
"z. c #0675B9",
"x. c #326AAF",
"c. c #2F4A94",
"v. c #497D81",
"b. c #516E8C",
"n. c #667294",
"m. c #5164A0",
"M. c #2A33CE",
"N. c #0655C1",
"B. c #0E6FD7",
"V. c #0B74FF",
"C. c #0D57F3",
"Z. c #955D9A",
"A. c #028699",
"S. c #29889C",
"D. c #388A98",
"F. c #3B838D",
"G. c #0293A5",
"H. c #0C96AF",
"J. c #2A96AB",
"K. c #279CB7",
"L. c #2E90A3",
"P. c #0FA4B6",
"I. c #28A2BD",
"U. c #2EA7B2",
"Y. c #4C868E",
"T. c #708B8C",
"R. c #4C8CB1",
"E. c #6F84AA",
"W. c #72B0AE",
"Q. c #40A9B3",
"!. c #1BA5C7",
"~. c #12B3DC",
"^. c #16B7D9",
"/. c #08B1D1",
"(. c #23A6C4",
"). c #32B3CC",
"_. c #0BBAE9",
"`. c #01BDFE",
"'. c #06BDF3",
"]. c #16BAEA",
"[. c #0B8ACA",
"{. c #55B4CE",
"}. c #0DC9D8",
"|. c #2CCBDA",
" X c #00C4FF",
".X c #01CBFE",
"XX c #09C8F9",
"oX c #0BD3FE",
"OX c #02D4FD",
"+X c #17D5FD",
"@X c #0DCEEC",
"#X c #27D9FD",
"$X c #38DBFE",
"%X c #2ED6E7",
"&X c #19EEF4",
"*X c #3AE3FD",
"=X c #30EAFD",
"-X c #4BD3CF",
";X c #4FDEFE",
":X c #46E5FC",
">X c #59EAFC",
",X c #4AFBFD",
"<X c #55FAFD",
"1X c #43E2EB",
"2X c #69EBFE",
"3X c #74EBFC",
"4X c #67F7FE",
"5X c #77F7FD",
"6X c #60E4EF",
"7X c #6AD9DB",
"8X c #979198",
"9X c #CE9990",
"0X c #C8B289",
"qX c #F7B391",
"wX c #C1A9A9",
"eX c #A2E3A5",
"rX c #FFCC94",
"tX c #D2F394",
"yX c #FEFD98",
"uX c #EFF48F",
"iX c #FED2AD",
"pX c #D6FAAF",
"aX c #FCFCA7",
"sX c #FDFFB9",
"dX c #EDEDB3",
"fX c #D8D299",
"gX c #ADB4CB",
"hX c #8BFCFD",
"jX c #84F4FC",
"kX c #98F8FE",
"lX c #8DECF9",
"zX c #A8FAFE",
"xX c #BCFDFE",
"cX c #B4FAFD",
"vX c #AFECF7",
"bX c #9EDDD3",
"nX c #FEDACF",
"mX c #D0F6D2",
"MX c #FEFCC8",
"NX c #FEFED9",
"BX c #F5E9CB",
"VX c #C4FDFE",
"CX c #C9FCFD",
"ZX c #D5FEFE",
"AX c #DCFEFF",
"SX c #DAF4F4",
"DX c #CFE8EB",
"FX c #FAFEE8",
"GX c #E3FEFE",
"HX c #ECFFFF",
"JX c #E4FAF4",
"KX c #F3FFFF",
"LX c #FDFFFF",
"PX c #FCFEF3",
"IX c #E8F6F1",
"UX c #CDCFD6",
/* pixels */
"B B % 8 9 1 4 < , 5 8 4 < < < = 9 q 6 1 5 1 8 5 4 < 1 < 4 < 5 6 B B % 8 9 1 4 1 , 5 8 4 < < < = q 9 6 1 5 1 8 5 4 < 1 < 4 < 5 6 ",
"9 9 8 5 4 < 4 = , < < 4 4 < = 4 9 8 8 4 * 6 { 8 ' 5 4 < 5 - 9 6 9 9 8 5 4 1 4 - , < < 4 4 < = 4 9 8 8 4 * 6 { 8 ' 5 4 < 5 - 9 6 ",
"6 4 6 q 9 * 4 9 6 q 5 % 9 9 q < < < 1 6 5 8 1 8 6 = - - 1 = 8 6 6 4 6 q 9 * 4 9 6 q 5 % 9 9 q < < < 1 6 5 8 1 8 6 = - - 1 = 8 6 ",
"1 9 q q ' < 4 8 4 5 B = w 6 5 4 q 6 8 q m 8 8 1 9 8 q 9 8 9 1 8 1 9 q q ' < 4 6 4 5 B = w 6 5 4 q 6 8 q m 8 8 1 9 8 q 9 8 9 1 8 ",
"1 6 4 8 - * < 4 4 1 , < 1 1 1 q q q 8 5 5 - 7 4 8 8 q 6 4 4 = & 1 6 4 8 - * < 4 4 1 , < 1 1 1 q q w 8 5 5 - 7 4 8 8 q 6 4 4 = & ",
"1 4 - 1 5 < 1 = 4 < 5 5 8 q 1 4 5 6 - M q 4 1 , 5 9 H H 7 5 1 !.G 4 - 1 5 < 1 = 4 < 5 5 8 q 1 4 5 6 - M q 4 1 , 5 9 5 5 7 5 1 4 ",
"9 < 1 m 8 9 9 5 % 4 8 8 6 9 5 9 9 4 5 7 w 4 4 1 5 K ^.L H 2 8 (.(.< 1 m 8 9 9 5 % 4 8 8 6 9 5 9 9 4 5 7 w 4 4 1 5 9 6 B 8 1 8 N ",
"5 1 q 7 8 9 9 q - q q N N q 8 ' & M w 1 - 4 4 9 8 Y.H J %X7 H ~.#XL.q 7 8 9 9 q - q q N N q 8 ' & M w 1 - 4 4 9 9 _ m 5 8 7 m 8 ",
"4 1 [ _ 4 4 1 5 1 9 7 B 9 w m w < 9 N w 6 = 9 9 ' 5 G *XxXJ G  X>X+X[ L !.x 1 5 1 9 7 B 9 q m w < 9 N w 6 = 9 9 ' 5 5 4 1 1 4 9 ",
"4 , B m < 1 1 1 4 9 8 q M w 6 q < w q 7 A 1 6 M [ G #XZXAXK.J .XzX3X(._..X~.1 1 4 9 8 q M m 6 q 1 m q 5 A 1 6 M [ 4 4 1 1 1 m 4 ",
"5 = 9 4 8 < 5 6 1 5 8 q q q q q 1 8 N 4 c c C 0 F.`.:XLXZX.X'.*XHXLX2X.X X.XJ 7 1 x v q q q q q 1 8 N 4 1 = 9 8 9 4 1 4 & o 6 A ",
"1 4 8 ] m 8 q 4 < 8 1 8 8 5 V A & 1 4 H !.L.!.I. X XlXPXKX5X X#XZXLXKX2X X X_.4 G ^.G 8 K x V ' & 1 4 8 1 1 8 M 4 4 < 1 ] , m ] ",
"1 9 q 8 < 4 4 1 N 8 = 1 5 1 V 4 1 1 = $.G F. X.X XOXmX=.fXKX2X2XGXaXMXVX:X.X_.!..X.X= l .X_.S J x 1 = ' 5 8 , 1 & N 9 m q 4 1 2 ",
"m 8 1 < 4 - & 9 6 9 B 1 1 1 4 5 8 5 8 4 G _.:X.X.X5XyXo 1.LXVXxXLXt.-.sXzX*XoX=XOX X^. X#X:X_.L.J.5 8 4 4 1 q N 4 V m 2 1 4 & 1 ",
"q 7 1 < 5 m 1 5 m 9 m m 1 & q m m q n 5 l .X5X>XOXIX&.j.T.t.t.mXLXa.  2.pX5X4XbXr.-X`..XhX>X XS v.L.m 5 & m 9 7 5 9 5 1 4 = * 9 ",
"4 - = < 8 q 4 5 9 8 4 5 1 6 ] [ ] S XX(.k..X>XZXjXtXe ].vXx i @.:.,.E.E.t MXLX2.! bX.XlXGX*X X$.] L q 9 - w N 1 4 4 4 4 8 5 1 4 ",
"4 - w = 6 4 8 6 9 6 6 - = 6 m m v ~..X X.X X*XZXNX-.Z.zX,XcXkXR.j y k xXwX1.aXS h tXhXKXZX*X XK 5 7 7 8 - 8 8 1 1 1 9 8 4 1 q 1 ",
"< 1 4 < 6 4 B 1 8 9 4 1 1 9 m 1 L..XoX#X X XbXFXfX3 bXbX&X,XlXLXZXn.j.4XHXD * -X/.! PXKXZX*X XG - 1 8 1 & , 1 < < 8 8 4 1 1 5 * ",
"w 6 4 = N 5 < % 4 9 1 1 , 9 q 8 S. X+XjXoX-X%.p.:.a cXT.P.=X}.|.zXzXP.&XcXb.h.,XH.%.i.aXkX:XK.C 1 1 6 = - 8 9 5 5 8 1 - = 4 < 1 ",
"q 9 4 1 & 4 = - = 5 1 , 5 1 q 1 S..X.XjX<XtX* 3 &.s cXW.P.%X<X/./.P.K.&XvXR.A.U.j.h > y eX+XH 4 !.L.= < 8 9 9 9 5 { 4 9 8 9 1 4 ",
"< n 9 1 o < w 9 q 1 & 5 q q 3 b 1 !..XkXxXpX3 z.G j %XJ.|.&X|.,X}.H.|.@X7XQ.-XgXvX).u 5.6X~.h S. X.XD.q q 9 5 _ 8 1 q 5 6 5 N 8 ",
"1 V 5 , & 5 9 w 5 8 - 9 5 M D.!.9 '..XzXLXaX> %XVX).j k IXhX@X}.<X*X%X%X/.hXcX,X,XY.,.FX*XJ.J. XoX.XK.5 q B 8 8 = 9 8 1 < - = < ",
"1 < 1 8 M < 4 4 5 5 4 5 4 6 G K.J.K.XX>XAXyX+ /.5XHXJ.j DXLX4X}.%X,X@X/.6XVX}.&Xh.&.aXGX:X X X#X2X.XJ.4 4 8 - - 9 7 4 < = - & , ",
"8 2 9 8 8 6 5 4 < 1 = 8 < 5 1 S c 8 ~..XzXFX4.l @X1XZXU./.xXLX5X}.A.A./.Q.j.j.A.i ; yXaX*X`.#XhX3X.XJ.1 7 7 - 1 9 1 , - - 8 < , ",
"4 1 M 8 9 1 9 4 4 - 1 4 - 5 1 G J 4 ~.oXzXLXyX>.S.OX>XZX^.}.cXKXU.P.}.G.G.}.U.j.P.z.3 t.5X*X5XZX$XK.S.k.2 1 1 , 4 1 = ] N m 4 5 ",
"< 1 4 9 < 9 5 w 4 4 9 w q % 2 J. XJ ^.oXpXt.a.:.X P.}.>X|.A.H.D.|.,X5XP.).zX,XH.G.@X[.Z tXhXxXkX.X_.Y.S.G 9 w 9 9 9 8 N 8 - 8 B ",
", 1 1 1 1 1 < < n w 8 V 4 q G .X+X.X`.oXpX&.  s j k A.P.G.K.<XA.}.4XPXbX{.vXhX&XG.j z.h i.LXxXOX XI.N 1 n q 1 1 1 V 9 6 - - 8 8 ",
", 1 & 9 4 1 1 % N 5 1 4 w 9 G  XlXjX`.+X4XmX%.h..X/.A.A.A.1X=XL.H.<XnXo.[ G gXkXP.; t o yXHXhXoXk.4 1 7 q 1 4 1 1 1 1 m 7 - 5 8 ",
"1 , * 1 8 < 9 q 5 1 4 1 8 4 G  X>XKX$XoX>XzXNX5.s j.G.A.G.&XK.8.} /.bXo.8.q.. {./.&.aX:.i.cX4XoXk.4 6 , M 1 7 4 1 5 7 V 7 1 = 8 ",
"- & = 4 < 1 < 6 8 4 < = 5 , G  X#XHXZX:X5XZXHXi.y s /.j T.}.W.o.[ j U.qX8.nXh Z s 1.LXMXMXxX4X>XoXS.7 7 7 7 1 1 8 & 6 4 1 % - < ",
"5 1 1 5 4 1 1 9 4 1 1 8 n k.Y._..X3XLXVXzXKXaX%.Z z.[.s qX8XW.dXF b.W.fX9X9X$.y.! 8XKXAXHXkX5XZX#X(.[ 9 = & = - 1 < < & 4 = 4 4 ",
"m 8 - 8 9 5 8 4 - = m 9 5 Y.!.l  X$XGXLXAXAXJXuX4.O o   8X9XqXFX| nXlXj.UXD w.LXMXdXZXKXzX>XVXkX_.M B q 1 1 7 9 5 5 4 1 5 5 4 8 ",
"B B % 8 9 1 4 1 , 5 8 4 < b l 3 (. X*XGXLXAXAXGXFXaXsX5.1.S f BXNXBXbXlXUX%.p.HXGXGXAXHXcXxXcX@XD.v.v 4 5 1 8 5 4 < 1 < 4 < 5 6 ",
"9 9 8 5 4 1 4 - , < < 4 4 < = x I. X X*XZXHXGXZXHXsXsXe.1.Z   } BXNXNXiXp r 6.aXyXIXZXAXHXLXcX@XJ..X_.v * 6 { 8 ' 5 4 < 5 - 9 6 ",
"6 4 6 q 9 * 4 9 6 q 5 % 9 9 H XX.X.X X.XzXKXAXPXe.3 r T $ s q.o.}  .| ..L F T 3 3 5.FXAXLXZX#X.X3X.X.Xk.6 8 1 8 6 = - - 1 = 8 6 ",
"1 9 q q ' < 4 8 4 5 B = w 6 G  X#X5X2XjXGXGXAXPX&.a l...Q m.MXBXq.: | dX7X..;.l.d.%.NXHXVX#X+XxX;X.X XJ m 8 8 1 9 8 q 9 8 9 1 8 ",
"1 6 4 8 - * < 4 4 1 , < 1 1 1 H ].>XVXKXHXAXZXLX=.u B.x.X.n.B.R.x.x.R.[.b.o.n.B.d.&.LXZX*XoXGXLX+X XI.7 5 - 7 4 8 8 q 6 4 4 = & ",
"1 4 - 1 5 < 1 = 1 < 5 5 9 v x v F. X5XLXGXAXGXdX6.n.T.x.../ c.d.f.f.d.N.9X8.x.b.n.6.fXCX4XVXLXVXoX~.c M q 4 1 , 5 9 5 5 7 5 1 4 ",
"9 < 1 m 8 9 9 5 % 4 8 8 8 XX~.H C _.$XVXKXGXKXw.v iXqXn.2./ / x.N.l.c.wXAXq.H qXiXH =.FXVXKXKXhX.X~.G 7 w 4 4 1 5 9 6 B 8 1 8 N ",
"5 1 q 6 8 9 9 q - q q N N J Y.(.b D.`.#XVXKXKXu.+ O.LXz } 8.W 8.0X0X7.W q.7.O PXiX  t.PXGXGXLX;X X^.S S.G 4 4 9 9 _ m 5 8 7 m 8 ",
"4 1 [ _ 4 4 1 5 1 9 7 B F.H K..X_.~..X`.:XzXJXu.+ ) 8X1.t f Q ~ ~ ~ ~ ( ! 3 3.8X} . t.NXAXKXxX.X!.v.I.K.S.- 9 9 ' 5 5 4 1 1 4 9 ",
"4 , B m < 1 1 1 4 9 8 q S H  X;X2X X X$XzXZXi.@.qXf t i.yX=.f.Z.R I ) g.+.tXFX@.. qXv e.KXKXkXOX'.@XoX_.L 1 6 M [ 4 4 1 1 1 m 4 ",
"5 = 9 4 8 < 5 6 1 6 8 q q C  X2XKX+X XkXLXHXp.b DXn.3.LXFX4.g M.C.C.M.d *.NXLX4.z DXp 4.LXKXcXoX`.$X3X Xc = 9 8 9 4 1 4 & o 6 A ",
"1 4 8 ] m 8 q 4 < 8 1 8 8 v  X;XLXVX=X5XKXGXi.b V.l.z SXu.O ~ | n.E.| / ; w.yX3 f.V.i t.LXZXkXoX`.kXvX XG 1 8 M 4 4 < 1 ] , m ] ",
"1 9 q 8 < 4 4 1 N 8 = 1 5 2 Y.#XGXLXZXVXGXGXp.x gXDXp 3.6.T / ;.U ~ / 9.Y n s.D UXUXp e.LXxX+X X>XKX>XY.7 8 , 1 & N 9 m q 4 1 2 ",
"m 8 1 < 4 - & 9 8 9 B 1 1 1 x XX:XGXLXKXZXGXp.S qXrXF +.w o.0.9.Y X./ 9.8.g @.L rXrXh 5.LXVXOX$XLXxX(.x 1 1 q N 7 V m 1 1 4 & 1 ",
"q 7 1 < 5 m 1 5 m 9 m m 1 & n Y.'.:XGXKXAXGXy.v iXqXL p Y 9.7.7.Y ( ^ 7.9.( X K 9XiXp 5.LXzX>XGXLX$X`.~.b m 9 7 5 9 5 1 4 = * 9 ",
"4 - = < 8 q 4 5 9 8 4 4 1 8 Y.).L '.:XHXKXAXyX+.Z.8X3.h Y 7.7.0.Y I / 9.9.Q ; #.6.8Xx t.KXcXVXLXcX X~.H - q N 1 4 4 4 4 8 5 1 4 ",
"4 - w = 8 4 8 7 9 6 6 - = v (.J 5 K. X:XZXHXHXdXt 3.C # Q 9.0.;.@ . o.0.9.^ P C 3.S <.aXZXGXLXZX#X X!.8 - 8 8 1 1 1 9 8 4 1 q 1 ",
"< 1 4 < 6 4 B 1 8 9 4 1 1 v v.2 J._. X.XzXLXZXKXy.0 R I Y 0.8./ i u ^ / 0.( I I ; y.aXAXAXHXxX+X`..X.X_.b - 1 < < 8 8 4 1 1 5 * ",
"M 6 4 = N 5 < % 4 9 1 1 < 9 n _..XoX XoX5XxXHXPX#.. W $ Q ^ / ` 3.w.] / ^ ( # E # @.LXZXGXGXVXzXzX*X XJ.3 8 9 4 5 8 1 - = 4 < 1 ",
"q 9 4 1 & 4 = - = 5 1 , 5 1 J  X#X>X3XjX4XzXKXPX#.. R $ E I U d a.y.p T P Q $ I P @.FXZXAXHXLXcX:X+XS.< 8 9 9 9 5 { 4 9 8 9 1 4 ",
"< n 9 1 o < w 9 q 1 & 5 q q c !.XXXX>XKXKXAXAXPXe.2 U P $ U R . w.y.. R U # # U : 5.FXZXHXLXjX.X_.J 9 q 9 9 5 _ 8 1 q 5 6 5 N 8 ",
"1 V 5 , & 5 9 w 5 8 - 9 5 M 4 5 H  X X>XKXKXAXZXNXw.@ R I E @ O uXyX2 @ U R R @ Z MXZXHXGX5X X`._.v.K 5 q B 8 8 = 9 7 1 < - = < ",
"1 < 1 8 w < 4 4 5 5 4 5 4 6 5 k.J H '. X:XGXKXZXMX=.s ..) p *.uXKXHXuX*.h F ..s r sXZXHXAXkXvX2X.X.XJ 4 4 8 - - 9 7 1 < = - & , ",
"8 2 9 8 6 6 5 4 < 1 = 8 < 5 1 L h F.XX X X>XKXGXNX=.l.Z.p r.MXKXZXZXHXMXtXi Z.g.r MXGXLXZXcXjX$X_.v 8 1 7 7 - 1 9 1 , - - 8 < , ",
"4 1 M 8 9 1 9 4 4 - 1 4 - 5 1 4 4 G G ~.'.+XVXKXdX*._ F Z yXGXAXGXGXAXAXsXr b._ t dXJXkX:X~.k.v x 4 5 1 1 1 1 , 4 1 = ] N m 4 5 ",
"< 1 5 9 < 9 5 w 4 4 9 w q % 4 8 m N 9 , J  X>XKX4.o <.h 5.LXAXGXAXAXAXAXHXa.X ,.! 1.kX_.D.% 4 8 m N 9 , 4 9 w 9 9 9 8 N 8 - 8 B ",
", 1 1 1 1 1 < < n w 8 V 4 q 6 5 q B N 1 9 J %XeX$.f  .G fXIXSXSXSXSXSXSXSXaX$.F ) Z eXS 4 q 6 5 9 B N 1 9 q 1 1 1 V 9 6 - - 8 8 ",
", 1 & 9 4 1 1 % N 5 1 4 w 9 < < 4 4 1 7 q 1 4 1 1 1 1 m 7 - 5 8 , 1 & 9 4 1 1 % N 5 < 4 w 9 < < 1 4 1 7 q 1 4 1 1 1 1 m 7 - 5 8 ",
"1 , * 1 8 < 9 q 5 1 4 1 8 4 4 4 < 4 6 , M 1 7 4 1 5 6 V 7 1 = 8 1 < * 1 8 < 9 q 5 1 4 1 8 4 4 4 < 4 6 , M 1 7 4 1 5 7 V 7 1 = 8 ",
"- & = 4 < 1 < 6 8 4 < = 5 = 1 1 & - 7 7 7 7 1 1 6 & 6 4 1 % - < - & = 4 < 1 < 6 8 4 < = 5 = 1 1 & - 7 7 7 7 1 1 8 & 6 4 1 % - < ",
"5 1 1 5 4 1 1 9 4 1 1 8 9 5 N 8 < 8 [ 9 = & = - < < < & 4 = 4 4 5 1 1 5 4 1 1 9 4 1 1 9 9 5 N 8 < 8 [ 9 = & = - 1 < < & 4 = 4 4 ",
"m 8 - 8 9 5 8 4 , = m 9 5 B 9 - 4 M B q 1 1 7 9 5 5 4 1 5 5 4 8 m 8 - 8 9 5 8 4 , = m 9 5 B 9 - 4 M B q 1 1 7 9 5 5 4 1 5 5 4 8 "
};
