/* XPM */
static char *xpm_[] = {
/* columns rows colors chars-per-pixel */
"64 64 256 2 ",
"   c #2D0432",
".  c #142532",
"X  c #3F3021",
"o  c #232733",
"O  c #141B23",
"+  c #51132B",
"@  c #6E032D",
"#  c #4A3726",
"$  c #4D3A2A",
"%  c #473525",
"&  c #543E2C",
"*  c #583F2C",
"=  c #502F33",
"-  c #60311E",
";  c #3C423B",
":  c #767019",
">  c #56402E",
",  c #5A422E",
"<  c #5D4431",
"1  c #5C4A39",
"2  c #505135",
"3  c #614633",
"4  c #644935",
"5  c #694D37",
"6  c #664C39",
"7  c #6A4E39",
"8  c #6E513B",
"9  c #67533B",
"0  c #72543D",
"q  c #73583F",
"w  c #62452F",
"e  c #596C30",
"r  c #687035",
"t  c #5A4107",
"y  c #062F4E",
"u  c #2A374B",
"i  c #001D6F",
"p  c #04376A",
"a  c #2D3373",
"s  c #121949",
"d  c #523042",
"f  c #652453",
"g  c #0A4E57",
"h  c #35504F",
"j  c #034A6A",
"k  c #2D4C6F",
"l  c #0B6777",
"z  c #376E73",
"x  c #2C6659",
"c  c #5A5648",
"v  c #4F554D",
"b  c #6C5643",
"n  c #745641",
"m  c #765943",
"M  c #7B5B44",
"N  c #7D5E49",
"B  c #765D4A",
"V  c #4A615E",
"C  c #596851",
"Z  c #7D614A",
"A  c #6C6C53",
"S  c #53506A",
"D  c #476969",
"F  c #576B64",
"G  c #46757A",
"H  c #547373",
"J  c #697072",
"K  c #8E041A",
"L  c #B10A1C",
"P  c #920726",
"I  c #AE0D22",
"U  c #B12F37",
"Y  c #9E272C",
"T  c #D72B1B",
"R  c #F72400",
"E  c #C53C2D",
"W  c #C51115",
"Q  c #8C4434",
"!  c #B74638",
"~  c #87712F",
"^  c #A56708",
"/  c #FF5313",
"(  c #EA4E24",
")  c #FE7632",
"_  c #F96F32",
"`  c #E65B26",
"'  c #8C364F",
"]  c #983C6E",
"[  c #805F49",
"{  c #82644C",
"}  c #8A6B53",
"|  c #93735B",
" . c #916E51",
".. c #AC6F6B",
"X. c #975B65",
"o. c #D26F51",
"O. c #DE6449",
"+. c #778E38",
"@. c #6C9052",
"#. c #6B8469",
"$. c #5B955D",
"%. c #91851A",
"&. c #8D8D33",
"*. c #98A236",
"=. c #B3A334",
"-. c #FA8C39",
";. c #CBB334",
":. c #D5A01E",
">. c #EDD630",
",. c #E6E431",
"<. c #91A852",
"1. c #B0AF51",
"2. c #92AB6B",
"3. c #9C945D",
"4. c #FB934D",
"5. c #FFAB56",
"6. c #D88F67",
"7. c #F38E6B",
"8. c #F8B471",
"9. c #CBA856",
"0. c #B3D059",
"q. c #A4CC70",
"w. c #CDD052",
"e. c #F8F459",
"r. c #C8CD71",
"t. c #F4F66E",
"y. c #EAD05B",
"u. c #0A398C",
"i. c #0030AA",
"p. c #00198B",
"a. c #5F3698",
"s. c #004C83",
"d. c #016B84",
"f. c #057D95",
"g. c #06758F",
"h. c #387C86",
"j. c #2A7A86",
"k. c #0273AC",
"l. c #1B4FA6",
"z. c #4B7C8B",
"x. c #6B728B",
"c. c #5C5C95",
"v. c #0F2AC8",
"b. c #0F68D0",
"n. c #2972E8",
"m. c #4A6FCB",
"M. c #966F8C",
"N. c #A16192",
"B. c #01889C",
"V. c #37808B",
"C. c #368A99",
"Z. c #308C9E",
"A. c #009BB7",
"S. c #1297AE",
"D. c #2A8EA5",
"F. c #2895AB",
"G. c #259BB6",
"H. c #3392A5",
"J. c #0BA4B7",
"K. c #24A3BD",
"L. c #39AFBC",
"P. c #498790",
"I. c #47A5B1",
"U. c #6CADBB",
"Y. c #6797A0",
"T. c #0890C5",
"R. c #1AA6C8",
"E. c #06B8D4",
"W. c #14B4D9",
"Q. c #0BA9CE",
"!. c #29B3C9",
"~. c #0CB9E8",
"^. c #00BDFF",
"/. c #06BCF2",
"(. c #12B8E2",
"). c #36A0F3",
"_. c #61AFDB",
"`. c #0ECDDA",
"'. c #2BCCD4",
"]. c #00C4FF",
"[. c #01CBFF",
"{. c #0ACDFF",
"}. c #05C5F4",
"|. c #07D3FE",
" X c #1BD4FE",
".X c #14D5FE",
"XX c #14D2E8",
"oX c #28DAFE",
"OX c #36DDFE",
"+X c #39DAE6",
"@X c #18EAF1",
"#X c #38E4FC",
"$X c #37FBFC",
"%X c #29EDF7",
"&X c #4FC8D4",
"*X c #51D2EF",
"=X c #6DDAED",
"-X c #48E5FD",
";X c #5DEBFD",
":X c #54E7FD",
">X c #5AF7FB",
",X c #67E9FD",
"<X c #74EBFB",
"1X c #69FBFD",
"2X c #77F5FD",
"3X c #79E9EC",
"4X c #68CDDB",
"5X c #A88F90",
"6X c #AFB6B1",
"7X c #92A5A5",
"8X c #C8B0A9",
"9X c #E0AC99",
"0X c #D8DB8E",
"qX c #F9D08E",
"wX c #D9E591",
"eX c #FFFD99",
"rX c #EEEC8E",
"tX c #D8CDA9",
"yX c #FBCDA9",
"uX c #FEFEAA",
"iX c #FBFCB8",
"pX c #F5EEAD",
"aX c #CEF4AE",
"sX c #96A6C5",
"dX c #8EC9D2",
"fX c #A1CDD3",
"gX c #88F6FC",
"hX c #98F9FD",
"jX c #8EEEFC",
"kX c #A9FAFD",
"lX c #B2FCFE",
"zX c #BBFDFE",
"xX c #B7F6FB",
"cX c #AFF3F4",
"vX c #9CDFEC",
"bX c #F2D4CC",
"nX c #FFFFC4",
"mX c #FEFDCB",
"MX c #FFFDD8",
"NX c #EDFED3",
"BX c #C4FEFE",
"VX c #CBFEFE",
"CX c #C1F5FF",
"ZX c #D4FFFE",
"AX c #DCFEFF",
"SX c #CBF1EF",
"DX c #EAFFEB",
"FX c #FDFEE9",
"GX c #E3FEFF",
"HX c #EBFEFF",
"JX c #EAFEF5",
"KX c #F4FFFF",
"LX c #FEFFFF",
"PX c #FBFFF2",
"IX c #DDE4D4",
"UX c #9EEAB1",
/* pixels */
"N N # 7 8 < 3 , > 4 7 3 , , , & 8 0 5 < 4 < 7 4 3 , < , 3 , 4 5 N N # 7 8 < 3 < > 4 7 3 , , , & 0 8 5 < 4 < 7 4 3 , < , 3 , 4 5 ",
"8 8 7 4 w < 3 & > , , 3 3 , & 3 8 7 7 3 % 5 } 7 { 4 3 , 4 * 8 5 8 8 7 4 w < 3 * > , , 3 3 , & 3 8 7 7 3 % 5 } 7 { 4 3 , 4 * 8 5 ",
"5 3 5 0 8 % 3 8 5 0 4 # 8 8 0 , , , < 5 4 7 < 7 5 & * * < & 7 5 5 3 5 0 8 % 3 8 5 0 4 # 8 8 0 , , , < 5 4 7 < 7 5 & * * < & 7 5 ",
"< 8 0 0 { , 3 7 3 4 N & q 5 4 3 0 5 7 0 n 7 7 < 8 7 0 8 7 8 < 7 , 8 0 0 { , 3 7 3 4 N & q 5 4 3 0 5 7 0 n 7 7 < 8 7 0 0 7 8 < 7 ",
"< 5 3 7 * % , 3 3 < > , < < < 0 0 0 7 4 4 * 6 3 7 7 0 5 3 3 & $ < 5 3 7 & % , 3 3 < > , < < < 0 0 q 7 4 4 * 6 3 7 7 0 5 3 3 & $ ",
"< 3 * < 4 , < & 3 , 4 4 7 0 < 3 4 5 * m 0 3 < > 4 8 4 4 6 4 < 3 < 3 * < 4 , < & 3 , 4 4 7 0 < 3 4 5 * m 0 3 < > 4 8 4 4 6 4 < 3 ",
"8 , < n 7 8 8 4 # 3 7 7 5 8 4 8 8 3 4 6 q 3 3 < 4 8 5 N P./.6 M 8 z v n 7 8 8 4 # 3 7 7 5 8 4 8 8 3 4 6 q 3 3 < 4 8 5 N 7 < 7 M ",
"4 < 0 6 7 8 8 0 * 0 0 M M 0 7 { $ m q < * 3 3 8 8 [ n z.[.OXH.7 Z.G.b 6 7 8 8 0 * 0 0 M M 0 7 { $ m q < * 3 3 8 8 [ n 4 7 6 b 5 ",
"3 < | [ 3 3 < 4 < 8 6 N 8 q n q , 8 M m 5 & 8 8 { 6 D [.:XZX:XZ.V G.Y.[ 3 3 < 4 1 F c N 8 q n q , 8 M q 5 & 8 8 { 4 4 3 < < 3 8 ",
"3 > N n , < < < 3 8 7 0 m q 5 0 < n n 6 Z < 5 F !.D /. XGXLXgXW.3 F.].H , 1 D < V K.}.F m q 4 0 < n 0 4 Z < 5 m | 3 3 < < < n 3 ",
"4 & 8 3 7 , 4 5 < 4 7 0 0 0 0 0 < 7 M 3 < & C ~.].F.{.<XKXKXKX2XF.G.oXR.6 R. XP.< 4 G G.C 0 0 0 < 7 M 3 < & 8 7 8 3 < 3 $ X 5 Z ",
"< 3 7 } n 7 0 3 , 7 < 7 7 4 B Z z G 3 7 < < V.[.OX].[.ZXLXAXHXLX<X[.-X(.W.].-X.X, 7 V H.C 4 B Z $ < 3 7 < < 7 m 3 3 , < } > n } ",
"< 8 0 7 , 3 3 < M 7 & < 4 < B V F.R.z { 3 F Q.OXgX X#XaXMXAXAXKXHX<XhX#X]. XkX,XH F }.R.6 < B < < < & { 4 7 > < $ M 8 n 0 3 < 1 ",
"n 7 < , 3 * $ 8 5 8 N < < < 3 c C !.W.v < D .XVXgX|.cX%.;.PXAXAXHXeXe.gX^.-XLXjX[.}.{.[.1 < 1 F.H 4 7 3 < < 0 M 3 B n 1 < 3 $ < ",
"0 6 < , 4 n < 4 n 8 n n < $ 0 n H :X;X].v G -XHX<X.XaXr e iXFXLXGXrXt 1.%X<XLXhX[.^.#XOXD v G.P.n 0 n 4 $ n 8 6 4 8 4 < 3 & % 8 ",
"3 * & , 7 0 3 4 8 7 3 4 < 5 } | P.#XKX:X^..XzXKXgXzX:.k.U.~ : 9.nXt.y g 0.AXDX1.'.[.;XoX].[..XI.A } 0 8 * 0 M < 3 3 3 3 7 4 < 3 ",
"3 * q & 7 3 7 5 8 5 5 * & 5 m n G  XhXAXoX[.zXLXKX0XC `.lXsXc.z : ;.#.*Xx y.t.t q.>XBX[.^.2XgX].D 6 6 7 * 7 7 < < < 8 7 3 < 0 < ",
", < 3 , 5 3 N < 7 8 3 < < 0 C.3 z ^.oXLXVX#XkXKXLX=.k hX@X2XzXCXsXS u zX<Xx 2 F.@.NXzX[.oXAXhX].z h.7 z z > < , , 7 7 3 < < 4 % ",
"q 5 3 & M 4 , # 3 8 < < , b W.C < D.{.xXLXkXUXiXrXg _.BX$X`.XX*XHXIXd.@XHX4Xs.$XG.:.iX1XhXVX-X].D c 5 G.F.7 8 3 4 7 < * & 3 , < ",
"0 8 3 < $ 3 & * & 4 < > 4 Z.[.~.V D.].;XHXmX&.r ,.j *XzXXX&X@X@X`.kXI.`.xXhXf.`.k.X ;.1.pXKX#X].c 2 j.[.}.F 8 8 4  .3 8 7 8 < 3 ",
", b 8 < X , q 8 0 < $ 4 0 G.[..X X].[.:XAXnX&.p r y <XZXg.dX3X@X%XE.J.`.cXfXB.7X7XU.p t rXkX X[.F.}.oX[.[.H 4 N 7 < 0 4 5 4 M 7 ",
"< B 4 > $ 4 8 q 4 7 * 8 4 G.]. X2X{.].;XGXmX&.R.Y.p C.3XB.&XLX&X$X`.E.@X&XL.=XHXZX*Xx qXKX#X].[.].-X,X].[.J 7 7 & 8 7 < , * & , ",
"< , < 7 m , 3 3 4 4 3 4 3 F.].[.kXkX[.-XGXnX: R.LX:Xd.l g.'.BXGX`.XX`.+XE.hXAX$XT.C >.LXGX:X].].-XZX;X].[.F * * 8 6 3 , & * $ > ",
"7 1 8 7 7 5 4 3 , < & 7 < c /.[.lXLXgX:XVXmX&.k.2XVX-Xd.g `.1XLX4X`.`.Q.4XSX+X`.i ^ eXJXHX#X.X<XZXLX;X].Z.b * < 8 < > * * 7 , > ",
"3 < m 7 8 < 8 3 3 * < 3 * 4 F.[.2XLXLXhXVXGXiX&.k.;XKXvXf.J.%XZXfXA.`.Q.K.F.B.d.d.j A e.HX2XkXKXLXAXOX~.V < < > 3 < & } M n 3 4 ",
", < 3 8 , 8 4 q 3 3 8 q 0 # 1 ].[.gXLXKXJXiXeX,.o k.>XLX*XA.B.U.U.'.$XE.`.$X$XS.A.[.g.~ pXKXLXLXGX#X].G.3 8 q 8 8 8 7 M 7 * 7 N ",
"> < < < < < , , b q 7 B 3 0 5 V.].[.<XKXMX;.2 A o j A.*X'.B.!.f.J.>XVXjX+XVXVX>XJ.A.[.p >.LXBXkXOX].(.v 8 0 < < < B 8 5 * * 7 7 ",
"> < $ 8 3 < < # M 4 < 3 q 8 z , }.].[.2XJXwX% p.Q.A.d.f.g.!.1X'.A.1XGXdXY.P.dXzX1Xf.p . w.LXlX|.^.R.h.h.0 < 3 < < < < n 6 * 4 7 ",
"< > % < 7 , 8 0 6 < 3 < C Z.V.V ].].].#XkXKXuX#.T.Q.A.A.l +X$XB.!.lXI...o...k S kXk.t y.+.rXHXgX,XXXD.Z.P.v 6 3 < 4 6 B 6 < & 7 ",
"* $ & 3 , < , 5 7 3 , & Z.F.G.].[.[.-XhXVXHXHXeX: s B.g.j.#XQ.y 4XU.6.7.o.yXJ ~ Y.g.=.FXt.t.AXLXLXlXOXH.G.G < < 7 $ 5 3 < # * , ",
"4 < < 4 3 < < 8 3 < < 7 8 G.[.-XlXhXVXKXGXAXNX1.~ f.|.d.9X&XJ 8XG j 7XmX7.yXx.,.&.: uXAXHXAXHXGXBXxX,X].h.$ & * < , , $ 3 & 3 3 ",
"n 7 * 7 8 4 7 3 > & n 8 4 J }.-XAXLXHXGXGXAXNX1.~ l s.y 8XtX7.FXo.M.dXP.6X5X#.iX0Xr.DXAXAXKXHX-X.X].].W.v < 6 8 4 4 3 < 4 4 3 7 ",
"N N # 7 8 < 3 < > 4 7 3 , , D ^.oXZXLXHXAXGXAXPXnX9.=.C S J ..mXyXbXHXA.SXJ *.LXHXLXAXGXHXGX-X].].[.[.Z.6 < 7 4 3 , < , 3 , 4 5 ",
"8 8 7 4 3 < 3 * > , , 3 3 , & ~.].-XZXHXGXGXGXZXAXMXnXwX+.+.s ..MXFXMXDXM.; 0.mXFXHXAXHXHX;X].-XoX].(.c % 5 } 7 { 4 3 , 4 * 8 5 ",
"5 3 5 0 8 % 3 8 5 0 4 # 8 8 0 , W. X1XZXHXGXAXGXNXr.1.{ = u v ! ..tX9X7.u u d *.;.wXDXHXAXgXhXkX X].h.5 4 7 < 7 5 & * * < & 7 5 ",
"< 8 0 0 { , 3 7 3 4 N & q 5 V.z C ].#XKXKXAXAXKXe.u u. .R S yXpX7.K ! 8.dX7X/ a i %.uXAXGXKXHX,X[.G.7 C.B 7 7 < 8 7 0 8 7 8 < 7 ",
"< 5 3 7 * % , 3 3 < > , < D [.].G.]. XhXHXHXAXKXe.u b.U.) c._.fX6XJ 7XfX).| O.).i.%.iXZXGXLXzX[.].W.G.[.R.v 6 3 7 7 0 5 3 3 & $ ",
"< 3 * < 4 , < & 3 , 4 4 7 K..X:X|.].].-XGXHXAXJXy.V l.b.o.6.k.i.i.l.i.i.z.-.Y.b.u.&.pXAXAXKXBX X].].oX#X].D , > 4 8 4 4 6 4 < 3 ",
"8 , < q 7 8 8 4 # 3 7 7 6 H..XhXhXoX^.:XHXHXHXrX2 8X8.c.../ 6.l.i.i.p.m.SX8.X.X.qXx.r MXAXKXBX|.].,XlX;X].D c 3 4 8 5 N 7 < 7 M ",
"4 < 0 5 7 8 8 0 * 0 0 M C.H.~.;XHXVXoX#XAXHXHXrXO ..FXx.Q -./ 6.Y.Y.7X6.bX8.+ IXiXs r MXAXKXlX|.,XKXzXoXW.D.G 8 8 [ n 4 7 6 n 7 ",
"3 < | [ 3 3 < 4 < 8 6 N R.F W.[.kXLXVXkXAXHXHXeXO ' 8X#.= = / / ) ) ) / E + w 7X9XO &.PXZXHXVXkXKXLX:X].D V Z.8 { 4 4 3 < < 3 8 ",
"3 > N n , < < < 3 8 7 0 R.H G ].-XAXLXKXGXAXmX<.3.f = w.0.A S X.R R T S c @.rX2.+ ..3.r.JXAXHXLXLXhX XR.A h.V.m | 3 3 < < < n 3 ",
"4 & 8 3 7 , 4 5 < 5 7 0 C F 0 ].[.BXLXGXAXAXuX2 bX5Xe uXMXe.j v.a.a.a.v.+.eXLXt.h MXx.&.FXAXAXHXLX;X].Z.< z 8 7 8 3 < 3 $ X 5 Z ",
"< 3 7 } n 7 0 3 , 7 < 7 7 4 B J R.OXBXLXGXAXuXr n.b.X iXiX@.W ] n.n.m.( = 2.mX1.p ).u.;.FXAXHXLXgXXXZ.c < < 7 m 3 3 , < } > n } ",
"< 8 0 7 , 3 3 < M 7 & < 4 < B 3 D.].{.kXLXGXuXr m._.a &.w.= ( -.! ! ) -.Y 1 w.h z.=Xu.=.FXHXHX:X].~.v { 4 7 > < $ M 8 n 0 3 < 1 ",
"n 7 < , 3 * $ 8 5 8 N < < < D V.].^.[.-XlXHXiXr 8XiXM.<.x Y 5.5.U E _ 5.4.+ $.A 9XnXJ <.FXAXgXoX].].~.h.1 < 0 M 6 B n < < 3 $ < ",
"0 6 < , 4 n < 4 n 8 n n < z {.:X:X-X;XlXzXGXuXr 8XqX..h Q o.5.5.U ! _ 4.5.O.$ k 6.yXx.*.FXVXlXhX-X-X;XOXW.F 8 6 4 8 4 < 3 & % 8 ",
"3 * & , 7 0 3 4 8 7 3 4 < R.[.#XgXBXHXKXLXAXuXr 6X8X2.h ! 4.5.5.U I ( 4.5.4.d $.5XbXJ *.FXHXLXHXAXkX2X X[.H M < 3 3 3 3 7 4 < 3 ",
"3 * q & 7 3 7 6 8 5 5 * & c R.~.{.:XhXVXKXKXPX0XC #.@.= O.5.5.-.U K ( 4.5.5.' 9 <.J *.e.PXHXHXkX<XoX[.(.z 9 7 < < < 8 7 3 < 0 < ",
", < 3 , 5 3 N < 7 8 3 < < 8 n 1 G.W.].OX,XzXBXLXe.*.= L 4.8._ ) Y   _ _ 4.8.E K b w.e.DXBXhX-X.X].G.C.< $ > < < , 7 7 3 < < 4 % ",
"m 5 3 & M 4 , # 3 8 < < , 8 0 7 1 W.].].#X2XBXLXt.w L I ) _ / ! b @.Q ( ( -.( L @ +.iXAXlX,X.X].[.h.5 & * 7 8 3 4 7 < * & 3 , < ",
"0 8 3 < $ 3 & * & 4 < > 4 < 0 V h.K.[.].oXlXLXKXt., L P I P L   <.e.u @ I P P I @ +.iXHXLX2X X]./.G.z , 7 8 8 8 4  .3 8 7 8 < 3 ",
", b 8 < X , q 8 0 < $ 4 0 0 $ v V.R.].].].OXzXLXt.9 I @ @ @ L + <.e.u P P @ @ I @ *.iXHXjX{.^.[.}.K.G 0 0 8 4 [ 7 < 0 4 5 4 M 7 ",
"< B 4 > $ 4 8 q 4 7 * 8 4 m 3 c [.{. X{.[.^..XBXLXq.+ L K T I   <.t.; + T W K K r iXKX<X].^.[..X X[.K.4 0 N 7 7 & 8 6 < , * & , ",
"< , < 7 q , < 3 4 4 3 4 3 5 4 c ~.oX;XgXgX{.[.-XZXr.s U O.f & &.NXJX0Xe + f O.+ e iXgX.X[.-XkX;X-X{.H.3 3 7 * * 8 6 < , & * $ > ",
"7 1 8 7 5 5 4 3 , < & 7 , 4 < M 2 C.W.OXVXZXzXhXBX9.s.N.f $.eXmXGXAXKXiXr.x ] l.C pXhXlXBXHXhX{.F.z.7 < 6 6 * < 8 < > * * 7 , > ",
"3 < m 7 8 < 8 3 3 * < 3 * 4 < 3 3 3 c ~.OXzXAXLXLX0.u N.s w.LXAXGXGXGXAXmX: a ] e iXKXLXZXgX[.F.3 3 4 < < < < > 3 < & } M n 3 4 ",
", < 4 8 , 8 4 q 3 3 8 q 0 # 3 7 n P.F.].[.2XAXKXeXr :.C @.pXHXAXGXGXGXGXDXr.h 9.~ 1.MXGXBX#X].R.K.A 8 > 3 8 q 8 8 8 7 M 7 * 7 N ",
"> < < < < < , , b q 7 B 3 0 5 4 8 A J R.~.oX<XSXw.= ..l y.PXAXGXGXGXGXGXAXnX+.H ' e rXgX,X{.W.h.F B M < 8 0 < < < B 8 5 * * 7 7 ",
"> < $ 8 3 < < # M 4 < 3 q 8 , , < 3 < 6 A G.G.2.2 S f A 8X6X6X6X6X6X6X6X6X6Xq.# X.k ~ Y.G.P., , < 3 < 6 0 < 3 < < < < n 6 * 4 7 ",
"< > % < 7 , 8 0 4 < 3 < 7 3 3 3 , 3 5 > m < 6 3 3 4 6 B 6 < & 7 < > % < 7 , 8 0 5 < 3 < 7 3 3 3 , 3 5 > m < 6 3 < 4 6 B 6 < & 7 ",
"* $ & 3 , < , 5 7 3 , & 4 & < < $ * 6 6 6 6 < < 7 $ 5 6 < # * , * $ & 3 , < , 5 7 3 < & 4 & < < $ * 6 6 6 6 < < 7 $ 5 3 < # * , ",
"4 < < 4 3 < < 8 3 < < 7 8 4 M 7 , 7 | 8 & $ & * w , , $ 3 & 3 3 3 < < 4 3 < < 8 3 < < 7 8 4 M 7 , 7 | 8 & $ & * < , , $ 3 & 3 3 ",
"n 7 * 7 8 4 7 3 > & n 8 4 N 8 * 3 m N 0 < < 6 8 5 5 4 < 4 4 3 7 n 7 * 7 8 4 7 3 > & m 8 4 N 8 * 3 m N 0 < < 6 8 4 4 3 < 4 4 3 7 "
};
