/* XPM */
static char *xpm_[] = {
/* columns rows colors chars-per-pixel */
"64 64 142 2 ",
"   c #0F0D1F",
".  c #100E1E",
"X  c #141414",
"o  c #11101F",
"O  c #1A1A1A",
"+  c #1D121F",
"@  c #22121F",
"#  c #28121E",
"$  c #2C181F",
"%  c #321A1D",
"&  c #3D1F1D",
"*  c #0F0F21",
"=  c #100F21",
"-  c #140F2C",
";  c #0F1122",
":  c #0F122E",
">  c #121123",
",  c #1A1321",
"<  c #171820",
"1  c #1A1A22",
"2  c #12142B",
"3  c #131A2B",
"4  c #191C2C",
"5  c #150F32",
"6  c #180F33",
"7  c #161032",
"8  c #191034",
"9  c #131B33",
"0  c #121C39",
"q  c #1C113F",
"w  c #251420",
"e  c #2A1821",
"r  c #2E132C",
"t  c #1F2023",
"y  c #17202E",
"u  c #162133",
"i  c #192332",
"p  c #14223D",
"a  c #1C2A38",
"s  c #242325",
"d  c #4E3A04",
"f  c #553804",
"g  c #623D04",
"h  c #554204",
"j  c #5B4805",
"k  c #584505",
"l  c #494A1F",
"z  c #52541E",
"x  c #654304",
"c  c #694504",
"v  c #6D4905",
"b  c #614805",
"n  c #714E05",
"m  c #755205",
"M  c #785605",
"N  c #7D5B06",
"B  c #5E611E",
"V  c #515220",
"C  c #5D5F20",
"Z  c #5D6020",
"A  c #1E1245",
"S  c #1F1249",
"D  c #151B45",
"F  c #201247",
"G  c #21124B",
"H  c #3E1C43",
"J  c #351456",
"K  c #371558",
"L  c #3B155C",
"P  c #152441",
"I  c #162947",
"U  c #192D44",
"Y  c #1A3047",
"T  c #1E5E67",
"R  c #1E5F68",
"E  c #1E6C73",
"W  c #216D74",
"Q  c #9B2314",
"!  c #AD2312",
"~  c #A62913",
"^  c #AC3616",
"/  c #BB3714",
"(  c #CA3812",
")  c #805F06",
"_  c #BC5111",
"`  c #846407",
"'  c #8A6A07",
"]  c #8D6E08",
"[  c #8F7008",
"{  c #907208",
"}  c #CA4F0F",
"|  c #D0550E",
" . c #D65B11",
".. c #E6560C",
"X. c #DE6011",
"o. c #BEBC39",
"O. c #EA881B",
"+. c #F1911B",
"@. c #C1BD3A",
"#. c #F7CE33",
"$. c #F9D333",
"%. c #F9E039",
"&. c #DDDA40",
"*. c #09309D",
"=. c #1A5EBA",
"-. c #1E62B3",
";. c #2066B5",
":. c #1D69D2",
">. c #1F6FD9",
",. c #1E71DC",
"<. c #2372CC",
"1. c #2778D3",
"2. c #2070DB",
"3. c #237AE6",
"4. c #3591BF",
"5. c #53A69E",
"6. c #5EBCB1",
"7. c #5EC1B5",
"8. c #5EC1B6",
"9. c #3698C6",
"0. c #3A9CC5",
"q. c #3BA2CD",
"w. c #3DA7D2",
"e. c #42AAD2",
"r. c #41AFDD",
"t. c #45B3DE",
"y. c #42B5E4",
"u. c #47BAE6",
"i. c #45BFF3",
"p. c #6BDBCB",
"a. c #47C3F7",
"s. c #6BE7E5",
"d. c #6FECE7",
"f. c #69E9E6",
"g. c #70E3E4",
"h. c #75EBE5",
"j. c #7BECE6",
"k. c #71F2E5",
"l. c #7CF9E4",
"z. c #D2EFE7",
"x. c #DCEFE7",
"c. c #CFF0E5",
/* pixels */
"= = > 3 > = = = = = = = = = = = > G G 5 = = = = = = * 2 > > < = = = = = = = = = = = = = = = = = > G G 5 = = = = = = * 2 > > < = ",
"= = i 7.u = = = = = = = = = = = 7 G K > = = = = = = 9 y.U 1 Z < = = = = = = = = = = = = = = = = 7 G K > = = = = = = 9 y.U 1 Z < ",
"< = > i > = = = = = = = A 5 = = S 5 > = = = = = = = 9.f.0.9 1 > = S 7 > = > i = = = = = A 5 = = S 5 > = = = = = = = 9.f.0.9 1 > ",
"z = - 5 5 = = = = = = = 5 G G = = = = = = = = = = = 9 q.U > = = = 5 G S = 2 7.= = = = = 5 G G = = = = = = = = = = = 9 q.U > = = ",
"< = S S 5 * = = = = = = > K G 5 = = = = = = = = A = = 9 > = = = = = K G 5 > u = = = = = > K G 5 = = = = = = = = A = = 9 > = = = ",
"= = S H ..+ = = = = = 2 T 3 5 S = = = = = = = = = = = = = = = = = = = 7 S > = = = = = 2 T 3 5 S = = = = = = = = = = = = = = = = ",
"= = @ X.%...= = = = = = ; = * = = = = = = = = = = = = = = = = = = = = = ; = = = = = = = ; = * = = = = = = = = = = = = = = = = = ",
"= = > &  .$ = = = = = = = = = = = = = = = = = = = = = = = = = = = = = = = = = = = = = = = = = = = = = = = = = = = = = = = = = = ",
"= = = = @ = = = = = = = = = = = = = = = = = = = = = = = = = = = = = = = = = = = = = = = = = = = = = = = = = = = = = = = = = = = ",
"= = = = = = = = = = = = = = = = = = = = = = = = = = = = = = = = = = = = = = = = = = = = = = = = = = = = = = = = = = = = = = = = ",
"= = = = = = = = = = = 5 S > = = = > = = = = = = = = G F = = = = = = = 3 W > 5 = = = = 5 S > = = = > = = = = = = = = G F = = = = ",
"S = = = = = = = = = L G 5 > u = , ! @ = = = = > < = S S 7 = = = > @ > = > L G = = = L G 5 > u = , ! @ = = = = > < = S S 7 = = = ",
"= = = = = = = = = - G S - i 7.3 = @ > = = = = < l > > 7 7 = = = e | % > 7 G S = = - G S - i 7.3 = @ > = = = = < l > > 7 7 = = = ",
"= = = = = = < > > S 5 = = > i > = = = = = = = > < * > i > = = = } #._ , A 7 = > > S 5 = = > i > = = = = = = = > < * > i > = = = ",
"= = = = = > B 1 = = = = = = = = = = = = = = = = = = > p.a = = = e ..% = = = = 1 = = = = = = = = = = = = = = = = = = > p.a = = = ",
"= = = = = = > > = = = = = = = = = = = = = = = = = = = 3 > = = = > , = = = = = > = = = = = = = = = = = = = = = = = = = 3 > = = = ",
"= = = = = = = = = = = = = = = = = = = = = = = = = = = 2 R 2 = = = = > > = = < = = = = = = = = = = = = = = = = = = = = 2 R 2 = = ",
"= = = > 4 ; = = = = = = = = = = = = = = = = = = = = 3 = * = = = = = S 5 = > B = = = = = = = = = = = = = = = = = = = 3 = * = = = ",
"= = = i 6.> = = = = = = = = = = 9 * = = = s = = = * 6.= > = > = = = 5 - = = < = = = = = = = = = 9 * = = = s = = = * 6.= > = > = ",
"= = > u 4 = = = = = = = = = = 0 1.9 ; = = o.= = = = 4 5 8 2 A = = = = = = = = = = = = = = = = 0 1.9 ; = = o.= = = = 4 5 8 2 A = ",
"= = 9 4.9 = = = * * = = = = . :.s.:.9 = > t * = = = > 6 K G = = = = = = = = = = * * = = = = . :.s.:.9 = > t * = = = > 6 K G = = ",
"= = = > = = = 2 R > = = = = = > >.; = = = = = = = = > > F S = = = = = = = = = 2 R > = = = = = > >.; = = = = = = = = > > F S = = ",
"2 = = = = = = = = = = = = = = = = = = = = = = = = = > G 2 > = = = = = = = = = = = = = = = = = = = = = = = = = = = = > G 2 > = = ",
"*.. = = = = = = = = = = = = = = = = = = = = = = = = > P ;.P ; = = = = = = S S = = = = = = = = = = = = = = = = = = = > P ;.P ; = ",
": = = = = = = = = = = = = = = = = = > = = = = = = = 0 u.g.e.P = = = = 2 8 G F = = = = = = = = = = = > = = = = = = = 0 u.g.e.P = ",
"= = * = = = = = = = = = = = = = = = A = = = = = = = ,.l.z.h.3.2 = = = G L 7 = = = = = = = = = = = = A = = = = = = = ,.l.z.h.3.2 ",
"= , Q , = = = = = = = = = = = = = = 3 R 2 = = = = = 2 i.d.r.9 = = = 5 G G = = = = = = = = = = = = = 3 R 2 = = = = = 2 i.d.r.9 = ",
"= = = = = = = = = = = = = = = = = = = = = = = = = = = 2 =.9 = = = = - - = = 2 = = = = = = = = = = = = = = = = = = = = 2 =.9 = = ",
"= = = = = = * < = = = = = = = = = = = = = = = = = = = > 9 > = = = = = = = = = < = = = = = = = = = = = = = = = = = = = > 9 > = = ",
"= = = > S 5 > l < = = = = = = = i = = = = = = = = = = = = = = = = > s > = = = l < = = = = = = = i = = = = = = = = = = = = = = = ",
"= = = > 5 G S > = = = = = = = > p.  = = = = = = = = S S = = = = = 1 o.1 = = = > = = = = = = = > p.  = = = = = = = = S S = = = = ",
"= = = = = G G = = = = = = = = = 3 = = = = = = = = > G S 7 = = = = > 1 > = = = = = = = = = = = = 3 = = = = = = = = o G S 7 = = = ",
"= = = = = = = = = = = = = = = = = = = = = = = = 1 Z > 5 S = = = = = = > = = = = = = = = = = = = = = = = = = = = 1 Z > 5 S = = = ",
"= = = = = = = = = = = = = = = = = = 5 - = = = = *   = ; = = = = = = = 2 = = = = = = = = = = = = = = 5 - = = = = *   = ; = = = = ",
"= = = = = = = = = = * 2 > = = = = G K 7 < = = = = = = = = = = = = = = = = = = = = = * 2 > = = = = G K 7 < = = = = = = = = = = = ",
"= = = = = = = = = = ; R 3 = = = = S F 4 V > = = = = = > i > = = = = = = = = = = = = ; R 3 = = = = S F 4 V > = = = = = > i > = = ",
"= = = A = = = = = = = 2 > = = = = > 2 A < = = = = = = y 6.i = = = = = = = = = = = = = 2 > = = = = > 2 A < = = = = = = y 6.i = = ",
"= = = > = = = = = = = = = = = = = = > 2 = = = = = = = > > = = = = > = = = = = = = = = = = = = = = = > 2 = = = = = = = > > = = = ",
"= = = = = = * = = = = = = = = = = = i 7.4 = = = = = = = = = = = 2 W 3 = = = = = = = = = = = = = = = i 7.4 = = = = = = = = = = = ",
"= = = = = A = = = = = = = = = = = = > i > = = = = = = = = = = = > 3 > = = = = = = = = = = = = = = = > i > = = = = = = = = = = = ",
"= = = G G > = = = = = = = = = = = = = = = = = = = = = = = = = = = = > = = = 1 = = = = = = = = = = = = = = = = = = = = = = = = = ",
"= = = G L 5 = = = = = * = = = S = = = = = = = = = = = = = = = = = = S 5 = > B = = = = * = = = S = = = = = = = = = = = = = = = = ",
"= = A - 5 2 = = = = = @ Q w . = * = = = = = = = = = = > = = = = = = - - = = > = = = = @ Q w . = * = = = = = = = = = = > = = = = ",
"= * = = = = F > = = @ ( +./ w = = = = = = = = = = = > 5 7 2 S = = = = = = = = > = = @ ( +./ w = = = = = = = = = = = > 5 7 2 S = ",
"= = = = = = = = = * Q +.$.O.~ , = = = = = = = = = = = 7 K F - = = = = = = = = = = * Q +.$.O.~ , = = = = = = = = = = = 7 K F - = ",
"= = = = A = = = = * @ / O.^ # = = = = = = = = = = = > - F S = = = = = = = = = = = * @ / O.X X X O O X X X O X X X O X X O X X X ",
"= = = = = = = = = = = # ~ r = = = = = = = = = = = = > S = = = = = = = = = = = = = = = # ~ X X X O X X X X O O O O O O O O X X O ",
"= = = = = = = = = = = > > > = = = = = > S 7 > z < = = 9 =.9 * = = = = = = G G = = = = > > O O X O X X X O O X X X X X O X X X O ",
"= ; ; = = = = = = = = = = > 1 > = = = = 5 G G > = = 3 a.h.y.9 = = = = = 5 G G = = = = = = O O O N ` ' ' ' ) j j N v M N ` ] N j ",
"2 W 3 = = = = = = = = = = s &.1 = = = = = S S > = * 2.l.c.h.3.2 = = = G L 7 = = = = = = = X X O ] ` ` ` N n h M ' M ' ' ' [ ] b ",
"= 3 = = A 5 = = = = = = = > s > = = = = = = = = = = 0 y.g.e.p = = > 5 G G > = = = = = = = X X X ' ] ` N v k h ` ] M ` ` [ [ ] j ",
"= = = = - G S > > 3 = = = = = = = = = = = = = = = = = p -.p > = = = - - = = > > > 3 = = = X X X ' ] ' v m h d ` ' N ` ' ] [ ' j ",
"= = = = = G G > 3 E > = = 2 2 = = = = = = = = = = = = ; 2 = = = = = = = = = = > 3 E > = = O X X m ] ` N ` b h ` ' m ] ' [ { { ` ",
"= = = = = = = = = > = = S G 5 = = = = = = = = = = = = = = = = = = = < = = = = = = > = = S O O O ` ` ` ' ' ` n [ ` ` [ ` ' ] [ ] ",
"= = = = = = = = = = = 8 K G = = = = = S = = = = = = G G = = = = = 1 @.1 = = = = = = = 8 K X O X ' ` ` ` N M N [ ] ' ] ` ' ' [ ` ",
"= = = = = = = = = = S S 8 > = = = = = > = = = = > < S S 7 = = = = > s > = = = = = = S S 8 X O X M ` ` c d m ) [ ] ' ' ` ` ] ] ' ",
"= = = = = = = = = = S S = = = = = = = = = > = = < z > 5 A = = = = = = > 9 = = = = = S S = X O X c x m ` M ) N ' ` ` ` n m ` ) ' ",
"= = = = = = = = = = = = = * * = = = = * * S * = = > = = = = = = = = = D :.> = = = = = = = X O O N v m v v ' ] ] ] ] ` v M M m ] ",
"= = = = = = = = = = = 9 9.u = = = = > G G = = = = = = = = = = = = = u y.k.y.; = = = = 9 9.X O X ] ` N M ) ` ' ] [ [ ] ` ` N ) [ ",
"= = = = = = = = = = > y.f.w.3 = = = > G L 7 = = = = = > 4 > = = * 2 <.j.x.k.:.= = = > y.f.O O X M c M N N ` ` ` ] ' ] ` ` N M ' ",
"= = = = = = = = = = > U 0.Y > = = = q - 6 2 = = = = = 4 5.y = = = > I t.j.t.0 = = = > U 0.X O O N f N m c g N ' ' ] ] ) ) M ) ] ",
"= = = = = = = = = = 1 > 9 7 7 = = = = = = > A > = = = > i > = = = 3 > I <.u = = = = 1 > 9 X X X ` N x N x c ` ` ` ] ] ` m v ' ' ",
"= = = = = = = = = = C = = 5 S = = = = = = = = = = = = = = = = = ; W 3 > 2 = = = = = C = = X X X ` ` x c M ` ' N ` ] { ` v j ` ` ",
"= = = = = = = = = = < * = = = * = = = = F = = = = = = = = = = = = 2 > = = = = = = = < * = O O X v ` ) m c n ` N ` ] ] ` m j N ' "
};
