/* XPM */
static char *xpm_[] = {
/* columns rows colors chars-per-pixel */
"64 64 140 2 ",
"   c #0F0D1F",
".  c #100E1E",
"X  c #141414",
"o  c #11101F",
"O  c #1A1A1A",
"+  c #1D121F",
"@  c #22121F",
"#  c #28121E",
"$  c #2C181F",
"%  c #321A1D",
"&  c #3D1F1D",
"*  c #0F0F21",
"=  c #100F21",
"-  c #140F2C",
";  c #0F1122",
":  c #0F122E",
">  c #121123",
",  c #1A1321",
"<  c #171820",
"1  c #1A1A22",
"2  c #12142B",
"3  c #131A2B",
"4  c #191C2C",
"5  c #150F32",
"6  c #180F33",
"7  c #161032",
"8  c #191034",
"9  c #131B33",
"0  c #121C39",
"q  c #1C113F",
"w  c #251420",
"e  c #2A1821",
"r  c #2E132C",
"t  c #1F2023",
"y  c #17202E",
"u  c #162133",
"i  c #192332",
"p  c #14223D",
"a  c #1C2A38",
"s  c #242325",
"d  c #4E3A04",
"f  c #553804",
"g  c #623D04",
"h  c #554204",
"j  c #5B4805",
"k  c #584505",
"l  c #494A1F",
"z  c #52541E",
"x  c #654304",
"c  c #694504",
"v  c #614805",
"b  c #6D4905",
"n  c #714E05",
"m  c #755205",
"M  c #785605",
"N  c #7D5B06",
"B  c #5E611E",
"V  c #515220",
"C  c #5D5F20",
"Z  c #5D6020",
"A  c #1E1245",
"S  c #1F1249",
"D  c #151B45",
"F  c #201247",
"G  c #21124B",
"H  c #3E1C43",
"J  c #351456",
"K  c #371558",
"L  c #3B155C",
"P  c #152441",
"I  c #162947",
"U  c #192D44",
"Y  c #1A3047",
"T  c #1E5E67",
"R  c #1E5F68",
"E  c #1E6C73",
"W  c #216D74",
"Q  c #9B2314",
"!  c #AD2312",
"~  c #A62913",
"^  c #AC3616",
"/  c #BB3714",
"(  c #CA3812",
")  c #805F06",
"_  c #BC5111",
"`  c #846407",
"'  c #8A6A07",
"]  c #8D6E08",
"[  c #8F7008",
"{  c #907208",
"}  c #CA4F0F",
"|  c #D0550E",
" . c #D65B11",
".. c #E6560C",
"X. c #DE6011",
"o. c #BEBC39",
"O. c #EA881B",
"+. c #F1911B",
"@. c #C1BD3A",
"#. c #F7CE33",
"$. c #F9D333",
"%. c #F9E039",
"&. c #DDDA40",
"*. c #09309D",
"=. c #1A5EBA",
"-. c #1E62B3",
";. c #2066B5",
":. c #1D69D2",
">. c #1F6FD9",
",. c #1E71DC",
"<. c #2372CC",
"1. c #2778D3",
"2. c #2070DB",
"3. c #237AE6",
"4. c #3591BF",
"5. c #53A69E",
"6. c #5EBCB1",
"7. c #5EC1B5",
"8. c #3698C6",
"9. c #3A9CC5",
"0. c #3BA2CD",
"q. c #3DA7D2",
"w. c #42AAD2",
"e. c #41AFDD",
"r. c #45B3DE",
"t. c #42B5E4",
"y. c #47BAE6",
"u. c #45BFF3",
"i. c #6BDBCB",
"p. c #47C3F7",
"a. c #6BE7E5",
"s. c #6BEAE6",
"d. c #70E3E4",
"f. c #75EBE5",
"g. c #7BECE6",
"h. c #71F2E5",
"j. c #7CF9E4",
"k. c #D2EFE7",
"l. c #DCEFE7",
"z. c #CFF0E5",
/* pixels */
"= = = = = = = = = = = = = = 2 = = = = = = = = = = = = = = = = = = = = = = = = : *.2 = = = = = = = = = = S = = = = = = < z < = = ",
"= = = = = = = = = = = = = 3 W ; = = = = * = = = = = = = = = = = = = = = = , = = . = = = = = = = = = = = = = = = = = = = = = = = ",
"= = = = = = = = = = = = = = 3 ; = = = = = A = = = = = = = = = = = = = = = Q * = = = = 9 > = = = = = = = = = = = > @ S S - > i > ",
"= = = = = = = = = = = = = = = = = = = = = - G F = = > A = = = = = > > = = , = = = = > 4.u i > = = = = = = = = = & X.H S 5 i 7.3 ",
"= = = = = = = = = = = = - A = = = = A = = 5 L G = = = = = = = = = 5 S = = = = = = = = 9 4 6.4 = = = = = = = = @  .%...5 5 > u > ",
"= = = = = = = = = = = F F 5 = = = = = = = 2 5 > A = = = = = = = F F 5 = = = = = = = = = = > ; = = > = = = = = = $ ..+ * = = = = ",
"= = = = = = = = = = = F S = = = = = = = F = = = = * = = = = = = F S > * = = = = = = = = = = = = , B < = = = = = = = = = = = = = ",
"= = = = = = = = = = = > > = = = = = = = > = = = = = = = = = = = = > l < = = = = = = 2 = = = = = > < > = = = = = = = = = = = = = ",
"= = = = = = = = = = = 3 > = = = = = = = = = = = = = = = = = = = = = < = = = = = = = R * = = = = = = > = = = = = = = = = = = = = ",
"= = = = = = = = = = > E 3 = = = = = * * = = = = = = = = = = = = = = = = = = = = = = > * = = = = = = S - = = = = = = = = = = = = ",
"< C < > > = = S S = = > = = = = = = @ Q @ = = = = = = = ; * = = = = = = = = = = = = = = = = = = = = 5 G L = = = = = = = = = = = ",
"* = > U t.9 = S S 8 = = = = = = > # / +.( @ * = = = = 2 R 2 = = = = = = = = = = = = = = = = = = = = = S G 6 = = = = 2 = = = = = ",
"= = 9 9.s.8.= = 8 K S = = = = = , ~ O.$.+.Q = = = = = > 3 > = = = = = = = = = = = = = = = = = = = = = - 5 S = = = ; T > 5 A = = ",
"= 5 7 Y q.u * = > F F 2 = > s > > r ^ O./ w = = = = = = = = = = = = = = = = = = = = = = = = = = = = > i > > = = = = 3 K F 5 = = ",
"= S 7 > 3 = * = = = 5 2 = s &.1 = = # ~ w . = = = = = = = = = = = = = = = = = = = = = . = = = = = = i 7.u = = = = * 5 G F = = = ",
"* = = = = = = = = = = = = > 1 > = = = , = = S = = = = = = = = = = > = = = = = = = = > :.0 = = = = = > 3 = = = = = = S 5 = = = = ",
"= = = = = = = = = = = = = = = = = = = = = * = = = = = = = = = = 3 i.i = = = = = = = >.a.1.9 = = = = = = , = = = = = = = = S 8 > ",
"= = = = = = = = = = = = = = = = = = = = = = = = = = = > S F = = =   = = = = = = = = ; :.9 * = = = = = @ ! > = = = = = = = 5 G G ",
"= = = q > > = = = = = = = = = = = = = = = = = = > i > 2 F J 5 = = = = = = 3 A > = = = 9 ; = = = = = = > @ = = = = = = = = > J G ",
"= = = - F F * = > S = = = = = = > = = = = = = = i 7.2 A 4 7 - = = = = = = R = = = = = = = = = = = = = = = = = = = = = = = = > 5 ",
"F = = 6 L F * = = = = = = = = 5 S = = = = = = = > 4 = < V < = = = = = = = 2 = = = = = > = = = = = = = = = = = = = = = = = = = = ",
"= = > 2 7 = S > = = = = = = S G 7 = = = = = = = = = = = > = = = = = = = = = = = = = = t o.s = = = = = = = = = = = = = = = = = = ",
"= = A = = = * = = = = = = = S F , = = = = = = = = = = = = = = = = = = = = = = = = = = * = = = = = = = = = = = = = = = = = = = = ",
"= = > = = = = = = = = = = = > > z = = = = = = = = = = = = = = = = = = = = = = = = = = = = = = = = = > < > = = = = = = = = = = = ",
"= = = = = = = < > = = = = = = = < = = = = = = = = = = = = = * < = = = = = = = = = = = = = = = = = = < l < = = = = = = A = = = = ",
"= = = = = = , z < = = = = = * = = = = = = = = = = = = = = =   Z > = = = = = = = = = = = = * = = = = * , = = = = = = = = = = = = ",
"= = = = = = = > S F = = = 0 2.3 = > > = > = = = = = = = = = = > F S = = = 2 ,.0 > > > > 4 6.3 = = > > > S F = = = = = = 9 8.9 * ",
"= = > 4 > = = 5 S F = ; p t.j.p.9 S - 8 5 > = = = = > y > = ; 6 S S = > 2 u.j.y.P F > 6 5 = = 2 3 i.i 7 S F = = = = = 9 0.s.t.2 ",
"= = i 5.4 = = A 7 = = 2 -.d.z.f.=.= F J 7 = = = = = > 6.i = = S 8 = = 9 =.s.k.d.;.2 F K 8 > * R > a > 7 7 = = = = = = > U 9.U > ",
"= = > y > = = = = = = = p w.f.t.9 = S F 2 = = = = = = i > = = = = = = > 9 e.f.w.P > S F 2 = = 2 = = = = = = = = = = = = > 9 < > ",
"= = = = = = = = = = = = > p 3.9 * = = - S = = = = = = = = = = = = = = = = 9 3.P ; = = = A > = = = = = = = = = = = = = = = < Z < ",
"= = = = = = = = = = = = = = 2 = = = = = = = = = = = = = = = = = = = = = = = 2 = = = = = = = = = = = = = = = = = = = = = = > < = ",
"= ; = = * = = = = = = = = = = = = = = = = = = = > 2 = = = = = = = = = = = = = = = = = = = = = = > e } e > = = = = = = = = = = = ",
"2 W 3 > 2 = = = > 1 = = = > = = = = = = = = = = 3 W > = = = = = > 1 > = = = = = = = = = = = = = , ..#.| @ = = = = = = = 5 S = = ",
"> 3 > I <.u = = s @.< = - 5 = = = = = = = - S > > 3 = = = = = = < o.s = - 5 = = = = = = = 5 S > = % _ % > = = = = = = K G 7 = = ",
"= > I r.g.t.D > > 1 = = - F G = = = = = = - 5 = = = = = = = 2 > > 1 > = - F G 2 = = = = = - 5 > = = , > = 3 = = = = 7 F S > = = ",
"= 2 <.g.l.h.:.9 = = = = = F L 5 = = = = = = = = = = = = = = = = = = = = = G L 8 = = = = = = = = = = A 7 > W = = = ; S 5 = = = = ",
"= = u r.h.t.> = = = = = = > 7 G F = = = = = > = = = = = = = = = = = = = = = 7 F S = = = = = > = = = 7 G L > = = = = > > 2 > = = ",
"= = = 0 :.; = = = = = = > = = F F = = = = > B < = = = = = = = = = = = = 2 = = F S = = = = < B < = = = S G 5 = = = = = u 7.i = = ",
"= = = = = = = = = = = > > = = = = = = = > = = = = = = = = = = = = > l < = = = = = = 2 = = = = = > < > = = = = = = = = = = = = = ",
"= = = = = = = = = = = 3 > = = = = = = = = = = = = = = = = = = = = = < = = = = = = = R * = = = = = = > = = = = = = = = = = = = = ",
"= = = = = = = = = = > E 3 = = = = = * * = = = = = = = = = = = = = = = = = = = = = = > * = = = = = = S - = = = = = = = = = = = = ",
"< C < > > = = S S = = > = = = = = = @ Q @ = = = = = = = ; * = = = = = = = = = = = = = = = = = = = = 5 G L = = = = = = = = = = = ",
"* = > U t.9 = S S 8 = = = = = = > # / +.( @ * = = = = 2 R 2 = = = = = = = = = = = = = = = = = = = = = S G 6 = = = = 2 = = = = = ",
"= = 9 9.s.8.= = 8 K S = = = = = , ~ O.$.+.Q = = = = = > 3 > = = = = = = = = = = = = = = = = = = = = = - 5 S = = = ; T > 5 A = = ",
"O X X X O X X X X X O O X X X O O X X O./ w = = = = = = = = = = = = = = = = = = = = = = = = = = = = > i > > = = = = 3 K F 5 = = ",
"O X X O O O O O O O O X X X X O O X X ~ w . = = = = = = = = = = = = = = = = = = = = = . = = = = = = i 7.u = = = = * 5 G F = = = ",
"X X X O X X O X X X O X X X O O X X X , = = S = = = = = = = = = = > = = = = = = = = > :.0 = = = = = > 3 = = = = = = S 5 = = = = ",
"b ` ` N m ] N c M ' ` m ' ' ] N O O O = = * = = = = = = = = = = 3 i.i = = = = = = = >.a.1.9 = = = = = = , = = = = = = = = S 8 > ",
"` ` N f c ` b x ` ` ` ] ] ] ` ` X X O = = = = = = = = > S F = = =   = = = = = = = = ; :.9 * = = = = = @ ! > = = = = = = = 5 G G ",
") x x N M N m m ` ` ` ` ' ` ` ' X X X = = = = = > i > 2 F J 5 = = = = = = 3 A > = = = 9 ; = = = = = = > @ = = = = = = = = > J G ",
"m c N m N M b ` c ` ' N b N ` ' X X X = = = = = i 7.2 A 4 7 - = = = = = = R = = = = = = = = = = = = = = = = = = = = = = = = > 5 ",
"c M x c N ) b M d N ' ` m b N ' O X X = = = = = > 4 = < V < = = = = = = = 2 = = = = = > = = = = = = = = = = = = = = = = = = = = ",
"n ` c g ` ` ' ) m M ` v h k n ) O O O = = = = = = = = = > = = = = = = = = = = = = = = t o.s = = = = = = = = = = = = = = = = = = ",
"` ' ` N ` ' ] N ) N n h d h h j X O X = = = = = = = = = = = = = = = = = = = = = = = = * = = = = = = = = = = = = = = = = = = = = ",
"N N ` ' ` ] ] ' [ [ [ ` ` ` M j X O X = = = = = = = = = = = = = = = = = = = = = = = = = = = = = = = > < > = = = = = = = = = = = ",
"` ` ` ' ] [ ] ` ] ] ` ' ' ] ' N X O X = = = = = = = = = = = * < = = = = = = = = = = = = = = = = = = < l < = = = = = = A = = = = ",
"] ] ] ] ' [ ] ` ' ' ` m N M M c X O O = = = = = = = = = = =   Z o = = = = = = = = = = = = * = = = = * , = = = = = = = = = = = = ",
"] { ] ] ] ] ` ` ' ] [ ] ` ` ' M X O X = > = = = = = = = = = = > F S = = = 2 ,.0 > > > > 4 6.3 = = > > > S F = = = = = = 9 8.9 * ",
"` ` ` ) ` ` b n ` ` ` ' ' ` ' N O O X 8 5 > = = = = > y > = ; 6 S S = > 2 u.j.y.P F > 6 5 = = 2 3 i.i 7 S F = = = = = 9 0.s.t.2 ",
"m b m ) ` ` M m ` ' ' [ ] [ ' ` X O O J 7 = = = = = > 6.i = = S 8 = = 9 =.s.k.d.;.2 F K 8 > * R > a > 7 7 = = = = = = > U 9.U > ",
"j j b M N N m ` ] ' ] { [ [ [ ] X X X F 2 = = = = = = i > = = = = = = > 9 e.f.w.P > S F 2 = = 2 = = = = = = = = = = = = > 9 < > ",
"N ` ' ) M ) m ) ] [ [ { ' ] ] N X X X - S = = = = = = = = = = = = = = = = 9 3.P ; = = = A > = = = = = = = = = = = = = = = < Z < ",
"' ` ' ] ' [ ] ' ' ` [ ` j j v j O O X = = = = = = = = = = = = = = = = = = = 2 = = = = = = = = = = = = = = = = = = = = = = > < = "
};
