/* XPM */
static char *xpm_[] = {
/* columns rows colors chars-per-pixel */
"64 64 140 2 ",
"   c #0F0D1F",
".  c #100E1E",
"X  c #141414",
"o  c #11101F",
"O  c #1A1A1A",
"+  c #1D121F",
"@  c #22121F",
"#  c #28121E",
"$  c #2C181F",
"%  c #321A1D",
"&  c #3D1F1D",
"*  c #0F0F21",
"=  c #100F21",
"-  c #140F2C",
";  c #0F1122",
":  c #0F122E",
">  c #121123",
",  c #1A1321",
"<  c #171820",
"1  c #1A1A22",
"2  c #12142B",
"3  c #131A2B",
"4  c #191C2C",
"5  c #150F32",
"6  c #180F33",
"7  c #161032",
"8  c #191034",
"9  c #131B33",
"0  c #121C39",
"q  c #1C113F",
"w  c #251420",
"e  c #2A1821",
"r  c #2E132C",
"t  c #1F2023",
"y  c #17202E",
"u  c #162133",
"i  c #192332",
"p  c #14223D",
"a  c #1C2A38",
"s  c #242325",
"d  c #4E3A04",
"f  c #553804",
"g  c #623D04",
"h  c #554204",
"j  c #5B4805",
"k  c #584505",
"l  c #494A1F",
"z  c #52541E",
"x  c #654304",
"c  c #694504",
"v  c #614805",
"b  c #6D4905",
"n  c #714E05",
"m  c #755205",
"M  c #785605",
"N  c #7D5B06",
"B  c #5E611E",
"V  c #515220",
"C  c #5D5F20",
"Z  c #5D6020",
"A  c #1E1245",
"S  c #1F1249",
"D  c #151B45",
"F  c #201247",
"G  c #21124B",
"H  c #3E1C43",
"J  c #351456",
"K  c #371558",
"L  c #3B155C",
"P  c #152441",
"I  c #162947",
"U  c #192D44",
"Y  c #1A3047",
"T  c #1E5E67",
"R  c #1E5F68",
"E  c #1E6C73",
"W  c #216D74",
"Q  c #9B2314",
"!  c #AD2312",
"~  c #A62913",
"^  c #AC3616",
"/  c #BB3714",
"(  c #CA3812",
")  c #805F06",
"_  c #BC5111",
"`  c #846407",
"'  c #8A6A07",
"]  c #8D6E08",
"[  c #8F7008",
"{  c #907208",
"}  c #CA4F0F",
"|  c #D0550E",
" . c #D65B11",
".. c #E6560C",
"X. c #DE6011",
"o. c #BEBC39",
"O. c #EA881B",
"+. c #F1911B",
"@. c #C1BD3A",
"#. c #F7CE33",
"$. c #F9D333",
"%. c #F9E039",
"&. c #DDDA40",
"*. c #09309D",
"=. c #1A5EBA",
"-. c #1E62B3",
";. c #2066B5",
":. c #1D69D2",
">. c #1F6FD9",
",. c #1E71DC",
"<. c #2372CC",
"1. c #2778D3",
"2. c #2070DB",
"3. c #237AE6",
"4. c #3591BF",
"5. c #53A69E",
"6. c #5EBCB1",
"7. c #5EC1B5",
"8. c #3698C6",
"9. c #3A9CC5",
"0. c #3BA2CD",
"q. c #3DA7D2",
"w. c #42AAD2",
"e. c #41AFDD",
"r. c #45B3DE",
"t. c #42B5E4",
"y. c #47BAE6",
"u. c #45BFF3",
"i. c #6BDBCB",
"p. c #47C3F7",
"a. c #6BE7E5",
"s. c #6BEAE6",
"d. c #70E3E4",
"f. c #75EBE5",
"g. c #7BECE6",
"h. c #71F2E5",
"j. c #7CF9E4",
"k. c #D2EFE7",
"l. c #DCEFE7",
"z. c #CFF0E5",
/* pixels */
"' N j m ` ] ] ` N ` n c m ) ` b X O O = * < = = = = = = = > 2 = = = = = = = = = = = = F - = = = * - = = * < = = = = = = = = = = ",
"` ` j b ` { ] ` N ' ` M c x ` ` X X X = = C = = = = = 2 > 3 W ; = = = = = = = = = = = = = = = = - A 5 = . C = = = = = = = = = = ",
"' ' b m ` ] ] ` ` ` c x N x N ` X X X 9 > < = = = = u <.I > 3 = = = > i > = = = > A > = = - = = = 7 2 9 > < = = = = = = = = = = ",
"] ) M ) ) ] ] ' ' N g c m N f N O O X 9.U > = = = 0 r.g.r.I > = = = y 5.4 = = = = - 2 6 - q = = = > Y 9.U > = = = = = = = = = = ",
"' M N ` ` ] ' ] ` ` ` N N M c M X O O s.t.> = = = :.h.l.g.<.2 * = = > 4 > = = = = = 7 L G > = = = 3 q.s.t.> = = = = = = = = = = ",
"[ ) N ` ` ] [ [ ] ' ` ) M N ` ] X O X 8.9 = = = = ; t.h.t.u = = = = = = = = = = = = - G G > = = = = u 8.9 = = = = = = = = = = = ",
"] m M M b ` ] ] ] ] ' b b m b N O O X = = = = = = = > :.D = = = = = = = = = , = = * A * * = = = = * * = = = = = = = = = = = = = ",
"' ) ` m n ` ` ` ' N ) M ` m x c X O X - A A = = = = = 9 > = = = = = - A 5 > z < = = > = = = = = = = = - A A = = = = = = = = = = ",
"' ] ] ` ` ' ' ] [ ) m d c ` ` M X O X 8 S A = = = = = = > s > = = = = 7 S S < > = = = = > = = = = = > 8 S A = = = = = = = = = = ",
"` [ ' ' ` ] ' ] [ N M N ` ` ` ' X O X K 8 = = = = = = = 1 @.1 = = = = - G G = = = = = - A - = = = = G K 8 = = = = = = = = = = = ",
"[ [ ] ' ` [ ` ` [ n ` ' ' ` ` ` O O O A - = > = = = = = = < = = = = = = = = = = = = = = = = = = = 5 G A - = > = = = = = = = = = ",
"` { { [ ' ] m ' ` h v ` N ` ] m X X O = = > E 3 > = = = = = = = = = = 2 ; = = = = = = = = = = = = 2 2 = = > E 3 > G G = = = = = ",
"j ' [ ] ' ` N ' ` d h m b ' ] ' X X X = = = 3 > > > = - - - = = = > p -.p = = = = = = = = = = = = = - = = = 3 > > S G - = = = = ",
"j ] [ [ ` ` M ] ` h k b N ` ] ' X X X = = = = = = = > G G 5 > = = p w.d.t.0 = = = - - = = = = = > s > = = = = = = - 5 A - = 3 = ",
"v ] [ ' ' ' M ' M h n N ` ` ` ] O X X = = = = = = = 7 L G - = = 2 3.f.z.j.2.* = > S S = = = = = 1 &.s = = = = = = = = = = 3 W 2 ",
"j N ] ` N M c N j j ) ' ' ' ` N O O O = = = = = = G G 5 - = = = = 9 t.f.p.3 . = > G G 5 = = = = > 1 > = = = = = = = = = = ; ; = ",
"O X X X O X X X X X O O X X X O X O O , > = = = = G G = = = = = . * 9 =.9 = = < z , 7 A > = = = = = > , > = = = = = = = = = = = ",
"O X X O O O O O O O O X X X X O X X X ~ # = = = = = = = = = = = = = = - A > = = = = = = = = = = = = r ~ # = = = = = . = = = = = ",
"X X X O X X O X X X O X X X O O X X X O./ @ * = = = = = = = = = = = A F - > = = = = = = = = = = = # ^ O./ @ * = = = = A - = = = ",
"= - F J 8 = = = = = = = = = = = , ~ O.$.+.Q * = = = = = = = = = = - F J 8 = = = = = = = = = = = , ~ O.$.+.Q * = = - = - = = = = ",
"- A 2 7 5 > = = = = = = = = = = = w / +.( @ = = > = = = = = = = - A 2 7 5 > = = = = = = = = = = = w / +.( @ = = > F - = = = * = ",
"= = = = > = = = = = = = = = = * - . w Q @ = = = = > = = - - = = = = = = > = = = = = = = = = = * - . w Q @ = = = = = 2 5 - A - = ",
"= = = = = = = = = = = = = = = = A = = = * = = = = B > = 5 A = = = = = = = = = = = = = = = = = = A = = = * = = = = = 5 L G - = = ",
"= = = = = = = = = = = = = = = = - = = = = = = = = < = = = > = = = = = = = = = = = = = = = = = = - = = = = = = = = = > G F - = = ",
"= = = = = = = = = = = > i > = = = = = = = = = = = = = = = > 3 > = = = = = = = = = = = > i > = = = = = = = = = = = = A - = = = = ",
"= = = = = = = = = = = 4 7.i = = = = = = = = = = = = = = = 3 W 2 = = = = = = = = = = = 4 7.i = = = = = = = = = = = * = = = = = = ",
"= = = > > = = = = = = = 2 > = = = = = = = = = = = = = = = = > = = = = > > = = = = = = = 2 > = = = = = = = = = = = = = = > = = = ",
"= = i 6.y = = = = = = < A 2 > = = = = > 2 = = = = = = = = = = = = = i 6.y = = = = = = < A > > = = = = > 2 = = = = = = - A - = = ",
"= = > i > = = = = = > V 4 F S - = = = 3 R ; = = = = = = = = = = = = > i > = = = = = > V 4 F S - = = = 3 R ; = = = = = = - = = = ",
"= = = = = = = = = = = < 7 J G - = = = > 2 * = = = = = = = = = = = = = = = = = = = = = < 7 J G - = = = > 2 * = = = = = = = = = = ",
"= = = = ; =   * = = = = - 5 - = = = = = = = = = = = = = 2 = = = = = = = ; =   * = = = = - 5 - = = = = = = = = = = = = = = = = = ",
"= = - A 6 > Z < = = = = = = = = = = = = = = = = = = = = > = = = = = - A 6 > Z < = = = = = = = = = = = = = = = = = = = = = = = = ",
"= = = 8 S G o = = = = = = = = 3 = = = = = = = = - = = = > < > = = = = 8 S G o = = = = = = = = 3 = = = = = = = = - G G = = = = = ",
"= = = - A S = = = = = = = =   i.> = = = = = = = > = = = 1 o.1 = = = = - A S = = = = = = = =   i.> = = = = = = = > S G 5 > = = = ",
"= = = = - - = = = = = = = = = i = = = = = = = < l = = = > s > = = = = = - - = = = = = = = = = i = = = = = = = < l > 5 A > = = = ",
"= = > 9 > = = = = = = = = = = = = = = = = = = = < = = = = = = = = = > 9 > = = = = = = = = = = = = = = = = = = = < * = - = = = = ",
"= = 9 =.2 = = = = = = = = = = = = = = = = = = = = 2 = = - - = = = = 9 =.2 = = = = = = = = = = = = = = = = = = = = = = = = = = = ",
"= 9 e.s.u.2 = = = = = 2 R 3 = = = = = = = = = = = = = G G 5 = = = 9 e.s.u.2 = = = = = 2 R 3 = = = = = = = = = = = = = = , Q , = ",
"2 3.f.k.j.,.= = = = = = = A = = = = = = = = = = = = 7 L G - = = 2 3.f.k.j.,.= = = = = = = A = = = = = = = = = = = = = = = * = = ",
"= P w.d.y.0 = = = = = = = > = = = = = = = = = = = F G 8 2 = = = = P w.d.y.0 = = = = = = = > = = = = = = = = = = = = = = = = = : ",
"= ; P ;.P > = = = = = = = = = = = = = = = = = = = A S = = = = = = ; P ;.P > = = = = = = = = = = = = = = = = = = = = = = = = . *.",
"= = > 2 G > = = = = = = = = = = = = = = = = = = = = = = = = = = = = > 2 G > = = = = = = = = = = = = = = = = = = = = = = = = = 2 ",
"= - S F > > = = = = = = = = ; >.> = = = = = > R 2 = = = = = = = = - S F > > = = = = = = = = ; >.> = = = = = > R 2 = = = > = = = ",
"= - G K 6 > = = = * t > = 9 :.a.:.. = = = = * * = = = = = = = = = - G K 6 > = = = * t > = 9 :.a.:.. = = = = * * = = = 9 4.9 = = ",
"- A 2 8 5 4 = = = = o.= = ; 9 1.0 = = = = = = = = = = = = = = = - A 2 8 5 4 = = = = o.= = ; 9 1.0 = = = = = = = = = = 4 u > = = ",
"= > = > = 6.* = = = s = = = * 9 = = = = = = = = = < = = - 5 = = = > = > = 6.* = = = s = = = * 9 = = = = = = = = = = > 6.i = = = ",
"= = =   = 3 = = = = = = = = = = = = = = = = = = = B > = 5 A = = = = =   = 3 = = = = = = = = = = = = = = = = = = = = ; 4 > = = = ",
"= = 2 R 2 = = = = = = = = = = = = = = = = = = = = < = = > > = = = = 2 R 2 = = = = = = = = = = = = = = = = = = = = = = = = = = = ",
"= = = > 3 = = = = = = = = = = = = = = = = = = = > = = = = = , > = = = > 3 = = = = = = = = = = = = = = = = = = = > , = = = = = = ",
"= = = a i.> = = = = = = = = = = = = = = = = = = < = = = = % ..e = = = a i.> = = = = = = = = = = = = = = = = = = < B > = = = = = ",
"= = = > i > * < > = = = = = = = > i > = - 5 A > > - 7 A , _ #.} = = = > i > * < > = = = = = = = > i > = - 5 A > > < = = = = = = ",
"= = = 7 7 > , l < = = = = > @ = 3 7.i - A G - = = S G 7 > % | e = = = 7 7 > , l < = = = = > @ = 3 7.i - A G - = = = = = = = = - ",
"= = = 7 S A = < > = = = = @ ! , = u > 5 G L = = = G L > = > @ > = = = 7 S A = < > = = = = @ ! , = u > 5 G L = = = = = = = = = A ",
"= = = - F G = = = = = = = = > = = = > A 6 - = = = 5 > W 3 = = = = = = - F G = = = = = = = = > = = = > A 6 - = = = = = = = = = = ",
"= = = = = = = = = = = = = = = = = = = = = = = = = = = = = = = = = = = = = = = = = = = = = = = = = = = = = = = = = = = = = = = = ",
"= = = = = = = = = = = = = = = = = = = = = = = = = = = = = = = = = = = = = = = = = = = = = = = = = = = = = = = = = = = @ = = = = ",
"= = = = = = = = = = = = = = = = = = = = = = = = = = = = = = = = = = = = = = = = = = = = = = = = = = = = = = = = = = $  .& > = = ",
"= = = = = = = = = = = = = = = = = * = ; = = = = = = = ; = = = = = = = = = = = = = = = = = = = = = * = ; = = = = = = ..%.X.@ = = ",
"= = = = = = = = = = = = = = = = A 5 3 R 2 = = = = = > A 7 = = = = = = = = = = = = = = = = = = = A 5 3 R 2 = = = = = + ..H A = = ",
"= = = > 9 = = A - = = = = = = = 5 G K > = = = = = u > 5 G J - = = = = > 9 = = A - = = = = = = = 5 G K > = = = = = = * 5 A A - < ",
"= = > U 0.9 = - = = = = = = = - - G G 5 = = = = = 7.2 - A G 5 = = = > U 0.9 = - = = = = = = = - - G G 5 = = = = = = = 5 5 - = z ",
"> < 9 9.s.8.= = = = = = = > 5 A = - 5 A - = = = = i > = > 7 A - > < 9 9.s.8.= = = = = = = > 5 A = - 5 A - = = = = = = > i > = < ",
"< Z < U t.9 = = = = = = > J G 8 = = = = = = = = = = = = = = - = < Z < U t.9 = = = = = = > J G 8 = = = = = = = = = = = u 7.i = = ",
"= < > > 2 * = = = = = = 5 G G > = = = = = = = = = = = = = = = = = < > > 2 * = = = = = = 5 G G > = = = = = = = = = = = > 3 > = = "
};
