/* XPM */
static char *xpm_[] = {
/* columns rows colors chars-per-pixel */
"64 64 140 2 ",
"   c #0F0D1F",
".  c #100E1E",
"X  c #141414",
"o  c #11101F",
"O  c #1A1A1A",
"+  c #1D121F",
"@  c #22121F",
"#  c #28121E",
"$  c #2C181F",
"%  c #321A1D",
"&  c #3D1F1D",
"*  c #0F0F21",
"=  c #100F21",
"-  c #140F2C",
";  c #0F1122",
":  c #0F122E",
">  c #121123",
",  c #1A1321",
"<  c #171820",
"1  c #1A1A22",
"2  c #12142B",
"3  c #131A2B",
"4  c #191C2C",
"5  c #150F32",
"6  c #180F33",
"7  c #161032",
"8  c #191034",
"9  c #131B33",
"0  c #121C39",
"q  c #1C113F",
"w  c #251420",
"e  c #2A1821",
"r  c #2E132C",
"t  c #1F2023",
"y  c #17202E",
"u  c #162133",
"i  c #192332",
"p  c #14223D",
"a  c #1C2A38",
"s  c #242325",
"d  c #4E3A04",
"f  c #553804",
"g  c #623D04",
"h  c #554204",
"j  c #5B4805",
"k  c #584505",
"l  c #494A1F",
"z  c #52541E",
"x  c #654304",
"c  c #694504",
"v  c #614805",
"b  c #6D4905",
"n  c #714E05",
"m  c #755205",
"M  c #785605",
"N  c #7D5B06",
"B  c #5E611E",
"V  c #515220",
"C  c #5D5F20",
"Z  c #5D6020",
"A  c #1E1245",
"S  c #1F1249",
"D  c #151B45",
"F  c #201247",
"G  c #21124B",
"H  c #3E1C43",
"J  c #351456",
"K  c #371558",
"L  c #3B155C",
"P  c #152441",
"I  c #162947",
"U  c #192D44",
"Y  c #1A3047",
"T  c #1E5E67",
"R  c #1E5F68",
"E  c #1E6C73",
"W  c #216D74",
"Q  c #9B2314",
"!  c #AD2312",
"~  c #A62913",
"^  c #AC3616",
"/  c #BB3714",
"(  c #CA3812",
")  c #805F06",
"_  c #BC5111",
"`  c #846407",
"'  c #8A6A07",
"]  c #8D6E08",
"[  c #8F7008",
"{  c #907208",
"}  c #CA4F0F",
"|  c #D0550E",
" . c #D65B11",
".. c #E6560C",
"X. c #DE6011",
"o. c #BEBC39",
"O. c #EA881B",
"+. c #F1911B",
"@. c #C1BD3A",
"#. c #F7CE33",
"$. c #F9D333",
"%. c #F9E039",
"&. c #DDDA40",
"*. c #09309D",
"=. c #1A5EBA",
"-. c #1E62B3",
";. c #2066B5",
":. c #1D69D2",
">. c #1F6FD9",
",. c #1E71DC",
"<. c #2372CC",
"1. c #2778D3",
"2. c #2070DB",
"3. c #237AE6",
"4. c #3591BF",
"5. c #53A69E",
"6. c #5EBCB1",
"7. c #5EC1B5",
"8. c #3698C6",
"9. c #3A9CC5",
"0. c #3BA2CD",
"q. c #3DA7D2",
"w. c #42AAD2",
"e. c #41AFDD",
"r. c #45B3DE",
"t. c #42B5E4",
"y. c #47BAE6",
"u. c #45BFF3",
"i. c #6BDBCB",
"p. c #47C3F7",
"a. c #6BE7E5",
"s. c #6BEAE6",
"d. c #70E3E4",
"f. c #75EBE5",
"g. c #7BECE6",
"h. c #71F2E5",
"j. c #7CF9E4",
"k. c #D2EFE7",
"l. c #DCEFE7",
"z. c #CFF0E5",
/* pixels */
"= < > = = = = = = = = = = = = = = = = = = = = = = 2 = = = = = = = = = = = = = = = = = = = X O O j v j j ` [ ` ' ' ] [ ' ] ' ` ' ",
"< Z 1 = = = = = = = = = = = = = = = > A = = = ; P 3.9 = = = = = = = = = = = = = = = = A - X X X N ] ] ' { [ [ ] ) m ) M ) ' ` N ",
"> 1 9 > = = = = = = = = = = = = 2 = = 2 F S > P w.f.e.9 > = = = = = = > i = = = = = = 2 F X X X ] [ [ [ { ] ' ] ` M N N M b j j ",
"> U 9.U > = = = = = = 7 7 > a > R * > 8 K F 2 ;.d.k.s.=.9 = = 7 A = = i 6.> = = = = = 7 K O O X ` ' [ ] [ ' ' ` m M ` ` ) m b m ",
"2 t.s.0.9 = = = = = F S 7 i i.3 2 = = 5 6 > F P y.j.u.2 > = A S 5 ; = > y > = = = = > 5 7 X O O N ' ` ' ' ` ` ` n b ` ` ) ` ` ` ",
"* 9 8.9 = = = = = = F A > > > = = 3 6.4 > > > > 0 ,.2 = = = S F > = = = = = = = = = = > = X O X M ' ` ` ] [ ] ' ` ` ] ] ] ] { ] ",
"= = = = = = = = = = = = > * = = = = * = = = = = = = = = = = = > Z   = = = = = = = = = = = O O X c M M N m ` ' ' ` ] [ ' ] ] ] ] ",
"= = = = A = = = = = = < l < = = = = = = = = = = = = = = = = = = 1 * = = = = = = = = = = = X O X N ' ] ' ' ` ] ] ` ] [ ] ' ` ` ` ",
"= = = = = = = = = = = > < > = = = = = = = = = = = = = = = = = = = = = = = = = = = = = = = X O X j M ` ` ` [ [ [ ' ] ] ` ' ` N N ",
"= = = = = = = = = = = = = = = = = = = = * = = = = = = = = = = = = = = = = = = = = = = = = X O X j h h d h n N ) N ] ' ` N ` ' ` ",
"= = = = = = = = = = = = = = = = = = s o.t = = = = = = = = = = = = = = > = = = = = = = = = O O O ) n k h v ` M m ) ' ` ` g c ` n ",
"= = = = = = = = = = = = = = = = = = = = > = = = = = 2 = = = = = = = 1 V < = 4 > = = = = = X X O ' N b m ` ' N d M b ) N c x M c ",
"5 > = = = = = = = = = = = = = = = = = = = = = = = = R = = = = = = - 7 4 A 2 7.i = = = = = X X X ' ` N b N ' ` c ` b M N m N c m ",
"G K > = = = = = = = = @ > = = = = = = ; 9 = = = > A 3 = = = = = = 5 K F 2 > i > = = = = = X X X ' ` ` ' ` ` ` ` m m N M N x x ) ",
"G G 5 = = = = = = = > ! @ = = = = = * 9 :.; = = = = = = = =   = = = F S > = = = = = = = = O X X ` ` ] ] ] ` ` ` x b ` c f N ` ` ",
"> 7 A = = = = = = = = , = = = = = = 9 1.a.>.= = = = = = = i i.3 = = = = = = = = = = * = = O O O N ] ' ' m ` ' M c N ] M N ` ` b ",
"= = = = 5 A = = = = = = 3 > = = = = = 0 :.> = = = = = = = = > = = = = = = = = = = A = = , X X X O O X X X O X X X O X X O X X X ",
"= = = F G 5 * = = = = u 7.i = = = = = = . = = = = = = = = = = = = = = = = = = = = = . w ~ X X O O X X X X O O O O O O O O X X O ",
"= = 5 F K 3 = = = = > > i > = = = = = = = = = = = = = = = = = = = = = = = = = = = = w / O.X X O O X X X O O X X X X X O X X X O ",
"= = A 5 > T ; = = = A 5 - = = = = = = = = = = = = = = = = = = = = = > 3 > = = = = = Q +.$.O.~ > = = = = = A K 8 = = 8.s.9.9 = = ",
"= = = = = 2 = = = = 5 G A = = = = = = = = = = = = = = = = = = = = = 2 R 2 = = = = * @ ( +./ # > = = = = = = 8 S A = 9 t.U > = * ",
"= = = = = = = = = = = L G 5 = = = = = = = = = = = = = = = = = = = = * ; = = = = = = = @ Q @ = = = = = = > = = A A = = > > 1 C < ",
"= = = = = = = = = = = = - A = = = = = = * > = = = = = = = = = = = = = = = = = = = = = = * * = = = = = 3 E > = = = = = = = = = = ",
"= = = = = = = = = = = = = > = = = = = = * R = = = = = = = < = = = = = = = = = = = = = = = = = = = = = > 3 = = = = = = = = = = = ",
"= = = = = = = = = = = = = > 1 > = = = = = 2 = = = = = = < l > = = = = = = = = = = = = > = = = = = = = > > = = = = = = = = = = = ",
"= = i 7.u = = = = = 5 G S = = = < B 1 = = = = A F = = 2 = = = = = = = = = = = = 1 B > = = = = F F = = > = = = = = = ; :.0 = = = ",
"= = > 2 > > = = = = > L G 7 = = = > = = = = = S F 7 = = = = = = = = = = = = = = = > = = = = = F G 7 > = = = = = = > t.h.r.u = = ",
"= = = = 5 A ; = = = W > 7 A = = = = = = = = = = 8 L G = = = = = = = = = = = = = = = = = = = = = 5 L F = = = = = 9 :.h.l.g.<.2 = ",
"= = > A F 7 = = = = 3 = > , = = > 5 - = = = = = 2 G F - = > 1 > > 2 = = = = = = = 5 - = = = = = = G F - = = 1 > > D t.g.r.I > = ",
"= = 7 G K = = = = = = > % _ % = > A 5 = = = = = = = 5 - = s o.1 = = = = = = 3 > > A - = = = = = = = 5 - = < @.s = = u <.I > 3 > ",
"= = A 5 = = = = = = = @ | #..., = = = = = = = = = = = = = > 1 > = = = = = > W 3 = = = = = = = = = = > = = = 1 > = = = 2 > 3 W 2 ",
"= = = = = = = = = = = > e } e > = = = = = = = = = = = = = = = = = = = = = = 2 > = = = = = = = = = = = = = = = = = = = * = = ; = ",
"= < > = = = = = = = = = = = = = = = = = = = = = = 2 = = = = = = = = = = = = = = = = = = = = = = = 2 = = = = = = = = = = = = = = ",
"< Z 1 = = = = = = = = = = = = = = = > A = = = ; P 3.9 = = = = = = = = = = = = = = = = A - = = * 9 3.p > = = = = = = = = = = = = ",
"> 1 9 > = = = = = = = = = = = = 2 = = 2 F S > P w.f.e.9 > = = = = = = > i = = = = = = 2 F A = 9 t.f.w.p = = = = = = = > y > = = ",
"> U 9.U > = = = = = = 7 7 > a > R * > 8 K F 2 ;.d.k.s.=.9 = = 7 A = = i 6.> = = = = = 7 K F = =.f.z.d.-.2 = = 7 A = = 4 5.i = = ",
"2 t.s.0.9 = = = = = F S 7 i i.3 2 = = 5 6 > F P y.j.u.2 > = S S 5 ; = > y > = = = = > 5 7 - A 9 p.j.t.p ; = F S 5 = = > 4 > = = ",
"* 9 8.9 = = = = = = F A > > > = = 3 6.4 > > > > 0 ,.2 = = = S F > = = = = = = = = = = > = > > = 3 2.0 = = = F S > = = = = = = = ",
"= = = = = = = = = = = = > * = = = = * = = = = = = = = = = = = o Z   = = = = = = = = = = = = = = = * = = = = = < z > = = = = = = ",
"= = = = A = = = = = = < l < = = = = = = = = = = = = = = = = = = 1 * = = = = = = = = = = = = = < = = = = = = = > < = = = = = = = ",
"= = = = = = = = = = = > < > = = = = = = = = = = = = = = = = = = = = = = = = = = = = = = = = = z > > = = = = = = = = = = = > = = ",
"= = = = = = = = = = = = = = = = = = = = * = = = = = = = = = = = = = = = = = = = = = = = = = = > F S = = = = = = = * = = = A = = ",
"= = = = = = = = = = = = = = = = = = s o.t = = = = = = = = = = = = = = > = = = = = = = = = = = 7 G S = = = = = = > A = 7 2 > = = ",
"= = = = = = = = = = = = = = = = = = = = > = = = = = 2 = = = = = = = 1 V < = 4 > = = = = = = = A 5 = = = = = = = = * F L 6 = = F ",
"5 > = = = = = = = = = = = = = = = = = = = = = = = = R = = = = = = - 7 4 A 2 7.i = = = = = = = > = = = = = = A > = * F F - = = = ",
"G K > = = = = = = = = @ > = = = = = = ; 9 = = = > A 3 = = = = = = 5 K F 2 > i > = = = = = = = = = = = = = = = = = = > > q = = = ",
"G G 5 = = = = = = = > ! @ = = = = = * 9 :.; = = = = = = = =   = = = F S > = = = = = = = = = = = = = = = = = = = = = = = = = = = ",
"> 7 A = = = = = = = = , = = = = = = 9 1.a.>.= = = = = = = i i.3 = = = = = = = = = = * = = = = = = = = = = = = = = = = = = = = = ",
"= = = = 5 A = = = = = = 3 > = = = = = 0 :.> = = = = = = = = > = = = = = = = = = = A = = , = = = > 1 > = = = = = = = = = = = = * ",
"= = = F G 5 * = = = = u 7.i = = = = = = . = = = = = = = = = = = = = = = = = = = = = . w ~ # = = 1 &.s = 2 5 = = = * = 3 > 7 A = ",
"= = 5 F K 3 = = = = > > i > = = = = = = = = = = = = = = = = = = = = = = = = = = = = w / O.^ r > > s > = 2 F F > = * u q.Y 7 5 = ",
"= = A 5 > R ; = = = A 5 - = = = = = = = = = = = = = = = = = = = = = > 3 > = = = = = Q +.$.O.~ > = = = = = A K 8 = = 8.s.9.9 = = ",
"= = = = = 2 = = = = 5 G A = = = = = = = = = = = = = = = = = = = = = 2 R 2 = = = = * @ ( +./ # > = = = = = = 8 S A = 9 t.U > = * ",
"= = = = = = = = = = = L G 5 = = = = = = = = = = = = = = = = = = = = * ; = = = = = = = @ Q @ = = = = = = > = = S A = = > > 1 C < ",
"= = = = = = = = = = = = - A = = = = = = * > = = = = = = = = = = = = = = = = = = = = = = * * = = = = = 3 E > = = = = = = = = = = ",
"= = = = = = = = = = = = = > = = = = = = * R = = = = = = = < = = = = = = = = = = = = = = = = = = = = = > 3 = = = = = = = = = = = ",
"= = = = = = = = = = = = = > 1 > = = = = = 2 = = = = = = < l > = = = = = = = = = = = = > = = = = = = = > > = = = = = = = = = = = ",
"= = = = = = = = = = = = = < B > = = = = = = = = = = = = * > S F = = = = = = * = = = = F = = = = = = = S F = = = = = = = = = = = ",
"= = = = * + ..$ = = = = = = > = = ; > = = = = = = = = = = 5 F F = = = = = = = A > 5 2 = = = = = = = 5 F F = = = = = = = = = = = ",
"> u > 5 5 ..%. .@ = = = = = = = = 4 6.4 9 = = = = = = = = A 5 = = = = = = = = = F L 5 = = A = = = = A - = = = = = = = = = = = = ",
"3 7.i 5 A H X.& = = = = = = = = = > i u 4.> = = = = , = = > > = = = = = A > = = F G - = = = = = = = = = = = = = = = = = = = = = ",
"> i > - A A @ > = = = = = = = = = = = > 9 = = = = * Q = = = = = = = = = = = = = = = A = = = = = ; 3 = = = = = = = = = = = = = = ",
"= = = = = = = = = = = = = = = = = = = = = = = . = = , = = = = = = = = = = = = = = = = * = = = = ; W 3 = = = = = = = = = = = = = ",
"= = 1 z < = = = = = = A = = = = = = = = = = 2 *.: = = = = = = = = = = = = = = = = = = = = = = = = 2 = = = = = = = = = = = = = = "
};
