/* XPM */
static char *death_11692725076[] = {
/* columns rows colors chars-per-pixel */
"64 64 254 2 ",
"   c #010101",
".  c #090504",
"X  c #0B0906",
"o  c #060809",
"O  c #0C0B0C",
"+  c #080708",
"@  c #120D0B",
"#  c #170606",
"$  c #1B130E",
"%  c #17110C",
"&  c #0C0E11",
"*  c #010B15",
"=  c #0E1014",
"-  c #06161B",
";  c #131214",
":  c #1C1612",
">  c #12151A",
",  c #1D1B1B",
"<  c #18191C",
"1  c #160E12",
"2  c #290807",
"3  c #231A14",
"4  c #2A1D15",
"5  c #231C1B",
"6  c #261817",
"7  c #33100E",
"8  c #2D221A",
"9  c #2A2018",
"0  c #33251B",
"q  c #3A2A1E",
"w  c #38271C",
"e  c #262C03",
"r  c #1A1E23",
"t  c #171A24",
"y  c #09152B",
"u  c #271E22",
"i  c #1D2329",
"p  c #1C2225",
"a  c #0F2C36",
"s  c #242223",
"d  c #22262C",
"f  c #2B2527",
"g  c #3C2D21",
"h  c #332928",
"j  c #3F3021",
"k  c #3E3129",
"l  c #252C34",
"z  c #2F2834",
"x  c #372D33",
"c  c #2A323C",
"v  c #343334",
"b  c #3A3234",
"n  c #3B3A3A",
"m  c #2E3324",
"M  c #480C0B",
"N  c #51120F",
"B  c #6A1816",
"V  c #781918",
"C  c #6D0C08",
"Z  c #502913",
"A  c #4A1C2F",
"S  c #7C163C",
"D  c #432B24",
"F  c #453324",
"G  c #493726",
"H  c #4E3A2A",
"J  c #4B3828",
"K  c #543E2C",
"L  c #583F2C",
"P  c #443B3D",
"I  c #493936",
"U  c #543A34",
"Y  c #5B2728",
"T  c #6F2A2E",
"R  c #78321C",
"E  c #56412E",
"W  c #5A422E",
"Q  c #5D4431",
"!  c #5E4835",
"~  c #584334",
"^  c #614633",
"/  c #644935",
"(  c #694D37",
")  c #664C38",
"_  c #6A4E39",
"`  c #6D513B",
"'  c #72543D",
"]  c #73583F",
"[  c #754837",
"{  c #67461E",
"}  c #182D45",
"|  c #2C3843",
" . c #353B43",
".. c #3B2B5E",
"X. c #243F63",
"o. c #262458",
"O. c #433B41",
"+. c #502B50",
"@. c #702C50",
"#. c #612B54",
"$. c #3C4855",
"%. c #364C4F",
"&. c #38517E",
"*. c #4D4445",
"=. c #494A4C",
"-. c #584E4F",
";. c #56484A",
":. c #454C59",
">. c #5A4F51",
",. c #5E5354",
"<. c #585859",
"1. c #46585A",
"2. c #6B4243",
"3. c #6E5441",
"4. c #635245",
"5. c #745641",
"6. c #765943",
"7. c #7A5B43",
"8. c #7D5E48",
"9. c #755B49",
"0. c #615656",
"q. c #645A5B",
"w. c #6A5E5F",
"e. c #7E4C50",
"r. c #7C614A",
"t. c #594D6C",
"y. c #665967",
"u. c #6F5670",
"i. c #696569",
"p. c #757577",
"a. c #756D6C",
"s. c #5E697E",
"d. c #881615",
"f. c #941511",
"g. c #B01B13",
"h. c #88221B",
"j. c #932D1C",
"k. c #BB221B",
"l. c #A9241F",
"z. c #872323",
"x. c #9A2625",
"c. c #863238",
"v. c #A42623",
"b. c #B72928",
"n. c #A32E34",
"m. c #B83136",
"M. c #B92D32",
"N. c #A10E25",
"B. c #C31C15",
"V. c #F71D11",
"C. c #E51D13",
"Z. c #C9231A",
"A. c #DB2319",
"S. c #D82319",
"D. c #E72419",
"F. c #FF291C",
"G. c #F92518",
"H. c #ED391E",
"J. c #C62F2A",
"K. c #E9332E",
"L. c #CB1F36",
"P. c #8F4A2E",
"I. c #A95137",
"U. c #84421A",
"Y. c #FA4718",
"T. c #D54E35",
"R. c #F5532D",
"E. c #F95834",
"W. c #EE4A2E",
"Q. c #FC6836",
"!. c #FF7736",
"~. c #FB6A2D",
"^. c #D15B2B",
"/. c #8A1A52",
"(. c #8E334D",
"). c #A2354A",
"_. c #B2384A",
"`. c #892A65",
"'. c #C63B46",
"]. c #805F4A",
"[. c #835C48",
"{. c #914548",
"}. c #A94548",
"|. c #B85D44",
" X c #83634C",
".X c #896A53",
"XX c #916E51",
"oX c #93735B",
"OX c #BA7253",
"+X c #907368",
"@X c #B1746B",
"#X c #935978",
"$X c #CD524F",
"%X c #D37245",
"&X c #D86255",
"*X c #FF823B",
"=X c #B48053",
"-X c #958576",
";X c #B29573",
":X c #F79156",
">X c #CE916C",
",X c #FDA466",
"<X c #EAA375",
"1X c #E28C60",
"2X c #2A3580",
"3X c #1D5EA4",
"4X c #7D7483",
"5X c #59659A",
"6X c #3A67D4",
"7X c #2F4DD1",
"8X c #8D7592",
"9X c #A25288",
"0X c #C96185",
"qX c #758E93",
"wX c #7C8EA5",
"eX c #868686",
"rX c #97979A",
"tX c #8F8197",
"yX c #A3898E",
"uX c #A7A896",
"iX c #9A8EA7",
"pX c #A189AB",
"aX c #AA95B4",
"sX c #ABACB3",
"dX c #B4A8B9",
"fX c #B5B5BB",
"gX c #AAAAAB",
"hX c #9EA1A5",
"jX c #D3B496",
"kX c #F9BB87",
"lX c #EC9CA6",
"zX c #FACA90",
"xX c #CBC2B5",
"cX c #FFF0B8",
"vX c #FFDAAD",
"bX c #8B86C9",
"nX c #BCBAC4",
"mX c #B9AEC2",
"MX c #838BF6",
"NX c #C7B8D2",
"BX c #A0C4C4",
"VX c #CCC7D5",
"CX c #D4D6DA",
"ZX c #C9C8D1",
"AX c #FCF3CB",
"SX c #DBD9E6",
"DX c #D4CDE0",
"FX c #E4DCEF",
"GX c #D9E2E7",
"HX c #E5E6EB",
"JX c #ECE8F7",
"KX c #FEFEFF",
"LX c #F5F8FC",
"PX c #FBD0D2",
/* pixels */
"8.7.G ` ` ^ ^ W E / ( / W W W L ` ` ( ^ / W ` ^ ^ L ^ ^ ^ W / / r.8.G ( ` ! ^ W E / ( ^ W W W L ( ' ( Q ( ^ _ / ^ L ^ L ^ L _ / ",
"` ` ( / ^ W ^ E E W W W / W W W ` ` ( / G ( XX(  X^ ^ L ^ L ` ( ` ( ( / ^ { ^ E E W W ^ ^ W L ^ ( ( ( ^ F ( .X_ ]./ ^ L _ L ` / ",
"( ^ ( ] ( G ^ ' / ' / G ' ` ` W W W Q ( / ( ^ _ ) L L U ~ L _ _ ( ^ ( ' ( F ^ ` ( ' ^ J ' ` ' ^ W W ^ ( ( _ Q ) _ L K K Q K _ ( ",
"W ` ` '  XW ^ / / / r.K ] ( / / ' ( ( ' ] ( ( ^ ` _ ' ` _ _ ! ) W ' ' '  XW / ( ^ ^ [.K ] ( / ^ ' ( ( ' 5._ ( ^ ` _ 5.` _ _ ^ ) ",
"^ ( ^ _ L F L ^ ^ ^ L W { W ^ ' ' ] ( / / E ( / _ ` ' ( ^ ^ K H Q ( ^ _ E G E ^ ^ ! E W Q ^ ^ ' ' ] ( / / W ( ^ _ ` ' ( ^ / U K ",
"W ^ L W / W ~ L ^ W / ( _ ' Q / ^ ( L ] ' ^ W W / ` / ( _ ^ Q ) Q ^ L W / W E E ^ W / ( ( ( ^ ^ / ( W ] ' / W L / ` / / ) ^ Q ^ ",
"` W W ] _ ` ` / J / ( ` ( ( / _ _ ^ / ) 5.^ Q Q ( ` _ [._ L _ 5.' W ~ ] ( ' ` / J ^ [ ` ( ' / _ ( / / / ' / Q / ( ` ( [._ ^ ) 6.",
"( W ' ( _ ` ` ' L ' ' 7.7.' `  XK ] 6.W W ^ ! ` ` [.5./ _ _ 3.[ ^ W ` ( ` ( ` ' L ' ' 7.] ' `  XH ] ] ^ L / / ( ` [.5.( ) / 5.( ",
"/ ^ oX[.^ ^ ^ ^ Q ` ( ].' ' 5.] W ` 7.] ( L ` `  X_ / ^ W Q ^ ` ^ Q oX X^ / L _ ^ ` ) [.' ' 5.] W ( r.] ) E ` `  X( ( ^ Q ! ^ ` ",
"^ L ].5.L ^ L Q ^ _ ( ] ] ] ( ' Q ] ] /  X~ ( 6.oX^ ^ ! ! ~ 6.! ^ ~ ].5.L ^ ^ U ^ ` ) 5.5.] ( ' ^ ] ' ) r.E ) 6.oX^ ^ ! Q Q 5.^ ",
") K ` / _ U / ) Q / ( ` ` ' ' ' Q _ 6.^ W K ` ) ` ! Q / H j ( r./ L ` ^ ) L / ) Q ( _ ` ' ' 5.5.Q ( ] 3 j E ` ) _ ^ ! / J k ( 8.",
"^ ^ _ .X5.` ' ^ ~ _ ^ ( ` ^ 8.].H Q / _ Q Q ( 6./ / W ! .XE 6..X^ ^ _ .X5._ 3.^ L _ ^ ( _ ^ 9.8.H ^ /   0 W ) 6.) ^ ~ Q .XE 5..X",
"! _ 5._ W ^ ^ ^ 6._ K Q ^ ^ 9.g + .   . H ` E Q H 7.3.6.' ^ ! ! ! _ ' ` W ^ ^ ! 7._ K L / Q 9.^ W ^ E @ q _ K E J 7.` 6.` ^ ! ! ",
"5._ U L ^ L K _ ( ` 7.~ Q F : <.DXmXZXiXu % ` 7.! 9.5.! Q ^ H ~ 5._ W E ^ K H ` ( ` 8.~ ~ L ^ ^ ( / q   F ! ` : E 6.5.^ ! / H ~ ",
"' ) ^ L / 5.Q ) 6.' 6.3.E , JXNXaXmXFXLXHXZX5 Q / ` ^ Q ^ L G ` 5.~ D G ! 3.~ K ] ' 5.5.! H 5.5.5.! n > g 3.K . E 3./ Q Q L F ` ",
"^ L L Q _ ' ^ ( ` ( / ! F 4XFXpX8XmXGXHXLXLXtX@ ^ ^ ^ ^ _ / W ^ ^ D @ ; c | $.i D K ) ^ ^ H _ 9..X~ c = H ` .   Q Q ^ ^ _ / ! ^ ",
"^ L ] L ( ^ ` ( ` ( ( H s hX4XpXpXFXKXnXHXKXCXv J Q ` _ ^ ^ ' W ^ W ] q   > l l r   J L 8       9 P |   k $.. $ W Q ` ) / Q ' Q ",
"W Q ^ W ( ^ 7.~ _ ` ^ E , i.y.pXu.8XVXmXiXZXKXCX@ ` _ ^ ^ ^ / G W W ^ W ^ @     p i   0           i ; = l o   L W _ _ ^ ^ ^ ^ F ",
"] ( ^ E ] / W J ^ ` W L s nXNX8X    sXKXy.dXKXmXX _ ~ L K ^ W ~ ] ( Q q ~ $       d t   > &       l | i O   3 Q ) _ Q L K / L ! ",
"' ` ^ Q H ^ H K H ( W E   -.JXiX=.  n gXVXHXDX .q XX/ ` ( _ Q ^ ' j : r < < t       r i $.c       = l .     _ ` / XX/ ' ( ` Q ^ ",
"E ` ] ! F W ' ( ` ! H 8 r ZXNXpXpXy.:.hXLXKXnX: ` Q ` / ( / 6.8 : l c :.$.$.$.c i     $.:.l               g q g 8 Q ` ( ( ^ 7.` ",
"Q r./ E G / ' ] / g 3 O f y.t.dXpXpXJXDXaXJXdX@ L ` _ Q E E : c d i r = > ; > r r     ; < &   & | &       g     4 ` _ Q E L H E ",
"E E E ( 6.Q F 3 3 o O < @   O 8XaX8XVXDXVXSXz @ ` / Q E L @   i =                           < d i l ;         w ` ( W W K E H E ",
"` ! ` _ ( j C f.f.k.6 - f d r f 8XNXHXLXNXv . s 0 Q E E L j F j q       > | O   i O         d l   O l =     q ~ ` Q E K K ` E E ",
"! ~ ] _ ` 8 N K.G.G.k.1 t x x t z i.i.v ; f ;.U N 5 K .X] 5./ ( ^ H g r l t   i r                   l -   . W W / ~ E .X] ] / ( ",
"E ! / ` W w 7 J.D.A.F.V N V.x.u v %.P h b q.$.F F.f.0 7.( E ( 8.E H s l     i i     o l | i         . . V b.3 $ : ( ) r.( E ( 8.",
"E ! ! E q 2 N d.x.z.k.z.B V.G.D.h.P >.1.,.,.=.Y F.v.: ( E E ) ! q > i o     l >     O | & + G ,X{ .   V W.8X5X3XX 7.( ( L L ( ( ",
"E E E G C g.d.D.D.x.O V B N A.V.G.G.h.;.0.:.;.F.D.M w 5.~ G % v v       @ O l <   & & l     Z %X,XL : v.E.5X3X2Xy H ! ] / W / _ ",
"W E F F M b.b.G.G.T o B C 7 V B.g.k.B.B.@.%.D C.d.$ ) r.9 p d fXLX%.+ g _ W =.; O i = i     -  X:X[.|.m.W.+Xs.iXwX@ ) 9.) ! H _ ",
"E E E 9 C d.z.H.V % : 2 N n.z.M C f.x.l.x.P.z.M 2 7 : J % GXgX-XHXHX  ^ W Q v o t : O | *   | yXP.OX$Xb.Q.<XkX1X@X@ ) / E J K E ",
"! D 9 ;.&X$Xf.V : ! Q 4 6 N B T x.D.D.A.D.V.G.B O l.(.<.v hXeXHXLX0.3 ^ ^ Q w . 3 L & t.~ - 2 c.%X:XJ.Q.!.%X>X2.I H F H ^ L ! ^ ",
"F 1.rXGXqXPX&X@.F K 5.` ^ 6 6 J.z.x.G.S.S.S.F.g.# C lXKXrXq.qXHXKX. E _ ` / ) . D H * y.K.7 = 8XuX(.H.*XR.P.xX2.@XvX  Q ^ ) ^ _ ",
"p KXKX<.~ GXBXn H / _ ^ W E , B k.Z.Z.D.A.A.D.d.2 V ;.i.=.rXLXKXp.G G ` ` ^ ^ 0 F / 8 z J.l.a 3X3X}.~.R.b.A =X@X<X7.q Q ^ L / ( ",
"p KXZXhXsXxXv q L W L ^ ^ W F   Y Y v.V.S.G.S.u # 4 q 0 % , p.p.q ( ( / { Q ! E W W W   T $X6Xy.^.~.Q.b.k.# U.,XjX$ ^ W / L ` / ",
"F i.KXKXLXrXh ^ / ' ^ H 5./ 4 *.=.a D S.V.V.x.r   3 E K H w F F ( / ( ' ( G ^ ` ( ` W 4 P.Y 9X$XY.E.Z.Z.9Xy =XzX>XX L E W K ( ( ",
"W F <.CXKXqXq ( / / 8.K ` : ;.w.0.,.a U {.{.;.f u : F ` ` ( ! ) Q ' ` '  XW ^ ( / / r.# u.i N @.#.#.#.@.X.* zXAXZ H ` ` ` ` ~ ` ",
"Q ( q m n 8 K Q ^ ^ W K : *.q.-.>.,.-.c %.1.=.x >.,.f F ^ ^ K U Q ( ^ _ E F W ^ ^ W 0 -XX.w l.5X6X6X6X8X2 y bXbX@ ` ' ( ! ^ L H ",
"W ^ K K L ~ ~ K ^ W / W ; q.0.-.-.>.q.b h b b -.,.q.q.s F ^ Q ^ Q Q L Q / W W H ^ W 3 AX+X7 ~.}.#X&X$X!.N 8XMX7X1 _ ( / / / ~ / ",
"_ ~ ~ 5._ ` ` ) J ^ ( ^ @ ,.0.P P 0.>.v u f -.0.>.>.*.*.s F _ 6.` W ~ ' ( ' ' / G ^ k jXD M.!.}.I.Y.Y.!.7 ;XAXjX$ _ _ [._ Q _ 6.",
"/ L ' ) _ ` ` ` L ' ' ' 1 q.O.x -.i.s X X @ *.y.0.-.>.;.O 0 ` ` ( W ' ( ( ' ( ' E ` m -X  K.!.P.}.R.K.!.2 ;XcX:XI.3 5.) _ ^ 5.( ",
"^ ^ oX].^ ^ L / ^ _ ) ].1 O.u P w.q.: ^ _ L $ ~ O.q.y.;.; . F ` ^ ! oX].^ ^ L ( / _ 1   Z !.Q.).{.T.M.R.N -XcXzXkX& / ^ Q Q ^ ` ",
"^ ~ ].5.Q ^ L ^ ^ ` _ J @ P x O.-.5 Q ) r.~ ~   < -.;.f >.x H ! ^ E 8.5.^ L ^ L / _ L N Q.K.W.&X+.A S W.R.Z a.uX-X; L Q Q ! 5.^ ",
"( K _ ^ _ L _ _ ^ / F O s a.,.f @ K ] ^ ~ L !   1 x , . x 9 E r.) L ` ^ _ U ^ _ W ^ 2 $Xm.b.E.E.7 1 3 j.R.R.N 7 7 @.2 L J k ( 8.",
"! ^ _ .X5._ ' ^ L _ . f 5 b x : q Q ^ _ ! ~ ~ s a.h f < : H ] .X! / _ .X5.( ' ^ W ( X #.@.H.W.@.A w ^ $ ^.Q.Q.!.m.(.n.3 9.E 5..X",
"^ ` 5._ U L / ^ 6._ X O 5 r O 8 Q Q L r./ ` F <.CX. 8 , F ! Q ! Q _ ' ) L ^ ^ ^ ] ( 2 J.@.n.c..._.B g U R |.E.R.n.+.).j.4 / ~ ! ",
"5.` L L / L K ` ( ` 9 rXu 6 u : _ ) _ / ^ Q / %.LXfXp.3 H ! E Q 5._ Q W ^ L H ` ` ( q V ).....@.K.V g ^ $ A (.Z.J.+.(.d.3 / H Q ",
"5./ L L / 7.L _ ] ' : CXZXrX6 ! 5.' 5./ J 3.( . JXCX*.L ! L F ` 5.) ^ L ) 5.L _ ] ' ] 0 V _.n.).c.w ^ / X b.'.@.@.#.$XV 8 E G ` ",
"^ L L U ' 5.L _ ' ( X rXKXnX8 oX.X X` ` L ` 5 -XeX: E ! _ ^ ! ^ ^ L K W _ 5./ ( ] ( ^ / 8 d.L.u.y U ` 3.j M C ).).M.D.S p F Q ! ",
"^ L ] K ( / ( _ ` ( @ hXuX: ) 6./ ( / _ L ^ O KXa.9 ` ) / W ' W ^ W ] K ( ^ ( ( ' _ _ L L 8 o.%.s K ) _ L H F M B e././.} 5 ' W ",
"W ^ ^ W ( / 8.W _ ` 5 rXs ! 6.Q W W _ W H E 4.KXsX: ) ^ W ! ( F W W ^ W ( / 8.W _ 2./ L L ^ e Z 0 Q ) ~ H W ~ F 0 y a `.7 w / J ",
"] ( ^ K ] ( W G L 9 SXHXX ` ' ) ^ ^ ( E L _ ` +XHXeX8 E E / E ! ] ( ^ L ] ( W G ^ ` L H @ 2 /.m 4 ^ ) L L ( ( / ! E 0 { ;X} q Q ",
"] ` ^ W G ^ J W $ nXLXGX: Q ' Q W E H W ) ` _ ` ` oXQ ` ( ` W / ' ' / W J ^ H L K / K # d./.t.} 0 K K W ( ` ` ` ) XXE a mXS 4 ^ ",
"W 5.` ! j E ] ( ' ^ H / ' ' H H Q ^ ` ' ' ` / r.` ^ ' / ( ( 6.) W ] ` ! D W ] ` ' ^ J H [ e.K J L ^ ` ' ' ( ( 8._ ^ _ F X.0Xd.` ",
"Q 6./ E H / ' ] ^ _ L ` / 6.^ / ` ` ` ( ' [.( ( L ' ) Q E L K E W 6.( E J ( ( ' / ( L ` / 5.^ / ` _ ' / ' [.` ( L ` ) Q L L K W ",
"~ W E ` ] W ^ ^ / _ ^ / ^ ( ( Q ^ ( ( ^ ^ ( E E ( ( W W K L J E ! E E ( 5.Q ^ _ / ^ ^ / / _ / Q ^ ( _ ^ ^ ` E E ` ) Q E K K J E ",
"_ ! ` ) ( ( ( ^ L L K _ L / Q 7.K ( ` ~ ( ( E ! ` ! E E L ) E E ) ! ` ) _ ) / ^ L Q H ` L / W 7.K _ _ ^ ( / K ~ _ ! E K L ` E E ",
"/ ~ 6.) _ ^ _ ^ ^ L ^ ^ L ^ W ^ / ^ / ! Q ~ ~ W ! ~ K .X6.5.^ ) / ~ ] ` ` ! ( / ^ W Q ^ L / ^ ^ ^ ^ ^ ! W ~ E W ^ ~ H .X6.] ^ ( ",
"E ! / ` W ` ( 5.^ / _ ' ' J ^ _ ] 7.` E ^ ' ] ` ` ` _ 7.) L _ ].E ! ( ( E ` ) ] ^ ^ _ ] ' J ^ ) 6.7.` E / ] ] ` ` ` ` 7.` E ) 8.",
"E Q Q W Q W Q L 3.5.) 6.^ ' ( / ` 7.6.~ ` ` ! Q ! 6._ _ L L ) _ E ! Q W Q Q W W 5.5._ 5.^ ' ( ( ` 7.7.W ` ] ! ~ ~ 6.` ( L L ( _ ",
"E W K ` ^ Q Q G 8.( Q ^ ' ' W Q ^ ^ W ) ' ! / ~ W ~ ^ 5.) K ) _ E E E ( / W Q G 7./ Q ^ ] ` L W ^ ^ ! ) ` ! / W W ! Q ] / W / _ ",
"Q E F W _ L 3.5./ ^ ^ Q _ ^ ^ ^ W ^ ( E ] ~ ( ^ ! ( ) 9./ ! K _ W W F ~ ( W ' ' ) Q / Q ( / ^ ^ W ^ ( E 6.! ( ^ ~ ( _ 9.) ! H ) ",
"E H E ^ L ^ L _ _ / L K ( L Q Q J E ( ( ` ) W W ( J ) / E J K K L H K Q W W W ) _ ^ ~ K / W W Q J E ) ) ) ) W ! ( J ( ^ ~ J K ~ ",
"/ Q W / ^ Q Q 3./ ^ Q _ ` ^ 6.` W ( oX` E H E E W W W H ^ L ^ ^ ^ ! E ( ^ W Q ] ^ ! Q _ ` / 6.` W ( oX` H H K L Q W W H ^ L ^ ^ ",
"6.) E ` ` / _ Q L U 5.` ( 7.` L ^ ] r.` ! ! ( ' / ( ! ! / / ^ ` 5._ E ` ' / ) ! L L ] ` / 8.` L ^ 6.r.` ! ! ( ' / ( / Q / ^ ^ _ "
};
