/* XPM */
static char *death_101692725077[] = {
/* columns rows colors chars-per-pixel */
"64 64 215 2 ",
"   c #020101",
".  c #0A0706",
"X  c #0E0B0A",
"o  c #080808",
"O  c #120D0B",
"+  c #1C0C0D",
"@  c #160103",
"#  c #16110C",
"$  c #19130E",
"%  c #170E11",
"&  c #1B1511",
"*  c #1C191A",
"=  c #181615",
"-  c #0A1010",
";  c #250203",
":  c #2B0605",
">  c #241410",
",  c #241B14",
"<  c #241C1B",
"1  c #2D1C19",
"2  c #381A15",
"3  c #320C0B",
"4  c #2E2319",
"5  c #28211A",
"6  c #33251B",
"7  c #37281E",
"8  c #3B291E",
"9  c #002F35",
"0  c #292225",
"q  c #2D2629",
"w  c #282729",
"e  c #3B2C21",
"r  c #30262B",
"t  c #332C2D",
"y  c #3A2425",
"u  c #3F3021",
"i  c #38322E",
"p  c #262B31",
"a  c #372E31",
"s  c #29363B",
"d  c #343335",
"f  c #3C3335",
"g  c #3F3639",
"h  c #3C3A3B",
"j  c #33393C",
"k  c #4B0809",
"l  c #5B0000",
"z  c #530C0A",
"x  c #481717",
"c  c #541314",
"v  c #52100F",
"b  c #710000",
"n  c #780A08",
"m  c #681314",
"M  c #7E1919",
"N  c #6D110D",
"B  c #651E21",
"V  c #412A23",
"C  c #453424",
"Z  c #4A3626",
"A  c #4C3926",
"S  c #4B3728",
"D  c #4E3A2A",
"F  c #543E2C",
"G  c #583F2C",
"H  c #433939",
"J  c #512B2E",
"K  c #652125",
"L  c #7A2224",
"P  c #763838",
"I  c #56402E",
"U  c #5A422E",
"Y  c #5D4431",
"T  c #5E4834",
"R  c #584637",
"E  c #614633",
"W  c #644935",
"Q  c #694D37",
"!  c #664C38",
"~  c #6A4E39",
"^  c #6E513B",
"/  c #72543D",
"(  c #73583F",
")  c #383E42",
"_  c #233F42",
"`  c #453C42",
"'  c #493D45",
"]  c #603F41",
"[  c #3A5458",
"{  c #34494D",
"}  c #454545",
"|  c #4D4445",
" . c #4A4C4D",
".. c #454B4C",
"X. c #544A4B",
"o. c #594D4E",
"O. c #514749",
"+. c #4B4551",
"@. c #5A4F50",
"#. c #534856",
"$. c #4B5455",
"%. c #48575A",
"&. c #555454",
"*. c #5D5354",
"=. c #5E5B5B",
"-. c #694446",
";. c #6E5541",
":. c #655546",
">. c #745641",
",. c #765943",
"<. c #7A5B44",
"1. c #765C4A",
"2. c #7D5D48",
"3. c #645A5B",
"4. c #6A5E5F",
"5. c #605657",
"6. c #704243",
"7. c #7D614A",
"8. c #6B5F61",
"9. c #725E78",
"0. c #5E6163",
"q. c #587378",
"w. c #646566",
"e. c #6A6362",
"r. c #75667C",
"t. c #6B7476",
"y. c #7B7C7D",
"u. c #747578",
"i. c #6F696C",
"p. c #830C08",
"a. c #92130C",
"s. c #891A17",
"d. c #961713",
"f. c #8C0B08",
"g. c #A21D18",
"h. c #A91B15",
"j. c #BA1A12",
"k. c #A5211C",
"l. c #B5231D",
"z. c #831F21",
"x. c #8A2626",
"c. c #982728",
"v. c #A42321",
"b. c #A12D2E",
"n. c #AC2F2C",
"m. c #C21C15",
"M. c #FF1C0E",
"N. c #C8221B",
"B. c #DD2319",
"V. c #D5251D",
"C. c #E9251A",
"Z. c #F52215",
"A. c #FE2214",
"S. c #F5261A",
"D. c #FE2A1D",
"F. c #FB271A",
"G. c #C62822",
"H. c #FB2D23",
"J. c #E92D24",
"K. c #8A3E40",
"L. c #815F47",
"P. c #805F49",
"I. c #9C4843",
"U. c #83634C",
"Y. c #876751",
"T. c #876A55",
"R. c #8B6B53",
"E. c #916E51",
"W. c #93735B",
"Q. c #946367",
"!. c #EF5C58",
"~. c #FF827C",
"^. c #7B7880",
"/. c #7B6C82",
"(. c #937A9C",
"). c #86778C",
"_. c #738383",
"`. c #759FA2",
"'. c #888589",
"]. c #97889D",
"[. c #96979C",
"{. c #8C9697",
"}. c #9D87A5",
"|. c #9A9AA1",
" X c #A28AAC",
".X c #AC95B6",
"XX c #AA9DB4",
"oX c #8CA5A9",
"OX c #A9A5AC",
"+X c #A7BABE",
"@X c #B0B3B7",
"#X c #CFA9A9",
"$X c #BDA8C7",
"%X c #B9B8C1",
"&X c #C3B7CD",
"*X c #BDC4C6",
"=X c #C5C6C5",
"-X c #CCCCCC",
";X c #C3C3CB",
":X c #CDCCD7",
">X c #D1CED8",
",X c #D1D3D3",
"<X c #D6D3DF",
"1X c #C4D2D2",
"2X c #DEDAE9",
"3X c #D7C5E3",
"4X c #E4DFE6",
"5X c #DCE4E8",
"6X c #E6E7E9",
"7X c #EAEDF2",
"8X c #EBE7F6",
"9X c #F9F3FD",
"0X c #FEFFFF",
"qX c #F6F7FA",
"wX c #EAF6FB",
/* pixels */
"2.<.A ^ ^ Y E U I W Q W U G U F / ^ Q E Q Y ~ E E G E G E U W Q 2.2.A Q ^ E E U F W ~ E U G U F ^ / W Y Q Y ~ W E G Y Y E U W Q ",
"^ ^ Q W E U E I I U U Y E U G E Q ^ Q E C Q E.^ U.W W G E F ~ Q ^ ^ Q Q E Y E U G G U E W U G Y ^ ~ ~ E C Q E.~ P.W E U W G / W ",
"Q E Q / ^ C E ^ Q ^ W A / Q ^ Y Y U U Q Q Q Y ~ Q G G F Y F ~ Q Q E Q / ^ C E ^ Q / W Z ^ ~ / E Y U Y Q Q ~ Y ~ ~ I G I Y F Q Q ",
"U ^ ^ / U.U E ~ E W U.F ( Q Q E ^ Q ^ / ( Q ~ Y ~ ~ >.^ ~ ~ T ! U ^ ^ / U.U E Q E W L.F ,.Q W W / Q ~ / ( ~ Q E ~ 6.^ ^ ! ^ Y Q ",
"E Q E Q I C G E E E U U E U E / ^ ( Q Q W U W W ~ ^ / Q G W F F Y Q Y ^ I C U U E E G G U E E / / / Q Q E G Q E ~ ^ / Q E W F D ",
"Y E G U W U U F E U E Q Q / E E W W U ( / W U I W ;.W W ! Q Y W Y Y U Y W U U I E E W Q Q Q E E E Q U / / E U G W ^ W E ! E Y ! ",
"^ U U ( ~ / / W A E Q ^ Q Q W Q ^ E W ! / E E Y W ^ Q L.~ G ~ <.^ U U ( Q / ^ W Z E Q Q Q / W ^ ^ E Q Q ( E E E Q ^ Q L.~ Y ! ,.",
"W U ( Q ~ ~ ~ / G / / U.( / ^ U.D <.>.U U E T ^ / L.>.Q ~ ! 6./ W U / Q Q ^ ^ ^ G / / L.( / ^ Y.A ( ( E G E Q Q ^ L.,.Q ~ ! ;.~ ",
"E R W.P.G W G ! Y Q Q 2./ ( ( ( U ^ <.<.W I ^ ^ U.! W E Y Y E ^ W Y W.U.E E G ~ E ^ ! 2.^ / ( / U ^ 7.( ! I ~ ^ P.Q W E Y Y E ^ ",
"W G P.<.G W G G E ^ Q / ( ( Q / U ( ( W 7.U ! ,.W.E W Y Y T >.E Y U L.( E G E G W 6.~ >.<.( Q / U / ( ! 7.I ! >.W.W W R Y Y >.W ",
"! F ~ W 6.E E Q Y Q Q / ^ ^ / / T Q <.E Y F ^ ~ ^ W Y ! D u W 7.Q F / E Q G W Q Y W ~ ^ / ^ / >.Y ~ ,.W Y I ^ ~ ^ E Y W D e Q 2.",
"E E ~ R.<.~ ;.E U ^ Y Q ^ W 2.L.D Y E Q T Y W ,.W T U T T.I >.T.Y W ~ Y.>.Q ;.E U ~ Y ~ ~ E 1.P.D U T ~ T I ^ >.W W Y Y T.R >.T.",
"Y ~ ;.~ G E E E <.~ D Y W E 1.E Y Y I U.W ~ I U D 2.^ >.^ G 1 w 5 * & T U E E Y <.~ F G W Y 1.E E U U U.W Q F Y D <.;.>./ E T T ",
">.~ G G E G F ^ Q ;.2.G G Y E W ^ E ~ E T Y / <.T 1./ R < p |.4X>X2X).d < F F ~ ~ ^ 1.Y R Y E W ~ W ^ E E T / <.W ,.>.E T E D Y ",
">.! E G ! >.G Q >.>.>.>.E D >.>.>./ >.E A >./ Q W / W e ' 9X$X}..X5X8X0X|.0 G Q ( / >.>.Y S >.,./ / ( E S >.^ ! W ;.W Y E F C ^ ",
"E G G E ~ >.W W ^ ! E W E Q Y.W.Y.Y.^ ^ I / <.U E U U H %X3X(.(.}.2X7XwX9X' V Q / Q E ! Y Q Y.W.Y.U./ ^ G / ,.T E Y E E ~ E T E ",
"E F ( G Q E ~ ~ ^ ~ W U G W <./ W ! ! ~ G ~ ;.Y Y Y C } './..X}.$X0X:X&X0X@Xi Y ;.Q Q G G Q >.>.W ! Q ~ G W ~ Y Y Y / Q W Y / Y ",
"G Y E U Q E 2.Y ! ^ E E U ^ >.Y F E ! G D G Y G Y ^ G } /.9..X/.+.^.2X].[.0Xy.7 Q ~ E Y G ^ >.Y U Y ! Y D U Y Y U ~ ~ E Y E W C ",
",.~ Y G <.W I Z E ^ Y U U ^ ( ~ Y Y Q G G ~ ~ W W ~ # j <X&X}.8.    0X%Xr.9X#.1 E ^ Y Y G >./ Q Y Y Q F G ~ ^ E W ~ Y G F W G R ",
"/ ^ W U A E D F F W Y U W Y / Y E F F G ~ ~ ^ ~ E < %   [.8X(.(.h   } &X9X[.< S F ! E F W Y / E Y F F U Q ~ ^ ^ W E.W ^ ~ ~ Y W ",
"Y ;.^ U u U / ^ / G F W ^ / D D U E ^ ( / ~ Q P.= r o ..3X.X}. X}.|.'.:X0Xt.S ~ / E S W / / S S Y E ^ / / ^ Q P.~ E / W Q W <.^ ",
"Y ,.! I A W ^ / ! ~ G 6.W ,.E W / ^ ^ W / 7 + O o a q f p #.$X(. XqX0XqX8X' X F E Q F ^ Q ,.E Q / ~ / W / <.~ ~ G ^ ! Y G F D I ",
"U U U ^ ( U E W ! W E ! W Q Q Y E ^ ~ E 4 d.v.L y p s 0 + w /..X$X8X0XqXu.o J > Z W W W W Q Q Y E ~ ~ E Y ^ U I ^ W Y U F I D I ",
"~ T ^ Q ~ Q Q E G G F ^ G W U <.D Q E 1 s.G.V.S.B.L y g &.&.f |.>X;X%X#.* _ x.A.: e C ~ U W U <.F Q ~ E Q W F Y ^ Y I F F ~ U I ",
"T R ,.! ~ Y ^ E E G U W G E U E E W C x b.N.Z.C.Z.B.x.c ) +.$.| ` w   X 5.{ h.F.v : : U I W U Y E E W T R Y R I W R I R./ ( W W ",
"U Y W ^ U ^ Q ( W W ^ / / S W ~ ( ( 4 @ x.l.H.D.S.G.L c.h.s.j $.o.a 0 t 0.-.d.j.k.H.H.c A 6 I Q ( <.^ I T ^ ( ( ^ ~ ^ ,.! I Q 7.",
"I U T Y Y Y Y U ;.( ~ <.E / Q Q ^ 8 n k.k   l p.k.x K g.A.A.g.s %.3.X.' [ P p.: V.j.b l 3 z O U / <.<.U ^ / Y Y Y ,.^ ^ F G ~ ^ ",
"I I I ^ E U Y Z <.W U E >./ G U > N F.f.x _.{ q.y c c p.D.B.A.g.s $.*.3.) l.a.@ n   `.t.@ K.#Xi G E Y ! ^ T W U U Y Y ;.! I W ~ ",
"Y I C U ~ I ^ >.Q Y E Y ~ W E > @ h.b 9 1X0Xy.%.- v x.m j.S.B.A.v.%.&.[ ] A.z + M k {.wX[.q.*X6X5 T W I ( Y ! E Y E ! 1.W R F ~ ",
"I I F T U Y G W ~ E Y F ! F U + N : H 5X6X*X=X&.    x v 3 m.D.C.A.n.[ -.S.H.3 @ x :   t.0X$.o 0Xt.F ! ! ! ~ Y T ~ D ^ E I D F I ",
"T T U E T Y Y >.W T Y ~ ~ W ,.: !.oX+X0X5X0X0X7X* 6 @ x.m m N m N g.X.6.j.k 5 G O oX=X} y.-X&.u.u.^ W.^ I D F I Y U U D E G Y W ",
"( ! I ^ ^ W ~ E I F >.~ W 2.^ : !.0X*X0X0X0X5X} U W 8 x b.K d.j.h.m.N.J.M > ~ T D } =.h w.0X'.  e ,.<./ E T W / W W E Y W W E ~ ",
"7.L.A ^ ^ T Y Y U E ^ E G G U ; !.qX*X6X7X&.0 F E G F : c.x.G.F.H.C.Z.C.x 7 E G G Y U w <X,Xy., ^ ^ Q E W E ^ W E G G E E G ! Q ",
"Q Q Q Q Y Y E G G U G E W U F > l Q.+X'.i F Y.~ P.E y 1 x.N.l.l.B.B.F.h.> E E G U G F h |.# 4 W ^ ^ Q E C Q E.Q P.W W G W G ^ W ",
"Q W Q / ^ C E ^ Q / E Z / ~ ^ G $ $ # $ A Q Y ~ Q S   p y B v.v.N.C.S.a.4 C E / Q / Y O 6 ^ / Y U U Y Q W ^ Y Q ~ G F F Y F ~ Q ",
"U ^ ^ ^ U.U E Q E W L.F ( ~ Q E / Q ~ / ( ~ ~ Y ~ 7 q ` ) p y x.m.M.C.V & F E ! E W 2.F ( Q W E / Q ^ ^ ( ~ Q Y ^ ~ >.^ ~ ~ Y ~ ",
"E Q E Q G C U Y E Y U U E U Y ^ / / Q E W G ! E 6 t 8.5.5.O.p J ] n.I.... . 6 Y E U G G Y U E / / / Q Q W U Q E ^ ~ >.Q E W D F ",
"U E U Y W U Y F E Y W W ~ / Y Q Q Q G ( / W Y 1 t 8.*.o.X.3.f d =.%.%.X.q t d $ E Y Q Q Q ^ E E W Q U ( / E U U W ^ W W Q W R W ",
"^ U U ( ~ / / W Z E ~ ^ Q ~ W ~ ^ E Q Q / E 6 r 8.*.o.@.o.@.X.r O.3.O.a X.8.e.O.$ E ^ Q Q ^ W ^ ^ E Q Q / E E E W ^ Q L.~ Y Q >.",
"W U ^ Q ~ ~ ~ / G / / <.<./ ~ U.A ( / E I E . @.8.| H @.&.*.3.H a f f O.5.@.o.8.i + / L.( / ^ Y.A ( ( U G E W ^ / L.>.! ~ W >.~ ",
"W T W.U.Y E Y E E ~ ! 2./ ( >.>.U ^ <.,.Q F # | &.f | *.5.5.` r 0 q O.3.*.*.*.*.` g , 2.^ / >./ U ^ 7.( W I ~ ^ P.Q E E G E E ^ ",
"Y U U.>.U E G E E ~ ~ / ,.,.Q / U ( / Q L.Y # r r a 3.*.5.r . . . % t H o.O.X.*.q | - ;.<.( Q / U / ( ! 7.R ! >.W.E ! E W R >.W ",
"Q G ^ E ~ G W Q Y Q Q / ^ / / / E Q ( E Y # * O.g H e.t O , E ,.E C X .     0 0 X = # / ^ ^ / / Y ^ ( W Y I ^ ~ ^ E E ! D e ! 2.",
"E E Q Y.>.~ ;.E U ~ Y ~ ^ E <.P.A E W E i h * H H g t 6 Y.I >.T.T E ~ ~ = d q < <   F Q ~ W 1.P.D U W ! T I ~ >.E W G R T.G >.T.",
"T ^ >.6.G G W E <.~ D G E Y 2.E E Y F e %XOX  = * O e / ^ W U T T ~ / F '.;X  q q % D G W E 1.E Y Y U U.W Q F Y D <.;.>.>.W R T ",
">.~ E G ! G F ^ ~ ^ 2.Y R Y T W Q W ^ 4 @X'.  % r X >.R T T I Y >.~ E V u.6X'.&.& ~ 1.R R G W W ^ E Q E E T >.<.W >.>.E T W D Y ",
"/ ! G G W >.G ~ >.>.>.>.Y F >.>./ / >.6 OX-X'.@X< u W Y T G C ^ >.! Y S w 0X,XH / ^ ,.>.Y D >.,.( / ( W S >.~ Q ! ^ W Y E F C ^ ",
"E F G G ^ >.E ! ^ ! W W Y W Y.W.Y.Y.^ 7 u.qX0X[.8 E W E ! E T T W G S i [.-Xd C ^ ~ W W E Q Y.W.Y.U./ ^ F >.<.Y E T E E ~ W Y E ",
"E U / F Q W ~ Q ^ Q Q G G Q ( ( W ! ! 7 &.-X| 6 U Y / ~ W U / U E U F =.0Xw.e Y ~ ! W G G W <.>.W W ! ~ F ~ ~ Y Y Y / ~ W Y / Y ",
"U Y E U Q W 2.U ~ ^ E T U ^ ( E G E ~ 6 w.u.7 U U ^ ~ E Y Y W Z U Y Z | 0Xw.# Z ~ ;.W W G / >.G G E Q Y F G Y U G ~ ~ W Y Y W C ",
"( ^ E F ( Q I A E ^ Y Y G ;./ Q E U u 0.6Xh Y E ~ ~ U G F W U U ( ^ C { 0X7X=X} S ;.G Y G >.>.! Y Y Q F F ~ ~ W ! ~ Y G F W G Y ",
"( ^ E U A E A U F E Y I W Y ^ E E 8 &.0XqX .G ^ ! E.W ~ ! ^ Y W / ^ Y R :.7.;.R Z W E G Q G ^ E E F F G Q ^ ^ ^ W E.W ~ ~ ~ Y W ",
"U / ^ T u I ( Q >.G D E ^ >.S D U E ^ / ^ ^ W <.~ Y / W Q ! <.~ U ;.^ T V U / ^ / E D E ;.^ D F Y E ^ / / ^ Q P.^ Y / W ~ ! <.! ",
"U ,.! I I T ^ ( ! ~ G ^ W <.E ! ^ ^ / W / 2.^ ^ G / ! Y G F D I U ,.W U F W ^ ( W ~ G / W <.E W / ~ ^ Q / <.~ ~ G ^ ~ Y F F D U ",
"Y U U ~ ( U T W ! W E W E Q W G E ~ ^ E Y ^ I I ~ ! Y Y G F D I U U R ~ >.G E ! W ! E E E Q W E E ~ ~ E E ^ F F ~ ! U I F I D I ",
"~ T ~ ~ Q Q W T G G F ^ G ~ G L.F Q Q T Q W I Y ^ Y I F F ! Y I ! T ^ ! ~ Q ! E G G D ^ G Q G <.F Q ~ Y Q W F T ^ Y I I F ~ U U ",
"W R ,.! ^ U ^ E ! G G W G W E E E E W T Y Y R U E R F R.<.>.W ! W R ( ~ ^ T ^ T E G Y E G W Y E E T W T U R I I W Y I R./ ( W W ",
"I Y W ^ U ^ Q / E W ^ / / S E Q ( <.^ I E ^ >.^ ^ ^ ! ,.~ F Q 2.I Y W ~ I ^ Q ( E W ~ ( / Z W ~ ( <.^ I E ( ;.( ~ ~ ! 7.! I Q 7.",
"I Y T U T U Y U >.>.~ 1.E >.Q W / <.,.Y ^ ;.T Y Y ,.;.Q G F Q ~ I Y Y U T U U U ;./ Q <.E / Q W / <.,.Y ( ^ Y Y T ,.~ ^ U F Q ^ ",
"I Y F ^ E U Y A <.W G W / >.G G U E T W >.T E Y Y Y Y >.! G W ~ I Y I ^ E U Y A 2.W Y E ( / G U Y E Y ~ ;.Y W Y Y Y Y ;.! I E ^ ",
"Y I C U 6.Y ^ ^ W E W G Q W E E U E W I ( T W W Y W ! 1.W R F ~ Y I C Y Q U ^ ( ! Y W R Q W E W U E ! I ( Y ! E Y E ! 1.W R F ~ ",
"I D I E E G Y W ~ W G F ! G Y Y A I W ^ ! ~ U U ! D ~ W Y C F I F D F E U Y U W ^ E G F W U U U A F ! ! ! ~ Y Y ^ D Q E I S F I ",
"E T U W G E G ;.W Y E ~ ^ E ,.~ U Q W.^ I D I I Y U U D E G E E E T U W E Y Y ^ E E Y ~ ^ W >.^ U ^ W.^ I D F I Y U U D E G T E ",
">.! I ~ ;.W ;.E G F >.^ W 2.^ G E ( 7.( Y T ! / W W E R W ! E ^ >.~ I ~ / W ~ E G F ( ^ W 2.^ G E >.7./ E T W ^ W Q E Y W W W ~ "
};
