/* XPM */
static char *death_91692725077[] = {
/* columns rows colors chars-per-pixel */
"64 64 219 2 ",
"   c #010101",
".  c #0A0506",
"X  c #0C0906",
"o  c #0E0B0B",
"O  c #06050A",
"+  c #120D0A",
"@  c #1E0102",
"#  c #16110D",
"$  c #1B130E",
"%  c #02181C",
"&  c #141313",
"*  c #1D1611",
"=  c #1D1B1C",
"-  c #1B1817",
";  c #3E0C0C",
":  c #201712",
">  c #231A13",
",  c #221C1D",
"<  c #271A18",
"1  c #3F1315",
"2  c #2F110F",
"3  c #2D2119",
"4  c #26211D",
"5  c #32251B",
"6  c #3A2A1E",
"7  c #37291D",
"8  c #1E1E22",
"9  c #271F25",
"0  c #371E21",
"q  c #182529",
"w  c #1D3238",
"e  c #242225",
"r  c #2B2424",
"t  c #2E262A",
"y  c #2B2A2A",
"u  c #3D2E21",
"i  c #352B2C",
"p  c #3F3021",
"a  c #2C2D30",
"s  c #352D31",
"d  c #382B30",
"f  c #3B3335",
"g  c #383636",
"h  c #2B3035",
"j  c #430C0D",
"k  c #44181A",
"l  c #59191B",
"z  c #530D0B",
"x  c #660D0C",
"c  c #6C110D",
"v  c #61100A",
"b  c #671515",
"n  c #781514",
"m  c #78100E",
"M  c #462826",
"N  c #572A2B",
"B  c #453324",
"V  c #4A3726",
"C  c #4C3927",
"Z  c #4A3728",
"A  c #4E3A2A",
"S  c #44372E",
"D  c #543E2C",
"F  c #583F2C",
"G  c #443B3E",
"H  c #413739",
"J  c #593032",
"K  c #6E2626",
"L  c #7F2323",
"P  c #76292A",
"I  c #783133",
"U  c #56402E",
"Y  c #5A422E",
"T  c #5D4431",
"R  c #5E4834",
"E  c #614633",
"W  c #644935",
"Q  c #694D37",
"!  c #664C38",
"~  c #6A4E39",
"^  c #6E513B",
"/  c #72543D",
"(  c #73583F",
")  c #3C3F42",
"_  c #463C43",
"`  c #3A4447",
"'  c #244A4F",
"]  c #444243",
"[  c #4D4344",
"{  c #494A4B",
"}  c #514649",
"|  c #554C4D",
" . c #594E4F",
".. c #484E51",
"X. c #5A4F50",
"o. c #57475C",
"O. c #465558",
"+. c #535354",
"@. c #5C5252",
"#. c #5A595C",
"$. c #54504F",
"%. c #684344",
"&. c #6F5441",
"*. c #745641",
"=. c #765942",
"-. c #7B5B44",
";. c #7D5D48",
":. c #765B49",
">. c #615656",
",. c #625758",
"<. c #655B5B",
"1. c #685C5D",
"2. c #774544",
"3. c #7D614A",
"4. c #535761",
"5. c #645667",
"6. c #6A6A6C",
"7. c #6B6265",
"8. c #716768",
"9. c #696A73",
"0. c #756978",
"q. c #787678",
"w. c #89120D",
"e. c #881A17",
"r. c #9A1914",
"t. c #900F0A",
"y. c #BB0100",
"u. c #A81A14",
"i. c #B81D17",
"p. c #AF160F",
"a. c #93211F",
"s. c #A4211E",
"d. c #B0221E",
"f. c #931F20",
"g. c #8B2324",
"h. c #842527",
"j. c #952727",
"k. c #893232",
"l. c #A52826",
"z. c #B82926",
"x. c #AE342D",
"c. c #C51C14",
"v. c #CB1A10",
"b. c #D90000",
"n. c #FD1B0F",
"m. c #E81D11",
"M. c #F91F12",
"N. c #EE120B",
"B. c #CD241B",
"V. c #D6241A",
"C. c #D82016",
"Z. c #E52015",
"A. c #E72419",
"S. c #FF2416",
"D. c #FD251C",
"F. c #F6261A",
"G. c #D22922",
"H. c #D42721",
"J. c #CF2B25",
"K. c #F12C23",
"L. c #FF3122",
"P. c #8F3E40",
"I. c #815F47",
"U. c #805F4A",
"Y. c #83634C",
"T. c #876751",
"R. c #876A55",
"E. c #8B6B52",
"W. c #916E51",
"Q. c #93735B",
"!. c #D85A57",
"~. c #C97D7D",
"^. c #FF756E",
"/. c #7E7984",
"(. c #887291",
"). c #7F8185",
"_. c #86888A",
"`. c #94908F",
"'. c #8C8492",
"]. c #96839D",
"[. c #8F9194",
"{. c #95959B",
"}. c #9B83A5",
"|. c #9E89A6",
" X c #9B9CA1",
".X c #A289AB",
"XX c #A88EB3",
"oX c #AC98B6",
"OX c #A89BB0",
"+X c #94ABAD",
"@X c #A2A3A4",
"#X c #AAABAA",
"$X c #ABABB4",
"%X c #B1A9B9",
"&X c #B5B6BA",
"*X c #C5BCB6",
"=X c #C88A8B",
"-X c #B4B4C3",
";X c #CBBBD6",
":X c #C4BDCF",
">X c #BEC2C0",
",X c #C4C7CA",
"<X c #CEC8D7",
"1X c #CED1D6",
"2X c #D6D6D8",
"3X c #D1C5CF",
"4X c #F2D9DC",
"5X c #DBDCE4",
"6X c #DEDCE8",
"7X c #D9C8E0",
"8X c #DEE1E9",
"9X c #DDFFFF",
"0X c #E9E9F3",
"qX c #F4EDFF",
"wX c #EDF1F7",
"eX c #F3F6FB",
"rX c #FFFFFF",
"tX c #F7F5FB",
"yX c #F5E6E8",
/* pixels */
";.-.C ~ Q E E Y U W Q W F F Y D ^ / Q T Q Y ~ W E F F E E Y W Q ;.-.C Q ^ E E Y F W ~ W F F F D ^ / ~ E Q E ~ E E F F E E F ! ! ",
"^ ^ ~ W E Y E U U Y U E W Y F E ^ Q Q W B Q W.^ U.W ! F E D ^ Q ^ Q Q W E E E U F F F E E T F E Q Q ~ E B Q E.^ U.W E F ! F / W ",
"Q E Q / ^ B W ^ Q ( W V ^ ^ ^ T Y Y Y Q Q Q T ~ ! F F D T D ~ ~ ~ E Q / Q B E ^ Q / W V &.~ / T Y Y T Q W ~ T Q ~ F D F T D Q Q ",
"Y ^ / / Y.Y E ! E W 3.D ( Q W W / Q ^ / ( ^ Q T ^ ~ &./ ! ^ R ! Y / / / Y.Y E Q E W I.F =.Q W W / Q ~ / *.~ Q E / ~ &.^ Q ~ E ~ ",
"E Q E ~ F B F T E E U Y E Y E / ^ / Q Q ! Y ~ E ~ ^ / Q F ! D A T Q E Q Y B Y E E T F F E Y E / / / Q W W F Q W ~ ~ / Q E E D A ",
"Y E F Y W Y T F E Y W Q Q / E E W Q F ( ^ E Y U E ^ Q E ~ W T W E E U Y W Y U U E T W Q Q ^ T W W Q F ( / W Y F Q ^ Q E ! W T W ",
"^ Y Y ( Q ^ ^ W C E Q ^ Q Q E ^ / E ! ! ( E E R Q ^ Q I.~ R ! :.Q Y Y ( Q ^ ^ W C W Q Q Q ^ W ~ ^ E W Q / W E E Q ~ Q I.^ F ~ :.",
"W Y ( Q ~ ^ ^ / F / / I.-./ Q Y.A ( ( Y F W E ^ ^ I.*.Q ~ I &.~ W Y / Q ^ ^ ^ ^ F / / I.( / ^ T.C ( ( E F W W Q ^ I.=.! ~ W &.~ ",
"E E Q.U.E E T W T ^ Q ;.^ ( ( ( Y ^ -.( Q U ^ ^ Y.W W R T R R ^ E R Q.3.! F ! Q E ~ ~ ;./ / / / Y ^ -.( E U ^ ^ Y.Q W E T T E &.",
"E F U.*.T F T T E ^ Q / ( ( Q / Y ( ( ! 3.Y E =.Q.W W T T T *.W W Y I.( F F J W W ~ ~ *.-./ Q / Y ( ( ~ 3.R E =.Q.F W R T T *.W ",
"! D / E ~ F W Q Y Q ^ / ^ / / / R ~ -.E T U ~ ^ ^ R R W A u ! 3.W D / E ~ F ! ~ T Q Q / / ^ &.*.E ~ ( E R U ^ ~ 2.W R W A p W ;.",
"E E ~ E.*.~ ^ W Y Q T Q ^ W ;.I.A T E ~ R Y ~ ( W W T T R.U *.R.R W Q E.*.Q / W F ~ F Q ^ E :.U.A Y R ~ R U ! =.W W T T R.U *.R.",
"R &.^ ! F E E T =.~ A T W E ;.E Y E U Y.W ~ U T A ;.^ *.^ W T R R ~ / W T E E F ;.~ A T ! T :.E E T U Y.W ~ F R A -.^ *.&.W T R ",
"*.~ F F E D J / ~ &.;.F F F E W ~ W Q E T R ^ -.R :.*.R R E A T =.~ T T E D A / ~ ~ :.F R F E ! Q W Q E T T ^ -.W :.*.T R W A T ",
"=.%.E F ! *.F ! *./ *.*.T A *.*.( ^ Y 4 * 3 5 ~ W ^ W T R F B ^ / W T F W *.F ! =.*.*.*.T A *.*.*./ ( W Z =./ W W ^ W T R D B ^ ",
"W F F F ~ *.W W / Q W W E Q R.Q.Y.5 g #X{.{.o.> 7 E E R ~ W T E W F F F ~ *.W Q / Q W W R ! T.Q.T.Y./ / F / =.R E R W W ! W T R ",
"E F ( D Q E ~ Q ^ ~ Q U F Q =.^ e &X-X7X;XqXqX&X0.5 ^ ~ W T / T E Y ( F ~ E ~ Q ~ ! ! F F W -.*.W W ~ ~ F Q ~ T T T / Q W T *.T ",
"Y Y E Y ~ W ;.Y ! ^ E T Y Q / D $.rXoX(.-X6X0XrXqX_ u E T R W B Y Y E Y Q W ;.Y ~ &.E E F / *.F F T %.F D U T Y F ~ ~ W T T W B ",
"( ~ E U ( W Y V E / T Y Y / / 4 {.(.}.(.<X0X5X6XrX X< D D W F T ( Q Y D ( Q U C W &.F R F *.*.Q Y E ^ D U ~ ~ W W ^ T F D W F T ",
"( ^ E Y A T A F A ! T U ! Y / - 6.5.XX}.<XrX5X3XwXrX).V Q ~ T W / / W T C E A U M E E F Q F *.F E U A Y Q Q ^ ^ W W.W ~ ~ ~ T E ",
"Y &.^ R p Y ( D Z Z D E W A r - %X-X}.].5.'.7X$X@XrX/.> ~ W =.~ Y ( ^ R p U A 7 $.g C E / *.A A Y E Q ( / Q Q I.Q E / W ~ W :.~ ",
"R =.! U A W C j c ; 5 M & - &   } 0XXXq.    wX6X(.:X9 O * U U U T =.W U C E # 6.rX$XF / ! =.E W / ^ / W / Y.~ ^ U ^ ! T F F A U ",
"U Y U ~ =.p @ F.L.V.k 1 M H 8 & -X;X|.]._   ` -XqX_.  s y $ > 5 R U U ^ ( Y a rXrX[.W W W Q W Y E ~ ~ E T Q U Y ^ ! Y Y D U A U ",
"! R ^ ~ C 9.!.N.m.j.P z.A.h.8 a #.o.oXXX|./.6.,XrX9.  g h k n c p R ~ ~ Q 5 g 9.1X XA ~ F Q F ;.D Q ~ R Q W U Y ^ T U U U ~ Y U ",
"R R &.C g rX^.b.s.H.e.r.D.m.J `     (.oX}.qXrXrX$XO q M K H.K.z.1 + * # # 6.2X[._.8.T W F W T E E E W T T R T U W Y U T.( ( E ! ",
"Y C # ` &X>X4XI.x M.u.c D.M.N O.} , 9 0.:X8X5X(.& % I A.s.h.g.j.V.y.~.-X).rXrX`.#X#.~ ( / V W Q ( =.^ U R ^ ( ^ ~ ^ ~ 3.~ U Q 3.",
"B { wXeXrX,X X8 X z r.b J.C.N ` 1.[ - f #.+.= O % K S.S.m j B.i.e.D.D.yX9XeXrXwX1X$.Q :.T / Q W ^ 3.=.R ^ &.R T R =.~ ~ F F Q ~ ",
"= eXrXrXrX&Xo B I.A X x J.l.g.d +._ _ X.[ [ ] ` 0 t.D.V.v v.L.i.2 e.y.=X+Xq.,X2X_.u F R ( / F Y T E T ~ ^ R W T Y T R &.W F Q Q ",
"a rX8X0XeX{ T / W E W u z e.i.N ..@.@.@.@.O.' j.p.c B.J.l w.u.k : & + * 4 * > > u T W T ~ W E E Y W W U ( T W E T ! ! :.! R D ! ",
"3 ).&XrXrX6.B Q ~ E F D Z X u.I ..@.@.#.O.%.g.D.v.j h.l.; & > 5 F A F R U Y Y ~ ~ E F D W U Y T C F ! ! ~ ! T T Q A ! W U S D Y ",
"! 5 4 6.6.y B &.W T T ~ / : v.H.` ..@.` 2.m.n.A.n h.h.+ T U E W W E T W E Y R ^ R T T ~ / W -.Q U ^ Q.^ U C D U T Y Y A E F R E ",
"*.^ U B B B R R F D *.&.W * r.F.K O.O.2.F.S.A.m j b : F W W E Q *.~ D ^ ^ W ^ E F F =.^ W -.^ F E =.3.^ R R ! / W Q E T W W E ~ ",
"-.-.C ^ Q E E Y F W ~ W F V & x f.%.} l.w.b x j g.j 3 T E F W W ;.;.C Q Q E E Y F W Q W F F F F ^ ^ Q T ! E ~ W E F T Y W Y W Q ",
"^ ^ Q W E T E U F F F E W Y + r.C.B.B.v.c.n l g.K < T U W F / ~ ~ ^ Q Q E E E U F F F E E T F W Q ^ Q W B ~ E.~ U.W E Y W F / W ",
"^ E Q / ^ B E ^ W / W V / ~ $ C.D.Z.Z.F.A.j.j.L $ F D D T D ~ W Q W Q / Q B E / Q / W V *.~ / Y Y Y Y Q Q ~ T Q ~ F D J T D Q Q ",
"Y ^ / / Y.Y E ~ W W ;.D / F $ C.F.V.A.V.d.h.I l : ~ *.^ ~ ~ R ! Y Q / / Y.Y E Q W W I.D =.Q W E / ~ ~ / *.~ Q T ^ ~ *.^ ! ^ T Q ",
"E Q E Q F B Y T E T F u # o 9 l.n.n.m.i.z.M q , : / / Q W W A D T Q Y ^ Y B Y T E T F F E Y E / / / Q Q Q F Q W ~ / / Q W E D A ",
"Y E Y Y W Y Y D E T > r f [ g a x.x.k.k.k w [ d X F W W W W T W Y E U Y W Y Y U E T W Q Q ^ T W W Q F ( ^ W Y F W ~ W W W W T ! ",
"Q Y Y ( Q ^ / W B > [ 7.,.,. .f ` 4.O.w a >.<. .f - J -.~ R ~ -./ Y Y ( Q ^ ^ W V W Q ^ Q Q W ~ ^ W W W / W E E W / Q I.~ T ! :.",
"W Y ( Q Q / ^ / $ G 7. . . . .G {  .t s @.>.| @.7.,., D ~ W ^ Q W Y ( Q Q ^ ^ / F / / -.-./ ^ T.C ( ( E F E E ^ ^ I.=.Q ~ W / Q ",
"E R Q.Y.E E T : G 8.G G >.| @. .f f e } 1. . . .@.} } 9 B R R ^ W R Q.U.E E T W E ~ ~ ;./ / *./ U ^ -.( E U ^ ^ U.! W T T T E &.",
"E Y I.( Y T T . ,.} f |  . .<. .t e t t [ <.@.|  . . .- . Z *.W E U ;.=.T T F T W ~ ~ *.*.*.Q / Y -.( ! 3.R E =.Q.W ! T T T *.W ",
"! U Q E ~ F Q + [ t H 1.,.1. .y X X + X - [ <.1.<.>.f } e 3 Q 3.W F ^ W Q F W ! T W ~ ^ / / &.*.E Q ( E R U ^ ~ / W T W A u Q ;.",
"R E ^ E.*.Q *.+ } s H >.} G : < A Y W ~ 3 + f [ [ f   f , B *.R.R E Q E.=.~ 2.E F Q E Q ^ E =.U.C E R ~ R U ! =.E E T T R.U *.R.",
"W ~ ^ ~ F E Z # <.| 9 , o * *.R T T F Y.W ~ >   & t -   # U T R T ~ / ~ F E E E ;.~ D F ! R :.E Y Y U Y.W Q F R A -.^ *.&.W T T ",
"*.Q T F ! F X O s t - + A T R W ~ W ~ E E T ^ o f , : o B R U Y *.~ T T W D A / ~ ~ :.F R F E ! ^ W ^ E E T ^ -.W :.*.R R W A T ",
"*.W E F W Z 6._ . 9 9 B T A / =./ / *.W A ( ^ .   5.q.> D A B ^ =.W E F W *.F ! =./ *.*.T A *.*./ / ( W Z =./ W W ^ W T R D B ^ ",
"E D F T ~ + eX0.. d , < E W E.Q.T.T.^ ^ F / ( = @XrX&Xp ~ W E E E F D F ~ *.E ~ / Q W W R ! T.Q.T.T./ ~ D / =.R E E E W ! W R R ",
"E Y ( F ^ : #.1X2X@X* A U Q ( / Q W Q ~ F ! ^ - rX#Xu R W T ( Y E U / D ~ W ~ Q ~ ~ W F F W -.*.W W W &.F ~ ~ T T T *.Q W T / T ",
"Y T E Y Q > g @X_.S T E Y / ( E U Y Q T A D F e $X+.u R T T W B Y Y E Y Q E ;.Y ~ ~ E E F / *.F F E ~ F A F T T F ~ ~ W T T W B ",
"( ~ E D ( > q.`.# ~ R Y Y ^ / Q Y E Q U D ~ 4 0X`.< Y F U E Y T ( ^ E F ( Q Y V W *.T T F / &.! T T ~ D F ~ ~ W W ~ T F D W F T ",
"/ ^ E Y B y @Xa C Q Y U E T / E E U A Y ~ ~ & rX1Xy A ^ Q Q R E / / W Y V E C F D E T F W E / E E D D F ~ ^ ~ ^ W W.W ~ ! ~ T W ",
"Y &.^ V a 5XrX= / E Z E / / A D Y E ^ / ^ ^ 5 *X3X`.p W ~ W -.~ Y ( ^ T M U ( ^ / T A W *.*.A A T E ~ / / ~ W Y.~ T / ! ~ W :.^ ",
"Y :.W u q.*X*XC E ~ F / W =.E W / ^ ^ Q / -.^ ! U ^ Q T U U A Y Y =.~ U A W ^ ( W Q D / W *.E W / ~ / W / I.~ ~ F ^ Q T F F A U ",
"Y U U ^ ( Y E E W W W W E Q W T E Q ~ E E ^ U U Q Q E U U U C U Y U U ~ =.F E W ! ! E W W Q W E E ~ ~ E E ~ F U ^ ! Y U D D A U ",
"^ R ^ ~ Q Q Q R F F D ~ F W T -.A Q ^ R ! ! U R ^ T U U D Q U U ~ R ^ ~ Q ~ ! E F F A ~ F Q F -.D Q ~ R Q W F T ^ T U U F ^ U U ",
"W U ( ~ ^ Y ^ E W D E W F W Y E E E ! R Y T R U ! U U E.=.*.W ! R R ( ~ ~ T ^ E E F T W F W Y E E E E R R T T U W Y U T.( ( E ! ",
"U R ! ^ Y ^ Q ( W W ~ / ^ V W ~ ( -.^ U W ^ &.^ ~ ~ ~ =.~ D ~ ;.U R W ~ R ~ Q ( W E ~ ( / V W ~ =.-.^ U R ^ ( ^ ~ ^ ~ 3.~ U Q 3.",
"U R R Y Y T T Y &./ ~ =.E *.Q W ^ -.-.Y ^ ^ R T R =.^ Q F D ~ ~ U R R R T T Y Y &./ Q :.E / Q W ^ -.:.Y ^ ( R T R =.~ ~ F F Q ~ ",
"U Y A ^ W Y T B ;.W T E / / Y F E E Y ! *.R W T U R R *.%.F W ~ U U C ~ E Y Y C ;.W T T / / F Y R E T ~ ^ T ! Y Y T R &.W F W ^ ",
"T U B Y ~ F ^ *.! T W F ~ W E W U E ! U ( R W E R W ~ :.W T A ~ T U B T ~ Y ^ ( W T W T Q W E W Y E ! U ( T W E T W ! :.W R D ~ ",
"U A D W T E T W ~ W F D W F T T C U ! ~ ~ ~ Y Y ~ V ~ R T Z D U F A D E Y R Y W ~ E T D W F T Y C U ! ! ~ ! Y R ~ A ! W U S D U ",
"E R Y W J W R &.W E E ~ ~ W =.~ Y ~ Q.^ U C U U T Y U A E F T W W R Y ! E Y R ^ W R T ~ ^ W -.~ Y Q Q.^ U A D U T Y Y A E F R E ",
"*.~ U ~ ^ E &.E F A *.^ W -./ F E ( 3.^ R R Q / W ! R R W W E ~ *.Q U Q / W ~ R F F ( ^ W ;.^ F E =.3.^ R R ! ^ W Q W T W W E ~ "
};
