/* XPM */
static char *death_41692725076[] = {
/* columns rows colors chars-per-pixel */
"64 64 256 2 ",
"   c #010101",
".  c #0C0B0B",
"X  c #090706",
"o  c #120D0B",
"O  c #170505",
"+  c #1B130E",
"@  c #1A1207",
"#  c #160E12",
"$  c #0C1419",
"%  c #121214",
"&  c #1C1512",
"*  c #1C1A1B",
"=  c #171719",
"-  c #040712",
";  c #290A07",
":  c #29160B",
">  c #241B13",
",  c #291E15",
"<  c #231C1B",
"1  c #361916",
"2  c #320B0E",
"3  c #2D2219",
"4  c #2D2216",
"5  c #32251B",
"6  c #3A2B1E",
"7  c #38271B",
"8  c #372E11",
"9  c #181B24",
"0  c #09152B",
"q  c #271F23",
"w  c #1C2329",
"e  c #0C2D36",
"r  c #2A2628",
"t  c #3C2C21",
"y  c #322A2A",
"u  c #3E3021",
"i  c #3B322C",
"p  c #252C35",
"a  c #2F2C32",
"s  c #362E32",
"d  c #29323A",
"f  c #3B3235",
"g  c #393739",
"h  c #2E3324",
"j  c #471314",
"k  c #4F110D",
"l  c #691714",
"z  c #781A19",
"x  c #700F0D",
"c  c #453216",
"v  c #503010",
"b  c #77291C",
"n  c #4A1C2F",
"m  c #781A2F",
"M  c #453324",
"N  c #4A3726",
"B  c #4D3A2A",
"V  c #4B3828",
"C  c #543E2C",
"Z  c #583F2C",
"A  c #473B3A",
"S  c #4E332A",
"D  c #782629",
"F  c #6D2A2D",
"G  c #3D4521",
"H  c #6B4718",
"J  c #56412E",
"K  c #5A422E",
"L  c #5E4522",
"P  c #5D4431",
"I  c #5E4835",
"U  c #584333",
"Y  c #535D2F",
"T  c #674A2E",
"R  c #77552A",
"E  c #614633",
"W  c #644935",
"Q  c #694D37",
"!  c #664C38",
"~  c #6A4E39",
"^  c #6D513B",
"/  c #6F5033",
"(  c #72543D",
")  c #78593C",
"_  c #735037",
"`  c #78663B",
"'  c #182D45",
"]  c #2B3A44",
"[  c #3A3155",
"{  c #243F63",
"}  c #262458",
"|  c #4C314D",
" . c #712B4D",
".. c #612B54",
"X. c #384448",
"o. c #384C56",
"O. c #38517E",
"+. c #4B4547",
"@. c #554A4B",
"#. c #434D57",
"$. c #5C5252",
"%. c #57565A",
"&. c #4E5455",
"*. c #6E5441",
"=. c #745641",
"-. c #765943",
";. c #7A5B44",
":. c #7D5E49",
">. c #755B49",
",. c #625556",
"<. c #655A5B",
"1. c #6A4749",
"2. c #7C614B",
"3. c #6D694A",
"4. c #545372",
"5. c #6C5D69",
"6. c #5A636E",
"7. c #686668",
"8. c #777672",
"9. c #881B17",
"0. c #971813",
"q. c #89110C",
"w. c #B81C17",
"e. c #AE170F",
"r. c #8E251B",
"t. c #872626",
"y. c #9B2929",
"u. c #8B2F35",
"i. c #B02D2F",
"p. c #A61421",
"a. c #CF1711",
"s. c #FD1711",
"d. c #CB221A",
"f. c #DB2319",
"g. c #C9331E",
"h. c #E9251A",
"j. c #FD2619",
"k. c #C92D26",
"l. c #F0322A",
"z. c #CB1F36",
"x. c #8E5319",
"c. c #B7651B",
"v. c #865634",
"b. c #A95137",
"n. c #876A3D",
"m. c #8D7135",
"M. c #A47639",
"N. c #AC6E2D",
"B. c #AD5A18",
"V. c #CD4F1D",
"C. c #FA4A19",
"Z. c #D66F1B",
"A. c #F77519",
"S. c #D54E34",
"D. c #F95834",
"F. c #EF4C2D",
"G. c #D1752C",
"H. c #FF6936",
"J. c #FE7836",
"K. c #F76F2B",
"L. c #8E314D",
"P. c #A8364A",
"I. c #891F58",
"U. c #C63B46",
"Y. c #805F4A",
"T. c #835C48",
"R. c #964449",
"E. c #AB4A45",
"W. c #83634B",
"Q. c #896A53",
"!. c #93735B",
"~. c #927549",
"^. c #B97156",
"/. c #B1746B",
"(. c #976771",
"). c #D0534B",
"_. c #D3684D",
"`. c #A9823A",
"'. c #F7801E",
"]. c #C88836",
"[. c #CE9139",
"{. c #FE8A22",
"}. c #F58823",
"|. c #FE9527",
" X c #EF8C31",
".X c #FEA93D",
"XX c #FFB034",
"oX c #FFC03B",
"OX c #9B8947",
"+X c #AB914D",
"@X c #B7A54F",
"#X c #988677",
"$X c #B29573",
"%X c #D09943",
"&X c #F39150",
"*X c #CCAC55",
"=X c #D3AF50",
"-X c #F5B34E",
";X c #CE926B",
":X c #D5B56C",
">X c #F5A66F",
",X c #E28C60",
"<X c #FFDC49",
"1X c #FFD647",
"2X c #FEC853",
"3X c #FED156",
"4X c #FFCE41",
"5X c #FFE74D",
"6X c #FFEB53",
"7X c #FFF353",
"8X c #FBDC65",
"9X c #EBCB70",
"0X c #FDEF70",
"qX c #D7C065",
"wX c #195DA1",
"eX c #587290",
"rX c #7C7682",
"tX c #437CB7",
"yX c #476BC9",
"uX c #2F4DD1",
"iX c #8E7394",
"pX c #997DA3",
"aX c #A25288",
"sX c #C96185",
"dX c #7C8EA5",
"fX c #86868B",
"gX c #8B8B91",
"hX c #969699",
"jX c #938B8F",
"kX c #A9AE91",
"lX c #9B86A4",
"zX c #9799A4",
"xX c #A996B3",
"cX c #A6A5AB",
"vX c #B2ABB9",
"bX c #AEB3B6",
"nX c #A48F88",
"mX c #D5B099",
"MX c #F3BB88",
"NX c #E79FAA",
"BX c #FCCC91",
"VX c #FAEDB9",
"CX c #E8D59A",
"ZX c #9494D2",
"AX c #C2B2CC",
"SX c #D3D4D8",
"DX c #C7C6D0",
"FX c #DBDBE5",
"GX c #DDCCEA",
"HX c #E9D9F0",
"JX c #DCEEF3",
"KX c #FEFEFE",
"LX c #F4F4FA",
"PX c #EEEAF1",
"IX c #F9EDCA",
"UX c #B8DCDC",
/* pixels */
":.;.V ~ ~ P I K J W Q W Z Z K C ( ( Q E W K ( W E Z E Z E Z W ! T.:.N ~ ~ I E K C W ~ W Z Z Z C _ ^ Q P ! E ~ Q E Z P Z W Z W ! ",
"^ ^ Q Q T E I J J K Z E W K C E ~ ~ Q E N Q Q.~ Y.W W Z W C ~ Q ^ ^ Q Q T K T J C Z K E W K C E ~ ^ Q E M Q Q.~ T.W E Z ! Z ^ ! ",
"~ T Q ( ^ M E ^ W ( W N ^ _ ( K K K P ! Q ~ P ~ ! C Z Z P C ~ ~ Q W Q ( ^ M I ^ Q ( W N *.~ ( E K K E Q Q ~ P ! ~ C C C P C ~ Q ",
"K ~ _ ( W.K E ~ T W :.C -.Q W W ( Q ~ =.) ~ ! P ~ ~ =.*.*.~ U ~ K ~ _ ( W.K E ~ W W Y.C ) ! Q E ( Q ~ ( =.~ ! E ( ~ =._ ~ ~ E ~ ",
"I Q P ^ J M Z P E E J J E K E ( ( ( Q W Q K Q W ~ ( ( Q E E Z C P W E ! J c P P E K Z Z E K E _ _ ) Q W W K ! W ~ ~ _ Q W E C B ",
"K P C P W K P C E K W Q Q _ T E W Q L =.^ E J J ! ~ W W ! W Z E P W C P W K P C E E W Q Q ^ E W E Q Z >.( E K K ! ( ! W W W U ! ",
"( K P =.Q ^ ( W N W ^ ~ Q ^ W ^ ^ P Q ! ( W I P ! ~ ~ T._ Z ~ ;.~ K P =.~ ^ ^ W V W ~ ~ Q _ W ^ ^ P Q ! ) E E E W _ Q T.~ E ! -.",
"W K ^ ~ ~ ^ ~ ( C ( ( -.-.^ ^ W.B =.) K J E W ^ _ T.=.! ~ ! *.~ W P ( ~ ~ ^ ^ ^ C ( ( ;.-.( ~ W.B ) ( P C E E ^ ~ T.=.! ~ W =.Q ",
"W P !.T.E ! Z ! E ^ ! :.( ( -.( K ^ ;.-.Q J ^ ^ W.W W W K I E ^ W P !.Y.! E Z ~ E ^ Q :.( ( =.-.K ^ 2.) W J ^ ^ W.! W E P P E ( ",
"W P T.=.Z Z E Z W ~ Q ( -.) Q ( P ) ( ! 2.J W -.!.W W P I P =.! E J Y.-.Z Z E Z ! 1.~ ( -.) W ( K ( ( Q 2.K W -.!.W ! P P P =.E ",
"W C ^ E 1.E E ! P W Q ( ^ ( ( =.I ~ -.I I C ~ ~ ^ I I W V u ! 2.! C ~ W ~ Z W ~ P Q Q _ ( ^ *.=.I ~ 2.+ u J ~ Q ( E I ! V u ! :.",
"P W ^ Q.( Q ( E K ~ E Q ~ W >.:.B K E Q P P Q -.! I J I Q.J *.Q.E W ~ Q.=.! *.E Z ~ E ! ~ W >.:.B P I   5 K Q 3.E E U P Q.U =.Q.",
"P ~ ( ~ Z E W E ;.~ C U W P >.W K P J W.W ^ J I V ;.^ =.( W P I P ~ ( ! Z E I P ;.~ B I W Z =.W K I C o t ~ J J V ;.^ -.*.W U I ",
"-.! P Z E Z B ( ~ ~ >.Z P Z W W Q & * o % & ! -.! >.=.I P W B P -.~ E Z W C C ( ~ ^ :.Z @.Z W W ~ T 6   M U ^ + J >.=.P P ! B P ",
"=.! E Z W =.Z Q -.( -.=.P B ! y a vXFXSXPXhXh 3 W ^ W P E C M ^ =.Z M M ! 1.U Z ) =.=.=.E S ( -.=.W g u / -.C   C ^ W P P C M ^ ",
"W Z Z Z ^ ( E Q ( ! W W P Q 5 hXKXxXxXPXLXJXKXiX, K W P Q W I E E M . % d ] o.9 M B E W / R ~ >.W.C ` -X X^ X   P W W I ~ W P W ",
"P C ) C Q E ~ ~ ^ Q Q J C C g bXAXiXlXFXFXFXLXLXr u ^ ~ ! P ( K E J ) 6   = p p *   C / N.c : X J m.%X+Xi X.. + P P ( ! W P ( K ",
"K E I K Q E >.P ! ^ I I K 6 AXHXpXlXxXFXFXFXFXKXcXf ! P P P W M K P I P I o     w w X [.2Xm.1X[.=X].% % p X   Z P ~ ~ E E P Q M ",
"-.Q E C ) W K N T ^ K P B & hXlX| iXxXLXKXLXSXFXKX7.M C C W P U ) ~ K 7 J &       r M.3X8X@XOX0X-XM.g w .   > P W ~ P Z C W Z P ",
"( ^ E P B P C C & 4 4 > & o 9 jXbXpXlXfX%.fXLXAXHX7.N ~ ~ ~ K W ( 6 & w = = 9     8 6X3.%.p   @ 8X=Xg       ~ ^ W Q.W ( ! ~ P W ",
"P *.^ P t K 6 > $ 9 9 * s . 6.cXgXAXxXq   g KXxXGX8.C ! Q Q ;.4 & p d #.o.o.#.d A ].u X.o.d   Y OXX       t t t 4 P ( W Q W -.^ ",
"P -.! J B , z z g.y.d d A   bXgX- DXAXrXa . %.HXgX* V P J J & d p w * % = $ % 9 h v   = = % OX@XX.o       6     , ( ! E K C B J ",
"J J U ~ -.  0.l.j.s.t.w y r * gXSXvXpXvXSXzXcXKX&.6 K K C o X y c =X*X[.v +             v %X0X` w p $         7 ^ W K K C J B J ",
"^ I ~ 4 : l t.d.d.f.j.t.d <.3 * 5.iXpXvXLXKXKX8.5 J J J C u B [.XX+Xu G +X=X4   w .     @ 8 qX`   . p %     7 P ^ E J C J Q K J ",
"I U 7 0.i.y.D l k 9.j.9.w ] %.+.s | iXjXlXSX8.  X - h Q.-.>.n.=X8XI t w B L x.G.R 8 X       OX`.X   p 9     Z C W P J Q.-.=.! ! ",
"J 4 l f.t.k 9.h.a.k ; k t.n X.&.,.@.| s a = * g S l c W.+XOX*XqX*Xm.w w Z.{.}.|.|.{.c.a ] J =X-X8     X 9.i.> - & ! ~ -.Q J Q ;.",
"h F x l.q.x j.j.q.X 2 F w.j.0.&.%.$.@.r w @.,.e 0.j.K.0X*X*XQ ! 8 * R Z.'.oX5X5X<XXXA.N.c H ].-XN.    x l.iXtXeXX ) ^ Q J C ! ^ ",
"LXHXa.e.j z 0.x 5 # i.j q.j.j.F o.$.$.@.U ,.X.2 x w.s.N.OXJ ! J   v '.A.7X5X<X5X5X7X<XA.Z.8 j  X&XZ % i.D.eX{ wX0 C I ( ! J E ^ ",
"rXhXNX! : 4 7 N ! 2 y.2 0.j.h.0.] &.$.$.$.&.@.h.k k f.  J +X+X~.  H |.4X5X<X<X<X1X<X7XXX{.H $ W.&XT.^.k.F.!.eXzXdXo Q >.! P C Q ",
"* X.UXg J P P ! ! , j z l a.j.s.0.d &.%.&.o.D j.k 2 l x R 1X6X0X@X'.|.5X<X<X<X<X<X<X<X<X}.x.X.nXv.^.).w.D.>XMX,X/.. Q W U N C J ",
"bX    B P P P ^ W I < D l ; d.j.j.e.&.&.&.I f.h.O # m h.K.v v.` `.Z.{.7X<X<X<X<X<X<X<X7XZ.B.H u.G.J.S.D.J._.;X~ A V M B E C P ! ",
"8.+.% u ^ W ^ E Z C ~ O m l l x z w.D &.&.f.j.1 ; 9.t.f.a.  E Q L Z.|.5X<X<X<X<X<X<X<X5X}.c.S ;X:X:X-X&XD.T.mX .^.VX  P E W W ~ ",
"h zXLX<.B E E K J W Q 5 j i.l 0.d.d.d.1.t.x 2   j i.t.x x O = X #.BX|.<X5X<X<X<X1X<X7XXX{.Z.' dXeX^.3X2X Xn $X+X>X>.7 P W Z W Q ",
"  o DXgX6 P E J J K K 6 j y.t.d.j.h.f.a.j.0.1 W t j y.e.a.g.FXJXhXVX{.{.7X5X<X<X<X5X5XA.'._.wX6.B.D.-XS.g.X r.>XmX+ W K E C ^ Q ",
"Q K 6 * B c E ^ Q ( W 5 1 D y.w.d.f.f.h.j.z 5 ! ~ , j F.XX4XmXKX8.zXCXK.|.<X5X7X5X4X}.Z.B.F aX).C. XV.a.aX0 /.BX;XX C C P C Q Q ",
"K ^ ^ ^ W.P E Q E E 2.> % a w u.t.a.h.j.a., ! W ^ ~ o G.2X2XCX6.+ + @ : A.|.|.|.XX}. XX 6.0 b /.2X,X ...} - BXVXv S =.^ ! ^ P ~ ",
"I Q I ~ K M K P E P , 3 h A g X.X.r.s.j.t.@ M Z ~ ~ t l :Xr.N.8 P Q P ^ T R G.}.].T 5 #XeXOX=X:XmX*XyXaX; 0 ZXZXo ~ ( Q W W C B ",
"P T J K W K K C E > f 7.,.$.<.a f X.y.b.o.= y & t ~ ! t =XY / `.K I C P W K J [.3X@X+XBX:X%X XP.iX).).J.k fXZXuX# ( W E ! W P W ",
"^ K K ( ~ ^ ^ Q & f <.$.$.@.$.| r &.6.#.s A 5.+.s > ! T.<X0X! ) ( K P =.~ ^ ~ I .X*X@X9X_ w.J.b.i.C.C.J.; $XIXmX+ ! Q T.! P ! >.",
"! U ( ~ ! ^ ^ 3 f <.$.$.@.$.@.<.f g U s 3 +.,.<.7.f > Q M.3X@X+XW K ^ Q Q ^ ^ ` m.^ i #X  l.J.E.E.F.S.H.; kXVX&Xb.> -.Q ~ ! ( Q ",
"E P !.W.P W Z X <.,.+.A $.$.$.%.f q q a @.,.@.@.,.+.  & P m.2X8X*XOX!.T.Q W Z ~ Z ^ :   v H.H.R.R.F.i.D.v Q.VXBXMXo ! I Z I Z *.",
"E J T.-.K P P . $.@.s @.$.$.,.r . . X f <.$.%.$.%.A q   P [..XW.OX@X=X^.Z Z Z W W 1.C k H.S.F.).| | m F.D.v 8.kX#X% Z I I I =.! ",
"Q C ^ E ~ Z W . s y f 7.<.a o M C Z U . * $.$.,.s . @.- V R ) 2.~ Z M.[.M.Z W ~ P P : S.i.z.F.D.2 o > r.F.F.k : 1  .; C B t ! :.",
"I W ! Q.=.Z > = $.@.i $.y 5 *.2.N P W P M o * | q X A = :.J =.Q.E E ~ ~.n.^ 1.! K ! . .. .l.F. .n 1 W > S.D.H.J.i.L.y.1 >.Z =.Q.",
"W ~ ^ ~ Z # # r +.| * o t E =.W P P C W.W B o r s q   P ( E I I E ~ *.~ Z E E Z -.W ; i. .i.L.[ P.l t U b ^.D.F.P...L.0.< W P I ",
"=.~ P K Z g f < * o > K U U E W ~ W ~ W E P N X & o   C I ! B K =.~ E Z E Z B _ ~ ~ t z P.[ }  .l.z t I & n L.d.k.| L.r., W B P ",
"=.E E Z + KX7.  & r . =.P S =.=.( ( =.W N =.M +.gXfXr N I C M ^ =.W E Z ! =.Z ! -.^ -.3 m P.i.P.u.1 I E X w.U.L. ...P.0.4 C M ^ ",
"W Z Z K > fXDXcXvXo M W E Q Q.!.Q.W.=.~ C =.t 7.PXKXg V Q W I E W Z C Z ~ =.W Q ( Q W W , 9.z.5.e C *.*.7 j l L.P.i.l.m w N P I ",
"P C ) C > & bXFXgXG Q J C Q ) ( W ! Q ~ C ~ Z o 8.SX< C W P ^ P E K ( C ! E ~ W ~ ~ W Z Z 4 } { q Z 1.~ C C M k l >.I.I.' : ( Z ",
"K E E K : 8.fXX M / I I K _ -.P C P ! P B J K C r hXr C I I W M K K E K ! W :.P ~ ~ W W K T : v , P ! U B J K M r 0 e I.j y ! S ",
") ~ E C : jX<.7 W ^ J K Z ^ ( ! P T Q J C ~ ~ W 3 8.SX3 V I K J ) ~ E C ;.Q Z N W *.C A o ; p.r , E W C C Q ^ W W C 5 H $X' t P ",
"( ^ P > dXPXw J J T I J W P ^ W K J B K ~ ~ ( ~ 3 zXKXSX3 ~ P W ( ^ W K V E C C C W F # 9.m eX' 4 C C K Q ^ ~ ^ W Q.C e AXm > W ",
"K *.6 dXKXPXs Q =.P S E ( =.B B P E ^ ( ( ^ W 2.I *.Q.2.U I -.Q K *.( I c Z -.~ ( E S C _ 1.Z S K E ~ ( ( ~ Q :.~ E ~ i { sXz Q ",
"I -.! J c T ~ ) W ~ Z _ ! =.E W _ ^ ^ Q _ T.Q ~ J ~ ! P J J C J K -.! J B W ~ ) E ~ Z ~ ! -.Z Q ^ ^ ( W ( T.Q ^ Z ^ ! W Z Z Z Z ",
"P J P ^ ` E E E W W W W W ! Q P E ~ ~ E I ~ J J ~ ! I U C C B J J J J ^ -.K P W W W W W W ! Q Z E Q ^ W T ~ J J ~ Q E Z C C S Z ",
"! I ^ ! ~ Q Q E Z P C ~ Z Q Z ;.B ~ ~ I Q Q J I ^ U J J C ! P J ~ I ^ Q ! Q ! W K P S ~ Z Q Z ;.C Q ~ P ! ! C P ~ P J C C ! P Z ",
"! U =.^ ~ E ~ W W C P W C W K E E E W I P P U J W U C Q.-.-.W W I I ) ~ ~ I ^ I E Z P E C W E E E E Q I U I U J ! P J Q.-.) W W ",
"J K ! ^ K ~ Q ) W W ~ ( ( N E ~ -.;.^ J W ^ =.^ ^ ^ ~ ;.~ C ! Y.J I W ^ K ^ W ) E E ^ ) ( N W ! ) -.^ J I ^ ) ^ ^ ~ ! ;.~ J ! :.",
"J P P K P P P Z *.=.~ ;.W ( Q W ^ ;.-.U ^ =.I P P -.~ ~ Z Z ! ~ J I P K K P K J =.-.~ =.P =.! W ^ :.;.K ^ ( I P P >.^ ~ Z C ~ ~ ",
"J K B ~ W P P N ;.W P P ( ( K K E E K Q ^ I I P P P P =.! C ! ~ J J J ~ W K P V ;.W U W ) ~ K P P P I ! ^ I ! K P P K ( ! C W ^ ",
"I J M K ! Z ^ ( ! P W P ~ W E W K E Q J =.P Q E P ! Q >.! P C ! P U M P ~ J ^ ( ! P W P ~ W E W K W W J ( I ! E P W ~ >.! P C ! ",
"J B C E P P P ! ~ W Z C W Z P P V C ! ! ! Q P K ! B ! I P N C Z C B C P K P K Q ~ W Z C W Z K E B J ! ! ! Q I K ~ V Q W U N C U ",
"W P K Q P P P 1.W E Z ~ ~ W -.Q J ^ !.^ J B J J K K K B E C E ! W P P W P P I ^ W P P Q ~ W -.Q K Q !.^ C B C J P K K B E C P W ",
"=.^ B ^ ( Q ~ I Z C =.( W ;.( Z I ) 2.^ I I Q ^ Q Q I I W W E ~ =.~ C ~ ( W ^ I C C -.( W :.( C E -.2.^ I I Q ^ W Q E P W W W ~ "
};
