/* XPM */
static char *death_21692725076[] = {
/* columns rows colors chars-per-pixel */
"64 64 253 2 ",
"   c #010101",
".  c #0A0605",
"X  c #0C0B0C",
"o  c #090808",
"O  c #120D0B",
"+  c #170606",
"@  c #15110D",
"#  c #1B130E",
"$  c #070C13",
"%  c #170D11",
"&  c #0E1014",
"*  c #06161B",
"=  c #121314",
"-  c #1B1513",
";  c #12151A",
":  c #19191A",
">  c #280806",
",  c #370A07",
"<  c #241A13",
"1  c #2A1E15",
"2  c #251A1A",
"3  c #381C16",
"4  c #2F0F0F",
"5  c #2E2219",
"6  c #28211B",
"7  c #33251B",
"8  c #36281D",
"9  c #3A2B1E",
"0  c #3A251A",
"q  c #262C03",
"w  c #191E24",
"e  c #171A24",
"r  c #09152B",
"t  c #281D26",
"y  c #1D2329",
"u  c #1D2227",
"i  c #102C35",
"p  c #2B2425",
"a  c #21262D",
"s  c #2B2728",
"d  c #3C2D21",
"f  c #322C2D",
"g  c #352727",
"h  c #3F3021",
"j  c #3E3129",
"k  c #252C34",
"l  c #2F2B33",
"z  c #352C31",
"x  c #2A323C",
"c  c #273238",
"v  c #3A3638",
"b  c #2E3324",
"n  c #490A09",
"m  c #540A0A",
"M  c #451112",
"N  c #4F130D",
"B  c #671818",
"V  c #791A18",
"C  c #6C110D",
"Z  c #502913",
"A  c #4A1C2F",
"S  c #711A2E",
"D  c #422D21",
"F  c #44272A",
"G  c #453324",
"H  c #4A3727",
"J  c #4C3927",
"K  c #4E3A2A",
"L  c #493729",
"P  c #543E2C",
"I  c #583F2C",
"U  c #433A3C",
"Y  c #483837",
"T  c #543F35",
"R  c #7A2425",
"E  c #6C2D2F",
"W  c #78321C",
"Q  c #56412E",
"!  c #5A422E",
"~  c #5D4431",
"^  c #5E4835",
"/  c #584334",
"(  c #614633",
")  c #644935",
"_  c #694D37",
"`  c #664C38",
"'  c #6A4E39",
"]  c #6D513B",
"[  c #72543D",
"{  c #73583F",
"}  c #754837",
"|  c #67461E",
" . c #182A44",
".. c #173648",
"X. c #2B3943",
"o. c #37354E",
"O. c #243F63",
"+. c #262458",
"@. c #4E324D",
"#. c #752A4A",
"$. c #6D2D53",
"%. c #612B54",
"&. c #384348",
"*. c #3D4756",
"=. c #325458",
"-. c #38517E",
";. c #4B4344",
":. c #474749",
">. c #554B4C",
",. c #554A4C",
"<. c #414C5C",
"1. c #564E51",
"2. c #4D5657",
"3. c #5C5253",
"4. c #575757",
"5. c #6E5441",
"6. c #6E5848",
"7. c #745641",
"8. c #765943",
"9. c #7A5B44",
"0. c #7D5E48",
"q. c #755B49",
"w. c #65595A",
"e. c #6C494C",
"r. c #7D614A",
"t. c #7E6959",
"y. c #584E6F",
"u. c #6F526E",
"i. c #5A6671",
"p. c #69686A",
"a. c #7A797C",
"s. c #73706C",
"d. c #851816",
"f. c #981C17",
"g. c #8E0F0A",
"h. c #A81C16",
"j. c #B61D16",
"k. c #B10A06",
"l. c #97211D",
"z. c #8D2C18",
"x. c #AF221D",
"c. c #862628",
"v. c #992A29",
"b. c #862F35",
"n. c #B62928",
"m. c #A42E33",
"M. c #B83136",
"N. c #AF2B2C",
"B. c #A10E25",
"V. c #CE130D",
"C. c #F3170D",
"Z. c #CD231A",
"A. c #D72219",
"S. c #E72418",
"D. c #FF2214",
"F. c #FE2A1D",
"G. c #F9251A",
"H. c #ED391E",
"J. c #C8302B",
"K. c #F93027",
"L. c #EB322B",
"P. c #CB1F36",
"I. c #8F4A2E",
"U. c #A95137",
"Y. c #84421A",
"T. c #FA4718",
"R. c #D54E35",
"E. c #F5532D",
"W. c #F95834",
"Q. c #EE4A2E",
"!. c #FC6836",
"~. c #FF7736",
"^. c #FB6A2D",
"/. c #D15B2B",
"(. c #8A1A52",
"). c #8E334D",
"_. c #A2354A",
"`. c #B2384A",
"'. c #892A65",
"]. c #C63B46",
"[. c #805F4A",
"{. c #835C48",
"}. c #96484C",
"|. c #AA4546",
" X c #BA594A",
".X c #83634C",
"XX c #8B6B52",
"oX c #876954",
"OX c #93735B",
"+X c #916E51",
"@X c #BA7253",
"#X c #8D7973",
"$X c #B1746B",
"%X c #935978",
"&X c #CD524F",
"*X c #D37245",
"=X c #D36F60",
"-X c #FF823B",
";X c #B48053",
":X c #958576",
">X c #B29573",
",X c #F79156",
"<X c #CE916C",
"1X c #FDA466",
"2X c #EAA375",
"3X c #E28C60",
"4X c #2A3580",
"5X c #1D5EA4",
"6X c #59659A",
"7X c #3A67D4",
"8X c #2F4DD1",
"9X c #8D7691",
"0X c #9D6895",
"qX c #C96185",
"wX c #7A898E",
"eX c #7C8EA5",
"rX c #848688",
"tX c #99999A",
"yX c #908995",
"uX c #A3898E",
"iX c #A8AB93",
"pX c #9A83A4",
"aX c #9A9BA6",
"sX c #A196A9",
"dX c #A693AF",
"fX c #ADACB5",
"gX c #B4A3BD",
"hX c #B7B9BB",
"jX c #A7A8AC",
"kX c #9EA4A5",
"lX c #D3B496",
"zX c #F9BB87",
"xX c #E395A0",
"cX c #FACA90",
"vX c #FFF0B8",
"bX c #EBCFAD",
"nX c #8B86C9",
"mX c #BAB1C3",
"MX c #838BF6",
"NX c #C6B7D1",
"BX c #BFC4CB",
"VX c #C7C7CC",
"CX c #D7D8DB",
"ZX c #CCCDD7",
"AX c #FCF3CB",
"SX c #DBDAE6",
"DX c #DBCCE6",
"FX c #DAECEF",
"GX c #E7E8F1",
"HX c #FEFEFF",
"JX c #F5F7FB",
"KX c #EBE6EA",
"LX c #EECCDC",
/* pixels */
"0.9.J ' _ ) ) ! Q ) _ ) I I ! P [ ] _ ! _ ! ' ) ( I ( ~ ( ! ) ) .X9.J ] _ ^ ( ! Q ) ' ( ! I ! P ] ] _ ( _ I 5.) ( I ( ! ( I _ _ ",
"] ] ' ) ( ! ~ Q Q ! ! ( ) ! P ( ] ] _ ) G ] +X' [.) ) I ) P [ ) ] _ _ ) | ( ) Q ! ! I ( ) ! I ( _ ] _ ( H _ XX' {._ ( T ) I ] ) ",
"_ ( _ [ ' G ) ] _ [ ) J [ ] [ ! ! ! ! _ _ ] ( _ _ P P P / P _ _ _ ) _ [ ] G ( ] ) [ ) H [ ' [ ( ! ! ! _ ` ' ~ ' ' P P P / P ' _ ",
"! ] [ [ .X! ) ` ( ) .XJ [ _ ) ) [ _ _ [ [ _ _ ( ' ' 7.] ' ] ~ _ ! [ ] [ .X! ( _ ( ) 0.P { _ ) ( [ _ ] [ 7._ ` ^ ' 5.7.} _ ] ~ _ ",
"( _ ( ' I G I ( ( ~ Q ! ( | ~ [ [ [ _ ) ) Q _ ) ] } [ _ ( ( T P ( _ ( ' Q G ! ( ( ! ! ! I ( ( [ [ [ ' ) ) I ) ( ] ' [ _ ) ( P K ",
"! ( I ! ) ! ! P ( ( ) ) _ [ ! ) ) ) ! { [ ) ! Q ) 5._ ( ) ) T ) ! ( P ! ) ! ! P ) ! ) _ _ [ I ) ) _ I 8.7.) ~ I ) ' _ ( ) ) ^ ) ",
"] ! ! { _ [ ] ) H ) ' ] _ _ ) ] [ ( ) ) [ ) ( ~ ) ' _ {.' I ' 9.[ ! / { _ ] _ ) H ) ' ] _ } ) ] ] ( _ ) [ ) ( ( ` ] _ {.' ~ ) 9.",
") ! { _ ' ] ] [ P [ [ 9.9.[ ] .XK { { ( P ( ^ ] ] [.9._ ' ` 7._ ) ! [ _ _ [ ] [ Q [ [ 9.9.[ ] .XJ { { | I ( ( ] ] {.9.` ` ) 7.' ",
"( ( OX{.I ) I _ ( ] _ [.[ { [ { ! [ 9.9.) Q ] ] .X) ) ) / ~ ( ] ( ^ OX[.) ) T _ ( ] ` 0.] [ 7.{ ! _ r.{ ` Q ' ] .X_ ) ) ~ ~ ( ] ",
"( T {.7.I ) T I ( ' _ { 7.{ _ [ ! { [ ) r.! _ 8.OX) ) ~ ~ ^ [ ) ) Q [.7.I ( I ( ( } ' 7.9.{ _ [ ~ [ { _ r.Q ` 8.OX) ( ^ ~ ~ 7.) ",
"` P ] ) 7.I ) _ ~ _ ' ] ] ] [ [ ^ _ 9.^ ~ P _ ' ] ^ ^ ) K h _ r.` P ' ) ' I ) ` ~ _ ' ' [ ] 5.7.~ _ { < h Q ] ' ' ) ^ ) K h _ 0.",
"( ) ' oX8.} 5.( ! ' ! ' ] ) 0.[.J ! ) _ ^ / ' 8.^ ) ! ^ oXQ [ oX( ( ' XX7.' ] ( ~ ' ~ ' _ ) q.0.J ( )   7 Q ' 8.) ( / ~ oXQ 7.oX",
"~ ' [ ' I ( ) ( 9.' P ~ ) ( 8.( ( ! ! .X) ' Q ^ K 9.] 7.[ ) / ^ ~ ' [ ' ! ( ( ~ 9.` K ~ ) ~ 0.^ ) ! Q O 9 ` P Q K 9.] [ 5.) / ^ ",
"8.` ( T ( P K ] _ ' 9.T T ( ( ) ' < # # @ d ] 9.) q.7.^ ~ ) P / 7.' ~ ! ( P K [ ' ' 0./ ~ T ( ) _ ) 8   G ^ [ # Q q.7.( ^ ) K / ",
"7.) ( I _ 7.~ ) 7.[ 8.7./ P [ 7 O sXBXfXVXp.@ G ) ] ) ~ ( P G ] 7./ D G ^ 5.T T 9.] 8.7.~ P [ 7.7.^ v ; d 5.P . Q ] ) ! ) P G ] ",
"( I I I ' [ ( _ [ ` ) ) ~ ` G rXSXmXNXHXHXSXCX1.G ! ) ) _ ) ( ( ) D O = x X.*.y D P ( ) ( J ' 6.oX/ x ; K ] .   ~ ~ ( ) ' ) ! ) ",
"( I { Q _ ) _ _ ] ' _ Q P ! g mXDX9XpXSXSXGXHXDX$ P ] ' ) T [ ! ( ! { 9   ; k k w   P I 5       6 U X.  j &.o # ! ( [ ` ) ~ [ ~ ",
"! ! ~ ! _ ) 0.! _ ] ^ ^ ! 9 kXSXpX9XdXDXSXSXSXJXp.G ' ( ( ( ) H ! ! ) ! ( O     u u   7           y = = k o   T ! ' ' ) ( ~ ) G ",
"9.' ( P { ) Q H ^ ] ~ ~ ! < sXdX1.9XgXJXHXJXDXGXHXl J P P ) I / { _ / 8 ! -       y e   ; &       k x a X   < ~ _ ' ~ I P ) I ~ ",
"[ ] ) ! J ) K P 7 9 8 7 < o t yXaX9XdXaX6XkXGXZXGXv P ] _ ] ~ ( { D - w : : e       w w *.c       & k .     ' ] ) +X) ' ' _ / ) ",
"Q ] ] ^ D ! Q 7 * * = = s O &.fXfXNXdX: . w.HXaXDX:.~ ) ' ) 9.5 # k x <.*.*.*.X.a     *.*.x               d 9 d 5 ~ [ ) _ _ 8.' ",
"~ r.` Q J D C B v.v.c v v   BX9X  CXmXu.@ # a.DXrX; Q ^ Q Q - x a u : = = = ; w w     = : &   $ x $       9     1 ] ' ~ ! P K ! ",
"Q Q Q ' 8.# V K.D.D.R k f 2 s aXVXgXpXmXhXwXyXHXv 8 ! ! P O   u &                           ; k a k ;         8 ] _ ! ! P Q J Q ",
"' ^ ] J # M R Z.S.S.D.R c w.: s rX9X9XgXHXHXHX9XG ~ Q Q P h G D d       ; X.X   u X         y k   X k &     8 ~ ] ~ Q Q P ] ! Q ",
"^ ^ Q m x.c.b.C m V D.h.i &.w.z g ,.9XpXfXKXa.  O O G XX9.7.) ) ) K h u a : o y w                   k ;     Q Q ) Q Q XX{ { ) ) ",
"Q h , A.v.B R Z.V.M M M E g ;.4.w.;.:.@.k u = f F F = ' ' P ` [.Q K a k     y u     o k X.y   .         R n.6 = - ] ] { ' Q _ 0.",
"D M N L.f.m S.F.j.  % S h.D.R @.4.3.:.p p / 3.i x.F.l.o T I _ _ 8 : a       c ;     X X.& o J 1X}     V L.9X7X-.. r.' _ I I _ ] ",
"eXKXV.V.m C j.f.#   v.B g.G.D.T =.3.3.;.@.w.&.% g.S.G.O ) I ) K         O X k ;   X & k     N *X1XI @ N.^.6XO.-.r J ~ { ) P ) ' ",
"s.kXxX+X+ 1 1 d / # v., g.K.S.f.x 4.3.3.3.4./ A., g.Z.. L ^ P K     . 7 ' P >.& $ y & y     * .X,X0. XM.Q.OX6XaXeXO ) q.` ^ P _ ",
"c v FX2.J ( ! _ _ 1 N B C A.G.G.z.&.1.w.3.O.v.D., B C g.m 7 P 7   4.s / ! ~ x o : - X X.$   &.uXI.@X&Xj.!.2XcX3X$XO ` ) / L P Q ",
"GX@ = 7 ( ! ( ] ( ~ < R S , A.F.D.l.1.4.2./ Z.S.+ 4 c.F.Z.O ( H O ZXp.< 7 ! 8 . - ~ % y.@.$ > b.*X*XR.E.!.*X<X` Y K G K ( I ^ ( ",
"a.U   8 [ ( ' ( ! P ' + d.B C C C h.E =.>.G.F.3 4 R c.F.j.- ( J v KXa.4.o ) ' . F P $ e.R.4 & uXiX}.H.-XE.{.lX$.<XbX  ~ ) ) ( ' ",
"b yXCXs.H ( ) ! P ) ( 5 M m.B d.h.V.n.1.V g.M   B m.c.d.n . # . yXHXfXa.w.6 ^ 7 H ( 5 l J.h.X.5X5X|.^.W.n.A ;X@X2Xr.8 ~ ( I ) _ ",
". : hXBX5 ( ! Q Q ! I H 4 v.c.Z.D.S.S.Z.G.C d / 2 B v.j.k.&XZXhXtXJXHXrXs.; < Q ! I !   E &X5Xy.R.^.!.n.j.+ Y.1XlX- ) P ) I ' _ ",
"~ Q D - 9 G ) ] _ [ ) 8 3 c.x.x.Z.A.A.S.F.V 8 ' ) - B S.D.V.LXHX:XVXJXSXZXjX# ] _ [ ! 1 I.E 0X&XT.Q.J.Z.0Xr ;XcX<Xo P P / P ' _ ",
"! ] [ _ .X! ( _ ) ) r.5 + z s v.v.A.S.F.k.7 _ ~ ' ' . x.G.C.$XwX& = - 6 b b ! _ ( ) 0.+ u.a n $.%.%.$.$.+.$ cXvXZ K 7.5.' ] ~ ' ",
"^ _ ( _ P G ! ( ( ! 7 - 6 v x :./ l.C.F.V - K ) ' ] 3 d.d.V O 7 ( _ ( _ Q G ! | ( ! 7 :XO.9 h.6X7X7X7X0X> r nXnXO ] [ _ ) ( P K ",
"~ ( Q ! ) ! / P ( 7 f w.3.3.w.f x X.n.|.X.% s - G 5.( < < 9 ! ) ~ ( P ~ ) ! ! P ( ! 1 AX:X, ^._.%X=X&X~.n #XMX8X% ] ) ( ) ) ~ ) ",
"] ! ! { ' ] ] _ 5 f w.3.1.3.1.@.s 1.w.2.z Y p.Y p 7 ` {.] ~ _ 8.' ! / { ' ] ] ) H ~ h lXF n.~.U.M.T.T.~., >XAXlX# ` _ {.' ~ ' 8.",
"_ ! [ _ ' ] ] h s w.3.3.1.1.1.w.v v ;.v p ,.>.w.p.s 7 ) ' ` ] ' ) / [ ` ' ] ] [ P ' b :X  Q.~.}.|.E.R.~.+ iXvX,XU.< 9.` ` ) 7.' ",
"^ ~ OX[.( ( ~   3.w.,.U 3.3.3.w.Y p p g >.w.1.3.3.@.  5 ! ~ ) ] ( ~ OX[.( ( I ) ( ' -   Z ~.!.|.).Q.M.E.N :XvXcXzXO ) ( ! ! ) [ ",
") Q [.7.! ( / + ,.3.z ;.3.3.w.s O o X U w.3.1.3.3.U :   ~ ~ 5.) ( ! {.9.I ( ( ( ( ' I N !.L.Q.&X%.@.S Q.E.Z s.iX:X- Q ^ ) / [ ) ",
"_ P ] ( ` ! ) O g f v w.w.f - d K P K X s w.3.3.f - ;.O K h _ r.) P ' ) ` T ) ' ! ( > &XM.n.W.W.> % < z.E.E.N , 4 #.> ! K h _ r.",
"~ ^ ' XX9.) 5 = ,.,.v w.v 7 ` .XK / ( / d O 6 @.: X ;.- oXQ 7.oX( ( ' XX7.} 5.) ! _ . %.#.Q.L.#.A 3 ) # /.!.!.~.M.'.v.< q.Q { oX",
"^ ] [ ' I 1 O p ;.>.2 O 7 ~ 8.( ( ~ Q .X^ h @ f z 2 o ` ] ) ~ ^ ^ ' [ ' I ( ) I { _ > M.$.m.).o.`.C d / W  XW.E.`.@._.l.1 ^ / ^ ",
"7._ ! ! I f v 2 : = - ~ / ! ) ) _ ) _ ( ^ ^ d . : O . ^ ^ ^ Q ! 7.' ~ I ) P K ] ] _ 9 V _.@.+.#.L.S 9 ^ # A ).Z.n.@.).d.< ) Q ! ",
"{ ) ! ! 6 SXyX  - g o 7./ K [ { { [ { ) Q { 8 :.#Xa.- ! ^ P H ] 7.) ~ I ) 7.I _ { [ { 7 R `.m._.R 0 ^ ) o n.].#.#.%.].d.5 P G ] ",
") I P ! 5 a.VXyXsX- 9 ( ( _ XXOXXX.X] _ Q { Z 6XJXJXs / _ ) ~ ( ) I P ~ ' 7.) _ [ ' ) ) 2 d.P.u. .Q ] ] 9 n C _._.M.L.S u J ! ^ ",
"( ! [ P 5 O tXCXrXH _ Q Q _ { [ ) ) _ ' P ' P + tXhX- ` ) ! { ! ( ! { Q ' ( ' _ 7.` } T P 3 +.=.: Q ) 5.P P G n B q.(.(...< ] ~ ",
"! ! ) ! 5 4.tXw d ] ( ^ ! ] { ! ! ( ` ! K ! ~ J s tXO ) ~ ~ ) H | ! ( ! ' ( 0.! ) ' ) I ~ I q Z 7 ^ ` Q K ! ! G p r i '.M g ) H ",
"{ _ ( P 8 s.rX1 ^ ] ! ~ Q ] [ _ ~ ( ) Q P ' ] ( < fXhX- J ) ! Q { ' ! P { ) ! J ( 7.I P + > B.a 1 ~ ) P Q _ ' ) ) P 7 | uX .9 I ",
"{ ] ( 7 p.KXv Q Q ( ^ Q ) ( [ ) ! P P ! ' ' ' [ # ZXHXfX6 ] ^ ) [ ] ( ( K ( J Q P ) Y % B.S 6Xi 7 P P ~ _ ' ] ] ) +XP i xXS 1 ) ",
"! { Q 2.HXJX:.! [ ( P ( ] [ P K ! ) _ [ [ [ ) .X^ 6.oXt.Q ) 9.' ! ] ] ^ D ! { ] [ ( J P } 7.Y L P ( ] [ [ _ _ {.] ~ ] G -.qXV _ ",
"~ 8.` Q J ( ] [ ) ) I ] ) { ( ) [ _ [ _ [ 9._ _ Q [ _ ~ Q Q K Q ~ q._ Q J ) ] [ ( ` P ' ) 9.( } ] ] [ ) [ {.] _ P ] ` ! Q Q Q Q ",
"! Q Q ] { ( ( ) ) ) ( ) ( _ _ ( ( ' _ ) ( _ Q Q ] _ ~ Q P Q J Q Q Q Q ] 8.! ( ) ) ) ) ( ) ) ) ! ) _ ' ) ~ ] Q Q _ _ ! Q Q Q H Q ",
"' ^ ] ' _ _ ) ) I I P ] I ) ( { P ' ' / _ _ Q ^ ] ~ Q Q Q _ Q Q ' ^ ] ' ' _ ) ( T / P } I ) ( 9.P ' ' ~ _ ) Q / ] ^ Q Q Q ` Q Q ",
") / { ] ' ( ] ( ) P ( ( I ) ~ ( ) ( ) ~ / ~ / ! ) Q P XX9.8.) _ ^ ^ { ] ' ^ ] ( ( P ~ ( I ) ( ( ) ) ) ^ / ! ! Q ) ! Q XX8.7.) ) ",
"Q / ) ] ! ' _ { ) ) _ 7.] J ( ` { 9.] Q ) [ { ] ] ] ` 9.` P ` {.Q ^ ) ] Q ] ) { ) ( ' { [ J ) ` { 9.] Q ) { { [ ' ] _ 8._ Q _ r.",
"Q ~ ! ! ! ( ! I 7.[ ] 9.( [ _ ) [ 9.9./ ] { / ~ ^ 8.' ' I P _ ' Q ^ ~ ~ ~ ~ ~ ! 7.7._ 8.( [ _ ) ] 9.9.! ] { ^ / ^ 8.] ' P P _ ' ",
"! ! P ] ) ! ( J 9.) I ) [ ] ( I ! ) ! ) ] ^ ) / ! / ^ 8.) P ) ' Q Q K ] ( ! ~ J 9.) ~ ( [ [ ! ! ~ ~ ~ ' ] / ) ! ! / ^ { ` P ) ] ",
"~ Q G ~ ` T [ [ ) ( ) ~ _ ) ( ) ! ) ) Q { / ) ) ^ ) _ q.) ~ P _ ~ Q G / _ ! ] { ) ^ ( ~ ' ) ( ) ! ) ) Q 7.^ ) ) ~ ) ` q.` ^ K ' ",
"Q J P ) I ( I _ ' ( T P ` I ~ ~ J Q _ _ ' _ / ! ' K _ ^ / H P T P K P ) ! ~ ! ) ' ) / P ) I ! ~ J Q ` ` _ _ / ~ ' K ' ) Q K P Q ",
") ~ ! ) ( ( ~ ] ) ( I ' ] ( 9._ ! ' OX] Q K Q Q ! ! ! K ( P ( ) ) ( ! ) ) ! ~ ] ) ~ ! ' ] ) 9.' ! ] OX] P K P Q ~ ! ! K ( P ( ) ",
"7.` Q ] ] ) ' ( T P 9.] ) {.] P ( { r.[ ~ ^ _ ] _ _ ^ ^ ) ) ( ' 7.' P ' ] ) ] ) ! P 7.] ) 0.] P ( 8.9.[ ^ ^ ` ] ) _ ( ~ ) ) ( ' "
};
