/* XPM */
static char *death_71692725077[] = {
/* columns rows colors chars-per-pixel */
"64 64 245 2 ",
"   c #010101",
".  c #0B0808",
"X  c #150C0A",
"o  c #16110D",
"O  c #1A130E",
"+  c #1D1611",
"@  c #191717",
"#  c #02181C",
"$  c #231A13",
"%  c #231A19",
"&  c #34130E",
"*  c #2A211B",
"=  c #35271C",
"-  c #323507",
";  c #191D23",
":  c #271F25",
">  c #371E21",
",  c #19282C",
"<  c #2B2527",
"1  c #392C26",
"2  c #3E3020",
"3  c #362D31",
"4  c #3B3335",
"5  c #373637",
"6  c #2C2F2F",
"7  c #4C1212",
"8  c #671515",
"9  c #6F120F",
"0  c #4D3015",
"q  c #743116",
"w  c #462826",
"e  c #453324",
"r  c #4A3626",
"t  c #4B3728",
"y  c #4D3A2A",
"u  c #4B3928",
"i  c #543E2C",
"p  c #583F2C",
"a  c #443B3D",
"s  c #572B2C",
"d  c #7B2626",
"f  c #713329",
"g  c #56402E",
"h  c #5A422E",
"j  c #5D4431",
"k  c #5E4835",
"l  c #67432B",
"z  c #79472C",
"x  c #614633",
"c  c #644935",
"v  c #694D36",
"b  c #664C38",
"n  c #6A4E39",
"m  c #744A34",
"M  c #6E513B",
"N  c #6D5234",
"B  c #72543D",
"V  c #785538",
"C  c #765E29",
"Z  c #2E2B44",
"A  c #4B3846",
"S  c #7F3341",
"D  c #364548",
"F  c #4D4344",
"G  c #454445",
"H  c #564B4D",
"J  c #594E4F",
"K  c #514649",
"L  c #594E52",
"P  c #465558",
"I  c #5B5253",
"U  c #565558",
"Y  c #4E4F50",
"T  c #6E5541",
"R  c #745641",
"E  c #765942",
"W  c #7B5C44",
"Q  c #7D5D48",
"!  c #765B49",
"~  c #655B5B",
"^  c #625758",
"/  c #6F4444",
"(  c #7C614A",
")  c #56536B",
"_  c #645667",
"`  c #6A6769",
"'  c #787579",
"]  c #6E6870",
"[  c #991A14",
"{  c #8D160F",
"}  c #AF1A13",
"|  c #902B15",
" . c #AB3117",
".. c #89132B",
"X. c #882425",
"o. c #8E2E2F",
"O. c #AE2C27",
"+. c #CA160F",
"@. c #F41C10",
"#. c #CD241B",
"$. c #D72218",
"%. c #CD370E",
"&. c #FF2A00",
"*. c #FF3D03",
"=. c #FF3601",
"-. c #E62318",
";. c #FA2518",
":. c #EB3D0D",
">. c #D32A24",
",. c #CB3628",
"<. c #F52E22",
"1. c #9C401C",
"2. c #A6441D",
"3. c #B7471C",
"4. c #884729",
"5. c #964625",
"6. c #87552B",
"7. c #875937",
"8. c #945232",
"9. c #AB5125",
"0. c #876438",
"q. c #9A6A31",
"w. c #B17634",
"e. c #CA4516",
"r. c #D84A14",
"t. c #E8450D",
"y. c #FF4406",
"u. c #FE4A07",
"i. c #F3450A",
"p. c #FF4B09",
"a. c #FB480A",
"s. c #FF530C",
"d. c #FE5B0E",
"f. c #F7500D",
"g. c #E04A12",
"h. c #FF5C12",
"j. c #F85713",
"k. c #EF5116",
"l. c #DA671D",
"z. c #FF610F",
"x. c #FF6412",
"c. c #FE6C14",
"v. c #FE6B19",
"b. c #FE7516",
"n. c #FF741A",
"m. c #FE7C1B",
"M. c #FE7816",
"N. c #EF7F1E",
"B. c #C85624",
"V. c #CF4B30",
"C. c #CB722D",
"Z. c #FD7925",
"A. c #F36F2D",
"S. c #F35721",
"D. c #95394B",
"F. c #805F49",
"G. c #9B5F40",
"H. c #83634B",
"J. c #8A6A53",
"K. c #94735B",
"L. c #947446",
"P. c #A77F41",
"I. c #E4645E",
"U. c #9B832F",
"Y. c #B3933A",
"T. c #FE821C",
"R. c #FE8C1F",
"E. c #FE921F",
"W. c #D18E33",
"Q. c #FF8323",
"!. c #FE8D23",
"~. c #FE8D2B",
"^. c #FB8529",
"/. c #FE9423",
"(. c #FE9A25",
"). c #FE932B",
"_. c #FE9C2A",
"`. c #F59224",
"'. c #FD9835",
"]. c #E58A30",
"[. c #FEA32B",
"{. c #FEAB2E",
"}. c #FEA027",
"|. c #FEA333",
" X c #FEAB32",
".X c #FFAD3A",
"XX c #FEA43C",
"oX c #FEB434",
"OX c #FEBA36",
"+X c #FFBD3A",
"@X c #FDB83A",
"#X c #F1A731",
"$X c #D7A83C",
"%X c #FFC33C",
"&X c #FFC93E",
"*X c #B99344",
"=X c #BEA349",
"-X c #A6886A",
";X c #C89856",
":X c #CCA848",
">X c #FBA944",
",X c #FEBC44",
"<X c #FCB747",
"1X c #F3B74F",
"2X c #FF9064",
"3X c #F4B86D",
"4X c #E39E40",
"5X c #FFCC42",
"6X c #FDC648",
"7X c #FFD444",
"8X c #FFD946",
"9X c #FFDB48",
"0X c #FCD449",
"qX c #FDC852",
"wX c #FED957",
"eX c #EBC94E",
"rX c #FFE14B",
"tX c #FFED56",
"yX c #FBD763",
"uX c #FECB6A",
"iX c #EAD761",
"pX c #7E7984",
"aX c #887291",
"sX c #7F8185",
"dX c #908B94",
"fX c #9C84A5",
"gX c #A893B1",
"hX c #A5A6A7",
"jX c #B5B6BA",
"kX c #AFA9B8",
"lX c #91A1A1",
"zX c #C5BCB6",
"xX c #FFC794",
"cX c #BAB1C3",
"vX c #C9BCD4",
"bX c #BEC2C0",
"nX c #CECBD3",
"mX c #DCDCE5",
"MX c #D9C8E0",
"NX c #DEE1E9",
"BX c #E9E9F3",
"VX c #FFFFFF",
"CX c #F5F6FB",
"ZX c #EFEEF8",
"AX c #F2D9DC",
/* pixels */
"Q W u n N x x h g c v x h h h p M B v j v j M c x p j j x h c v Q Q r N n x x h g c v c p h h i N M v j b p M c x p j x x p v v ",
"M M n c x h x g g h h x x h p x N n n x e v J.n H.c c p c g M c M N n c x x x p p h g x x h g x M n n x e n K.v F.c x h x p M c ",
"n l N B M e x M c B c r B N B h h h h v v n j n v i i i j i n b v x N B n r x M v B c t T n B 5.h h j v b n j n v p i i j i v v ",
"h M M B H.h x n c c ( i B v c x B v M B B M n j n n R T b M j n h M B M H.h x n x c Q i B n 4.z B v n B E n b j n / B B b M j n ",
"j v j M p e i x x x g h x x x B V B n v x g v x M n R v x x i y k v k n g e h j k j g h x l i.B B B n b k g v c M M B v c c i y ",
"h x i j c h j i x h c b n M l x c n g B B b h g b n x v b c j c h j i j c h h g g.2.c v N t.e.c c v g ( U.c p j m 4.v c c c j c ",
"B h j E n M M c r c n n n N x M M h c b B c k k v n n F.n p n W M h j R n M N %.N.6.n T r.y.z T 8.k k U.L.c V w.w.q.0.F.B k b ! ",
"c h M b n M M B p B R W E M M H.i B E h h x x M m F.E v n c / B c j T b n M e._.q.V R 9.y.*./ G.q E *X$Xj x 3.'.yX1X1X*X:XL.G.4.",
"c x K.F.p c p b j M c Q B B R B h N Q E v g M M H.c c k j j x T c j K.( c e.7XeXj B.N u.~.g.7.t.g 0.eXW z e.<X*X4X'.6.6.9.r.g.a.",
"x p F.R p c p p x M v B E R n B j B B v ( g k E K.c c j j j R k x g F.R  .^.5Xl.C.C.t.@XZ.V.*.7.k 8XV 4.h.w.0.W.`.B.t.a.a.y.a.a.",
"c i M c / x c b j c n B M B B B k n W x k g v n M k k b y 2 n ( b i B c v.m.s.s.f.i.n.wXqX>Xl.T eX=Xe.a.3.q.`.T.a.y.y.y.a.y.y.a.",
"k c n J.E n T x h n x v n c ! H.u j x v k h n E c c g k J.g T J.x x n B.oXn.%Xx.y.h.yXZ.A.>X=X0X&X:.y.x.!./.T.u.y.y.y.y.y.y.e.J.",
"k n T n p x c x W n y j c j ! x h x h H.b n g j y Q M R M c j k j n V t.x.{.9Xv.Z.oX Xy.u.2XyX9XM.s.E.(./.R.p.y.y.y.u.u.y.2.x x ",
"R b p p x i i M n n ! j j j x c n c n x h j B W k ! R k j c y j E 4.t.=.y._.7Xc.u./.T.R.p.yXwXtXE.(.{./.E.h.Q.a.s.y.y.f.7 l e.g.",
"R b c p c R j v E B E R j y B R B B x * + * % v c M c j x p e M 8.3.%.h.u.0Xf.`.M.(.M.d.>XwXwXqX.XoX/.T.p.y.v.~.~.s. .| %.r.q N ",
"c p p p n R x v n v c c j v J.K.H.= 5 hXlXdX_ $ = j c k n c j x 4.2.%.m.u.5Xb.R./.oX(.).rX9X%X,X6X6XT.y.p.n.n.v.<X<X<X'.W.*Xv W.",
"x p B g n x n n M v v i i v R T * cXvXMXvXCXZXjX] = n n c j B h j  .s.OXs.OX/./._.+X[.9X9X7X(.OX6X~.p.b.(.d.d.x.Z.'.C.*XtXuXeX:X",
"p j x h v c ! j b M c j h B R i Y VXgXaXkXmXBXVXZXA 1 c j j c e l f.s.~.E.OX/.E.7X%XrX9X9X}.7XOXT.c.(.c.p.n.!.y.s.C.U.8X0XeXb u ",
"E n x i V c p r k M j h h B B * lXfXaXaXnXBXmXmXVXhX% i i c h l e.z._.2X7X{.(.%X9X9X9X9X7X7X%XE.!./.T._.!.p.x.[.7XrX@X6.8.N 4. .",
"R n x j y j i i i c j g x j M @ _ _ gXfXMXVXmXnXBXCXdXw n n j m g.=.c.d.rX/.{.9X9X9X9X9X8X%X(.(.{.OX&XOX@X7X9X9X+XQ.k.l.k.t.u.f.",
"g M M k e h B g t t t x k t 1 @ kXkXfXfX) dXMXgXlXVXpX% v b E v l u.%X}.&X[.rX9X9X9X9X9X&X}.oX&X9XrX7X9XrXrX&X[.n.m.).v.n.*.y.y.",
"j ( b g u x r 7 9 7 = w o @ o   Y BXgX'     ZXNXpXvX: . $ g y l e.y.%XrXOX8X9X9X9X9X9X7X%X8X8XrX9X8X9X8X XQ.+X%X Xx.x.Z.Z.T.m.m.",
"g g g n B 2 X ;.<.$.& 7 w A ; @ cXvXfXfXG   D jXCXdX  3 < + * 0 *.d.7X9X7X9X8X9X9X9X9X8XrX8X9X9X8X9X9X7X%X7X{.E.R./.(.6XXX|.XXm.",
"n k M v r ) I.@.-.X.o.O.-.d : < ) L gXgXfX' ` nXVX]   5 6 > 8 [ s.E.7X9X9X9X9X9X9X8X9X9X9X9X9X8X9X9X8X&X}./././././././.m.m.M.c.",
"k g E u 5 VXI.+.} >.{ { ;.-.s D     aXgXfXZXVXVXkX. ; w d >.;.:.=.b.rX9X8X9X9X9X9X9X8X9X9X9X9X9X9X9X%XoX[.}.(.(._.(.(././.(.E.R.",
"g g o D jXbXAXG.9 @.} 9 <.@.s P K % < ] vXNXmXaX@ # f -.[ X.X.%.=./.9X9X9X9X8X9X9X9X9X9X8X9X9X9X9X8X9XrX7X8X8X&X&X7X5X&X&X%X[.(.",
"r G ZXCXVXnXlX; . 7 [ 8 >.$.s D ~ F : 4 U L *   # d ;.;.{ & #.-.z.[.9X9X9X8X9X9X8X9X9X9X9X9X9X9X9X9X9X9X9X9X9X9XrX&X6X8X9X7X+X@X",
"% CXVXVXVXjXo e V s . 8 >.O.X.3 U A a H G F G D > { ;.>.8 +.<.%.*._.rX9X9X9X9X9X9X9X9X9X9X9X9X8X8X9X9X9X9X9X9X9X9X5X0X,X6X6X7X7X",
"6 VXNXBXCXY j B n j c 1 8 { } s Y I I J I P D o.} 9 #.,.7 { } p.&.}.rX9X9X9X8X9X9X9X9X8X9X9X9X8X9X9X9X8X9X9X9X9X9X9X9X8X7X9X9X9X",
"* sXjXCXVX` e v n c p i e . } f P L J I P / X.;.+.7 o.[ & $ $ | s.[.8X9X9X9X9X9X8X9X9X9X8X9X9X9X9X9X9X9X9X9X9X9X9X9X9X9X7X8X7X5X",
"b = < ] ` 6 e M c j j v n $ +.>.D L J P / @.@.-.9 ..d X p p x  .s.[.9X9X9X9X9X9X9X9X8X9X9X9X9X9X9X9X9X8X9X7X8X7X5X7X7X8X7X%X&X%X",
"T n g 2 e 2 b j p i E T c + [ ;.s Y P / ;.;.-.9 7 8 O i v c x e.&.c.9X9X9X9X8X9X9X9X9X9X9X9X9X9X9X7X%X{._./.}._.(..X,X@X.X.XXX[.",
"Q Q r n M x x j p c n c p r X 9 X./ H [ { 9 9 7 o.& * j x p c e.u.E.9X9X7X9X9X9X9X9X9X9X9X9X9X9X9X8X9XOX X/./.E./._.<X.X|.|.).E.",
"N N n v x h x i i p p x c p X [ -.#.#.#.+.8 7 X.d & h h c i B v u.(.9X5X+XrX9X9X9X9X9X&X&XrX9X9X9X9X9X9X X%X{.(./.<X.XT.T.h.s.u.",
"v x n B N e c M v R c t R n O #.;.-.-.@.-.o.X.X.X i i i j p n 4.=.x._.5X{.OXrX9X9X9X9XwX{.%X7X9X9X9X9X&X X+X X.X)..X{.!.T.R.M.b.",
"h M M B H.h x c x c F.i M i o $.-.$.-.$.O...d s $ n R M b n j v 5.s.>X/.oX[.&X9X9X9XwXrX7X_.[.%X8X8X7XrX7X&X+XQ.c..X).p.u.d.z.h.",
"x v x N p e p x x j p 2 o . < O.@.;.-.} } w , : + n B v c x i i 5.=.3X_.7X(.oXrX9X9X0X9XOXOX(.(.{.%X X&X[.7X9X%X^.v.j.S.y.a.=.1X",
"h x i j v p j i x j $ < 4 F 5 6 O.O.o.o.w 6 A 4 X p v c c c j m t.u.).c.%X/.}.oX8X0X6X6X%XoX>X/.T.(..X'.Z..X(.7X9X#X*XI.V.| qX'.",
"n g j R n M B c r $ F ` ^ ^ J 4 P P U , 6 I ~ H 4 % y F.n j v W 5.x.b.s.%XR.(.}.%X&X,XrX&X6X+X(.c.T.).!.Z.c.M.d.).6XyXyX3XeXH.0.",
"c j R c n M n M $ a ~ H J J J a G L < 5 I ^ H J ` ^ % y n b M n m %.y.v.#Xc.E.R.{.|.'.9X6X XoXoXR.z.x.z.Q.p.Z.y.s. .;XyXeX6XW.7.",
"x j K.F.x x p % a ` g A U H I J 4 3 : K ~ J J J I K K < e j k M c 5.u.s.$X9.T.T.[.M.z. XrX&X,XOXoXT.d.p.b.x.u.y.u.*.f.xX1X3Xw.1X",
"x j Q E j j j . ^ K 4 H I J ~ J < : 3 < F ~ I H L L H @ . y B b 5.3.e.s.OXW.f.z._.M.c.^.%XrX+X[.,X[.T.s.y.x.s.x.y.a.%.u.].-X* C ",
"c i M x n p c o A < a ~ ^ ~ H < X . X . @ F ~ ~ ~ ^ 4 K < * n ( V | t.y.b.+X~.~.<X).'.XXC.eX%X_.|.}.(.T.*.y.u.u.y.u.k.[ q  .o.$ ",
"x c n J.E n M o K 4 4 L F G $ % y j c b * o 4 F A 4   5 @ e B J.c x 9.*.h. X>X<Xx.|.~.h.9.Y.wXQ.n._._.}.c.*.y.y.y.y.y.S.v.,.,.O.",
"k n B n p p t @ ^ H : : X + R x x j g H.c n $   o < @   o g g k j B V g.!.8X5Xa.y.x.m.a.%.6.:X&XZ.~.qX_._.c.*.y.a.y.y.y.y.,.A D.",
"E v j p c p . . 4 < % X y j j c v c n j x j B . 4 % % X e k g k R 7.7.w.Z.7X!.s.l.p.x.i.e.2.0.q.C.V.A.XXC.).z.*.y.y.y.y.y.:.D.D.",
"R c j p c t ` A . : : e j y M R B B R c y E M .   _ ' % y i r N R n w.uXA.wXv.i.].g.d.p.2.e.7.P.U.X.,.A.>X8.W.Z.e.a.a.y.y.a.:.>.",
"c i i j M o CX] . 3 @ * j b J.K.J.J.M M p B R @ hXVXjX2 b c j x x j h *XW.~.tXW.q.l.g.y.4.2.B.K.=XY.[ >.;XL.6XqX9.w.| :.y.y.y.a.",
"x p B p N + U nXmXhX+ u p v B E c c n n i n M @ CXhX1 k c j B h x g V 1XV o.`.8XV V 5.*. .b 8.W b =XC Z L l.].w.0.x l q 8 %.i.y.",
"h j x h N $ 5 hX-X4 j k h M B j h h v j y i y < jXU 2 x j j c r h j j C V c 8.j.W.M z g.g.T 8.p g N =X- 0 = 2.z m M n x e = , q ",
"B n x i E $ ' dX# M j h g M R n k x v p i n * BXdX* h g g k g j V N j g W c h q j.q.j 5.i.B R b s O 0 o.6 = V 5.v M l i y c e = ",
"B M c h u < hX6 e x k g c j B x h i y h n n o VXnX< i M n M h x B M k g g k y p i l l p 3.4.M p X d d pX, = v V x J.c n n M j y ",
"h T M u 6 mXVX@ M x t x B B y y j c M B B B < zXbXdX2 c v v ( v h T M k e g B M B x u l B 8.t t s / n R / v c H.n j B c v c W v ",
"j ! k 2 ' zXzXt x v p T c E c c M N M v B W n M h V v k g g y h k E b g u c M V c n p B v E x v n / M c M W n M p M n j g g y g ",
"j g j n E g k x v c c c x v v j x n n x h M g g N n j h i p t g j g g n E h x x c c c x c v v h x n n c k M g g M v h h i g y g ",
"v k n n N N v k p p i n p v p W y n M j v v g k N k g g p b g g n k n n n n c j j j y n p c j W y v n x b b i j M j g g g n g g ",
"k g R M M x M c c i j c i c l j x x v k j j g g k g g J.E E c c k j ( N N k M k x i x c p c j x x k x k j k j g c g g J.E R b b ",
"g j b M h M c B c c n R M t x n E V M g k M R M M n n E n i b F.g j k n g n v B c c n B B r x n B E B g k M B M n M n E v g v W ",
"g k j h h j j p T R v E x R v c M ( ( g M M k j k E M M p p b n g k k g j j j g T B n ! x B v c B ( E j M T j j k ! M n g i b M ",
"g h y M c h j r Q c j x R n j j j x h b T k b j g k j T / i b n g j g v k h j u W c j j B B h h h x k b B k b j j g k B c g x M ",
"k g e h n p T R c k c j v c j c h x v g R j v x k b v E c k y n j g e j n g M B c j c j v c x c h x v g B k b x j v b ! b k i b ",
"g y i x p j j c / c p i c p j j u g b v n n h h n t n k j t i p i y i j h j h v n x j i c p j h u g v b v v g k n t b c g t i g ",
"c j j c x j j T c j p M M c E n h n K.M g y g g k h g g x i x c c j j c x j k M c j j n M c W n g M K.M g y i g j h h y x i j c ",
"R n i M B c n j g i E n v W M p k B ( M k k n M c b k g c c x n E n g n M c M j h i R M c Q M p j E ( M k k b M c v c j c c x M "
};
