/* XPM */
static char *death_31692725076[] = {
/* columns rows colors chars-per-pixel */
"64 64 256 2 ",
"   c #010101",
".  c #0C0B0B",
"X  c #090606",
"o  c #120D0B",
"O  c #170504",
"+  c #1B130E",
"@  c #1A1207",
"#  c #040B13",
"$  c #160E12",
"%  c #0C1419",
"&  c #121214",
"*  c #1C1512",
"=  c #1C1B1B",
"-  c #161719",
";  c #280907",
":  c #29160B",
">  c #35110B",
",  c #241B13",
"<  c #291E15",
"1  c #231C1B",
"2  c #361916",
"3  c #310A0F",
"4  c #2D2219",
"5  c #2D2216",
"6  c #32251B",
"7  c #3A2B1E",
"8  c #38271B",
"9  c #383112",
"0  c #181B24",
"q  c #09152B",
"w  c #261E25",
"e  c #1E232A",
"r  c #18242A",
"t  c #0C2D36",
"y  c #292628",
"u  c #3C2C21",
"i  c #322A2A",
"p  c #3E3021",
"a  c #3B322C",
"s  c #252B34",
"d  c #2D2E32",
"f  c #372D32",
"g  c #29323B",
"h  c #3A3537",
"j  c #2E3324",
"k  c #460B06",
"l  c #560504",
"z  c #471314",
"x  c #521611",
"c  c #691714",
"v  c #781A19",
"b  c #6E0F0C",
"n  c #463315",
"m  c #512D13",
"M  c #77291C",
"N  c #4A1C2F",
"B  c #781A2F",
"V  c #453324",
"C  c #4A3726",
"Z  c #4D3A2A",
"A  c #4B3828",
"S  c #543E2C",
"D  c #583F2C",
"F  c #463B3B",
"G  c #4E332A",
"H  c #782629",
"J  c #6E2C2D",
"K  c #3D4521",
"L  c #67471E",
"P  c #56412E",
"I  c #5A422E",
"U  c #584C25",
"Y  c #5D4431",
"T  c #5E4835",
"R  c #584333",
"E  c #535D2F",
"W  c #63462E",
"Q  c #614633",
"!  c #644935",
"~  c #694D37",
"^  c #664C38",
"/  c #6A4E39",
"(  c #6D513B",
")  c #6F5033",
"_  c #72543D",
"`  c #78593C",
"'  c #745331",
"]  c #78663B",
"[  c #182D45",
"{  c #31364B",
"}  c #243F63",
"|  c #262458",
" . c #4D314C",
".. c #712B4D",
"X. c #612B54",
"o. c #384448",
"O. c #384C56",
"+. c #38517E",
"@. c #4B4547",
"#. c #554A4B",
"$. c #434D57",
"%. c #5C5252",
"&. c #57565A",
"*. c #4E5455",
"=. c #6E5441",
"-. c #745641",
";. c #765943",
":. c #7A5B44",
">. c #7D5E48",
",. c #755B49",
"<. c #625556",
"1. c #655A5B",
"2. c #6A4749",
"3. c #7C614B",
"4. c #6D694A",
"5. c #545372",
"6. c #6C5D69",
"7. c #5A636E",
"8. c #686668",
"9. c #777672",
"0. c #881B17",
"q. c #971813",
"w. c #8D120A",
"e. c #B81C17",
"r. c #AC1710",
"t. c #8E2519",
"y. c #B52E1A",
"u. c #872626",
"i. c #9B2929",
"p. c #892F34",
"a. c #B02D2F",
"s. c #A10E25",
"d. c #CF1810",
"f. c #FD1711",
"g. c #CB221A",
"h. c #DB2319",
"j. c #D0370E",
"k. c #E9251A",
"l. c #FD2619",
"z. c #E23D0E",
"x. c #C93027",
"c. c #EE332D",
"v. c #CB1F36",
"b. c #8C4A19",
"n. c #8B5430",
"m. c #A95137",
"M. c #876A3D",
"N. c #907035",
"B. c #A47639",
"V. c #AD7130",
"C. c #A44706",
"Z. c #D4410E",
"A. c #F85211",
"S. c #FB7210",
"D. c #D54E34",
"F. c #F95834",
"G. c #EF4C2D",
"H. c #FF6936",
"J. c #FE7836",
"K. c #FF682A",
"L. c #D97633",
"P. c #8E314D",
"I. c #A8364A",
"U. c #891F58",
"Y. c #C63B46",
"T. c #805F4A",
"R. c #835C48",
"E. c #964449",
"W. c #AB4A45",
"Q. c #83634B",
"!. c #987746",
"~. c #896A53",
"^. c #93735B",
"/. c #8B744C",
"(. c #B66F56",
"). c #B1746B",
"_. c #976771",
"`. c #CD524F",
"'. c #D96D54",
"]. c #A9823A",
"[. c #FE871A",
"{. c #FE991B",
"}. c #CD8E38",
"|. c #F79133",
" X c #FEA93D",
".X c #FEB22A",
"XX c #FFCC34",
"oX c #9B8947",
"OX c #AB914D",
"+X c #B6A54F",
"@X c #988677",
"#X c #B29573",
"$X c #D09943",
"%X c #F39150",
"&X c #CCAC55",
"*X c #D3AF50",
"=X c #F5B34E",
"-X c #CE926B",
";X c #D5B56C",
":X c #EE9D6A",
">X c #FEC853",
",X c #FED156",
"<X c #FFD94A",
"1X c #FFEC4E",
"2X c #FBDC65",
"3X c #EBCB70",
"4X c #FFFD76",
"5X c #FDEB6A",
"6X c #D7C065",
"7X c #195DA1",
"8X c #587290",
"9X c #7C7682",
"0X c #437CB7",
"qX c #476BC9",
"wX c #2F4DD1",
"eX c #8E7394",
"rX c #997DA3",
"tX c #A25288",
"yX c #C96185",
"uX c #7C8EA5",
"iX c #86868B",
"pX c #8B8B91",
"aX c #969699",
"sX c #938B8F",
"dX c #A9AE91",
"fX c #9B86A4",
"gX c #9799A5",
"hX c #A996B3",
"jX c #A6A5AB",
"kX c #B2ABB9",
"lX c #AEB3B6",
"zX c #A48F88",
"xX c #D5B099",
"cX c #F9BB87",
"vX c #E79FAA",
"bX c #FACA90",
"nX c #FDEE8C",
"mX c #FFF4BA",
"MX c #FFF0AD",
"NX c #DDCBA2",
"BX c #9494D2",
"VX c #C2B2CC",
"CX c #D3D4D8",
"ZX c #C8C7CE",
"AX c #FFF4C6",
"SX c #FCF2CF",
"DX c #DBDBE5",
"FX c #DDCCEA",
"GX c #E9D9F0",
"HX c #DCEEF3",
"JX c #EAF5F8",
"KX c #FEFEFE",
"LX c #F4F4FA",
"PX c #EEE8F0",
"IX c #FFD4CF",
"UX c #B8DCDC",
/* pixels */
">.:.A / ( Y Q I P ! ~ Q I D I S _ ( ~ Q ! W ( ! Q D Y Q Q D ^ ~ >.>.Z / / Y Q Y I ! ~ Q D I P S ( _ ~ W ~ Y / ! Q D D Q ! D ~ ~ ",
"( ( / ! Y W Q P P I I W Q Y S Q / ( ~ Q C ~ ~./ Q.! ! D ^ S / ~ ( / / ! W W Y P S I I Q Q I S Q / / / Q V / ~.( T.! Q D ! D ( ! ",
"~ W / ` ( V Q ( ~ _ ! A _ / _ I I I I ~ ! / Y / / S S S Y S / / / W / ' ( V Q _ ~ _ ! C -./ _ W I I I ~ ~ / Y / / S S S Y S / / ",
"I ( ( ( Q.I Q / W ! 3.S ` ~ ! ! _ ~ / _ _ ( / Y / / -./ / / T / I ( _ _ Q.I Q ~ Q ! >.S _ / ! ! ` / / _ -./ ^ Q ( / -.( ^ / Y / ",
"W ~ Q / P V D Y Q Y P I W W Y _ _ ` ~ ~ ! P ! ! ( ( _ ^ Q Q S G Y ^ Q ^ P n Y Y Q Y P D Q Y Q _ ( ` / ~ ! D ^ Q ( ( -.~ ! Q S S ",
"I Q S Y ! I Y S Q W ! ^ / ( W Q ! ~ D _ _ ! I P ~ ( ! ! ~ ! D ! Q Q S Y ! I Y S Q Q ! ~ ~ ) Q ! ! ! D -._ Q Y D ! ( Q ! ~ ! D Q ",
"_ I Y -.~ ( _ ! C Q / / ~ ( ! ( ( I ! ! _ Q W T ~ / / R./ D / :./ I Y -.( ( ( Q G Q / / ~ ) ! / / Q ! ! -.Q Q Q ! ( ~ R.( D ^ ,.",
"! I ( / / ( / _ S _ _ :.;._ / Q.Z ;.;.W P ! T ( / R.-.~ / ~ =.( ! I _ / ^ ( ( _ S _ -.:.;._ ( Q.Z ` ` Q D Q Q ( ( R.-.~ / ~ =.( ",
"! T ^.R.Q Q D ~ Q ( ~ >._ _ -.-.I ( :.;.! P ( ( Q.^ ! Q Y Y Q ( Q T ^.>.! Q Q ^ D ( ^ >.( -.-._ P ( 3.` ! P / ( Q.~ ^ D Y Q Q ( ",
"Q D R.-.D ! D D Q ( / _ -.` ~ _ Y ` _ / 3.P ^ ;.^.Q ! T Y T -.Q Q Y T.-.D Q D Q ^ / / -.;.` ~ _ Y ` _ ^ 3.P ^ ;.^.Q ^ Y Q R -.^ ",
"^ S ( Q 2.Q ! ~ Y ! / _ ( _ _ _ Y ~ ;.! Y P ( / ( ! T Q Z p ^ 3.~ S ( ! ^ D ^ ^ D ~ / ( _ ( -.-.Y ( ` * p P ( / ( Q Q ^ Z p ^ >.",
"Q Q / ~.-./ ( Q Y / I / ( ! ,.3.Z I ! ^ T R ^ ` ! T P T ~.P -.~.Y Q / ~.-./ ( Q D ( D / / Q ,.>.Z I T X 6 P / ;.^ Q D T ~.S -.~.",
"Y / -.^ D Q ! Q :./ S Y ! Y ,.! Q Y P Q.! ~ P Y Z :.=.-._ Q Y T Y / -.^ D ! Q Q R./ S D ^ D :.Q Y Y S o 7 / S I Z >.( -.=.^ R T ",
"-./ Q D Q S S ( / / ,.R Y D Q ! ! * = o & * ( 3.^ ,.-.T T Q Z T -./ Y S Q S Z ( / ( >.D R R ! ! ~ ! u   V Q _ + S ;.-.Q T Q Z Y ",
"-.^ Y D ! -.Q ^ ` _ -.-.Y S ^ i d kXDXCXPXaXi 4 ! ( Q Y Q S V ( -.D V V ^ 2.P S ;./ -.-.Q Z _ -.-.Q h u ' ` S X S =.! Y Q S C ( ",
"Q S S Y / _ Q ! _ ^ ! Q Y ~ 6 aXKXhXhXPXLXHXKX9X4 I Q Q / ! Y Q ! V o & g { O.e V S ^ ^ ( ' / ,.~.P ] =X}.( X   Y Y ! Q ^ ! Y Q ",
"Q D ` S / Q ( ^ ( ^ ! I S P h lXVXeXfXDXGXDXLXLXy u / ^ ^ D ( Y W P ` 7   - s s =   Z W V.9 : X A N.}.+Xa o.. + Y Y ( / ! Y ( I ",
"I Q Q I ~ Q >.Y / ( Q T I 7 VXGXrXfXgXDXDXDXDXKXjXh Q ^ Q Q ^ C I Y Y Y Y o     e e X }.>XN.<X$X*X}.# & s X   D I / / Q Q Q ! C ",
"_ / W S ` ! P C ! ( R U Z * aXfX .eXhXLXKXLXCXDXKX8.u D S ! D Y ` ( I 8 I *       y ].<X2X+XoX5X>XB.{ y .   , Y ^ _ I D S ! D Y ",
"_ ( Q Y Z Q Z S * 5 5 , * o 0 sXlXrXfXiX7.iXLXVXPX8.A / ^ ( Y Q ( p * 0 0 - 0     9 2X/.&.s X < 5X$Xh       / ( ! ~.! ( ~ ( Y Q ",
"I =.( Y p I 7 + % r 0 1 a . 7.jXpXVXhX-   h KXhXFX9.S ! ~ ! ,.6 * s g $.O.O.$.g Z }.9 O.O.g   E oX        u 7 u 4 Q _ ! ~ ! :.( ",
"Y ,.! P Z < v M g.i.s g h   lXpXX CXVXeXy . &.GXpX= A T P P + d e e e % - - & 0 i n   - - o N.+X{ .       7     < ( ^ Q P S Z P ",
"I I I / ` X q.l.l.l.u.e f y - iXCXhXrXkXCXgXjXKX*.7 I I P o X i n *X&X}.n @             m $X5X4.y s %         6 / ~ I I S S Z P ",
"/ T ( 6 ; N u.g.d.h.l.u.g 1.y r 8.eXrXkXLXKXKX9.6 P P P S p C }. XOXp K OX*X5   e .     @ 9 6X]   . s %     8 T ( Y P P S ( P P ",
"! R 8 q.a.u.H c k 0.f.0.r o.&.R f  .eXpXfXCX9.  X # 4 ~.,.;./.*X2XU p r d - X e 0 X         oXoX    s 0     I P ! Y P /.-.-.! ^ ",
"P 5 x h.u.x 0.l.h.z ; z u.N { *.<.#. .h i - = h G J n M.OXoX*X6X*XN.y e   X N m       s { P *X=X9     X 0.a.1 & * ( ^ 3.^ S / >.",
"y 2.v l.q.b l.l.0.  3 B e.l.0.@.&.%.#.y y #.%.t q.f.K.4X&X&X^ ! 7 - e ; l j.A.A.b > . g . L }. XV.    b c.eXqX+.X ` ( ~ D D ^ / ",
"JXIXd.r.k v q.b < - a.x w.l.l.J O.%.%.#.F <.o.3 b e.f.V.oXP ! A     O Z.S..XXX.X[.A.m s     z |.=XJ & a.F.8X} 7Xq Z Y _ ^ S ~ / ",
"uXsXvXQ : < u C ^ 3 i.3 q.l.k.r.g *.%.%.%.*.#.k.3 l h.  P OXOXoX    l [.1X4XnX4X1X.Xj.e     % 3.%XR.(.v.G.^.8XgXuXo ^ ,.! T S ^ ",
"+ o.UXh Y Y D ^ / < z v c g.k.l.y.g *.&.*.O.H l.k k b b L <X,X4X+XC.q.XX4XMXSXAX4X<XA.L #   { zXn.(.`.e.G.cXcX%X).o ^ Q R A S S ",
"lX    C T Q Y ( Q T < H c ; d.l.l.y.@.&.*.^ d.c.; $ B k.K.m M.] U C..XXXMXAXMXmXmX1X[.Z. .# + p.'.J.D.F.H.L.-X2.F Z V Z Q D Q Q ",
"8.*.& V / ! / Q D S ^ O v B c b b r.J $.*.h.l.z ; H u.h.d.  W ~ w ^.[..XnXAXmXAXMX<X[.x.G.: % -X6X;X=X|.F.2.NX..(.MX  Y ! ^ Q / ",
"j aXLX1.Z I Q I S ! ~ 6 z a.J q.d.g.g.2.v w.>   z a.u.b l O %   $.KX'.S.1XnXAXMX4XXXZ.f x.r.{ 0X8X(.2X,X|.N #X(.:X3.6 Q Q I ! ~ ",
"X & ZXpX8 T Q P S I D u z i.t.x.l.k.h.g.l.q.< ! u z i.r.d.x.FXHXaXJXIXS.XX1X1X1XXX[.Z.  J `.7X&.Z.K.=XD.x.O M =XxX= Q D ! D _ ! ",
"^ Y 8 * Z C Q _ ~ _ ! 6 > H q.e.g.h.h.k.l.v 6 / / < z G. X<XxXKX9.gXZX'.j.S.{.[.z.j.D , n.B eX`.G.|.Z.g.tXq #XbX-XX P S Y S ~ ~ ",
"Y ) ( _ Q.I Q ! ! ! T.1 . d e p.u.h.k.l.d.1 ^ Y -./ O L.<X>XnX7.* * , * + t.Z.y.Q ~ R.X 6.s c ).=X%X..X.| # bXAXm Z -.=.^ ( T ! ",
"Y ~ T ~ S V I Q Q Y < 1 i { h o.{ t.f.l.u.o C I / / u c *X0.B.n Q ^ Y / P V P V.!.T 6 @X8XoX*X;XNX+XqXtX3 q BXqXo ( _ ~ Q Q S S ",
"Y T P I ! I I S Q , h 6.<.%.1.a h o.i.m.O.* i * u ^ ! V *XE ~ ].I Q S Y W I P }.,X+XOXnX-X$X|.I.tX`.`.J.k iXBXwX$ ( ! Q ^ ! Y ! ",
"( P I ` / _ ( ! , a 8.#.%.#.%.@.y *.7.$.f F 6.@.f , ! R.<X4X^ -._ I Y -./ ( / T  X*X+X3X` y.J.W.m.A.A.J.; #XAXxX+ ~ ~ R./ Y ^ ;.",
"Q Y _ ^ / ( / 6 f 1.<.%.#.%.#.<.h h R f 1 #.<.<.8.h , ~ B.>X&XOXQ I _ ^ / ( ( :.n.( u @X  G.|.p.W.G.c.J.; dXMX%Xm., ;.~ / ^ =./ ",
"Q T ^.T.Q Q D . 1.1.@.F %.%.%.%.h w w i #.%.%.#.&.#.  + I N.,X5X&XoX^.R.Q Q D ~ Q ^ *   m H.H.W.P.G.a.F.m ^.MXbXcX& Q Q Y Y Q / ",
"Q P T.-.I Y D . %.#.f @.%.%.<.y . . X h 1.%.%.%.%. .y   T }.|.M.oX+X=X(.Q Y Q D Q / D x H.G.G.`. . .H G.F.m 9.dX@X& R T T T -.! ",
"/ S ( ! 2.D ^ . f i f 6.6.i & V Z Y S . = %.%.&.f . #.# C ' ] 3.~ I N.}.V.Y ! ~ I W ; `.a.a.F.F.3 $ < t.G.G.x > 3 ..: R Z p ~ >.",
"T Q / ~.;.D , * %.#.f %.i 6 ( 3.G W Q T V . 1  .1   F - 3.P _ ~.Q Q ~ ^.R.~ =.Q I ~ X X...c.G.P.N 2 ! * D.F.H.H.a.P.i.3 ,.P =.~.",
"Q / _ ^ W o $ y @.@., o u Y ,.Q Q Y S Q.! Z o y f w X Y ( ! R T Y ( _ ^ W Y Q Q ` ~ ; v...i.P.| I.c u R M (.F.G.I. .I.q.1 ! Y T ",
"-./ Y D S h h * = $ , D R Y Q ! ~ ! ( Q Q Y C X * o   S T T P I -./ Y I Q S S ( ~ ( 8 M I. .| ..c.v u T * N P.g.v. .P.t.< Q P R ",
"-.^ Q D + KX8.  $ y . -.Y S -.-._ _ _ ! G _ C @.sXiXy C Q P A ( _ ! Q D ! -.D ! _ ( ;.4 B I.i.I.H 2 T ! X y.Y.P...X.I.t.4 P V ( ",
"Q D D I , pXZXjXkXo V ! Y ! ~.^.~.Q._ ( S _ V 7.JXLXh Z ( Q Y Y ! P S I / -.! ~ _ / Q ^ y 0.v.6.[ S -./ 7 k c P.I.a.k.B e C Y Y ",
"W I _ S , - lXDXpXK ~ P S ~ ` _ ! ^ ! / S / D o 9.CX1 S ! Y ( Y Q D ` S / ! / ^ 2.~ / D D 6 s } y S ! =.S S V k c ,.U.U.[ , ( D ",
"I I Q I , 9.iXX V ' Q T I ( _ W D Q / Y Z S D S y aXy S Y T ! C P Y Q I ~ ! >.I ~ =.Q R I ~ : m 5 Y ^ S Z I I V i q t U.z u ^ G ",
";.~ W S < sX1.8 ! ( Y I I ( -./ Y Y ! S S / ( ! 4 9.CX4 A ! I R ` / W S ;.! D C ! _ D S o ; U.8 < Y ^ S S / / ! ^ S 6 L zX[ u D ",
"( ( Y 5 iXPXr P Z ! T P ! Y _ Y W P Z I / / _ / 4 gXKXCX4 ~ Y Y _ ( Q Y C Q Z S Z ! G # s.u.5.[ 6 S S Y ~ ( ( _ Q ~.S t vXB , ! ",
"I -.u uXKXPXf ~ _ Q Z Q _ -.Z Z I Q ( ` _ ( ! 3.T =.~.,.T T :.( I _ ( Y V D _ / _ W C S _ 2.D G S Q ( _ _ ( ^ R./ Q / a +.yXc ~ ",
"I ,.^ P P L _ _ ! / S ( ! -.Q ! _ ( _ ! _ >.~ ( P ( ^ T P P Z P Y ,.^ P C ~ _ ` ! / S ( ^ ;.W ~ _ / ( ~ ` :./ / S _ ^ Y S S S I ",
"Y P I / ` U Q Q ! ! ! ! ! ^ ~ Y Q / ( Q W / P P / ^ R P S S Z P P P Y / -.D Q ^ ! ~ ! Q Q ^ ~ I ! / / Q Y / D S / ~ W I S S Z S ",
"/ T ( ^ ^ ~ ^ T D D S / D ~ D :.Z ~ ( Q ! ! P R / T P P S / Y S / T ( / ^ ~ ^ Q D D S / D ~ D :.S ~ / Y ! ^ S T / Q P P S / P P ",
"! R _ ( ( I ( Q ! D D ! D ! W Q Y Q ! Y Y Y I R ! P S ~.;.-.Q ^ T R ` / / U ( Q Q D Y ! D ! Y Q Q T ! T R R I I ! Y P ~.;._ ! ! ",
"P R ^ ( I ( ~ _ ! ^ ( -._ C ! ^ ` :.=.P Q ( ` _ ( ( / :./ S / R.P T ! ( R ( ! ;.! Q ( _ _ C ! / ` :._ P ! =.-.( / ( / ;.^ P ~ 3.",
"P T Y I Y I I I =._ / ;.Q _ ! ! ( :.;.Y _ -.T R T ;.=.^ D D / / P T T Y Y I Y I =.-./ -.W _ / ! ( :.` R _ _ T Y Y ;./ ( I S / ( ",
"I U S ( Q Y Y C :.! Y Q -.( Q D T W T ^ =.Y T Y Y Y Y -.^ S ^ / P Y Z ) Q Y I A :.~ R Q _ ( I I Y T T ^ _ R Q Y Y Y Y -.^ P ! ~ ",
"Y Y V Y ^ D _ _ ~ Y Q Q / ! Q Q I Q ! P _ Y ! Q Y Q ^ ,.^ T S ^ Y D V Y ( P ( _ ^ T Q Y / ! Q ! I Q ! P ` T ^ Q Y ! / ,.! T Z / ",
"S Z S T I Y Y ~ ^ ! D S ! S Q Q A P ^ / / ( Y I ^ Z ^ ^ D C S S S Z S Q I Y Y ^ / Q Y S ! S W I Z P ^ ^ ^ ^ Y Y / Z ^ Q P Z S P ",
"^ T D ! Q I D =.^ Y D ( ( Q ;.~ I ~ ^._ P P P P W I I Z Q S Q ^ ^ Y Y ^ T Y Y ( Q Q Y / ( ! ;./ I ~ ^.( P Z S S Y I I Z Q D T Q ",
"-./ S / _ ~ 2.Q D S ;.( Q R._ S R ;.3.) T R ^ _ ! ! ! R Q ^ Q / -./ S / / ! ( Q D S ;.( ! :._ S Q ;.3._ Q T ! _ ! ~ Q Y ! ^ Q / "
};
