/* XPM */
static char *death_81692725077[] = {
/* columns rows colors chars-per-pixel */
"64 64 236 2 ",
"   c #010101",
".  c #0B0808",
"X  c #120D0A",
"o  c #1E0102",
"O  c #16110D",
"+  c #1B130E",
"@  c #141313",
"#  c #1D1611",
"$  c #1C1A1A",
"%  c #02181C",
"&  c #231A13",
"*  c #221C1D",
"=  c #241916",
"-  c #381010",
";  c #2D2119",
":  c #26211D",
">  c #32251B",
",  c #3C2B1E",
"<  c #1E1E22",
"1  c #271F25",
"2  c #371E21",
"3  c #182529",
"4  c #1D3238",
"5  c #2B2424",
"6  c #2E262A",
"7  c #282627",
"8  c #392C26",
"9  c #3F3021",
"0  c #2B2D30",
"q  c #362D31",
"w  c #3B3335",
"e  c #373637",
"r  c #2B3035",
"t  c #430C0D",
"y  c #44181A",
"u  c #59191B",
"i  c #530D0B",
"p  c #69110D",
"a  c #671515",
"s  c #731110",
"d  c #462826",
"f  c #572A2B",
"g  c #453324",
"h  c #4A3726",
"j  c #4C3927",
"k  c #4A3728",
"l  c #4E3A2A",
"z  c #44372E",
"x  c #543E2C",
"c  c #583F2C",
"v  c #543A27",
"b  c #443B3D",
"n  c #593032",
"m  c #7B2626",
"M  c #722E28",
"N  c #6B230E",
"B  c #56412E",
"V  c #5A422E",
"C  c #5D4431",
"Z  c #5E4835",
"A  c #65452C",
"S  c #784529",
"D  c #614633",
"F  c #644935",
"G  c #694D36",
"H  c #664B38",
"J  c #6A4E39",
"K  c #7A4D34",
"L  c #6E513B",
"P  c #6F5230",
"I  c #72543D",
"U  c #765538",
"Y  c #78502D",
"T  c #3C3F42",
"R  c #463C43",
"E  c #3A4447",
"W  c #244A4F",
"Q  c #4D4344",
"!  c #454445",
"~  c #564B4D",
"^  c #594E4F",
"/  c #514649",
"(  c #5A4F50",
")  c #57475C",
"_  c #465558",
"`  c #5C5252",
"'  c #565558",
"]  c #4E4F50",
"[  c #6F5441",
"{  c #745641",
"}  c #765942",
"|  c #7B5B44",
" . c #7D5D48",
".. c #765B49",
"X. c #655B5B",
"o. c #625758",
"O. c #6F4444",
"+. c #7D614A",
"@. c #535761",
"#. c #645667",
"$. c #6A6769",
"%. c #696A73",
"&. c #797779",
"*. c #73666E",
"=. c #881A17",
"-. c #9A1914",
";. c #8B110C",
":. c #B81D17",
">. c #B0100B",
",. c #912C19",
"<. c #AA2D1B",
"1. c #882425",
"2. c #952727",
"3. c #8D352E",
"4. c #AE2B27",
"5. c #931F20",
"6. c #C71C13",
"7. c #D90000",
"8. c #F91F12",
"9. c #F11A0F",
"0. c #D73D0D",
"q. c #CD241B",
"w. c #D72319",
"e. c #D03C11",
"r. c #E62318",
"t. c #FF2416",
"y. c #F9261A",
"u. c #EA3C09",
"i. c #D22922",
"p. c #CF2B25",
"a. c #F52E22",
"s. c #B34A1C",
"d. c #88492A",
"f. c #89532C",
"g. c #96572A",
"h. c #865B3A",
"j. c #994C2B",
"k. c #A84B25",
"l. c #AA5227",
"z. c #B84F22",
"x. c #966C36",
"c. c #906D39",
"v. c #A57639",
"b. c #BA7A37",
"n. c #AF6A31",
"m. c #C84715",
"M. c #D8531B",
"N. c #D34A15",
"B. c #EA440C",
"V. c #FE4405",
"C. c #FB4909",
"Z. c #FD570C",
"A. c #FA5B13",
"S. c #E45718",
"D. c #FF6412",
"F. c #FE6B14",
"G. c #F76718",
"H. c #FE7C1C",
"J. c #FE7217",
"K. c #EC6619",
"L. c #CB5C24",
"P. c #C9682A",
"I. c #DB7628",
"U. c #C9732D",
"Y. c #E87C28",
"T. c #FF7B23",
"R. c #F26C2C",
"E. c #E75F23",
"W. c #8F3E40",
"Q. c #805F4A",
"!. c #845F45",
"~. c #83634C",
"^. c #8B6145",
"/. c #876A55",
"(. c #8B6B52",
"). c #876751",
"_. c #93735B",
"`. c #927345",
"'. c #E86E61",
"]. c #B9853B",
"[. c #A7883F",
"{. c #FE851D",
"}. c #D78733",
"|. c #CB8C37",
" X c #FE8C24",
".X c #FC8828",
"XX c #FE9223",
"oX c #FD942A",
"OX c #FE9C29",
"+X c #FF9A35",
"@X c #EC8E30",
"#X c #FEA32B",
"$X c #FEA92F",
"%X c #FFA734",
"&X c #FFB334",
"*X c #FEB93A",
"=X c #E9AB37",
"-X c #FFC33C",
";X c #FFC93E",
":X c #B68A43",
">X c #C59A47",
",X c #C18440",
"<X c #D3AD47",
"1X c #E7B246",
"2X c #DB8E7C",
"3X c #FFCB42",
"4X c #FEC345",
"5X c #FFD445",
"6X c #FFDC48",
"7X c #FFD748",
"8X c #FFE04C",
"9X c #FCCD64",
"0X c #7E7984",
"qX c #887291",
"wX c #7F8185",
"eX c #908B94",
"rX c #9C84A5",
"tX c #A893B1",
"yX c #94ABAD",
"uX c #A5A6A7",
"iX c #B5B6BA",
"pX c #AFA9B8",
"aX c #C5BCB6",
"sX c #C88A8B",
"dX c #B4B4C3",
"fX c #C9BCD4",
"gX c #BEC2C0",
"hX c #CECBD3",
"jX c #DCDCE5",
"kX c #D9C8E0",
"lX c #DEEBF0",
"zX c #E9E9F3",
"xX c #FFFFFF",
"cX c #F5F6FB",
"vX c #F2ECF5",
"bX c #F2D9DC",
/* pixels */
" .| j L L Z D V B F G F c c V x U L F Z F V L F D c C D D V F H !.| j G L A Z V c H H F c c V x I I H D H A J F D c c D D c G G ",
"L L G F A V Z B B V B D F V x D L L G F g G (.H ~.F D c F B L G L L G G C C Z B x c c F D C c D G H G D h G (.J ~.F D c G x J F ",
"G A G I L g D I G I F j I L I V V V V G H L C L H x x x C x J H G A G I L g F L H U F k { J U V V V D G H G D H H c x x C x J H ",
"V L L I ~.V D H A D +.x U G F F I G L I I L G C J J { I H L D H V L L I ~.B F G F F Q.x { H F F I G J I } J H C L J { [ J J D J ",
"D G C L x g V C D C B B D V D I U I H G F B G D J L I G D F x l D F D H B g V C D C x c D C D [ U I G H F V F F J L [ G D D x l ",
"V D B C D V V x D D F F G I D D G H B I L F V V G L F F H F C F V D B C F V V B D D F H G U c F D G B } I D V B F L D F J D C H ",
"L V V { L L I F h D L L G L F L L A F H U F Z Z G J J !.J c O.| I V V { G L U D k F J J J J G J L D H J I D D D G L G !.J C H ..",
"H V I J H L L I B I I  .U L L ~.l } I C B D Z L L Q.{ F J F { G F V I H L L L L c L { | } U L !.l I I A x F F L L Q.{ G J F { J ",
"D Z _.Q.D H c G C L G  .L U { { B L | I G B J L ~.F F C C C C L F Z _. .H F c H c L H  .[ { { { V L | } F B L L !.H F D c C F [ ",
"D c Q.{ c c D c D L G I } } G I C } I H +.C G } _.F F Z C Z { F D B Q.{ c c F c O.L J { | { F I V { I J +.C F } _.F H C Z C { F ",
"J x I D O.C F G C G G I J I I { C G } F Z B H J L Z C H j 9 J +.H x L F H c F H D H J L L K K { Z H } Z C B J J [ D D H l d G ..",
"Z D J (.{ H [ D V H D G J F ..+.l C F G Z C H } H Z V Z /.V [ /.D F H (.{ J [ D c J D H L F !.~.j D Z J Z V H ..D D c Z /.x { /.",
"C J { J c D D D } J l c F C ..D Z C B +.F G B Z l } L { I F C Z C J I H A C D D | J x C D B.| c C Z A ^.J J c Z v !.h.} [ F C Z ",
"{ J C c F c x J J [  .C C C D F J H P Z Z C I | H ..{ Z Z F l C { J C V D x v L G K L.D j.m.j.J [.d.1X].c.`.k.N.M.|.:XZ Z F l V ",
"[ O.C c F I D H { I { { V x { { I I V ; # ; = H F L F C C x g L { H C c F { c J U G.|.l.oXL.j.<Xl.}.}.N.N.V.V.z.:X:Xc.F Z x g L ",
"D c c c J I D H I H F F C H (._.+.> e iXeXeX#.# , C D F G F Z D F c x V J { F H n..XI.T.+X@X1XE.F.@XC.V.V.V.g.H F Z D F I F Z Z ",
"Z B U B G Z H H L H H c x H { L 5 iXfXkXfXcXvXdX%.6 L H F C I V A B I x G D P A G.&XF.XXA.9X4XOXOXZ.Z.V.m.f.K Z Z G :X`.`.C L C ",
"V V Z V G F  .C J L D D V L { x ] xXtXqXpXjXzXxXvXR d D D D F h V C Z V G F | m.H.#X{.#X$X7X4X$XC.F.%XI.}.b.:Xc.B h.:XH F F P B ",
"U L Z B U F V j D I C C V I U 5 eXrXqXqXhXzXjXjXxXuX* x x F c C I U A B U H B Z.@X*X#X;X8X-X$XF..XG.F.@X1X>Xc.h.d.P.>X4.M P v.`.",
"I I Z V l D l x l F C B F V I @ %.#.tXrXkXxXjXhXzXxXwXg H L V D L L D Z l D ,.F.%X#X6X6X6X&X#X-X$X&X&XJ.E.m.u.L.k.n.x.d.L v.Z Z ",
"V [ L C 9 B I B l l l D F k 5 $ dXdXrXrX#.eXhXtXuXxX0X& H J } J C L L Z 9 V ,.H.5X5X6X7X5X;X6X6X6X3X&X{.+X{.D.A.B.C.XXN.M.Y.z.k.",
"C ..H B l G j t p t > d @ $ @   R lXtX_.    cXjXqXdX1 . & B l V C ..H B j A ,.XX8X6X6X6X6X6X6X6X*XXXXXXXXXOXH.D.Z.K.P.s.s.Y Y f.",
"B B B J } , o a.a.w.y - d b < @ dXfXrXrXE   E dXcXeX  q 6 + & > C B B L U V 0.$X6X6X6X6X6X6X6X6X5X;X;X;X;X$X&X%X{.H.K.g.s.d.P P ",
"L Z L J h @.'.9.r.2.1.4.r.1.1 7 @.) tXtXrX0X$.hXxX*.  e r 2 s s 9 Z L H G ; N.&X6X7X6X6X6X6X6X6X6X6X6X7X3X3X5X7X7X*X=X>X].|.x.n.",
"Z C } z e xX'.7.4.i.=.-.t.r.n E     qXtXrXvXxXxXpX. 3 d m p.a.4.- @ 3 @ O $.R.&X6X6X6X6X6X6X6X6X6X7X7X7X6X5X-X3X4X$X=X1X<X=Xb.>X",
"B j % B iXaXbXj.i y.>.s y.8.f _ ~ 1 1 *.fXjXjXqX@ % M r.-.1.1.2.w.>.'.dX&.xXR.&X6X6X6X6X6X6X6X3X*X#X#X1X*X&XoXJ.H.H.K.L.K M j.^.",
"z ! vXcXxXhXyX3 . i -.u p.w.f E X.Q 1 w @.' 3   % M y.t.;.- w.:.;.y.y.bXlXcXR.%X4X5X8X8X5X5X6X6X;X&X#X%X.XD.F.Z.Z.Y.Y.m.S f.f.L ",
"< cXxXxXxXpXX g !.l . p p.4.1.q ' R R ~ B Q Q E 2 ;.t.i.a 6.y.:.- =.>.sXyX_.sXoX#X$X5X8X5X#X-X5X-X;X XOXZ.V..XI.M.B.@Xb.U.N.N.j.",
"0 xXjXzXcX] V [ F c D d i =.:.d ] ( ( ( ( _ W 2.>.s p.p.i ;.-.y # O O # 7 @ N {.@X#X&X;X7X*XXXoX X%XOX|.}.U.P.s.S z.U +.F D v P ",
"; wXiXxXxX$.h J J F C x h . :.M ] ' ( ( _ O.1.t.6.t 3.-.- $ & 2 x x x D Z Z S D.H.@XXX{.1X;X%XJ.D.Z.A.M.|.].n.A U g.g.g.S h x c ",
"F > : %.$.0 g L F C C J L & 6.i.T ' ^ _ O.9.t.r.s 1.m O C c D D F D V F D D C u..XI..X.XoX*X-XXXF.Z.V.u.s.S x.V D V x.B F c D F ",
"{ L B g g 9 F C c x ..J F # -.y.f _ _ O.y.8.r.s t a = c F F D J { H B G L G P 3.F.1XT..XK.|.@XoXXXZ.V.C.m.S Y I H H @Xh.F F D J ",
"+.+.l G L V D V x H J F c k + p 5.O.) -.;.a p t 2.t > V D c F G ~. .j L G Z D P @X&XA.S.u.j.[.g.}.I.Z.C.V.m.f.G F A v.c F c G H ",
"U G G H A D D x c c c D F c X -.w.q.q.q.6.s u 1.m = c V F x I G L G G F A Z D D b.%Xb.d.B.s.Y x.v.|.U.g.<.B.M.k.Q.G F c F c L H ",
"H A G U L g D I H U D k { J O w.y.r.9.r.r.2.2.m O x x x C x H H G D G I L g A L U l.U.k k.K I c.P S Y G G d.d.s.d.x x x C x G H ",
"B U I L ~.V D H D F  .x I x X w.y.w.r.w.4.1.M u # J { I H J Z J V I U L ~.V F H F F  .x g.S D D L G L I I J H D K [ { J H J D J ",
"C H Z G c g V C D Z x 9 O . 7 4.8.8.r.:.4.d 3 1 # J { H D D x l C G D H B g V C D C c c D c D U U I G G D V H F L L L G F D x x ",
"C Z B V F c C x D C & 5 w / e 0 4.4.3.2.y r / q X x H H H F C F C C B C D V V B C A F H J P D F D G B } I D V V F L F F H F C D ",
"L V V } J I I F h & Q $.` o.^ w W @._ 4 0 ` X.^ w # x !.J D J | I V V { L L U D k F J J J L F J L A H J I D D V G L G !.J C H | ",
"F V I H J L J I + R X.^ ^ ^ ^ b / ( 6 q ` o.^ ^ $.o.* k H F [ G F V I H J L L L x I { | | L L ).l I I D B D F I L !.} H H H { H ",
"F Z _.Q.D D D = b *.b b o.~ ` ` w q 1 / X.^ ^ ^ ( ~ Q * k C D L D Z _.~.D D D H D J H Q.L I { I V I +.I H B J L ~.F F D c C F [ ",
"D x Q.{ C C c . o.~ w ~ ^ ^ o.^ 6 5 6 6 Q X.` ^ ( ( ~ < . k { Z D B  .{ c D C c D J J { | { G I C I I H +.V H { _.D H C Z C { F ",
"H x L D J c F X Q 1 b X.o.X.^ 6 . X X . @ Q X.X.X.o.w Q 5 ; J +.H x L F H C F G C F J L [ L [ { Z P } Z C B L J [ D D H l g G ..",
"D F H (.} J { X / w w ( Q b & ; l C D J > O w Q Q w   w $ g { /.D D H (.} H O.D c J D J J D ..~.l V Z H Z V J } D F c C /.x { /.",
"D J [ J c D k O o.^ 1 1 X # [ F V C x ~.F G &   @ 6 @   O B C Z C J L H D D D D | J x c F C | C C V V ~.F H c C l  .[ { [ D C Z ",
"{ H C c F c . . q 6 # X l B F F L D L F C Z I . w * = X g Z B C } J C C D x v L G L ..C C c F F G H L D D C { | F { { D Z D l Z ",
"{ H C c F k $.R . 1 1 g Z l I { I I { F k { L .   #.&.= l x g L { H D c F { c G } I { { Z l { { { I I F k { L H F L F C D x g L ",
"D c x C J @ cX*.. q $ ; C H (._.).).L L B I { $ uXxXiX, L D D D D c x c J I F J I H F F C J )._.).).L L c { } C D Z D Z J D Z D ",
"D V U x G & ' hXjXuX# k x G } I F H F J x J L @ xXuX8 C F V I V Z B I x J D J H [ J H c c H } { F J H J x G J D V C L J F c I C ",
"V V D C G & e uX[.e C Z C L { D V V H C k C x 7 iX' , D C Z H g V A D V H D  .C H J D C c L { c x C H C l V C C C J J D D D F h ",
"} G D x U & &.eX% [ C C V L I H Z Z G B x J : zXeX; V B B Z B C I U C x | F c k F J C C C L { G C C H x x J J F F L C c x F c C ",
"L L F V j > uX0 b Z C B F C I D A v l V H L X xXhX7 x L G L V F L L D C l D x c x H D c F C [ C D x x V G J L L F (.F L H H C F ",
"V [ L h 0 jXxX$ [ C v D L { l x V D L I L L > gXgXeX9 H G H | G V I L Z 9 V U J I D x D I I v v C D L U I L G Q.J C I F J H | G ",
"V +.H 8 &.aXaXz D J x L H { D F L L L H I !.H J V U H Z B B l V C ..H B j D L U D J x L F | D F I J L H I  .J J x I H C V x l V ",
"V B V L U C Z Z F F F F F G F C D L L D D L B B U H C B v B j B C B B L } D D F F H F F F H F D D G H D V L B B L G V V x B l B ",
"J Z L H J G G Z c c x J c D C | x G H C J F B Z U C B B B G B B H Z L H J H F F c c l J c F V | x G L D G H x C L C B B x L B B ",
"Z C { L L C L F F c D D c F V D D D F Z C C V B H V x (.} } F H Z C } J J Z L Z D x D D B F C D D Z Z Z C C V V F C B (.I I F H ",
"B C F L B L J U F F J { I h F H } } L B Z L } L J L J | J x H  .B C F J B L G U D F L I I h F H U | L B Z I I L J J H +.H B G +.",
"B Z C V C V V V [ { J { D { H F L +.| C L [ Z C Z ..J H c c H J B Z Z B Z C Z V { { J { D I H F L +.+.B I [ C C C ..L J B B G L ",
"B V l L Z C C h | H C D { J A V A D V H { C F V C V D { H x H J B C B J Z B V j | F C C U L V C C Z Z H [ C F V C C C I F B H G ",
"C B g C H c L I H C D C H F D D V Z H B { C H F C G H } D Z x J C B g C P B L I H Z D C L D D D V D H B I Z H G C H J ..H Z x J ",
"B l x Z C C C H J F c x H c C C j B H H J J V V J z J Z C k x x x k x Z B C V H J D C x F V C V j B H H H H C C J j F F B k x B ",
"F C V F F C C [ F D c L L F | G B G _.L B j B B Z B V j D c D H H C C F F V C L F C V L L D } L V L _.L B l x B C V V l D c C F ",
"{ J B L L F O.D c l } L H | L c Z } +.I C Z G L D J F C F F D J { H x L L H L Z B x } L H | L B A I +.I C Z H L H H D C F H D H "
};
