/* XPM */
static char *death_51692725076[] = {
/* columns rows colors chars-per-pixel */
"64 64 256 2 ",
"   c #010101",
".  c #0B0404",
"X  c #0B0B0C",
"o  c #090808",
"O  c #120D0B",
"+  c #180603",
"@  c #1B130E",
"#  c #14110D",
"$  c #060D13",
"%  c #0B1317",
"&  c #131314",
"*  c #1C1512",
"=  c #121519",
"-  c #19191C",
";  c #130C10",
":  c #290806",
">  c #360A05",
",  c #2A160A",
"<  c #341509",
"1  c #241B14",
"2  c #291E15",
"3  c #231C1D",
"4  c #251917",
"5  c #351217",
"6  c #2C2215",
"7  c #2C221B",
"8  c #33251B",
"9  c #3A2B1E",
"0  c #39261B",
"q  c #262C03",
"w  c #181C24",
"e  c #09152B",
"r  c #261C21",
"t  c #1D2229",
"y  c #19242A",
"u  c #0E2B33",
"i  c #262323",
"p  c #21262D",
"a  c #2B2628",
"s  c #3C2D21",
"d  c #332A2A",
"f  c #3E3023",
"g  c #252C34",
"h  c #2E2C33",
"j  c #362E31",
"k  c #2B333B",
"l  c #3A3537",
"z  c #2E3324",
"x  c #460909",
"c  c #560B0C",
"v  c #471707",
"b  c #491414",
"n  c #541613",
"m  c #670C09",
"M  c #6A1B19",
"N  c #771A1A",
"B  c #6D0E0A",
"V  c #512D12",
"C  c #4F1D2B",
"Z  c #7A1A2E",
"A  c #432D22",
"S  c #453324",
"D  c #4A3726",
"F  c #4C3927",
"G  c #4E3A2A",
"H  c #4A3729",
"J  c #543E2C",
"K  c #583F2C",
"L  c #563D27",
"P  c #482D31",
"I  c #443B3D",
"U  c #4B3934",
"Y  c #533F32",
"T  c #5D292C",
"R  c #662122",
"E  c #7A2325",
"W  c #722F30",
"Q  c #78321C",
"!  c #775319",
"~  c #56412E",
"^  c #5A422E",
"/  c #5D4431",
"(  c #5E4835",
")  c #574333",
"_  c #614633",
"`  c #644935",
"'  c #694D37",
"]  c #664C38",
"[  c #6A4E39",
"{  c #6D513B",
"}  c #72543D",
"|  c #775A3C",
" . c #734934",
".. c #786721",
"X. c #524717",
"o. c #182D45",
"O. c #2C3843",
"+. c #36344E",
"@. c #243F63",
"#. c #262458",
"$. c #463D41",
"%. c #502B50",
"&. c #702C50",
"*. c #612B54",
"=. c #394448",
"-. c #3D4756",
";. c #38517E",
":. c #4B4345",
">. c #564C4D",
",. c #584D4E",
"<. c #514649",
"1. c #434C5A",
"2. c #594F50",
"3. c #5A4E5D",
"4. c #5D5253",
"5. c #545857",
"6. c #435659",
"7. c #6E5441",
"8. c #745641",
"9. c #765943",
"0. c #7B5B44",
"q. c #7D5D48",
"w. c #755B49",
"e. c #645959",
"r. c #70474B",
"t. c #7C614A",
"y. c #5D4A62",
"u. c #5A566F",
"i. c #6C556B",
"p. c #576570",
"a. c #6B6264",
"s. c #767171",
"d. c #901914",
"f. c #A91B14",
"g. c #B41C15",
"h. c #B30D09",
"j. c #8B201A",
"k. c #95211D",
"l. c #92381A",
"z. c #B6281C",
"x. c #882526",
"c. c #982727",
"v. c #843238",
"b. c #A62B26",
"n. c #B62928",
"m. c #B23034",
"M. c #A10E25",
"N. c #C80F0C",
"B. c #F81B0F",
"V. c #CA231B",
"C. c #D82319",
"Z. c #CB3A14",
"A. c #E2241A",
"S. c #EA2418",
"D. c #FF2A1D",
"F. c #F92417",
"G. c #ED391E",
"H. c #C82923",
"J. c #CB312B",
"K. c #E9342E",
"L. c #CB1F36",
"P. c #8C501A",
"I. c #AF4E17",
"U. c #8A472C",
"Y. c #A94C2F",
"T. c #946C39",
"R. c #FD4D0F",
"E. c #FE6D16",
"W. c #D54E35",
"Q. c #F95834",
"!. c #EF4C2D",
"~. c #FC6836",
"^. c #FF7736",
"/. c #FB702A",
"(. c #D35522",
"). c #8A1A52",
"_. c #8E334D",
"`. c #A8364A",
"'. c #892A65",
"]. c #C63B46",
"[. c #805F4A",
"{. c #835C48",
"}. c #964449",
"|. c #A94548",
" X c #B85D44",
".X c #83634B",
"XX c #8B6B52",
"oX c #876853",
"OX c #93735B",
"+X c #916E51",
"@X c #BA7253",
"#X c #B1746B",
"$X c #976771",
"%X c #CD524F",
"&X c #D37245",
"*X c #E17061",
"=X c #BD8330",
"-X c #F88E2D",
";X c #D5B83D",
":X c #FEA638",
">X c #FEB639",
",X c #FEA428",
"<X c #FE851D",
"1X c #FFC33A",
"2X c #B1874C",
"3X c #958576",
"4X c #B29573",
"5X c #D3AA47",
"6X c #F1B54F",
"7X c #CE916C",
"8X c #F9A46A",
"9X c #EA9355",
"0X c #FEC948",
"qX c #FFDB48",
"wX c #FEDC53",
"eX c #DECA62",
"rX c #2A3580",
"tX c #1D5EA4",
"yX c #59659A",
"uX c #3A67D4",
"iX c #2F4DD1",
"pX c #8D6E92",
"aX c #A25288",
"sX c #C96185",
"dX c #6C8796",
"fX c #87868A",
"gX c #918F93",
"hX c #A3898E",
"jX c #ADA997",
"kX c #9A8FA7",
"lX c #A993B2",
"zX c #A6A6AA",
"xX c #AEAEB3",
"cX c #9EA3A7",
"vX c #D3B496",
"bX c #F9BB87",
"nX c #E19AA2",
"mX c #FACA90",
"MX c #D2C4B5",
"NX c #FFF0B8",
"BX c #FFDAAD",
"VX c #958FD3",
"CX c #C5B0D0",
"ZX c #B9C4C7",
"AX c #CAC9D4",
"SX c #D5D5D8",
"DX c #CAC9CE",
"FX c #FCF3CB",
"GX c #DADBE5",
"HX c #D7C3E6",
"JX c #E2E6EB",
"KX c #EAEBF5",
"LX c #FDFEFF",
"PX c #F4F5FA",
"IX c #F3ECFA",
"UX c #C8F9FF",
/* pixels */
"q.0.F { { _ _ ^ ~ ` ' ` ~ K ~ K { } ` _ ` _ [ ` ` K _ K _ ~ ' ' q.q.F ' ' _ _ / K _ [ ` K ~ K J } } ' / ' _ [ ` _ K K _ _ K ]  .",
"{ { ' ` _ ^ _ ~ ~ ^ ~ _ ` ^ K _ { { [ _ S ' XX[ [.` ] K ` J [ ' { { ' ' _ / _ ~ ^ ~ ~ _ ` ^ L ` [ [ [ _ S [ XX{ {.` _ K ` K [ ] ",
"' _ ' } { S _ { ' | _ F } [ } ^ ^ ^ ^ ' ` [ _ [ ] K J J / J [ ' ' _ ' } { S _ { ' } ` D } [ } / ^ ^ ^ [ ` [ _ [ [ J J J / J [ [ ",
"^ { { } .X^ _ [ _ _ q.L | ' ` ` } ' [ | | [ ' / { [ 8.7.] [ ( [ ~ { } } .X^ _ ' _ ` q.K | ' ` ` } [ [ } 8.[ ' ) [ 7.8.{ ] [ ( [ ",
"_ ' / [ ~ S K _ _ / ~ ~ / ^ _ } | } ' ` ` ~ ' ( [ { } ' _ _ Y G / ' / ' ^ S ^ / _ _ ~ ~ / / _ } } } [ ` ` K ' ` [ [ 8.' _ ` Y G ",
"/ _ J / ` ^ / J _ _ ` `  .{ _ _ ` ' L 8.} ` ^ ^ ` { ` ` ` ` ) ` ^ / ~ ( ` ^ ^ ~ _ ^ ` ' {  ._ ` _ ' K 9.} ` ^ K ] [ ` ` ' ` / _ ",
"{ ^ ^ | [ } { ` D ` { { ' { ` { { _ ` ` } ` ( / ' { ' {.{ K 7.8.| ~ ( } ' } { ` D _ [ { ' { ` [ { _ _ ] } _ ` / ] } ' {.[ / ' 9.",
"` ^ } ' [ { [ } K } } 0.| { { .XG 8.8._ J _ ` { { {.8.'  .] 7. .` ~ } ' '  .{ { K } } 0.9.{ [ .XL | | ^ K ` ` [ { {.8.' ' ` 8.[ ",
"_ _ OX{.K ` K ] / { ' q.{ } 8.| K [ 0.8.' K [ { .X` ` _ ^ / ( { _ ( OX.X] ` K ] K { ' q.} | 8.8.~ { 0.| ` ~ [ { .X` ` _ / / _ } ",
"_ ) {.8.K ` K K _ { [ } 9.| ' } / | 8.] t./ ` 9.OX` ` / ( ( } ] _ ~ {.8.K K K ] ] r.[ } 8.} ' } / | } ] t.) ] 9.OX` ` ( ) _ 8.` ",
"' J { ` r._ ` ] / ' [ { } } 8.} / [ 9._ / G { [ { ( ( ` G f ] t.` J { _ [ K ` ] / ' [  .} } { 8./ [ | 1 f ~ { ] [ ` ) _ G s ' w.",
"_ _ [ XX8.[ 7.` ~ [ _ ' [ ` w.q.G _ _ [ ( / [ 9.` ` ^ ( oX~ 9.oX( ` [ XX8.[ { ` ~ [ _ [ [ ` w..XG / ( o 6 ^ [ 9.` ` / ( oX) 8.oX",
") } } ] K _ ` K 0.[ J ) _ _ w._ / / K .X` [ ~ / H 0.{ 7.{ ` / ( ( [ { [ ^ _ ( ) 0.[ J ) ` / w._ ^ / K O s ] J ^ G w.{ } } ` / ( ",
"8.[ / K _ K J } [ [ q.Y ) K _ ' [ ` [ _ / ) ( r i - - 6 ) ( G ) 8.[ / ~ _ J J } [ [ q.) ) K _ ` { _ s   S ( } @ ) 9.8.( ( ` G / ",
"8.` _ K ` 8.K ' } } 8.8./ G 8.8.} } | ` S i h AXGXGXPXcXi 1 S { | ) A H ( 7.Y Y | 7.8.8.( H } 8.7.( l = 9 } K o ~ { _ / / K S { ",
"_ K K ) [ 8.` ` } [ ` ` _ ' oXOXoXoX{ { O ZXKXlXlXKXKXJXLXgX6 ^ _ A O & k O.-.t A J ] _ _ J ] w.oX) k = H [ o   ^ _ ` ` [ ` / ( ",
"_ K | J ' _ [ [ [ [ ] L K T..X| ' ] ' ) a DXCXpXkXGXGXGXIXIX$.8 ^ ^ | 9   = g g w   L K 6       7 I O.  j :.o @ ^ / { [ ` / } / ",
"^ ^ ( ^ ' _ q.` 6X2X`  .Z.-XE.(.z.U.' + AXCXkXkXlXJXGXGXGXLXjXA L _ _ ^ ` O     t t   7           t % & g o   ~ ~ { [ ` / _ ` S ",
"| { _ J 9.` ~ G eX5XZ.R.R.<X<XE.:XR.Z.@ xXCXy.y.lXAXPXLXIXGXLXyXf [ ^ 8 ~ *       t w   = ;       g k p X   1 / ] [ / K J ` K ) ",
"} { _ / F / L ~ L 6X-XE.>X>X1X1X1X>XE.< pXs.fXpXy.kXzXfXcXHXKXs.f 9 * w w - w       w y -.k       ; k       [ { ` +X` [ ' { / ` ",
"^ 7.{ ^ f G } [ Z.E.0X,X0XqX0XqX1X>X0Xv y.pXxXcXfXxXj   a.IXHXgXO g k 1.-.-.-.k p     -.1.g               s s s 7 _ { ' ' ` 0.[ ",
"/ w.' ~ F T.} U.R.E.,X1XqXwX0X5X..P.! @ g PXl l PX6.%   u ZXAXl & y - % = = = w w     & - %   X O.X       9     2 { ] _ ~ ~ J ~ ",
"^ ^ ) { | 2X' I.R.,X1XqXqX5X..v d.f.b % a s.5.5.yX  c 5 B W k X %                           = g p g =         8 { ' ^ ~ J ~ F ~ ",
"[ ( { ] [ | eX-XE.,X1XqX5Xq N C.D.V.P g l d 6.:.d.H.D.z.d.B   X 8       - O.    X o         p g   X g %     0 ( { / ~ J J [ ^ ~ ",
"( ) 9.] { ^ 2X:X/.V X.X.2 k.D.S.Q y y I 5.=.T f.F.F.D.h.> V.V.d.. @ 8 y & o gXzXxXfX                g %   o ) X.] ^ ~ XX| 9.( ` ",
"^ ( ` { ~ { T.< < M f.g.c.H.V.z.R u I =.b.g.k.S.S.S.C.R f.F.V.N.#XZXO X gXDXLXLXLXPXgX= O.y   .     o . N m.- % * [ [ 9.[ ~ [ w.",
"~ ^ ( ( / / , g.V.G.F.D.V.E c.c * :.=.j.B.F.x.V.S.V.x.E b.k.h.nXLXDXxXSXLXLXLXZXLXLXzX$ & o F 8X .    N !.pXuX;.o 0.[ [ K K [ { ",
"~ ~ ~ [ _ ) + F.F.C.S.V.E x E : $ l x.F.S.C.k.x.N 5 R E d.C.N.nXUXfXLXLXDXa p SXJXSXX p     v &X8XL # b.~.yXrX;.e F / | ] ~ ` ' ",
"( ~ S / [ J O c c N b.x.> c + b P E B.S.C.S.V.x.E b o . + : + ; a.zXJXe.O S X DXa & ; y     % t.9X}.@XJ.!.OXyXkXdXO ] w.` ( J ] ",
"~ F J ( ~ / J . + M x.b       x T b.F.C.C.C.k.V.S.C.R g = O L *   & = S ~ ^ X X - ; X O.$   =.hXv.2XW.z.~.8XmX9X#XO ' _ ) D J ) ",
"_ / / ] _ / / 7.! q < , , + . + R H.S.C.S.C.M C.S.F.H.O.- 7 _ D 8 ( ~ ` _ ^ 8 o * / $ y.:.$ : v.&X*XW.Q.^.&X7Xr.U Y S G _ K / ` ",
"| [ ~ ] } ` [ _ ) +X5X-X-XP.. > M H.S.C.F.f.> V.D.D.b.= 8 ` _ [ 9.] ~ { } ` ] o s Y $ i.K.< ; hXjXr.G.^.!.}.vXr.#XBX  / ` ` _ [ ",
"t.0.D ' { ^ _ ~ ~ ` [ =X-XI.b N c H.S.A.f.B m M C.k.= 7 _ K ` ' t.t.F ' { _ _ 8 D ` 7 h J.f.u tXtX`./.Q.n.C 4X&X8Xe.0 / _ ~ ` ' ",
"{ { ' ` _ _ _ K ~ ^ ^ / ~ 6 C k.n H.F.C.N V.D.d.5 * 8 ~ ` K { ' { ' ' _ _ ^ _ ~ J K ~   W %XuXu.(./.~.n.V.. Q 8XvX& ` ~ ` K { ' ",
"' _ ' | { S _ } ' } ( S D $ P R b.n.V.S.S.F.D.d.8 ^ J J / J [ ] ' _ ' | { S _ { ' } K 6 U.Z pX%XR.!.H.V.aXe OXmX7Xo J J / J ' ' ",
"(  .{ | .X^ _ [ ` ` t.~ 6 l :.y R V.g.B.B.z.m X { { } { ] { ( [ ^ { | { .X^ _ ' ` ' {.. s.e c &.*.*.&.&.#.$ mXNXV G 7.{ ] { / ' ",
"/ ' / ' K S ~ _ / _ F 1 :.a.e.<.u R W v.Y.g $ ; 0 S } ' ` _ Y G / [ / [ ^ S ^ / _ ^ 8 3X@.s f.yXuXuXuXpX> e VXVXO } } ' ` _ J G ",
"/ _ ~ / ` ) ^ J _ ^ F # a.,.,.e.<.y =.p.-.j $.<.l i A ` ] ` / _ / _ J / ` ^ ^ ~ _ ^ 2 FXpX> /.|.aX%X%X^.v $XVXiX; [ ` ` ] ` ) ` ",
"{ ^ ^ | [ { { ` F ) 6 ) 4.2.,.,.e.j ) e.I I 4.e.e.<.i G ] _ [ 9.{ ~ ^ | ' { { ' D ^ f vXA z.^.|.Y.R.!.^., 4XFXvX@ [ ' {.[ / [ 9.",
"' ^ { ' [ { { { J ) = a.,.,.2.,.4.U j +.a >.4.4.,.I <.a A ` 8.[ ' ~ } ' ` | ' { K [ z 3X  !.^.U.|.Q.K.^.+ jXNX9XY.1 8.' [ ` 8.[ ",
"( ( OX[._ _ / ` J 3 :.4.,.4.,.,.4.I i a $.e.,.,.2.2.<.$.; s / { _ ( OX[.` _ K ] K ' @   R ~./.|.}.W.m.Q.V OXNXmXmXX ` _ ^ / _ } ",
"_ ~ q.8./ / K / J & a.4.e.I I e.e.i X X & ,.e.e.e.e.I d I * 8.` ` ~ [.8._ K ` K ] r.L n ~.W.!.%X%.%.Z K.Q.V s.jX3X& ) / / / 8.` ",
"` J { _ [ K ] ' J O 4.e.I j e.e.j 9 ` G G & ; ,.2.j O j I @ ' q.' J [ ` ] K ` ' / _ , W.m.n.Q.Q.: @ 2 l.!.!.n > 5 &.: ) G 9 ` t.",
"_ ` [ XX8. .} Y o O j j a $.a.d 6 ^ ` ] ( J J O & i ; & o 1 8.oX_ _ [ XX8.[ 7._ ) ` o *.&.G.!.).C 0 ` * (.Q.~./.m._.c.5 w.) 9.oX",
"` [ } [ K ` Y ; r r 3.$.j e.d 7 / / K .X_ ] J   O d l 3 @ ( ( / ) } } ] K _ ` ) 9.` : J.&.c.&.+.`.N 0 Y Q  XQ.!.m.%._.c.2 ` / ( ",
"8.[ K K ` H - j a r 4.<.- # 8 ` ' ` [ ` _ ( { O $.- r r 6 ` G ( 8.' _ / ` J J  .[ [ s N '.%.+.&.K.N s _ 1 C _.H.J.%._.j.2 ( G ) ",
"8.` _ K ' # AX>.3 * r * @ L } 8.} } 8.` H 9.[ h LXa.l @ / J S { 8.] / K ` 8.K ] | } 8.7 E `.m.`.x.0 ) ] o n.].&.&.%.].j.6 ~ D { ",
"` Y K ^ ) j JXa . l j & 8 ` XXOXoXoX{ { ~ } 7.7 SXPXxX* [ _ / / _ K J K [ 8.` ' } ' ` ` 7 d.L.i.u Y } { s x B `.`.m.A.Z t S / ( ",
"_ K ' 9 7 xXLXgXs.a * 7 ^ ` | 8.` [ ] 7.J ' [ K X SXs.1 ` ^ } ( _ K | J ' ` [ ' 7.[ ] K L 8 h @.r Y ] [ J G S x M r.).).o.4 } _ ",
"^ S j 2.gXSXKXDXcX1 8 / ^ } 8./ J / ' K L Y ) J . cXfX1 / ( ' S ^ / / ) ' _ q.) ] [ ` K K ` q V r _ 7.K L K ) S s e u '.b d ` S ",
"| e.JXLXLXs.2.@ 6 { ) ^ K } | ' / / ' K J [ [ _ 1 l JXl f ] ~ ( | [ _ L 8.' J D _ 7.K J ; : ).d 2 _ ] J J [ [ ` ] J 8 X.7Xo.A ~ ",
"} SXLXLXzX1 2 J L ] ( ~ ` ) } ) / J L ~ ] [ } [ ( a LXPX:.S ^ ` } { _ / G _ L J L ` U + d.).u.o.7 J L K [ { [ { ] +X~ u CXZ 1 ` ",
"^ MXPXPX  ^ 8.[ } ) J ` } } H J ^ _ { | } } ` q.' U jXjXhXf 0.] ^ 7.{ ( A ~ | [ } ) H J r. .Y H K ` } } } [ [ [.[ _ [ s @.sXN ] ",
"( w.] ~ X.` [ | ` ' J [ ] 0._ ` { { } ` } 0.[ { ~ { [ / ^ ^ G ^ / 9.' ~ H ' { | `  .K { ] 8.` ` } [ [ ` } {.[ [ J } ] _ K J L ~ ",
"^ ^ ) [ 9.^ ` ` ` ] ` ` _ ' ` K _ { [ _ ^ { ~ J ] ] / ~ L J H ~ ) ~ ) { 8.) Y ` ` ] _ ` ` [ ' K _ ' [ ` _ [ K J [ [ / ) K J G Y ",
"[ ( { [ ] ' ` ( K K J [ K ` / {.G ' { / ' ' ~ ( { ( ~ ~ K ' ~ ~ [ ( { ' ]  .[ ` K K J { K ' K 0.J ' [ _ ` ] J ( { _ ~ J J [ ~ ~ ",
"( / 8.[ [ _ } ` ` K / ` J ` ^ _ ` _ ` ( / / ) ^ ` ) J XX8.8.` ` ( ) | [ { ( [ ` _ J _ _ J ` / _ _ ( ` ( ) / ) ) ` / ~ oX| 8.` ] ",
"^ ^ ] { ^ [ ` 8.` ` [ 8.{ H ` [ 8.9.{ ~ ` { 9.{ [ { { 0.[ J [ [.~ ( ` ] ^ { ' } ` _ [ | } H ` ' | 9.{ ^ ( { | { [ [ [ 0.] ~ ] q.",
"~ ( / / / / _ K 8.8.[ 0._ } ' ` } 0.9./ { { ( / ( w.] [ K K ' [ ~ / / ( ^ ( ^ ^ 8.} [ 0._ 8.' ` { w.9.^ } } / / ( 9.[ [ K J [ { ",
"~ ^ G } _ ^ K H 0.` K ` 8.} ^ K _ _ ^ ] 7.( ] ~ ^ ^ ( 8.] K ` [ ~ ^ ~ [ ` ^ ^ F 0.` / ` | [ K / _ _ ( ] } ( ] ^ / / ( 7.] ~ ` ' ",
"/ ~ S / [ K 7.8.] _ ` K [ ` _ _ ~ _ ' ~ | ( ' _ / ' ' w.] / J [ / ~ S / [ ^ { } ] ) ` ) [ ` _ ` ~ _ ' ~ | ( ] ` / ' ] w.` ( L ] ",
"~ G J _ _ K K [ [ ` K J ` K / / F ~ ' ] ] [ ^ ^ [ H [ ( ) D J Y J G J _ ~ / ( ] [ _ K J ` K ^ / F ~ ] ] ] ] ) ^ [ H [ ` ) H J ) ",
"` ( ~ ` K _ K 8.` ( K } { ` 8.{ ~ ' OX{ ~ G ~ ~ / ^ ^ G _ J _ ` ` _ ~ ` _ ^ ^ { ` ( _ [ } ` 9.[ ~ { OX{ ~ G J K / ~ ^ G _ K ( _ ",
"8.[ J { } ` 7.K Y Y 8.{ ` 0.} K ( 9.t.{ ( ( ] { ` ' ( / ` ` _ [ 8.[ ~ { } ` [ ( K J 8.[ ` 0.} J _ 9.0.} ( / ' } ` ' _ / ` ` _ [ "
};
