/* XPM */
static char *death_61692725077[] = {
/* columns rows colors chars-per-pixel */
"64 64 246 2 ",
"   c #010101",
".  c #0B0808",
"X  c #120D0A",
"o  c #1E0508",
"O  c #16110D",
"+  c #1B130E",
"@  c #131314",
"#  c #1D1611",
"$  c #1B1A1A",
"%  c #02181C",
"&  c #231A13",
"*  c #231A19",
"=  c #37120F",
"-  c #2D2119",
";  c #29211B",
":  c #32251B",
">  c #38291D",
",  c #262C03",
"<  c #151D24",
"1  c #271F25",
"2  c #371E21",
"3  c #1A242A",
"4  c #10293A",
"5  c #2E262A",
"6  c #292626",
"7  c #392C26",
"8  c #3F3021",
"9  c #2B2D30",
"0  c #362D31",
"q  c #3B3335",
"w  c #373637",
"e  c #2B3131",
"r  c #440D0C",
"t  c #44181A",
"y  c #52130F",
"u  c #68130C",
"i  c #671615",
"p  c #771815",
"a  c #6F0F0D",
"s  c #4F3112",
"d  c #783013",
"f  c #462925",
"g  c #453324",
"h  c #493626",
"j  c #4C3A26",
"k  c #4A3628",
"l  c #4E3A2A",
"z  c #44372E",
"x  c #543E2C",
"c  c #583F2C",
"v  c #563520",
"b  c #443B3D",
"n  c #572B2C",
"m  c #7B2626",
"M  c #71342B",
"N  c #671437",
"B  c #56402E",
"V  c #5A422E",
"C  c #5D4431",
"Z  c #5E4835",
"A  c #5E4838",
"S  c #494124",
"D  c #764429",
"F  c #614633",
"G  c #644935",
"H  c #694D37",
"J  c #664C38",
"K  c #6A4E39",
"L  c #6B4730",
"P  c #744C35",
"I  c #6E513B",
"U  c #6B5235",
"Y  c #72543D",
"T  c #785638",
"R  c #67452F",
"E  c #6F5728",
"W  c #3D3650",
"Q  c #262B4F",
"!  c #4C344D",
"~  c #712B4A",
"^  c #3A4447",
"/  c #244A4F",
"(  c #4D4344",
")  c #454445",
"_  c #564B4D",
"`  c #594E4F",
"'  c #514649",
"]  c #594E52",
"[  c #465558",
"{  c #5C5252",
"}  c #565558",
"|  c #4B4D51",
" . c #6E5541",
".. c #675243",
"X. c #745641",
"o. c #765942",
"O. c #7B5C44",
"+. c #7D5D48",
"@. c #765B49",
"#. c #655B5B",
"$. c #625758",
"%. c #70484B",
"&. c #7C614A",
"*. c #56536B",
"=. c #65576A",
"-. c #6A6769",
";. c #797779",
":. c #6E6870",
">. c #891916",
",. c #9A1914",
"<. c #891409",
"1. c #B31510",
"2. c #922118",
"3. c #AA2F12",
"4. c #8C1024",
"5. c #882425",
"6. c #952727",
"7. c #892F36",
"8. c #AF2D29",
"9. c #C71C13",
"0. c #D90000",
"q. c #F91F12",
"w. c #F11A0F",
"e. c #CD241B",
"r. c #D72319",
"t. c #CD3A0F",
"y. c #FE3C03",
"u. c #E62318",
"i. c #FB2519",
"p. c #D22922",
"a. c #C52F2A",
"s. c #F22E27",
"d. c #CB1F36",
"f. c #B64A16",
"g. c #AE4A19",
"h. c #975533",
"j. c #8A4D2D",
"k. c #B25428",
"l. c #936737",
"z. c #8F703B",
"x. c #B37636",
"c. c #9D4E1B",
"v. c #D74817",
"b. c #C94917",
"n. c #E9470D",
"m. c #FF4406",
"M. c #FB4909",
"N. c #FF540C",
"B. c #FF5A0E",
"V. c #FB5B13",
"C. c #EB5212",
"Z. c #FF6312",
"A. c #FE6A13",
"S. c #FE6B1A",
"D. c #FE7C1B",
"F. c #FE7418",
"G. c #E96F1D",
"H. c #F35629",
"J. c #CE6C2A",
"K. c #FB6628",
"L. c #FF7624",
"P. c #EC7630",
"I. c #D25C28",
"U. c #8D3248",
"Y. c #A93649",
"T. c #8B1E48",
"R. c #C63B46",
"E. c #805F49",
"W. c #83634C",
"Q. c #896844",
"!. c #8B6B52",
"~. c #876953",
"^. c #94735B",
"/. c #987347",
"(. c #AD7645",
"). c #B85D44",
"_. c #DE7263",
"`. c #AF8636",
"'. c #FE821C",
"]. c #FE8C1E",
"[. c #CE8D34",
"{. c #FD8323",
"}. c #FE8D23",
"|. c #FE882A",
" X c #FE9423",
".X c #FE9A25",
"XX c #FE9D2C",
"oX c #FF942B",
"OX c #FE9534",
"+X c #EE8F31",
"@X c #FEA12B",
"#X c #FEAC2E",
"$X c #FFAC3B",
"%X c #FEA833",
"&X c #FEB434",
"*X c #FFBC3A",
"=X c #FDB639",
"-X c #E5AD3B",
";X c #FFC43C",
":X c #FFC93E",
">X c #B99445",
",X c #AA8D69",
"<X c #C18D42",
"1X c #FD8A49",
"2X c #D4AF46",
"3X c #FABA46",
"4X c #F3B149",
"5X c #D3A46A",
"6X c #F8AC7A",
"7X c #FECD42",
"8X c #FDC846",
"9X c #FFD344",
"0X c #FFD946",
"qX c #FFDC48",
"wX c #F4D248",
"eX c #FEDA56",
"rX c #EDC255",
"tX c #FFE24B",
"yX c #ECD372",
"uX c #7E7984",
"iX c #887291",
"pX c #7F8185",
"aX c #908B94",
"sX c #9C86A6",
"dX c #A893B1",
"fX c #94ABAD",
"gX c #A5A6A7",
"hX c #B5B6BA",
"jX c #AFA9B8",
"kX c #C5BCB6",
"lX c #D29989",
"zX c #FFC78C",
"xX c #CAC2BA",
"cX c #B4B4C3",
"vX c #C9BCD4",
"bX c #BEC2C0",
"nX c #D6D5D9",
"mX c #CCC8D1",
"MX c #DCDCE5",
"NX c #D9C8E0",
"BX c #DEEBF0",
"VX c #E9E9F3",
"CX c #FFFFFF",
"ZX c #F5F6FB",
"AX c #F4EDF3",
"SX c #F9E9DB",
/* pixels */
"+.+.j K U F G V V G H F V V V x Y K J C H C Y G F c C F F c G J E.+.h K Y C G V B G H G c V V x I Y G F G F K H F c C c G c J J ",
"I U K G C C F c c V V C G c c F Y U H F h H !.K E.G G c J x I J Y H H G C C C c c V B F F V B R U K H F h H !.K W.F G x G c I J ",
"H F H Y K g F Y G Y G h I I Y V C V V J L K C K J c x x C x K J H F H Y I g G T H Y G k I K Y C V V C H K K C J J c x x C x K H ",
"V U Y Y W.C F J F G W.x o.L G G Y H H Y X.K K C K K X.K K K A J V U T Y W.V F G F G +.c o.H G G Y H K Y X.K J Z P ..X.P K K C K ",
"F H F K c g c F F F c V C C C Y T Y H G G x J G I I P J G F c x F J F K B g V F F F V V V F F Y Y Y H G G c J F K K P H F F x x ",
"C F x C G V c x F C J J U T C F G H c o.X.F C B G  .G H J G c F V F x C G V V x F V G G P U C G G H c @.Y G C c G  .G H J G C G ",
"U V C X.K Y I H h F K K K U G I K C G J Y F Z C H K J E.K c K O.I V C Y K Y I G l F K K K I G K U C J G Y G F F J P K E.K C J o.",
"J V Y J J I I I c Y Y O.o.Y K W.x X.X.F c F G I P E.o.J K J X.K G C Y J J U I Y x Y Y O.o.Y K ~.x T T Z c F F I K E.o.J K F X.K ",
"G F ^.E.F J c J F I J +.Y X.X.Y V I o.o.G B U I W.J G F C Z C I G Z ^.E.J F c K F K H +.Y Y Y T V I O.o.G B J I ~.J G F V V G Y ",
"F c E.X.c c F c F K H Y o.T H Y C X.Y K &.V J o.^.F G Z C C X.G F c E.X.c c F c G %.K Y o.Y H Y C h.T G &.C J o.^.F J F Z C Y F ",
"J x I F %.V G J C J H Y Y Y Y X.Z U o.G Z x I U I G Z G l 8 J &.J x K G K c G J C L K Y Y Y X.o.g.P o.Z Z S I U & f F G l 8 H &.",
"F F H !.o.K I F V K F H K G @.+.l V F J C C J o.G A B Z ~.B X.~.F F K !.X.K  .F C I V J K G @.h.n.F J U G T I T = > V C ~.B X.~.",
"C I I K c F F F O.K x c G C @.F Z V B W.G U B C l +.I X.X.F C A C K I J c G F Z o.K x c J c O.m.g.R M Q.2XU V I.>Xz.`.&.Y Z D c.",
"o.J F c F x x I K K @.C C c F J J U U G C Z I O.A o.X.Z Z G l C o.K F C F x l I H Y @.c G c C.K.P t.U 2XE R A.>X2XJ.(.J.g.n.M.m.",
"X.J F c H X.F J o.Y o.X.V x X.X.Y Y C ; # - - L G I G C Z x g I X.G C c J X.x g Z ..T ..8.3.4XK.I.j./.z.j.Z.l.[.b.b.n.m.m.m.M.h.",
"F c c c K Y F G Y J F G F J ~.^.&.: w hXaXaX*.& > C F G U G C F G c x c K X.k o @ M b | m.D.8X3X+X>X:Xv.m.x. XA.m.m.m.m.m.b.P l.",
"F x T x U F K J I K J c x J o.X.1 hXvXNXvXZXVXvX:.: I K G C I C C B T B K F I G j d S R S.8XM.Z.zXtXS.Z.}..XA.y.m.m.m.m.s c j.C ",
"C C F V J G @.C J I F F F U X.x | CXdXiXjXMXVXZXVX! 8 G C Z G h V C Z V H G &.B R b.8 C.A.].{.L.eXeX X#X XA.F.M.B.m.v.r t.b.D h ",
"X.K F x o.G C h G Y C V c Y Y ; aXsXiXiXmXAXnXMXCXgX* x l G V B T I V x o.G B h g C.G.].oX.XA.eXeX3X3X@XA.y.A.{.|.k.3.f.D U z.`.",
"Y I F C j C x x j G F V G C I @ -.=.dXsXNXCXMXmXVXZXaXf K I C G Y I G C j F - @ @ D.}. X@X#X9X0X#X=X8XA.A.'.B.{.OX4X`.rXrXrX>XJ ",
"V  .I Z > V Y x k l l F G k 7 $ cXjXsXsX=.aXnXdXgXZXuX* K G O.H V  .I Z # # 3 $ (.&X.X.X9X0XqX7X:X=XD. X'.'.oXm.F.`.wX2XS , /.l.",
"Z o.J B x G j r a = : f @ @ @   | BXdX^.    ZXMXuXvX1 . & x x V Z o.J # e 3 O -.1XtX X:XqX0XqX;X;X X.X@XXXD.oX7XtX.Xg.d p t.C.I.",
"B B B I Y > o i.i.r.t r f b < @ cXvXsXsX^   ^ cXZXaX  0 5 + & : B C O   3 @ e SX].;X:X0XqXqXqX:X.X=X0X0X9XtX9X=X'.'.{.N.m.n.v.I.",
"U Z I J h =._.w.u.5.7.8.u.5.6 9 ] *.dXdXsXuX:.bXCX:.  w e 2 p a 8 Z 8 l S + w ,X0X&X0XtXqXqX0X7XtXqX0X0X0X#X#X#X'.Z.L.}.].'.'.N.",
"Z C o.z w CX_.0.8.p.>.,.i.u.n ^     iXdXsXZXCXCXjX. 3 f m p.s.8.= @ % @ @ -.MX5XtXqXqXqXqXqXqXqXqX0X0XqX:X;X#X.X.X.X%XXX|.V.B.N.",
"B l O ^ hXkXSX7.u q.1.a i.q.n [ ! 1 6 :.vXMXMXiX@ % M u.,.5.5.6.r.1._.cXiXZXZX=XqXqXqX0X0XqX0XqXqXqXqX9X#X@X.X.X.X.X]. X X'.'.'.",
"h ) AXZXCXmXfX3 . y ,.i p.r.n ^ #.( 1 q } | 6   % m q.i.<.= p.1.<.q.i.SXBXZXAX:XqXqXqXqXqXqX0XqXqXqXqX9X0X0X9X:X9X7X:X:X*X@XXXoX",
"$ ZXCXCXCXhXX g E.x . y p.6.5.0 } ! b ] ( ( ) ^ 2 <.i.p.i e.s.1.= >.1.lXfX;.xX:XqX0XqXqXqXqXqXqXqX0XqX0XqXtX0X0X0X7X7X8X3X7X;X*X",
"e CXMXVXZX| C I R c G f y >.1.n | ` ` ` ` [ / 6.1.a p.p.y <.1.= # + O + $   X :XqXqXqX0X0XqXqX0XqX0XqXqX0X0X0XtXqXqX9X9XtXtXtX0X",
": pXhXZXCX:.h K K H c x h . 1.M [ ` ` ` [  .2.i.9.r 7.,.= # & : B l x Z 8   s wX0XqXqXqXqXqXqXqXqXqXqXqX0XtXtX0XqXtXqXqX;X:X:X;X",
"G 5 - :.-.e g I G C c I K & 9.p.^ } ` [ %.w.q.u.p 5.m O c c c F G F C G g - G -XqXqXqXqXqXqXqXqXqXqX0X9X&X;X*X=X&X8X8X;X=X%X&X}.",
" .U B g h 8 F C c x @.K G & ,.i.n | [ %.q.i.u.a r i # c J J J %.X.K B U I U U 2XqX0XqXqX0XqX0XtXqXqXqX9X&X.X X X}.$X$X%XoX'.}.F.",
"+.+.j P I F F V x G K G c h O u 5.~ ' 6.<.u u r 6.r - C F c J J +.+.j H I R F 2X&X:XtX:XtXtX9X7X9XtX0XqX9X#X;X X$X$X}.F.N.B.M.N.",
"I U K J C C C c c c c F G c X ,.u.r.e.9.1.4.t 5.i - c x L c I J I U H G C C F `.&X#X:XtXqXqX8X;X&X9XqXtX9X*X7XXXoX$XD.Z.F.F.{.OX",
"H F H Y U h F Y J Y G k X.K + r.i.u.u.i.s.6.6.m # x x x C x J J K F H Y K g G >X].#X#X:XtXqX9X=X@X@X;X#X&X=XqXXXXXV.n.y.y.%XJ.b.",
"C U U Y W.V F J G G E.x I x + u.u.r.u.p.1.5.M i * K X. .K U Z J C U Y Y W.B B z.J.;X.X&X:XwXqX;X=X XD.%XOXoXL.;X8X[.c.1XOXJ.t.b.",
"F H F K x g c F F F c > O X ; 6.q.q.u.3.8.f 3 6 & K X.J F F x x F J F J x h B F n.+X'..X&X$XqX8X=X@X'.A.F.}.B.B.P.[.z.yXsX# P M ",
"V F x C G C C x F V & 5 q ' w e 8.8.7.6.t 9 ! 0 . c H J J G C G V F c C G V V x b.[.G.]..XA.$X0X8X*X@XA.m.F.N.m.M.n.,X5X,X`.U U ",
"I B C X.K Y Y G j & ( -.$.$.` e [ [ } 3 9 { #._ q * l E.K C K O.I V C X.K Y I G 5.z.k.V.XXA.L.-X9XXX=X.XZ.N.N.N.M.3.H.6XlXs z.O.",
"G C Y J K K K T # b #._ ` ` ` ! ) ` 9 w { $._ ` -.$.* l K G  .U G C Y J J I K Y D J.<X4XOX=XOXc.wXOXL..X XN.m.m.m.t.J.zXL.k.& U ",
"F Z ^.E.F F C & ! -.b b { ` { ` q 0 1 ' #.` ` ` { ' ' * k Z C I F Z ^.E.F F F T P j.(.v.N.D.M.c.R 4XOX1XXXD.N.y.m.m.C.1XzX6X. K ",
"F B E.X.C C c . $.' q _ ` ` #.` 5 6 5 5 ' #.` _ ` ` ] $ . k X.J F c E.o.c F c T <Xh.z.h.f.N.M.t.f.OXP.K.{.[.G.N.y.m.m.m._.,X# V ",
"J x I F K c G O ( 5 b #.$.#.| 5 . X X . @ ( #.#.#.$.q ( 6 - G &.J x K G J c ..j.<X>Xl.j.j.v.M.y v.I.J.H.K.x.x.[.G.K.m.y.m.3.7.= ",
"F F K !.O.K I @ ' q q { ( B $ ; j C F H : O q ( ( q   q $ g X.~.F G J !.X.J  .G >XT C ..U j.M.u ~ ~ +XP.U.h.+X>Xs I.H.V.N.m.v.a.",
"Z K Y J c c n @ $._ 1 * X # X.F C C c W.G U &   @ 5 @   O B C Z C K X.J c F F c !.K l C G F b.3.a.~ 8.(.=.Y.,.v : M ).H.H.a.8.v.",
"X.K C V F c . . 0 5 * X z C F G K G K F F C I X q * * X g J l V o.K F c F c x I K I @.C A c R 3.5.Y.W W ~ s.p d J ; N T.e.a.! U.",
"Y J C B J S -.! . 1 1 h C x Y T Y Y X.G l X.U .   =.;.* l B h I X.G C c J X.c J X.X.X.X.c l X.h.2 p Y.Y.Y.M 2 x G X 8.R.~ ~ ~ R.",
"F c x C U O ZX:.. 0 * * C J ~.^.~.~.Y K c Y X.< gXCXhX8 J G C F G c x c K X.G K P K F J F J !.^.~.2 4.d.=.4 h C F 8 r i Y.Y.8.s.",
"F V T x G & } nXnXgX# k c J T X.G G K K x K I @ CXgX7 C G C Y V F B Y c K F K G  .K J c x J O.O.J ..2 Q Q 6 Z C C C x g r i @.T.",
"V V F V U # w gX,Xq C Z C I X.F V C J C x x x 6 hX} > Z C C G h V C F V K F +.C J K F C c P X.c x c M , s : V V V I I F g > % 4 ",
"o.U F x T ; ;.aX% I B C c I X.J C F H c x K ; VXaX- V V l J B V T U F x o.G B h G I C C c X.X.J k . o T.7 : K G G I V V x G f 7 ",
"I I G V h : gXe g Z Z B J C I F V x x V J K X CXnX6 x I U I C J I I F C l F x x x G F x G C I c o 4.T.*.4 7 K Y J !.G I K K C x ",
"C  .I j e nXCX$ I F l F Y X.k x C F I Y I I 7 kXxXaX8 G K J O.J Z  .I Z f V Y I T F k G I X.l k n c P  ...G J E.K C Y G K J O.J ",
"C o.J 7 ;.kXkXz F ..x P G o.F G I I I G Y &.G J B U K C c x l V C o.J B l H U T F J c I H o.F H X.X.I G P +.K K c I K C x x x B ",
"B B C U O.V F J H F G G F J G F F H H G F U B B U U C V c x l x C B B U o.c F G J J G G G H J V F K K G F K x x K K C B c B l B ",
"K A I J U J J F c c x K c H c O.x H I Z J G B Z I Z B B x J C B K Z I J J K J F c c l K c J c O.l K K F J K x A I C B B x J B B ",
"A B X.I U C Y G G c F G x G F F F F G C C C B C G C x !.o.o.F J Z Z Y U I Z I J F c C G c G C F F F G Z B C C B G B l !.o.X.G G ",
"B C J U V I G Y G G K X.I h F J o.o.Y B G I X.I K K K O.K x K E.B B G I B I G Y F F K Y Y j G K T O.I B Z  .X.I I U K @.H B K &.",
"B Z C V C C V V  .X.K o.G Y J H I O.o.C I  .Z C Z o.J K c x J K B Z C C C C C B X.X.J o.F Y J G I +.O.V Y  .C C Z @.J U c c J K ",
"B V x I F C C h O.G C F Y Y c c F F C J  .C J V C C A X.J c J K B Z l I F V C j O.G C Z Y Y V V C Z Z J I Z Z C C C Z X.J c J K ",
"C V h C J c I Y J C G C K G F F B Z G B o.C G G C G J @.J C x K C c g C U B I Y J C F C K G F G C F G B X.Z J G C G J @.J C x J ",
"B l x C V C C J K G c x J c C C l B J K J U V V J l J A c k x x x k x Z V C C J K F C x G c V C l x J J U G C C K l J G C h x B ",
"J Z C G F C C %.G A c I I G o.P V U ^.Y B l B B C C C l F x F G J C C J F C C I G Z C H I G o.K V I ^.I x l x x C V V l F c Z F ",
"X.J x K Y G K F x x o.I G O.I x F Y &.I Z Z J Y G G F C G G F K o.K x K Y G K Z V x X.I G +.I c F o.&.I Z Z K I G H F C G G G K "
};
