/* XPM */
static char *xpm_[] = {
/* columns rows colors chars-per-pixel */
"64 64 239 2 ",
"   c #020202",
".  c #090506",
"X  c #0C0A0B",
"o  c #080808",
"O  c #120D0C",
"+  c #160404",
"@  c #13100D",
"#  c #120F11",
"$  c #110710",
"%  c #0D1516",
"&  c #141213",
"*  c #1D1C1C",
"=  c #191718",
"-  c #0E0D10",
";  c #2E0101",
":  c #270505",
">  c #390607",
",  c #221C1C",
"<  c #251512",
"1  c #361617",
"2  c #2E0E13",
"3  c #28221B",
"4  c #151B21",
"5  c #261E21",
"6  c #281E23",
"7  c #152B2D",
"8  c #232424",
"9  c #2A2325",
"0  c #2D262A",
"q  c #242B2D",
"w  c #2B2B2B",
"e  c #282827",
"r  c #32262B",
"t  c #332B2D",
"y  c #352824",
"u  c #3E3020",
"i  c #38342E",
"p  c #2C2D31",
"a  c #352C31",
"s  c #3A2E33",
"d  c #2A3938",
"f  c #343334",
"g  c #3B3335",
"h  c #3E3934",
"j  c #38393B",
"k  c #480708",
"l  c #580C0B",
"z  c #431415",
"x  c #501516",
"c  c #660907",
"v  c #770805",
"b  c #6E100F",
"n  c #79120E",
"m  c #691416",
"M  c #781818",
"N  c #671E21",
"B  c #741E20",
"V  c #462326",
"C  c #463424",
"Z  c #4A3726",
"A  c #4C3927",
"S  c #4D3A2A",
"D  c #493628",
"F  c #543E2C",
"G  c #583F2C",
"H  c #453C3D",
"J  c #443A37",
"K  c #573732",
"L  c #682428",
"P  c #782527",
"I  c #6A3537",
"U  c #56412E",
"Y  c #5A422E",
"T  c #4A423B",
"R  c #5D4431",
"E  c #5E4834",
"W  c #584839",
"Q  c #614633",
"!  c #644935",
"~  c #694D37",
"^  c #664C39",
"/  c #6A4E39",
"(  c #6D513B",
")  c #72543D",
"_  c #73583F",
"`  c #724039",
"'  c #3F3F44",
"]  c #483E41",
"[  c #4D3D52",
"{  c #3A4649",
"}  c #3E5155",
"|  c #4C4344",
" . c #484647",
".. c #554C4C",
"X. c #584E4F",
"o. c #534A47",
"O. c #59524C",
"+. c #594F50",
"@. c #524C54",
"#. c #4A5355",
"$. c #545455",
"%. c #5D5353",
"&. c #5C5B5B",
"*. c #5A5659",
"=. c #44504F",
"-. c #654B46",
";. c #6D5542",
":. c #6D5A4A",
">. c #655548",
",. c #745641",
"<. c #765943",
"1. c #7A5B44",
"2. c #745C4A",
"3. c #7C5D49",
"4. c #725149",
"5. c #615657",
"6. c #645B53",
"7. c #6A5D53",
"8. c #675A5B",
"9. c #725F53",
"0. c #774E4D",
"q. c #7D614A",
"w. c #77604F",
"e. c #6C635A",
"r. c #686359",
"t. c #746354",
"y. c #74665A",
"u. c #7B6757",
"i. c #5D4F63",
"p. c #655C63",
"a. c #6D5E77",
"s. c #5A6264",
"d. c #5E7C7F",
"f. c #6C6863",
"g. c #696769",
"h. c #746A64",
"j. c #7C776B",
"k. c #787677",
"l. c #6F6B74",
"z. c #87140E",
"x. c #881714",
"c. c #911410",
"v. c #A70A04",
"b. c #AC140D",
"n. c #B8140B",
"m. c #A51B15",
"M. c #B81D17",
"N. c #9A201D",
"B. c #B3241E",
"V. c #872525",
"C. c #992626",
"Z. c #963836",
"A. c #863D3B",
"S. c #AC2521",
"D. c #A22726",
"F. c #B92A25",
"G. c #BC3A34",
"H. c #C30100",
"J. c #C61B13",
"K. c #D5160F",
"L. c #F31E12",
"P. c #EF1A0E",
"I. c #C8231D",
"U. c #DC2319",
"Y. c #D52118",
"T. c #E42419",
"R. c #EC251A",
"E. c #E72216",
"W. c #F52619",
"Q. c #F4291C",
"!. c #FD2A1D",
"~. c #FA2316",
"^. c #C52822",
"/. c #D32C27",
"(. c #FC2D21",
"). c #EC2E24",
"_. c #97423E",
"`. c #DE4037",
"'. c #805F49",
"]. c #815F47",
"[. c #924441",
"{. c #83634C",
"}. c #8C6C53",
"|. c #856954",
" X c #916E51",
".X c #93735B",
"XX c #8D715D",
"oX c #857363",
"OX c #BA5C5D",
"+X c #FF7D79",
"@X c #F05E5A",
"#X c #827986",
"$X c #8D7495",
"%X c #937B9B",
"&X c #856C8E",
"*X c #878889",
"=X c #98999B",
"-X c #908C97",
";X c #A09D9D",
":X c #9D89A6",
">X c #9C86A6",
",X c #9897A2",
"<X c #A38CAD",
"1X c #AB96B5",
"2X c #AD9BB7",
"3X c #9AA5A6",
"4X c #A3A2A2",
"5X c #A8A8AB",
"6X c #B3A6BD",
"7X c #B6B8BA",
"8X c #A8A9B3",
"9X c #E68E8D",
"0X c #C0C0BE",
"qX c #BCB0C4",
"wX c #C3B7CA",
"eX c #CBBBD6",
"rX c #B6CED2",
"tX c #C9CBCB",
"yX c #C6C8C8",
"uX c #CBCBD3",
"iX c #D3C6DD",
"pX c #C8D3D4",
"aX c #D6D5D7",
"sX c #DBDCE4",
"dX c #D6D9E1",
"fX c #EADDF6",
"gX c #DFE0E9",
"hX c #E2E2E3",
"jX c #E2E4EB",
"kX c #EAE9EA",
"lX c #ECEDF4",
"zX c #EBE8F6",
"xX c #EEF2F8",
"cX c #F3F3F5",
"vX c #F5FAFF",
"bX c #FDFEFE",
"nX c #F2F7FF",
"mX c #F8E9EC",
"MX c #F7DCDA",
/* pixels */
"3.3.A / ( R Q Y U ! / Q Y Y Y F ( ) ~ R ! R / ! Q Y R Y Q Y ! ~ 3.3.A / ( R Q R U ! / Q Y Y Y F ) ( ~ R ! R / ! Q Y R Y Q Y ! ~ ",
"( ( / ! Q Y Q F U Y Y Q Q Y F Q ( / / Q C ~ }./ {.! Q Y ! G ( ~ ( ( ~ ! Q Y Q G U Y Y Q Q Y F Q ( / / Q C ~ }./ {.! Q Y ! G ( ~ ",
"~ Q ~ ) ( C Q ( ~ ) ! Z ( ( ) Y Y Y R ~ ! / R / ~ F G G R F / ~ ~ Q / _ ( C Q ( ~ ) ! Z ( ( ) Y Y Y R ~ ! / R / ~ F G G R F / ~ ",
"R ( ) ) {.Y Q / Q ! 3.F _ ~ ! Q ) ~ / ) ,./ / R ( / ) ( / ( E / R ( ) ) {.Y Q ~ Q ! 3.F _ ~ ! Q ) ~ / ) ,./ / R ( / ) ) / ( E / ",
"R ~ Q / G C Y Q Q R U Y R R R ) ) ) / ! ! G ^ Q / / ) ~ Q Q F S R ~ Q / G C Y Q Q R U Y R R R ) ) _ / ! ! G ^ Q / / ) ~ Q Q F S ",
"R Q G R ! Y R F Q Y ! ! / ) R Q ! ~ G <.) Q R U ! ( ! ^ ^ ^ E y.O @ O O t.R R F Q Y ! ! / ) R Q ! ~ G <.) Q R U ! ( ! ! ^ ! R Q ",
"( Y R ,./ ( ( ! Z Q / / ~ ( ! ( ( Q ! ^ _ Q Q R ! ( u.h.f.r.e.4.z.b 1 c ` j.,.! Z Q / / ~ ( ! ( ( Q ! ^ _ Q Q R ! ( ~ 3./ R / 1.",
"! R ) ~ / ( ( ) G ) ) 1.1.) / {.S <._ R G Q Q ( ( XX>.; ; ; + c !.Q.F.).k 7 ^ ) G ) ) 1.1.) / {.S <._ R G Q Q ( ( ].,.! / ^ ;./ ",
"Q E .X'.Q Q R ! R ( ^ 3.( _ ,._ Y ( 1._ ;.W >.>.u.6.c !.!.~.S.C.T.U.R.F.> i -./ R ( ^ 3.( _ ,._ Y ( 1.<.~ F ( ( {.! ! Q R R Q ( ",
"Q U 3.,.Y R R R Q ( / ) <._ ~ ) R ,.,.^ r.7 q q q n ~.R.R.W.S.P C.U.R.E.I.k e ;.Q ( / ) <._ ~ ) R ,.) ! q.R ~ <..XQ Q R R R ,.Q ",
"! F ( Q / Y ! ~ R ! / ) ) ) ) ) R ;.h.O.z.z.2 z z b z.n V.C.m > m !.R.H.+X3X  ;.R ! / ) ) ) ) ) R / 1.Q R F ( / ( Q R Q S u ~ q.",
"E Q / }.,./ ) Q Y / R / / ! 2.q.U 0 X   x.).F.^./.M . > S.F.m.n k c H.@XkXrXs.6.:./ R / / ! 2.q.S R Q / E R / <.Q Q Y R |.U ,.|.",
"E ( ) / Y Q Q R 1./ F R ! R 2.:.o.  5 f r N.~.R.W.z.> c.R.E.!.b.  + OXMXrX;X4XX oX/ F R ! R 2.Q R R F {.! / U R S 1.( ,.) Q R E ",
",./ R Y Q G S ( ~ ( 3.R R R 2.6.o t a t 7 P ~.T.R.b n !.T.T.T.M % j pXpX=X7X5Xw u.<.3.R R R Q ! / ! / Q R R ) 1.Q 2.,.E E Q S R ",
") ^ R Y ! ,.R ! ,.( ,.,.R F | X g a t 0 { _.L.T.R.b n Q.Q.Q.: =.<.u.= $.jXbXvXcX8 3 ,.,.R S ) ,.,.) ,.! S ,.( ^ ! ( ! R Q F C ( ",
"Q G F Y / ) Q ! ( / Q ! R ;.T X J t t r { _.L.T.W.n k c k k e.y.! E 9.T *XbXbXbX7X%.T ^ R / }..X|.|.) ( F ) 1.E Q Q Q Q / ! R Q ",
"Q G _ F / Q / ^ ( ~ ~ G F 7.o         6 $.-.x.~.F.M m 2     XXR Q G _ O.* aXbXnXbXaX..e.^ ~ <.,.! ^ ^ / G / ^ R R R ( / Q R ) R ",
"Y R Q Y ~ Q 3.R / ( 9.y.7.*  .$.#.&.$.= 9 d ' N.P L D.S.l   u.C Y ^ u.f.g.4XbXbXsXcX7X  W ( ,.R G R / R S U R Y Y / / Q R R ! C ",
"<.~ Q F 1.! Y Z Q 2.9 . & 1XzXvXzXbXlX#.# 5 $.q B V.S.!.R.: e.>.<.E   k.kX7XhXbX7XhX7Xo W ( ) / R R ~ F G / ( ! ! / R G F Q Y R ",
") ( Q R A R F G ^ T l.yXuXjXlXwX>X<X1XaXwX[ & =.P J.T.R.T.C., $.) ;.J o =XcX5XcX7XtX5X* ;.R ) R R F F Y / ( ( ( !  XQ ( / ( R Q ",
"Y ;.( R u Y _ ;.h g.jXcXxXjXjX2X$X%X%X1XbXk.  p.*.F.L.Y.U.(.: d Y ,.w.i l.bX0XbXs.* O.2.,.) S S R Q ( ) ) ( ! './ R ) ! ~ ! 1./ ",
"R 2.! U A ! ( :.  4XbXdXdXsXjX6X%X:X>X$XqXwX-X8 { Z.K.U.U.!.; #.R 2.! :.%. .8  .e.y.t.( ! <.Q ! ( ( ( ! ) 3./ / F ( / R Y G F Y ",
"R Y R / <.Y Q y. .7XlXsXsXsXjX6X%X>X>X<Xa.-X5X  j -.C.E.T.!.> d t.Y U / u.h J h w.^ ! ! Q ~ ! R Q / / Q Q / G G ( ^ Q Y F G S U ",
"/ E ( / / ~ ! f sXlXdXsXsXsXjX6X%X>X:X1X*.f f . T s.A.E.T.Q.c   t :.( / / ~ ! E Y R F / Y ! R 1.F / / R ^ ^ G R ( R U G G / Y U ",
"Q R <./ ( R ( p sXcXsXgXsXsXzXqX%X:X>X:X$XwXtX  g g.K N.E.W.z.> > f u./ ( R ( Q Q G R Q G ! R Q Q Q ! R R R R U Q R F }.1.,.Q ! ",
"Y R Q ( Y ( ! j aXlXxXuX:XsXvXeX<X<X>X%XiXqX .  H 8.} -.R.~.x.k > 8 t.( Y ( ! _ Q Q ( _ ) Z Q / ,.1.( U Q ( _ ( ( ( / 1./ G / 3.",
"U R R R R R Y T f.uX5X#XwXjX*X@.@.#X:X%XxX;X  o o.8.#.X.M.~.c.> > X 7.^ R R Y Y ;._ / 2.Q ) ~ ! ( 3.1.R ( ) R R R 2.( ~ G G / / ",
"U R S ( Q R R C   5Xk.p.bXbXa     *.<X>XiXiXk.  t 8.*.o.I /.n k x X   < ;.Y R Z 1.! R Q _ ( Y Y R Q R ^ ) R Q R R R R ,.^ G ! / ",
"R U C R / Y ( E   =XiX6XaX5Xe   e l.<X1X&X1X7X. # | X.$.$.P l m V.s w   r.:.t.) ! R Q R / Q Q Q Y Q ~ U <.R ^ Q R ! ^ 2.^ R F / ",
"G S F Q Y R Y E @ i.fXjXk..   w #X<X<X2Xa - * t t 9 J *.$.> m C.P a p t = 3 e 2./ Q Y F ! F R R S G ^ ^ ^ ^ R R / A ~ Q R Z G Y ",
"! R R ! Q R R ,.:.H ,XbXuX8XqX:X$X1X1Xp.* 9 H #.=.{ #.&.*.=.I N.P t w t 5 , = t t.R R / ( ! 1./ Y / .X( F S F G R Y Y S Q F Q Q ",
",./ G / ( ! / ;.7., w #XfXbXbXlXeX>Xi.H { } #.I G.`.Z.V V I P x.P 0 8 g | | | 9 g 6.,.( ! 3.( G Q <.3.) E R ^ ( ! ! Q R ! ! Q / ",
"3.3.A / / R Q e.. 9 = $ a.=X5X7X8Xa.p { 0.[.Z.M.v.v.v k c x.V.V.P 0 f X.5.%.%.8.o i u.! Y G Y F ( ( ~ R ! R / ! Q Y R Y Q Y ! ~ ",
"( ( / ! Q R Q   t s j *     = a 9 J 4.%.F.P.K.n.< * + k P V.V.V.L t @.5.X.X.X.X.f.& i Q Q Y F Q ( / / Q C ~ }./ {.! Q Y ! G ( ~ ",
"~ Q ~ ) / C Q o w p q w q q q L V.V.T.T.!.x.  4 *XyX&.%   M C.L q t ..%.X.X.X.+.5., y F ,.( ) Y Y Y R ~ ! / R / ~ F G G R F / ~ ",
"R ( ) ) {.Y Q o q 7 P I.^.^.V.P V.C.L.L.!.c % rX7XaXkX7Xl.< 1 s e t ..%.X.X.X.X.%.o.H 6.u.~ ! Q ) ~ / ) ,./ / R ( / ) ( / ( E / ",
"R ~ Q / G C Y o V C.T.~.~.!.x.O z C.S.Y.(.v   aXhXhXhXhXkX*   p r t ..%.X.X.X.X.X.p.g = -.R R ) ) ) / ! ! G ^ Q / / ) ~ Q Q F S ",
"R Q G R ! Y R : I./.Y.Q.U.m.x.b > 1 V./.c.x k.7XbXbXuXaXbXw O H 0 t ..%.X.X.X.X.%.5.t w 2.) R Q ! ~ G <.) Q R U ! ( ! ! ~ ! R Q ",
"( Y R ,./ ( ( K n.D.S.R.M.> M.(.c.  N M   d.bXbXvXbXvXbXtXe t ..9 a ..%.+.%.X.X.%.5.t w :./ ! ( ( Q ! ^ _ Q Q R ! ( ~ 3./ R / 1.",
"! R ) ~ / ( ( >.4 v.F.P B > M.Q.Q.m.:   $.sXbXvXnXnXbX7X* | 8.] 9 t ..%.X.+.X.X.%.5.t t w.) / {.S <._ R G Q Q ( ( ].,.! / ^ ,./ ",
"Q E .X'.Q Q R ! y.J l C.N : J.Q.!.b.  3XyX;X7XbXbX*X= w | %.5.] = X | 8.H g X.+.%.5.t g 2._ ,._ Y ( 1.<.~ F ( ( {.! ! Q R R Q ( ",
"Q U 3.,.Y R R R Q oXh l I.m.N.I.!.n.2 pXaX*X4XuX..6.T   %.5.+.+.f   | h.g t %.%.%.5.g   O.|.~ ) R ,.,.^ q.R ~ <..XQ Q R R R ,.Q ",
"! F ( Q / Y ! ~ R ! 8 ; !.Q.V.M n.z.k 9XaXtXyX$.9 -.W   | 5.X.%.X.* 0 X.] t H ] X.8.| O . 6.u.) R / 1.Q R F ( / ( Q R Q S u ~ q.",
"E Q / }.,./ ) Q Y / J z n.Q.D.z > k l H.9XMX7X@ :.Q 3   X.5.%.+.5.%.  t %.0 0 5 H %.| s a   7.|.S R Q / E R / <.Q Q Y R |.U ,.|.",
"E ( ) / Y Q Q Q 1./ U f.% K.C.L C.T.T.Y.!.V.# T >.1.W * H 5.X.X.5.X.o t | g %.g = # * t t a # o.Q R F {.! / U R S 1.( ,.) Q R E ",
",./ R Y Q G S ( ~ ( 3.^ h.+ m /.T.R.R.T.Y.;   w.( 2.,.6.o o.] g 8.5.t X & H p.8.8   = t t H . i / ! / Q R E ) 1.^ 2.,.E E Q S R ",
") ^ R Y ! ,.R ! ,.( ,.,.R r.o c.!.Y.U.(.l 8 u.^ ! ( ! ^ y.t t H g t 9 , X & * g 5 o = t t t 0 , O.) ,.! S ,.( ^ ! ( ! R Q F C ( ",
"Q G F Y / ) Q ! ( / Q ! R ~ k.y v.!.W.z.f j.1.E Q Q Q Q / 9 , f.g X o r 9 O .   O 0 9 t t t r t o.>.3.( G ) 1.E Q Q Q Q / ! R Q ",
"Q G _ F / Q / ^ ( ~ ~ G F ~ 1.j.1 n.b.9 e.( ^ R R R ( / ^ %.t | g & & 0 g s a f 9 9 9 t t r   l.aX& 6.2.G ~ ( R R R ( / Q R ) R ",
"Y R Q Y ~ Q 3.R / ( Q R R ( ,.Q i O * J S U R Y Y / / Q Q Q o.X o & t t t , a hXg.o # t a a O g.bXk.o y S U R Y Y / / Q R R ! C ",
"<.~ Q F 1.! Y Z Q ( R R Y ( ) / ^ 2.w.U G / ( ! ! / R G F Q / :.oXO X X O . o hXaX=Xk.  . 5XcXcXvXg.k...  h ,.! ! / R G F Q Y R ",
") ( Q R S Q F G F ! R U ! R ) R R F F Y / ( ( ( !  XQ ( / ( R Q 2.y.7.7.>.6.& j j f 8 . . j g.g.=X&.;X-X$.k.e.( !  XQ ( / ( R Q ",
"Y ;.( R u Y _ ( ) R S ! ) ) S S R Q ( ) ) ( ! './ R ) ! ~ ! 1./ Y ;.( R u E W H | T h y y J J 0 @ * -XyXaXbXj './ R ) ! ~ ! 1./ ",
"R 2.! U A ! ( _ ! / G ( ! <.Q ! ( ( ( ! ) 3./ / F ( ^ R Y G F Y R 2.! U A ! ( _ ! / G ( ! <.Q 2...T ..=XaXjXf / F ( ^ R Y G F Y ",
"R Y R / _ Y Q Q ! ! Q ! Q ~ ! R Q / / Q Q / G G ( ^ R Y F G S U R Y R / <.Y Q Q ! ! Q ! Q ~ ! R ( 2.J j bXaXf G ( ^ R Y F G S U ",
"/ E ( / / ~ ! Q Y R F / Y ! R 1.F / / R ^ ^ G R ( R U G G / Y U / E ( / / ~ ! Q Y R F / Y ! R 1.S ~ 2.e.*XxX .R ( R U G G / Y U ",
"Q R <./ ( R ( Q Q G R Q G ! R Q Q Q ! R R R R U Q R F }.1.,.Q ! Q R <./ ( R ( Q Q G R Q G ! R Q Q Q Q 7.{ bX$.U Q R F }.1.,.Q ! ",
"Y R ! ( Y ( ! _ Q Q ( _ ) Z Q / ,.1.( U Q ( _ ( ( ( / 1./ G / 3.Y R ! ( Y ( ! _ Q Q ( _ ) Z Q / _ 1.( t.y.*Xw ( ( ( / 1./ G / 3.",
"U R R R R R Y Y ;._ / 2.Q ) ~ ! ( 3.1.R ( ) R R R 2.( ~ G G / / U R R R R R Y Y ;._ / 2.Q ) ~ ! ( 3.1.R ;.= O R R 2.( ~ G G / / ",
"U R S ( Q R R Z 1.! R Q _ ( Y Y R Q R ^ ) R Q R R R R ,.^ G ! / U R S ( Q R R Z 1.! R Q _ ( Y Y R Q R ^ ) R Q R R R R ,.^ G ! / ",
"R U C R / Y ( ) ! R Q R / Q Q Q Y Q ~ U <.R ^ Q R ! ^ 2.^ R F / R U C R / Y ( ) ! R Q R / Q Q Q Y Q ~ U <.R ^ Q R ! ^ 2.^ R F / ",
"G S F Q Y R Y ~ / Q Y F ! F R R S G ^ ^ ^ ^ R R / A ~ Q R Z G Y G S F Q Y R Y ~ / Q Y F ! F R R S G ^ ^ ^ ^ R R / A ~ Q R Z G Y ",
"! R R ! Q R R ( Q R R / ( ! 1./ Y / .X( F S F G R Y Y S Q F Q Q ! R R ! Q R R ( Q R R / ( ! 1./ Y / .X( F S F G R Y Y S Q F Q Q ",
",./ G / ( ! / Q U F ,.( ! 3.( G Q <.3.) E R ^ ( ! ! Q R ! ! Q / ,./ G / ( ! / Q U F ,.( ! 3.( G Q <.3.) E R ^ ( ! ! Q R ! ! Q / "
};
