/* XPM */
static char *xpm_[] = {
/* columns rows colors chars-per-pixel */
"64 64 237 2 ",
"   c #000000",
".  c #0A0303",
"X  c #0C0C0C",
"o  c #040A0B",
"O  c #140000",
"+  c #190607",
"@  c #18130E",
"#  c #0B0F11",
"$  c #170E15",
"%  c #011516",
"&  c #091718",
"*  c #141314",
"=  c #1C1516",
"-  c #1D1B1B",
";  c #191719",
":  c #260506",
">  c #320101",
",  c #390506",
"<  c #241A13",
"1  c #291E16",
"2  c #211B1E",
"3  c #2B1516",
"4  c #331518",
"5  c #29211B",
"6  c #1A1A20",
"7  c #241F22",
"8  c #1A272A",
"9  c #042B33",
"0  c #182B31",
"q  c #0C3135",
"w  c #242324",
"e  c #2B2325",
"r  c #2D2529",
"t  c #252A2E",
"y  c #2A2A29",
"u  c #32262B",
"i  c #332A2D",
"p  c #372A27",
"a  c #3F3021",
"s  c #34302D",
"d  c #272D31",
"f  c #342E31",
"g  c #392E33",
"h  c #36263A",
"j  c #343233",
"k  c #3B3235",
"l  c #3A3739",
"z  c #2E3737",
"x  c #4D0506",
"c  c #580404",
"v  c #461618",
"b  c #581518",
"n  c #650807",
"m  c #750100",
"M  c #6A1819",
"N  c #6F1818",
"B  c #501E22",
"V  c #671F21",
"C  c #751F22",
"Z  c #492729",
"A  c #572729",
"S  c #463424",
"D  c #4A3726",
"F  c #4E3A2A",
"G  c #4C3827",
"H  c #543E2C",
"J  c #583F2C",
"K  c #41363B",
"L  c #433B3C",
"P  c #453C35",
"I  c #542D30",
"U  c #682428",
"Y  c #772627",
"T  c #673234",
"R  c #56412E",
"E  c #5A422E",
"W  c #49423D",
"Q  c #46403C",
"!  c #5D4431",
"~  c #5E4834",
"^  c #58493C",
"/  c #614633",
"(  c #644935",
")  c #694D37",
"_  c #664C38",
"`  c #6A4E39",
"'  c #6D513B",
"]  c #72543D",
"[  c #73583F",
"{  c #493E41",
"}  c #473C45",
"|  c #344D4F",
" . c #4C4343",
".. c #494847",
"X. c #534C46",
"o. c #554C4C",
"O. c #584E4F",
"+. c #594945",
"@. c #59534C",
"#. c #594E50",
"$. c #554C55",
"%. c #4A5759",
"&. c #5C5253",
"*. c #575857",
"=. c #4F4B54",
"-. c #674748",
";. c #6E5541",
":. c #69574C",
">. c #745641",
",. c #765943",
"<. c #7B5B44",
"1. c #755C4A",
"2. c #7D5D48",
"3. c #615655",
"4. c #695E56",
"5. c #665B5B",
"6. c #695D5E",
"7. c #635954",
"8. c #55615C",
"9. c #7B604B",
"0. c #77614F",
"q. c #6D6259",
"w. c #686158",
"e. c #756354",
"r. c #7B6553",
"t. c #73665C",
"y. c #7B6A5D",
"u. c #76675A",
"i. c #5C5C61",
"p. c #6F5B76",
"a. c #6E6263",
"s. c #676669",
"d. c #756966",
"f. c #7F7164",
"g. c #7A797A",
"h. c #736977",
"j. c #5D6661",
"k. c #891A18",
"l. c #951917",
"z. c #8C0B08",
"x. c #A71B16",
"c. c #BA1B14",
"v. c #BB0E09",
"b. c #A9221E",
"n. c #BA241D",
"m. c #872425",
"M. c #942424",
"N. c #9C2424",
"B. c #952829",
"V. c #8C3432",
"C. c #A52320",
"Z. c #AA2825",
"A. c #B22E2B",
"S. c #C91C13",
"D. c #D6180D",
"F. c #FA190C",
"G. c #E31D13",
"H. c #F81E11",
"J. c #EE1A0E",
"K. c #CA251D",
"L. c #D4231B",
"P. c #DB2319",
"I. c #E4241A",
"U. c #E92419",
"Y. c #F32316",
"T. c #FC2214",
"R. c #FC2619",
"E. c #FE291C",
"W. c #F3271A",
"Q. c #CC2A25",
"!. c #D62822",
"~. c #D73F37",
"^. c #F82D22",
"/. c #F13128",
"(. c #805F49",
"). c #884F4D",
"_. c #83634C",
"`. c #8C6C53",
"'. c #826D5C",
"]. c #866954",
"[. c #88715E",
"{. c #93735B",
"}. c #916E51",
"|. c #826E61",
" X c #847263",
".X c #807F7E",
"XX c #F47870",
"oX c #9A8679",
"OX c #7B6A82",
"+X c #7D7982",
"@X c #84758A",
"#X c #8C7595",
"$X c #947D9C",
"%X c #876C91",
"&X c #78868A",
"*X c #86888A",
"=X c #94809D",
"-X c #97989A",
";X c #8F949E",
":X c #A0A49F",
">X c #9781A0",
",X c #9B85A4",
"<X c #9F8AA9",
"1X c #9E9DA5",
"2X c #A38DAB",
"3X c #AA96B4",
"4X c #AD93B8",
"5X c #A6A6A8",
"6X c #B8B8BA",
"7X c #ACAFB3",
"8X c #A49497",
"9X c #FFC0BC",
"0X c #B69CC1",
"qX c #B6A8C1",
"wX c #B6BCC3",
"eX c #8FBEC3",
"rX c #C2B8CD",
"tX c #CBB9D6",
"yX c #BEC3C9",
"uX c #C3C5C7",
"iX c #CCCBD4",
"pX c #CDC8D7",
"aX c #D2D3DC",
"sX c #D8D8DA",
"dX c #D2CEDC",
"fX c #DADBE4",
"gX c #DCDAE7",
"hX c #EADBF7",
"jX c #DAE4E7",
"kX c #E4E5EA",
"lX c #E9EAF3",
"zX c #ECF3FA",
"xX c #F4FBFF",
"cX c #FEFEFF",
"vX c #F3F5FA",
"bX c #F8EAF5",
"nX c #FED2D4",
/* pixels */
"2.2.G ` ' ! / E R ( ` / E E E H ' ] ) ! ( ! ` ( / E ! E / E ( ) 2.<.G ` ' ! / ! R ( ` / E E E H ' ' ) ! ( ! ` ( / E ! E / E ( ) ",
"' ' ` ( / E / H R E E / / E H / ' ` ` / S ) `.` _.( / E ( J ' _ ' ' ` ( / ! / J R E E / ( E H / ' ` ` / S ) `.` _.( / E ( J ' _ ",
") / ) ] ' S / ' ) ] ( G ' ' ] E E E ! ) ( ` ! ` ) H J J ! H ` ) ) / ) ] ' S / ' ) ] ( G ' ' ] E E E ! ) ( ` ! ` ) H J J ! H ` ) ",
"! ' ] ] _.E / ` / ( 2.H [ ) ( / ] ) ` ] >.` ` ! ' ` ] ' ` ' ~ ` ! ' ] ] _.E / ` / ( 2.H [ ) ( / ] ) ` ] >.` ` ! ' ` ] ] ` ' ~ ` ",
"! ) / ` J S E / / ! R E / ! ! ] ] ] ` ( ( J _ / ` ` ] ) / / e   . . . . w S E / / ! R E ! ! ! ] ] [ ` ( ( J _ / ` ` ] ) / / H F ",
"! / J ! ( E ! H / E ( ( ` ] / / ( ) J ,.] / ! R ( ' 4.X.o.o.r 7 2 2 2 7 r X.X.X.X.X.1.( ` ] E / ( ) J ,.] / ! R ( ' ( ( _ ( ! / ",
"' E ! >.` ' ' ( D / ` ` ) ' ( ' ' / ( _ [ / / ! >.'.        i K k k k K r           w.f.f. Xf.;.' / ( _ [ / / ! ( ' ) 2.` ! ` <.",
"( ! ] _ ` ' ' ] H ] ] <.<.] ` _.F ,.[ ! J ( _ ] |.  e k g f i r u u u i i g g g g K           W F ,.[ ! J / / ' ' (.>.( ` _ ;.` ",
"/ ~ {.(./ / ! ( ! ' _ 2.' [ >.[ E ' <.,.r.; * * ; r g K e             X K k i i i 0 x.J.c.S.M.4 % & % % % % % % % ( ( / ! ! / ' ",
"/ R 2.>.E ! ! ! / ' ` ] ,.[ *.8.%.8.8.*.+..     $ K       $.h.*X*X*X:Xl     e k i t A K.T.R.!.x.n > c z.m m > > z.:.:.! ! ! >./ ",
"( H ' / ` E ( ) ! ( ` ] 9.f.  . O O +     K L  .k = d l =.tXcXcXlXzXcX;Xl l w e i i 9 Z n.L.I.R.E.m.b.U.U.E.Q.A.^.  < / F a ) 9.",
"~ / ` `.>.` ] / E ` ! ` d.  m.!.R.W.R.Y 0 i &.a.i   aXcXzXjXlXqX%X$X%XrXcXcXt   k i i 0 t L.U.I.L.x > v Y K.T.L.Y . < ! ].R >.].",
"~ ' ] ` E / / ! <.` H | o N.Y.N.m.N.B { O.o.a.= ; #XaXlXgXfXgXgXrX=X>X,XqXcXX   L i 9 A I.P.P.W.U.: z.!.m.m.n.W.L.+ 1 ] ] ( ! ~ ",
">.` ! E / J F ' ) ' j.n m C C.n.m.u z =.3.&.#.  # hXgXfXfXfXfXlXaX>X,X$X,XtX6X*.= t U K.T.P.I.S.k.x.E.L.4 A n.R.U.+ 5 ~ ! ( F ! ",
"] _ ! E ( >.! r.[. X. S.c.> Y Y.Z.q &.&.&.o.e ; s.cXgXfXfXfXfXkXpX>X,X<X=Xp.lX*X  0 K.T.L.P.R.x.: v.S.c   V Q.Y.G.+ < ! / H S ' ",
"/ J H E ` ] / i   O E.N + n I.F.A.| O.O.&.o.  *XcXfXfXfXfXfXfXkXpX>X,X2X$Xf i *   0 Z.Y.P.P.W.c.,         V Q.Y.G.+ < / ` ( ! / ",
"/ R [ H P j 9 Z b > x c.l.V Y.U.L.A.%.%.3.o.  *XcXfXfXfXgXlXgXkXpX=X,X<X=Xp.kX*X  9 Z.T.Y.E.!.x   y.y.'.:.8 m /.bXw 1 ` / ! ] ! ",
"E ! / E 1   c n.k., k.I.I.Z.C.L.H.J.A.3.%.o.  h.bXgXfXzXkX3XdXxXlX4X2X,X2XtXiX*.  Z Z.!.n.c > < w.! ` ! F o -.9XjX8 1 / ! ! ( S ",
",.` / H 5 , ^.E.l.n I.G.J.I.U C.P.I.F.V.%.o.* h 2XlXkXiX7X>XaXaX5XOX@X$X3XcX$.    N.Y b v 9 0 q.! ! ` H J   &XxX*X* < J H / E ! ",
"] ' / ! @ > U.I.U.L.U v.F.P.m.U C.Y.Y.x.T %.a.  d vXxXi.l zXcXs.    l @XqXzXs.    B.:     ! ] ! ! H H E ` X Q 6X5X; < ' ` ' ! / ",
"E ;.' ! @ O ^.R.I.D.v.nX8XO + V A.Z.Z.m.U T 6.  j cXzX$XOXzXcX-X    y +X4XrXcX&X  B.. ..'.] F F ! / ' ] ]   *.cXlX2 1 ( ) ( <.` ",
"! ,.( R +.:.m x.G.^.XXzXeX0   O > : : l.L.x.i.  r hXgXpXrXwX*Xl   w i.2X2X} ;Xs.v B.  w.( ,./ ( ' ' ' 1.t.t.7XkXcXw 1 ! E J H E ",
"! E E ` ,.;.% 4 z.~.cX7X5X6X- & & & & k.T.U.).* 6 #XdXxXjX-Xo   7 h.2X0Xh.    > A.B.  @./ ) ( ! / ` 1.t.  cXsX5XcXw < E H J F R ",
"` ~ ' ` ` ) _ e   X cX6X6XcXxXxXxXcXcX| : E.H.).q   aXcXgXfXlXqX%X,X0XOXy # M B.m.Z.  ..! ( ! <.H ` W w cX6X-XuXcXw = J J ` E R ",
"/ ! ,.` ' ! ' r.y.t.- .XxXcXcXcXlX7XcXq   Q.H./.m.& y @XhXcXcXcXgX4XOXf # % Y N.c   4.0.J ( ! / / / X.  g.o.j &XcXw = `.<.>./ ( ",
"E ! / ' E ' ( [ / /  .P s.*XcXkX6XuXkX7Xi.v b.H.K.q   $ p.+X-X5X1XOXj o o : C x . *.1.[ ] D / ` >.<.W   5X5X-XuXcX* 1 <.` J ` 2.",
"R ! ! ! ! ! E E ;.[ ` X.  # kX7XuXcXg.cXwX  B K.n.i l X     ; r w y * X 3 n x . z [ ` ,./ ] ) ( ' 2.@.j cXvXxXvXjXj p ) J J ` ` ",
"R ! F ' / ! ! D <.( ! / ,.r.  uXcX5XX       m.m.C.Y.i 0 u u i i e * o v B.N.  o.2.( ! / [ ' E E ! / ! y.          1./ >._ J ( ` ",
"! R S ! ` E ' ] ( ! / ! ` 1.  X y     4.f.  p Y N.b.K.A 9 g i g r o v M.M.I   w.( ! / ! ` / / / E / _ ~  Xt.y.y.t.( _ 1._ ! H ` ",
"J F H / E ! E ) ` / E H ( _ @.P s Q @._ 1.  8 Z Y C P.b.A t i y 7 4 M.B.A t   4.` / E H ( H ! ! F J _ _ _ _ ! ! ` G _ / ! D J E ",
"( ! ! ( / ! ! ' / ! ! ` ' ( <.` E ` {.' e.  r d Z m.U L.P.t f ; 3 N.M.Z 0 g . 7.' ! ! ` ' ( <.` E ` {.' H F H H ! E E F / H / / ",
">.` J ` ' ( ` / R H >.' ( 2.' J / ,.2.] u.  2 { &.O.Y l.k.Y t Z M.M.Z w i O.5.* ; H >.' ( 2.' J / ,.2.] ~ ! _ ' ( ( / ! ( ( / ` ",
"2.2.G ` ' ! / ! R ( ` / E E E H ' ' ) ! r.  K &.&.$.-.+.T l.M m.M.Z 7 j o.&.5.L 5 X.1./ E E E H ' ' ) ! ( ! ` ( / E ! E / E ( ) ",
"' ' ` ( / ! / J R E E / / E H / ' ` ` r.&.2 &.&.O.O.*.%.O.Y V.Y A 0 f o.3.O.o.6.#.  @.e./ E H / ' ` ` / S ) `.` _.( / E ( J ' _ ",
") / ) ] ' S / ' ) ] ( G ' ' ] E E E ! s   d.&.O.O.O.O.O.&.*.*.| w r O.3.O.O.O.O.&.d.  P 1.' ] E E E ! ) ( ` ! ` ) H J J ! H ` ) ",
"! ' ] ] _.E / ` / ( 2.H [ ) ( / ] ) ` X.  5.#.O.&.#.r L 5.&.5. .7 e  .&.O.O.O.O.O.&.&.2 * ] ( / ] ) ` ] >.` ` ! ' ` ] ' ` ' ~ ` ",
"! ) / ` J S E / / ! R E ! ! ! ] ] ] @.i K &.#.O.#.#. .K K {  .k k { O.&.O.O.O.O.O.O.a.=   ! ! ] ] ] ` ( ( J _ / ` ` ] ) / / H F ",
"! / J ! ( E ! H / E ( ( ` ] ! / 1.y.  i d.O.O.O.O.O.5.L 2 - X X w 6.&.O.O.O.O.O.O.O.6.w   '._ / ( ) J ,.] / ! R ( ' ( ( _ ( ! / ",
"' E ! >.` ' ' ( D / ` ` ) ' ( ' y.  &.5.O.O.O.O.O.O.&.{ 2       X &.&.O.#.#.O.O.O.O.5.j     y.' ' / ( _ [ / / ! ( ' ) 2.` ! ` <.",
"( ! ] ) ` ' ' ] J ] ] <.<.] ` _.w.  o.&.O.O.&.&.O.O.&.o.X   |.9.y.  = #.a.5.&.O.O.O.&. .e   ; t.F ,.[ ! J / / ' ' (.>.( ` _ >.` ",
"/ ~ {.(./ / ! ( ! ' _ 2.' [ >.[ t.  o.&.&.&.k  .&.O.d..   t./ ' ( t.. . e w O.a.5.3.a.L $ k   P E ' <.,._ H ' ' _.( ( / ! ! / ' ",
"/ R 2.>.E ! ! ! / ' ` ] ,.[ ) ] t.  o.3.O. .i { &.O. .2 7.! >./ / R d.-     e  .l L  .j w d.  P ! >.>._ 9.! _ ,.{./ / ! ! ! >./ ",
"( H ' / ` E ( ) ! ( ` ] ] ] ] ] t.  o.5.{ e &.&.&.#.  y.F a ) 9.( H ' t.          X   i a.5.  W ! ` <./ ! H ' ` ' / ! / F a ) 9.",
"~ / ` `.>.` ] / E ` ! ` ` ( ,.9.w.  f f r i O.O.5.6.  q.].R >.].~ / ` f.  -X{ = e g 7       f.[.F ! / ` ~ ! ` ,./ / E ! ].R >.].",
"~ ' ] ` E / / ! <.` H ! ( ! ,./ u.  2 l k i 3.a.L X q.[.] / ! ~ ~ ' ] t.  uX .2 g     w q.4.]./ ! ! H _.( ` R ! F <.' >.] / ! ~ ",
">.` ! E / J F ' ) ' 2.! ! ! / 0.q.. i 3.O.r k  .u y >.~ ~ / F ! >.` 1.o.; 6Xd.r = i j t.! ! / ( ` ( ` / ! ~ ] <._ ,.>.~ ~ / F ! ",
"] _ ! E ( >.! ( >.' >.>.! F ] Q   2 &.6.o.r      .' ( ! / H S ' ] _ -   g.7XsX..  ' >.>.! F ] >.>.] >.( F >.' _ ( ' ( ! / H S ' ",
"/ J H E ` ] / ( ' ` / ( ! 1.P oX-X  - 7 X *  Xe.1./ / / ` ( ! / 0.j 7.*X*.     .'.` / ( ! ) `.{.].].] ' J ] <.~ / / / / ` ( ! / ",
"/ J [ H ` / ` _ ' ) ) J H 9.  aXkX  ; 2     ` ! ! ! ' ` / ! ] ! r.  -X*X5 7.4.y.' ) ) J H ) ,.>.( _ _ ` J ` ` ! ! ! ' ` / ! ] ! ",
"E ! / E ) / 2.! ` ' / ! ! r.  yXiX+ i K $   _ E E ` ` / ! ! ( S e.  -X .  / 2.! ` ' / ! ! ' >.! J ! ` ! F R ! E E ` ` / ! ! ( S ",
",.) / H <.( E D / ' ! ! E r.  uXiX  = k X   ,.( ( ` ! J H / E ! [.  5X..  ( E D / ' ! ! E ' ] ` ! ! ) H J ` ' ( ( ` ! J H / E ! ",
"] ' / ! F / H J H ( ! R ( !   5XcXiXvX*   '.' ' ( }./ ' ` ' ! / '.    @.:.! H J H ( ! R ( ! ] ! ! H H E ` ' ' ' ( }./ ' ` ' ! / ",
"E ;.' ! a E [ ' ] ! F ( '.y.W -XlXcX-X@.y.' ( (.` ! ] ( ) ( <.` ;.q.@.e.a E [ ' ] ! F ( ] ] F F ! / ' ] ] ' ( (.` ! ] ( ) ( <.` ",
"! ,.( R G ( ' [ ( ` J ' q.  6X7X-Xg.  y.] 2.` ` H ' _ ! E J H E ! ,.( R G ( ' [ ( ` J ' ( ,./ ( ' ' ' ( ] 2.` ` H ' _ ! E J H E ",
"! E ! ` [ E / / ( ( ( ( t.  -XuX$.  >./ / ` J J ' _ ! E H J F R ! E ! ` ,.E / / ( ( / ( / ) ( ! / ` ` / / ` J J ' _ ! E H J F R ",
"` ~ ' ` ` ) ( / E ! H ` q.  kXcX .  ` ! _ _ J ! ' ! R J J ` E R ` ~ ' ` ` ) ( / E ! H ` E ( ! <.H ` ` ! _ _ J ! ' ! R J J ` E R ",
"/ ! ,.` ' ! ' / / J ! / 4.  cX5XW 7.` ! ! ! ! R / ! H `.<.>./ ( / ! ,.` ' ! ' / / J ! / J ( ! / / / ( ! ! ! ! R / ! H `.<.>./ ( ",
"E ! ( ' E ' ( [ / / ' [ y.  cX# W <.' R / ' [ ' ' ' ` <.` J ` 2.E ! ( ' E ' ( [ / / ' [ ] D / ` >.<.' R / ' [ ' ' ' ` <.` J ` 2.",
"R ! ! ! ! ! E E ;.[ ` ,.q.  cX; y 2.<.E ' ] ! ! ! ,.' ) J J ` ` R ! ! ! ! ! E E ;.[ ` ,./ ] ) ( ' 2.<.! ' ] ! ! ! ,.' ) J J ` ` ",
"R ! F ' / ! ! D <.( ! / |.. *.*Xe./ E _ ] ! / ! ! ! ! >._ J ( ` R ! F ' / ! ! D <.( ! / [ ' E E ! / ! _ ] ! / ! ! ! ! >._ J ( ` ",
"! R S ! ` E ' ] ( ! / ! ` / / / E / _ R ,.! _ / ! ( _ 1._ ! H ` ! R S ! ` E ' ] ( ! / ! ` / / / E / _ R ,.! _ / ! ( _ 1._ ! H ` ",
"J F H / E ! E ) ` / E H ( H ! ! F J _ _ _ _ ! ! ` G _ / ! D J E J F H / E ! E ) ` / E H ( H ! ! F J _ _ _ _ ! ! ` G _ / ! D J E ",
"( ! ! ( / ! ! ' / ! ! ` ' ( <.` E ` {.' H F H J ! E E F / H / / ( ! ! ( / ! ! ' / ! ! ` ' ( <.` E ` {.' H F H J ! E E F / H / / ",
">.` J ` ' ( ` / R H >.' ( 2.' J / ,.2.] ~ ! _ ' ( ( / ! ( ( / ` >.` J ` ' ( ` / R H >.' ( 2.' J / ,.2.] ~ ! _ ' ( ( / ! ( ( / ` "
};
