/* XPM */
static char *xpm_[] = {
/* columns rows colors chars-per-pixel */
"64 64 239 2 ",
"   c #020202",
".  c #0C0A0B",
"X  c #080607",
"o  c #110C0C",
"O  c #160505",
"+  c #17120E",
"@  c #120F11",
"#  c #110710",
"$  c #0D1516",
"%  c #141214",
"&  c #1D1C1C",
"*  c #191718",
"=  c #0F100F",
"-  c #2E0101",
";  c #270505",
":  c #390607",
">  c #221C1C",
",  c #251613",
"<  c #361617",
"1  c #2E0E13",
"2  c #25201D",
"3  c #1C1821",
"4  c #091F21",
"5  c #261E21",
"6  c #281E23",
"7  c #1A2827",
"8  c #112D31",
"9  c #242424",
"0  c #2B2324",
"q  c #2D262A",
"w  c #232A2D",
"e  c #2C2B2B",
"r  c #272729",
"t  c #32262B",
"y  c #332A2E",
"u  c #352924",
"i  c #3E3020",
"p  c #37332F",
"a  c #2C2D31",
"s  c #352C31",
"d  c #3A2E33",
"f  c #343235",
"g  c #3C3434",
"h  c #3A3939",
"j  c #293737",
"k  c #480708",
"l  c #580C0B",
"z  c #431415",
"x  c #501516",
"c  c #660907",
"v  c #770805",
"b  c #6E100F",
"n  c #79120E",
"m  c #691416",
"M  c #781818",
"N  c #671E21",
"B  c #741E20",
"V  c #462326",
"C  c #463424",
"Z  c #4A3726",
"A  c #4C3927",
"S  c #4D3A2A",
"D  c #4A3728",
"F  c #543E2C",
"G  c #583F2C",
"H  c #453C3C",
"J  c #423739",
"K  c #593332",
"L  c #682428",
"P  c #782527",
"I  c #6A3537",
"U  c #2E423D",
"Y  c #56412E",
"T  c #5A422E",
"R  c #4C433B",
"E  c #48413A",
"W  c #5D4431",
"Q  c #5E4834",
"!  c #574639",
"~  c #614633",
"^  c #644935",
"/  c #694D37",
"(  c #654C39",
")  c #6A4E39",
"_  c #6D513B",
"`  c #72543D",
"'  c #73583F",
"]  c #734039",
"[  c #3F3F44",
"{  c #483E41",
"}  c #4D3D52",
"|  c #3A4749",
" . c #3E5155",
".. c #4C4343",
"X. c #484647",
"o. c #554C4D",
"O. c #594E4F",
"+. c #564A44",
"@. c #5A534B",
"#. c #52544D",
"$. c #594F50",
"%. c #524C54",
"&. c #495354",
"*. c #545455",
"=. c #5C5353",
"-. c #5C5B5B",
";. c #59555B",
":. c #484E51",
">. c #684A47",
",. c #665243",
"<. c #6D5542",
"1. c #6A594B",
"2. c #745641",
"3. c #765943",
"4. c #7A5B44",
"5. c #735B4A",
"6. c #7C5D49",
"7. c #615657",
"8. c #655C53",
"9. c #6B5E53",
"0. c #695D5C",
"q. c #655A5A",
"w. c #725F51",
"e. c #774E4D",
"r. c #7C614B",
"t. c #69635A",
"y. c #746355",
"u. c #7B6A5D",
"i. c #776559",
"p. c #5D4F63",
"a. c #655C63",
"s. c #6D5E77",
"d. c #5A6264",
"f. c #5E7C7F",
"g. c #6A6768",
"h. c #746C65",
"j. c #716366",
"k. c #787777",
"l. c #736E70",
"z. c #87140E",
"x. c #881714",
"c. c #911410",
"v. c #A70A04",
"b. c #AC140C",
"n. c #B8140B",
"m. c #A51B15",
"M. c #B81D17",
"N. c #9A201D",
"B. c #B3241E",
"V. c #872525",
"C. c #992626",
"Z. c #963836",
"A. c #863D3B",
"S. c #AC2521",
"D. c #A22726",
"F. c #B92A25",
"G. c #BC3A34",
"H. c #C30100",
"J. c #C61B13",
"K. c #D5160F",
"L. c #F31E12",
"P. c #EF1A0E",
"I. c #C8231D",
"U. c #DC2319",
"Y. c #D52118",
"T. c #E42419",
"R. c #EC251A",
"E. c #E72216",
"W. c #F52619",
"Q. c #F4291C",
"!. c #FD2A1D",
"~. c #FA2316",
"^. c #C52822",
"/. c #D32C27",
"(. c #FC2D21",
"). c #EC2E24",
"_. c #97423E",
"`. c #DE4037",
"'. c #805F4A",
"]. c #815F47",
"[. c #924441",
"{. c #83634C",
"}. c #866651",
"|. c #896B55",
" X c #916E51",
".X c #93735B",
"XX c #87715F",
"oX c #8D7966",
"OX c #BA5C5D",
"+X c #FF7D79",
"@X c #F05E5A",
"#X c #827986",
"$X c #8D7495",
"%X c #937B9B",
"&X c #856C8E",
"*X c #878789",
"=X c #98999B",
"-X c #908C97",
";X c #A09D9D",
":X c #9D89A6",
">X c #9C86A6",
",X c #9897A2",
"<X c #A38CAD",
"1X c #AB96B5",
"2X c #AD9BB7",
"3X c #9AA5A6",
"4X c #A3A2A2",
"5X c #A8A8AB",
"6X c #B3A6BD",
"7X c #B6B8BA",
"8X c #A8A9B3",
"9X c #E68E8D",
"0X c #C0C0BE",
"qX c #BCB0C4",
"wX c #C3B7CA",
"eX c #CBBBD6",
"rX c #B6CED2",
"tX c #C9CBCB",
"yX c #C6C8C8",
"uX c #CBCBD3",
"iX c #D3C6DD",
"pX c #C8D3D4",
"aX c #D6D6D7",
"sX c #DBDCE4",
"dX c #D6D9E1",
"fX c #EADDF6",
"gX c #DFE0E9",
"hX c #E2E2E3",
"jX c #E2E4EB",
"kX c #EAE9EA",
"lX c #ECEDF4",
"zX c #EBE8F6",
"xX c #EEF2F8",
"cX c #F3F3F5",
"vX c #F5FAFF",
"bX c #FDFEFE",
"nX c #F2F7FF",
"mX c #F8E9EC",
"MX c #F7DCDA",
/* pixels */
"6.6.A ) _ W ~ T Y ^ ) ~ T T T F _ ` / W ^ W ) ^ ~ T W T ~ T ^ / 6.6.A ) _ W ~ W Y ^ ) ~ T T T F ` _ / W ^ W ) ^ ~ T W T ~ T ^ / ",
"_ _ ) ^ ~ T ~ F Y T T ~ ~ T F ~ _ ) ) ~ C /  X) {.^ ~ T ^ G _ / _ _ ) ^ ~ T ~ G Y T T ~ ~ T F ~ _ ) ) ~ C /  X) {.^ ~ T ^ G _ / ",
"/ ~ / ` _ C ~ _ / ` ^ D _ _ ` T T T W / ^ ) W ) / F G G W F ) / / ~ / ` _ C ~ _ / ` ^ D _ _ ` T T T W / ^ ) W ) / F G G W F ) / ",
"W _ ` ` {.T ~ ) ~ ^ 6.F ' / ^ ~ ` / ) ` 2.) ) W _ ) ` _ ) _ Q ) W _ ` ` {.T ~ ) ~ ^ 6.F ' / ^ ~ ` / ) ` 2.) ) W _ ) ` ` ) _ Q ) ",
"W / ~ ) G C T ~ ~ W Y T W W W ` ` ` ) ^ ^ G ( ~ ) ) ` / ~ ~ F S W / ~ ) G C T ~ ~ W Y T W W W ` ` ' ) ^ ^ G ( ~ ) ) ` / ~ ~ F S ",
"W ~ G W ^ T W F ~ T ^ ^ ) ` W ~ ^ / G 3.` ~ W Y ^ u.o + + + y.( W ~ Y W ^ T T F ~ T ^ ^ ) ` W ~ ^ / G 3.` ~ W Y ^ _ ^ ^ ( ^ W ~ ",
"_ T W 2.) _ _ ^ Z ~ ) ) / _ ^ _ _ ~ ^ ( ' ~ ~ ( h.] c < b z.>.h.g.t.t.XX) _ _ ^ Z ~ ) ) / _ ^ _ _ ~ ^ ( ' ~ ~ W ^ _ / 6.) W ) 4.",
"^ W ` / ) _ _ ` G ` ` 4.4.` ) {.S 3.' W G ~ ~ ) 8 k ).F.Q.!.c O - - - O.r._ _ ` G ` ` 4.4.` ) {.S 3.' W G ~ ~ _ _ ].2.^ ) ( <.) ",
"~ Q .X'.~ ~ W ^ W _ ( 6._ ' 2.' T _ 4.3./ F _ 1.g : F.E.U.T.D.S.!.!.!.c 7.,.! ( ! 5.( 6._ ' 2.' T _ 4.3./ F _ _ {.^ ^ ~ W W ~ _ ",
"~ Y 6.2.T W W W ~ _ ) ` 3.' / ` W 2.2.( r.W 5.e k I.E.E.U.C.P S.W.R.R.~.n 7 w w 8 8.) 2.3.' / ` W 2.` ^ r.W / 3..X~ ~ W W W 2.~ ",
"^ F _ ~ ) T ^ / W ^ ) ` ` ` ` ` W ) 4.~ W F 2.  4X+XH.R.!.m : m C.V.n z.b z z 1 z.z.@.i.5.` ` ` W ) 4.~ W F _ ) _ ~ W ~ S i / r.",
"Q ~ ) |.2.) ` ~ T ) W ) ) ^ 5.r.S W ~ ) Q 1.8.d.rXkX@XH.c k n m.S.S.: X M /.^.^.).x.  . u ( 5.r.S W ~ ) Q W ) 3.~ ~ T W |.Y 2.|.",
"Q _ ` ) T ~ ~ W 4.) F W ^ W 5.~ W W F {.^ u.. 4X;XrXMXOXO   b.!.E.R.c.: z.W.R.~.N.t f 5   +.|.~ W W F {.^ ) Y W S 4._ 2.` ~ W Q ",
"2.) W T ~ G S _ / _ 6.W W W ~ ^ ) ^ ) ~ _ i.r 5X7X=XpXpXh $ M T.T.T.!.n b R.T.~.P 8 y s s . 7.5.) ^ ) ~ W Q ` 4.~ 5.2.Q Q ^ S W ",
"` ( W T ^ 2.W ^ 2._ 2.2.W S ` 2.2.` 2.( > 9 cXvXbXjX*.* y.T | ; Q.W.Q.n b R.T.L._.| q y s g . ..2.` 2.^ S 2._ ( ^ _ ^ W ~ F C _ ",
"~ G F T ) ` ~ ^ _ ) ~ ^ W / |..X}.}.` ! =.7XbXbXbX*X..u.<.^ y.t.k k c k n W.T.L._.| q y y J . E |.}.` _ G ` 4.Q ~ ~ ~ ~ ) ^ W ~ ",
"~ G ' F ) ~ ) ( _ / / G F / 3.2.^ 5.u.o.aXbXnXbXaX& 9.) ~ W ` i.    1 m M F.W.x.>.*.6         X 8.( ( ) G ) ) W W W _ ) ~ W ` W ",
"T W ~ T / ~ 6.W ) _ ~ W W _ 2.W G Q   7XcXsXbXbX4Xg.h.u.( W ^ 8.  l S.D.L P N.[ j q * *.-.&.*.X.3 8.u.1.S Y W T T ) ) ~ W W ^ C ",
"3./ ~ F 4.^ T Z ~ _ W W T _ ` ) W ,.. 7XhX7XbXhX7XkXk.  D ~ ( t.; E.!.S.V.B w *.5 @ &.lXbXzXvXzX1X% X 0 ( ) _ ^ ^ ) W G F ~ T W ",
"` _ ~ W D ~ F G F ^ W Y ^ W ` W W +.& 5XtX7XcX5XcX=X. H <._ #.> C.T.E.T.J.P :.* } wXaX1X<X:XwXlXjXuXtXg.E 6._ _ ^  X~ _ ) _ W ~ ",
"T <._ W i T ' _ ` W S ^ ` ` S S W ( r.=.& d.bX0XbXl.g 5.) ^ U ; (.U.Y.L.F.;.a.  k.bX1X%X%X$X2XjXjXcXcXjXl.g ( '.) W ` ^ / ^ 4.) ",
"W 5.^ Y A ^ _ ' ^ ) G _ ^ 3.~ ^ _ _ _ u.u.h.X.9 X.t.i.W T G &.- !.U.U.K.Z.| 7 -XwXqX$X>X:X%X6XjXsXdXdXbX4X  ,.) F _ ) W T G F T ",
"W T W ) 3.T ~ ~ ^ ^ ~ ^ ~ / ^ W ~ ) ) ^ ~ i.g g J w.~ T F 9.j : !.E.R.C.>.h   4X-Xs.<X:X>X%X6XjXsXsXsXlX7XX.8.G _ ( ~ T F G S Y ",
") Q _ ) ) / ^ ~ T W F ) T ^ W 4.F ) ) W ( ( G W _ W Y W ,.u   c Q.E.E.A.d...X f f ;.1X:X>X%X6XjXsXsXsXdXlXsXf W _ W Y G G ) T Y ",
"~ W 3.) _ W _ ~ ~ G W ~ G ^ W ~ ~ ~ ^ W W W W Y ~ W F oXf - : z.W.E.N.K a.g   uXwX$X:X>X:X%XqXzXsXsXgXsXcXsXa Y ~ W F |.4.2.~ ^ ",
"T W ~ _ T _ ^ ' ~ ~ _ ' ` Z ~ ) 2.4._ Y ~ _ ' _ _ _ ) XX9 : k x.~.R.>. .0.H   X.qXiX%X>X<X<XeXvXsX:XuXxXlXaXh _ _ _ ) 4.) G ) 6.",
"Y W W W W W T T <.' ) 5.~ ` / ^ _ 6.4.W _ ` W W W 5.5.t.. - : c.~.M.O.&.0.+.X   ;XxX%X:X#X%.%.*XjXwX#X5XuXg.R W W 5._ / G G ) ) ",
"Y W S _ ~ W W Z 4.^ W ~ ' _ T T W ~ W ( ` W ~ W W ,.+   o x k n /.I o.-.q.y   k.iXiX>X<X-.    s bXbXa.k.5X  ! W W W W 2.( G ^ ) ",
"W Y C W ) T _ ` ^ W ~ W ) ~ ~ ~ T ~ / Y 3.W ( 1.w.0.  e d V.m l P *.*.O...@ X 7X1X&X1X<Xl.r   r 5XaX6XiX=X  Y ~ W ^ ( 5.( W F ) ",
"G S F ~ T W T / ) ~ T F ^ F W W S G ( ( ( ( <.r 9 * y a s P C.m : *.-.J 0 y y & = s 2X<X<X#Xe     k.jXfXp.= ! W ) D / ~ W Z G T ",
"^ W W ^ ~ W W _ ~ W W ) _ ^ 4.) T ) .X_ F 1.e % > 5 s e y P N.I :.-.-.:.| :.&.H 0 & a.1X1X$X:X7X8XuXbX,XJ +.Y G W T T S ~ F ~ ~ ",
"2.) G ) _ ^ ) ~ Y F 2._ ^ 6._ G ~ 3.6.` 9.g q ......g 9 q P x.P I V V Z.`.G.I &. .| H p.>XeXzXbXbXfX#Xe 2 t.<._ ^ ^ ~ W ^ ^ ~ ) ",
"6.6.A ) _ W ~ W Y ^ ) ~ T T T F _ _ ) y.p . 0.=.=.7.o.f q P V.V.x.c k v v.v.M.Z.[.e.| j s.8X7X4X=Xs.# * 0 X i.^ ~ T W W ~ T ^ / ",
"_ _ ) ^ ~ W ~ G Y T T ~ ~ T F ~ _ ) ) p + j.O.O.O.O.7.%.y L V.V.V.P k O & , n.K.P.F.=.>.J 0 s *     & h d y   ) {.^ ~ T ^ G _ / ",
"/ ~ / ` _ C ~ _ / ` ^ D _ _ ` T T W ( u > 7.$.O.O.O.=.o.y w L C.M   $ -.tX*X4   z.!.T.T.V.V.L w w r e w a e . ) / F G G W F ) / ",
"W _ ` ` {.T ~ ) ~ ^ 6.F ' / ^ ~ ` 5.0.H o.=.O.O.O.O.=.o.y r d < , l.7XkXaX7XrX$ c !.L.L.N.V.P V.^.^.I.P 8 w . W _ ) ` _ ) _ Q ) ",
"W / ~ ) G C T ~ ~ W Y T W W W ` ` 5.* g a.O.O.O.O.O.=.o.y t a   3 kXhXhXhXhXaX  v (.Y.S.C.z o x.!.~.~.T.C.V . ~ ) ) ` / ~ ~ F S ",
"W ~ G W ^ T W F ~ T ^ ^ ) ` W ~ ^ 5.e y 7.$.O.O.O.O.=.o.y q H o e bXaXpXbXbX7Xk.x c./.V.< : b x.m.U.W.Y./.I.; Y ^ _ ^ ^ ( ^ W ~ ",
"_ T W 2.) _ _ ^ Z ~ ) ) / _ ^ _ _ ,.e y 7.$.O.O.=.$.=.o.s 0 o.y r tXbXbXbXnXbXbXf.  M B   c.(.M.- M.R.S.D.n.K W ^ _ / 6.) W ) 4.",
"^ W ` / ) _ _ ` G ` ` 4.4.` ) {.S r.e y 7.$.O.O.$.O.=.o.y 0 { q...& 7XbXnXnXvXbXsX*.  ; m.Q.Q.M.: B P F.v.4 +._ _ ].2.^ ) ( 2.) ",
"~ Q .X'.~ ~ W ^ W _ ( 6._ ' 2.' T 5.g y 7.$.$.O.g H 0.... * { 7.=...e * *XvXbX7X4XtX3X  b.!.W.J.- N C.l g y._ _ {.^ ^ ~ W W ~ _ ",
"~ Y 6.2.T W W W ~ _ ) ` 3.' / ` <.@.X g 7.=.=.=.y g h...  f $.$.7.=.  ..8.X.uX4X*XaXpX1 n.!.I.N.m.I.l g oXW / 3..X~ ~ W W W 2.~ ",
"^ F _ ~ ) T ^ / W ^ ) ` ` ` ` }.@.X o ..0.O.{ H y { O.q & O.=.O.7...  ! ,.0 *.tXtXaX9Xk z.M.M V.!.!.- 7 W F _ ) _ ~ W ~ S i / r.",
"Q ~ ) |.2.) ` ~ T ) W ) ) ^ r.t.  s d ..=.H 5 q q =.y   =.7.$.=.7.O.  D 2.5.o 7XMX9XH.l k : z D.Q.n.z R Q W ) 3.~ ~ T W |.Y 2.|.",
"Q _ ` ) T ~ ~ W 4.) F W ^ ( @.@ s y y & @ * g =.g ..y X O.7.O.O.7.H & R T w.E o V.!.Y.T.E.C.L C.J.$ t.}.^ ) Y W S 4._ 2.` ~ W Q ",
"2.) W T ~ G S _ / _ 6.W W W p X J y y *   9 q.a.H % . y 7.q.g { +.. 1.W ~ W !   - Y.T.R.R.T./.m O h.5.~ W Q ` 4.( 5.2.Q Q ~ S W ",
"` ( W T ^ 2.W ^ 2._ 2.2.W ..> q y y y * . 5 g & % . > 0 y g H y p u.( T ^ 2.W u.7 l (.U.Y.!.c.X h.` 2.^ S 2._ ( ^ _ ^ W ~ F C _ ",
"~ G F T ) ` ~ ^ _ ) ~ <.! R y t y y y 0 q o     o 0 t X . g j.> 9 G F T ) ` ~ ^ k.g z.W.!.v.u k.}.}.` _ G ` 4.Q ~ ~ ~ ~ ) ^ W ~ ",
"~ G ' F ) ~ ) ( _ / 5.8.% aXg.  t y y 0 0 0 h s d g q % % g ..u @.W ' F ) ~ ) ( <.u.0 b.n.< k.5.^ ( ^ ) G ) ) W W W _ ) ~ W ` W ",
"T W ~ T / ~ 6.W ( ) u X k.vXg.o s s y @ X g.hXs > y y y % . . R W W ~ T / ~ 6.W ) _ R & o E 3.W G W ) T S Y W T T ) ) ~ W W ^ C ",
"3./ ~ F 4.^ T ! g   @.k.l.vXcXcX5X    k.=XaXhX. X o . . . u.<.,.3./ ~ F 4.^ T Z ~ _ Q 5.1.5.` ) W W / F G ) _ ^ ^ ) W G F ~ T W ",
"` _ ~ W S ~ F q.k.*.*X4X-.=Xg.g.h X X 9 f h h % 8.oX9.y.i.2.W ~ ` _ ~ W S ~ F G F ^ W Y ^ W ` W W F F T ) _ _ _ ^  X~ _ ) _ W ~ ",
"T <._ W i T ' h bXaXyX*X& = e H g u i E ..R H +._ W ` ^ / ^ 4.) T <._ W i T ' _ ` W S ^ ` ` S S W ~ _ ` ` _ ^ '.) W ` ^ / ^ 4.) ",
"W 5.^ Y A ^ _ f jXaX=Xo.E @.5.^ _ _ _ / ` 6.) ) F _ ( W T G F T W 5.^ Y A ^ _ ' ^ ) G _ ^ 3.~ ^ _ _ _ ^ ` 6.) ) F _ ( W T G F T ",
"W T W ) ' T ~ f aXbXh g <.<.^ W ~ ) ) ^ ~ _ G G _ ( W T F G S Y W T W ) ' T ~ ~ ^ ^ ~ ^ ~ / ^ W ~ ) ) ~ ~ ) G G _ ( W T F G S Y ",
") Q _ ) ) / ^ | xX*X8.5.T ^ W 4.F ) ) W ( ( G W _ W Y G G ) T Y ) Q _ ) ) / ^ ~ T W F ) T ^ W 4.F ) ) W ( ( G W _ W Y G G ) T Y ",
"~ W 3.) _ W _ *.bX| 9.~ G ^ W ~ ~ ~ ^ W W W W Y ~ W F |.4.2.~ ^ ~ W 3.) _ W _ ~ ~ G W ~ G ^ W ~ ~ ~ ^ W W W W Y ~ W F |.4.2.~ ^ ",
"T W ^ _ T _ ^ r *Xi.XX' ` Z ~ ) 2.4._ Y ~ _ ' _ _ _ ) 4.) G ) 6.T W ^ _ T _ ^ ' ~ ~ _ ' ` Z ~ ) 2.4._ Y ~ _ ' _ _ _ ) 4.) G ) 6.",
"Y W W W W W T o * <._ 5.~ ` / ^ _ 6.4.W _ ` W W W 5._ / G G ) ) Y W W W W W T T <.' ) 5.~ ` / ^ _ 6.4.W _ ` W W W 5._ / G G ) ) ",
"Y W S _ ~ W W Z 4.^ W ~ ' _ T T W ~ W ( ` W ~ W W W W 2.( G ^ ) Y W S _ ~ W W Z 4.^ W ~ ' _ T T W ~ W ( ` W ~ W W W W 2.( G ^ ) ",
"W Y C W ) T _ ` ^ W ~ W ) ~ ~ ~ T ~ / Y 3.W ( ~ W ^ ( 5.( W F ) W Y C W ) T _ ` ^ W ~ W ) ~ ~ ~ T ~ / Y 3.W ( ~ W ^ ( 5.( W F ) ",
"G S F ~ T W T / ) ~ T F ^ F W W S G ( ( ( ( W W ) D / ~ W Z G T G S F ~ T W T / ) ~ T F ^ F W W S G ( ( ( ( W W ) D / ~ W Z G T ",
"^ W W ^ ~ W W _ ~ W W ) _ ^ 4.) T ) .X_ F S F G W T T S ~ F ~ ~ ^ W W ^ ~ W W _ ~ W W ) _ ^ 4.) T ) .X_ F S F G W T T S ~ F ~ ~ ",
"2.) G ) _ ^ ) ~ Y F 2._ ^ 6._ G ~ 3.6.` Q W ( _ ^ ^ ~ W ^ ^ ~ ) 2.) G ) _ ^ ) ~ Y F 2._ ^ 6._ G ~ 3.6.` Q W ( _ ^ ^ ~ W ^ ^ ~ ) "
};
