/* XPM */
static char *xpm_[] = {
/* columns rows colors chars-per-pixel */
"64 64 231 2 ",
"   c #010101",
".  c #0B0203",
"X  c #0D0B0C",
"o  c #06080A",
"O  c #110C0E",
"+  c #160305",
"@  c #14120F",
"#  c #0B0912",
"$  c #120F10",
"%  c #0A1716",
"&  c #141213",
"*  c #1B1514",
"=  c #1D1B1C",
"-  c #1B1818",
";  c #280505",
":  c #350809",
">  c #221C1E",
",  c #201811",
"<  c #31110F",
"1  c #23211E",
"2  c #1C1F24",
"3  c #251D20",
"4  c #182B2F",
"5  c #252424",
"6  c #292424",
"7  c #2D2529",
"8  c #2B2B2C",
"9  c #2A2A28",
"0  c #332B2E",
"q  c #362628",
"w  c #3F3021",
"e  c #37312D",
"r  c #362C31",
"t  c #392E33",
"y  c #333333",
"u  c #3C3235",
"i  c #3D3934",
"p  c #3E3438",
"a  c #3A3A3A",
"s  c #343A3A",
"d  c #273437",
"f  c #480607",
"g  c #540809",
"h  c #5B1212",
"j  c #531617",
"k  c #421517",
"l  c #670D0A",
"z  c #6C100F",
"x  c #651313",
"c  c #6D1B1C",
"v  c #781A1A",
"b  c #780C08",
"n  c #6A201F",
"m  c #671F21",
"M  c #592125",
"N  c #453424",
"B  c #4A3726",
"V  c #4C3927",
"C  c #4E3A2A",
"Z  c #4B3728",
"A  c #543E2C",
"S  c #583F2B",
"D  c #433B3C",
"F  c #423837",
"G  c #472F32",
"H  c #682427",
"J  c #7C2324",
"K  c #722225",
"L  c #763133",
"P  c #6B3538",
"I  c #56402E",
"U  c #5A422E",
"Y  c #46413B",
"T  c #5D4431",
"R  c #5F4834",
"E  c #5A493B",
"W  c #614633",
"Q  c #644935",
"!  c #694D37",
"~  c #664C38",
"^  c #6A4E39",
"/  c #6E513B",
"(  c #72543D",
")  c #73583F",
"_  c #3C3942",
"`  c #2F3F44",
"'  c #4B3C45",
"]  c #3C514E",
"[  c #374C4C",
"{  c #444444",
"}  c #4B4443",
"|  c #4B4B4B",
" . c #464A46",
".. c #564C4C",
"X. c #584E4F",
"o. c #564A46",
"O. c #5C544C",
"+. c #464A51",
"@. c #594F50",
"#. c #554B54",
"$. c #535354",
"%. c #5C5252",
"&. c #575959",
"*. c #495352",
"=. c #6C5442",
"-. c #695647",
";. c #745641",
":. c #765943",
">. c #7A5B44",
",. c #735C4B",
"<. c #7C5D49",
"1. c #625655",
"2. c #645B52",
"3. c #6A5E54",
"4. c #635B5C",
"5. c #685C5D",
"6. c #715F52",
"7. c #7D614A",
"8. c #6C6056",
"9. c #6C635A",
"0. c #73655B",
"q. c #76695D",
"w. c #7C6B5D",
"e. c #786454",
"r. c #5B5D60",
"t. c #6A5E60",
"y. c #5B6761",
"u. c #6C6C6D",
"i. c #656464",
"p. c #786B62",
"a. c #686974",
"s. c #777778",
"d. c #73706F",
"f. c #870200",
"g. c #89140F",
"h. c #891918",
"j. c #981814",
"k. c #AB1814",
"l. c #B6231E",
"z. c #AB231F",
"x. c #8D1F20",
"c. c #822324",
"v. c #8C2424",
"b. c #8B2829",
"n. c #822729",
"m. c #972726",
"M. c #A62826",
"N. c #A53432",
"B. c #AD302C",
"V. c #C60000",
"C. c #CA1E15",
"Z. c #D2130C",
"A. c #E51C12",
"S. c #F40F06",
"D. c #C5241C",
"F. c #D52319",
"G. c #DD241A",
"H. c #DD2217",
"J. c #E52318",
"K. c #EA2419",
"L. c #FD2215",
"P. c #FD291D",
"I. c #F7261A",
"U. c #D52E2A",
"Y. c #E82C24",
"T. c #FA2C21",
"R. c #FE3433",
"E. c #805F4A",
"W. c #815F47",
"Q. c #83634C",
"!. c #866751",
"~. c #856A55",
"^. c #8B6B53",
"/. c #816B5A",
"(. c #916E51",
"). c #93735B",
"_. c #897362",
"`. c #8B7361",
"'. c #B47777",
"]. c #FF7E79",
"[. c #D04E47",
"{. c #726983",
"}. c #8D7496",
"|. c #86698F",
" X c #987DA1",
".X c #7C8589",
"XX c #888888",
"oX c #8C8B92",
"OX c #978698",
"+X c #9A9A99",
"@X c #8F9297",
"#X c #9B86A5",
"$X c #A28DAC",
"%X c #A995B3",
"&X c #A894B1",
"*X c #A3A3A3",
"=X c #A8A9AB",
"-X c #ADA9B4",
";X c #B7B7B9",
":X c #AAB3B5",
">X c #8FA4A4",
",X c #FFADAC",
"<X c #F7B1AD",
"1X c #B59FC0",
"2X c #BCB4C5",
"3X c #B6ABC0",
"4X c #C2ACCF",
"5X c #C1B5CB",
"6X c #CAB7D5",
"7X c #BEC3CA",
"8X c #CBCCCD",
"9X c #C4C6C7",
"0X c #CAC6D5",
"qX c #D1CDDB",
"wX c #D5D5D5",
"eX c #D6D7DB",
"rX c #DADAE4",
"tX c #DEDFE8",
"yX c #D6D4E1",
"uX c #DFE1E6",
"iX c #D5FFFF",
"pX c #E2E5EB",
"aX c #E5E9ED",
"sX c #E7EBF1",
"dX c #EAE7F5",
"fX c #ECF1F5",
"gX c #E7FDFE",
"hX c #FFFFFF",
"jX c #FEFFFF",
"kX c #F3F4F8",
"lX c #E0D3EC",
/* pixels */
"<.<.V ^ / T W U I Q ^ W U U U A / ( ! T Q T ^ Q W U T U W U Q ! <.<.V ^ / T W T I Q ^ W U U U A ( / ! T Q T ^ Q W U T U W U Q ! ",
"/ / ^ Q W T W A I U U W W U A W / ^ ^ W N ! ^.^ Q.Q W U Q S / ! / / ^ Q W U W S I U U W W U A W / ^ ^ W N ! ^.^ Q.Q W U Q S / ! ",
"! W ! ( / N W / ! ( Q Z / / ( U U U T ! Q ^ T ^ ! o.      A ^ ! ! W ! ( / N W / ! ( Q Z / / ( U U U T ! Q ^ T ^ ! A S S T A ^ ! ",
"T / ( ( Q.U W ^ W Q <.A ) ! Q W ( ! ^ ( ;./.6 9 - O.XXXXp.1 ,.^ T / ( ( Q.U W ! W Q <.A ) ! Q W ( ! ^ ( ;.^ ^ T / ^ ( ( ^ / R ^ ",
"T ! W ^ S N U W W T I U T T T ( ( ( ^ 0.O.Y a = &.+XwXhXhX8 Y 8.T ! W ^ S N U W W T I U T T T ( ( ) ^ Q Q S ~ W ^ ^ ( ! W W A C ",
"T W S T Q U T A W U Q Q ^ ( T W Q ;.e.& & i.wXeXhX8X8XhXpXfX  o.T W S T Q U T A W U Q Q ^ ( T W Q ! S :.( W T I Q / Q Q ~ Q T W ",
"/ U T ;.^ / / Q B W ^ ^ ! / Q / / e.  XXhXpX*XhXhX-X8XsX+XhX= 2./ U T ;.^ / / Q B W ^ ^ ! / Q / / W Q ~ ) W W T Q / ! <.^ T ^ >.",
"Q T ( ~ ^ / / ( S ( ( >.>.( ^ Q.C _.  oXhXwX-XhXs.$.i.&.i.hXa   ..T ( ~ ^ / / ( S ( ( >.>.( ^ Q.C :.) T S W W / / W.;.Q ^ ~ =.^ ",
"W R ).E.W W T Q T / ~ <./ ) ;.) U :.`.  7XhX=Xs.| | $.a y +XwX .  R ).E.W W T Q T / ~ <./ ) ;.) U / >.:.! A / / Q.Q Q W T T W / ",
"W I <.;.U T T T W / ^ ( :.) ! ( T ;.;.1.2.s.y | | | { u.;X9XhXa.  I E.;.U T T T q.0.0.q.w.q.w.( T ;.( Q 7.T ! :.).W W T T T ;.W ",
"Q A / W ^ U Q ! T Q ^ ( ( ( ( ( T ^ >.W 2.o 1 a u.d.{ d.kXpXaX4.. 3./ W ^ U Q w.D o         .._.e.^ >.W T A / ^ / W T W C w ! 7.",
"R W ^ ^.;.^ ( W U ^ T ^ ^ Q :.7.C T W ^ R T e.  XX9XXX{ | { >X'.g   7.^.;.^ <.  @XdX X$X$X4X#.    =.W ^ R T ^ :.W W U T ~.I ;.~.",
"R / ( ^ U W W T >.^ A T Q T :.W T T A Q.Q ^ I ,.  u.8XXXXXs.iX,XV.h % p.U e.  -X5X$X#X XqXpX0X0X:X  ,.Q.Q ^ I T C >./ ;.( W T R ",
";.^ T U W S C / ! / <.T T T W Q ^ Q ^ W T R ( >.w.e .XgXgXgX<XR.A.c.f.F *...{.jX2X|.&X0XtXpXsXkXfXoXD q.T R ( >.W :.;.R R W C T ",
"( ~ T U Q ;.T Q ;./ ;.;.T C ( ;.;.( ;.Q C ;.( ~ Q % < <X,X,XT.V.m.J T.f..   {.5X-X|.&XfXtXrXrXrXtXhX  } C ;./ ~ Q / Q T W A N / ",
"W S A U ^ ( W Q / ^ W Q T ! ^.).!.!.( / S ( >.R W y.f V.V.V.Z.m.H m.F.T.g.    }.$X#X3XuXrXrXrXrXtXjXX 2.S ( >.R W W W W ^ Q T W ",
"W S ) A ^ W ^ ~ / ! ! S A ! :.;.Q ~ ~ ^ S ^ ^ T T T p.  c.c.J K m.J.J.P.l   m.OX#X2XsXrXrXrXrXrXtXkXX 2.S ^ ^ T T T / ^ W T ( T ",
"U T W U ! W <.T ^ / W T T / ;.T S T ^ T C I T U U ^ :.p.  A.M.M K m.P.g.. l G.G a.6XsXrXrXrXrXpXaX1X  2.C I T U U ^ ^ W T T Q N ",
":.! W A >.Q U B W / T T U / ( ^ T T ! A S ^ / Q Q ^ T R 9.h k.G.l.K x g.j.C.J., {.lXfXrXrXyXsXrX-X5X+X2.o.^ / Q Q ^ T S A W U T ",
"( / W T V W A S A Q T I Q T ( T T A A U ^ / / / Q (.W / ^ o b Y.z.J x C.P.I.F.q +.OXqXaXrXuXyX%X}.rXhXu.* / / / Q (.W / ^ / T W ",
"U =./ T w U ) / ( T C Q ( ( C C T W / ( ( / Q E.^ T ( Q ! o : n.c.c.K.K.G.J.F.G o #.4XqXrXfX3X|.#XrXhXu., / Q E.^ T ( Q ! Q >.^ ",
"T :.Q I V Q / ) Q ^ S / Q :.W Q / / / Q ( <.^ ^ A / ^ T U $   b T.J F.J.H.J.F.G o oXdX}.qXkX2X}.$XrXhXu., <.^ ^ A / ^ T U S A U ",
"T U T ^ :.U W W Q Q W Q W ! Q T W ^ ^ W W ^ S S / ~ W =.e n   < U.F.v.K l.L.J.q _ D d.yX$XqXsX5X%X6X- O.,.^ S S / ~ W U A S C I ",
"^ R / ^ ^ ! Q W U T A /.e e e i 0 i Y e [ ] [ ] ]  ...a   m.h   < U.D.D.l.M.m.q | q 4.hX0X$XpX8Xr # ..e.~ ~ S T / T I S S ^ U I ",
"W T :.^ / T / W W S ,.8.8 y 8 8 y 8 X y ; + ; ; ; .     < c h.: o k D.J.M.H H 7 { ..u.;XjX&X6XoX  i =.T T T T I W T A ^.>.;.W Q ",
"U T W / U / Q ) W W * i.hXhXhXhXhXjX;XhX].S.P.P.P.U.< o m.f c B.c   m n.K v v.q } 4.} F ;X4X X' 6 >./ S W / ) / / / ^ >.^ S ^ <.",
"I T T T T T U U =.) * d.hX*XkXhXeX+X=X:X[.S.J.G.c.Y.l   b.g c b.c.c.c.b.j l J.h.o.&.@...6 #X_ 8 / <.>.T / ( T T T :./ ! S S ^ ^ ",
"I T C / W T T B <.Q @ | wX| $.8Xd.        f B.z f l ;   h v c.c.b.b.b.j b H.J.J.H ` 1.@.7 & O.-.T W T ~ ( T W T T T T ;.~ S Q ^ ",
"T I N T ^ U / ( Q T 6.o.= +X+X9 i 0.0.8.p.} . + v v.;   f c.b.c h h x : g.P.H.L.j d 1.@.p   3.W U W ! I :.T ~ W T Q ~ ,.~ T A ^ ",
"S C A W U T U ! ^ W U 8.1 u.s.= 3.S ~ ~ ! w.s   : v < + x c.b.c g h : ; j.I.H.K.c s %.@.u   2.T C S ~ ~ ~ ~ T T ^ V ! W T B S U ",
"Q T T Q W T T / W T T ^ <.X X /.U ^ )./ A C T 5 5 o + v b.c.J c.b.c.z : g.I.G.J.l.P &.@.p   8.^ U ^ )./ A C A S T U U C W A W W ",
";.^ S ^ / Q ^ W I A ;./ Q <.( S W :.<.( R T ^ ( Q *.. m.c.c.c.c.J c.K.l z I.G.G.L.N.*.@.p   3.S W :.<.( R T ~ / Q Q W T Q Q W ^ ",
"<.<.V ^ / T W T I Q ^ W U U U A / / ! T Q T ^ Q  .< c.b.c.c.c.H v.H.b.l.g.l I.H.L.m.[ 5.  8.=.A / / ! T Q T ^ Q W U T U W U Q ! ",
"/ / ^ Q W T W S I U U W W U A W / ^ ^ W N ! ).0.  g M.c.v.h.v k.C.D.m.K.C.v M.J.L.h.#   2.~ A W / ^ ^ W N ! ^.^ Q.Q W U Q S / ! ",
"! W ! ( / N W / ! ( Q Z / / ( U U U T ! Q ^ -.  2 L m.J M L P N.B.M A.L.I.G.c.l.Y.f   } / / ( U U U T ! Q ^ T ^ ! A S S T A ^ ! ",
"T / ( ( Q.U W ^ W Q <.A ) ! Q W ( ! ^ ( ;.;.w.o 2 H x.H d *.&.&.[ 8 D.F.F.K.K.c.K + $.A ) ! Q W ( ! ^ ( ;.^ ^ T / ^ ( / ^ / R ^ ",
"T ! W ^ S N U W W T I U T T T ( ( ( ^ Q Q 9.  0 t - - u %.%.@.X.X.@.%.4 v L.I.B.  $.T U T T T ( ( ( ^ Q Q S ~ W ^ ^ ( ! W W A C ",
"T W S T Q U T A W U Q Q ^ ( T W Q ! S :.( 0.  t t & 5 %.%.X.X.X.X.%.$.+.D j ; ; 9.,.Q Q ^ ( T W Q ! S :.( W T I Q / Q Q ~ Q T W ",
"/ U T ;.^ / / Q B W ^ ^ ! / Q / / W Q ~ ) 0.  0 t & y 5.X.X.X.X.X.X.X.1.*.d 2   E W ^ ^ ! / Q / / W Q ~ ) W W T Q / ! <.^ T ^ >.",
"Q T ( ! ^ / / ( S ( ( >.>.( ^ Q.C :.) T S 0.  0 t $ 0 5.%.X.X.X.X.X.X.X.%.5.1.- 2.~.( >.>.( ^ Q.C :.) T S W W / / W.;.Q ^ ~ ;.^ ",
"W R ).E.W W T Q T / ~ <./ ) ;.) U / >.:.! 8.  t t & 0 %.X.@.@.X.X.X.X.X.X.X.%.t.  O.=.<./ ) ;.) U / >.:.! A / / Q.Q Q W T T W / ",
"W I <.;.U T T T W / ^ ( :.) ! ( T ;.;.~ 7.8.  t t 0 = - u %.1.%.X.X.X.X.X.%.X.7 ..X Y ( :.) ! ( T ;.;.~ 7.T ! :.).W W T T T ;.W ",
"Q A / W ^ U Q ! T Q ^ ( ( ( ( ( T ^ >.W T =.w.X 6 t 0 &   F u } 5.%.X.X.X.@.X.} D u q i ( ( ( ( T ^ >.W T A / ^ / W T W C w ! 7.",
"R W ^ ^.;.^ ( W U ^ T ^ ^ Q :.7.C T W ^ R T :.  3 u t 7 X o 3 D } D %.%.1.4.%.5.u D F   3.,.:.7.C T W ^ R T ^ :.W W U T ~.I ;.~.",
"R / ( ^ U W W T >.^ A T Q T :.W T T A Q.Q ^ -.i > 7 0 t t   & 6 = 7 ..@.F 0 ....u * p i.  0.:.W T T A Q.Q ^ I T C >./ ;.( W T R ",
";.^ T U W S C / ! / <.T T T W Q ^ Q ^ W T R ( >.X . u 0 0 u X   o 0 7 0 & X 7 0 - o 6 X.  0.W Q ^ Q ^ W T R ( >.~ :.;.R R W C T ",
"( ~ T U Q ;.T Q ;./ ;.;.T C ( ;.;.( ;.Q C ;./ ~ $ o u 0 0 0 t &         .XtX. 7 = O $ o   3.( ;.;.( ;.Q C ;./ ~ Q / Q T W A N / ",
"W S A U ^ ( W Q / ^ W Q T ! ^.).!.!.( / S ( >.~ & O 7 > t t ' *       a =XpX2Xp 3 u X   0.;.^.).!.!.( / S ( >.R W W W W ^ Q T W ",
"W S ) A ^ W ^ ~ / ! ! S A ! :.;.Q ~ ~ ^ S ^ ^ Q & O 5 X 3 3 > > 5 5 i.9X;X9XhX..    O 2.A ! :.;.Q ~ ~ ^ S ^ ^ T T T / ^ W T ( T ",
"U T W U ! W <.T ^ / W T T / ;.T S T ^ T C I T U X . 0 - - >   9 u.u.hXhXuX*X=X6 8 Y 9.T T / ;.T S T ^ T C I T U U ^ ^ W T T Q N ",
":.! W A >.Q U B W / T T U / ( ^ T T ! A S ^ / / & . u 0 t u   5 &.&.fXhXaX4.    e./ T T U / ( ^ T T ! A S ^ / Q Q ^ T S A W U T ",
"( / W T C W A S A Q T I Q T ( T T A A U ^ / ;.  - r 0 t t X   5 &.&.hXr.  e -.=.I Q T I Q T ( T T A A U ^ / / / Q (.W / ^ / T W ",
"U =./ T w U ) / ( T C Q ( ( C C T W / ( ( /.o.=X>   O O O   9 | s.*X0 2.2.e.) ^ ( T C Q ( ( C C T W / ( ( / Q E.^ T ( Q ! Q >.^ ",
"T :.Q I V Q / ) Q ^ S / Q :.W Q / / / Q ( 3.  uX=XoX-Xs.    | u.&.8.Y -.V Q / ) Q ^ S / Q :.W Q / / / Q ( <.^ ^ A / ~ T U S A U ",
"T U T ^ ) U R W Q Q W Q W ! Q T W ^ ^ W T q.  D aXhXfX7Xy   a s.9   T ^ :.U R W Q Q W Q W ! Q T W ^ ^ W W ^ S S / ~ T U A S C I ",
"^ R / ^ ^ ! Q W U T A ^ U Q T >.A ^ ^ T ~ 0.  &.$.i.  8 hXX 9 u.y   ,.^ ^ ! Q T U T A ^ U Q T >.A ^ ^ T ~ ~ S T / T I S S ^ U I ",
"W T :.^ / T / W W S T W S Q T W W W Q T T 8.  *X*XXX  - hXX [ & X -.:.^ / T / W W S T W S Q T W W W Q T T T T I W T A ^.>.;.W Q ",
"U T Q / U / Q ) W W / ) ( B W ^ ;.>./ I W q.  *X;Xy { ;XjX    } e.T Q / U / Q ) W W / ) ( B W ^ ;.>./ I W / ) / / / ^ >.^ S ^ <.",
"I T T T T T U U =.) ^ :.W ( ! Q / <.>.T / q.  8XeX  s.! T 3.2./.I T T T T T U U =.) ^ :.W ( ! Q / <.>.T / ( T T T :./ ! S S ^ ^ ",
"I T C / W T T B >.Q T W ) / U U T W T ~ e.O.= hXhX9 y /.~ S Q ^ I T C / W T T B >.Q T W ) / U U T W T ~ ( T W T T T T ;.~ S Q ^ ",
"T I N T ^ U / ( Q T W T ^ W W W U W ! I i & wXjXhX$.  i ~ T A ^ T I N T ^ U / ( Q T W T ^ W W W U W ! I :.T ~ W T Q ~ ,.~ T A ^ ",
"S C A W U T U ! ^ W U A Q A T T C S ~ ~ 6 _ kXfXfXrXwXp.6 E S U S C A W U T U ! ^ W U A Q A T T C S ~ ~ ~ ~ T T ^ V ! W T B S U ",
"Q T T Q W T T / W T T ^ / Q >.^ U ^ )./ A C A S T U U C W A W W Q T T Q W T T / W T T ^ / Q >.^ U ^ )./ A C A S T U U C W A W W ",
";.^ S ^ / Q ^ W I A ;./ Q <./ S W :.<.( R T ~ / Q ! W T Q Q W ^ ;.^ S ^ / Q ^ W I A ;./ Q <./ S W :.<.( R T ~ / Q Q W T Q Q W ^ "
};
