/* XPM */
static char *enemie_spawn_31692725076[] = {
/* columns rows colors chars-per-pixel */
"64 64 221 2 ",
"   c #010101",
".  c #020A0B",
"X  c #0D0C0C",
"o  c #090505",
"O  c #1E0000",
"+  c #120809",
"@  c #140E11",
"#  c #091617",
"$  c #141312",
"%  c #1D1A1A",
"&  c #1C1618",
"*  c #2A0100",
"=  c #230203",
"-  c #330100",
";  c #3C0608",
":  c #241A1B",
">  c #23211E",
",  c #1A1E20",
"<  c #271D22",
"1  c #132A2E",
"2  c #262322",
"3  c #2A2325",
"4  c #2D2926",
"5  c #2E262A",
"6  c #2C2C2B",
"7  c #22272C",
"8  c #322B2D",
"9  c #3C2624",
"0  c #3F3021",
"q  c #362C31",
"w  c #3B2F36",
"e  c #2D3A39",
"r  c #3B3434",
"t  c #3D3539",
"y  c #373738",
"u  c #490906",
"i  c #550303",
"p  c #571415",
"a  c #4B1D1C",
"s  c #790404",
"d  c #7B120E",
"f  c #691817",
"g  c #741715",
"h  c #620000",
"j  c #463424",
"k  c #4A3727",
"l  c #4C3926",
"z  c #4B3728",
"x  c #4E3A2A",
"c  c #543E2C",
"v  c #583F2C",
"b  c #443B3C",
"n  c #423839",
"m  c #5B3839",
"M  c #6A2D2E",
"N  c #782628",
"B  c #25403F",
"V  c #56402E",
"C  c #5A422E",
"Z  c #45413D",
"A  c #5D4431",
"S  c #5E4835",
"D  c #614633",
"F  c #644935",
"G  c #694D37",
"H  c #664C38",
"J  c #6A4E39",
"K  c #6E513B",
"L  c #72543D",
"P  c #73583F",
"I  c #1C3C41",
"U  c #3C3340",
"Y  c #493E41",
"T  c #453948",
"R  c #1B4545",
"E  c #354849",
"W  c #3B5252",
"Q  c #444444",
"!  c #4C4344",
"~  c #494A48",
"^  c #524B45",
"/  c #544B4C",
"(  c #554849",
")  c #5E554E",
"_  c #4E4751",
"`  c #594F50",
"'  c #584C5C",
"]  c #475756",
"[  c #5C5253",
"{  c #565758",
"}  c #6C5542",
"|  c #6D5A4A",
" . c #67584A",
".. c #745641",
"X. c #765943",
"o. c #7A5B44",
"O. c #745C4A",
"+. c #7D5D48",
"@. c #605753",
"#. c #655A5B",
"$. c #695E5E",
"%. c #655B54",
"&. c #7D4746",
"*. c #45625F",
"=. c #7D614A",
"-. c #77614F",
";. c #6B6056",
":. c #6D6159",
">. c #676159",
",. c #756354",
"<. c #73655A",
"1. c #7A6A5B",
"2. c #7A6859",
"3. c #5B4F61",
"4. c #69586F",
"5. c #5D6363",
"6. c #4A6063",
"7. c #636164",
"8. c #696666",
"9. c #776B66",
"0. c #6E6C73",
"q. c #797979",
"w. c #717167",
"e. c #830A04",
"r. c #980000",
"t. c #961A19",
"y. c #9B150C",
"u. c #A80B04",
"i. c #AF1810",
"p. c #9D221E",
"a. c #88211E",
"s. c #AA231F",
"d. c #821E20",
"f. c #882525",
"g. c #942523",
"h. c #9C2423",
"j. c #902D2B",
"k. c #A32625",
"l. c #BA2C29",
"z. c #B03632",
"x. c #D4130C",
"c. c #FC1A0D",
"v. c #E41A0E",
"b. c #D4241B",
"n. c #DB2319",
"m. c #C7251E",
"M. c #EC2216",
"N. c #E32319",
"B. c #E82318",
"V. c #FF2215",
"C. c #F32519",
"Z. c #FF2A1D",
"A. c #FA261A",
"S. c #D82B25",
"D. c #C52D2B",
"F. c #E42C25",
"G. c #FD2D23",
"H. c #FF3227",
"J. c #805F4A",
"K. c #815F47",
"L. c #83634C",
"P. c #866651",
"I. c #856A55",
"U. c #8B6B53",
"Y. c #826C5C",
"T. c #916E51",
"R. c #93735B",
"E. c #827162",
"W. c #86756A",
"Q. c #7B7981",
"!. c #7C6A85",
"~. c #85728D",
"^. c #86788B",
"/. c #8C7A95",
"(. c #927B9B",
"). c #90779A",
"_. c #826A8A",
"`. c #7C8486",
"'. c #6E8185",
"]. c #888689",
"[. c #8B8992",
"{. c #94849C",
"}. c #97999A",
"|. c #8C9094",
" X c #AE9998",
".X c #9D87A6",
"XX c #9B9CA1",
"oX c #8A9DA2",
"OX c #A48DAD",
"+X c #AB95B5",
"@X c #A6A8A9",
"#X c #AAABB4",
"$X c #B6B6B8",
"%X c #9AB1B2",
"&X c #E2B1B2",
"*X c #B6AAC0",
"=X c #BAA2C5",
"-X c #BBB6C5",
";X c #C2ACCE",
":X c #B4CACF",
">X c #C3C6CD",
",X c #C7C7C7",
"<X c #CDC7D7",
"1X c #D1CCDB",
"2X c #D5D6D8",
"3X c #CFD6D9",
"4X c #F7CCD3",
"5X c #D9CBE5",
"6X c #DADBE4",
"7X c #DAD8E5",
"8X c #E1D9EB",
"9X c #DEE0E8",
"0X c #D7FCFF",
"qX c #E3E5EC",
"wX c #E5E6E7",
"eX c #E9E8F1",
"rX c #F3ECFE",
"tX c #EFF4FA",
"yX c #F6F5F4",
"uX c #FEFEFF",
"iX c #F6F8FC",
/* pixels */
"+.o.l K K A D C V G G G v V C v K L G A G A J F F v D v A C F G =.o.l G G D D C v F J D A v v c L L G D H D J F D v m D F v G G ",
"K K G F A A D V V V V A F v v A K K G D k G U.G J.F F A S V K G K G G F D D D V v v v D D A v F G G G D j G U.J J.F D v F v G F ",
"G D G L K j D L G L G k L K L A C C C G F G D J G c c c A V J K G D G L G j D L G K F z } J L v C C C G H J A J J v c c V c G G ",
"C K K L L.V D H D D K.c P G F D L G G L P G G D J J } I.  o o o o n L L L.C D G F F K.v P G G F L G J L ..J H A K K ..K J K A K ",
"D G D J V j v D D A v C A C D L K L K G F v F F K 9.  & ~.-X<X>XwX1.o X C j V S D v v v A A A L L P G G G v F F J J L F D D c x ",
"A D V C G V A c D A F G G L C F F G v P ..D A V %.n ].Q.5XuX;X-X5X-X`.0.S <.V V D A F G G K A F F G v X.K D A v F K F G J F A F ",
"K C C P G L K F l D G L G K G G K D F F L D D <.o /.uXuXqX9X-X.X!..XrXiXo 1.K G l G G G G K G J K D G F L D D D G K J K.J D H o.",
"F C L G G K J L v L L o.P L K L.x ....D v D F   3.rXqX6X6X6XtX-X).(..X1X5.,.1.K v L L K.P L K P.l P P A v G F G K J...G H F } J ",
"F D R.J.A D A G A K G +.L L P P C K o.P G V -.4 XXiX7X6X6X6XqX*X).OX(.~.rX% ! F D K F =.K L P L C K =.P F V J K J.G F D m A D L ",
"D v J...A A A m D K G L P P G L A P L G L.|   #XiX7X7X6X6X6XeX*X).OX(.t Q   %.A D K J ..o...G L C P L H =.V H X.R.F H A S A ..D ",
"H c K D G v H H C G G L L K L L A J X.D A  .  -XiX6X7X6X9X9XqX*X)..X.X~.8X6 @.H C G G L K K ....A K P F S V K J K D D F x 0 G =.",
"D F J T.L J K D C K A G J F +.J.x A F H S |   /.rX9XtXeX.X3XuX5XOX.XOX1XXX$ %.D C J A G J F O.+.x C S H S C J X.F F v S I.V ..I.",
"m K L J v D F D o.J x A F D o.D D D v L.F O.#.n #XtX$Xq.*XqX}.3.' ~.+XiXt   <.A o.J z A F A +.A A C C L.F J v A l =.K ..K F A S ",
"X.G A V F c x K J J +.A m C D F J F G D D A L   Q.uX[.T uXuX2     7.+X8X$X  ^ L G K +.A A v F F J F K D A S K o.H X...D S F x A ",
"L H D v F ..D H ..K X...A x P ....K ..F z ..K   Q.uX<X=X3X$X6   y ^.OX4.>X[ ,.H P L ....A x ....P L L F x ..K H D K F A S V j K ",
"D v v V J L D H K J D F A G U.R.P.P.L J c L X.% T 5XiX6X[.    4 [.=X~.    W.D F L H F H S H P.R.L.P.L K v L X.A F S D D H F A S ",
"D v P c G D J G K G G v c G ....F H H J c J J } > 8.uX8X3X>X.X~.+X/.T ~.OX< 1.F K G F V c G ....F H F J c G J A A A K J F A K A ",
"C A F C G F +.A J G D S A J ..D c D H v x v A v n   3.8XuXuXuX5X4.t /.;X^.  o r %.K D S C L ..A v D J A c V A A v J J F D A H j ",
"P G A c P F V k F L A C v L L H D A F c c K @.) w :   U { q.[.0.4..X=X_ % $       ] ] ~ } L L H A A H c c G J F H J A v c H v A ",
"P K F C x A c c x F D v F A L A D c c } w.8.    : t <     & & @ T !._     $ & # . - ; = e w.L A D c c C J K J L F T.F J J J A D ",
"C } L C 0 C P K L m c F L L x x C D I.)   O M Y y r w q q 3 q n 3 o % 8 : & # X g Z.Z.D.O 9 x c C D K P L G F J.J D L F G F X.K ",
"S X.F V x D L L D J v K F ..D F L L E   D.V.V.&.{ #.( q w 5 ( #.#.[ ^ ! t t 1 p Z.N.N.f.F.i.D F L J K F L K.J J c K H A v v x V ",
"C C V K P C D D H H F F F H G D F G ] * Z.B.B.t.( { ` ` ` ` ` [ $.b     ! 7.m s.C.n.M.f.S.y.G A F G J F A J V v K F A V c c x V ",
"J S L G G G G D v v c K v F v o.c G *.* G.B.o             #.9.2     |.2Xe : p ; d M.g.b.F.p V o.c G J A G F v S K S V V v K V V ",
"F A X.H K C L F F V C F v F C D D %.9 d.e.a :X:X#X}.}.XX|.    6 @X3XiXiX# o d i.s.h.N f - 3 A D F S F A A A V V D A V U.P X.F F ",
"V A H J V K F P D D K L K z F J P . O z.O   oX:XeXuXuXuXuXq.q.q.XX#XQ.E . u A.Z.h.N k.  1 %.F J P X.K V S } ..P J K G =.F V G =.",
"V A S C A A C v P P K X.F L H F Y.q p l.a.-   r w.@X2XiXiXuXuX#X>.]     o d n.s.f.f.i 6 1.P G F K +.X.A K P A A A X.J J v v G J ",
"V V V K D A A k o.G C A ..L v v o f S.M.C.M.k. X`.~ { @XuXuX@X3XuX4Xt.t.g u p l.N.f # ,.P K C C C F A H P A F C A A S } F v F J ",
"A V j C F V J ..G A F A J F D F   i.Z.n.n.B.B. X%X$XQ , iX#X|.0X&Xx.N.N.n.n.b.A.u.  -.A J F D F V D F V ..A H F A H H O.H S x K ",
"V V c S A A A F J D A c H c A D . x.G.M.m.a.k.$XE #     # . . :X4Xr.Z.Z.C.B.B.Z.u.  | c F v C D x V H J J H A A J z J F V z c V ",
"A S C F D A A ..D S A J J F ..K ,.* i H.n.+   8 a ; p y.s e.u.m I o u u g.G.G.i = <.H J K F ..G V J R.K c x c c A C V x S v S F ",
"} J V K K F K A v c ..J F +.K c D q.# - O   9.  u z.F.Z.Z.Z.Z.r.s i       - - . w.v X.K F o.L c F X.=.K D S F L F G D A F F S J ",
"L.=.l K K D D C c G G F C v v v K K 1.] ] :.J # i H.M.n.n.n.b.C.G.m.u   ~ ] ] <.v F G F v v v c L L G D H D J F F v m A F v G G ",
"G G G G C C F c v C v A D C v F J J G F k J U.{ g x.N.n.n.n.n.M.p.k.v.  ..C A V v v v D D A v D G G G D j G U.J J.F H v F v G G ",
"G D G L K j D L G L F l K K L C A C A G G H A J R u Z.n.n.n.n.C.s.j.i.  1.j F K G L D l ..J L A C C C G G J A J J c c c C c G G ",
"C K K L L.C D H D F K.v P G F D L G K L ..J H A e i Z.n.n.n.b.V.g.7 : o R.C A J D F K.v P G F F L G J P ..J H A J J ..K J K S G ",
"D G D G v j v A A A v V A A A L L L G G F v H F t o j.M.b.b.V.p.7 7 #   H j C A D A v v A A A K L L G G F v H F K K K G D D c x ",
"C D V A G v A c F A G G K K A F D G v P K F v A ^   M c.c.c.t.q E ! Y r Z | C V A A G G K K A F F G v X.L F C v F K F G H F A F ",
"K V C P J L L F z F G G J J F J L D G F P D D 1.4 $ M z.z.z.n W #.@.#.#.o Z Y.F l D K G G K G J K D G G L F D D F K H K.J A H o.",
"F C L G H K J L c L L o.o.L J L.l P P A c D F     8 y 6.*.] _ ( [ ` ) [ 9.  @.K v L L o.o.K K P.l P L A v D F G L J...H J F ..G ",
"F A R.J.D D D F D J H +.L L ..P C K o...G c K 4 o w n / ( ` q b ` ( ` ` #.  %.F D K H +.K P L ..V K =.P F V J K J.G F F v S D } ",
"F V K...C A v A D J J ..X...G L A P L F L.V F 2 : 8.Y 5 8 5 ! #.n q ` ` #.  %.A D K J P o...G L C P L H =.A F X.R.D F A S A ..D ",
"G c K D J v H H D G J L L K L ..A G P F A V K > : $.` Y < 5 ( #./ Y t [ $.  $.J A G G L K K ....D J X.F A V K H K F D F x 0 H +.",
"A F G U...J K F v J A H J F o.J.l D G G A A K 8 < $.` [ Y X Y $.[ ( < n $.  :.D v J A G J F O.+.x C S J A C J X.F D A A I.V ..I.",
"A } ..J m D D D o.J c A D A +.D D A V L.F P >.. & ` ` #.)     n 9._ 5 < n   ;.A X.J x v F A +.A D C V L.F H v A l +.K ....D A S ",
"..J v v F v c J J J o.v A A S F J D J D S |   X 3 ! $.#.Q   t r w @.q t n   %.L G K +.A A A D H J F K D D S P X.F X...D A F x A ",
"..F D v G L C G ........A x P ....L ..F l I.  b Y 8 ` Y : 4 j E.  t 5 #.9.  $.F ..L ....A x ....P L P F x ..K H F } F A S v j } ",
"D v v v J L F F } H F F A H U.R.L.P.K K V =.@ b 8 . < @ o J S F 1.X   / #.  %.K L G H F A H P.R.P.L.L K v L ..S D A D D J F A A ",
"D v P c K D K G L G G v v F ..P D G G K c K X.8   : t +   S L C C ,.  X $ 5   @.L H G v v G P P F F H J v J J A A A ..H F A L A ",
"C A F C G D o.C J J D D A K P D V A G V x V C 4   t @ 6 ,.S F j C O.  & < q : o %.J D D A L P m v D H A x v A A v J J D D A F j ",
"P G A c P G V l D K A C v K L H A D G V c G K 4   3   r V S V C P Y.  q n w 3   $ K A A v L ..H C D H c v J J F H J A v c H v A ",
"P K F C l D l V c F A V H D K D A V l A G J K 2 5 W., 4 K K A F P -.) : @   7._ 2 F C v G C K D D c c C J J J L F T.D K J J A D ",
"C P } S 0 V L K L D l D L ..x x A D K L K K G % 0.iX{ : J F o.G C ..K   b b wX:X@ D x F K ..x x A D G P K K F J.K A K F G F X.J ",
"A X.F V x D K L G G v K F ..D F K K K F L =.G % { 2XZ & V V x C A X.,.  :XuXuX].$ G c K G X.D F L J L F L K.J J c K J A v v x V ",
"A V V K P C D F D F F G F G H m A G K D A K C > y B o 4 V V x V A C }   X q.wX_ : D F F D H G D F G G F A J v v K F A V c V x V ",
"H S K H K G G D v v x K C F A o.V G K A F G V > 6   n } V F C V J S K 2.  Z eXQ 2 A c G v G v o.x G K D G F v S K S V V c J A V ",
"S A X.K K A K F F v D F c F C D F D F A A A C $ $   ^ T.X...F F S A ..J w.Z `.>.> v A D c F C D S S F A A A V A D A V I.P P F F ",
"V A F K C J G P F F J L L k F G ..o.K V D :.1.^ q.$ ! X.H v J +.V A H J A Z > {   F K P L k F J P =.K V S P } K J K H =.J V G =.",
"V S C C C A C V } L J o.D ..G F L o.X.,.%.o   XXwXo 6 J v v H J V A A C A n ~ XX/ E.J o.D L G F K o.X.A K P S A A X.J J v v G K ",
"V C x L F C A k o.G C D L L C v C F C :.  2X,X#X:Xr / ..H c H K V A V J D r { uX3X  <.H L L V C D D A J K A F V A A A ..F V F G ",
"A V j A H v ....F A F A H D D F V F F V yXyXyXyXyXyXG X.F S c H A V j A G r ` yXiXqXo <.G F D F V D F V X.A H F A H H O.H A x K ",
"V x x F v D v H J F v c G v A A x V F K F K A C G x J D V z c V V x x F C A C G J D V v F v A C x c H J J F A A J z H F V z c V ",
"D S V F D A A } F S A J K F ..J V J R.P V x V V A C C x A v D D D D C F S A A K D S D J L F ..K V G R.K V x c c A C A l S c S F ",
"..J v K K F J A m c ..K F o.L v S X.o.K S A F L F F F A H F D K ..J V J K F K S v v ..J F o.L c F X.=.K S A H L F G D A F F F J "
};
