/* XPM */
static char *enemie_spawn_21692725075[] = {
/* columns rows colors chars-per-pixel */
"64 64 224 2 ",
"   c #020201",
".  c #0B0A0A",
"X  c #070A0A",
"o  c #130101",
"O  c #150706",
"+  c #1B1615",
"@  c #1D100F",
"#  c #241B1B",
"$  c #281A1A",
"%  c #300809",
"&  c #2D211F",
"*  c #1B2D2D",
"=  c #292623",
"-  c #2D2925",
";  c #282625",
":  c #332A2A",
">  c #3A2D2E",
",  c #312727",
"<  c #3F3021",
"1  c #3A342F",
"2  c #3A2F30",
"3  c #293435",
"4  c #3C3332",
"5  c #3F3934",
"6  c #393D3B",
"7  c #510000",
"8  c #680304",
"9  c #730000",
"0  c #7A0505",
"q  c #771616",
"w  c #592426",
"e  c #453424",
"r  c #4A3726",
"t  c #4C3926",
"y  c #4B3728",
"u  c #4E3A2A",
"i  c #543E2C",
"p  c #583F2C",
"a  c #463D3C",
"s  c #493D3D",
"d  c #463735",
"f  c #523031",
"g  c #792425",
"h  c #793A38",
"j  c #672B2F",
"k  c #56402E",
"l  c #5A422E",
"z  c #4C443D",
"x  c #544231",
"c  c #5D4431",
"v  c #5E4835",
"b  c #52433E",
"n  c #5D4A3A",
"m  c #51483F",
"M  c #614633",
"N  c #644935",
"B  c #694D37",
"V  c #654C39",
"C  c #6A4E39",
"Z  c #6D453F",
"A  c #6D513B",
"S  c #63503F",
"D  c #72543D",
"F  c #73583F",
"G  c #324749",
"H  c #306065",
"J  c #4D4344",
"K  c #454849",
"L  c #544543",
"P  c #544A43",
"I  c #5A4B44",
"U  c #544A4A",
"Y  c #5B4E4C",
"T  c #514748",
"R  c #5C524B",
"E  c #594F50",
"W  c #495557",
"Q  c #535453",
"!  c #5A5152",
"~  c #595A55",
"^  c #654C47",
"/  c #665141",
"(  c #6D5443",
")  c #63544C",
"_  c #6B564C",
"`  c #6C5A4B",
"'  c #66594F",
"]  c #745641",
"[  c #765943",
"{  c #7A5B44",
"}  c #745C4B",
"|  c #7C5D49",
" . c #675B51",
".. c #6B5B52",
"X. c #65595A",
"o. c #715E52",
"O. c #714948",
"+. c #5C665F",
"@. c #7D614B",
"#. c #6E6156",
"$. c #6B665C",
"%. c #736154",
"&. c #796454",
"*. c #79665A",
"=. c #7D6A5C",
"-. c #7A6858",
";. c #6A6B65",
":. c #796C66",
">. c #71756E",
",. c #870603",
"<. c #960D07",
"1. c #89191A",
"2. c #981412",
"3. c #AA0302",
"4. c #B80200",
"5. c #A51C17",
"6. c #B4160F",
"7. c #9C221F",
"8. c #B4231D",
"9. c #862626",
"0. c #9B2421",
"q. c #952321",
"w. c #893833",
"e. c #933934",
"r. c #B92E25",
"t. c #BA342A",
"y. c #A62D2A",
"u. c #C40100",
"i. c #CE0301",
"p. c #C30B03",
"a. c #D50300",
"s. c #DA0400",
"d. c #DC150A",
"f. c #D11B11",
"g. c #C61911",
"h. c #E40000",
"j. c #ED0100",
"k. c #F40100",
"l. c #E7160A",
"z. c #FA1507",
"x. c #EB1D12",
"c. c #C6271D",
"v. c #DB2016",
"b. c #DD241A",
"n. c #D6261D",
"m. c #E42419",
"M. c #EC2419",
"N. c #FA2A1F",
"B. c #DB2E24",
"V. c #CF362A",
"C. c #EE2A21",
"Z. c #F33429",
"A. c #9B443B",
"S. c #815F47",
"D. c #805F4A",
"F. c #845B55",
"G. c #925C51",
"H. c #804840",
"J. c #A6574A",
"K. c #B2594C",
"L. c #A75E51",
"P. c #B35958",
"I. c #83634C",
"U. c #856651",
"Y. c #866A54",
"T. c #8B6B53",
"R. c #836C5C",
"E. c #8A6855",
"W. c #916E51",
"Q. c #996657",
"!. c #93735B",
"~. c #AA6758",
"^. c #B66256",
"/. c #816D61",
"(. c #867061",
"). c #8C7565",
"_. c #91776C",
"`. c #B17D7E",
"'. c #A47264",
"]. c #C55C53",
"[. c #CE574C",
"{. c #F75A51",
"}. c #D56359",
"|. c #CE7778",
" X c #DF7D7A",
".X c #F7756D",
"XX c #FF7C74",
"oX c #EC766E",
"OX c #827F80",
"+X c #798486",
"@X c #8D8E93",
"#X c #A39D9E",
"$X c #B29191",
"%X c #A79FA0",
"&X c #80ABAE",
"*X c #ACACAB",
"=X c #AEA7A8",
"-X c #B0ACAF",
";X c #C48283",
":X c #FC9B95",
">X c #C5BBBB",
",X c #D2AFAF",
"<X c #FBB9B3",
"1X c #F0B1AE",
"2X c #CDC0BF",
"3X c #C1BDC6",
"4X c #BFE1E3",
"5X c #B1CBCE",
"6X c #C6C5C7",
"7X c #D4D4DF",
"8X c #D1CCD1",
"9X c #FBDDDA",
"0X c #D8D8E2",
"qX c #DDDEEC",
"wX c #C8DFE0",
"eX c #D5E8E9",
"rX c #CAE2E6",
"tX c #E7E6E7",
"yX c #FDE9E8",
"uX c #E8E9F5",
"iX c #EFFEFE",
"pX c #E6F2F2",
"aX c #FEFEFE",
"sX c #F7F6F6",
/* pixels */
"| @.t B B M M l k N B N l p l i A D N M N l C N M p M ^ V p V N | | r C C c M l p N C N p p l p C D N M B c C V M p c c M p V B ",
"A C B N M M M k k l p M M l p M A A B N t B W.C D.N N V M v R.&.A A B B M M M k p p k M N k p M C C B N e B W.C F.M M k N p C B ",
"B N C D A e M D N D N r D B D l l l c B N A p B B i c ^ aX*X    @.M A D @.e N A B D N r ] A D c M l l B B C c C B p p p c i C B ",
"l B D D I.k M B N N S.i F B N N D B B D F A B N C ] . @XaXsX6Xo.l m m A T.l N B N N { i D B N N D B C D ] C B l C C D A C C v B ",
"M B M C p e l M M M l l M l l D D D B N N k N ) , C R.&.sXaXuXi l &.%.C n e l v M M p l M l M D A D B B B p B N A A A B M M i u ",
"l M k l N l k i M l N B B D M N N B l F D N k #...D N ( ] o.0X[ M M i N ( l k k M l N B B A c N N N l F D M l l N A N N V N c V ",
"B l l F C D A N t N B A B A N A A l V V D N M M N A ] E.C o.7XU.C l _ &.} A A B t M A A B B N C A N N N D M M M Z B B S.C M V { ",
"B l F B C A C D p A D S.F D B I.i ] D c p ] M F [ D.&.3XC o.7X{ B c 7X0X[ A [ [ p D D S.F D A U.t F F M p M B B A S.] B B N ( B ",
"V M !.D.M M M N M C B | D D F F l A { ] A   -.A R.N ( 3Xk %.7X@.M v 7X0X/ M : a c A B | D D ] D l A { { N k A A I.B N M c v c C ",
"M p D.] p c p c M C B D [ F B D l D F B @.  *XaX!.N ( 3Xc } 7X( M x 7X0XV c : P v ' ( F ] ] B D l F F N @.c M [ !.N N c c c ] V ",
"Z i A M C p Z N l B B A D A D D M A [ N N   *XaX@.N / 3Xu I 7X=.N p 7X0X[ c 1 R c d ] D D D D ] v B { v c k A V D M v V u < B | ",
"c M C E.[ C A M l A M B C N { I.u l M C n   6XaX( v V 6XY.` 0X!.v N 7X0XI.B 1 Y l L V B C M [ I.t c v V c c C [ M M c c Y.x ] Y.",
"c A D V p M V M { C i p N c } M M M i I.M 5 #./ x | } 6XF @.7X) v C 7X0XC c = P { I x c M v } M c c k I.N C p c t | A ] F N c v ",
"] C c k M p u A C C } c c p M B B N B M v v + a V [ @.3Xc &.7X/ ] C 7X0X( i d ..B I U.p n p M N B B B M c c A | V [ ] M c N u x ",
"D V M p N ] p V ] D ] ] c u ] ] D D D N u F # a N A ( 3Xc ` 7X} ] V ( / _ ] M N I.I | ] c u ] ] F D F B u ] A B N A N c M i r A ",
"N p i l C ] N B D B N N c B E.!.U.U.D A i D X a M c / 3XC &.7X( M k p l C D M N D b ( V G.K.E.!.U.U.A C p D [ v M c M N V N c M ",
"M p F p B M A B ( B B p i B [ ] N Z V A i C *.5  .c } 3X/ _.uXv M _ =...=.M =... .Y A l K.a.] ] N B N A p C C M c c D B M c A c ",
"l l M l B M | k C C M c c A ] c p c Z c _ p c ..d C A qXaXtX*X) l &.@ : s M ..    ! N v L.c.] c l l B c u k c k p C C N M v V e ",
"F C M k F B k r M A p c p D D B c c B D.a.B A N V C / 8XaX6X$ d F &.2 J _ N o.d J Q v l L.c.] V c c V i p C A N B C c p i N p c ",
"D D M l u l i k i N M p N c D c c i i D.f.B ~ + R W.) : 6XtX> b D R.2 J L M ..> a Q v k ~.c.A v M i i l B C A A V W.M C C C c M ",
"l F A c < l D C D M u N A D u u c N B | p.* 3 * $.l ~ @ >XtX2 L l R.2 J L k =.+X8Xc.c N ~.3.1 u l M C D D A N | A c D N C N } C ",
"c [ B l u N A F N B i A Z [ M N A A R._ d.0 w g G.D A.$ 5XtX2 b l (.4 P L N $.&XyXl.B A Q.3.X N D C D N D S.C A i A B M p p u l ",
"l l l C F l N N N N N N M B B M M C +.  N.C.7.u.K.C B.,.2XeX3 z c ..2 J ) p | $XyXl.] M ~.3.  l N B B N M C p k C B l k p k u k ",
"S v A C B B N M p c i C k N p { i C ;.o M.g c.j.~.c V.j.1XeXw L C %.> J I V [..XyXf.V C Q.4.  | i B C c N B i c A c k k i C k k ",
"M x [ C A M A N N k l N p N l M M M ;.o C.g 8.j.L.l V.i.E.| u.L N #.d T E iX{..XuXq S M G.3.  M M M M v c c c x N l k T.F F N N ",
"l c M A l A N D M N C D A u N B D { >.  q.8 g.k.P.A w.4.U.i s.r.V.D G L ! iX{.XXrX  @.F } O A C F { A k v A F A C A V @.B k B | ",
"k c v c c k c p F D C { M D B N F '.y.,.r.>XP.,.G.[ h u.o.v s.x.k.h H J E iX{.XXwX  } } a   B N D | { l A ] v c c [ S C p p B A ",
"k k k A v c c r { N l N ] A c p #.r.k.z.Z.aXQ.% F.l h 0 1X9Xs.v.x.r.O.K W iX]. XwX  V M R.#.l c l M l S ] c N l c c c F V p B B ",
"c k e c V k C ] B c M c C M M N   <.N.d.B.aX$Xw.F.[ w.8 >X9Xs.v.B.z.t.G O.aXP.;XeXo o.c B N N N l M B k F c B M c V V [ V v u C ",
"k k i v k c c B C M c i V p c v   5.N.d.B.sXaXwX:.0 v.h.<X9Xa.f.f.x.e.J m.aX}..XiX1.8 [ N l l l u k V B S C l c C u C N x r i p ",
"v c l N M c c A N v c C C N { C   <.B.2.Z.aX;X$ . q.m.h.<X7X9 v.N.8.g 1.m.aX6 W aX1.9 U.D N [ C l C !.A k u i i c k k u M p v M ",
"F B k C D N C M k p ] C N { C p %.[.7   Z.aX|.o   y.q.u.:XsX,Xf.l.7.w q m.aXG.OXpX    R.N { A k M ] @.A M c V D N B M c N V M C ",
"I.@.t B A M c c l N B N l p p p ] V.9.:.C.aX^     o g i.Q.-.R.n.l.7.9.6.C.aXf O.c $.$.} p p l p C D B l N M C V M p c c v p N B ",
"B C B B l c M p i k p M M l p B A K.E.N a.B >.J U 6 w u.}.p @.x.z.0.7.z.m.c ~ ~ p p p c M c p M C C B N e C W.C F.M N p N p D N ",
"B M B F C t M A B D N r A C A l c l M E.c.C c B B p X <.k.^.(.B.d.q.0.l.v.x v A B D N y ( A D c l l M B B C c C B p p p c i B B ",
"l A C D I.l M B N N S.p F B N N D B A D ] C B M A A X 4.4.$XaXR T j 8.d.9.N M -.) N | i D B N N D B B D ] B B c C C D A C C v V ",
"M B M B p e k M M M l k M l M A D D C B N p Z N B C X 9 q :.u P K Q h 2.I e ..# _ M p k M l c D D D B N N l B N Z A D B M M i u ",
"l M l l N p c i M l N N B D M N M B p F D M k k B D O & f :.c Y J Q L f Q aX6   %.c N B B A c N N B l F D N l p N A N N V N c V ",
"A k l F C D D N r N B A B C N A D M N B D M M M B D X 3 s :.B ) J E Q K E aX>.. _ N B B B A N A A M B B D N M M B A C S.C M V { ",
"B l D B B A C D i D D { { D C I.u F F l p M N A A D.  : d :.( Y J E E J E aX=X& _ D D S.F D A U.t F F l p M M A A S.] N B N ( B ",
"M c !.D.M M M N c A B | A D ] D l C [ F B k C A U.V . : s *.M ) J E E J E aX%X$ ..A C | D F ] D l A @.F V k C A I.B B M c c M A ",
"N k S.] l c c c M A C F [ F B D M D F B I.l B F !.M Y s 4 *.] Y J X.! J E aX#X$ ..C C ] ] ] B D l F F V @.x N [ W.N M c c c ] V ",
"B i A M C p N N c B C A D D D F c C F N x k C -.#.V ) J 4  .V ) X.: + 2 E aX-X+ ..B C A A D D D M B F M v k A C D v v N u < B | ",
"c N C T.[ C A M l A l Z C N { | u l N C v c C z   M ) s 4 *.]  .+   6 #XE -XOX, _ C c B C N [ D.i l v C c l C ] M V k v Y.x ] Y.",
"v A A Z p M M c { C i p M c { M l M i I.N V k R = { ..J 4 =.c Y , . @XaXU - J a *.B i p V M } N M l l I.N B p c t | A ] D N c n ",
"F A c p Z i i A C C { c c c M B B N C M v c F ' - { ..s 4 #XaXT aXQ T aXE J ! d o.C } x n p N N B M C M M c A | V [ ] M v M u c ",
"D V M p N ] p B ] D ] ] c u D ] ] D F N u F A R - A ) J 2 #XsXU aXK 6 aXE J E 4 :.D ] ] p u ] ] D D F N u ] A N N A N c v p e A ",
"M p p p C ] M B ( C M V c V T.!.U.U.D A i D F R = M ) s 4 #XaXT ( / / p X.E 4 d I b C V M B U.!.T.I.D A p D [ v M v M M C N c c ",
"c k F p B M B C A B B p i N F D N B N C i C C U + c  .a a =XsXT [ k D n = 4 #X#X#   ] p p N ] D N V V C p C C M c c A C V c A c ",
"l l N l B N | l C A N c c A ] M p M C c u p c ) d A ..U $ OXaXT / v M A   # aXsXO   / v c D F c p c B c u k c k p C C N M c N e ",
"F C M i F B l t M A c l p A D C l M B k i C C &.o.C Y Y   R k a Y.C M n   # c x $   V c p D ] Z c c B i p C A N V C c p i N p c ",
"F A M k t M t l i N c k N c D M l i i k V A A =...W._   #.A N z @.A M S   & n k R   ( p N l A M M i i p B A C A N W.N C C C c N ",
"l F A v < k F B ] p u M D ] u u l N C D D C N R.) c ..  %.N [ @.l ( A `   ' D A #.  n M D ] u u c M A D D A B | C c D N B V [ A ",
"c ] M k t N C F N C p D V ] M N A A D B D S.C } / A L    .p u l c [ M S   z [ D  .  V C N [ M N D C A N D { C C i A C M p p u k ",
"c l l C F c M B B Z V M M B N M M C A M M B k i C B o.  Y k u k x c c A )   &.N '   ` N N B N M M C C N M C p k A B l k i k u k ",
"C v A S A B B c p p u A p N p S.u B A c B B i %.=.M c = ' V k k C v A V C   *.M R   x C p N l { i B C c B B i c A c k k i C k k ",
"N x F A A l A N M p c N i N l M N M N l l c l ` @.c   _.] ] N N v c F A A   =.v '   / M i N c M M M M v c c c x N c k T.F F N B ",
"l c N A k A B D N N A D D r N B F F D k M F F -.&.B . R.C i C @.k c N S l X -.F  .  = R.D r M C ] { A k v A F A C C V { C k B | ",
"l c l l c l l k ( D A { M D B N A @.[ c A F c %.%.@.*.( p p B Z k c c l v   %.k =.;.  /.M D B N D | [ c A ] v c c [ S C p p B C ",
"l x i A N c c r { N l M D D l k c N c ( =.V v ` %.k v ] V p V C k c k C M   %.t (.*X  %.D D l l l v c C A v N k c c M F V k N C ",
"c k e c C p A ] V c N c C M M N l M V o.  / N [ } N V @.M v i C c p e c C 5 -.F *.o.4 %.B N M N l M B k F v B N c V V [ V v u C ",
"k u i v k c c B C N p i B p c c r k V -.  ( c k V t V v c e i p p u u v k c k B C M k i B p l M u k N B V B l c C t C V x y p k ",
"N c k N M c c O.V c c C A N ] C k C W.F k x k k c c l k M p M V M n c N M l c F N v c C A N [ B k C !.A i u i i c k k u M p c M ",
"] C k A A N A c p i ] A N { D p c [ @.A v c B A B M v l M V M C ] B p C D B B c k p ] A N { D i M [ @.A v v V D N B M c N V M C "
};
