/* XPM */
static char *enemie_spawn_11692725075[] = {
/* columns rows colors chars-per-pixel */
"64 64 140 2 ",
"   c #000000",
".  c #0B0307",
"X  c #12080C",
"o  c #1C1216",
"O  c #1E1419",
"+  c #221E1C",
"@  c #26201E",
"#  c #312A27",
"$  c #3A2E2D",
"%  c #3E3020",
"&  c #372E32",
"*  c #463424",
"=  c #4A3726",
"-  c #4C3927",
";  c #4B3728",
":  c #4E3A2A",
">  c #543E2C",
",  c #583F2C",
"<  c #41393C",
"1  c #4A3D39",
"2  c #56402E",
"3  c #5A422E",
"4  c #4E413D",
"5  c #554232",
"6  c #5D4431",
"7  c #5E4835",
"8  c #50433E",
"9  c #5E4938",
"0  c #614633",
"q  c #644935",
"w  c #694D37",
"e  c #654C39",
"r  c #6A4E39",
"t  c #6D513B",
"y  c #72543D",
"u  c #73583F",
"i  c #464344",
"p  c #4E4440",
"a  c #544641",
"s  c #564944",
"d  c #594C46",
"f  c #5C4E49",
"g  c #5F504A",
"h  c #655344",
"j  c #6D5441",
"k  c #63544D",
"l  c #6F594A",
"z  c #745641",
"x  c #765943",
"c  c #7B5B44",
"v  c #745B4A",
"b  c #7C5D49",
"n  c #645750",
"m  c #665851",
"M  c #6C5C53",
"N  c #60595D",
"B  c #725F52",
"V  c #77614F",
"C  c #7D614B",
"Z  c #746154",
"A  c #7C6353",
"S  c #75635A",
"D  c #7B675A",
"F  c #7C695C",
"G  c #716B6E",
"H  c #777174",
"J  c #787273",
"K  c #7C777A",
"L  c #C50403",
"P  c #CF0202",
"I  c #D40000",
"U  c #CF160A",
"Y  c #C92A1F",
"T  c #C73025",
"R  c #C83125",
"E  c #C33529",
"W  c #C5392D",
"Q  c #B84034",
"!  c #B6463B",
"~  c #BC453A",
"^  c #BC493E",
"/  c #C14539",
"(  c #C24B3F",
")  c #815F47",
"_  c #805F4A",
"`  c #96594F",
"'  c #9C5C4F",
"]  c #835F51",
"[  c #9D5E51",
"{  c #BE4D40",
"}  c #AA5247",
"|  c #AE5448",
" . c #AB5A4D",
".. c #B1574B",
"X. c #B15A4D",
"o. c #83634C",
"O. c #856651",
"+. c #886553",
"@. c #876A55",
"#. c #8B6B53",
"$. c #836C5C",
"%. c #9A6054",
"&. c #916E51",
"*. c #926C5A",
"=. c #996B5C",
"-. c #93735B",
";. c #A36255",
":. c #A96355",
">. c #A56558",
",. c #A86658",
"<. c #A46859",
"1. c #AD6B5C",
"2. c #B56356",
"3. c #B16E5E",
"4. c #826E63",
"5. c #827D7F",
"6. c #BB7663",
"7. c #C35347",
"8. c #C85346",
"9. c #C8584A",
"0. c #E76D66",
"q. c #E8736C",
"w. c #847E81",
"e. c #878284",
"r. c #8B8687",
"t. c #8D888A",
"y. c #928E90",
"u. c #959193",
"i. c #9A9798",
"p. c #A59FA0",
"a. c #A5A0A3",
"s. c #B3AFB1",
"d. c #F3B4B1",
"f. c #F5BFBC",
"g. c #C8C6C6",
"h. c #CCCCDA",
"j. c #D9D6D7",
"k. c #DEDDDE",
"l. c #E4E3E4",
"z. c white",
/* pixels */
"b C - w r 0 0 3 2 q w q 3 , 3 > t y w 6 w 3 r q 0 3 6 6 0 , q r ) b - w w 0 0 3 , q r q , , 3 > t y w 6 w 0 r 0 0 , 3 0 0 , q e ",
"t r w w 0 3 0 2 2 3 3 6 0 3 > 0 t t w 0 = w &.r ] 0 q , q , t q t r w w 0 0 6 , > , , 0 0 6 , 0 r r w 0 * w &.r ] q q , q , t w ",
"w 0 w y t * 0 t w y q - y t y 3 3 3 3 w w w 0 r e , , > , , r r w 0 w y w * q y w y q - z r y 6 3 6 6 w q r 6 w e , > > 6 > w w ",
"3 t t y o.3 0 r 0 q C > u w q q y w w y y w w 0 r r z r e r 0 r 6 t y t o.3 0 w 0 q ) > u w q 0 y w w y z r w 0 t r z t r r 0 e ",
"0 w 0 r 2 * , 0 0 0 3 3 6 3 6 y y y w w q 2 w q r t y w 0 0 > : 0 w 0 r 3 * 3 6 0 6 , , 6 6 0 y y y w w q , w 0 t t y w 0 0 > > ",
"3 0 , 3 q 3 3 > 0 3 q w w y 3 w q w 3 u t q 3 3 q t q q w q 6 0 3 0 > 6 q 3 3 > 0 0 q w w t 3 q q w , u y q 6 3 q t q q e q 5 q ",
"t 3 3 u w t y q - 0 w t w w w w t 3 q q y q 7 6 e t w ) r 0 w c t , 3 u w t y q - 0 w w w t w r t 0 w w y 0 0 0 w w r ) r 0 e x ",
"w 3 y w r t r y , y y ) u y t o.> u x 6 2 0 7 t y ) z w r l j w w 5 u w w t t t , y u ) u y w +.- u u 6 , 0 q w t ) z q r q z w ",
"0 7 =.] 0 0 0 q 6 r w ) y u y u 3 t c u w , r t o.q q 7 9 l q t 0 7 -._ 0 0 6 0 0 j w _ t y x y 3 r C u w 2 t t ] w q 0 6 0 0 y ",
"0 , ) z , 0 , 0 0 t w y u u w y 3 x u q C 6 q x -.0 e 6 7 h.x q 0 , ) x 6 0 , 0 0 r w j x z w y 3 u y w C 5 q x =.q e 0 6 5 z 0 ",
"e > t 0 r , q q 6 w w y y t y y 7 w x q 6 > t r t e 7 q > h.t V e > r q r , q r 0 q w y z t j z 0 r u q 6 2 r w r 0 7 q ; % w b ",
"0 0 r +.z j t 0 3 r 6 w r q b _ : 3 0 r 6 6 r x q 7 6 6 @.h.x @.0 0 r #.z w j 0 , w 0 w r 0 c _ : 6 7 w 7 5 r x q q 5 6 @.2 z @.",
"6 r y r 3 0 0 0 c r > 6 q 0 v 0 6 6 , o.q w 2 6 ; v t z t B 7 7 6 r j r 3 0 0 3 ) w > , d 0 c 0 3 0 3 o.q r , 6 : b t u y q 6 9 ",
"z r 6 , 0 , : y r r c 5 6 , q q r q r 0 6 7 y c e x z 7 e j : 6 z r 6 6 0 , > t w r b , 6 , q q r q w 6 6 6 t b q x x 0 7 q : 5 ",
"z e 0 , q u 0 e z t z z 6 : y z z y z q : z r e :.=.q 6 e 2 * t z e 0 , q z 3 q z j z b 0 : z x y y u q - z y e q t q 3 0 > * t ",
"0 , , , r y 0 e t r q q 0 w @.=.o.O.y t > y c 6 E  .0 0 j r 6 0 q , , , r z q w y w 0 z 6 w ] =.O.O.y t , y x 7 0 6 q 0 e q 7 0 ",
"0 , u > r 0 t w t r w , > q z z q e :.] , r j 3 ^ [ r r r q y 3 7 6 C > r 0 D B j q q q , q z z w w w r , r r 0 6 6 t e q 6 t 6 ",
"3 6 0 3 w 0 b 5 e t 0 0 3 y z 0 > 0 Y ] : , 0 , ! ,.r q e e q = 3 q 0 Z D 0 4.$ r j 0 h 3 y z 0 , 3 r 5 : , 5 3 3 r r q 0 0 q * ",
"x r 3 > u q 3 = 0 j , 3 , z z q 0 3 W B > r >.v ..,.6 , 5 e 5 6 u y z.J 1 e B 4 0 t , j , y z q 6 6 e > , r r q q r 6 , > q , 6 ",
"y t q 6 : 0 : > > q 0 , q 3 t 0 0 > ~ b r t T d.q.6.q r j z 5 q t z z.r.a 0 M s : q 0 q q 3 y 0 6 > > 3 w t r t q &.q t r r 6 q ",
"3 z y 3 % 3 y t z 0 ; q y y : : 6 q / *.t r / f.0.;.y q r j c w 3 x z.r.8 3 $.@ $.0 : j y z : : 6 0 w u y w q o.r 6 y q w e x t ",
"6 x q 3 : q t u q r , t q c 0 q t r / v y ) 7.f.0.,.w 6 2 9 5 3 7 C z.r.a q O.  1 r , v q x 0 q t y y w y ) r r > t r 6 , , : 2 ",
"3 3 3 r u 3 6 w q q q q 0 q w 0 q r / ~ e r Q f.0.>.6 2 2 7 5 2 5 7 z.r.k 3 B   g e 0 j q e q 6 0 w w 0 6 r , 2 t w 3 3 > > : 2 ",
"r 9 t w w w w 0 , , > t 3 q , c : r { I v q ! f.0.%.2 2 2 t 7 2 t 9 z.r.f r v   f , : x , w , c > w r 0 w w , 6 t 6 2 2 > t 2 2 ",
"7 5 x r t 3 y 0 0 2 3 q , 0 6 0 0 0 / I j 6 ! f.0.[ > #.x z q q 7 9 z.r.M 6 n . g , 0 t , q 6 0 6 6 e 6 6 5 5 3 q 6 2 @.u y 0 w ",
"3 6 7 t 3 y w y q q r y y ; 0 r z c ( I l t { f.0.<.r c t M D b 3 9 z.r.K k.  X g 0 r b t ; q r u C t 3 7 y u t r r e C r 2 w C ",
"2 6 7 6 6 3 6 , t u r c q y e q t b ( I C z ~ f.0.1.r r 2 4 g t 2 q z.r.H l.+ X n z r b 0 y e q t C x 6 y y 9 6 9 x t w , , w t ",
"2 2 2 t 0 5 6 = c w 3 0 y t 6 , 6 0 ~ P C 6 ^ f.0.%.6 z e g M r 2 7 z.r.H l.O X m w 5 j u y 3 3 6 6 6 e y 6 q 3 3 6 6 z e 2 q w ",
"6 2 * 3 r 2 t z w 6 q 6 r q 0 0 3 0 Y L u 6 ~ f.0.;.w V 7 g n w 6 6 z.t.H l.o X k 6 0 h w 0 6 q 3 0 q 2 u 6 e 0 6 q e v e 7 > e ",
"2 2 > 7 3 6 , e r q 5 > q > 6 0 ; , *.;. .b | f.0.` w q 3 d n 3 , 5 > a.G l.O X k 0 , 9 w , 6 0 - 3 w w w w 6 6 r ; w q 5 * , 2 ",
"7 7 3 q 7 6 6 y q 7 6 r t q c r 2 r -.t [ h } f.0.[ 3 : 7 f M q e 6 e i w.l.O X f 7 6 v t q u w 3 r -.t 2 : > > 6 3 3 : 0 , 7 0 ",
"y w 2 r t q r 0 2 > z r q c t , 0 x b y 7 6 ~ f.0.>.q 3 q k M r z e M   i.l.O X f , z y q c y > 7 x C t 7 7 e y q w 0 6 q q 0 r ",
") C - w r 0 0 3 3 0 w 0 , , , , t j r 0 r , { f.0.[ 6 6 q m m q b b h   u.l.O X d q w q , 3 3 , t y w 6 w 0 r 0 0 , 3 0 0 , q w ",
"w w w w 0 6 0 > , 3 3 0 q 3 > w r r r 0 * q 8.f.0.;.0 , b # F w t t D   i.l.O X f 3 , 0 0 3 , 0 w r w 0 * w &.r ] q q , q , t q ",
"w q w y r * 0 y w y q - t w y 3 3 ` r q q r ~ f.0.[ > > B + D e w 0 b 4 r.l.O X k y 0 = j t y 6 6 6 6 w q r 0 r e , > > 6 , r w ",
"3 t y y o.3 0 w 0 q ) , u w q q y U +.z x r { f.0.:.z j r M n r 3 t r $.G l.O X f q ) > u w 0 q t w w y z w w 6 t r z t r r 6 r ",
"6 w 0 w , * 3 0 6 6 3 3 6 3 0 y y W +.q q , T d.q.,.t r 0 n n : 6 r 6 D J l.O X g 6 2 3 0 6 6 y y y w w q , w 0 w t y w 0 0 > : ",
"0 6 3 6 q , 5 > 0 6 q w t t 6 q q E c x y q [ j ..>.q q e k m q 3 6 2 M H l.O X k 3 q w c t 6 0 q w , u y q 6 3 q t q 0 e q 6 e ",
"r 3 3 u w y y q - q w w w w q r t W O.e u 0 0 0 / :.r ) r k M c y 3 6 S N l.O X s q w r z r w r t 0 w w y 0 0 0 r r r ) r 6 e x ",
"q 3 y w w t r y > y y b c y r +.: W *.6 , 0 0 r 7.3.z q r g S r q 3 y D F v o X f y y b o.y w +.- u u 6 , 0 q w t ) c q e q z r ",
"q 6 -.o.6 0 0 0 0 r q b y u z y 3 W -.x q 2 r t 7.;.w v h m m t q 7 -.b 0 B o X f r e _ b u u u 3 r C u q 2 t t ] w q 0 6 6 0 t ",
"0 3 ) u 3 6 6 6 q w r y x x w y 5 U *.w C 6 q u 9.;.q p e.t.S q 0 2 _ x , l o X g r r z b u w y 3 u y w C 5 q x =.q e 0 6 6 z q ",
"w > t 0 r , q q 0 w w t t y t y 6 :.+.0 6 2 t w { ;.7 k u.r.M C e , r q r l .   g w r t y y t z 0 r u q 7 2 t w t 0 7 q ; % w b ",
"7 0 r #.x r t q , t 6 w t q c _ : 3 q t 9 6 w x ^ %.3 g u.5.F @.7 0 r #.x A & < d r 3 w r 0 v o.: 6 7 r 7 2 w x q 0 5 6 @.5 z @.",
"6 r j w 3 0 0 0 c r : 6 q 6 x 0 0 3 > o.7 t 2 6 ! 3.t M u.u.d h 6 r t e 6 B y.j.s r > , e 0 v 0 3 0 3 o.q r 2 6 - b t x y q 6 9 ",
"z w 0 , q > : t w t b 5 6 3 q w w 0 t q 6 6 t C E 2.u k u.s.  M z r 0 5 q B w.g.a r b , , , 0 q r q w 6 6 6 t b q x z 0 7 q : 3 ",
"z q 0 , q z 6 q z z z z 6 : u u y y y q - u t q ;.=.q g i.a.  F z q 0 , q 4.G g.d y z z 9 : z x u y u q ; z t e w t q 3 0 > * t ",
"0 , , 6 w z 0 w t e e q 6 e +.-.@.+.t t 2 u x 6 0 0 0 n S Z + Z 0 , , , r @.B b a r q q 0 e +.=.O.O.y r , y c 7 0 6 0 q e 0 7 7 ",
"0 , y , w 0 r w r r w , > w u y w q q r , r r 0 6 6 y k M 6 M 4 6 3 y > r q r D a r q , , w z z w w q t , w r 0 0 3 t r q , y 6 ",
", 0 0 3 w q _ 6 r t 0 0 3 y u 0 , 6 r 3 : , 6 3 , r r k m 6 D g 3 6 0 3 w q b B $ r 0 0 , t z 0 , 3 e 5 : 3 5 3 3 r r 0 0 0 q * ",
"x r 0 > u w 3 - 0 t 5 3 , t y e 6 0 w 2 , r r q e r 6 f n q 3 3 u t 0 > x q , h m t 6 6 , y z q 3 6 r , > r t q e r 6 , > q , 6 ",
"y t q , - 6 - 3 > q 6 3 q 0 t 0 6 , - 3 e t t t q &.q n B t 5 q y t 0 6 - 0 > , > q 0 , e , t 0 0 > > 3 r r t t q &.q t w t 5 e ",
"3 z t 7 % 3 y r y 0 : 0 y z : : 3 q r u y t q C r 0 y k B e b w 3 y t 7 % , u w y 0 ; 0 t z : > 6 0 w u y w q b r 0 y q w q c e ",
"6 x q 2 : 0 t u q r > z q x 0 q y r y q y b w t , t e k n , : 3 3 c w 2 : q y y q r , y q x 0 q y t y q y ) r t > t e 6 , , : 3 ",
"5 3 5 r u 3 0 q q q 0 0 0 r q 0 0 r r 0 6 r 2 2 r e 0 f k , : 2 3 9 9 t x , 0 q q q q 0 q e w 3 0 w w 0 6 r , , t w 6 2 > 2 : 2 ",
"r 7 t w r w w 0 , , > r , q , ) : r t 6 w w 2 6 r 0 , f m e 2 2 e e v w r e r q , , : r , w , c : w y 0 w w , 6 t 6 2 2 > r 3 3 ",
"q 5 x r r 0 t q q , 3 q , 0 0 0 0 0 w 6 6 5 5 3 q 5 > m M z q q 7 9 C w r 7 t 7 0 , 0 0 , q 0 0 6 6 e 6 6 5 5 3 q 5 2 @.u y 0 w ",
"2 6 q r , t w z q 0 t y y ; q q u u y , q y z t t t e S S , r _ 3 6 q r 3 t w u 0 0 r u y - q e u C t 3 7 y u t t t e C r 2 w C ",
"2 7 6 6 0 3 3 , z z r v 0 z w q y b c 5 t y 7 6 6 c r r , > e r 2 7 6 6 6 3 3 2 y u r v 0 y w q t C x 6 y y 9 6 6 x t w , , w t ",
"2 3 > r 0 6 3 ; c q , q y y 3 , 6 0 3 w j 6 q 6 5 6 7 z e > q t 2 5 2 w q 3 6 - c w 5 0 y y , 3 6 6 6 e y 6 q 3 3 6 6 z e 2 q w ",
"6 2 * 6 r , j z e 0 q , r q 0 0 3 0 w 2 u 7 w 0 6 w e v e 6 > e 6 2 * 3 w 2 t y e 6 q 6 w 0 6 q 3 0 q 2 u 6 e 0 6 q e v e 7 > e ",
", : > 0 , 0 , r r q , > q , 6 0 - 2 w e e e 3 3 r - w 7 5 = , , 2 - 2 q 6 6 2 w r 0 , > w , 6 6 - 3 w w w w 6 6 r ; w q 5 * , 2 ",
"e 7 3 q 0 3 , j q 0 0 r r 0 x w 3 r -.t 2 : 2 2 7 3 3 - 0 > 6 e q 6 3 q 0 6 7 t 0 7 0 r y 0 u t 3 r -.t 2 : > > 6 3 3 : 0 , 7 0 ",
"z r > r j q j 0 > > z t q ) t , 0 u C t 7 7 w t q e q 6 q q 0 r z r 2 r t q t 6 , , z r w c t > 7 x C t 7 7 e y q w 0 6 q q 0 r "
};
