/* XPM */
static char *e_vanish_11692725077[] = {
/* columns rows colors chars-per-pixel */
"64 64 228 2 ",
"   c #040302",
".  c #0D0403",
"X  c #0C0906",
"o  c #0A090B",
"O  c #130E0B",
"+  c #130506",
"@  c #16100C",
"#  c #1B130E",
"$  c #150E11",
"%  c #1C1512",
"&  c #1C1A1A",
"*  c #1D1419",
"=  c #27080C",
"-  c #3A0707",
";  c #27140E",
":  c #241B14",
">  c #271C19",
",  c #3A1B17",
"<  c #2D221B",
"1  c #2C2017",
"2  c #34241C",
"3  c #38281E",
"4  c #0B1D22",
"5  c #1D2C30",
"6  c #0F2125",
"7  c #2B2225",
"8  c #2E2529",
"9  c #2C2A2D",
"0  c #252527",
"q  c #3D2D24",
"w  c #332A2D",
"e  c #35292B",
"r  c #3E3022",
"t  c #3D322D",
"y  c #382E30",
"u  c #3A3739",
"i  c #2F2C30",
"p  c #301F26",
"a  c #48130D",
"s  c #531315",
"d  c #491D16",
"f  c #671919",
"g  c #791C1B",
"h  c #7F140E",
"j  c #79281D",
"k  c #6F2218",
"l  c #721F20",
"z  c #412E22",
"x  c #5B2C25",
"c  c #453324",
"v  c #4A3727",
"b  c #4C3926",
"n  c #4B3728",
"m  c #4E3A29",
"M  c #43352F",
"N  c #543E2C",
"B  c #583F2C",
"V  c #493B35",
"C  c #443836",
"Z  c #553C33",
"A  c #782424",
"S  c #6A342A",
"D  c #713029",
"F  c #56402E",
"G  c #5A422E",
"H  c #5D4431",
"J  c #5E4834",
"K  c #53453B",
"L  c #614633",
"P  c #644935",
"I  c #694D37",
"U  c #664C38",
"Y  c #6A4E39",
"T  c #75423B",
"R  c #7B463E",
"E  c #6D513B",
"W  c #72543D",
"Q  c #73583F",
"!  c #2D3E42",
"~  c #3D3E40",
"^  c #4A3E4B",
"/  c #693D40",
"(  c #3B4343",
")  c #4D4D4D",
"_  c #484445",
"`  c #564641",
"'  c #584C49",
"]  c #4E4852",
"[  c #544756",
"{  c #495658",
"}  c #555557",
"|  c #614945",
" . c #6D5441",
".. c #67574D",
"X. c #745641",
"o. c #765943",
"O. c #7A5B44",
"+. c #7D5D48",
"@. c #755B49",
"#. c #74534B",
"$. c #7E614A",
"%. c #74645C",
"&. c #5A4760",
"*. c #655F68",
"=. c #686669",
"-. c #766A66",
";. c #7A716D",
":. c #766A7B",
">. c #78777A",
",. c #84130B",
"<. c #851B17",
"1. c #9D1B14",
"2. c #97160E",
"3. c #AA1C13",
"4. c #BC1C15",
"5. c #AF170C",
"6. c #92261B",
"7. c #B6261D",
"8. c #A3251D",
"9. c #892727",
"0. c #9A2F22",
"q. c #962824",
"w. c #893528",
"e. c #9B3125",
"r. c #9A372B",
"t. c #883F3A",
"y. c #983C36",
"u. c #AC2D22",
"i. c #A32923",
"p. c #B62E22",
"a. c #A43427",
"s. c #B33124",
"d. c #BA3324",
"f. c #A53134",
"g. c #D50E03",
"h. c #CC1D14",
"j. c #D21C14",
"k. c #C42618",
"l. c #D9241A",
"z. c #D2261B",
"x. c #EB2417",
"c. c #EA2419",
"v. c #E32419",
"b. c #F9261A",
"n. c #C42C21",
"m. c #D4342C",
"M. c #FD3127",
"N. c #EE3029",
"B. c #E31C10",
"V. c #9A4239",
"C. c #A7483C",
"Z. c #805F4A",
"A. c #815F47",
"S. c #8B4C43",
"D. c #A5554B",
"F. c #83634C",
"G. c #876751",
"H. c #8B6B53",
"J. c #856A55",
"K. c #916E51",
"L. c #93735B",
"P. c #A3615D",
"I. c #847776",
"U. c #82766E",
"Y. c #A57873",
"T. c #DE5C52",
"R. c #93837B",
"E. c #8A7193",
"W. c #7F8284",
"Q. c #86888C",
"!. c #968B88",
"~. c #9C928F",
"^. c #968997",
"/. c #969497",
"(. c #8E8A91",
"). c #A2938D",
"_. c #A69997",
"`. c #BB9C94",
"'. c #B29089",
"]. c #ABA29D",
"[. c #B9A29C",
"{. c #9F9BA3",
"}. c #9781A0",
"|. c #A28EAB",
" X c #A297AA",
".X c #AA95B3",
"XX c #B29BBC",
"oX c #A5A2A3",
"OX c #ABA7A9",
"+X c #B0A6A4",
"@X c #B4ABA9",
"#X c #AAABB2",
"$X c #B3ADB9",
"%X c #BBB3B3",
"&X c #B7B5B5",
"*X c #ADB1B6",
"=X c #C39892",
"-X c #C4BBB7",
";X c #C4ABAB",
":X c #C9C2BC",
">X c #BCB7C5",
",X c #BCABC5",
"<X c #C4BEC6",
"1X c #CDB8D9",
"2X c #D8BFE4",
"3X c #CAC4C6",
"4X c #D3CCC9",
"5X c #DCD7D4",
"6X c #D0CCD6",
"7X c #E5E0DD",
"8X c #DBDBE4",
"9X c #DBD9E5",
"0X c #D6CCE0",
"qX c #D7E0E9",
"wX c #DBE0E9",
"eX c #E2E3EB",
"rX c #E6E6E8",
"tX c #EAEDF2",
"yX c #E6EAF0",
"uX c #EFF3F9",
"iX c #EDF2F5",
"pX c #F6F6F5",
"aX c #F4F6FE",
"sX c #F3F9FF",
"dX c #FDFDFE",
"fX c #F9F7F9",
"gX c #F1EEED",
"hX c #E3DAEE",
/* pixels */
"+.O.b E I L L G F P I L G G G N E W I L I G Y P L Z L L L G P I +.O.b I E L L G B P I P B F G N I W I H P L Y P P B H B P B I I ",
"E E I P L L L F F G G L P G N L E Y I L c I K.Y Z.P L B P F E I E I I I L H L F F B G L L G B L I W Y L c Y H.Y Z.P P B P B Y P ",
"I L I W E c L E P W P b W I E H H G G I I I L I I B B N H m Y I I L I W E c L E I W P v X.Y W L G G G I I Y H I Y B Z N H B Y I ",
"G E E W F.G L U L P F.m Q I I L W I I W Q Y I L Y Y X.Y Y E H I J I W W F.G L I L P Z.N Q I P L E Y Y W X.I I L Y Y W W Y Y J Y ",
"L I L Y B c B H L L G G L G L W E W I I P F I L Y Y X.I L O         X Y F c G L L L B B L L L W W Q I P P B I L T E W I J L N m ",
"H L B G P G H N L G L I I W L L P I G Q W L G F P X.Z $ : ^  X#X#X X&.$ # b G F L L L I I I L L P I B Q W P G B P  .L P U L H U ",
"E G G Q I E W P b L I E I E L E E L P P Q L J J I N > :.^.6XaXdXdXdX0X/.:.< b P n L I Y I I P Y E L P I W L L L P E I A.Y L U @.",
"P G Q I Y E E W G W W A.Q W I F.m o.Q L B L P E Y N $ 1XdXuX9X9X9X8XiXdX0X% 3 E B W Q A.Q W E F.m Q Q L B L P W E A.X.I I P X.I ",
"P L L.A.L L L I H I I $.W Q Q Q G E O.X.I B E E #.e ^ .X8XwX9X9X8X8X8X8XXX[ e B B Y U +.W Q X.Q G E $.Q U F Y E F.I U L H H L E ",
"L Z A.X.B L B Z L E I W Q Q I W G Q Q P $.H P U 7 i XX|.5XwXwX8X8X8XwX8X|.XX~ $ Z W Y X.X.W I W G W Q U $.H U X.L.L J H H H X.P ",
"I N E P Y B P I L I I E W W W W J Y O.J H N E % X 8 =..X9XwX9X9X9X9XeX9X.X:.8 o O P I E W W  .X.J I Q P H F E Y E J H U b r P $.",
"L L Y H.#.Y  .L G I L I Y P O.A.b H L Y J H Y % Q.hXE.|.8XyX|.>X<X|.yX8X|.E.0X{.O Y L I Y L +.+.m G J U J F Y o.P U H H J.F X.J.",
"H Y W Y B L L L O.Y N H P L @.L H H B $.P Y F ; 0 #X0X.XhXyXE.,X>X^.<X9X.X1X;Xp.; Y m H L H +.J L J G F.P Y B J b $.E X.X.L H H ",
"X.Y H Z P N N Y I Y +.Z Z H L P E P Y P H J  .O } fXtX^ ,XdXeX3X+X@X<X<X[ 9X=Xn.X Y +.H J Z L P I P I L H J E O.P o.o.L J U V H ",
"X.P L B I X.H I X.W X.X.H m W X.X.E X.P m X.W z ) /.} * ] =. X%X%X_.OX[ : ' s.l.v E X. .H b X.X.X.W W P b X.W P P E P G L N c E ",
"L B N H Y W L P E Y P P L I H.L.G.G.E E N W X.L v O   :._ U.E.<X<X!. X_ :.+ p.l.E Y U U H I H.L.G.F.W E B W X.J L J L L I P J L ",
"L B Q N I L E I  .Y P B N P O.X.P I I Y N Y Y L G 2 & E..X3X@X8X%X+X-XXXE.p p.l.E I I B N I X.W P Y U Y B Y Y H H H W Y L H W H ",
"G G L G I P +.H Y Y P L L E X.Z B L Y Z m N B N : O @   C #X-XeX%X+X$X^.$ . p.l.U U H L G W X.L B H U H b F H H Z Y Y L H L P c ",
"Q Y L B Q P B c L Y B L B W W I H L I N B X     % R._.* @ ^.3XdX%X@X&X@ > y u.l.      H G E W U H H U N N I E P I E H B N P Z H ",
"Q E L G m L m F N P L B P H W H H N m N % 4 ! ( ) :XrX_ : {._ _ %X-./.D 1.' u.l.( ! 6 O B H W H L N N G Y Y E E P K.L E I W G L ",
"G  .E J r G Q I W L m L W W m m B c > = 1.u.m.D./ +X5X{ 1  XU.+X3XI./.C.5.L s.l.y.m.f.3.= : 3 N G L E Q W Y I +.E H W P I P o.I ",
"H o.I F m P W Q P Y N E P X.L P c s f f b.b.j.<.6.[.4Xy.< {.eX8X9X6XoXS.1.7.d.l.g j.b.M.h f a q W Y E P W A.Y Y B E I H F F F G ",
"G F G I Q G L L P I P P P I P L + 2.M.q.b.c.l 9.z.[.5Xx.2 /.aX8X9XqX].D.h.z.p.l.A 9.x.b.f.N.5.X P I Y P L E B B E P G F F F b F ",
"E J W I I I I L B Z N E B P H O.$ ,.m.A h.4.A 1.v.`.:X9.; oXaX8X8XqX_.8.g.a.u.l.z.s 7.j.g n.2.% N I Y H P P B H E H F F F Y F F ",
"J H o.Y E G E L L F G P B P G L @ ,.N.f - s 9.  ,.`.].K + /.dX8X9XqX].n g.j 0.l.4.  A s - 4.3.O L J P J H G H G P G F H.Q Q P P ",
"F H U Y G E I Q P L I Q E n P I O ,.M.3.- `.T.-   @X&X..X  XsX8X8XqX@X=Xg.D.r.l.- c.l.9.= 4.3.O o.O.E F J Q  .E E Y P $.U F I $.",
"F H H H H H G G X.Q E O.L X.I P B 3 f i.A tXT.i.@ ].&XU.. {.aX8X9XqXOX'.g.r.a.l.+ b.b.9.7.,., N E O.o.F Q  .J H J @.Y E B B I E ",
"F F F E L H H c O.P G L W W G B P > = f.9.yXP.9.f ~.&X..X  XaX8X8XqXoXC.g.8.u.l., q.q.l M.,.; Z H L H U Q H J G G H H  .Y F P I ",
"H F c G Y F Y X.P H L H Y L L L B n > f q.8XY.Y.P.7X+X%.   XaX8X8XqX_.n.g.u.d.l.p.q.l q.<.a z P G P I F o.H U P H U Y @.J J m Y ",
"F F F J F H H Y Y P H B U N L H n B N O f 8X`.-X=XfX=XU.. {.sX8X9XqX_.e.g.s.p.l.x.v.q.l @ z H H b F U Y Y P G H Y n Y U F n N F ",
"H H H P J H H E P J H Y Y P @.I Z Y L.H   uXuXuXiXdX'.S . {.sX8X8XqX~.x g.e.u.l.b.b.b.. N P o.Y F E L.E F m N F H G G b H B L U ",
" .Y F Y E P E L F N X.Y U O.W B L O.O.G + uXsXsXsXdX).Z .  XsX5XwXuX_.V.g.j 6.l.b.l.j.+ v +.E B J o.O.E J H Y E P P L H P U L Y ",
"O.F.m I E G L G B P I L B G G B E E I L H 3XpXsXsXdX!.M X {.aXeXeX*X).y.g.p.i.l.. . . N B B G N E W I L I H Y P L B B B I B P I ",
"E I I I L J L F G G B L L G F L Y Y I L c ..7XsXsXdX!.S . {.dXsX>.i _.y.g.0.0.l.z z z L L B N L I I Y L c I H.Y F.P L B I Z E P ",
"I P I Q I v L E P W I v W I W G G G L I P %.wXsXsXdX!.Z .  XdX(.o _ @XS.g.k 0.l.I W P v W Y W L H G G I I Y H I I B N N H N Y I ",
"G E E E F.G L Y L P A.B Q I P L W Y Y W Q J.8XaXsXdX~._ . OXfXC o u %.S B.D 0.l.L P +.N X.Y P P E Y I W X.Y I L E Y X. .Y Y L Y ",
"L I L I B c G H L L G G L G L W W W E P L J R.tXsXdX~.' + #X X8 9 0 < T x.k 6.l.L G B B L L L W W Q I P P B I L Y E W I L L Z b ",
"G L F L L G G N L H P P I E H P L I B Q W P U eXsXdX~.J + *X=.+ y i t T x.w.0.l.L L I I I I L L L I B Q W L G B P E P P I P H U ",
"E G G W Y W E I m P I Y I Y I Y I L I P W L  .rXsXdX_...+ *X>.$ w 9 t R v.V.e.l.n P I Y I I P E E L I I Q L L L I E I A.Y H U X.",
"P G E I Y E E I B W W O.O.W Y G.N Q Q L B L @.yXsXdX].` X 3XE.$ 9 9 V T x.V.r.z.B W W A.Q W Y G.b Q Q L B L P W E A.X.I I U X.Y ",
"P J L.F.H L H P L Y U +.W Q W X.G I O.Q I B @.4XaXdX+X` O ^.=.* w 9 ` #.x.w.r.e.> E Y +.W Q W Q G I $.Q J F Y E F.P L L Z H L W ",
"L F A.Q G L B H L Y Y W X.X.I W L Q Q P A.H P K gXgX!.K : 8 8 w w 9 Z D x.y.r.r.X Y Y E X.Q I W J W Q U $.H U o.L.L U H L J X.L ",
"I B E L Y Z I I H I Y E W W W W L Y Q L H F E K tX3X_ M 7 7 8 w 9 9 ^ R c.w.a.e.O I Y W W W E X.J I Q P J F E Y W L L U m r I +.",
"J L I H.X.I  .L G I L U E L @.Z.b G I Y K H U ` iX-Xw q i w w w w 9 C S.c.w.a.a.O Y H I Y P @.+.m G J U H H Y o.L L H H J.F X.J.",
"L Y W Y S J J J O.Y b H L H O.L G J F F.P E F K iX4Xu r w w w w w 9 M S c.r.S x ; E m H U H +.J L G G F.P I B H m $.E W X.J H J ",
"X.I H G P N m E Y E +.H H H P P I P I L J G E ' gX5X' 2 e w w M y 9 t x x.a.' & @ E +.G H F L U I P I L L L E O.P o.X.P H U V H ",
"X.U L Z P X.H I X.E X.X.H b W Q Q W Q P b Q E ' yX:X' 2 w w t Y t 9 t d x.a.-.y % E @.X.H b X.X.Q Q Q P n Q Y U P E P G H N c E ",
"L B B B Y W P P  .Y U L J Y H.L.G.G.E E F W 1 -.6X' > > w Z H H w 9 M S b.a.w 8 < % J P J U G.L.G.F.W E B W @.J L J L P Y I G L ",
"L G Q N I P I I E Y P G B I Q Q P P P E F I   ;.:X8 & 2 w N W H e 9 E D c.0.p w 8   L B B P X.X.P P U Y B Y Y H H H W I L H W H ",
"G G L G I L +.G Y E P L G E Q L G H I G b F X -.4X8 : 3 w V U c 9 5 L w.l.u.y C % X L J B W X.H B L Y Z b F H H Z Y Y P H L P c ",
"Q I L N Q I G v P E H G N X.W I H L I F B b _ ;.3XX % 3 i Z F G e 5 L w.z.w.. % 7 _ q G G W X.P H G I B B Y E P I Y H B N P Z H ",
"Q E L G b L m G m P H F P B W L H b F G P   fX+X5Xy @ z i F H J e u L a.u., 9 _ oXdX$ n P H W H L N N H I E Y E P K.P Y I E H L ",
"G W E H r H Q E W Z N L X.X.m m H L E W Y   6X%X5X/.% 2 y H o.J e E E d.7.% Q.dXdX8Xo F W W m N H L Y Q W Y I +.E H E I I P o.I ",
"H o.U F b J I Q I I N W P X.L P E E E I Y   ) ;.:X>X@ > t N m N t $.I s.7.; *XdX) )   U I X.L P W Y W P W A.Y Y N E Y H G F F G ",
"H F G Y Q G J L P P P P L I I B J I I J F   >.>.) u m G N B b Z H G F I Q b y { ;.>.  F L Y I H L I Y P L Y B F E I G F F F b F ",
"Y J E Y E I I J Z H N Y Z I B A.F I E J Y   oX;.1 m F F N I H B Y J E I I I H < } OX  Y G P G O.N I Y H P I N H E H F F N Y F F ",
"J G Q E I L E P L B H L B P G L L L P J 1 >.&X0 r F N H.o.X.P U J H Q E E J E c & #XW.1 m P H H L J P J H H G G P F F G.Q Q P I ",
"G H P E G Y I Q P P Y W W v P I Q @.P 3 } dXrXi 3 E I @.Y B I +.F H J Y F E P b 0 5XdX*.r r J E Q o.Q F J Q  .E Y E U $.U F I $.",
"G H H G H G G G E Q Y O.L W I P W O.r ( dXdXdX} 2 $.Y Y N Z I Y F J G H J G G 3 ~ dXdXdX} 2 Y P E O.o.G Q E J H H @.Y Y B B I E ",
"F H m E P H H v +.I G L Q W G G H H q u pXpXpX) 2 F J X.U B P Y F H F Y L G J 1 u pXpXpX) r F G H L H Y  .H J H H H H Q U F P I ",
"H F c H Y G E W P L P H I P L L G L I F Q J P P J P U @.U J V Y H F c H I F E Q U H L H Y P L L G L Y B o.H P J H P Y @.J J N Y ",
"F m m J Z L G I Y P Z N P B H H m F I U U I G G I b U P F v B B B b N J G J F I Y L H N P B H H b F U Y Y P H H Y n I U F n Z F ",
"U H H P L H H X.P H H Y Y P X.E G I L.Q F m F F J G G F L B L L U H G P L G G Q P J H Y E P O.Y F E L.E F m F F H G G b H B H P ",
" .Y F E Y P Y L Z N X.Y I O.W B L Q O.E J J I E P U J F P P L Y X.Y F E W P I J F B X.E P O.E B J X.+.E J J P E P I L H P P J E "
};
