/* XPM */
static char *e_vanish_21692725075[] = {
/* columns rows colors chars-per-pixel */
"64 64 191 2 ",
"   c #020000",
".  c #0E0306",
"X  c #12070A",
"o  c #110B0D",
"O  c #1A130D",
"+  c #1A0F12",
"@  c #1C1215",
"#  c #1F1418",
"$  c #221713",
"%  c #2A1D16",
"&  c #2C1D19",
"*  c #231819",
"=  c #301F1B",
"-  c #2E2119",
";  c #32221C",
":  c #2E2529",
">  c #32292D",
",  c #382D2D",
"<  c #3E3020",
"1  c #3F312F",
"2  c #352C30",
"3  c #3F3130",
"4  c #463424",
"5  c #4A3727",
"6  c #4C3927",
"7  c #4B3728",
"8  c #4E3A2A",
"9  c #45362E",
"0  c #543E2C",
"q  c #583F2C",
"w  c #523625",
"e  c #443530",
"r  c #483936",
"t  c #533E32",
"y  c #733828",
"u  c #56402E",
"i  c #5A422E",
"p  c #554234",
"a  c #5D4431",
"s  c #5E4834",
"d  c #5E493A",
"f  c #52423C",
"g  c #614633",
"h  c #644935",
"j  c #694D37",
"k  c #664C38",
"l  c #6A4E39",
"z  c #6E513B",
"x  c #72543D",
"c  c #73583F",
"v  c #7D503C",
"b  c #714B37",
"n  c #4D454A",
"m  c #534C51",
"M  c #5C565B",
"N  c #544B4E",
"B  c #674F40",
"V  c #6E5441",
"C  c #6E5B4B",
"Z  c #745641",
"A  c #765943",
"S  c #7A5B43",
"D  c #735C4A",
"F  c #7C5D48",
"G  c #705D50",
"H  c #7D614A",
"J  c #77604F",
"K  c #7D6654",
"L  c #7F6856",
"P  c #786658",
"I  c #635D62",
"U  c #696269",
"Y  c #7C6D61",
"T  c #777178",
"R  c #7F7972",
"E  c #B21A12",
"W  c #BB1E12",
"Q  c #9C2419",
"!  c #98261A",
"~  c #A72B1D",
"^  c #B7291B",
"/  c #B8271A",
"(  c #872F20",
")  c #982F23",
"_  c #942D20",
"`  c #8E3324",
"'  c #853A2A",
"]  c #8C3A2A",
"[  c #9E3324",
"{  c #943728",
"}  c #933A2A",
"|  c #9B3D2C",
" . c #943426",
".. c #A62F21",
"X. c #AF2D20",
"o. c #B62E21",
"O. c #BC2E21",
"+. c #A33325",
"@. c #AB3124",
"#. c #A53A2A",
"$. c #B73426",
"%. c #C0100C",
"&. c #DB180D",
"*. c #DB170C",
"=. c #C12A1E",
"-. c #CD281D",
";. c #DB2319",
":. c #D62318",
">. c #C42D21",
",. c #C82F23",
"<. c #8E412F",
"1. c #9F412E",
"2. c #8E4330",
"3. c #914331",
"4. c #85533C",
"5. c #A0412E",
"6. c #A24E3A",
"7. c #815F47",
"8. c #805F4A",
"9. c #83644C",
"0. c #876751",
"q. c #866A55",
"w. c #8B6B52",
"e. c #836D5C",
"r. c #886D5F",
"t. c #916E51",
"y. c #8A725F",
"u. c #93735B",
"i. c #856D61",
"p. c #8A7363",
"a. c #8A7569",
"s. c #90786A",
"d. c #827671",
"f. c #947D72",
"g. c #928074",
"h. c #998479",
"j. c #858379",
"k. c #A48870",
"l. c #837E85",
"z. c #978A83",
"x. c #9B8D83",
"c. c #9C8F89",
"v. c #9E9087",
"b. c #928D92",
"n. c #9A9895",
"m. c #A58C84",
"M. c #A5958B",
"N. c #A69B97",
"B. c #9CA39A",
"V. c #ACA19F",
"C. c #B3A69F",
"Z. c #ADA5A4",
"A. c #A9A7A8",
"S. c #B1A7A5",
"D. c #B5ACAA",
"F. c #B8AEAB",
"G. c #BCB2AD",
"H. c #B4AFB4",
"J. c #BAB3B5",
"K. c #B3B2B9",
"L. c #BDB6B8",
"P. c #BCB7B9",
"I. c #C4BEBB",
"U. c #C2B7B0",
"Y. c #C6C0BE",
"T. c #CCC3BD",
"R. c #BABEC2",
"E. c #B7BFC4",
"W. c #C3BDC1",
"Q. c #C6C2C3",
"!. c #C9C5C4",
"~. c #C0C1C8",
"^. c #C9C8C9",
"/. c #D1CBC7",
"(. c #CCCAD1",
"). c #D2CED2",
"_. c #D5D3D4",
"`. c #DCDCDE",
"'. c #E3DCD7",
"]. c #DBDBE4",
"[. c #DFE0E2",
"{. c #DAEDF9",
"}. c #DAE7F3",
"|. c #DAF0FC",
" X c #E2E2E6",
".X c #E5E9EE",
"XX c #EBECF5",
"oX c #ECEDF8",
"OX c #EFF3F9",
"+X c #F3F4FE",
"@X c #F3F8FF",
/* pixels */
"F S 6 z z g g i u h z g u i u q z x j g h g l k g q a a g q k j F F 6 j b a h i u h j g i q u 0 z x j g h a z j g q a g g q h j ",
"z z j h g i g u u i u g h i q g z z j g 4 j t.l 8.h h q h 0 z h z z j h h a a u 0 i i g h i q g z j j g 4 j w.l 8.h h i g q l j ",
"j g j x z 4 g z j x h 6 x j z i i i i j j j g l j 0 0 0 a 0 l k j g j x j 4 h z j x g 5 x l x g g i i j j l a l j q t 0 a 0 l j ",
"i z z x 9.i g l g h H w c j j g x j j x x j j a l k Z Z l l s l i z x x 9.i h j h h F 0 c j h g x j j x c l j g l l Z z k z a l ",
"g j a z 0 4 q a g a u u g a a x x x j j g u j h l z x b g g t 0 g j g z u 4 i h g i i i g i a x x x j j h u k g l b V j g g t 8 ",
"a g u a h i a 0 g i j j b z a h h j i c x k i u h V h h h h q h i i q i h i u u g g h j j z g h g j i c x g i i j z h h j h a h ",
"b i i c j z z h 6 h j z j b j j z i h h x h a a h z l 7.l q l S z i i c j z z h 6 g z b j z j l z g h k v g g g j l j 7.l s k S ",
"h i c j l z z x u x c S S z z 9.0 c c g u g h z b 7.Z l l k V b k i c j j z z z 0 x x S c x l 9.w c c a u g g z z 7.Z j j g Z j ",
"h g u.8.g j q j i z h H z c c c i z S S h 0 l z 9.j h C ).N.a z v.N.s.7.g g t k h l k 8.z c x Z u z S c k u z z 0.j h g a a g Z ",
"g t 8.Z q t g q h j z x c v j x i Z c h H a k A u.g 8 N OXP.c k D.Q.7.Z q g h q h l l Z S Z j x i c c k H u h A u.g h s a a Z g ",
"j 0 l h l q h j a j j z z x x c a l S g a 0 z j V g 5 M XXZ.k H N.J.z h k q h k a j l b x x V Z g l A k i u z l l d a g 8 < k F ",
"g g b w.S B V g i l i z l h A 9.8 a g l s a k A h h 5 M oXA.A q.S.H.j w.Z b V g q l g k l g S F 8 i s l s i k A h h a a q.u x e.",
"t z Z k q h g g S l 8 a h a D g a a q 9.h l t a 7 F t I oXD.a s N.W.i.l q h g a S l 0 q k a F s g i u 9.h l 0 a 8 S V Z x h a s ",
"A l q q g q 0 l j l F a a a g h j h l g a s x F h D j N oXD.8 p x.].S.q g q 0 z l l D ' d t g h l h z g a a Z S g A Z g s h 8 a ",
"Z B h q h Z a k Z Z Z Z a 8 x Z Z x Z h 8 Z b k h D d.r XXZ.4 z x.].N.t j Z a h A Z Z O.a w Z Z c x c h 8 Z z k k z h a s 0 4 z ",
"g q q q l x g j z k g h g j w.u.0.0.x l 0 x F q g Y E.n XXF.s g h.].n.q l [ ] j z l h @.g j 0.u.0.9.x z q x A s g g g g j h a s ",
"g q c 0 j g l l V j j q 0 h Z Z h k j l G I.Z a i L A.n +XS.x i z.].).j.l %.O.k l j h ..q j A Z h k k l 0 j l g i a z j h a z a ",
"q g g i j h F a l l g g g z Z a q g B q Y +XB q i p.E.o b.A.- 4 z.].[.A.l W #.q l B h @.q z Z q q g k q 8 i a a i l l h g g h 4 ",
"Z l g 0 c h 0 5 g l g q q l Z j a a j q Y  Xl a.I.e.~.  U K.+ a V.`.].n.S E o.w h V a ..q Z Z j a a j 0 0 j l h k l a q 0 k q a ",
"x z g a 8 a 0 0 0 h g q h a x g g 0 8 q p. Xz f.`.k.~.  T K.@ g M.].].n.8 Q ;.` 0 h a ..h a Z g g 0 0 a j z z l h t.h l k z a g ",
"u z x a < i c z Z q 0 h z x 8 0 i g z c s.[.h h./.P ~.  T K.% z z.].].B.4 Q :.| x g y ^ V x 8 w a g l c x b j 9.l g x h j k S z ",
"i H h u 8 g z v h l t z h Z g h z z x h p.XXf.e.Q.y.~.  T K.O u x.].].B.5 ! :.#.g l / :.h A g h x l z j x F j l 0 z k g q 0 8 u ",
"a u i l c i g g k k h j h j h a h z l g D @X@XL.Y.L ~.  l.(.O u x.].}.h.7.W ;.{ h k O.;.h j g g g j l g g z 0 i z h i i 0 u 8 u ",
"l s z l z j h g q q 8 l q h a S 6 j z i J @X@X@XQ.D ~.o n U % p M.].|.i.| &.;.{ q q o.;.q j q S 0 j l a k k 0 a z a u u 0 l u u ",
"s a A l l a z h g u g g 0 h a g h h k s C @X@X@XY.C ~.* * @ ; g c.].{.p.2.&.;.{ g q O.;.0 h a g g s k a i p a u k i u w.c c h k ",
"u s s l a l h c h g z x b 8 h l x v z u J @X@X@XY.L ~.@ : > ; F z.].{.a.' &.;.1.g h O.;.x 5 h l c A z u k c c z l z j H j u l S ",
"u s s s a a a q x c j S g x j h z H S i L @X@X@XY.y.~.@ : > ; l z.].|.i.' &.;.` V x O.;.g x j h x S A a z c a a a A l l q 0 k z ",
"u u u z g a a 5 S h i g Z z a q i s a j K [.@X@XI.C ].@ : > & l z.[.{.s.' &.;.( 7.h ^ ;.c z q a a g a l z a k i a a s V k u h j ",
"u u 4 a k u l Z h a g a l h g h i g k u c C XX[.Y.J n.* > > % l c.].{.i.2.&.;.| j a O.,.j h g h i g k u c s k h a h k D k a 8 l ",
"u u 0 s i a a j l h a 0 k 0 a a 6 u k l l e./.g.T.p   2 > > % p z.].{.i.' &.;.| l g =._ h u i i 8 u k k j k i a j 8 k h a 5 0 p ",
"s a i h s a a z h s a l l h Z l i l u.z u P ^.j.Y.d . > > > - g x.].{.i.' &.;.| g s =.#.x h S j u l u.z u 6 0 u g i i 8 g q g g ",
"c j u z z h l g i 0 Z l k S x q g A S x s Y _.v.T.B o > > > & z S.W.E.f.3.&.;.{ i 0 >.#.h S x q g A H z s s k z h j g a h k g l ",
"H S 6 j z g g i q h j h i q i q l x j g N.d._.x.T.d o > > > ; j I.N.d.m.2.&.;. .u g =.[ i i u q j z j i h g l j g q a q h q j j ",
"z z j j g i g 0 0 i i g g i q g z j j g .XK k.x.'.l X > > > ; h U.N.c.m.' &.;.` u i =.+.g i u j z l j j 4 j w.l 8.h h q j 0 z h ",
"j a j x z 4 g x j x h 5 x l x a i i g j [.c a f./.a . > > > ; j U.M.N.m.2.&.;.| j x O.! z z x a i i i j j l a z j q 0 0 a 0 l j ",
"a z x z 9.i g k h h S q c j h g x j l x ].A k h V k @ > > > & l S.V.x.h.6.&.;.| g k ,.) S j g g x j z x c l j i l V Z l k l s j ",
"a j a j 0 4 i a g g u u g i g x x x j j `.k k g l a 2 > > > % 8 D.L.g j ! :.;.` g i :.+.g i a x c x j h h i j h V b V j h g t 0 ",
"a h i a h a a 0 g i h j j x g g h j q c ].V a t k g > > > > & h D.R.0 a ~ ;.;.` g g +.} j x a g g j i c x g i u h b h h k h a g ",
"z i i x l z x h 5 g j l j l h l z g h h OXV g g k k > > > > ; c G.R.a Z +.;.;.} 5 h j z j z h z z a j j v g g g h l j 7.l a k A ",
"h i x j l b l x q x c S S x l 9.8 c c g c.l g l V Z > > > , ; j F.R.x j ~ >.>.#.q x c S c x z 9.6 c c a u g g z z 7.Z j j h Z l ",
"g a u.7.a g a g g l l F x x Z c i z S c j u l z 0.a > > > > & x F.R.u.7./  .[ X.d l j F x x v x u z S c k u z z 0.j h g a a g z ",
"h i 9.c i g a g g l l x S Z j x i v c k H i j c u.a > > > > : h F.R.7.Z W +.+.@.g l k Z c c l x i c c k H u h A u.g h d a a Z g ",
"h u l g l q h j a j l l x x x Z a z c g a u z j V p > > > > ; H F.E.x g / ..@.@.a h l x x x Z Z g j A k i u z l l h a g 6 < l F ",
"g h l w.Z j z g i l g k l g A H 6 a h l a a l A g p > > f e * q.F.P.l w.Z b O.@.q j g l l g D F 6 g s l s i k A h h a a q.p Z e.",
"q V Z V q g g q S l 0 a h a A h a a 0 9.s l u s 8 V > > r p $ s D.I.V k q j -.o.S l 0 q k a F s i i u 9.h l 0 s 8 F z x x h a a ",
"A l q q j t 8 Z l z S a a p h h l g z h s a z H g z > > r 8 @ i G.L.a a g 0 ) | l z F t d t g h z h z g a a x S g A Z s s h 8 a ",
"Z k q q j Z q l Z z A Z a 8 x Z x x x h 6 c l j h k > > e 8 % z U.L.q q j Z q j Z x Z Z a w Z Z Z x c h 8 Z l j k z g a s 0 4 z ",
"g q q q l Z g j V l g h a k w.u.0.0.z z u c A a g t > > 1 h a g D.J.q q l Z g j x j h h g j 0.u.9.9.x z q Z A s g s h h l h a s ",
"g q Z 0 l g l k z j h u 0 j c c h h k l 0 l z g i t > > 1 i x a N.H.c 0 l h l j l l j q 0 b Z Z h k k l 0 l l g a a x j h a x a ",
"q h g i j h H i l z h g i x x g i g j i 8 i i i i k > > 1 s h 4 Z.I.g i j g F i l l g g q x Z q q g l t 8 i a i q l l h a g h 4 ",
"S j g 0 c j u 4 g z a i q l x j g a j u 0 l z g k h > > , h u a S.L.g 0 S h u 6 h z a i q Z Z j a g l 0 0 j z g j l a q 0 g q a ",
"x z g i 6 g w q 0 g s u k a x g i u w i l l z z k 7.> > e z i s A H g i 6 g 8 q 0 k g t g a Z g g 0 0 i j z l z k t.g l l l a h ",
"i V z a < u c z x g 7 h x Z 7 0 i g z x x z h H l 7 , h j k S z a z z s < u c z x a 8 h z Z 7 8 i g z x x z j 7.l a x h k k A z ",
"a A k u u h z c h l 0 b h A g h z z x h x S z l 0 d r g q 0 8 i a D k u 6 h b c g l 0 b j A g h z b x k x S z j 0 z l a i 0 8 u ",
"a u p l c i a h h h h h g j h g h z z g g j u u l j g q 0 0 8 u p u u z Z a d h g h h h h l h g h j l g g z u u z k a i 0 u 8 u ",
"l s z j j j j s q a t l q j q S 6 j l g k k u s z s 0 t 0 l i u z s z l j j h a a a 0 l q h q S 0 l l a k h 0 a z a u 0 0 z u u ",
"s a c z l g l h g t g g q h i g g g k a a a p u k p 0 w.A Z h k s i c l z s z h g q g g q h a g g g k s a a i p k i u w.c A g k ",
"u i k z i l j c h h l x x 5 h l c S z u h z A z z z k S l 0 j F u a h l u z j c g h l c x 5 h j c S z u s z c z l z j H j u k H ",
"u s a i a i a q V c j S g x j h x S S i z z s a a A l l q q j l u a s i s i i u V Z l A g x j h z S A i c z s a a A z l i 0 j l ",
"u i 8 x g a g 4 S j i g Z z a q g g i k V s k i i a g Z k t h l u a u l s i a 6 S h a a c z q a g g s l V a h i i a a V h u h l ",
"a u 4 a l q V Z k a g a l h g g i g k u c a k g a k k D k s 0 l a 0 4 a j i z c k a g a l h g h i h h u c s k h a h k D k s 0 k ",
"u 8 0 g a q q j l g a 0 h q a a 6 u k k l l i i l 6 j s q 7 0 t 0 8 0 s i a i h l h a 0 h q i a 6 0 k k j k i a j 8 k h a 4 0 u ",
"g s a h g g a V g s a l l h Z b i l u.c u 6 u u a i i 6 g 0 g h k a a h g i s z g s a l z h S j i z u.z u 6 0 u g i i 8 g q g g ",
"Z l 0 l z h l g t 0 Z x h F x 0 a c H z s s j z h k k a h h g l Z l 0 z x h z a i 0 Z z h S z 0 g A H z s s k z h j g a h k g l "
};
