/* XPM */
static char *e_vanish_41692725075[] = {
/* columns rows colors chars-per-pixel */
"64 64 168 2 ",
"   c #1D1213",
".  c #251815",
"X  c #261B1B",
"o  c #2A1D1B",
"O  c #241615",
"+  c #2D201F",
"@  c #1E2E30",
"#  c #342622",
"$  c #372823",
"%  c #3B2B25",
"&  c #30272B",
"*  c #33292D",
"=  c #3A2E2D",
"-  c #3E3020",
";  c #3E302E",
":  c #362D31",
">  c #263131",
",  c #2A3333",
"<  c #323030",
"1  c #3E3130",
"2  c #422E24",
"3  c #453424",
"4  c #4A3726",
"5  c #4C3927",
"6  c #43332D",
"7  c #4A3729",
"8  c #4E3A2A",
"9  c #543E2C",
"0  c #583F2C",
"q  c #443531",
"w  c #4B3A32",
"e  c #533E33",
"r  c #523F39",
"t  c #6B3727",
"y  c #7D3726",
"u  c #713D2C",
"i  c #7D3929",
"p  c #56402E",
"a  c #5A422E",
"s  c #4F4038",
"d  c #564133",
"f  c #5D4431",
"g  c #5E4834",
"h  c #534339",
"j  c #5A463B",
"k  c #5A483E",
"l  c #6D412E",
"z  c #76422F",
"x  c #7B412F",
"c  c #614633",
"v  c #644935",
"b  c #694D37",
"n  c #664C38",
"m  c #6A4E39",
"M  c #7E4432",
"N  c #6D513B",
"B  c #72543D",
"V  c #79563F",
"C  c #73583F",
"Z  c #5B4940",
"A  c #6E5441",
"S  c #625145",
"D  c #745641",
"F  c #765943",
"G  c #7B5B44",
"H  c #765C4A",
"J  c #7D5D48",
"K  c #7D614A",
"L  c #6E615F",
"P  c #7E6654",
"I  c #7C6D64",
"U  c #716768",
"Y  c #7B6D68",
"T  c #A72517",
"R  c #AD2B1C",
"E  c #BC2C1F",
"W  c #B42619",
"Q  c #893627",
"!  c #853927",
"~  c #833C2C",
"^  c #8B3C2C",
"/  c #913625",
"(  c #983B2B",
")  c #9D3424",
"_  c #A22E21",
"`  c #B12E21",
"'  c #BA2E21",
"]  c #A53123",
"[  c #AC3426",
"{  c #AC3728",
"}  c #A13829",
"|  c #A93D2C",
" . c #B43224",
".. c #BB3322",
"X. c #BE3A2B",
"o. c #B23A2B",
"O. c #C8261B",
"+. c #C6291D",
"@. c #CA2A1E",
"#. c #C3271C",
"$. c #D6251A",
"%. c #DB2319",
"&. c #CD2F23",
"*. c #CD3325",
"=. c #C03B2A",
"-. c #81422F",
";. c #8F412F",
":. c #8C4331",
">. c #824C37",
",. c #824C38",
"<. c #8A4F3B",
"1. c #864534",
"2. c #944432",
"3. c #914935",
"4. c #954C38",
"5. c #9A4E3B",
"6. c #815F47",
"7. c #805F4A",
"8. c #83634C",
"9. c #876751",
"0. c #876A55",
"q. c #8B6B52",
"w. c #886F5E",
"e. c #916E51",
"r. c #93735B",
"t. c #827165",
"y. c #8B7364",
"u. c #857268",
"i. c #8A766A",
"p. c #8F7B6E",
"a. c #8D7C73",
"s. c #947F74",
"d. c #968072",
"f. c #908179",
"g. c #9D877B",
"h. c #948A87",
"j. c #9D918D",
"k. c #A3948D",
"l. c #A29692",
"z. c #A59994",
"x. c #A89B96",
"c. c #A79E9C",
"v. c #A99F9E",
"b. c #ACA19F",
"n. c #B0A29C",
"m. c #A6A0A1",
"M. c #ACA3A3",
"N. c #ADA7A8",
"B. c #ADADAF",
"V. c #B1A7A6",
"C. c #B4A9A6",
"Z. c #B3AAAA",
"A. c #B1AFB0",
"S. c #B4B1B3",
"D. c #BBB3B4",
"F. c #BCB6B9",
"G. c #BEBABE",
"H. c #C1BBBE",
"J. c #C7C0BE",
"K. c #BEBDC1",
"L. c #C6C2C8",
"P. c #CDCBD2",
"I. c #D1CED5",
"U. c #D5D1D5",
"Y. c #D4D3DB",
"T. c #D8D7E0",
"R. c #DADAE4",
"E. c #F2F3FA",
/* pixels */
"J G 5 N b c c a p c b c a 0 a 0 N B b c b a m v c 0 f f c 0 b b 6.J 4 b N c v a a v b c a 0 p 0 N B b c b f N c c f f f c 0 v m ",
"N N b v c c c p p a p c v a 9 c N m b c 4 b e.m 8.v v 0 v 0 m n m m N l c a a p 9 a a c c a 0 c b b b c 3 b q.m 8.c c p v 0 B n ",
"b c b B m 3 c B b N b 4 N N N c a a a b b m c m m 0 0 9 0 e m b m c m B b 3 v B b B c 4 B m B c c a a b b m a N n 0 0 0 a 9 n b ",
"a N N B 8.a c n c v K 9 C b l c N b m B C m b a m m D m m m c b a N B B 8.a c b c v J 9 C m v c N b m B B N b f m m D m m m g b ",
"c b g b 0 3 0 g c a p p c a c N N C m b v p b c m m B b c c e 9 a b f N a 3 a g c a a a c a c B B B b b v p b v N N B b c c 0 8 ",
"c c p a v a f 9 c c v b b B c v c b 0 V B c a p v A v v n v 0 v a c p a v a a p c c v b b N c c v b a C B c a p v N v v n v g v ",
"b a a C m N B v 5 v b N b b v b N c v v D c g g b N b 6.m 0 m G B a a C b N b v 4 v b m b N n m B c v v B c c f v N m 6.m c n F ",
"b a B b m N m B p B B G G B B 8.8 F D c 0 c v N N 6.D b k.Y.k.m b a B b N N N B 0 B B J V B m 8.5 V B c p l v N N 6.D v m v A m ",
"v c r.7.f c f v a N b J B C C C a m G V v p b N 9.v v c l.R.z.N c g r.K v c 0 A 0 m b 7.B C D V a m G C b p m N 7.b v c 0 f c N ",
"c 0 7.D 0 f f f b b m C C V n B f C C n K f v F r.v c g j.R.z.n c p 6.D 0 0 c 0 n A b D D D b B a C C b K d v F r.v n f j c D v ",
"n 9 N c m 0 n m a b b b B B B C g b F c g 9 N m N c g c h.R.j.K n 0 N v m 0 v b r l m N N B D D v N K f g p N b N c c n 5 % m J ",
"c c m q.F m N c a N a N m c G 6.5 g c m g a b F b j a f b.R.z.0.g c m q.D m A c 0 A 0 b m c H J 5 a g v g p m F c v 0 g 0.d D 0.",
"j N N m t g j c G m 9 f v f G g f f 0 8.c b p a 5 K N B k.R.z.g f m B m 0 c c c 6.N 8 0 n c J f a a p 8.v m 0 g 8 G N F B v g g ",
"D m 0 0 c 0 8 N m m J d d f c v m v m c c g B G v H C g M.D.S f D m f 0 c 9 8 N b N J 0 j 0 c b N b N c c d N G n F D c g c 8 f ",
"D v c 0 n D f v D B D D f 8 D D D N D v 8 B B n [ ) c g S.j.3 N D n f 0 v D c b D N y.D.c 7 D D D B B c 8 D N m c N v a c 9 3 N ",
"c 0 0 c m B c m m m c v c m 9.r.9.9.B N p B F a $.W c c S.b.a c c f.v.f m D c v B m s.R.c b 9.r.9.8.B N 0 C D g c c c g m c g c ",
"c 0 B 9 m c m b m b n 0 9 n D D v m ` 1.9 m m f +.T N m S.v.B g c N.E.9 m c r q m m s.P.0 m F D v n v m 9 b m f f f B m c f N f ",
"0 f g a b c J f m N c c a B B c 9 c %.Q 8 0 f f +.R m c A.v.v 3 a b.D.e 2 c r * m m a.P.c N D 0 p g m f 9 0 f a 0 m m c c g v 3 ",
"F m c 9 V v 0 4 c N f f 0 B B n f f O.! 0 m { u ' R f 0 B.b.a f C C.v.w o v 6 $ v N a.P.0 N D b f f m 9 9 m m c m m f 0 9 v 0 f ",
"B N c g 5 g 9 9 9 v f 0 v g B f c 9 O.Q m m %.2. ...c m K.b.f c B C.N.h o c 6 * 9 n a.P.n f N c f 9 9 0 b m B B v e.v m m m f v ",
"p N N f - a B m B g 8 c N B 8 8 c c @.2.N m @.5. .T B v t.S.k.N a C.Z.j o a g * 2 f I I.B B 9 8 f c m B B N n 6.m a B v m c H N ",
"f K v p 5 v m V v m 9 N v G c v N B @.-.B J @.;.R o.m g p G.G.p a C.V.s o c j *   m I I.m D c v B m N b N 6.m m 0 B v g 0 0 8 p ",
"p p p N V a c b c n v v v v n c c m @.E l N +.y  .[ a a 9 D.N.p a M.M.k # a e * o c i.I.c n n f c m m c c b p 9 m b c a 8 p 5 a ",
"N g N b N b v g f d 8 N t v a G 9 m +.%.M n #.~ ..] p p p H.Z.p m M.V.k + m d * O f I I.c n 0 G 9 n m c b b 9 g N g p 9 p N p p ",
"g d K v m c N v c a a c 0 c f c c c @.%.z f #.i  .] 8 q.F U.J.v c M.Z.k $ f q * . 0 u.I.f v f c c g v g f p d p c f p q.C F g v ",
"p g g N a m n B v c N B N 4 c m B V @.%.z A +.3. .{ N G m U L J p N.V.k $ v * * o v p.I.B 4 c m C G N p g C C C m N N F b p b K ",
"p a g f g f f 0 N B m F c B n v B J @.%.,.N #.~  .o.m N p O O N p Z.V.h # p * * o D a.I.c B m v B G F f N A g f f F m N 0 0 m m ",
"p p p N c 0 g 4 J b a v V B a a a c @.%.,.g +.! ` ] g N v ; $ m a Z.m.k $ d * * o v t.I.D B a a g c f m N g v a f f f A v 0 v m ",
"f p 3 f m p N D b g g f m c c c a c %.%.V g +.~ ` [ m H g 1 # m f V.M.h $ 9 * * o f i.I.N v c c a c b p F d b c g v m H n g 8 m ",
"p p 9 c p g 0 m m c f 9 v 0 f c 5 0 ( } ' M E !  ._ b v f * # f 0 H.F.h # p * * o c t.P.b 0 a c 4 0 n n n m f f b 7 m c d 7 9 p ",
"g g a c g f f N c g f m m v F m a m r.N R t R y R ] a 8 g ; $ c c a.Y # q d * * . g a.R.N v F m a m r.N p 5 9 p a a a 8 c 0 g c ",
"C b p m N v m c a 9 D N v J N 0 c F J B g d @.3. .[ c a v ; ; N D m 6 X r g & & X 0 w.x.v J N 9 g F K N g f b B v b c f v n c m ",
"G 8.5 b m c c a a v b c a p a p B B n c n a &.~ ` _ g a c ; ; b J J 3 : w d * * * v m v 0 a a 9 N B b c n c m v c 0 0 c c 0 b b ",
"b b b b c a c p p a a c c a p c b m m c 3 n &.:.X. .v p d * w b N N d * w a * * = a a c c a 9 c b m b c 3 m e.b 7.v v 0 v 0 N v ",
"b v b B N 3 c N v N c 5 N b N c a / z v n m +.:. .R p p w * w b b c c ; w 3 * * 1 B c 4 B m B c a a a m n m a b m 0 9 9 f 9 m n ",
"a B B N 8.a c b c b 6.p V b l c B %.^ B V m @.~  .o.N N N 1 1 m a N B w w 9 * * = n J 9 D b v v B b m B D m b c N m D N m m g m ",
"c b c b p 3 a g c a p p c c c N N %.;.b v 0 %.^  .[ B m c : ; 9 c v g w 1 ; * * = g 9 N d.a g B B B b b c a n v N N B b c c e 9 ",
"a c a a v a a 9 c c l b b N c c v %.y C B c _ u ' [ n v n ; 6 c f g 0 6 q 9 * * = g b p.R.N c c b b p C B c a a v N v c v v f c ",
"N a a C N N m b 4 c N N m N n m m %.-.v C c c g O.[ n 6.m ; q G m a f q 1 m * * $ c m p.R.b b m b c b v B c c c v N m 6.m f m D ",
"v a C b b N N N p B C F F B m 8.5 %.3.c 0 c c m &.=.V b m ; w m v f B r w v * * = B B d.Y.B m 8.5 V C c a c c N N 6.D m m c D m ",
"c g r.8.g c c c c m n 6.B B D C a %.4.C v p N N &...b w p 6 1 N c g r.J g w * * = N n g.R.C D V a m K C b p m N 7.b v c 0 c c N ",
"c p 6.C a a 0 c c N m B F V n B a %.3.b 8.a v C *. .v @ 6 6 q v c f 6.D t e * * = m m y.D.V n B a C C b K d v F r.v n g g j D v ",
"b 9 N c m 0 b b f n m m B B B D c  .<.g d p N b @. .g , 6 = 6 K n 9 m v m e & * = b m N B B B D c N G g g p N b N c c c 8 2 v J ",
"g c N 9.D b A c 0 m c m m c F K 5 c c N g f m C +. .a , Z ; w 0.c c m q.F e : 1 % m c b m c H K 5 a g n f p m F v c f f 9.d D 0.",
"c N A m 0 0 n c F m 9 f c f H c c g p 8.v b p f #.=.N , w w ; f f m N m 0 w q e = m 9 f c d G c c a p 8.c m p g 7 J N D N c f g ",
"D m 0 0 v 0 8 A m N G f d f c v b c N c g f N K $.*.B > w w * ; D m f f v 6 1 n = N J d d f c v b b N c f g N G n F D c g n 8 f ",
"D v c 0 n D 0 m D A D D g 9 B D B B D c 5 C N b [ | c > w 6 * w D n f 0 b r 6 0 : B D D g 9 B D B B B c 8 D N m c N v a g p 3 N ",
"c 0 0 e m D u b N m c v c v q.r.9.9.N N 9 C F f c c c < w d = 6 v 0 9 0 m c w e : b v v c n 9.r.9.9.N N 0 B F g c c c g m v g c ",
"c 0 C 9 m c m b N b b p 9 b C B v v b m 0 m m g f f B 6 6 f 1 < c a V 8 m c m r : m m 0 0 b F D b n v m 9 b m c f f N m v f B f ",
"a g c a b c 8.a m N c g a B C c p c m a 7 0 f a 0 m m = ; f w ; a f c a b c J 7 * m c c 0 B D 0 0 g n f 8 a f a 0 m m v c f v 3 ",
"C N c 9 V b p 4 c N f a 0 N B m a c b p 0 m N c n m f 1 ; v p f C b c 9 F v a 3 6 m 0 f 0 A D b f f n 9 9 m m v n m f 0 9 c 0 f ",
"B N c a 5 c 5 p 5 b f p n f N c c 9 8 a m m N N n e.v = q N a v B N c g 5 c 8 9 9 n c 0 m 0 N c c 9 9 a b N N N v e.v m m N f c ",
"a N N f - p C m D 0 8 v B B 7 9 a c N B B m b J m c N 1 q v F b a C N f 2 a C m B c 8 c N B 8 9 a c m B B N b 6.b g B v m v H N ",
"g H v p 5 b m C b m 0 N v F c v m N N b B J m N 9 N m = ; 0 9 p a 0.K p 8 v m V v m 9 N m D c v B m m b B 6.m b 9 N m g 0 0 5 p ",
"a p f m C f v v v c v c c m v c c N N c a N p p m m c = = 9 8 p p b.L.n D 0 c v b v v c v v v c v m m c c m a 9 m b a a 9 p 5 p ",
"m f N m n n b g 0 0 9 N 0 v 0 G 8 b N f b b p d m c 0 = ; m a p m B.Y.n m m n c 0 0 9 m 0 b 0 G 9 n m c b v 9 g m g p 9 p m a p ",
"g f C N m c N v b e c c 0 v f c v c v g g f f p g f 9 q q D v v g j.D.N N g N g c 0 c c 0 v c c c c v g f p d p v f p q.C D c m ",
"p f c N 0 N n C v v m D N 4 c n D F N p c N F N N m m q q 0 m 6.p f b n p N v C v c m C B 4 c b C G N p g C C C m N m F b p m J ",
"p g a a c a a 0 D D m F c B b v B G F p N B g f g F m m 0 e n m p g f f g a a a A C m D c B n v N J F a N A g f f F m N 0 0 b m ",
"p f 9 B c a c 3 G v 0 v V N c 0 a c g m A g c f f f g D n 0 v m p f p n v a g 5 G m d f B B a a g c g m N g v a f f g A v p v m ",
"f p 3 f m 0 D D b f v a m v c c p g v p F f b c f v n H v g 9 m f p 3 f b a N C n f c f b v c v a c b p F d b c g v m H n g 8 m ",
"9 8 9 c 0 c e m m v 0 9 v 0 f f 5 p b b v m a a m 7 m g d 4 9 e 0 8 9 c p a a b m c f 9 b 0 a c 5 9 n m n m f f m 7 b c d 7 9 p ",
"v g f c c 0 0 A c f c m N c D N a N r.C p 5 9 p g a p 5 c 0 c c v g a v c a f N c g g m N c F m a b r.N p 5 p p a a a 8 c 0 g c ",
"D m 9 N A b m c 0 e D N v J N 0 c F H N g g N N c m g g v n c m D n p b B v N g 0 0 C N v J N 9 c H G N g f b N v b c f v n c m "
};
