/* XPM */
static char *xpm_[] = {
/* columns rows colors chars-per-pixel */
"64 64 228 2 ",
"   c #010101",
".  c #0B0303",
"X  c #0C0B0B",
"o  c #040709",
"O  c #130203",
"+  c #1C0000",
"@  c #120C0D",
"#  c #180C0B",
"$  c #12110C",
"%  c #051718",
"&  c #151313",
"*  c #1B1718",
"=  c #14100F",
"-  c #220000",
";  c #2B0507",
":  c #340302",
">  c #231C1C",
",  c #23211D",
"<  c #1C1221",
"1  c #241D22",
"2  c #281F24",
"3  c #1C2F30",
"4  c #0D2429",
"5  c #252423",
"6  c #2A2325",
"7  c #2C2A2A",
"8  c #2B2729",
"9  c #332B2D",
"0  c #322A2B",
"q  c #3E3020",
"w  c #38332E",
"e  c #372B34",
"r  c #3B3333",
"t  c #3A3638",
"y  c #2A2F33",
"u  c #490203",
"i  c #580706",
"p  c #541617",
"a  c #4B1112",
"s  c #660805",
"d  c #6D110C",
"f  c #781918",
"g  c #6E1513",
"h  c #50231E",
"j  c #711E21",
"k  c #463424",
"l  c #4A3726",
"z  c #4C3927",
"x  c #4B3728",
"c  c #4D3A29",
"v  c #543E2C",
"b  c #583F2C",
"n  c #52322D",
"m  c #443B3C",
"M  c #423838",
"N  c #513735",
"B  c #682327",
"V  c #782526",
"C  c #683A3D",
"Z  c #56402E",
"A  c #5A422E",
"S  c #5D4431",
"D  c #5F4835",
"F  c #5E4D3F",
"G  c #46423F",
"H  c #614633",
"J  c #644935",
"K  c #694D37",
"L  c #664C39",
"P  c #6A4E39",
"I  c #6D513B",
"U  c #66513F",
"Y  c #72543D",
"T  c #73583F",
"R  c #143D44",
"E  c #3D3742",
"W  c #483E41",
"Q  c #443943",
"!  c #643F41",
"~  c #3B4444",
"^  c #325151",
"/  c #34686B",
"(  c #434343",
")  c #4C4343",
"_  c #4B4A49",
"`  c #554C4C",
"'  c #584E4F",
"]  c #534748",
"[  c #5E534C",
"{  c #4A4F51",
"}  c #594F50",
"|  c #534E51",
" . c #485556",
".. c #545354",
"X. c #5C5253",
"o. c #585B5D",
"O. c #6E4646",
"+. c #6E5441",
"@. c #68584A",
"#. c #745641",
"$. c #765943",
"%. c #7A5B44",
"&. c #745C4A",
"*. c #7C5D49",
"=. c #615454",
"-. c #665C58",
";. c #714547",
":. c #5D625D",
">. c #7D614B",
",. c #77604D",
"<. c #6E6258",
"1. c #6C6157",
"2. c #746254",
"3. c #72655A",
"4. c #746A5E",
"5. c #7A6B5E",
"6. c #7A6654",
"7. c #4D5D60",
"8. c #5B4861",
"9. c #635769",
"0. c #705F76",
"q. c #4C7376",
"w. c #6D6162",
"e. c #686A69",
"r. c #706464",
"t. c #7C6E61",
"y. c #766965",
"u. c #7B7269",
"i. c #6E6B72",
"p. c #797979",
"a. c #6E6C75",
"s. c #880901",
"d. c #87130B",
"f. c #9B1C18",
"g. c #96130C",
"h. c #A71813",
"j. c #B00F0A",
"k. c #9A211D",
"l. c #B7221B",
"z. c #A1211D",
"x. c #832324",
"c. c #8B2727",
"v. c #9B2423",
"b. c #942727",
"n. c #8D312F",
"m. c #A02827",
"M. c #BB2B26",
"N. c #B63832",
"B. c #CC1E14",
"V. c #D51E14",
"C. c #CC0C05",
"Z. c #F91D10",
"A. c #F61107",
"S. c #CC231B",
"D. c #C6241C",
"F. c #DC241A",
"G. c #D42319",
"H. c #EC2216",
"J. c #E32319",
"K. c #EC251A",
"L. c #E42116",
"P. c #F4271C",
"I. c #FB261A",
"U. c #FF2B1D",
"Y. c #F72317",
"T. c #CF312A",
"R. c #F92D24",
"E. c #EB2E26",
"W. c #B7403B",
"Q. c #EB453C",
"!. c #805F4A",
"~. c #815F47",
"^. c #A84A46",
"/. c #83634C",
"(. c #876651",
"). c #8B6B53",
"_. c #846B58",
"`. c #916E51",
"'. c #93735B",
"]. c #89705C",
"[. c #887464",
"{. c #857669",
"}. c #F66866",
"|. c #80827F",
" X c #928375",
".X c #5F7B81",
"XX c #7C6882",
"oX c #797C81",
"OX c #8A7592",
"+X c #977EA1",
"@X c #768285",
"#X c #848588",
"$X c #93899B",
"%X c #9A979A",
"&X c #8F959A",
"*X c #AF8083",
"=X c #9B86A4",
"-X c #9A9CA1",
";X c #AD97B7",
":X c #9EB0B3",
">X c #ADA9B3",
",X c #B3A6BB",
"<X c #B2B3B4",
"1X c #CBAFAD",
"2X c #BAA6C4",
"3X c #BDB8C6",
"4X c #C2B9CB",
"5X c #CDBAD8",
"6X c #C2ABCD",
"7X c #BDCDD2",
"8X c #CAC9CA",
"9X c #D2C3DE",
"0X c #CCD4D7",
"qX c #F3D7D5",
"wX c #DADAE4",
"eX c #DBDBE5",
"rX c #DBD8E6",
"tX c #DACCE6",
"yX c #DBE3E9",
"uX c #E2E5EC",
"iX c #E3E4E5",
"pX c #EAECF5",
"aX c #E8ECF3",
"sX c #F6E1FF",
"dX c #F6F6F5",
"fX c #F5F2FE",
"gX c #FEFFFF",
"hX c #F4FCFD",
/* pixels */
"*.*.z P I S H A Z J P H A A A v I Y K S J S P J H A S A H A J K *.*.z I I S H S Z J P H A A A v Y I K S J S P J H A S A H A J K ",
"I I P J H A H v Z A A H H A v H I P P H k K ).P /.J H A J b I K I I P J H S H b Z A A H H A v H I P P H k K ).P /.J H A J b I K ",
"K H K Y I k H I K Y J x I I Y A A A S K J P S P K v b b D             >.I k H I K Y J x I I Y A A A S K J P S P K v b b S v P K ",
"S I Y Y /.A H P H J *.v T K J H Y K P Y #.P P S I P [.w 9 8.$X-X-X$X9.r w 3.H P H J *.v T K J H Y K P Y #.P P S I P Y Y P I D P ",
"S K H P b k A H H S Z A S S S Y Y Y P J J b L H P 5.t E o.9XgXgXgXgXtX9.E 9 <.H H S Z A S S S Y Y T P J J b L H P P Y K H H v c ",
"S H b S J A S v H A J J P Y S H J K b $.Y H S Z J   < sXgXaXeXwXwXwXuXgXsXe   v H A J J P Y S H J K b $.Y H S Z J I J J L J S H ",
"I A S #.P I I J l H P P K I J I I H J L T H H S P , e 5XuXwXwXwXwXwXwXuX5XQ $ P l H P P K I J I I H J L T H H S J I K *.P S P %.",
"J S Y K P I I Y b Y Y %.%.Y P /.c $.T S b H H Y > 9.=X,XuXwXwXwXwXwXwXuX2X+X0., L Y Y %.%.Y P /.c $.T S b H H I I ~.#.J P L +.P ",
"H D '.!.H H S J S I L *.I T #.T A I %.$.K v _.M   OX2X;XuXaXeXwXwXeXaXaX,X;X+X  r _.L *.I T #.T A I %.$.K v I I /.J J H S S H I ",
"H Z *.#.A S S S H I P Y $.T K Y S #.#.L >.S 5.  #Xi.XX3XwX,XwXuXuXeX,XwX4XXXi.#X  3.P Y $.T K Y S #.Y J >.S K $.'.H H S S S #.H ",
"J v I H P A J K S J P Y Y Y Y Y S P %.H S v 5.  eX#X0.5XaX=X3XeXeX4X=XuX9XXXp.wX  3.P Y Y Y Y Y S P %.H S v I P I H S H c q K ,.",
"D H P ).#.P Y H A P S P P J &.>.c S H P D S 5.  | yX3X=XeXuX=X4X4X$XuXyX=X2XuXQ   5.S P P J &.>.c S H P D S P $.H H A S _.Z #._.",
"D I Y P A H H S %.P v S J S &.H S S v /.J P <.  uXgXa.o 8 eX=X4X4X=XgX5   o.gXpX  1.v S J S &.H S S v /.J P Z S c %.I #.Y H S D ",
"#.P S A H b c I K I *.S S S H J P J P H S D 6.[.* ( X   & gXfX0XpX3XE 0X:.  ( 5 5.6.*.S S S H J P J P H S D Y %.H &.#.D D H c S ",
"Y L S A J #.S J #.I #.#.S c Y #.#.Y #.J c #.I L <.  . 5   i.,XrXpX$X  |.|.&   <.#.I #.#.S c Y #.#.Y #.J c #.I L J I J S H v k I ",
"H b v A P Y H J I P H J S K ).'.(.(.Y I b Y %.D #.* * | t & XXrXrXOX~ * t 8 X &.I P H J S K ).'.(.(.Y I b Y %.D H H H H P J S H ",
"H b T v P H P L I K K b v K $.#.J L L P S #.&.&.      6 6XfXpXeXeXaXfX5X9       _.#.Y D v K #.Y J L L P b P P S S S I P H S Y S ",
"A S H A K H *.S P I H S S I #.S b S P S G     . 1 8 0 . & ;XfXgXgXfX6X<   0 8 1 X     t A I #.S b S P S c Z S A A P P H S S J k ",
"$.K H v %.J A l H I S S A I Y P S S K ^ o 4 3 7 { { ..w . < t ~ ~ t 1 . 9 ..{ { 7 3 4 o ^ #.Y P S S K v b P I J J P S b v H A S ",
"Y I H S z H v b v J S Z J S Y H 5.:.[ u g N.^.;.! C ..7.m $ .     . $ M 7...C ! O.^.W.f u =.e.t.S v v A P I I I J `.H I P I S H ",
"A +.I S q A T I Y S c J Y Y c @.C . O U.U.Z.l.f f.h.n.=.o.-.r.m m r.-.o.=.n.h.h.f h.Z.I.U.-   n 2.H I Y Y I J !.P S Y J K J %.P ",
"S &.J Z z J I T J P b I J $.H   s.E.c.F.Y.m.B b.J.H.Z.M. .X.X.r r X... .M.Z.H.K.b.B v.H.J.c.E.g.  I I J Y *.P P v I P S A b v A ",
"S A S P $.A H H J J H J H K J   d.F.x.K.I.v.b.P.F.H.I.I.T.X...` ` ..o.T.I.I.P.P.J.b.v.Y.P.c.T.g.  P P H H P b b I L H A v b c Z ",
"P D I P P K J H A S v P A J S   d.E.B g i j p i U.u . + + m -.r.y.`   O - + + : U.d o v.d a S.f.  P P S L L b S I S Z b b P A Z ",
"H S $.P I S I H H b S H b J S   s.R.h.; i M.p   g #Xq.^ .X. > & X & a.@X/ / ^   d d g v.p O G.j.  H J S S S S Z H S v ).%.#.H J ",
"A S H I A I J T H H I T Y l H M V S.S.a G.U.h.O   7XhXgXgX.   = 5 ( gXgXqX1X%X@   d.U.F.c.g h.c.m %.I Z H I T I I I P %.P b P *.",
"Z S S S S S A A +.T P &.H Y K J :.  c.x.D.H.D.B     &XdX#X-.( 8XgXgXhX<XT.C.f c.. d P.D.V R.: ^ I *.%.S I Y S S S &.I K b b P P ",
"Z S c I H S S l %.J S H T I A A ..  m.x.x.x.V V j _  ._ { %XuXgXgXhX:XT.A.V.F.F.V B x.x.V R.: ^ H H S L Y S H S S S S #.L b J P ",
"S Z k S P A I Y J S H S P H S H &.-.  b.V b.S.D.S.l.>X0X3X-XpXgXgX1XQ.Z.Z.J.J.J.G.S.v.B b.+ [ 6.A H K Z $.S L H S J L &.L S v P ",
"b c v H A S A K P H A v J v S S c @...a d.F.Y.L.H.A.}.qXgX<XgX7Xq.y s s k.E.U.U.H.Y.F.f.a ^ 3.S c b L L L L S S P z K H S l b A ",
"J S S J H S S I H S S P I J %.P A P '.  j.U.K.H.H.T.j.}.hXa.<X] - - O o & j g.h.J.P.U.C.  &.%.P A P '.I v c v b S A A c H v H H ",
"#.P b P I J P H Z v #.I J *.I b H $.].X g.H.B.V.V.x.u *XyX    s.U.P.P.M.;       h.J.L.j.X [.I b H $.*.Y D S L I J J H S J J H P ",
"*.*.z P I S H S Z J P H A A A v I I P P >               # B.V.G.J.J.J.c.z.U.B.        # L A A v I I K S J S P J H A S A H A J K ",
"I I P J H S H b Z A A H H A v H I P P H -.u. Xu.{.% i g.i K.P.J.G.F.F.c.P.C.h 3.4.4.4.5.H A v H I P P H k K ).P /.J H A J b I K ",
"K H K Y I k H I K Y J x I I Y A A A S K J P S P K y u b.V Y.L.G.G.J.Y.B V : % I K Y J x I I Y A A A S K J P S P K v b b S v P K ",
"S I Y Y /.A H P H J *.v T K J H Y K P Y #.P P S I w   R r l.L.J.J.L.l.x R o > P H J *.v T K J H Y K P Y #.P P S I P Y I P I D P ",
"S K H P b k A H H S Z A S S S Y Y Y P J J b L H P 7 @ r.{ 3 l.Y.H.D.8 _ r.> & H H S Z A S S S Y Y Y P J J b L H P P Y K H H v c ",
"S H b S J A S v H A J J P Y S H J K b $.Y H S Z J 7 . w.' _ { S.G.| _ ` -.& & v H A J J P Y S H J K b $.Y H S Z J I J J K J S H ",
"I A S #.P I I J l H P P K I J I I H J L T H H +.) w ) X.' X. .O.O. .X.} X.] r ) F H P P K I J I I H J L T H H S J I K *.P S P %.",
"J S Y K P I I Y b Y Y %.%.Y P /.c $.T S b H H Y   9 r.` } X.X.o.o.=.X.} ` w.m   P Y Y %.%.Y P /.c $.T S b H H I I ~.#.J P L #.P ",
"H D '.!.H H S J S I L *.I T #.T A I %.$.K v $._.@ t =.} ` ) ` ) ) ` ) ` } X.m @ 5.*.L *.I T #.T A I %.$.K v I I /.J J H S S H I ",
"H Z *.#.A S S S H I P Y $.T K Y S #.#.L >.S 5.  ' =.' X.` 0 9 .   9 0 ] X.' X.X.  5.P Y $.T K Y S #.#.L >.S K $.'.H H S S S #.H ",
"J v I H P A J K S J P Y Y Y Y Y S P %.H S v t.  ` -.X.` X.} &     X ` X.' X.=.X.  4.P Y Y Y Y Y S P %.H S v I P I H S H c q K ,.",
"D H P ).#.P Y H A P S P P J &.>.c S H P D S t.  X.m ) X.=.w.  e.p.  -.-.X.) m =.  5.S P P J &.>.c S H P D S P $.H H A S _.Z #._.",
"D I Y P A H H S %.P v S J S &.H S S v /.J P 3.  m 2 M w.` 9 ` U D =.9 ` w.W 1 W   5.v S J S &.H S S v /.J P Z S c %.I #.Y H S D ",
"#.P S A H b c I K I *.S S S H J P J P H S D [.  1 e W X.e   F S #.P   6 =.W r 6   5.*.S S S H J P J P H S D Y %.L %.#.D D H c S ",
"Y L S A J #.S J #.I #.#.S c Y #.#.Y #.J c #.[.  8 =.W 6 *   @.I Y &.  @ 6 m =.0   t.#.#.S c Y #.#.Y #.J c #.I L J I J S H v k I ",
"H b v A P Y H J I P H J S K ).'.(.(.Y I b Y [.  ' w.`     &.H H H A P X   ] w.X.  t.H J S K ).'.(.(.Y I b Y %.D H H H H P J S H ",
"H b T v P H P L I K K b v K $.#.J L L P b t.M 1 8 7 * t 5.S Y S H b T 2.m * 7 7 > r 5.b v K $.#.J L L P b P P S S S I P H S Y S ",
"A S H A K H *.S P I H S S I #.S b S P S c )   M * 1   ) S S J k A S H A [   1 * M   r S A I #.S b S P S c Z S A A P P H S S J k ",
"$.K H v %.J A l H I S S A I Y P S S K v b -.  r e 9 5 -.v H A S $.K H v 5.8 0 e t   ) S A I Y P S S K v b P I J J P S b v H A S ",
"Y I H S c H v b v J S Z J S Y S S v v A P -.  e 0   5.I P I S H Y I H S z 5.  6 e   ` Z J S Y S S v v A P I I I J `.H I P I S H ",
"A +.I S q A T I Y S c J Y Y c c S H I Y w t.3X  &   t.J K J %.P A +.I S q 3.  =   >X<.7 Y Y c c S H I Y Y I J !.P S Y J K J %.P ",
"S &.J Z z J I T J P b I J $.H J I I I J   @XgX8X8X. 3.S A b v A S &.J Z z 5.  3X8XgX-X  J $.H J I I I J Y *.P P v I L S A b v A ",
"S A S P T A H H J J H J H K J S H P P H * ..iXgXgX  [ A v b c Z S A S P $.1.  gXgXiXe.@ H K J S H P P H H P b b I L S A v b c Z ",
"P D I P P K J H A S v P A J S %.v P P S 5 w <X>X<X9 <.b b P A Z P D I P P 5.0 <X<X<X( * A J S %.v P P S L L b S I S Z b b P A Z ",
"H S $.P I S I H H b S H b J S H H H J S * t 8Xp.  &.v ).%.#.H J H S $.P I S ,.  a.8X{ & b J S H H H J S S S S Z H S v ).%.#.H J ",
"A S J I A I J T H H I T Y l H P #.%.I Z . ( p.X ,.I I %.P b P *.A S J I A I J >.& e...  Y l H P #.%.I Z H I T I I I P %.P b P *.",
"Z S S S S S A A +.T P &.H Y K J I *.%.0 y.8Xt   S $.I I b b P P Z S S S S S A A X 7 8Xu.7 &.K J I *.%.S I Y S S S &.I K b b P P ",
"Z S c I H S S l %.J S H T I A A S 2.-.G hXgXo.  H S S #.L b J P Z S c I H S S l X ( gXgX( 1.2.A S H S L Y S H S S S S #.L b J P ",
"S Z k S P A I Y J S H S P H H H A <.  gXgXgX&X  H J L &.L S v P S Z k S P A I Y   oXgXgXgX  [ H A H K Z $.S L H S J L &.L S v P ",
"b c v H A S A K P H A v J v S S c 1.  pXdXdX#X  I z L H S l b A b c v H A S A K   a.dXdXdXX -.S c b L L L L S S P z K H S l b A ",
"J S S J H S S I H S S P I J %.P A P '.I v c v b S A A c H v H H J S S J H S S I H S S P I J %.P A P '.I v c v b S A A c H v H H ",
"#.P b P I J P H Z v #.I J *.I b H $.*.Y D S L I J J H S J J H P #.P b P I J P H Z v #.I J *.I b H $.*.Y D S L I J J H S J J H P "
};
