/* XPM */
static char *xpm_[] = {
/* columns rows colors chars-per-pixel */
"64 64 225 2 ",
"   c #3E3020",
".  c #463424",
"X  c #493726",
"o  c #4D3A26",
"O  c #4D3A2A",
"+  c #4B3728",
"@  c #543E2C",
"#  c #583F2C",
"$  c #503D24",
"%  c #593A3F",
"&  c #56402E",
"*  c #5A422E",
"=  c #574226",
"-  c #5D4431",
";  c #5E4834",
":  c #554232",
">  c #644B2C",
",  c #644B2B",
"<  c #6B522C",
"1  c #6A5225",
"2  c #745A24",
"3  c #71552B",
"4  c #765A2A",
"5  c #614633",
"6  c #644935",
"7  c #694D36",
"8  c #654C39",
"9  c #6A4E39",
"0  c #62463A",
"q  c #6D5133",
"w  c #6D513B",
"e  c #66503C",
"r  c #735636",
"t  c #7B5D33",
"y  c #72543D",
"u  c #75583C",
"i  c #7B5C3B",
"p  c #755932",
"a  c #7D6123",
"s  c #7C602B",
"d  c #7D6134",
"f  c #735C1E",
"g  c #5E3E41",
"h  c #684A45",
"j  c #6C5542",
"k  c #6C5847",
"l  c #745641",
"z  c #765943",
"x  c #7A5B44",
"c  c #745C4B",
"v  c #7C5D49",
"b  c #71564A",
"n  c #735852",
"m  c #7C614C",
"M  c #79634B",
"N  c #7B6454",
"B  c #7C6654",
"V  c #95771B",
"C  c #89711B",
"Z  c #8C6D25",
"A  c #82642C",
"S  c #876929",
"D  c #8E7124",
"F  c #927324",
"G  c #9C7C23",
"H  c #93722B",
"J  c #99782A",
"K  c #826433",
"L  c #8B6B33",
"P  c #83633B",
"I  c #8A6A3A",
"U  c #987837",
"Y  c #8F702C",
"T  c #805F4A",
"R  c #815F47",
"E  c #82634C",
"W  c #866844",
"Q  c #876750",
"!  c #866B55",
"~  c #8C6C53",
"^  c #836B5A",
"/  c #84675B",
"(  c #916E51",
")  c #8B725D",
"_  c #85715D",
"`  c #94745C",
"'  c #815A66",
"]  c #896E66",
"[  c #8B7765",
"{  c #927F6A",
"}  c #916E77",
"|  c #977E79",
" . c #9C801E",
".. c #AD8C1C",
"X. c #A6861A",
"o. c #B18E1B",
"O. c #BC9A13",
"+. c #BC9A1B",
"@. c #B59417",
"#. c #9E8039",
"$. c #AB8923",
"%. c #A68426",
"&. c #B28D24",
"*. c #B79524",
"=. c #B19233",
"-. c #C09E11",
";. c #C19D0F",
":. c #CCAC0F",
">. c #D4B20D",
",. c #D9B50D",
"<. c #DCBA0B",
"1. c #C5A213",
"2. c #CCAA12",
"3. c #C8A519",
"4. c #D2AC16",
"5. c #DAB519",
"6. c #DBB814",
"7. c #D1AF0B",
"8. c #E5BD14",
"9. c #E2BE0E",
"0. c #C6A423",
"q. c #D0B130",
"w. c #E5C20B",
"e. c #EAC50A",
"r. c #EDCB0D",
"t. c #ECC807",
"y. c #F5CB07",
"u. c #F9D205",
"i. c #F4D20C",
"p. c #F9D409",
"a. c #ECCB13",
"s. c #E8C518",
"d. c #F2CC15",
"f. c #F5D313",
"g. c #F9D818",
"h. c #FBE118",
"j. c #E9C622",
"k. c #F4D323",
"l. c #F8DA28",
"z. c #F8D935",
"x. c #FBE334",
"c. c #FAE33A",
"v. c #DBC039",
"b. c #AD8E4C",
"n. c #8E806D",
"m. c #95826E",
"M. c #9A826C",
"N. c #9B8374",
"B. c #9C837A",
"V. c #9E8C7A",
"C. c #978774",
"Z. c #9D937E",
"A. c #A28A77",
"S. c #AF976F",
"D. c #C8B468",
"F. c #CEB85A",
"G. c #F6DD45",
"H. c #E7CB4D",
"J. c #FAE441",
"K. c #FCEA49",
"L. c #FAE957",
"P. c #FBF359",
"I. c #D9C46C",
"U. c #E6D169",
"Y. c #FBEB62",
"T. c #FEEE6F",
"R. c #FEED73",
"E. c #FCF67A",
"W. c #FFF06E",
"Q. c #9A7C81",
"!. c #9F8684",
"~. c #A38B87",
"^. c #A59481",
"/. c #AB9B88",
"(. c #ACA28E",
"). c #B0A08C",
"_. c #B9A989",
"`. c #B4A593",
"'. c #B9AB95",
"]. c #BBAC9B",
"[. c #B7A79A",
"{. c #BEB29C",
"}. c #BDB4A3",
"|. c #C1B49D",
" X c #C9B78B",
".X c #C2B4A3",
"XX c #C4BAA5",
"oX c #C6BDAA",
"OX c #CABEAB",
"+X c #D6CB97",
"@X c #FDF787",
"#X c #FDF899",
"$X c #CCC2AD",
"%X c #C8C0A5",
"&X c #CDC3B4",
"*X c #CFCCB5",
"=X c #D3CBB6",
"-X c #D3CCB9",
";X c #D7D4BD",
":X c #D9D6BE",
">X c #DAD9BE",
",X c #D8D2B6",
"<X c #E2DBB8",
"1X c #FEFAA8",
"2X c #FEF8B5",
"3X c #E7E3BA",
"4X c #E6DC93",
"5X c #D7D7C1",
"6X c #D9D6C2",
"7X c #DADAC2",
"8X c #D7D8C2",
"9X c #E0DDC7",
"0X c #E3E5CD",
"qX c #E3E2C3",
"wX c #FEFAC6",
"eX c #E7E7D1",
"rX c #EBEDD5",
"tX c #E7E9D1",
"yX c #F0F2DA",
"uX c #FEFBDB",
"iX c #FEFAD4",
"pX c #FEFCE3",
"aX c #FEFDEC",
"sX c #FFFFFE",
"dX c #FEFDF2",
/* pixels */
"v v X 9 w - 5 * & 6 9 5 * * * @ w w 7 - 6 - 9 6 5 * - * 5 * 6 7 v v X 9 w - 5 - & 6 9 5 * * * @ y w 7 - 6 - 9 6 5 * - * 5 * 6 7 ",
"w w 9 6 5 - 5 @ & * * 5 5 * @ 5 w 9 9 5 . 7 ~ 9 E 6 5 * 6 # w 7 w w 9 9 5 - 5 # & * * 5 5 * @ 5 w 9 9 5 . 7 ~ 9 E 6 5 * 6 # w 7 ",
"7 5 7 y w . 5 w 7 y 6 + w w y * * * - 7 6 9 - 9 7 @ # # - @ 9 7 7 5 7 ) /.k 5 w 7 y 6 + w w y * * * - 7 6 9 - 9 7 @ # # - @ 9 7 ",
"- w y y E * 5 9 5 6 v @ u 7 6 5 y 7 9 y l 9 9 - w 9 y w 9 w ; 9 - w y m { j 5 7 5 6 v @ u 7 6 5 y 7 9 y l 9 9 - w 9 y y 9 w ; 9 ",
"- 7 5 9 # . * 5 5 - & * - - - y y y 9 6 6 # 8 5 9 9 y 7 5 5 @ O - 7 5 9 # . * 5 5 - & * - - - y y y 9 6 6 # 8 5 9 9 y 7 5 5 @ O ",
"- 5 # - 6 * - @ 5 * 6 6 9 y - 5 6 7 # z y 5 - & 6 w 6 6 8 6 - 5 - 5 # - 6 * - @ 5 * 6 6 9 y - 5 6 7 # z y 5 - & 6 w 6 6 8 6 - 5 ",
"w * - l 9 w w 6 X 5 9 9 7 w 6 w w 5 6 6 u 5 5 - 6 w 7 v 9 - 9 x w * - l w y w C.}.b 9 9 7 w 6 w w 5 6 6 u 5 5 - 6 w 7 v 9 - 9 x ",
"6 - y 7 9 w w y # y y x x y 9 E o z u - # 5 5 w y R l 6 9 8 j 9 6 - y 7 9 l ^.-X:X&XB x x y 9 E o z u - # 5 5 w w R l 6 9 8 j 9 ",
"5 ; ` T 5 5 - 6 - w 8 v y u l u * w x z 7 @ w w E 7 6 5 - - 5 w 5 ; ` T 5 8 &X0X5X$XB v w u l u * w x `.tX] w w E 6 6 5 - - 5 w ",
"5 & v l * - - - 5 w 9 y z u 7 y - l l 8 m - 7 v ] b b h 0 - l 5 5 & v x b 0 ' ].`.).m.z z l 7 y - x V.| &X=Xm.{ ` 5 5 - - - l 5 ",
"6 @ w 5 9 * 6 7 - 6 9 y y y w y - 9 x w N n N.`.{.XX].`.| % 7 m 6 @ w 9 *X}.~.~.{.]..X.Xm.y y y - b -XyXoX;XrX0X^ 5 - 5 o   7 m ",
"; 5 9 ~ z 9 y C.}.M - 9 9 6 z m o - 9 ^.XX|.{.{.{.].{.XX{.| h ! ; 5 9 ) 0X0XqX.X`.$X8X7XrX(.v m o - c C.k B $XN.8 5 * - ! & l ! ",
"; w y 9 * 8 Z.*X:X&Xj - 6 - z 5 - - { {.`.^.A.N.N.N.B./.'./.n ; ; w y w XX&X~.&XoX.X[.-X:X`.m 5 - - @ E 6 9 & - o x w l y 5 - ; ",
"l 9 - * 5 ; &X0X5X$X[ - - - 5 6 9 M ).`.oX=X=X=X=X=X=X=X|.| g - l 9 - - ^ } Q.-XeXV.v ; c 6 5 6 9 6 9 5 - ; y x 5 z l 5 ; 5 O - ",
"y 8 - - c z ' ].`.).N.z - o y l l [ =XrXrX0X0X0X0X0XeX0XrX7Xn w l 8 - - 9 ) 5X] ) w z l - o y l l y y 6 o l w 8 6 w 6 - 5 @ . w ",
"5 # @ 6 -X}.~.~.{.]..X.X{ 9 ~ ` Q /.0X7X8X5X5X5X5X5X5X5X8X0X9Xw 6 # # - 9 y B w w 9 5 6 - 7 ~ ` Q Q y w # y x ; 5 5 5 5 9 6 - 5 ",
"5 # u 8 0X0XqX.X`.$X8X7XrX(.x l 6 { 9X8X5X8X8X8X8X8X8X>X5X;XyXj 5 # u # 9 5 9 8 w 7 7 # @ 7 z l 6 8 8 w - 9 V.}.k - w 9 5 - y - ",
"* - 5 5 oX&X~.&XoX.X[.-X:X'.x - # - [ qX7X5X8X8X8X8X8X:X>X7XZ.$ , , 5 * q 5 v - 9 w 5 - - w l - # - 9 - & Z.*X5X$XB 9 5 - - 6 . ",
"z 7 5 & [ } Q.-XeXV.0 5 b z y 9 - - 7 M XXqX8X8X>X:XqX<X_.E , < L p > 1 L q * o 7 w - - * y y 9 - - 7 @ ; &X0X5X$X^ - # @ 5 * - ",
"w w 5 - & B 5X] n 6 5 & 6 - y - - @ @ * w /.,X,X,X<X_.P S K 3 Z #.I s D a 3 , 1 = 7 5 * 7 - y - - @ @ b 9 ' ].`.).A.9 w 9 w - 5 ",
"* j w -   * ) l y - o 6 y y o o - 5 y u u r q W t 3 L A G F U =.U.D.D.q.C 2 J Y t 7 = 7 y u o o - 5 l -X}.~.~.{.]..X.X{ w 6 x 9 ",
"- z 6 - o 6 w u 6 9 # w 6 z 5 6 w y y 7 u W t t 2 H G F X...V 1.q.I.H.5.V G o.J A A 2 t 7 x 5 6 w w c 0X0XqX.X`.$X8X7XrX(.- @ * ",
"- * - 9 z * 5 5 6 6 5 6 5 7 6 - 6 w q < < r 2 a Y G ..@.O.>.O.,.,.3.8.,.*.;.O.G G X.F q 5 q 7 - 5 9 w oX&X~.&XoX.X[.-X:X`.; o & ",
"9 ; w 9 9 7 6 5 * - @ 9 * 6 - x @ q y 7 p t a  ...X.O.>.>.e.w.e.e.<.t.6.:.<.1.@.@.@.2 r < 4 , x @ 9 w ^ } Q.-XeXV.8 - k ; 9 * & ",
"5 - z 9 w - w 5 5 # - 5 # 6 - 5 5 5 q < 4 A F X.2.1.O.s.r.r.f.r.i.i.i.8.e.w.4.:.7.V 3 S a s > 5 5 5 6 6 N 5X] N 8 - @ ~ x l 5 6 ",
"* - 5 w * w 6 u /.tX[ u y o 5 9 u x u , A J $.+.2.r.6.s.l.d.J.l.l.l.d.a.i.w.<.e.@.S G o.$.1 5 9 l x w & 5 _ z w w w 9 x 9 # 9 v ",
"& - - - - - 5 { B.&X=XC.] z 7 6 u W I < K %.O.2.2.s.c.s.G.x.Y.L.Y.J.k.g.f.a.i.2.%.+.2.3.Z i r 6 w v x - w y - - - z w 7 # # 9 9 ",
"& - O w 5 - w *XyXoX;XrX0X^ * * 5 3 A F J F +.9.e.8.G.Y.L.E.E.#X#XP.K.J.k.g.s.+.8.w.-.Z P K 2 , 5 5 - 8 y - 5 - - - - l 8 # 6 9 ",
"- & . - 9 * w N m.k ^ OXm.8 5 5 * 5 d V 3.1.0.s.f.g.l.@X#X1X1XuXwX#X@XP.J.l.g.f.i.0.J Z G F S 4 * 5 7 & z - 8 5 - 6 8 c 6 - @ 9 ",
"# o @ 5 * - * 7 9 5 * @ 6 # - - = , K H &.s.i.p.g.l.J.R.wXiXuXdXaXpX2X#XE.c.l.g.y.d.5.-.+.V a < o # 8 m.$X_ k n.M + 7 5 - X # * ",
"6 - - 6 5 - - w 5 - - 9 w 6 x w , A =.$.0.y.p.p.g.c.R.#XwXaXsXsXsXsXaXwX#XP.z.k.f.u.u.5.&.F P r * 9 M.0XrX;XoXyX*Xe * o 5 @ 5 5 ",
"l 9 # 9 w 6 9 - & @ l w 6 v w # 5 P U $.j.u.f.f.k.z.W.1XuXsXsXsXsXsXsXiX#XY.x.g.f.i.u.a.+.&.H 2 3 x E [ n.=X&XB.C.w 5 - 6 6 5 9 ",
"v v X 9 w - 5 - & 9 ^ 5 - * * @ y i Y ..j.u.p.g.g.G.R.1XpXsXsXsXsXsXsXpXwX1XE.K.h.p.u.r.1.o.V a K u 9 - 6 [ tX/.5 * - * 5 * 6 7 ",
"w w 9 6 5 - 5 & M ] 5XB 8 * & < t Y $.O.s.y.u.g.K.T.@X2XuXsXsXsXsXsXsXaX2X@XY.x.g.p.y.8.o.Z , 6 w 9 9 5 . 7 ~ 9 E 6 5 * 6 # w 7 ",
"7 5 7 z N O 9 V.eX-XQ.} ] w u 4 Z V ..1.s.y.u.g.z.L.R.1XiXdXsXsXsXsXsXdX1XP.z.k.f.y.y.5.*.H i * * * - 7 6 9 - 9 7 @ # # - @ 9 7 ",
"- w y '.:X-X[..XoX&X~.&XoXw 6 7 t t H &.4.e.u.p.g.z.Y.#X2XpXsXsXsXsXsXiX1X@Xc.g.f.y.8.*.&.J t q y 7 9 y l 9 9 - w 9 y w 9 w ; 9 ",
"- 7 5 (.rX7X8X$X`..XqX0X0Xj - y u K J @.2.,.s.d.d.l.K.R.#XwXaXaXsXpXpXpXE.P.x.g.p.i.3.X.D a 3 i u y 9 6 6 # 8 5 9 9 y 9 6 6 @ O ",
"- 5 # ; { }..X].{.~.~.}.-Xz * 6 4 Z V &.&.%...4.f.k.z.L.E.#X1XwXuXwX@XwX@Xh.g.f.5.>.,.+.H t , 6 6 7 # z y 5 - & 9 ^ 6 6 8 6 - 5 ",
"w * - l 9 l m.).`.].' j M w 6 w t 4 A d L G >.e.5.5.k.l.L.P.P.@X2X1XP.L.@Xz.a.i.,...%...G S q w w 5 6 6 u 5 5 B ] 5X^ E 9 - 9 x ",
"6 - y 7 9 w ^ $X5X0X&Xv x y 9 E @ P P 4 X.7.>.*.*.a.d.s.l.l.c.K.@XE.x.z.z.K.<.6.>.3.J I U L t W o z x c - 9 V.eX-XQ.} / w 8 j 9 ",
"5 ; ` T 5 5 b $X:X*XZ.m w u l u * y I $.O.X.H %.9.e.6.a.d.d.k.z.J.L.i.l.8.a.a.3.@.o.G U i i i i * l '.:X-X[..XoX&X~.&XoX5 6 5 w ",
"5 & v l * - - k }.V.9 l x u 7 y - u L F U < S 2.w.1.>.e.<.i.a.a.f.h.r.a.6.-.,.7...G H L P i 7 y - x `.rX7X8X$X`..X0X0X0Xj j l 5 ",
"6 @ w 5 9 * 6 7 - 6 9 y y y y y ; r I p 5 , ..2.@.=.<.2.:.y.6.w.w.r.r.,.,.@...@.X.F A K i u y y - 9 x { }..X].{.~.!.}.-X& + 7 m ",
"; 5 9 ~ l 9 y 5 * 9 - 9 9 6 z m o 5 7 9 5 S ..=.b.U.3.%.5.,.+.5.6.H.j.q.0.@.%.D Z S < r r 7 x E o - 5 9 8 { ).`.].' ; c ! - l ! ",
"; w y 9 * 5 5 - x 9 @ - 6 - z 5 5 - ; ) r L b.3X+Xq.b.b.2.@.D o.q.F.v.U.%.F D s I t = , 7 5 x 5 - - @ E 6 ^ $X5X0X&Xb l y 5 - ; ",
"l 9 - * 5 # O w 7 w v - - - 5 6 9 w '.,X=X'.|.%X+XS.$XI.X.Z 1 D $.L G J A 2 1 d d _.<X,X,X=X^.7 9 6 9 5 - c &X:X*X^.z ; ; 5 O - ",
"y 8 - * 6 l - 9 N.$X[ B n.j y l l z `.rX7X>X$X`. X3XqX4XL 1 = L H p s a p P W |.qXqX>X>X8X8XqX$X[ y l 6 o l M }.C.w 7 5 5 @ . w ",
"5 # @ * 9 y 5 B 0XrX;XoXyX*X) ` Q Q y m.}..X].{.^.!.{.+Xu 7 - < 3 * , 3 u /.<X7X>X>X8X8X8X8X5X7X0XA.y w # y x ; 5 5 5 5 9 6 - 5 ",
"5 # u @ 9 5 9 w [ m.=X&X| C.x l 6 8 8 9 ; m.).`.].' l M 8 - y * > * u = m yX;X;X8X8X8X8X8X8X8X5X8X9X{ 9 # 9 9 - - - w 9 5 - y - ",
"* - 5 * 7 5 v - 9 w [ tX/.w l - # - 9 - o M $X5X0X&Xl 5 - - 6 X * - 5 5 z 9X0X8X5X5X5X5X5X5X5X8X7X0XV.- o & - * * 9 9 5 - - 6 . ",
"z 7 5 @ x 6 * X 5 w - - * w y 9 - - 7 @ # M &X:X*X^.5 # @ 5 * - z 7 5 @ x / 7XrX0X0X0X0X0X0X0XrXrX=X) @ # 9 w 6 6 9 - # @ 5 * - ",
"y w 5 - o 5 @ # @ 6 - & 6 - y - - @ @ * 9 w m XXC.( 7 y 9 w - 5 y w 5 - o h | |.=X=X=X=X=X=X=XoX`./.j * 9 w w w 6 ( 5 w 9 w - 5 ",
"* j w -   * u w y - o 6 y y o o - 5 w y y w 6 T 9 - w 6 7 6 x 9 * l w -   n /.'./.B.N.N.N.A.^.`.{.m.w y y w 6 T 9 - y 6 7 6 x 9 ",
"- z 6 & o 6 w u 6 9 # w 6 z 5 6 w w w 6 y v 9 w # w 8 - * # @ * - z 6 & o 0 | {.XX{.].{.{.{.|.XX^.l w 6 y v 9 9 @ w 8 - * # @ * ",
"- * - 9 z * ; 5 6 6 6 6 5 7 6 - 5 9 w 6 5 9 # # w 8 j N 8 # o & - * - 9 z * h | `.].XX{.`.| / N w 9 9 5 5 9 # # w 8 - * @ # o & ",
"9 ; w 9 9 7 6 ; - - @ 9 * 6 - x @ 9 9 - 8 8 # - w - M /.N 9 * & 9 ; w 9 9 7 6 0 h h h c h 6 - x @ 9 9 - 8 8 # - w - & # # 9 * & ",
"5 - z 9 w - w 5 5 # - 5 # 6 - 5 5 5 6 - - - - & 5 - @ ~ x l 5 6 5 - z 9 w - w 5 5 # - 5 # 6 - 5 5 5 6 - - - - & 5 - @ ~ x l 5 6 ",
"* - 6 w * w 6 u 5 5 w u y X 5 9 l x w & 5 w u w w w 9 x 9 # 9 v * - 6 w * w 6 u 5 5 w u y X 5 9 l x w & 5 w u w w w 9 x 9 # 9 v ",
"& - - - - - * * j u 9 z 5 y 7 6 w v x - w y - - - z w 7 # # 9 9 & - - - - - * * j u 9 z 5 y 7 6 w v x - w y - - - z w 7 # # 9 9 ",
"& - O w 5 - - X x 6 - 5 u w * * - 5 - 8 y - 5 - - - - l 8 # 6 9 & - O w 5 - - X x 6 - 5 u w * * - 5 - 8 y - 5 - - - - l 8 # 6 9 ",
"- & . - 9 * w y 6 - 5 - 9 5 5 5 * 5 7 & z - 8 5 - 6 8 c 6 - @ 9 - & . - 9 * w y 6 - 5 - 9 5 5 5 * 5 7 & z - 8 5 - 6 8 c 6 - @ 9 ",
"# o @ 5 * - * 7 9 5 * @ 6 # - - o # 8 8 8 8 - - 9 + 7 5 - X # * # o @ 5 * - * 7 9 5 * @ 6 # - - o # 8 8 8 8 - - 9 + 7 5 - X # * ",
"6 - - 6 5 - - w 5 - - 9 w 6 x 9 * 9 ` w @ O @ # - * * o 5 @ 5 5 6 - - 6 5 - - w 5 - - 9 w 6 x 9 * 9 ` w @ O @ # - * * o 5 @ 5 5 ",
"l 9 # 9 w 6 9 5 & @ l w 6 v w # 5 z v y ; - 8 w 6 6 5 - 6 6 5 9 l 9 # 9 w 6 9 5 & @ l w 6 v w # 5 z v y ; - 8 w 6 6 5 - 6 6 5 9 "
};
