/* XPM */
static char *xpm_[] = {
/* columns rows colors chars-per-pixel */
"64 64 241 2 ",
"   c #3F3021",
".  c #5B3915",
"X  c #5C3C1C",
"o  c #583A1E",
"O  c #4E321B",
"+  c #653D13",
"@  c #663E17",
"#  c #693F0F",
"$  c #453424",
"%  c #4A3726",
"&  c #4C3926",
"*  c #4D3A2A",
"=  c #4B3728",
"-  c #543E2C",
";  c #593E2C",
":  c #533726",
">  c #633F21",
",  c #6D4315",
"<  c #6D451B",
"1  c #6A451D",
"2  c #724616",
"3  c #744916",
"4  c #724619",
"5  c #744A1B",
"6  c #7A4E1C",
"7  c #7B4C14",
"8  c #7D5215",
"9  c #7C511D",
"0  c #76511D",
"q  c #56402E",
"w  c #5B422E",
"e  c #5D4123",
"r  c #5D4431",
"t  c #5F4834",
"y  c #634424",
"u  c #6A4622",
"i  c #6C4A24",
"p  c #62462C",
"a  c #65492D",
"s  c #6C4C2C",
"d  c #6C442C",
"f  c #744D23",
"g  c #794F21",
"h  c #714E2C",
"j  c #7C5223",
"k  c #75512C",
"l  c #7B542B",
"z  c #7C562B",
"x  c #614633",
"c  c #644A35",
"v  c #6A4D35",
"b  c #664C38",
"n  c #6A4E39",
"m  c #6C4F3A",
"M  c #6A4E39",
"N  c #714F32",
"B  c #6E5034",
"V  c #6D513A",
"C  c #6E513B",
"Z  c #745334",
"A  c #7A5633",
"S  c #7D5934",
"D  c #71533A",
"F  c #73543C",
"G  c #79573B",
"H  c #76583E",
"J  c #7C5B3C",
"K  c #6F5440",
"L  c #745641",
"P  c #765942",
"I  c #7B5C43",
"U  c #7E5E48",
"Y  c #775A46",
"T  c #7D614A",
"R  c #7F6047",
"E  c #814D19",
"W  c #855415",
"Q  c #82541B",
"!  c #85591C",
"~  c #8A5B1C",
"^  c #885716",
"/  c #955A18",
"(  c #84580C",
")  c #A65C15",
"_  c #8D6319",
"`  c #986818",
"'  c #9C7213",
"]  c #9F760D",
"[  c #A67C0D",
"{  c #A46A1D",
"}  c #A76718",
"|  c #B86916",
" . c #A57419",
".. c #BC781C",
"X. c #825523",
"o. c #855926",
"O. c #8A5D24",
"+. c #80562A",
"@. c #835A2C",
"#. c #8A5E2C",
"$. c #835C34",
"%. c #835E3B",
"&. c #895F32",
"*. c #8C612D",
"=. c #8C6223",
"-. c #956B24",
";. c #986727",
":. c #9B7227",
">. c #8C6335",
",. c #85613D",
"<. c #8A643C",
"1. c #866136",
"2. c #93693B",
"3. c #946835",
"4. c #9E7034",
"5. c #A46B24",
"6. c #A97827",
"7. c #B77823",
"8. c #AA742F",
"9. c #C67618",
"0. c #D3781A",
"q. c #C36C15",
"w. c #E5681A",
"e. c #C57821",
"r. c #D57E23",
"t. c #DB6A22",
"y. c #E16521",
"u. c #815F42",
"i. c #805F4A",
"p. c #846243",
"a. c #896542",
"s. c #83634C",
"d. c #8C6848",
"f. c #896A53",
"g. c #94735B",
"h. c #937153",
"j. c #936F4D",
"k. c #AA810D",
"l. c #AB8213",
"z. c #B88A18",
"x. c #B9900F",
"c. c #AB8128",
"v. c #BA842A",
"b. c #B78733",
"n. c #B28D35",
"m. c #C6980B",
"M. c #C8861B",
"N. c #C59816",
"B. c #D8971A",
"V. c #D58C15",
"C. c #C8A20B",
"Z. c #D5AA0C",
"A. c #DBB30D",
"S. c #D7B00E",
"D. c #CBA216",
"F. c #DAB012",
"G. c #E5BA0A",
"H. c #EDBD17",
"J. c #E6AA0F",
"K. c #CB8422",
"L. c #CB8B2B",
"P. c #C68927",
"I. c #D48A25",
"U. c #C89429",
"Y. c #D3952C",
"T. c #DC942B",
"R. c #D89829",
"E. c #C78A34",
"W. c #C99536",
"Q. c #DA9C32",
"!. c #D69836",
"~. c #E78C27",
"^. c #E69926",
"/. c #E79C35",
"(. c #F39929",
"). c #D8A32E",
"_. c #D9A738",
"`. c #E7A72A",
"'. c #F2A62B",
"]. c #F6BB2A",
"[. c #E8A936",
"{. c #F4AE33",
"}. c #E9B338",
"|. c #F2BC3B",
" X c #FBBF3B",
".X c #F6B637",
"XX c #ECB021",
"oX c #EA891C",
"OX c #ECC50C",
"+X c #EAC50C",
"@X c #F3CA0D",
"#X c #F5D10D",
"$X c #EBC511",
"%X c #E5C316",
"&X c #F4CA19",
"*X c #F5D213",
"=X c #F7D61A",
"-X c #F8C72A",
";X c #F7D627",
":X c #FBC63B",
">X c #F6DA33",
",X c #ECCC24",
"<X c #FAE43B",
"1X c #FBE129",
"2X c #BD9A58",
"3X c #D09643",
"4X c #D9A748",
"5X c #DAAF50",
"6X c #E5AA44",
"7X c #E9B746",
"8X c #F3BC44",
"9X c #F9B844",
"0X c #ECBD58",
"qX c #F1BD51",
"wX c #EBBA6B",
"eX c #FDCC43",
"rX c #FECC4B",
"tX c #F7C646",
"yX c #FFD444",
"uX c #FDD34C",
"iX c #F7DA44",
"pX c #FACA57",
"aX c #FAD558",
"sX c #EEC148",
"dX c #FCE646",
"fX c #FCE759",
"gX c #FBD762",
"hX c #F1CA63",
"jX c #FDE569",
"kX c #FCF267",
"lX c #FBE579",
"zX c #FDF47C",
"xX c #FCF78B",
"cX c #FDF797",
"vX c #FBF6A7",
"bX c #FCF7B9",
"nX c #FEFCD9",
"mX c #FEFEC8",
"MX c #FEFCE6",
"NX c #FFFFFE",
"BX c #FFFEF3",
/* pixels */
"U U & m V r x r q c n c w w w - V C b r c r m c x w r w x w c n U U & m V r x r q c n c w w w - V C b r c r m c x w r w x w c n ",
"V V n c x r x - q w w x c w - x V n n x $ n f.m s.c c w c - V v V V n c x r x - q w w x c w - x V n n x $ n f.m s.c c w c - V v ",
"n x n F V $ x V n F c = C V F w w w r n c n r n n - - - r - n n n x n F V $ x V n F c = C V F w w w r n c n r n n - - - r - n n ",
"r V D D s.w x n x c U - F n c x D n m F L n n r V n F C n V t n r V D D s.w x n x c U - F n c x D n m F L n n r V n F C n V t n ",
"r b x n - $ w x x r w w x r r F F F n c c ; b c m m F n x x - * r b x n - $ w x x r q w r r r F F F n c c ; b c m m F n x x - * ",
"r x - r c w r - x p b n Z D x c c n ; P F x r q c C c c b c r c r x - r c w r - x w c c m D x c c n ; P F c r w c C c c b c r c ",
"V w r L n F F n : n D D B D n C V x c b F x x r c V n U m r n P V w r L n C F c % c m V n V n C D c n b F c x x b V n U m r n P ",
"c r F n m D F G p J J p.p.J F d.- P H x - x x V V i.L c n b K m c r F b n V F D - F F U I F F d.q I J v w v v D D p.P c n b K n ",
"c t g.s.c b v Z v A Z p.J %.u.J p D I P v - V V s.c c x r r x C x t g.i.x x r c x D V s.J J u.,.s J a.p.Z p F F s.b c x r r x C ",
"c w s.I s v v h h k k A %.,.A %.v I P b R r v P g.c c r r r L c x q U L w r r x c F F J p.,.A %.k %.J Z a.v Z I g.c c r r r L c ",
"m w G Z G h S A i f u f l $.%.%.B F u.v x - V V C c x c * $ n T b - V c n w n B c Z S %.%.$.$.$.k k S s s y A F F c x c *   n T ",
"c n Z j.,.%.>.l g @.2.#.5 g %.a.i k Z F v x V I v v w x f.w P f.x c V f.P D G B s J k S $.k $.&., < i i u s Z p.m v w r f.q L f.",
"c Z Z Z f +.@.X.X.h >.@.@.9 @.j k l h j.Z F p v q p.H P J n x v c F F V s v Z Z <.$.i g j 6 X.h S z &.>.< f i s w p.F L F c r t ",
"J s y 1 f 6 6 j 3 , , + :.6.5 6 @.@.1.S A Z ,.a.Z a.p.Z B Z w v I F v s Z s i 1.@.@.@.6 5 _ _.wX2X4.4.@.< f S a.Z p.P c x c - r ",
"G s @ . , 4 , 2 3 , 4 4 + 6.=.9 j #.>.$.f >.%.S S %.A k Z s e J p.F Z s S ,.l @.#.j ! -._.:XQ.O.< 3 3 @ + j @.$.S J N c c - % V ",
"s y . + { I.{ ~ ! 2 , 2 , 4 6.6.j +.o.#.j #.>.z +.l k k z k k l S k k l &.&.X.X.9 8 U.}.[.` < g j X.6 3 2 X.>.$.$.A A B D n x x ",
"s u f + 3 U.:X[.Y.L.v.;.X.h 4._._.j 4 6 2 9 X.X.X.6 j g 6 5 +.j @.l 3.j @.9 6 6 3 M.K.5.l : @ , < 4 2 2 , 6 o.o.@.l %.G Z c F p ",
"s k f 5 3 8 ).yXtXtX X.XQ.P.b.3X9X!.O.5 5 3 2 3 3 6 3 2 2 , 9 3 X.o.X.9 6 3 _  ...| ) | 7.5.;.8.8.;.X.6 7 , 5 6 j @.$.A Z B Z & ",
",.$.l 9 o., c.dXeXeXeXeX X'.T.E.E.Q.Y.6.5.5.` ! O.b.-.Q -.:.Q 3 X.9 6 3 _ c.R.R.K.0.I.'.{.{.7X8X9X7X4XW.b.:.~ 5 5 j g f i A s c ",
"J ,.$.@.6 2 -.dXeX.X:X}.[.6X!.Q.Q.T.I.I.I.K.9.I.[.tX_.W.7X}.5.j *.c.6.5.v.R.M.| 9.~.{.:X:XyXuXrXrXuXpXpXhX0X6XW.O.O.6 j k S s B ",
"s p.<.#.3 , 6.dX:X[.[.K.E.E._.}.`.K.e.!.Q.K.I.`. XtX|.|.|.6X5X4X7X[.I.I.0.| | 9.Y.T.Q.).[.}.|.eXyXeXeXuXgXlXlXjXrX}.6.< i s J Z ",
"v p.S f 3 Q _.iX{././.I.Y.T.|.|.R.K.L.!.L.P.[.sX}.Q.Y.R.[.qXgXrX'.9.q.~.^.e.7.T.8X6X!.P.....I.}.eX:XeXeXuXjXhX2Xn._.Q.` @ X e a ",
"c s s k g ` `.U.5.5.7.R.:X:XyX[.P.Y.}.Q.L._.sX8X!.K.M.9.L.9X X(.0.q.T.{.:X8X!.Y.|.rX8X4XE.5.7.R..X XyXeXtXn.=.0 j j ! ` 2 . X p ",
"F B Z u @ ^ ~ < , , 3 ` ).iX:XY...R.|.7X7XsX}.T.I.I...} } } q.oX^.[.eXyXuXfX0XE.Y.|.tXaX0XE.7.7.P.[.rXrXW.9 3 j o.j < 2 + X y p ",
"B a A y X , 5 9 X.6 6 6 8 6.U.L.e.0.{.uX8X/.I.V.V. .W ~ ^ ^ ( B.].:X-X:XtXuXaX6XP.I.|.gXhX[.I.} / E.9X}.8 3 j o.*.j i $.s s s m ",
"p a s u X i f &.@.#.*.*.X.3 / v.r.w.(..Xy.y.r...} W 8 _ ' ] [ Z.H.&XH.XXXX`.{.}.Y.I.6X7X6X9X.X7.6 *.W.P., X.3.2.>.1.S %.h e N p.",
"w a a p u i h k <.2.1.2.o.o.6 Q ) K.`.~.w.t.5.E 7 ^ ` ] x.C.A.G.OX@X@XG.J.m.m...} v.W.L.T.tXfX:X7.1 j 6.3 @.@.$.S d.J A a p Z D ",
"w x q Z v s Z y d.S A S >.@.4 , , Q Y./.Y.{ 2 3 W ` k.C.Z.$X*X*X#X#X*X@XG.Z.[ ( _ ^ ` 7.`.rXaXyX)., . O.5 j z l k B v I D p m D ",
"x w & c F a J J Z v Z Z $.l g 6 4 5 ;.3X;.8 8 Q ^ [ x.A.&X;X>XdX<X;X=X*XOXm.k.x. .8 2 / '.uXaXuX}.8 # + 6 g A A v Z D U n x - V ",
"w - - c p c p B F m a p Z i k j 3 4 4 E 5 6 9 _ ' [ A.@X>XfXkXxXcXfX<X;X%XZ.Z.z.:._ 8 , P.aXgXrX`.^ , 3 j l h v F - B v r & - w ",
"c x r n c x r F c x x F G Z <.$.j X.#.6 3 3 8 ^ k.S.&X=X<XxXbXmXnXvXzXdX,X%XN.z.z. .! 4 6.aXjXtXM.7 j o.g i a a c w w * x ; x c ",
"L n - m F c n x w - P F m p.%.h z >.3.#.j 9 ! ' N.&X*X;XfXvXMXNXNXBXmXzX>X$X+XA.z.` *.8 6.aXjX8X .4 X.@.z A F G n n x r c c x m ",
"U U & m V r x r q c m c p p s s >.>.#.X.j 6 ^ z.-X=X&X;XjXbXBXNXNXNXnXcXfX1X#XA.N.z.` W b.gXjX8X} 5 o.l $.Z G m c w r w x w c n ",
"V V n c x r x - q w w x c p p A 1.1.#.9 , ` U.-X&XOX*XiXlXbXBXNXNXNXMXcXfX;X+XS.z.` 8 8 4XjXaXQ.^ 6 @.z y A h.D s.c c w c - V v ",
"n x n F V $ x V n F c = F F J k k l j 5 Q _.tX].Z.G.@X,XaXvXMXNXNXNXMXxX<X*XA.D.z.-.5 -.aXgX6X} 2 9 l $.A F x V n - - - r - n n ",
"r V D D s.w x n x c U - J Z Z A 1.@.j 5 n.pX[.z.x.C.Z.%XiXzXbXnXBXnXmXkX1X@XG.N.' ~ =.0XpX!.0./ 6 @.$.%.u.D m x V n F C n V t n ",
"r b x n - $ w x x r q w x c v %.%.@.5 -.tX[.M.' ' z.A.A.,XdXkXzXbXxXzXfX*XG.m.x.` -.7X6XY.`.K.6 o.&.$.A Z w n c m m F n x x - * ",
"r x - r c w r - x w c n Z G v A z j , 8.9X/.` 8 l.D.N.Z.$X=X;X<XkXdX>X>X%XA.m.'  .M.P.P.{.'.~ 5 j z h p.G c r w c C c c b c r c ",
"V w r L n C C c % c m V B F Z J @.6 2 7.9X4X! _ l.6.N.A.A.@X@X=X;X=X*X$X+XA.m.M.P.Y.Q..X'.` 3 j @.k Z V J c x r c V n U m r n P ",
"c r F b n V C D - F F I I J J j.5 X.6 U.uX8., ~ *.b.D.z.C.Z.@X$X#X*X=X&X&XH.XX`.|. X X^./ 6 6 >.u ,.%.v w c c V V i.L c n b L m ",
"x t g.i.x x r c r V b R F %.a.>.j 9 9 W.|.E 3 9 3.6.6. .l.k.Z.J.&X&X-X;X-X-X:X:X].T.{ E 6 j @.%.s G p.I n q V V s.c c x r r x C ",
"x q U L w r r r x V m F u.,.$.>.X.X.3 P..X;.o.X.>.O.*.:._ ' `  .N.V.B.^.^.^.T.7./ W 4 j @.&.A %.v I P n R r v P g.c c r r r L c ",
"c - V x n w c b r b Z F J %.>.>.j 3 6 W.pX5X3Xb.O.6 Q O.! W ! j ^ W ` / / / ^ 5 5 9 X.@.&.%.%.%.v D I c r - V n C c r c *   n T ",
"t c n f.L n F c w V c F J A <.>.2 9 v._.4X3XE.E.!.:.5 6 2.X.*.1.6 3 Q o.Q Q X.j j @.k S %.A p.d.- x c n t r n P c c w r f.q L f.",
"t V F n p x c c u.F w N S l 1.6 9 b.{.I.K. ., < 6._.c.g X.o.@.#.X.@.@.+.g j k k >.$.s N Z v R c x x q s.c n q r * I C L F c r t ",
"L n x w c w w G Z J d.Z A k j 6 8.E./ ) '.U.3 , # 6.fXn.4 X.j @.2.&.l k A s s %.S J d.v c x c n n c m c r t F I c Y L t t c * r ",
"F b x w m I v A a.,.a.<.l 5 j ;.E.! , 2 /.:Xc., # 9 aXaXX.3 5 >.2.J Z h A p.N Z %.J I P x - F L L F L c * L V b c C c r x - $ V ",
"c w w a F J h A $.$.@.@.j 6 #.#.j j 3 2 Q Y.[.=.5 :.tXaX;.6 j z S s d s F J v Z F B n b x n f.g.f.f.F C - F P t x r x c n c r x ",
"x w J w Z s Z k l l j 6 2 6 5.u 3 j X.j 2 ^ I.(.{.{..XT.6 3 @.k Z a J q D c V n F m b w - b P L c b b m - n m r r r V n c r F r ",
"w c c a s s k 1 < j ! 3 , ` g < 6 o.*.X.6 < @ ) !./.r.E , 5 l y s v c p n c U r n V x r r V L r - r n r * q r w w m m x r r c $ ",
"P Z a e Z u X . j 6.v.Q 5 < 5 j j @.>.X.j o.f : ; d : O , i i s p.Z c - P c w % c C r r w C F n r r n - - m V c c m r - - c w r ",
"F F c p o y . . ~ 7.=.+ 1 5 j f f f f z %.&.l j > d o y < f s B J F c r & x - - - c r q c r F r r - - w n V V C c h.c V n V r c ",
"w P F a O y i 1 9 Q , , g l u u h Z $.,.%.$.l 1.l g k f f s J Z a P F r   w F V F r * c F F * * r x V F F V c i.n r F c n c I n ",
"r I n p e i h k i f 1 f f $.k A S G G Z J a.A S i S A s u a w p x I v q & c V F c n - V c P x c V V V c F U n m - V n r w - - w ",
"r w r F J s s h k k k h h A Z v N F F v v F a s G A N s a p q w r w r n P w x c c c c c x b c r x n n x x m - - V b x w - - * q ",
"V c F V D Z Z N s s a A s Z v p.q D D x n V w v G v p p p D w w V c V n n n c x w r - m w c r I - n n r b b - r V r q - - n w q ",
"c r P V F v G B Z a v Z a B c c c c v x r r r w n t q h.I P c v c r P n V r V c x - r x - c r x x x c r r r r q c r - f.P L c c ",
"w r v V w F m J v v F J F : c m L I F q c F H F V V V I m - n U w r c V w V c F x x V F D % c n L P C q c C H C C V b I n - n U ",
"q r r r r r p w L J V I x F n c F I P r F F r r r I V m ; - n m q r r r r r w w K F n Y x F n c C U P r C F r r r Y V n - - n m ",
"q r * V x r r & I c w x F F w w r x r b F r c r r r r L b - c n q r * V x r r % I c r x F C w w r x r b F r c r r r r L b - c n ",
"r q $ r n w C F c r x r n c x c w x v q P r b x r c b Y b r - n r q $ r n w C F c r x r n c x c w x v q P r b x r c b Y b r - n ",
"- * - x w r w n n c w - c - r r * - b b b b r r n = v c r % - q - * - x w r w n n c r - c - r r * - b b b b r r n = v c r % - q ",
"c r r c x r r C c r r m V c P m w n g.C - * - - r w w * x - x c c r r c x r r C c r r m V c P m w n g.C - * - - r w w * x - x c ",
"L n - n C c n x q - L V c U C - x P U D t r b V c c x r c c x m L n - n C c n x q - L V c U C - x P U D t r b V c c x r c c x m "
};
