/* XPM */
static char *xpm_[] = {
/* columns rows colors chars-per-pixel */
"64 64 234 2 ",
"   c #3F3021",
".  c #5B3915",
"X  c #5C3C1C",
"o  c #583A1E",
"O  c #4E321B",
"+  c #693E0F",
"@  c #66390F",
"#  c #653D13",
"$  c #683F13",
"%  c #653E1A",
"&  c #453424",
"*  c #4A3726",
"=  c #4C3926",
"-  c #4D3A2A",
";  c #4B3728",
":  c #543E2C",
">  c #593E2C",
",  c #533726",
"<  c #633F21",
"1  c #6D4314",
"2  c #6D451A",
"3  c #6A451D",
"4  c #724616",
"5  c #744916",
"6  c #734619",
"7  c #754A1A",
"8  c #7A4E1C",
"9  c #7B4A14",
"0  c #7C511D",
"q  c #7A5119",
"w  c #5D4123",
"e  c #56402E",
"r  c #5B422E",
"t  c #5D4431",
"y  c #5F4834",
"u  c #634424",
"i  c #6A4622",
"p  c #6C4A24",
"a  c #62462C",
"s  c #65492D",
"d  c #6C4C2C",
"f  c #6C442C",
"g  c #744D23",
"h  c #794F21",
"j  c #714E2C",
"k  c #7C5323",
"l  c #75512C",
"z  c #7B542B",
"x  c #7F582E",
"c  c #775126",
"v  c #614633",
"b  c #644A35",
"n  c #6A4D35",
"m  c #664C38",
"M  c #6A4E39",
"N  c #6C4F3A",
"B  c #6A4E39",
"V  c #714F32",
"C  c #6E5034",
"Z  c #6D513A",
"A  c #6E513D",
"S  c #6E513B",
"D  c #745334",
"F  c #7A5633",
"G  c #7D5934",
"H  c #71533A",
"J  c #72543D",
"K  c #73543C",
"L  c #79573B",
"P  c #76583E",
"I  c #7C5B3C",
"U  c #6F5440",
"Y  c #745641",
"T  c #765942",
"R  c #7B5C43",
"E  c #7E5E48",
"W  c #775A46",
"Q  c #7D614A",
"!  c #7F6047",
"~  c #834D1A",
"^  c #804C16",
"/  c #83541B",
"(  c #85591D",
")  c #8B5A1C",
"_  c #895319",
"`  c #935B1B",
"'  c #965816",
"]  c #A55D16",
"[  c #8D621E",
"{  c #9A651B",
"}  c #A2631B",
"|  c #A46A1E",
" . c #AB6B18",
".. c #B76915",
"X. c #BF7A1D",
"o. c #B9731C",
"O. c #A2721F",
"+. c #825523",
"@. c #855926",
"#. c #8B5E24",
"$. c #80562A",
"%. c #835A2B",
"&. c #8A5D2B",
"*. c #835C34",
"=. c #835E3B",
"-. c #895F32",
";. c #8D612D",
":. c #8C6123",
">. c #956B25",
",. c #986629",
"<. c #9B7228",
"1. c #8C6235",
"2. c #85613D",
"3. c #8A643C",
"4. c #866136",
"5. c #926533",
"6. c #93693B",
"7. c #976A37",
"8. c #9E7034",
"9. c #A46B24",
"0. c #A86C23",
"q. c #AD7524",
"w. c #AD7C2A",
"e. c #A67629",
"r. c #BB7422",
"t. c #B67A26",
"y. c #A47737",
"u. c #B06D21",
"i. c #C36B14",
"p. c #C6781A",
"a. c #D3781A",
"s. c #E5681A",
"d. c #C47A22",
"f. c #D57E23",
"g. c #DB6A22",
"h. c #E16521",
"j. c #815F42",
"k. c #805F4A",
"l. c #846243",
"z. c #896542",
"x. c #83634C",
"c. c #8C6848",
"v. c #8B6C53",
"b. c #876953",
"n. c #94735B",
"m. c #937153",
"M. c #936F4D",
"N. c #AB8128",
"B. c #BC832B",
"V. c #B78429",
"C. c #A78337",
"Z. c #B98633",
"A. c #B9943A",
"S. c #CA861D",
"D. c #D6851C",
"F. c #E9841E",
"G. c #CC8422",
"H. c #C38C2C",
"J. c #CB8B2B",
"K. c #C78725",
"L. c #D28624",
"P. c #D38D24",
"I. c #D48D2A",
"U. c #DC8823",
"Y. c #C99429",
"T. c #D4942C",
"R. c #DC942A",
"E. c #DB9A2C",
"W. c #D79729",
"Q. c #C88B34",
"!. c #CA9536",
"~. c #DA9534",
"^. c #D69B34",
"/. c #DA9C33",
"(. c #D49839",
"). c #E58C25",
"_. c #E99A28",
"`. c #E79D35",
"'. c #F39929",
"]. c #DAA42E",
"[. c #DCA33B",
"{. c #D8A737",
"}. c #ECA52D",
"|. c #E6A62B",
" X c #F2A62B",
".X c #E4A533",
"XX c #E5AA33",
"oX c #EAAA39",
"OX c #F5AD35",
"+X c #ECB335",
"@X c #E8B33A",
"#X c #FCBC34",
"$X c #F2BB3B",
"%X c #FBBE3B",
"&X c #F5B538",
"*X c #FDC43B",
"=X c #FAC63D",
"-X c #BBA14C",
";X c #BF9263",
":X c #D09643",
">X c #D9A748",
",X c #DAAF50",
"<X c #E5AA45",
"1X c #E5B442",
"2X c #ECB245",
"3X c #EAB849",
"4X c #F3BC44",
"5X c #F1BB4C",
"6X c #F8B745",
"7X c #EABA57",
"8X c #EDB852",
"9X c #EBBA6B",
"0X c #EDC14C",
"qX c #FBC641",
"wX c #FDCB44",
"eX c #FDCC4B",
"rX c #F5C64B",
"tX c #FFD345",
"yX c #FED34B",
"uX c #FCDB48",
"iX c #FECD55",
"pX c #F8C757",
"aX c #FFD253",
"sX c #FCD35B",
"dX c #F9D759",
"fX c #FFE445",
"gX c #FFE35B",
"hX c #F6C961",
"jX c #FDDA64",
"kX c #FAD764",
"lX c #F2D36F",
"zX c #FFE46B",
"xX c #FFE668",
"cX c #FFE477",
/* pixels */
"E E = N Z t v t e b M b r r r : Z S m t b t N b v r t r v r b M E E = N Z t v t e b M b r r r : Z S m t b t N b v r t r v r b M ",
"Z Z M b v t v : e r r v b r : v Z M M v & M v.N x.b b r b : Z n Z Z M b v t v : e r r v b r : v Z M M v & M v.N x.b b r b : Z n ",
"M v M K Z & v Z M K b ; A Z K r r r t M b M t M M : : : t : M M M v M K Z & v Z M K b ; A Z K r r r t M b M t M M : : : t : M M ",
"t Z H H x.r v M v b E : K M b v H M N K Y M M t Z M K S M Z y M t Z H H x.r v M v b E : K M b v H M N K Y M M t Z M K S M Z y M ",
"t m v M : & r v v t r r v t t K K K M b b > m b N N K M v v : - t m v M : & r v v t e r t t t K K K M b b > m b N N K M v v : - ",
"t v : t b r t : v a m M D H v b b M > T K v t e b S b b m b t b t v : t b r t : v r b b N H v b b M > T K b t r b S b b m b t b ",
"Z r t Y M K K M , M H H C H M S Z v b m K v v t b Z M E N t M T Z r t Y M S K b * b N Z M Z M S H b M m K b v v m Z M E N t M T ",
"b t K M N H K L a I I l.l.I K c.: T P v : v v Z Z k.Y b M m U N b t K m M Z K H : K K E R K K c.e R I n r n n H H l.T b M m U N ",
"b y n.x.b m n D n F D l.I =.j.I a H R T n : Z Z x.b b v t t v S v y n.k.v v t b v H Z x.I I j.2.d I z.l.D a K K x.m b v t t v S ",
"b r x.R d n n j j l l F =.2.F =.n R T m ! t n T n.b b t t t Y b v e E Y r t t v b K K I l.2.F =.l =.I D z.n D R n.b b t t t Y b ",
"N r L D L j G F p g i g z *.=.=.C K j.n v : Z Z S b v b - & M Q m : Z b M r M C b D G =.=.*.*.*.c l G d d u L K K b v b -   M Q ",
"b M D M.2.=.1.z h %.7.&.7 h =.z.p l D K n v Z R n n r v v.r T v.v b Z v.T H L C d I l G *.z *.-.1 2 p p i d D l.N n r t b.e Y b.",
"b D D D g $.%.+.+.j 1.%.%.0 %.c z z j M.D K a n e l.P I I M v n b K K Z d n D D 3.*.p h k 8 +.j G x -.1.3 p p d r l.K Y K b t y ",
"I d u 3 g 8 8 k 5 1 1 # <.e.7 8 %.%.4.G F D 2.z.D z.l.D C D r n R K n d D d p 4.%.%.%.8 7 [ {.9X;Xy.8.%.2 2 G z.D l.T b v b : t ",
"L d % . 1 6 1 4 5 1 6 6 # q.:.0 k &.1.*.g 1.=.G G =.F l D d w I 2.K D d G 2.z %.&.k ( >.{.=X^.#.2 7 7 $ # k %.*.G I D b b : * Z ",
"d u . #  .P.| ) ( 4 1 4 1 6 q.w.k $.@.&.k &.1.x $.z z l x l l z G l l z -.-.+.+.0 q Y.+X.X{ 2 h k +.8 7 4 +.5.%.*.F F C H M v v ",
"d u g # 5 Y.*X.XT.J.B.,.+.j 8.[.[.k 6 8 4 0 +.+.+.8 k h 8 7 $.c %.z 5.k @.0 8 8 5 S.G.9.z , % 1 2 6 4 4 1 8 @.@.%.z =.L D b K a ",
"d l g 7 5 q {.tXqXqX%X&X^.H.Z.:X6X(.#.7 4 5 4 4 4 8 7 4 4 1 0 4 +.@.+.0 8 4 [ O.X...] ..r.9.,.e.w.,.+.8 5 1 7 8 k %.*.F D C D = ",
"2.*.z 0 @.1 N.fXwXwXwXwX#X}.R.Q.Q./.T.q.| | { ( #.Z.>./ >.<./ 4 +.0 8 5 [ N.E.E.L.a.U.}.OX+X2X6X6X2X>X!.Z.<.( 7 7 k h g p F d b ",
"I 2.*.%.8 4 >.fXwX$X*X+XoX<X^.E./.~.L.L.I.S.p.P.XXwX{.!.1X@X9.k ;.C.w.0.V.W.S...p.).OX*X=XtXyXeXeXyXiXsXhX7X<X!.#.#.8 c l G d C ",
"d l.3.&.4 1 e.fX=X.X.XG.Q.Q.[.+X|.G.d.^./.G.P.|.%XqX$X$X$X1X,X>X3XXXP.D.a.....p.T.~./.]..X+X$XwXtXwXwXaXjXcXcXxXeX@Xw.2 p d I D ",
"n z.G g 5 / {.uX&X`.`.L.T.T.$X$XW.G.J.^.J.K.oX0X@X/.T.W..X5XkXeX Xp.i.)._.d.r.E.4X1X(.K.X.X.P.+XwX=XwXwXyXxXlX-XA.{./.{ % X w s ",
"b d d l 0 { XXH.9.9.t.E.=X=XtXXXK.T.@X/.J.[.0X5X^.K.S.p.I.6X%X'.a.i.R.&X=X5X(.T.$XyX5X>XH.u.r.E.&X%XtXwXwXA.:.8 k k ( { 4 . X a ",
"K C D i % ) ) 2 1 1 5 { ].tX=XT.X.W.=X4X3X0X@XR.P.P.X.} ' ] i.F.).oXwXtXuXgX7XQ.T.$XwXsX7XQ.r.r.J.XXeXeXH.8 4 k @.k 2 4 # X u a ",
"C s F u X 1 7 0 +.8 8 8 q w.Y.J.d.a.OXaX4X`.U.D.D. .9 / 8 4 @ L.+XqXwXqXrXsXsX<XJ.P.$XjXhXoXL.} ` Q.6X@Xq 7 k @.;.k p *.d d d N ",
"a s d u X p g -.%.&.;.;.+.5 ` B.f.s._.&Xg.h.f.X.} 9 4 8 7 1 # r..X+X|.`.~.^.oX2XT.P.1X3X<X&X&Xt.8 ;.!.H.1 +.5.7.1.4.G =.j w V l.",
"r s s a u p l l 3.6.4.6.@.@.8 / ] G.}.).s.g.9.9 4 7 7 4 4 7 k t.!.@X|.).i...o. .} B.!.J.R.qXgX=Xt.3 k q.7 %.%.%.G c.I F s a D H ",
"r v e D n d D u z.G F G 1.%.6 1 1 ( !.`.T.| 1 4 4 4 1 7 ( y.<XQ.(.+XtX$Xp.' 9 + 1 8 { X.|.eXdXyX].1 . #.7 k x z l C n R H a N H ",
"v r = b K s I I D n D D *.z h 8 4 7 ,.:X,.9 7 8 7 6 1 +.B.(.~.(.<X+XuXqX0.9 7 8 7 4 4 ' }.aXsXyXXXq + # 8 h F F n D H E M v : Z ",
"r : : b a b a C K N s a D p l c 7 6 6 ~ 9 8 8 8 7 1 <.(.<X8Xd.J.E.$XgX(./ 4 8 @.&.k 4 1 H.dXjXeX|._ 1 7 k z j n K : C n t = : r ",
"b v t M b v t K b v v K L D 3.*.c +.&.8 7 7 7 4 4 ,.2XiX2X!.t.1XE.pXjXw.4 7 +.7.;.%.8 6 w.dXzXrXS.9 k @.h p s s b r r - v > v b ",
"Y M : N K b N v r : T K N z.=.j x 1.5.&.k 8 8 ^ e.,XsX[.) 4 Q.5XXXlX8X0.8 +.5.5.;.@.&.8 w.dXzX4X .4 +.%.z F K L M M v t b b v N ",
"E E = N Z t v t e b N b a a d d 1.1.&.+.k 8 _ w.5XpX(.0 # 2 0X[.5XlX/._ 8 +.;.;.;.;.+.8 Z.kXxX4X} 9 @.z *.D L N b r t r v r b M ",
"Z Z M b v t v : e r r v b a a F 4.4.&.k 1 [ Z.5X5XB._ + # y.rXT.sXhXK.4 7 @.;.;.&.+.7 8 >XzXsX/._ 8 %.x u F m.H x.b b r b : Z n ",
"M v M K Z & v Z M K b ; K K I l l z k 7 ( {.pX6Xu.4 1 1 2 [./.XXjXrXo.1 0 8 ;.7.;.@.2 >.dXkX<X .4 0 z *.F K v Z M : : : t : M M ",
"t Z H H x.r v M v b E : I D D F 4.%.k 7 Z.iXoX} 4 7 8 7 k iX3X$XsX4Xq.1 k 8 +.%.k 8 @.3XpX^.a.' 8 %.*.=.j.H N v Z M K S M Z y M ",
"t m v M : & r v v t e r v b n =.=.%.7 >.rXoXr.^ 9 +.@.7 7 OX3XeXaX2XqXe.7 1 5 7 1 :.1X1XT.|.G.8 @.-.*.F D r M b N N K M v v : - ",
"t v : t b r t : v r b M D L n F x k 1 e.6X`.` $ 8 &.%.8 7 6X5XwXaXeX_.' 0 :.) ^ ` K.K.K. X}.` 7 c x j l.L b t r b S b b m b t b ",
"Z r t Y M S S b * b N Z C K D I %.8 4 q.6X>X( 7 @.5.;.&.6 G./.qXyXjX8Xt.t.t. ...K.T.E.#X}.{ 5 k %.l D Z I b v t b Z M E N t M T ",
"b t K m M Z S H : K K R R I I M.7 +.8 H.yXw.$ k &.y.7.%.7 ) OX].wXdXkX0X@XXX].XX$X%X*X_.` 8 8 4.i 2.=.n r b b Z Z k.Y b M m Y N ",
"v y n.k.v v t b t Z m ! K =.z.1.k 0 0 !.$X^ 4 0 5.;.;.&.8 2 0.R.#X*XeXtX*X*X*X*X#XR.| ~ 8 k %.=.d L l.R M e Z Z x.b b v t t v S ",
"v e E Y r t t t v Z N K j.2.*.1.+.+.7 H.&X,.@.+.1.+.&.&.+.7 7 ` r.d.I.R.R.R.I.r.` ~ 6 k %.-.F =.n R T M ! t n T n.b b t t t Y b ",
"b : Z v M r b m t m D K I =.1.1.k 7 8 !.pX,X:XZ.#.8 k %.0 4 8 g 9 ^ ' ' ' ' _ 6 6 8 k %.-.*.=.=.n H R b t : Z M S b t b -   M Q ",
"y b M v.Y M K b r Z b K I F 3.1.4 0 V.[.>X:XQ.J.^.<.7 8 6.+.;.1.7 7 8 @.0 0 +.k h %.z G =.F z.c.: v b M y t M T b b r t b.e Y b.",
"y Z K M a v b b j.K r V G z 4.8 0 A.OXL.G.o.1 2 q.{.C.h +.@.%.&.$.%.%.z h c z z 1.*.d V D n ! b v v e x.b M e t - R S Y K b t y ",
"Y M v r b r r L D I c.D F z k 8 e.H.` ]  XY.5 1 $ w.gXC.6 +.k %.6.-.l l F d d =.G I c.n b v b M M b N b t y K R b W Y y y b - t ",
"K m v r N R n F z.2.z.3.z 7 k ,.H.( 1 4 E.=XN.1 + 0 dXdX+.7 7 1.6.I D d F l.V D =.I R T v : K Y Y K Y b - Y Z m b S b t v : & Z ",
"b r r s K I j F *.*.%.%.k 8 &.&.c k 7 4 _ T.oX:.7 <.rXaX,.8 c x G d s d K I n D K C M m v M v.n.b.b.K S : K T y v t v b M b t v ",
"v r I r D d D l z z k 8 4 8 e.i 7 k +.k 4 _ U.'.+X&X#XR.8 7 %.l D s I e D b Z M K N m r : m T Y b m m N : M N t t t Z M b t K t ",
"r b b s d d l 3 2 k ( 5 1 { 8 2 8 @.;.+.8 2 % ] ~.`.f.^ 1 7 l u d n b a M b E t M Z v t t Z Y t : t M t - e t r r N N v t t b & ",
"T D s w D i X . k w.V./ 6 2 7 k k %.1.+.k @.g o > f , O 1 p p d l.D b : T b r * b S t t r S K M t t M : : N Z b b N t : : b r t ",
"K K b a o u . . ) t.:.# 3 7 c g g g g x =.-.z k < f o u 2 g d C I K b t - v : : : b t e b t K t t : : r M Z Z S b m.b Z M Z t b ",
"r T K s O u p 3 0 / 1 1 h z i i j D *.2.=.*.l 4.z h z g g d I D s T K t   r K Z K t - b K K - - t v Z K K Z b k.M t K b M b R M ",
"t R M a w p j l p g 3 g g *.l F G L L D I z.F G p G F d i s r a v R n e = b Z K b M : Z b T v b Z Z Z b K E M N : Z M t r : : r ",
"t r t K I d d j l l l j j F D n V K K n n K s s L F V d s a e r t r t M T r v b b b b b v m b t v M M v v N : : Z m v r : : - e ",
"Z b K Z H D D V d d s F d D n l.e H H v M Z r n L n a a a H r r Z b Z M M M b v r t : N r b t R : M M t m m : t Z t e : : M r e ",
"b t T Z K n L C D s n D s C b b b b M v t t t r M y e m.R T b n b t T M Z t Z b v : t v : b t v v v b t t t t e b t - v.T Y b b ",
"r t n Z r K N I n n K I K , b N Y R K e b K P K Z Z Z R N : M E r t b Z r Z b K v v Z K H * b M Y T S e b A P A Z Z m T M : M E ",
"e t t t t t a r Y I Z R v K M b H R T t K K t t t R Z N > : M N e t t t t t r r U K M W v K M b S E T t A K t t t W Z M : : M N ",
"e t - Z v t t = R b r v K K r r v v t m K t b t t t t Y m : b M e t - Z v t t * R b t v K S r r t v t m K t b t t t t Y m : b M ",
"t e & t M r S K b t v t M b v b r v n e T t m v t b m W m t : M t e & t M r S K b t v t M b v b r v n e T t m v t b m W m t : M ",
": - : v r t r M M b r : b : t t - : m m m m t t M ; n b t * : e : - : v r t r M M b t : b : t t - : m m m m t t M ; n b t * : e ",
"b t t b v t t S b t t N Z b T N r M n.A : - : : t r r - v : v b b t t b v t t S b t t N Z b T N r M n.A : - : : t r r - v : v b ",
"Y M : M S b M v e : Y Z b E S : v T E H y t m Z b b v t b b v N Y M : M S b M v e : Y Z b E S : v T E H y t m Z b b v t b b v N "
};
