/* XPM */
static char *xpm_[] = {
/* columns rows colors chars-per-pixel */
"64 64 199 2 ",
"   c #3E3020",
".  c #463424",
"X  c #493726",
"o  c #4C3927",
"O  c #4B3728",
"+  c #4D3A2A",
"@  c #543E2C",
"#  c #583F2C",
"$  c #593A3F",
"%  c #56412E",
"&  c #5A422E",
"*  c #5D4227",
"=  c #5D4431",
"-  c #5E4835",
";  c #554232",
":  c #65492E",
">  c #6C4C2E",
",  c #62472B",
"<  c #714E2F",
"1  c #6D502D",
"2  c #614633",
"3  c #644935",
"4  c #694D36",
"5  c #62463A",
"6  c #654C39",
"7  c #6A4E39",
"8  c #714F30",
"9  c #6F5133",
"0  c #6D513B",
"q  c #66513C",
"w  c #745334",
"e  c #795635",
"r  c #7C5937",
"t  c #72543D",
"y  c #79573A",
"u  c #75583E",
"i  c #7C5A3C",
"p  c #74522F",
"a  c #5E3E41",
"s  c #664A43",
"d  c #6B4D46",
"f  c #674346",
"g  c #6C5442",
"h  c #6E5946",
"j  c #6D5B4A",
"k  c #685345",
"l  c #745641",
"z  c #765943",
"x  c #7E5E46",
"c  c #7A5B43",
"v  c #745C4B",
"b  c #7E5E49",
"n  c #7C5D49",
"m  c #71564A",
"M  c #745D52",
"N  c #725253",
"B  c #76614D",
"V  c #7C614C",
"C  c #776251",
"Z  c #7B6554",
"A  c #7F6854",
"S  c #7D6A59",
"D  c #815E3C",
"F  c #825D32",
"G  c #84613E",
"H  c #8B663B",
"J  c #98703E",
"K  c #825F45",
"L  c #805F4A",
"P  c #856343",
"I  c #83634C",
"U  c #8A6845",
"Y  c #936C43",
"T  c #97774D",
"R  c #876750",
"E  c #866A55",
"W  c #8B6C53",
"Q  c #836B5A",
"!  c #84675B",
"~  c #916E51",
"^  c #8B715D",
"/  c #85715D",
"(  c #94745C",
")  c #9B7959",
"_  c #815A66",
"`  c #866C66",
"'  c #8B6F61",
"]  c #8B6F69",
"[  c #837462",
"{  c #8D7562",
"}  c #8B7966",
"|  c #8D7C6B",
" . c #917F6A",
".. c #987F67",
"X. c #916E77",
"o. c #926E78",
"O. c #937D73",
"+. c #997F7B",
"@. c #977B7D",
"#. c #B9893A",
"$. c #B5963B",
"%. c #E59D1B",
"&. c #FDA501",
"*. c #F7AB01",
"=. c #FDAA02",
"-. c #FBAA0B",
";. c #F3A707",
":. c #FCB302",
">. c #F7BE01",
",. c #FCBA04",
"<. c #F5B608",
"1. c #F7AA16",
"2. c #FABB1C",
"3. c #F9B61B",
"4. c #E5A11A",
"5. c #D89929",
"6. c #C19C3D",
"7. c #D79D35",
"8. c #E19E25",
"9. c #D9A83D",
"0. c #E3A124",
"q. c #E4BA28",
"w. c #FCBB2E",
"e. c #FBB425",
"r. c #FDBA35",
"t. c #FDBC39",
"y. c #FDB634",
"u. c #FDC504",
"i. c #FBC908",
"p. c #FED300",
"a. c #FDCA13",
"s. c #FECB1A",
"d. c #FDD517",
"f. c #FCCC22",
"g. c #FCC325",
"h. c #F5CF2A",
"j. c #A88948",
"k. c #AD904E",
"l. c #B4964C",
"z. c #BE924B",
"x. c #B08A52",
"c. c #8E806E",
"v. c #95826E",
"b. c #9A826C",
"n. c #948372",
"m. c #9B8374",
"M. c #998976",
"N. c #9C837A",
"B. c #9E8C7A",
"V. c #978975",
"C. c #9D937E",
"Z. c #A28A77",
"A. c #A2907D",
"S. c #CC9B45",
"D. c #D4B345",
"F. c #D1AD48",
"G. c #9A7C81",
"H. c #9F8684",
"J. c #9C9380",
"K. c #A08684",
"L. c #A58F85",
"P. c #A48B8C",
"I. c #A49581",
"U. c #AA9A85",
"Y. c #AC9D8D",
"T. c #A89885",
"R. c #ACA28E",
"E. c #B0A08C",
"W. c #B4A593",
"Q. c #B5A995",
"!. c #B8AB96",
"~. c #B8A79D",
"^. c #BAAC9B",
"/. c #B5AC9E",
"(. c #BEB29D",
"). c #BDB4A3",
"_. c #C1B49F",
"`. c #C2B4A3",
"'. c #C4BAA5",
"]. c #C6BDAA",
"[. c #CABEAB",
"{. c #CCC2AD",
"}. c #CDC2B4",
"|. c #CFCCB5",
" X c #D3CBB6",
".X c #D3CCB9",
"XX c #D6D3BD",
"oX c #D9D5BE",
"OX c #D7D7C1",
"+X c #D9D6C2",
"@X c #D7D8C2",
"#X c #DADAC3",
"$X c #E1DDC4",
"%X c #E0DDC9",
"&X c #E3E4CD",
"*X c #E7E7D1",
"=X c #E7E9D1",
"-X c #EBEDD5",
";X c #F0F2DA",
/* pixels */
"x x o 7 0 = 2 = % 3 7 2 & & & @ 0 0 4 = 3 = 7 3 2 & = & 2 & 3 4 x x o 7 0 = 2 = % 3 7 2 & & & @ 0 0 4 = 3 = 7 3 2 & = & 2 & 3 4 ",
"0 0 7 3 2 = 2 @ % & & 2 2 & @ 2 0 7 7 2 . 4 W 7 I 3 2 & 3 @ 0 4 0 0 7 7 2 = 2 @ % & & 2 2 & @ 2 0 7 7 2 . 4 W 7 I 3 2 & 3 @ 0 4 ",
"4 2 4 t 0 . 2 0 4 t 3 O 0 0 t & & & = 4 3 7 = 7 4 @ @ @ = @ 7 4 4 2 4 ^ Y.j 2 0 4 t 3 O 0 0 t & & & = 4 3 7 = 7 4 @ @ @ = @ 7 4 ",
"= 0 t t I & 2 7 2 3 b @ u 4 3 2 t 4 7 t l 7 7 = 0 7 t 0 7 0 - 7 = 0 t V ..g 2 7 2 3 b @ u 4 3 2 t 4 7 t l 7 7 = 0 7 t t 7 0 - 7 ",
"= 4 2 7 @ . & 2 2 = % & = = = t t t 7 3 3 # 6 2 7 7 t 4 2 2 @ + = 4 2 7 @ . & 2 2 = % & = = = t t u 7 3 3 # 6 2 7 7 t 4 2 2 @ + ",
"= 2 @ = 3 & = @ 2 & 3 3 7 t = 2 3 4 # z t 2 = % 3 0 3 3 6 3 = 2 = 2 @ = 3 & = @ 2 & 3 3 7 t = 2 3 4 # z t 2 = % 3 0 3 3 6 3 = 2 ",
"0 & = l 7 0 0 3 X 2 7 7 4 0 3 0 0 2 3 3 u 2 2 = 3 0 4 x 7 = 7 c 0 & = l 0 t 0 M.).m 7 7 4 0 3 0 0 2 3 3 u 2 2 = 3 0 4 x 7 = 7 c ",
"3 = t 4 7 0 0 t @ t t c c t 7 I + z u = @ 2 2 0 0 K l 3 7 6 g 7 3 = t 4 7 l I..XoX}.A c c t 7 I + z u = @ 2 2 0 0 K l 3 7 6 g 7 ",
"2 - ( L 2 2 = 3 = 0 6 b t u l u & 0 c z 4 @ 0 0 I 3 3 2 = = 2 0 2 - ( L 2 6 }.&XOX{.S b 0 u l u & 0 c W.=X[ 0 0 I 3 3 2 = = 2 0 ",
"2 % b l & = = = 2 0 7 t z u 4 t = l l 6 V = 4 n ' m m d 5 = l 2 2 % b c m 5 _ ^.W.E.v.z z l 4 t = c B.+.}. Xv.| ( 2 2 = = = l 2 ",
"3 @ 0 2 7 & 3 4 = 3 7 t t t t t = 7 c 0 Z M m.W.(.'.^.W.+.$ 4 V 3 @ 0 7 |.).K.L.(.^.`.`.v.t t t = m .X;X].XX-X&XQ 2 = 2 +   4 V ",
"- 2 7 W z 7 t V.).B = 7 7 3 z V + = 7 I.'._.(.(.(.^.(.'.(.@.d E - 2 7 ^ &X&X&X`.W.{.@X#X-XR.n V + = v n.j S {.m.3 2 & = E % l E ",
"- 0 t 7 & 6 C.|.oX}.k = 3 = z 2 = =  .(.W.I.Z.m.m.m.N.U.!.Y.N - - 0 t 0 '.}.P.}.].`.~..XXXQ.V 2 = = @ I 3 7 % = + c 0 l t 2 = - ",
"l 7 = & 2 - }.&XOX{.{ = = = 2 3 7 B E.W.]. X X X X X X X_.+.a = l 7 = = Q o.G..X*XB.n - v 3 2 3 4 3 7 2 = - t c 2 z l 2 - 2 + = ",
"t 6 = = v z _ ^.W.E.m.z = + t l l {  X-X-X&X&X&X&X&X&X&X-X#XM 0 l 6 = = 7 ^ OX] ^ 0 z l = + t l t t l 3 + l 0 6 3 0 3 = 2 @ . 0 ",
"2 # @ 3 .X).K.L.(.^.`.`.| 7 W ( R U.&X#X@XOXOXOXOXOXOXOX@X&X%X0 2 # @ & 7 t A 0 0 7 2 3 = 4 W ( I R t 0 @ t c - 2 2 2 2 7 3 = 2 ",
"2 @ u 6 &X&X&X`.W.{.@X#X-XR.c l 3 | $X@XOX@X@X@X@X@X@X@XOXoX;Xg 2 @ u @ 7 2 7 6 0 4 4 # @ 4 z l 3 6 6 0 = 7 B.).h = 0 7 2 = t = ",
"& = 2 2 ].}.P.}.].`.~..XXX!.c = @ = { &X#XOX@X@X@X@X@X@X#X#XA.X & = 2 & 4 2 b = 7 0 2 = = 0 l = @ = 7 = ; C.|.oX{.Z 7 2 = = 3 . ",
"z 4 2 % { X.G..X*XB.5 2 m z t 7 = = 4 C ].&X@X@X@XOX&X%X/.V & = z 4 2 @ c 3 & X 2 0 = = & 0 t 7 = = 4 @ - }.&XOX{.Q = @ @ 2 & = ",
"t 0 2 = % Z OX` M 3 2 % 3 = t = = @ @ & 7 U.XXXXXX$XE.z 7 0 = 2 V l 3 = + 2 @ @ @ 3 = % 3 = t = = @ @ m 7 _ ^.W.E.Z.7 0 7 0 = 2 ",
"& g 0 =   & ^ l t = + 3 t t + + = 2 0 t t 0 3 L 7 = t 3 4 3 c B oX!.Q.C.. & u 0 t = + 3 t t + + = 2 l .X).K.L.(.^.`.`. .0 3 c 7 ",
"= z 3 = o 3 0 u 3 7 @ 0 3 z 2 3 0 0 0 3 t x 7 7 @ 0 7 = & @ @ q } {.}.| + 3 0 u 3 7 @ 0 3 z 2 3 0 0 v &X&X&X`.W.{.@X#X-XR.= @ & ",
"= & = 7 z & 2 2 3 3 2 3 2 4 3 = 2 0 7 2 2 7 @ @ 0 6 2 & @ @ + % = j n.0 z & 2 2 3 3 2 3 2 4 3 = 2 7 0 ].}.P.}.].`.~..XXXW.- + % ",
"7 - 0 7 7 4 3 2 & = @ 7 & 3 = c @ 7 7 = 6 6 @ = 0 = % @ @ 7 & % 7 - 0 7 7 4 3 2 & = @ 7 & 3 = c @ 7 0 Q X.G..X*XB.6 = j - 7 & % ",
"2 = z 7 0 = 0 2 2 @ = 2 @ 3 = 2 2 2 3 = = = % % 2 = @ W c c 3 4 3 = c 0 0 2 0 2 2 @ = 2 @ 3 = 2 2 2 3 3 Z OX` Z 6 = @ W c l 2 3 ",
"& = 2 0 & 0 3 u Y.=X} u t + 2 7 l c 0 % 2 0 u t 0 t t P w , w U : 4 9 w : w 7 u 3 3 0 u t O 2 7 l c 0 % 2 / z 0 0 0 7 c 7 @ 7 b ",
"% = = = = = 2 O.N.}. XM.[ z 4 3 0 n c = t u 3 4 9 P i r > > i i > w w w w 9 > > c u 0 c 2 t 4 3 0 n c = 0 l = = = z 0 4 @ @ 7 7 ",
"% = + 0 2 = 0 |.;X].XX-X&XQ & & = 2 = 7 u 4 w 8 w G T x.l.$.6.6.$.$.$.l.j.T G , U e 4 4 u t & & = 2 = 6 t = 2 = = = = l 6 @ 3 7 ",
"= % . = 7 & 0 Z n.h Q [.v.6 2 2 & 2 4 , P w U k.F.q.u.,.:.=.*.*.*.*.*.:.:.<.q.D.l.H e 4 w 3 2 2 & 2 4 % z = 6 2 = 3 6 v 3 = @ 7 ",
"@ + @ 2 & = & 4 7 2 & @ 3 @ = = + % 0 y i k.q.a.,.=.&.&.&.&.&.&.&.&.&.&.-.e.3.;.>.g.j.1 e * = = + @ 6 v.{./ h c.B O 4 2 = X @ & ",
"3 = = 3 2 = = 0 2 = = 7 0 3 c 7 & 7 ) D j.i.d.2.&.&.&.&.=.=.=.=.=.=.=.1.w.t.t.y.1.>.i.l.D 9 c 7 & 7 b.&X-XXX].;X|.q & + 2 @ 2 2 ",
"l 7 @ 7 0 3 7 = % @ l 0 3 x 0 @ 2 c P D D.p.h.3.&.&.=.=.=.&.&.=.=.-.e.r.t.r.r.r.e.<.p.D.e P t @ 2 z I } c. X}.N.n.0 2 = 3 3 2 7 ",
"x x o 7 0 = 2 = % 7 Q 2 & & & @ 0 t e w F.u.d.h.2.-.&.&.=.-.1.3.e.r.t.t.r.r.r.w.3.i.p.9.< : & @ 0 0 7 = 3 [ -XY.2 & = & 2 & 3 4 ",
"0 0 7 3 2 = 2 % C ` OXZ 6 & @ 2 0 0 y e S.*.,.a.d.f.g.2.e.w.t.t.t.r.r.r.w.g.f.a.i.u.:.9.e > & 2 0 7 7 2 . 4 W 7 I 3 2 & 3 @ 0 4 ",
"4 2 4 z Z + 7 B.*X.XG.X.' 0 t & & & 4 e z.&.=.*.:.i.a.s.f.f.f.f.f.s.s.s.a.i.u.,.:.=.&.#.G y u & & & = 4 3 7 = 7 4 @ @ @ = @ 7 4 ",
"= 0 t !.oX.X~.`.].}.P.}.].0 3 2 t 4 w D T 5.&.=.&.&.=.=.:.:.:.:.:.:.:.:.=.*.&.&.&.&.0.U G w 3 2 t 4 7 t l 7 7 = 0 7 t 0 7 0 - 7 ",
"= 4 2 R.-X#X@X{.W.`.&X&X&Xg = t t u 0 w e r j.5.1.&.&.&.&.&.&.&.&.&.&.&.&.&.&.1.5.#.P > 4 2 = t t t 7 3 3 # 6 2 7 7 t 4 3 3 @ + ",
"= 2 @ -  .).`.^.(.L.K.)..Xz = 2 3 4 # c i w 8 e J x.S.7.0.4.;.*.*.;.%.8.7.S.j.H D p e w w t = 2 3 4 # z t 2 = % 7 Q 3 3 6 3 = 2 ",
"0 & = l 7 l v.E.W.^._ g B 0 3 0 0 2 3 6 u 4 4 w e i r Y H F T x.) U F Y G G D e * w w t 4 0 3 0 0 2 3 3 u 2 2 Z ] OXQ I 7 = 7 c ",
"3 = t 4 7 0 Q {.OX&X}.n c t 7 I + z u = # 3 3 w w U K e y w c r e > D y y i u y & u t c c t 7 I + z c v = 7 B.*X.XG.o.Q 0 6 g 7 ",
"2 - ( L 2 2 m {.oX|.C.V 0 u l u & 0 c z 4 @ 0 0 I 4 4 4 2 3 4 u 4 3 ) I 3 3 2 3 2 0 6 b 0 u l u & l !.oX.X~.`.].}.P.}.].2 3 2 0 ",
"2 % b l & = = h ).B.7 l c u 4 t = l l 6 V = 4 z ( 2 2 = 2 - l 3 2 & b l & = = = 2 0 7 t z u 4 t = c W.-X#X@X{.W.`.&X&X&Xg h l 2 ",
"3 @ 0 2 7 & 3 4 = 3 7 t t t t t = 7 c 2 = @ 0 7 l S = 2 +   4 V 7 c.Z 2 7 & 3 4 = 3 7 t t t t t = 7 c | ).`.^.(.L.H.)..X; O 4 V ",
"- 2 7 W l 7 t 2 & 7 = 7 7 3 z V + = 2 7 - - 7 ^ ] OXZ 3 E % l E  .}.{.A.V 7 t 2 & 7 = 7 7 3 z V + = 2 7 6  .E.W.^._ - v E = l E ",
"- 0 t 7 & 2 2 = c 7 @ = 3 = z 2 = = - ^ 4 g M.*X.XG.o.' l 2 = 3 J.W.!.OXm 2 2 2 c 7 @ = 3 = z 2 = = @ I 3 Q {.OX&X}.l l t 2 = - ",
"l 7 = & 2 @ + 0 4 0 n = = = 2 3 7 0 !.XX.X~.`.].}.P.}.].3 2 + = z 0 2 g 2 @ + t l W.#XXXXX.XI.3 7 3 7 2 = j }.oX|.T.z - - 2 + = ",
"t 6 = & 3 l = 7 m.{.{ A c.k t l l l W.-X#X@X{.W.`.&X&X&Xh @ . 0 t 6 = & 3 l v ).&X&XOX@X@X@X&X{.{ t l 3 + l B ).M.0 4 2 2 @ . 0 ",
"2 # @ & 7 t 2 Z &X-XXX].;X|.^ ( R R t v.).`.^.(.L.H.)..Xg 3 = 2 2 & @ & 0 T.#X#X@X@X@X@X@X@XOX#X&XZ.t 0 @ t c - 2 2 2 2 7 3 = 2 ",
"2 @ u @ 7 2 7 0 } v. X}.O.n.c l 3 6 6 7 - v.E.W.^._ l B 6 = t = 2 & u @ n ;XoXOX@X@X@X#X@X@X@XOX@X$X| 7 @ 7 7 = = = 0 7 2 = t = ",
"& = 2 & 4 2 b = 7 0 [ =XY.0 l = @ = 7 = + C {.OX&X}.l 2 = = 3 . & = 2 & z %X&X@XOXOXOXOXOXOXOX@X#X&XB.= + % = & & 7 7 2 = = 3 . ",
"z 4 2 @ c 3 & X 2 0 = = & 0 t 7 = = 4 @ @ B }.oX|.I.2 @ @ 2 & = z 4 2 @ c ! #X-X&X&X&X&X&X&X&X-X-X X^ @ @ 7 0 3 3 7 = @ @ 2 & = ",
"t 0 2 = + 2 @ @ @ 3 = % 3 = t = = @ @ & 7 0 V '.M.~ 4 t 7 0 = 2 t 0 2 = + f +._. X X X X X X X].W.Y.g & 7 0 0 0 3 ~ 2 0 7 0 = 2 ",
"& g 0 =   & u 0 t = + 3 t t + + = 2 0 t t 0 3 L 7 = t 3 4 3 c 7 & l 0 =   N Y.!.U.N.m.m.m.Z.I.W.(.v.0 t t 0 3 L 7 = t 3 4 3 c 7 ",
"= z 3 % o 3 0 u 3 7 @ 0 3 z 2 3 0 0 0 3 t x 7 0 @ 0 7 = & @ @ & = z 3 % o 5 @.(.'.(.^.(.(.(._.'.T.l 0 3 t x 7 7 @ 0 7 = & @ @ & ",
"= & = 7 z & 2 2 3 3 3 3 2 4 3 = 2 7 0 3 2 7 @ @ 0 6 g Z 6 @ + % = & = 7 z & f N.W.^.'.(.W.O.! Z 0 7 7 2 2 7 @ @ 0 6 2 & @ @ + % ",
"7 - 0 7 7 4 3 2 & = @ 7 & 3 = c @ 7 7 = 6 6 @ = 0 = B T.Z 7 & % 7 - 0 7 7 4 3 5 s d s v s 3 = c @ 7 7 = 6 6 @ = 0 = % @ @ 7 & % ",
"2 = z 7 0 = 0 2 2 @ = 2 @ 3 = 2 2 2 3 = = = = % 2 = @ W c l 2 3 2 = z 7 0 = 0 2 2 @ = 2 @ 3 = 2 2 2 3 = = = = % 2 = @ W c l 2 3 ",
"& = 3 0 & 0 3 u 2 2 0 u t X 2 7 l c 0 % 2 0 u 0 0 0 7 c 7 @ 7 b & = 3 0 & 0 3 u 2 2 0 u t X 2 7 l c 0 % 2 0 u 0 0 0 7 c 7 @ 7 b ",
"% = = = = = & & g u 7 z 2 t 4 3 0 n c = 0 t = = = z 0 4 @ @ 7 7 % = = = = = & & g u 7 z 2 t 4 3 0 n c = 0 t = = = z 0 4 @ @ 7 7 ",
"% = + 0 2 = = X c 3 = 2 u 0 & & = 2 = 6 t = 2 = = = = l 6 @ 3 7 % = + 0 2 = = X c 3 = 2 u 0 & & = 2 = 6 t = 2 = = = = l 6 @ 3 7 ",
"= % . = 7 & 0 t 3 = 2 = 7 2 2 2 & 2 4 % z = 6 2 = 3 6 v 3 = @ 7 = % . = 7 & 0 t 3 = 2 = 7 2 2 2 & 2 4 % z = 6 2 = 3 6 v 3 = @ 7 ",
"@ + @ 2 & = & 4 7 2 & @ 3 @ = = + @ 6 6 6 6 = = 7 O 4 2 = X @ & @ + @ 2 & = & 4 7 2 & @ 3 @ = = + @ 6 6 6 6 = = 7 O 4 2 = X @ & ",
"3 = = 3 2 = = 0 2 = = 7 0 3 c 7 & 7 ( 0 @ + @ @ = & & + 2 @ 2 2 3 = = 3 2 = = 0 2 = = 7 0 3 c 7 & 7 ( 0 @ + @ @ = & & + 2 @ 2 2 ",
"l 7 @ 7 0 3 7 2 % @ l 0 3 x 0 @ 2 z x t - = 6 0 3 3 2 = 3 3 2 7 l 7 @ 7 0 3 7 2 % @ l 0 3 x 0 @ 2 z x t - = 6 0 3 3 2 = 3 3 2 7 "
};
