/* XPM */
static char *xpm_[] = {
/* columns rows colors chars-per-pixel */
"64 64 243 2 ",
"   c #3F3021",
".  c #5B3B19",
"X  c #4E3619",
"o  c #653E15",
"O  c #453424",
"+  c #4A3726",
"@  c #4C3826",
"#  c #4E3B2A",
"$  c #4B3728",
"%  c #553E2C",
"&  c #593F2C",
"*  c #553B25",
"=  c #6D4315",
"-  c #6C461B",
";  c #69451C",
":  c #714715",
">  c #754916",
",  c #71471A",
"<  c #744A1A",
"1  c #7A4E1C",
"2  c #794D15",
"3  c #7C521C",
"4  c #78531A",
"5  c #745616",
"6  c #56402D",
"7  c #5B422E",
"8  c #5D4324",
"9  c #5D4431",
"0  c #5E4833",
"q  c #634424",
"w  c #6C4A24",
"e  c #62462C",
"r  c #654A2D",
"t  c #6C4C2C",
"y  c #674823",
"u  c #744D23",
"i  c #724F2C",
"p  c #794F21",
"a  c #6C512C",
"s  c #6A5225",
"d  c #745225",
"f  c #7C5323",
"g  c #74522C",
"h  c #7B552B",
"j  c #7C5B2C",
"k  c #785A28",
"l  c #614633",
"z  c #644A35",
"x  c #6A4D35",
"c  c #664C38",
"v  c #6A4E39",
"b  c #6C4F3A",
"n  c #6A4E39",
"m  c #714F32",
"M  c #6E5134",
"N  c #6D513A",
"B  c #6E513B",
"V  c #745334",
"C  c #7A5633",
"Z  c #7C5A34",
"A  c #71533A",
"S  c #72543C",
"D  c #76583D",
"F  c #7C5B3C",
"G  c #785838",
"H  c #7D612A",
"J  c #6C551D",
"K  c #6F5440",
"L  c #745641",
"P  c #765942",
"I  c #7B5C43",
"U  c #7E5E48",
"Y  c #775A46",
"T  c #7C614A",
"R  c #835A1B",
"E  c #8A5C1C",
"W  c #845816",
"Q  c #855B0E",
"!  c #8B6418",
"~  c #946B1B",
"^  c #986A17",
"/  c #9C741A",
"(  c #956B0E",
")  c #A87C0E",
"_  c #A47C1A",
"`  c #A67816",
"'  c #B97A1A",
"]  c #A96B18",
"[  c #815623",
"{  c #835A25",
"}  c #835B2B",
"|  c #8A5D28",
" . c #825C33",
".. c #825E3A",
"X. c #8C6323",
"o. c #8D632C",
"O. c #886828",
"+. c #976B27",
"@. c #947324",
"#. c #9C7728",
"$. c #856333",
"%. c #8A6235",
"&. c #84613C",
"*. c #8A643C",
"=. c #8B6A35",
"-. c #936A37",
";. c #9B7432",
":. c #957237",
">. c #A66C22",
",. c #A67A28",
"<. c #B57B25",
"1. c #A27934",
"2. c #815E43",
"3. c #805F4A",
"4. c #846244",
"5. c #8A6642",
"6. c #83634C",
"7. c #8D6948",
"8. c #947349",
"9. c #8A6B54",
"0. c #947459",
"q. c #926E4E",
"w. c #AD840D",
"e. c #B5890C",
"r. c #BD940C",
"t. c #AD8313",
"y. c #AC891D",
"u. c #A8831A",
"i. c #B38917",
"p. c #BE9915",
"a. c #BB9519",
"s. c #AA8526",
"d. c #B48827",
"f. c #B38E2F",
"g. c #C49C0B",
"h. c #C7960C",
"j. c #C9891A",
"k. c #D68D17",
"l. c #C39D1A",
"z. c #C79A14",
"x. c #D69818",
"c. c #C7860C",
"v. c #E39217",
"b. c #CDA50B",
"n. c #CFA809",
"m. c #D7A80C",
"M. c #DBB40C",
"N. c #D9B30A",
"B. c #CBA415",
"V. c #D4AD12",
"C. c #D9A717",
"Z. c #DBB515",
"A. c #CFB014",
"S. c #E3BB0B",
"D. c #E9B90C",
"F. c #F2BA0D",
"G. c #E2A816",
"H. c #EBBC12",
"J. c #E7B718",
"K. c #F1BA17",
"L. c #C68B29",
"P. c #C79726",
"I. c #D79829",
"U. c #C98B35",
"Y. c #D79B35",
"T. c #CB8F30",
"R. c #E5972B",
"E. c #DBA626",
"W. c #D9A736",
"Q. c #CCA223",
"!. c #E6AA2A",
"~. c #EBB627",
"^. c #F3B627",
"/. c #E4A637",
"(. c #E9B537",
"). c #F6BB37",
"_. c #F0AB27",
"`. c #ECC40C",
"'. c #EDC90C",
"]. c #E8C50A",
"[. c #F3CC0C",
"{. c #F2C70A",
"}. c #F5D30D",
"|. c #F9D60E",
" X c #E6C114",
".X c #EDC413",
"XX c #ECCA13",
"oX c #EBC31A",
"OX c #EDCB1A",
"+X c #E5C21F",
"@X c #F4CB14",
"#X c #F3CD1C",
"$X c #F5C619",
"%X c #F5D313",
"&X c #F9D415",
"*X c #F5D31A",
"=X c #F9D81A",
"-X c #EDD417",
";X c #EDC925",
":X c #F5CA27",
">X c #F4D423",
",X c #FADB23",
"<X c #F3D32C",
"1X c #F8D829",
"2X c #FBC939",
"3X c #F7D737",
"4X c #ECD134",
"5X c #F9E338",
"6X c #FAE930",
"7X c #BD9A58",
"8X c #F5B943",
"9X c #E8B04B",
"0X c #DFAB51",
"qX c #FECE43",
"wX c #FBCA47",
"eX c #F8DA46",
"rX c #F6D854",
"tX c #F8C951",
"yX c #FCE344",
"uX c #F8E749",
"iX c #FAE957",
"pX c #FBF455",
"aX c #F4CF64",
"sX c #F9E966",
"dX c #FBF367",
"fX c #FAE977",
"gX c #FCF777",
"hX c #F6EB87",
"jX c #FDF787",
"kX c #FBF698",
"lX c #FAEC92",
"zX c #FDFBAC",
"xX c #FCF8A9",
"cX c #FDF8B8",
"vX c #F9EEA6",
"bX c #FEFBC3",
"nX c #FDF9CB",
"mX c #FEFCDC",
"MX c #FDFAD6",
"NX c #FEFCE4",
"BX c #FEFDED",
"VX c #FEFEF4",
"CX c #FFFFFD",
/* pixels */
"U U @ b N 9 l 9 6 z v z 7 7 7 % N B c 9 z 9 b z l 7 9 7 l 7 z v U U @ b N 9 l 9 6 z v z 7 7 7 % N B c 9 z 9 b z l 7 9 7 l 7 z v ",
"N N v z l 9 l % 6 7 7 l z 7 % l N v v l O v 9.b 6.z z 7 z % N x N N v z l 9 l % 6 7 7 l z 7 % l N v v l O v 9.b 6.z z 7 z % N x ",
"v l v S N O l N v S z $ B N S 7 7 7 9 v z v 9 v v % % % 9 % v v v l v S N O l N v S z $ B N S 7 7 7 9 v z v 9 v v % % % 9 % v v ",
"9 N A A 6.7 l v l z U % S v z l A v b S L v v 9 N v S B v N 0 v 9 N A A 6.7 l v l z U % S v z l A v b S L v v 9 N v S B v N 0 v ",
"9 c l v % O 7 l l 9 7 7 l 9 9 S S S v z z & c z b b S v l l % # 9 c l v % O 7 l l 9 6 7 9 9 9 S S S v z z & c z b b S v l l % # ",
"9 l % 9 z 7 9 % l e c v V A l z z v & P S l 9 6 z B z z c z 9 z 9 l % 9 z 7 9 % l 7 z z b A l z z v & P S z 9 7 z B z z c z 9 z ",
"N 7 9 L v S S v * v A A M A v B N l z c S l l 9 z N v U b 9 v P N 7 9 L v B S z + z b N v N v B A z v c S z l l c N v U b 9 v P ",
"z 9 S v b A S G e F F 4.4.F S 7.% P D l % l l N N 3.L z v c K b z 9 S c v N S A % S S U I S S 7.7 I F x 7 x x A A 4.P z v c K v ",
"z 0 0.6.z c x V x G V 4.F ..2.F e A I P x % N N 6.z z l 9 9 l B l 0 0.3.l l 9 z l A N 6.D F 2.&.t F 5.4.V e S S 6.c z l 9 9 l B ",
"z 7 6.I t x x i i g g C ....G ..x I P v T 9 x P 0.z z 9 9 9 L z l 7 U L 7 9 9 l z S S F 4.&.G ..g ..F V 5.x V I 0.z z 9 9 9 L z ",
"b 7 G V G i C C w u w u h  .....M S 2.x l % N N B z l z # O v T c % N z v 7 v M z V Z .... . . .d d Z t t q G S S z l z #   v T ",
"z v V q.*...%.h p } -.| < p ..5.y g V S x l N I x x e l 9.7 P 9.l z N 9.P A D M t F g Z  .h  . .= - w w y t V 4.b x 7 9 9.6 L 9.",
"z V V V u } } [ [ i %.} } 3 } f h h i q.V S e x 6 4.F F F v z v x S S N t x V V *. .u p f 1 [ i Z h  .%.- u y t 7 4.S L S z 9 0 ",
"F t q ; u 1 1 f > = = o +.,.< 1 } } %.Z C V &.5.G 5.*.C V V r g &.G x t C g t %.} } } 3 < ~ W.aX7X1.;. .- w Z *.V 4.P z l z % 9 ",
"F t o . = , = : > = , , o <.X.3 f | %.} u *.%. . .&.} } h d ; =.-.$.C g $.:.} | | [ E +.W.2XY.| , < < o o [ }  .Z F m z z % + N ",
"t q . o ] L.>.E E : = : = , <.<.f } | | f o.%.| | { X.X.o.{ X.+.@.X.{ X.#.,.X.X.R W P.(./.^ , f f [ 1 < : [ %.}  .C V M A v l l ",
"t y u o > P.)./.I.L.d.+.[ i ;./.W.f > 3 2 E | E ~ E ~ / ~ ! / _ _ / ,.~ u.` ^ E Q z.j.>.[ * ; , - , > > = 1 { { } h ..F V z S e ",
"t g u > < 3 W.eXwXwX).).Y.L.U.Y.8XY.X.2 2 W W W ! ^ ! ) ) ! ` w.i._ ` ) r.) t.t.x.c.] ' <.>.+.,.<.+.{ 1 2 = < 1 f }  .C V M V @ ",
"&. .h 3 { = s.yXqXqXqXqX)._.I.U.U./.I.' ` ` ` ` _ Q.i.e.z.l.e.g.g.e.w.r.b.B.G.G.G.k.v._.^.^.(.8X8X9X0XU.f.+.{ 1 < f p u y C t z ",
"F &. .} 1 : @.yXqX).2X(./.0XY.I.W.I.k.I.I.k.k.G.^.:XJ.J..XoXB.N.M.Z.V.S.S.J.C.m.m.G.^.:X:X<X2XqXqXwXtXaXaX9X9XU.| | 1 f d Z t M ",
"t 4.*.} > = ,.yX2X/./.L.U.U.W.(.!.j.j.E.!.x.x.K.$X#X@X@X[.@XoX'.[.@XF.{.F.m.m.D.J.J.J.J.J.~.).2XeX2XqXtXaXfXfXsXtX(.<.- w t F V ",
"x 4.Z d < W W.eX).R.R.L.I.I.).).I.j.I.!.C.C.~.:X$X.X'.{.[.}.&X[.[.{.`.[.{.D.].`.@XoXJ.G.m.j.I.~.2X2X2X2XrXsXaX7Xf.W.Y.^ o . 8 r ",
"z t t d p ^ !.L.>.>.<.I.2X2X3X!.j.E.~.!.G.J.*X$XH.H.}.[.[.|.&X@X}.[.[.|.@X@X[.{.@X#X@XH.C.' j.E.^.2XqXqXqXf.X.4 f f R ^ : . . e ",
"S M V w o E E - = = > ^ E.3X2XI.j.E.:X;X;X:X@X}.F.H.*X>X[.,X6X%X,X,X%X&X#X}.}.[.`.[.[.:XwXE.z.z.x.~.qXtXT.4 : f { f - : o . q e ",
"M r C q . = < 3 [ 3 3 3 W s.P.I.j.k.^.1X$XK.H.}.=XH.OXuX*X1XsX=XiX5X=X>X*X&X&X@X[.{..X3X2X^.G.h.e.P.8X(.3 < f { o.f w  .w t t b ",
"e r t y . w u  .} | o.o.X.W ^ L.v.v.K.$XF.F.H.H.5X3X.XiXuX5XjX5XjXiX3X1X,X=X*X&X}.H.:X;XK.@X.Xx.^ +.I.L.= [ -.-.*.$.Z ..i q m 4.",
"7 x r e y y i g *.-.%.-.| +.^ ` ' x._.K.F.{.XXZ.oXfXeXuXhXpXkXgXzXdXuXuXuX1X>X&X.XJ.oX`.[.@X3X2Xa.R E <.3 | | } Z 7.F G r e V A ",
"7 l 7 V x t V q 7.Z C  .-.o.! ( w.r.J.^.H.'.XXOX;XeXkXsXvXkXxXbXnXjXgXgXsX5X6X>XZ. X}.[.$X2XeX3XE.! 5 _ R [ j h g M x I A e b A ",
"l 7 @ z S r F F V x V C  .} ! ^ ) g.S..XZ.Z.OX>X3XuXhXcXzXbXbXNXmXcXcXkXdXgXuX<X>X&X Xm.K.3X3X1XJ.w.( Q E f C C x V A U v l % N ",
"7 % % z e z e M S b t s $.{ X.~ ` e.n.].[.XXOX3XeXsXkXcXMXNXNXVXBXBXmXzXzXkXiXyX3X;XZ.b.H.=X*X#XH.w.Q W 3 h g x S % M x 9 @ % 7 ",
"z l 9 v z l 9 S z l l G %.+.s.y.t.p.B.M.`.*X;X4XfXhXkXbXNXVXCXCXCXCXVXNXbXlXjXiX3X>XOX'.[.&X>X#XC.` ~ X.R d r r z 7 7 # l & l z ",
"L v % b S z b l 7 6 P S C :.;./ i.l.V.Z.H.OX<XeXiXkXcXMXBXCXCXCXCXCXCXBXnXcXgXiX5X,X&X}.[.%X>X$Xh.( ~ +.O.Z G F v v l 9 z z l b ",
"U U @ b N 9 l 9 6 z b v r d O._ a.B.V.Z. XOX<XeXsXjXcXmXVXCXCXCXCXCXCXVXmXzXjXdXuX5X,X|.}.|.&X@Xm.r.i.u.,.O.$.M z 7 9 7 l 7 z v ",
"N N v z l 9 l % 6 7 7 t V k ~ y.l.V.S.].XX#X1XeXsXlXcXNXCXCXCXCXCXCXCXCXBXmXbXzXjXdX5X|.|.&X*XH.h.t._ @.4  .0.A 6.z z 7 z % N x ",
"v l v S N O l N v S x 8 $.+.s.i.z.V.S.'.%X5XsXjXlXvXbXmXVXCXCXCXCXCXCXCXmXzXjXsXyX,X&X%X&X*X.Xm.) / X.$.Z S l N v % % % 9 % v v ",
"9 N A A 6.7 l v l M :.H s.y.p.B.M.S.].'.%X,X3XeXsXhXvXMXBXCXCXCXCXCXCXCXVXbXgXpXyX1X*X*X*X.XD.h.t./ o.*.&.A b l N v S B v N 0 v ",
"9 c l v % O 7 l l l r d k O.@.s.l.n.S.`.&X=X>X3XrXfXcXnXmXVXCXCXCXCXCXVXMXnXkXpX3X1X*X@X`.F.G.t.t.,.+. .V 7 v z b b S v l l % # ",
"9 l % 9 z 7 9 % l e v M G $.@.y.z.b.N.`.&X*X;X4XrXhXhXxXnXNXVXCXCXVXVXCXMXkXkXjX5X,X&X[.@XK.h.) _ ,.! -...v 9 6 z B z z c z 9 z ",
"N 7 9 L v B B z @ z b S Z O.,.a.z.n.n.S.:X;X+X4XeXrXhXkXxXMXNXNXBXBXbXmXmXxXpX5X6X=X&X|.[.M.e._ #.O.$.G F z l 9 z N v U b 9 v P ",
"z 9 S c v N B A % S S &.:.#.s.P.e.i.t.C.1XoXXX;X4XeXsXsXkXkXzXnXnXNXxXjXnXkX6X6X,X=X&X.XS.N.g.d.! :.*.t 7 z l N N 3.L z v c L b ",
"l 0 0.3.l l 9 z 9 N N 5.=.;.1.,.^ / ` J.}.'.S.Z.;X1X3XsXdXdXgXxXzXbXjXdXsXcXuX,X=X&X'.b.t.p.l.a./ =.*.&.N 6 N N 6.z z l 9 9 l B ",
"l 6 U L 7 9 9 9 z N A F *.-.+.;./ t.g.`.[.V.B.Z.*XOX<X5X5XuXpXgXgXzXpXiXyXyXjX@X X'.S.M.l.,.#.s.@.;.=.V 4.9 x P 0.z z 9 9 9 L z ",
"z % N l v 7 z c 9 c V G $.-.:.#.t.g.n.J.2X(.oX[.XX X*X=X<X<X5XsXyXkX6X1XuX.X3X5XM.M.M.V.B.y.;.-.H $.=.M x % N v B z 9 z #   v T ",
"0 z v 9.L v S z 7 N z V &. .;.d.e.r.C.~.(.J.`.[..X.X%XXX#X=X>XeX=XdX,X#X3X;XM.-X].V.B.a.a.u.s.8.y a M V x 0 N P z z 7 9 9.6 L 9.",
"0 N S v e l z z 2.S 7 m  .| ,.` ` Q.^.x.G.S.N.n.S.[.'.S.%X%XOX*X@X6X=XXXXX-XV.V.'.V.p.y.,.@.;.H g t 7 6.z v 6 9 # I B L S z 9 0 ",
"L v l 7 z 7 7 F V F 7.g j { ! ~ d.P.] c.F.S.g.r.b.'.*X X[.`.H.'.'.XX|.`.S.].A.B.B.A.P.y.@.O.O.j Z M N l l 0 S I z Y L 0 0 z # 9 ",
"S c l 7 b I x G 5.&.5.*.j 3 E +.L.! Q w.H.#XB.w.n.N.<X*X].M.n. X].Z.'.S.V.Z.B.a.a.y.f.s.O.s $.&.F D D z # L N c z B z 9 l % O N ",
"z 7 7 r S F i C  . .} } f 3 X.o.f E ( ) ) G.~.p.n.z.:X*XS.b.p.V.M.p.V.M.B.l.a.y.s.#.@.O.k Z q.0.q.9.S B % S P 0 l 9 l z v z 9 l ",
"l 7 F 7 V t V d h h f 1 > 1 ,.w 1 ! / / ! ^ v.K.K.^.$XD.g.w.y.p.b.u.a.g.y.u.s.#.#.+.O.k s C F D v N v N % v v 7 9 9 N v z 9 S 9 ",
"7 z z r t t g ; , f R < = +.1 , 3 X.+.X.W 2 Q c.!.!.C.e.) ^ @./ i.@.@.y.#.O.;.H $.$.j a a G F l 7 l v 7 # 6 9 7 7 b b l 9 9 z O ",
"P V r 8 V y . . f ,.d.W < , 1 f f } %.{ { X.~ 4 r { ! ! ! ! { @.s.O.O.! #.H k J j Z r r e D D v l l v % % b N z z b 9 % % z 7 9 ",
"S S z e . q . . E <.X.o ; < f p f d d } %.o.X.{ - { ! R R f f O.#.$.j H 5 k y s q M r 7 M l S l l 6 % 7 v N N B z q.z N v N 9 z ",
"7 P S r X q w ; 3 W = = p h w y d C  .*.&. .h %.h R X.f d g &.Z k F D a 8 r F V F z % x S S % % 9 z N S S N z 3.v 9 S z v z I v ",
"9 I v e 8 t i d w u ; u u  .g C Z F F V ..5.G Z w  .j g y e 7 r a I v 7 8 a A F x N 7 A x P l z N N N z S U v b % N v 9 7 % % 7 ",
"9 7 9 S F t t i d g d i i C V x m V S x x S r t F G g t r e 7 e r 7 9 N F e z z z z z z l c z 9 l v v l l b % % N c l 7 % % # 6 ",
"N z S N A V V m t t y G t V x 4.7 A A l v N 7 x D x e e e A 7 7 N z N c N N c 0 7 9 % b 7 z 9 I % v v 9 c c % 9 N 9 6 % % v 7 6 ",
"z 9 P N S x F M V r x V e M z z z z x l 9 9 9 7 v l 6 q.I P z x z 9 P N N 9 N z l % 9 l % z 9 l l l z 9 9 9 9 6 z 9 % 9.P L z z ",
"7 9 x N 7 S b F x x S F S * z b L I B 6 z S D S B N N I b % v U 7 9 x N 7 N z S l l N S A + z v L P B 6 z B D B B N c I v % v U ",
"6 9 9 9 9 9 e 7 L F N I l S v z S U P 9 S S 9 9 9 I N b & % v b 6 9 9 9 9 9 7 7 K S v Y l S v z B U P 9 B S 9 9 9 Y N v % % v b ",
"6 9 # N l 9 9 @ I z 7 l S S 7 7 9 l 9 c S 9 z 9 9 9 9 L c % z v 6 9 # N l 9 9 + I z 9 l S B 7 7 9 l 9 c S 9 z 9 9 9 9 L c % z v ",
"9 6 O 9 v 7 B S z 9 l 9 v z l z 7 l x 6 P 9 c l 9 z c Y c 9 % v 9 6 O 9 v 7 B S z 9 l 9 v z l z 7 l x 6 P 9 c l 9 z c Y c 9 % v ",
"% # % l 7 9 7 v v z 7 % z % 9 9 # % c c c c 9 9 v # x z 9 + % 6 % # % l 7 9 7 v v z 9 % z % 9 9 # % c c c c 9 9 v # x z 9 + % 6 ",
"z 9 9 z l 9 9 B z 9 9 b N z P b 7 v 0.B % # % % 9 7 7 # l % l z z 9 9 z l 9 9 B z 9 9 b N z P b 7 v 0.B % # % % 9 7 7 # l % l z ",
"L v % v B z v l 6 % L N z U B % l P U A 0 9 c N z z l 9 z z l b L v % v B z v l 6 % L N z U B % l P U A 0 9 c N z z l 9 z z l b "
};
