/* XPM */
static char *xpm_[] = {
/* columns rows colors chars-per-pixel */
"64 64 206 2 ",
"   c #3E3020",
".  c #463424",
"X  c #493726",
"o  c #4C3927",
"O  c #4D3A2A",
"+  c #4B3728",
"@  c #543E2C",
"#  c #583F2C",
"$  c #593A3F",
"%  c #56412E",
"&  c #5A422E",
"*  c #5D4227",
"=  c #5D4431",
"-  c #5E4835",
";  c #554232",
":  c #65492E",
">  c #6B4C2E",
",  c #62472B",
"<  c #72522E",
"1  c #614633",
"2  c #644935",
"3  c #694D36",
"4  c #62463A",
"5  c #654C39",
"6  c #6A4E39",
"7  c #714F30",
"8  c #6F5133",
"9  c #6D513B",
"0  c #66513C",
"q  c #745334",
"w  c #795635",
"e  c #7C5937",
"r  c #72543D",
"t  c #79573A",
"y  c #75583E",
"u  c #7C5A3C",
"i  c #6F4F2E",
"p  c #5E3E41",
"a  c #6B4D46",
"s  c #664744",
"d  c #6C5442",
"f  c #6E5946",
"g  c #6D5B4A",
"h  c #685345",
"j  c #745641",
"k  c #765943",
"l  c #7E5E46",
"z  c #7A5B43",
"x  c #745C4B",
"c  c #7E5E49",
"v  c #7C5D49",
"b  c #71564A",
"n  c #735852",
"m  c #76614D",
"M  c #7C614C",
"N  c #776251",
"B  c #7B6554",
"V  c #7F6854",
"C  c #7D6A59",
"Z  c #815E3C",
"A  c #825D32",
"S  c #84613E",
"D  c #8B663B",
"F  c #98703E",
"G  c #825F45",
"H  c #805F4A",
"J  c #856343",
"K  c #83634C",
"L  c #8A6845",
"P  c #936C43",
"I  c #98774C",
"U  c #876750",
"Y  c #866A55",
"T  c #8B6C53",
"R  c #836B5A",
"E  c #84675B",
"W  c #916E51",
"Q  c #8B715D",
"!  c #85715D",
"~  c #94745C",
"^  c #9B7959",
"/  c #815A66",
"(  c #8B6F61",
")  c #8B6F69",
"_  c #866C66",
"`  c #837462",
"'  c #8D7562",
"]  c #8D7C6B",
"[  c #8B7966",
"{  c #917F6A",
"}  c #987F67",
"|  c #916E77",
" . c #926E78",
".. c #937D73",
"X. c #997F7B",
"o. c #977B7D",
"O. c #B9893A",
"+. c #BA9B38",
"@. c #FCA501",
"#. c #FCAB01",
"$. c #F6AC0A",
"%. c #F5B303",
"&. c #FBB501",
"*. c #F6BC02",
"=. c #FBBB02",
"-. c #F4B80A",
";. c #F3A616",
":. c #F9B81B",
">. c #E8A716",
",. c #D89929",
"<. c #D89E34",
"1. c #CCA929",
"2. c #D9A83D",
"3. c #D4AE27",
"4. c #E4A222",
"5. c #E4BA28",
"6. c #F8B528",
"7. c #FDBC34",
"8. c #FDB634",
"9. c #F5C401",
"0. c #FAC402",
"q. c #F6CB02",
"w. c #FBCD03",
"e. c #FBCB0B",
"r. c #F9C50A",
"t. c #FBD203",
"y. c #F8D20A",
"u. c #FAC717",
"i. c #FAD715",
"p. c #FCC724",
"a. c #F9DC23",
"s. c #F2CA2C",
"d. c #FBE026",
"f. c #FCE63A",
"g. c #A98948",
"h. c #B4954C",
"j. c #BF9846",
"k. c #AF8B51",
"l. c #8E806E",
"z. c #95826E",
"x. c #9A826C",
"c. c #948372",
"v. c #9B8374",
"b. c #998976",
"n. c #9C837A",
"m. c #9E8C7A",
"M. c #978975",
"N. c #9D937E",
"B. c #A28A77",
"V. c #A2907D",
"C. c #CC9B45",
"Z. c #D4B345",
"A. c #D1AD48",
"S. c #FCE94B",
"D. c #FDEE5C",
"F. c #FDED62",
"G. c #9A7C81",
"H. c #9F8684",
"J. c #9C9380",
"K. c #A08684",
"L. c #A58F85",
"P. c #A48B8C",
"I. c #A49581",
"U. c #AA9A85",
"Y. c #AC9D8D",
"T. c #A89885",
"R. c #ACA28E",
"E. c #B0A08C",
"W. c #B4A593",
"Q. c #B5A995",
"!. c #B8AB96",
"~. c #BAAC9B",
"^. c #B7A99D",
"/. c #BEB29D",
"(. c #BDB4A3",
"). c #C1B49F",
"_. c #C2B4A3",
"`. c #C4BAA5",
"'. c #C6BDAA",
"]. c #CABEAB",
"[. c #FDFB9B",
"{. c #FDF382",
"}. c #CCC2AD",
"|. c #CDC2B4",
" X c #CFCCB5",
".X c #D3CBB6",
"XX c #D3CCB9",
"oX c #D6D3BD",
"OX c #D9D5BE",
"+X c #FEF9AB",
"@X c #FDFAB1",
"#X c #D7D7C1",
"$X c #D9D6C2",
"%X c #DADAC3",
"&X c #D7D8C2",
"*X c #E1DDC4",
"=X c #E0DDC9",
"-X c #E3E4CD",
";X c #E7E7D1",
":X c #E7E9D1",
">X c #EBEDD5",
",X c #F0F2DA",
"<X c #FFFDD2",
"1X c #FEFFC7",
"2X c #FFFFFF",
"3X c #FFFFF6",
/* pixels */
"l l o 6 9 = 1 = % 2 6 1 & & & @ 9 9 3 = 2 = 6 2 1 & = & 1 & 2 3 l l o 6 9 = 1 = % 2 6 1 & & & @ 9 9 3 = 2 = 6 2 1 & = & 1 & 2 3 ",
"9 9 6 2 1 = 1 @ % & & 1 1 & @ 1 9 6 6 1 . 3 T 6 K 2 1 & 2 @ 9 3 9 9 6 6 1 = 1 @ % & & 1 1 & @ 1 9 6 6 1 . 3 T 6 K 2 1 & 2 @ 9 3 ",
"3 1 3 r 9 . 1 9 3 r 2 + 9 9 r & & & = 3 2 6 = 6 3 @ @ @ = @ 6 3 3 1 3 Q Y.g 1 9 3 r 2 + 9 9 r & & & = 3 2 6 = 6 3 @ @ @ = @ 6 3 ",
"= 9 r r K & 1 6 1 2 c @ y 3 2 1 r 3 6 r j 6 6 = 9 6 r 9 6 9 - 6 = 9 r M } d 1 6 1 2 c @ y 3 2 1 r 3 6 r j 6 6 = 9 6 r r 6 9 - 6 ",
"= 3 1 6 @ . & 1 1 = % & = = = r r r 6 2 2 # 5 1 6 6 r 3 1 1 @ O = 3 1 6 @ . & 1 1 = % & = = = r r y 6 2 2 # 5 1 6 6 r 3 1 1 @ O ",
"= 1 @ = 2 & = @ 1 & 2 2 6 r = 1 2 3 # k r 1 = % 2 9 2 2 5 2 = 1 = 1 @ = 2 & = @ 1 & 2 2 6 r = 1 2 3 # k r 1 = % 2 9 2 2 5 2 = 1 ",
"9 & = j 6 9 9 2 X 1 6 6 3 9 2 9 9 1 2 2 y 1 1 = 2 9 3 l 6 = 6 z 9 & = j 9 r 9 b.(.b 6 6 3 9 2 9 9 1 2 2 y 1 1 = 2 9 3 l 6 = 6 z ",
"2 = r 3 6 9 9 r @ r r z z r 6 K O k y = @ 1 1 9 9 G j 2 6 5 d 6 2 = r 3 6 j I.XXOX|.V z z r 6 K O k y = @ 1 1 9 9 G j 2 6 5 d 6 ",
"1 - ~ H 1 1 = 2 = 9 5 c r y j y & 9 z k 3 @ 9 9 K 2 2 1 = = 1 9 1 - ~ H 1 5 |.-X#X}.C c 9 y j y & 9 z W.:X` 9 9 K 2 2 1 = = 1 9 ",
"1 % c j & = = = 1 9 6 r k y 3 r = j j 5 M = 3 v ( b b a 4 = j 1 1 % c z b 4 / ~.W.E.z.k k j 3 r = z m.X.|..Xz.] ~ 1 1 = = = j 1 ",
"2 @ 9 1 6 & 2 3 = 2 6 r r r r r = 6 z 9 B n v.W./.`.~.W.X.$ 3 M 2 @ 9 6  X(.K.L./.~._._.z.r r r = b XX,X'.oX>X-XR 1 = 1 O   3 M ",
"- 1 6 T k 6 r M.(.m = 6 6 2 k M O = 6 I.`.)./././.~./.`./.o.a Y - 1 6 Q -X-X-X_.W.}.&X%X>XR.v M O = x c.g C }.v.2 1 & = Y % j Y ",
"- 9 r 6 & 5 N. XOX|.h = 2 = k 1 = = { /.W.I.B.v.v.v.n.U.!.Y.n - - 9 r 9 `.|.P.|.'._.^.XXoXQ.M 1 = = @ K 2 6 % = O z 9 j r 1 = - ",
"j 6 = & 1 - |.-X#X}.' = = = 1 2 6 m E.W.'..X.X.X.X.X.X.X).X.p = j 6 = = R  .G.XX;Xm.v - x 2 1 2 3 2 6 1 = - r z 1 k j 1 - 1 O = ",
"r 5 = = x k / ~.W.E.v.k = O r j j ' .X>X:X-X-X-X-X-X-X-X:X%Xn 9 j 5 = = 6 Q #X) Q 9 k j = O r j r r j 2 O j 9 5 2 9 2 = 1 @ . 9 ",
"1 # @ 2 XX(.K.L./.~._._.] 6 T ~ U U.-X%X&X#X#X#X#X#X#X#X&X-X=X9 1 # @ & 6 r V 9 9 6 1 2 = 3 T ~ K U r 9 @ r z - 1 1 1 1 6 2 = 1 ",
"1 @ y 5 -X-X-X_.W.}.&X%X>XR.z j 2 ] *X&X#X&X&X&X&X&X&X&X#XOX,Xd 1 @ y @ 6 1 6 5 9 3 3 # @ 3 k j 2 5 5 9 = 6 m.(.f = 9 6 1 = r = ",
"& = 1 1 '.|.P.|.'._.^.XXoX!.z = @ = ' -X%X#X&X&X&X&X&X&X%X%XV.X & = 1 & 3 1 c = 6 9 1 = = 9 j = @ = 6 = ; N. XOX}.B 6 1 = = 2 . ",
"k 3 1 % ' | G.XX;Xm.4 1 b k r 6 = = 3 N '.-X&X&X&X#X-X=X^.M & = k 3 = @ z 2 & X 1 9 = = & 9 r 6 = = 3 @ - |.-X#X}.R = @ @ 1 & = ",
"r 9 1 = % B #X_ n 2 1 % 2 = r = = @ @ & 6 U.oXoXoX*XE.k 6 9 = 1 M j 2 = O 1 @ @ @ 2 = % 2 = r = = @ @ b 6 / ~.W.E.B.6 9 6 9 = 1 ",
"& d 9 =   & Q j r = O 2 r r O O = 1 9 r r 9 2 H 6 = r 2 3 2 z m OX!.Q.N.. & y 9 r = O 2 r r O O = 1 j XX(.K.L./.~._._.{ 9 2 z 6 ",
"= k 2 = o 2 9 y 2 6 @ 9 2 k 1 2 9 9 9 2 r l 6 6 @ 9 6 = & @ @ 0 [ }.|.] O 2 9 y 2 6 @ 9 2 k 1 2 9 9 x -X-X-X_.W.}.&X%X>XR.= @ & ",
"= & = 6 k & 1 1 2 2 1 2 1 3 2 = 1 9 6 1 1 6 @ @ 9 5 1 & @ @ O % = g c.9 k & 1 1 2 2 1 2 1 3 2 = 1 6 9 '.|.P.|.'._.^.XXoXW.- O % ",
"6 - 9 6 6 3 2 1 & = @ 6 & 2 = z @ 6 6 = 5 5 @ = 9 = % @ @ 6 & % 6 - 9 6 6 3 3 1 & = @ 6 & 2 = z @ 6 9 R | G.XX;Xm.5 = g - 6 & % ",
"1 = k 6 9 = 9 1 1 @ = 1 @ 2 = 1 1 1 2 = = = ; % 1 = @ T z z 2 3 2 = z 9 9 & 9 1 1 @ = 1 @ 2 = 1 1 1 2 2 B #X_ B 5 = @ T z j 1 2 ",
"& = 1 9 & 9 2 y Y.:X[ y r O 1 6 j z 9 % 1 9 y r 9 r r J q , q L : 3 8 r : q 8 y 2 2 9 y r + 1 6 j z 9 % 1 ! k 9 9 9 6 z 6 @ 6 c ",
"% = = = = = 1 ..n.|..Xb.` k 3 2 9 v z = r y 2 3 8 J u e > > u Z i w q q q i > > z y 9 z 1 r 3 2 9 v z = 9 j = = = k 9 3 @ @ 6 6 ",
"% = O 9 1 = 9  X,X'.oX>X-XR & & = 1 = 6 y 3 q 7 q S I k.h.+.1.3.1.1.1.j.g.I S , L w 3 3 y r & & = 1 = 5 r = 1 = = = = j 5 @ 2 6 ",
"= % . = 6 & 9 B c.f R ].z.5 1 1 & 1 3 , J q L k.A.5.r.=.&.=.9.q.q.9.9.*.%.-.5.Z.h.D w 3 q 2 1 1 & 1 3 % k = 5 1 = 2 5 x 2 = @ 6 ",
"@ O @ 1 & = & 3 6 1 & @ 2 @ = = O % 9 t u g.5.u.=.#.#.#.&.w.i.d.a.y.q.0.-.:.:.$.*.s.g.i w * = = O @ 5 z.}.! f l.m + 3 1 = X @ & ",
"2 = = 2 1 = = 9 1 = = 6 9 2 z 6 & 6 ^ Z g.9.i.:.@.@.#.&.0.i.F.@X+XS.i.e.u.p.7.8.;.*.q.h.Z 8 z 6 & 6 x.-X>XoX'.,X X0 & O 1 @ 1 1 ",
"j 6 @ 6 9 2 6 = % @ j 9 2 l 9 @ 1 z J Z Z.t.a.:.@.@.#.&.q.d.+X2X2X<XD.y.e.u.7.7.6.-.t.Z.w J r @ 1 k K [ l..X|.n.c.9 1 = 2 2 1 6 ",
"l l o 6 9 = 1 = % 6 R 1 & & & @ 9 r w q A.0.i.s.:.$.#.=.y.S.<X2X2X2X{.i.q.u.7.7.:.w.w.2.7 : & @ 9 9 6 = 2 ` :XY.1 & = & 1 & 2 3 ",
"9 9 6 2 1 = 1 % N _ #XB 5 & @ 1 9 9 t w C.#.=.e.i.p.u.r.y.f.+X2X2X3XD.y.e.p.p.u.w.0.&.2.w > & 1 9 6 6 1 . 3 T 6 K 2 1 & 2 @ 9 3 ",
"3 1 3 k B O 6 m.;XXXG.| ( 9 r & & & 3 w j.@.#.#.&.r.e.e.y.i.S.[.1X[.f.t.e.r.r.&.&.#.@.O.S t y & & & = 3 2 6 = 6 3 @ @ @ = @ 6 3 ",
"= 9 r !.OXXX^._.'.|.P.|.'.9 2 1 r 3 q Z I ,.@.#.@.@.#.&.0.q.y.i.f.a.i.0.&.#.@.@.@.@.4.L S q 3 1 r 3 6 r j 6 6 = 9 6 r 9 6 9 - 6 ",
"= 3 1 R.>X%X&X}.W._.-X-X-Xd = r r y 9 q w e g.,.;.@.@.@.%.*.9.9.q.9.=.&.@.@.@.;.,.O.J > 3 1 = r r r 6 2 2 # 5 1 6 6 r 3 2 2 @ O ",
"= 1 @ - { (._.~./.L.K.(.XXk = 1 2 3 # z u q 7 w F k.C.<.4.>.%.%.%.%.>.4.<.C.g.D Z < w q q r = 1 2 3 # k r 1 = % 6 R 2 2 5 2 = 1 ",
"9 & = j 6 j z.E.W.~./ d m 9 2 9 9 1 2 5 y 3 3 q w u e P D A I k.^ L A F S S Z w * q q r 3 9 2 9 9 1 2 2 y 1 1 B ) #XR K 6 = 6 z ",
"2 = r 3 6 9 R }.#X-X|.v z r 6 K O k y = # 2 2 q q L J w t q z e w 3 Z w t u y t & y r z z r 6 K O k z x = 6 m.;XXXG. .R 9 5 d 6 ",
"1 - ~ H 1 1 b }.OX XN.M 9 y j y & 9 z k 3 @ 9 9 K 3 3 3 1 2 3 y 3 2 ^ K 2 2 1 2 1 9 5 c 9 y j y & j !.OXXX^._.'.|.P.|.'.1 2 1 9 ",
"1 % c j & = = f (.m.6 j z y 3 r = j j 5 M = 3 k ~ 1 1 = 1 - j 2 1 & c j & = = = 1 9 6 r k y 3 r = z W.>X%X&X}.W._.-X-X-Xd f j 1 ",
"2 @ 9 1 6 & 2 3 = 2 6 r r r r r = 6 z 1 = @ 9 6 j C = 1 O   3 M 6 l.B 1 6 & 2 3 = 2 6 r r r r r = 6 z ] (._.~./.L.H.(.XX; + 3 M ",
"- 1 6 T j 6 r 1 & 6 = 6 6 2 k M O = 1 6 - - 6 Q ) #XB 2 Y % j Y { |.}.V.M 6 r 1 & 6 = 6 6 2 k M O = 1 6 5 { E.W.~./ - x Y = j Y ",
"- 9 r 6 & 1 1 = z 6 @ = 2 = k 1 = = - Q 3 d b.;XXXG. .( j 1 = 2 J.W.!.#Xb 1 1 1 z 6 @ = 2 = k 1 = = @ K 2 R }.#X-X|.j j r 1 = - ",
"j 6 = & 1 @ O 9 3 9 v = = = 1 2 6 9 !.oXXX^._.'.|.P.|.'.2 1 O = k 9 1 d 1 @ O r j W.%XoXoXXXI.2 6 2 6 1 = g |.OX XT.k - - 1 O = ",
"r 5 = & 2 j = 6 v.}.' V l.h r j j j W.>X%X&X}.W._.-X-X-Xf @ . 9 r 5 = & 2 j x (.-X-X#X&X&X&X-X}.' r j 2 O j m (.b.9 3 1 1 @ . 9 ",
"1 # @ & 6 r 1 B -X>XoX'.,X XQ ~ U U r z.(._.~./.L.H.(.XXd 2 = 1 1 & @ & 9 T.%X%X&X&X&X&X&X&X#X%X-XB.r 9 @ r z - 1 1 1 1 6 2 = 1 ",
"1 @ y @ 6 1 6 9 [ z..X|...c.z j 2 5 5 6 - z.E.W.~./ j m 5 = r = 1 & y @ v ,XOX#X&X&X&X%X&X&X&X#X&X*X{ 6 @ 6 6 = = = 9 6 1 = r = ",
"& = 1 & 3 1 c = 6 9 ` :XY.9 j = @ = 6 = O N }.#X-X|.j 1 = = 2 . & = 1 & k =X-X&X#X#X#X#X#X#X#X&X%X-Xm.= O % = & & 6 6 1 = = 2 . ",
"k 3 1 @ z 2 & X 1 9 = = & 9 r 6 = = 3 @ @ m |.OX XI.1 @ @ 1 & = k 3 1 @ z E %X:X-X-X-X-X-X-X-X:X>X.XQ @ @ 6 9 2 2 6 = @ @ 1 & = ",
"r 9 1 = O 1 @ @ @ 2 = % 2 = r = = @ @ & 6 9 M `.b.W 3 r 6 9 = 1 r 9 1 = O s X.)..X.X.X.X.X.X.X'.W.Y.d & 6 9 9 9 2 W 1 9 6 9 = 1 ",
"& d 9 =   & y 9 r = O 2 r r O O = 1 9 r r 9 2 H 6 = r 2 3 2 z 6 & j 9 =   n Y.!.U.n.v.v.v.B.I.W./.z.9 r r 9 2 H 6 = r 2 3 2 z 6 ",
"= k 2 % o 2 9 y 2 6 @ 9 2 k 1 2 9 9 9 2 r l 6 9 @ 9 6 = & @ @ & = k 2 % o 4 o./.`./.~./././.).`.T.j 9 2 r l 6 6 @ 9 6 = & @ @ & ",
"= & = 6 k & 1 1 2 2 2 2 1 3 2 = 1 6 9 2 1 6 @ @ 9 5 d B 5 @ O % = & = 6 k & s n.W.~.`./.W...E B 9 6 6 1 1 6 @ @ 9 5 1 & @ @ O % ",
"6 - 9 6 6 3 2 1 & = @ 6 & 2 = z @ 6 6 = 5 5 @ = 9 = m T.B 6 & % 6 - 9 6 6 3 2 4 s a s x s 2 = z @ 6 6 = 5 5 @ = 9 = % @ @ 6 & % ",
"1 = k 6 9 = 9 1 1 @ = 1 @ 2 = 1 1 1 2 = = = = % 1 = @ T z j 1 2 1 = k 6 9 = 9 1 1 @ = 1 @ 2 = 1 1 1 2 = = = = % 1 = @ T z j 1 2 ",
"& = 2 9 & 9 2 y 1 1 9 y r X 1 6 j z 9 % 1 9 y 9 9 9 6 z 6 @ 6 c & = 2 9 & 9 2 y 1 1 9 y r X 1 6 j z 9 % 1 9 y 9 9 9 6 z 6 @ 6 c ",
"% = = = = = & & d y 6 k 1 r 3 2 9 v z = 9 r = = = k 9 3 @ @ 6 6 % = = = = = & & d y 6 k 1 r 3 2 9 v z = 9 r = = = k 9 3 @ @ 6 6 ",
"% = O 9 1 = = X z 2 = 1 y 9 & & = 1 = 5 r = 1 = = = = j 5 @ 2 6 % = O 9 1 = = X z 2 = 1 y 9 & & = 1 = 5 r = 1 = = = = j 5 @ 2 6 ",
"= % . = 6 & 9 r 2 = 1 = 6 1 1 1 & 1 3 % k = 5 1 = 2 5 x 2 = @ 6 = % . = 6 & 9 r 2 = 1 = 6 1 1 1 & 1 3 % k = 5 1 = 2 5 x 2 = @ 6 ",
"@ O @ 1 & = & 3 6 1 & @ 2 @ = = O @ 5 5 5 5 = = 6 + 3 1 = X @ & @ O @ 1 & = & 3 6 1 & @ 2 @ = = O @ 5 5 5 5 = = 6 + 3 1 = X @ & ",
"2 = = 2 1 = = 9 1 = = 6 9 2 z 6 & 6 ~ 9 @ O @ @ = & & O 1 @ 1 1 2 = = 2 1 = = 9 1 = = 6 9 2 z 6 & 6 ~ 9 @ O @ @ = & & O 1 @ 1 1 ",
"j 6 @ 6 9 2 6 1 % @ j 9 2 l 9 @ 1 k l r - = 5 9 2 2 1 = 2 2 1 6 j 6 @ 6 9 2 6 1 % @ j 9 2 l 9 @ 1 k l r - = 5 9 2 2 1 = 2 2 1 6 "
};
