/* XPM */
static char *xpm_[] = {
/* columns rows colors chars-per-pixel */
"64 64 242 2 ",
"   c #4F3C23",
".  c #4D3D1F",
"X  c #6E581C",
"o  c #7B621A",
"O  c #5C452A",
"+  c #5A4626",
"@  c #644B2C",
"#  c #654B2A",
"$  c #6C5425",
"%  c #6D532C",
"&  c #7A5E24",
"*  c #72562C",
"=  c #755A2A",
"-  c #7A5D2B",
";  c #745A25",
":  c #664B31",
">  c #6A4E33",
",  c #6D5133",
"<  c #6E5338",
"1  c #725535",
"2  c #7B5D33",
"3  c #775A38",
"4  c #7E6324",
"5  c #7E612B",
"6  c #7E6132",
"7  c #7E613C",
"8  c #7F6045",
"9  c #876B1D",
"0  c #8E721E",
"q  c #93761D",
"w  c #96791B",
"e  c #9B7D1D",
"r  c #977B14",
"t  c #826623",
"y  c #846924",
"u  c #8A6C24",
"i  c #83652C",
"p  c #86692A",
"a  c #8B6B2C",
"s  c #8E7122",
"d  c #8E712A",
"f  c #947424",
"g  c #9C7C23",
"h  c #93732B",
"j  c #9B7A2A",
"k  c #977827",
"l  c #846533",
"z  c #8A6C33",
"x  c #876838",
"c  c #977733",
"v  c #8F6F36",
"b  c #A07F26",
"n  c #A17F31",
"m  c #886844",
"M  c #99784D",
"N  c #9E801B",
"B  c #9B8016",
"V  c #BD9D0D",
"C  c #AB8C16",
"Z  c #A3831C",
"A  c #AB8B1B",
"S  c #A68818",
"D  c #B18E1C",
"F  c #B08F17",
"G  c #AF9014",
"H  c #AF901C",
"J  c #B49414",
"K  c #B99615",
"L  c #BC9B14",
"P  c #B4931B",
"I  c #B9961A",
"U  c #BC9B1B",
"Y  c #9F8123",
"T  c #9D8233",
"R  c #A48323",
"E  c #A88623",
"W  c #AD8B22",
"Q  c #A3822A",
"!  c #AB8929",
"~  c #B18E23",
"^  c #B59321",
"/  c #BA9826",
"(  c #A78536",
")  c #B59533",
"_  c #BFA019",
"`  c #C19E15",
"'  c #C19E1A",
"]  c #C4A20E",
"[  c #CDAB0E",
"{  c #C9A60E",
"}  c #D1AE0E",
"|  c #D5B30D",
" . c #DAB60D",
".. c #DDBB0C",
"X. c #D5B90E",
"o. c #C5A313",
"O. c #C9A613",
"+. c #CDAA13",
"@. c #C4A21A",
"#. c #CCAB1B",
"$. c #C8A718",
"%. c #D1AD12",
"&. c #D2AE1B",
"*. c #D5B213",
"=. c #D9B512",
"-. c #DDBA12",
";. c #DEBD1B",
":. c #D4B31B",
">. c #CCB10F",
",. c #E1BD0C",
"<. c #E1BE14",
"1. c #E2BE1C",
"2. c #C29E2C",
"3. c #CCAB22",
"4. c #C7A627",
"5. c #D2AE23",
"6. c #D9B827",
"7. c #C7A836",
"8. c #D1B133",
"9. c #E1BE21",
"0. c #DCC30E",
"q. c #E4C20C",
"w. c #EAC60C",
"e. c #EDCB0C",
"r. c #E9C708",
"t. c #F1CE0C",
"y. c #F1CD07",
"u. c #EBD30C",
"i. c #F4D30D",
"p. c #F7D90C",
"a. c #E5C313",
"s. c #EAC614",
"d. c #ECCB14",
"f. c #E5C31B",
"g. c #ECCC1B",
"h. c #E9C619",
"j. c #F1CE13",
"k. c #F1CE1B",
"l. c #EDD317",
"z. c #F4D313",
"x. c #F8D614",
"c. c #F3D31B",
"v. c #F5DA1B",
"b. c #F9DA1C",
"n. c #F7DA15",
"m. c #F8E217",
"M. c #F3E50C",
"N. c #E4C423",
"B. c #ECCC23",
"V. c #ECCC2B",
"C. c #E7C727",
"Z. c #F0CF22",
"A. c #EED227",
"S. c #F3D423",
"D. c #F5DA24",
"F. c #F9DC23",
"G. c #F2D42B",
"H. c #F4DA2C",
"J. c #F9DC2B",
"K. c #F8D723",
"L. c #EACC33",
"P. c #E6C837",
"I. c #EED233",
"U. c #EED23B",
"Y. c #F2D434",
"T. c #F4DB33",
"R. c #F9DC34",
"E. c #F2D53B",
"W. c #F5DB3A",
"Q. c #F9DC3A",
"!. c #F9E32B",
"~. c #F9E627",
"^. c #FAE33B",
"/. c #F9E737",
"(. c #FBF439",
"). c #F8F028",
"_. c #DEC136",
"`. c #BAA452",
"'. c #B0954D",
"]. c #D0B34B",
"[. c #C9B467",
"{. c #DCC14A",
"}. c #DDC357",
"|. c #E4C946",
" X c #EDD448",
".X c #F2DB44",
"XX c #F4D947",
"oX c #E4CB56",
"OX c #EDD755",
"+X c #F2DB56",
"@X c #F5E344",
"#X c #FBEB44",
"$X c #F5E44C",
"%X c #F9E749",
"&X c #FCF448",
"*X c #FBEC54",
"=X c #F7E859",
"-X c #FBF558",
";X c #EFE25A",
":X c #D9C465",
">X c #DDC975",
",X c #F2DE66",
"<X c #E7D56D",
"1X c #F7E767",
"2X c #FBF264",
"3X c #FCF869",
"4X c #F6EA79",
"5X c #FCF474",
"6X c #FCFB74",
"7X c #FBF47C",
"8X c #FCF97A",
"9X c #E7DA86",
"0X c #F6EA85",
"qX c #FBF48B",
"wX c #FCFA8B",
"eX c #FCF884",
"rX c #F6ED97",
"tX c #FBF495",
"yX c #FDFB92",
"uX c #FBF59B",
"iX c #FCFA9A",
"pX c #F6EDA5",
"aX c #FCFBA3",
"sX c #FDFBAC",
"dX c #FAF3A9",
"fX c #FAF3B3",
"gX c #FDFBB3",
"hX c #FBF5BC",
"jX c #FDFCBB",
"kX c #F6F3B6",
"lX c #F6EEB5",
"zX c #DBCE82",
"xX c #FDFBC3",
"cX c #FDFBCC",
"vX c #FAF4C6",
"bX c #FDFCD4",
"nX c #FDFCDC",
"mX c #FBF6D6",
"MX c #FDFCE4",
"NX c #FEFDEB",
"BX c #FEFDF4",
"VX c #FFFFFD",
/* pixels */
"m 8   1 < : : @ O , 1 , # # # # l l 2 * 2 & h u y ; - & 5 4 f g Q Q o p i 5 i t 0 g g u & 4 $ # 2 l a - 3 @ < > : @ : @ : O > > ",
"< < < > @ @ : O O @ @ % 1 # # * l p l - # p ( j ( p i 4 a 9 b Z g g f p p p u 0 w Z r u u t $ * i h f t + 3 M 1 m , > O > + < > ",
"< : 1 3 1   > 3 1 2 1 + 7 2 l * = y 4 i i p u g g 9 4 t u 0 Z A Z Z g '.[.c f R A P Z 9 j h l ; u w s p - 6 % 1 2 # O O @ + < < ",
"@ 1 3 3 m @ % 1 % 1 m # x i 5 5 l f k h c a j Z W b j j f R A L C D E ( '.Y Z A K K ~ q E a 5 u E Z f z v p 2 = 6 2 2 2 1 1 : < ",
": < : 1 @ + % % % % % $ - 4 y h a h R f f u g A P A E R g A J V K I A R w r C L o.K S Z w t y E P W f u u & i 5 l l l i * , O + ",
"@ : O @ , # % $ * * - i p h s f f f e W R g Z G L U P A R F o.} o.` C Z A C K { [ L P F b k e J K Z 0 Q j u t & i a f a 2 * @ , ",
"3 @ @ 3 1 2 6 5 $ - i p a h f R R q Z P ~ Z A L O.O.o.@.D K | ..%.{ L U I ' +.<.C.$.L P g R K o.L Z g Y b f u u f R g c l % 1 7 ",
"< @ 3 1 1 2 2 l 4 h z c c k g ) B ~ ^ L J P K O.%.*.*.O.U o...q. .} +.' ' +.f.g.G.P.#./ ! I [ *.G ~ ^ Z w f f g E ~ j a i 1 2 1 ",
", , M m % 1 * 5 t g f c k j Q W S P / #.O.K o.+.-. . .| o.O.,.r.,. .;.&.O.| d.c.G.C.#./ I %. .%.J I U ].<X) R A / g f u = % % 3 ",
", @ m x % = - 5 p j W Q Q E R ~ A U @.O.-.o.+.=.<.,.q.q.*.%.w.y.w.,.a.=.=.,.w.j.g.N.6.U %.,. .+.K @.8.7.}.oX7.7.) Z g p = % 3 , ",
"1 # 6 - 6 & a h s f A U W W W ^ P U $.%.a.-.1.B.g.j.j.n.g.*.w.y.r.q.w.-.g.d.y.j.g.C.P.P.a.q. .+.O.O.|.+X{. X+XOX/ A f 5 + . 3 m ",
"% * 6 M v a h `.:X! e U $.A / 2.J L @.N.v.l.B.g.g.j.j.n.n.h.e.i.e.e.u.s.k.j.i.z.d.V.L.B.z.s.=.=.[ O.@.5.@.#.|.5.L N 4 * M % x ( ",
"% 6 l i t d `.>X<X<X~ A +.>.' L ` o.6.C.l.n.s.h.d.j.j.m.m.k.d.i.j.i.i.s.j.i.x.c.k.V.B.j.z.d.<. .| o.] %.O.o.] { S c l l z p y y ",
"x 6 - 4 u u >X9X<XoX7.J L 0.X.o.O.:.P.C.z.~.D.k.c.c.z.~.~.i.d.z.j.n.v.s.j.i.z.c.S.f.s.e.e.,.q.,.*.+.%.+.+.[ | ' f v z p s f 4 4 ",
"x 5 - 4 c n ( ].].].8.@.o.[ u.-.%.;.U..Xc.!.^.z.S.K.x.!.*Xn.k.c.i.!./.d.z.n.c.k.h.a.t.i.w.w.w.,.*.=.*.| | ,.o.j p h f q f 9 o j ",
"- & & p zX[.].].{.{.|.|.6.%.a.M.a.N.T.E.S.v.*XH.c.S.b.!.5X!.c.K.x.=X@Xj.b.c.k.g.h.d.z.i.e.e.s.<.<.<.-.,.r.%.! u f e Z g g g e N ",
"= & j d 9X<X<X{.].|. XXX;XC.-.l.!.s.G.E.G.x.*X*Xc.G.K.!.yX*Xb.D.F.7X$Xc.F.S.Z.B.g.z.z.z.z.d.a.<.-.,.w.r.} W `.:XW Z R R A C P S ",
"$ = i f :X:X].oX|.P.P.U..X|.<.r.@X$Xw.T.W.c.%X7XJ.H.H.!.tX7XJ.D.#XuX=XF.J.G.G.V.S.b.c.z.z.s.h.a.q.w.y. .A ].oX<X:X/ P J K J L S ",
"z i - t ) 7.7. XXX6.+.+.-.&.3.a.u.7X=Xw.E.H.!.qX=X~.^./.qXiX#X!.2XgX=X!.Q.E.T.G.D.F.b.c.g.g.s.s.i.i.,.J W oX,X<XoX3.] ] ] o.C q ",
"l l i 4 y )  X5.#.+.| | -.-.3.&.e.H.dX$Xd.E.J.4XqX#X#X/.eXgX2X/.qXxX2X/..X@X^.W.!.~.H.S.c.g.k.x.p.a.o.4.' 2.{._.N.1.| } o.D u 5 ",
"u v z y X 0 7.O.*.*.| <.s.s.;.3.6.i.1XhX@XS.W.1XpX4X2X*XeXvXwX&XsXcX3X*X*X&X#X/.#X%XH.G.S.K.b.n.d.:.3.OX|.6.N.g.g.B.V.5.A s v i ",
"w ! g s 9 f Q / +.,.-.a.s.d.d.N.6.C.D.rXkX$XT.1XpXtX7X7XqXvXaXeXcXcX6X2X-X-X*X*X5X=XT.R.H.F.b.c.f.5.5.XXY.c.z.d.S.E.OX0X[.4 & 4 ",
"N S C I ^ e g R P *.w.s.h.g.c.S.C.P.S.$XkXdX*X1XrXfXtXuXuXhXxXgXnXbXeX5XwX8X-X7X4X%X^.^.^.!.D.C.6.5.;.c.i.z.c.S.L.].>X9X[.u & & ",
"R A U o.+.+.U P A U *.d.d.g.B.S.G.U..X@X4XvXdX4XtXvXsXaXsXvXbXcXMXbXyXyXxXwX8XuX2X&X*X*X/./.T.P.6.g.n.n.c.g.G.XX8.R f T s d t y ",
"f Z U o.%. .,. .%.@.$.;.g.c.A.V.Y.^.$X$X1XpXvXfXuXhXvXjXjXcXMXnXBXnXaXxXbXyXaXyX3X3X2X2X-X/.L.V.F.b.c.g.g.G.5./ W Y q ) ! ! Z A ",
"0 e A U {  .q.w.j.K.f.;.N.B.G.Y.E..X*X4X4XrXfXmXhXhXmXbXcXbXNXNXBXnXxXNXbXgXsXwX8X7XwXsX5XW.Q.R.J.V.A.g.;.6.4./ ^ P P @.` K ` @.",
"u w Z J ` } ..d.j.c.c.c.A.A.G.Y.W. X+X4XpXpXpXvXnXcXnXMXMXMXBXBXVXnXMXBXnXcXjXsXyXgXbXwX%X$X#X@XW.T.S.9.5.3.$.O.+.*.=.| { ] ` I ",
"u q w P U o.=.S.b.v.F.J.J.G.H.@X1X1X+X1XrXkXhXhXnXMXMXNXNXBXBXVXVXNXBXBXNXMXnXjXcXMXiX1X=X2X2X#X^.G.C.N.f.f.a.q.q... .=.+.L L P ",
"Z N r A P L +.;.g.d.z.D.I.L.I.@X4XrXrX0X4XuXvXbXbXNXBXBXBXVXVXVXVXVXVXBXBXNXnXMXBXsX5XqXaXyX3X@XE.Y.G.S.c.g.g.s.w.q...=.+.o.J P ",
"S C J L L o.O.*.-.a.g.c.G.L.P. X.X1XpXfXdXdXjXnXMXNXBXVXVXVXVXVXVXVXVXVXVXBXVXBXgXuXjXcXsX5XXXXXQ.T.G.G.H.c.z.i.e.q...| [ V K G ",
"g Z A U o.+. .<.<.a.f.B.V.Y.E. XOX;X4XrXhXcXcXbXNXBXBXVXVXVXVXVXVXVXVXVXVXVXBXcXcXMXbXuX2X1X1X*X#X^.J.F.b.b.x.b.c.w.,.| } ] J A ",
"Q R Z P U ` +.=.<.a.g.B.V.Y..XXX;X1X4X0XuXjXnXMXNXBXVXVXVXVXVXVXVXVXVXVXVXVXNXNXNXcXaXuXiXwX7X-X#XR.J.F.b.b.x.i.i.w.w...} O.L P ",
"^ / C U @.o.+.*.-.f.B.B.V.I. XOX1X4X0XrXdXhXcXMXBXBXVXVXVXVXVXVXVXVXVXVXVXVXVXBXbXxXjXaXqX5X*X%X^.J.b.n.p.p.x.z.e.w.q.,. .| | } ",
"P U o.O.+.*.=.=.f.B.H.V.V.I. XOX,X4X0XpXhXvXbXMXBXVXVXVXVXVXVXVXVXVXVXVXVXVXVXBXBXnXxXgXsXaXiXyXwX7X5X2X*X/.m.p.i.u.e.w.q.q...| ",
"P L +.=.a.q.w.z.F.F.K.G.G.Y. X X+X,X4XrXdXvXnXNXBXVXVXVXVXVXVXVXVXVXVXVXVXVXVXVXVXVXVXBXNXMXnXcXjXsXyX5X*X/.m.p.i.e.q...| { o.L ",
"Z P ' P.I.V.B.k.c.K.c.b.F.H..X+X1X4X0XrXfXvXnXNXBXVXVXVXVXVXVXVXVXVXVXVXVXVXVXBXMXcXxXsXtXeX5X-X%X^.~.n.p.p.z.j.w.,...%.O.` F A ",
"C L o.N.G.S.c.v.n.m./.=X5X0XrXpXpXlXlXvXvXmXnXMXNXBXVXVXVXVXVXVXVXVXVXVXVXVXVXVXNXcXaXtXqX4X1X=X%XQ.R.D.F.v.z.z.i.e.w.,.| O.K C ",
"[ | ..q.d.z.n.v.v.v.W.=X1X1X1X4X4X0X0XrXdXhXvXmXNXBXVXVXVXVXVXVXVXVXVXVXVXVXVXVXBXNXbXgXyX8X5X1X%X^.R.G.K.k.d.a.a.f.=.*.+.o.L P ",
"| | | ....,.s.g.c.c.j.j.c.S.I..XOX,X4XrXpXhXvXnXNXBXVXVXVXVXVXVXVXVXVXVXVXVXVXVXBXMXcXsXyX6X3X*X%XQ.R.F.c.k.s.f.9.E.5.#.@.L P ^ ",
"P K O.} ..q.e.z.c.b.K.B.G.I.U.XX+X4X0X0XrXfXvXnXNXNXBXVXVXVXVXVXVXVXVXVXVXVXVXBXBXVXnXiX3X3X-X*X#XR.H.S.c.c.k.S.G.6.8.4.P H ~ A ",
"Z G 5.*.| ..a.c.K.K.c.c.A.I.U..XOX+X,X4XpXvXmXbXcXMXBXBXVXVXVXVXVXVXVXVXVXVXVXBXcXcXNXNXsX3X&XXX XQ.J.K.c.c.k.k.Z.f.L.P.P W Z E ",
"A J #.%.|  .,.w.c.c.g.B.V.V.L.U. X+X4XrXlXlXdXdXcXMXMXNXBXBXVXVXVXVXVXVXVXVXBXBXMXaXqXjXnXxX6X(.E.U.W.F.b.c.c.B.C.E. X X@.U P Z ",
"P J o.O.%.| ..q.s.h.f.h.C.V.L.U. X1X0XrX0X0XrXhXnXcXbXNXNXBXBXVXVXVXVXBXNXVXVXNXMXnXiX-X5XaXjXwX(.D.V.G.b.n.x.c.N.6.|.oXZ w Z ! ",
"A J o.&.*.*.-.-.-.a.;.;.6.6.P. X X;X1X1X1X4XfXvXfXhXMXMXMXNXNXBXBXVXVXNXMXMXVXVXbXcXcXiX%X.X2X6X&X~.F.c.c.z.x.z.k.;.o.4./ e Q ( ",
"G U o.O.+.*.*.+.&.#.@.3.6.C.I.L.U..XXX+X1XpXfXiXqXvXbXcXMXnXNXMXMXVXBXNXxXjXcXVXNXjXsXgXwX$XE.!.!.!.S.c.z.z.x.x.z.Z.*.@.I Z w s ",
"U L L L L J C ^ U / 3.&.f.N.C.V.Y.U.XX=XtXuXeX2XuXbXsXxXbXbXMXbXxXBXMXMXgXiXyXgXVXbXaX8X3X&X/.R.D.F.c.h.;.s.c.z.z.d.-.+.J A q s ",
"P A Z e g ! N W 7.|.6.f.V.N.S.S.C.P..X-X7X5X*X3XhXaXwXgXaXgXnXxXsXNXMXnXgXeXyX6XgXBXjX3X(.&X(.!.D.F.b.j.*.&.&.V.h.,. .+.` C r g ",
"f 9 9 u j Q R / OXW.H.G.J.b.B.C.P.L.T.@X*X%X%XqXdX2X8XiX8XwXbXgXtXnXnXxXjX7XqX6X-XjXNXwX(.^.Q.~.F.K.c.x.e.:.4.P I o.} [ o.K A w ",
"4 4 j 9 j g W @.;.g.K.c.g.C.6.6.6.V.H.T.Y.W.=XuX2X*X3X3X3X8XjXsXeXxXMXaXgX8X5X0X*X#XcXbX&X~.XXR.n.b.c.d.e.w.%.F Y g W I L J D N ",
"4 y y u g A #.| ,.q.s.G.P.3.5.:.f.c.A.G.V.G.3X3X/.*X-X-X-X-XiXuX2XaXNXeX6XeX*X0X1X!.#XnXiXm.R.XXJ.b.z.s.q.q.,.O.Z j j f w Z Z 0 ",
"v a u w U +.| | .. .O.U I 4.5.<.d.g.c.B.C.H.(./.^.#X@X$X#X&XeXqX#XeXMXeX(.3X#X1X1XQ.b.*XbX*Xp..X$XD.d.w.q.-.=.| o.W u t ; p y s ",
"z k Z J ] [ [ [ ] U P A P @.-.d.d.d.g.f.B.D.F.J.T.T.W.W.^.#X8X7X!.2XbXeX).(./..X4X^.G.z.*XsXm.z.P.P.h.-.-.=.*.+.o.3.Z h p p = 5 ",
"0 W U o.V ] o.U ^ Z e W ' =.w.w.w.s.1.f.g.c.D.S.S.G.Y.T.J./.5X1XF.#XxXwX~.!.~.F.1X%Xc.V.t.2X6Xi.k.6.*.-.%.%.+.#.U J P g a 5 v 6 ",
"Z U L J G J D W R b w I +.q.w.w.w.-.;.f.d.z.c.g.B.S.G.F.D.H.1X$Xb.F.iXyXm.S.H.c.W.=Xc.V.V.z.-X/.e.-.$.*.+.$.` ` J P Z e 0 ; $ $ ",
"C C S A ^ e g f f f A O...q.q.,.=.*.<.s.d.x.d.f.g.c.c.b.c.Z.;XT.b.i.5XwXm.k.B.c.c.$XJ.B.L.1.s.).u. .%.o.+.' C C P A e 0 9 4 $ % ",
"R e R Y g f u p y Z V | .... .=.+.*.<.s.i.j.s.a.g.c.c.c.g.B..XD.n.t.^.6Xn.z.g.c.w.I.T.w.&.&.} q.M...%.o.@.U S Z R e q 0 t a & $ ",
"f s Q h a 4 z p e J { | | | } O.O.*.-.w.y.w.=.<.d.z.z.z.s.h.A.z.z.s.v.&Xn.z.s.d.w.s.H.s.+.$.+.O.0.u.+.o.L J A e g 0 9 ( c v 5 5 ",
"y y p l * l i Q F L } *.%.] o.' +.*...y.w.-.*.<.e.i.t.e.a.h.d.j.i.s.s.m.n.i.s.s.s.,.l.d.*.L o.O.@.0.0.K L U ^ E j h d c p ; i v ",
"& = * % % = u N P O.+.O.` @.P I O.&.q.r...+.+.q.e.e.e.w.-.-.s.e.i.a.-.p.p.t.w.<.a.-...u.*.@.U ` U ' -.o.P U A e s c a a & $ 2 2 ",
"# @ + 2 * 4 q r ' o.K J U P Z J L [ r...+.K +.q.w.w.q.,.*.=.-.w.y.,.%.u.u.r.w. .<. .%.0.=.@.J J P S C $.P Z A e s y 4 z 5 $ - 2 ",
"@ @   % i t R P L J A Z A g Z P J  .,.] / P %.q.q.q.,.=.O.+.| q.y...` -.w.q.w.-.%.[ O.+.*.U P P A Z g Z U f g g s p i x 3 % # 3 ",
"O + O * & u e F A Z r r f 0 Z Z V | [ P R P } .... .| O.L L o. .y.| K O.X...,.| O.o.` K +.J A S B r j k R R y u d $ 5 1 @ + @ # ",
"> : @ - 5 s N E g f f k a f ! A { } 4.R q C [ | | } { J P J L | r.} F U +.|  .%.L J K I _ P ~ A e R ) h 4 9 y ; 4 ; % + % @ > , ",
"3 1 # 6 a g j u t 4 j l p Q j C { U Q k f J +.+.O.O.K A A A P +.,.+.Z W @.o.} O.G S ^ D A / R w e Q n h 5 5 d z - 2 * @ , , > 1 "
};
