/* XPM */
static char *xpm_[] = {
/* columns rows colors chars-per-pixel */
"64 64 246 2 ",
"   c #3F3121",
".  c #4E3B2A",
"X  c #493625",
"o  c #543E2C",
"O  c #573E2B",
"+  c #44351F",
"@  c #56412D",
"#  c #5B432D",
"$  c #5A4626",
"%  c #5D4531",
"&  c #5F4834",
"*  c #634B2D",
"=  c #694E2C",
"-  c #634B28",
";  c #6C522C",
":  c #6A5126",
">  c #745A24",
",  c #71562C",
"<  c #755A2C",
"1  c #7A5D2C",
"2  c #765B25",
"3  c #614632",
"4  c #644A34",
"5  c #6A4E35",
"6  c #654C39",
"7  c #6A4E39",
"8  c #6D5134",
"9  c #6D513A",
"0  c #6D513B",
"q  c #675030",
"w  c #725535",
"e  c #765A33",
"r  c #7A5C33",
"t  c #72543B",
"y  c #76593C",
"u  c #7B5C3B",
"i  c #78573C",
"p  c #7E6224",
"a  c #7E612C",
"s  c #7E6134",
"d  c #7D633B",
"f  c #6B5642",
"g  c #745641",
"h  c #765A42",
"j  c #7B5C43",
"k  c #7B5E48",
"l  c #7B6148",
"z  c #7F6C57",
"x  c #8E721D",
"c  c #9B7C1D",
"v  c #93761C",
"b  c #886C1E",
"n  c #8A6D25",
"m  c #82652B",
"M  c #8B6D2B",
"N  c #846725",
"B  c #8E7129",
"V  c #937424",
"C  c #9C7C24",
"Z  c #93732B",
"A  c #99792B",
"S  c #826433",
"D  c #8B6B33",
"F  c #83633B",
"G  c #896B39",
"H  c #957637",
"J  c #8E7034",
"K  c #A07F24",
"L  c #805F3F",
"P  c #815F49",
"I  c #856747",
"U  c #8B7247",
"Y  c #957749",
"T  c #896B54",
"R  c #8B735B",
"E  c #947559",
"W  c #A37D47",
"Q  c #937A6D",
"!  c #926C66",
"~  c #9E811B",
"^  c #A4841B",
"/  c #AB8B1C",
"(  c #A88916",
")  c #B08F1C",
"_  c #B49314",
"`  c #BB9A14",
"'  c #B4931B",
"]  c #BD9B1A",
"[  c #B99716",
"{  c #9E8128",
"}  c #A48425",
"|  c #A78628",
" . c #B18F24",
".. c #B79627",
"X. c #A78837",
"o. c #B89837",
"O. c #BBA23E",
"+. c #C19E17",
"@. c #C19E0F",
"#. c #CBA90D",
"$. c #D5B20D",
"%. c #DAB60C",
"&. c #DEBA0C",
"*. c #D8B80A",
"=. c #C4A314",
"-. c #C9A613",
";. c #CDAB13",
":. c #C5A21C",
">. c #CBA91B",
",. c #D1AE13",
"<. c #D1AF18",
"1. c #D5B213",
"2. c #D9B512",
"3. c #DCB912",
"4. c #D8B71B",
"5. c #E1BE0C",
"6. c #E1BD13",
"7. c #C09C2E",
"8. c #C8A722",
"9. c #D9B725",
"0. c #C9AA39",
"q. c #DABB33",
"w. c #CEAF28",
"e. c #E0BE27",
"r. c #E4C20B",
"t. c #E9C50C",
"y. c #ECCB0B",
"u. c #E9C708",
"i. c #F1CD0B",
"p. c #F3D20D",
"a. c #F4D90B",
"s. c #E4C312",
"d. c #ECCB14",
"f. c #ECCB1B",
"g. c #E7C518",
"h. c #F1CD14",
"j. c #F1CF1C",
"k. c #EFD317",
"l. c #F5D413",
"z. c #F3D31C",
"x. c #F5DA1D",
"c. c #F9D918",
"v. c #ECD20D",
"b. c #F7E318",
"n. c #ECCC23",
"m. c #E8C82A",
"M. c #F1CF26",
"N. c #EED127",
"B. c #F2D323",
"V. c #F2D42B",
"C. c #F6DB27",
"Z. c #E7CA37",
"A. c #EED23B",
"S. c #EED333",
"D. c #F2D433",
"F. c #F5DB33",
"G. c #F5DA3A",
"H. c #F2CF30",
"J. c #F9E429",
"K. c #F9E538",
"L. c #FAF035",
"P. c #DEC039",
"I. c #9E8557",
"U. c #A58A47",
"Y. c #B79B4B",
"T. c #B49A59",
"R. c #A98E53",
"E. c #BBA04E",
"W. c #9A8769",
"Q. c #9C8B77",
"!. c #A78E66",
"~. c #AB966E",
"^. c #BBA869",
"/. c #BBA876",
"(. c #C5A646",
"). c #D3BC5B",
"_. c #CAB154",
"`. c #CBB467",
"'. c #D2BC64",
"]. c #C4AE73",
"[. c #CAB877",
"{. c #CDB973",
"}. c #DCC24B",
"|. c #DBC356",
" X c #E5CA49",
".X c #ECD44C",
"XX c #EED445",
"oX c #F2DB46",
"OX c #E4CB56",
"+X c #EBD559",
"@X c #F3DD59",
"#X c #F9E747",
"$X c #F9E856",
"%X c #FBF759",
"&X c #FDF747",
"*X c #DBC668",
"=X c #DAC778",
"-X c #E3CC67",
";X c #EAD766",
":X c #E0CD73",
">X c #E7D877",
",X c #F1DE66",
"<X c #F8E967",
"1X c #FCF567",
"2X c #F7EA76",
"3X c #FBF678",
"4X c #EEE07B",
"5X c #A69086",
"6X c #B7A68B",
"7X c #BBAE94",
"8X c #BDB6A1",
"9X c #C6B896",
"0X c #C8B889",
"qX c #C4B8A4",
"wX c #D7C889",
"eX c #D3C698",
"rX c #DED49B",
"tX c #CDC399",
"yX c #E5D989",
"uX c #E6DB98",
"iX c #E0CD81",
"pX c #F9EC85",
"aX c #FCF688",
"sX c #FCF997",
"dX c #F1E691",
"fX c #CDC3A8",
"gX c #D5CCA6",
"hX c #D2CBB3",
"jX c #DBD7B9",
"kX c #D6CEAC",
"lX c #FBF6A9",
"zX c #FDF8B7",
"xX c #F0EAB2",
"cX c #E5E6C9",
"vX c #FDFBC4",
"bX c #FEFCCB",
"nX c #FCF5C7",
"mX c #FEF9D4",
"MX c #FEFBDA",
"NX c #F0F1D4",
"BX c #E9ECD0",
"VX c #FEFCE3",
"CX c #FEFDEC",
"ZX c #FEFDF4",
"AX c #FFFFFD",
"SX c #DCDDC0",
/* pixels */
"k k X 7 9 % 3 % @ 4 7 3 # # # o 9 0 6 % 4 % 7 4 3 # % # 3 O 4 7 k k . 7 9 % 3 % @ 4 7 3 # # # o 9 0 6 % 4 % 7 4 3 # % # 3 # 4 7 ",
"9 9 7 4 3 % 3 o @ # # 3 3 # o 3 9 7 7 3 X 7 T 7 I 4 3 # 4 o 9 6 9 9 7 7 3 # 3 o @ # # 3 3 # o 3 9 7 7 3 X 7 T 7 I 4 3 # 4 o 9 6 ",
"7 3 7 t 9 X 3 9 7 t 4 X 0 9 t # # # % 7 4 7 % 7 7 o o o % o 7 7 7 4 7 R 5Xf 3 9 7 t 4 X 0 9 t # # # % 7 4 7 % 7 7 o o o % o 7 7 ",
"% 9 t t I # 3 7 4 4 k o y 7 4 3 t 7 7 t g 7 7 % 9 9 t t 7 9 & 9 # w t l Q 0 3 7 4 4 k o y 7 4 3 t 7 7 t g 7 7 % 0 7 t t 7 7 & 7 ",
"% 6 3 7 o X # 3 3 % @ # % % % t t t 7 4 4 O 6 3 9 t t 7 3 3 o o 3 7 3 7 o X # 3 3 % @ # 3 % % t t t 7 4 4 O 6 3 7 7 t 7 3 3 o . ",
"% 3 o % 4 # % o 3 # 4 4 7 t % 3 4 7 O h t 4 % # 5 t 7 4 6 4 % 7 * 4 # % 4 # % o 3 # 4 4 8 t % 4 4 7 O h t 3 % # 4 0 4 4 6 4 % 3 ",
"9 # % g 7 0 0 4 X 4 7 9 7 9 4 9 9 3 6 6 y 4 4 3 w r w I t * w F r = * u t y y !.7Xh 8 9 9 8 7 9 t 3 6 6 y 3 3 % 4 9 7 k 7 % 7 j ",
"4 % t 6 7 9 0 t o t t j j t 9 I . u u * # 4 4 t r G F 8 w 9 u 1 e ; u 8 0 u ~.eXkXfXT k j t w I . y h 3 # 4 4 9 9 P g 4 7 6 f 7 ",
"3 & E P 3 3 % 4 3 9 6 k t y y y # t j u 8 $ w t U 1 1 ; = ; , D a 1 I.I ; e eXuXrXeXU I t u u u # t j 6XBXR 9 9 I 4 4 3 % % 3 0 ",
"3 @ k g # % % % 3 9 9 y j u 8 y * u u 8 I ; e I E J J F e < D B n N H G G m W '.]./.!.l F D 1 i * k Q.Q.fXhXW.Q E 3 3 % % % g 3 ",
"4 o 9 3 6 # 4 7 % 5 8 t t t y u * w F y T U !.6X0X[.`.].!.r M X.C b Z D wX{.(.(.{.[.0X9XR.Z S u 4 j kXNXfXjXBXcXT 3 3 6 .   7 l ",
"& 3 7 T g 7 t Q.8Xl 3 8 t 5 l I $ ; e ~.9X0X{.[.[.{.).*X{.T.A ..^ c V U.yX>X+X|.`.=XrXuX>X^.U U $ ; l W.l T fXW.6 3 % % T @ g T ",
"& 9 t 7 # 6 Q.hXjXfXf 3 7 4 I ; ; ; I.0X].^.E.Y.T.Y.0.(.).`.X.[ [ ) } C |. Xq.OX*X{.].*X-X`.H a < , : U w w $ 3 . k 0 g t 3 % & ",
"g 7 % # 3 & hXcXjXfXR * 3 * , 1 r U /.].=XiX:X-X:X-X X X}.(.| #.,.+.( ^ 8.9.9. X,XT. .[  .V B n D m Z N , q y l 6 j y 3 & 3 . % ",
"g 6 % % l h ! 7X6X6XW.l * $ F D D I.wXdXdX>X>X,X;X;X.XS.oX+X7.&.&.;.[ _ ;.6.S.w.o.} -.=.^ v } A A } } N - u t 7 7 t 4 % 3 o X 0 ",
"3 O o 6 hXqX5X5X7X7X9X9XW.e Y U.X._.uXyX>X;X;X.XXX.XA.n.B.oXXXr.r.$.-.-.%.t.3.-. .+.*.@./ ) ..o.....K Z : i j 3 = = 4 3 7 4 % 3 ",
"3 o y 6 cXcXcXqX6XfXjXjXxX/.J J V O.>X>X:X;X+XA.D.A.V.z.l.C.D.t.i.r.3.$.u.i.&.-.=.&.*.@.` _ ' ] ' / ^ D * w ~.0Xd = t 7 3 % t % ",
"# % 3 3 qXfX5XhXfX9X7XgXrX].H V v ^ w.+X;X+X+XA.C.B.B.z.l.c.f.t.i.y.t.5.i.y.6.-.&.u.$.,.=.` =.` [ _ V ; * ~.wXrXtXI t 4 3 % 4 X ",
"h 7 3 @ R Q Q kXcX~.w < J H A C ^ ( =.4.Z..X.XA.x.x.j.z.l.b.y.h.l.p.d.t.p.y.3.$.u.r.&.%.#.;.;.#.#.c r : m wXuXrXeXU * $ o 3 # % ",
"t 0 3 % @ z jXR l e < > m n C c ( ( _ *.r.e.A.A.B.J.j.d.p.K.C.h.l.C.B.h.l.d.6.t.y.t.r.$.,.;.%.*./ > p { A W `.`.^.!.9 t 7 9 % 3 ",
"% g 0 3 + # R y u ; : m Z A v ~ / [ :.,.v.v.%.4.r.K.D.d.p.$X$Xl.c.$XF.c.z.f.g.l.i.y.5.2.2.r.u._ n V } :X'.(.(.).{.9XqXW.9 4 j 7 ",
"% h 7 % $ ; w u 8 e : M V | ^ ' ] =.>.:.r.J.N.5.6.F.$Xj.z.$X3Xx.F.3XK.C.B.n.z.c.l.d.6.s.y.i.=.K | |  .;X+X.X).`.eXjXSXBX6X% o # ",
"% # # 8 d = , < 1 e < 1 m } _ [ =.;.2.>.;.k.1XN.s.V.2X#Xx.$XsXK.$XsX#XF.D.V.C.x.z.g.g.p.p.,. ./ / [ =.m.Z.0.wXtX9X0XeXkX6X& . @ ",
"7 & 9 7 8 e e a p p > D 2 V ( ,.#.2.6.s.w.&.#XsXV.j.2XpX#X$XlX%X3XzX$X#X#XK.K.J.B.f.l.l.3.+.' :.#.&.&.<.7.!.gXxX~.s ; h 3 9 # # ",
"3 % h 7 9 * r 1 n x c c x n V ' %.r.s.d.g.9.d.2XlXF.<XlX3X3XzXsXlXvX1X%X%X$X<XG.C.C.x.f.8.:.1.r.y.r.=.~ Y uXI.U e ; - Y F u 6 4 ",
"# % 3 9 # t 8 F /.dXO.[ +._ / } :.s.d.g.z.N.m.K.lXsX<XlXlXsXzXnXMXvX3XsX3XaX<XK.K.J.C.9.9.d.p.p.6.:.| N N U.H J B B M J r $ 7 k ",
"@ % % % & * 9 W.!.wX=X0.w.2.%.;.:.w.g.f.B.D.oX#X2XnXlXlXnXzXnXMXCXbXlXvXsXaX%X%X1X#XS.M.x.c.d.2.+. .| V } } ^ ^ ~ { M m ; $ 7 9 ",
"# # o t 5 * y gXxXwXiX4X+X4.5.u.t.6.g.n.V.D.oX<XpXlXnXnXmXMXMXCXZXMXVXMXzXsX3XlXsX#XG.F.C.n.4.+.' ' [ =.=.` _ ^ c n p G w # 6 9 ",
"% # X * r ; S H R.H U.*X0.] $.t.i.l.f.N.K.$X@X<XsXzXvXVXVXCXCXZXAXCXZXCXmXzXbXvX<X$X%X#XD.m.4.4.2.&.&.$.;.[ / ^ v n r I 9 3 @ 9 ",
"o . o 3 * ; 2 B C ~ ~ ^ ) _ =.2.s.k.n.H.D.<XsXaXaXzXbXVXZXZXAXAXAXAXAXZXCXCXmXaXsXsX%XG.H.n.f.k.y.t.5.4.Z.8...O.X.> 1 e ; $ $ # ",
"4 % % 4 4 * ; S n V c ' ] =.1.2.6.g.B.D.XX#X1XlXzXzXmXCXZXAXAXAXAXAXAXAXAXVXvXvXlX2X$X#XK.C.z.l.i.y.t.V.G..X|.dXwXs ; $ ; # 3 3 ",
"g 7 @ 7 t 8 w , 2 N | | ) :.,.2.s.f.n.D.oX$X1X3XlXmXVXZXAXAXAXAXAXAXAXAXZXVXVXvXaX3X1X#XC.x.c.l.p.i.t.s.4. XOX(.Y.A n p m 1 , w ",
"k k X 7 w 4 q < N } ..' ` =.;.1.g.f.n.S.oX$X3XsXzXnXVXZXAXAXAXAXAXAXAXAXAXAXMXvXlXsX3X<X$X#XK.x.a.p.y.u.r.s.D.m.=._ ^ c V N a w ",
"9 9 8 5 ; ; , 2 X.o.+X8.,.%.&.t.d.f.j.V.G.#X<XaXzXmXCXAXAXAXAXAXAXAXAXAXAXAXZXCXMXbXzXlXsX3X$XJ.a.v.y.&.#.-.8.'  .V N 2 1 - w 7 ",
"7 4 8 j I $ r T.yX:X(.0.<.2.r.y.v.B.G.$X2XpXsXlXzXmXCXZXAXAXAXAXAXAXAXAXAXAXVXzXlXaX2X$XK.C.c.l.l.y.5.$.-.[ ^ C V > - $ * o 7 7 ",
"# w r /.rXwX`.).|. Xq.H.n.r.t.y.v.F.$X<XpXpXaXlXzXnXMXCXAXAXAXAXAXAXAXAXAXAXCXvXlX3X<X$XG.C.C.z.d.s.5.2.,.+.) c Z S u t 9 9 & 7 ",
"* e 1 ^.dX>X-X Xq.Z.A.D.V.r.r.y.d.h.j.B.D.oX<XpXsXzXVXZXAXAXAXAXAXAXAXAXAXAXAXVXsX1X%X#XG.C.z.j.s.4.>.] [ ( / C B s i w 7 4 o . ",
"3 4 - < R.[.[.`.'.(.(.}.Z.&.r.t.d.h.n.H.A.@X<X2XlXnXmXVXZXAXAXAXAXAXAXAXAXZXMXVXbX3X&X#XG.C.z.d.s.3.#.:.' ^ c x Z Y w 8 7 4 % 3 ",
"9 # * u r u W./.`.'.o.+.<.2.&.t.d.g.n.m.A.XX,XdXlXlXzXMXVXZXAXAXAXAXAXAXAXZXbXsXzXvXaX#XH.V.c.h.s.1.-.` ] / c X.U.yXY U w 3 7 j ",
"4 % t 6 9 t E wX>X>XOX:.;.1.&.d.s.g.m.m.Z..X<X2X<XdXnXvXmXCXCXZXAXAXZXCXAXAXMXzX1X<XsX%XJ.B.c.c.y.6.>...^ C E.uXwX!.Q E r 9 t 7 ",
"3 & E I = , G =X:X*X0.>.;.1.1.<.=.>.9.m.Z.A.oXoX2XlXsXlXmXmXVXVXVXZXCXbXzXZXVXzXsX$XF.K.J.z.l.p.p.u.n..X-X`.[.wXeX~.fX9X4 6 3 t ",
"3 # I u ; < p A '.0.' ] ] ../  .) >.g.f.N.H.Z.oXpX2X<XlXlXzXvXMXvXVXCXzXaXsXCXvX1X&XK.C.C.z.3.4.5.u.d.G.+X>X=X].0XjXcXcXf f g 3 ",
"4 o t 5 r 2 M V c C C A A A }  .=.s.d.d.g.9.Z.K.#XG.pXsX3XaXsXbXlXMXMXlXaX1XaXCX3XJ.F.C.z.l.d.>.' :.1.4.Z.|.'.[.~.Q.8XhX% . 7 l ",
"& 3 9 U F m M m 2 S 1 D B V ..<.r.y.s.4.8.9.N.F.V.$X3X$X%X%X3XlXaXvXvXsX3X2XK.aXbXJ.m.n.c.d.h.t.[ C C / ' 0._.`.[.T 4 k T % g T ",
"& 9 t t = ; q ; G S > p V _ 2.5.&.,.] 0.<.f.C.C.V.#X#XK.#X#X%XaX1XsXzX%X%X<X$Xl.sXaXy.w.g.y.s.5.$._ b H n X.=XiXuXeXj u y 3 % & ",
"g 7 % # 4 # - D a S H c [ #.$.;.]  .)..Xz.l.z.M.D.J.C.F.G.G.L.3X#X3XzXL.J.#X<Xf.d.aX#XB.oXV.g.1.;.=.) n < I wXrXwX^.F q 4 3 . % ",
"t 6 % # 7 F ; w !.wXo.8.w.=.]  .| | ).B.l.z.n.N.C.x.B.V.V.C.F.<XC.#XlXK.x.x.#XG.M.C.%Xx.A.oXG.Z.w.] ' C > G I 9X!.r e 8 5 # X 9 ",
"3 O o # t y 3 I uX>XOX|.,X*Xo.U.X.7.%.y.k.n.m.B.l.l.f.B.z.c.V.oXx.C.3XK.h.h.F.K.V.D.C.b.B.XXXX+X;X0.| C N D F q 5 5 5 5 8 5 3 3 ",
"3 o y o 7 4 t S U.Y.*X*XY.T.H J ^ #.&.&.,.9.m.f.p.d.6.l.l.h.n.V.l.i.#XJ.i.B.z.J.V.XXA.x.x.A..X+X;X>XY.Z p m s ; * * t 9 6 % t # ",
"# % 3 # 8 5 I ; m M U.uX/.S G V _ #.$.#.` >.H.l.h.m.6.p.p.t.g.d.p.t.x.b.i.B.j.x.C.XX.XXXC.S..X+X>XyXT.N > > ; = * t 9 4 3 % 4 X ",
"h 7 3 o u 5 - $ 1 M < ; - d Z / ` =.+._ ( 8.N.i.m.q.r.y.y.6.2.r.i.s.r.a.y.s.V.V.C.oX@X@X@XoX+X,X4X=XU.> > r r 8 8 t # # o 3 # % ",
"t 0 3 % . 4 $ - : w * $ 8 1 C ( [ ( ^ c / ] &.n.0.>.r.t.5.,.;.2.i.&.1.u.u.3.9.m.S.A.OX+X-X-X+X*X).`.G ; r r r y 9 Y 4 t 7 9 % 3 ",
"# f 0 %   # u w i 3 o 5 s M v ^ c c A A } =.*...} =.5.%.$.+.:.;.u.2.:.$.*.1.q.P.q.q.0.(.(.T._.`.[.R.S F i r w I w 3 t 6 7 6 j 7 ",
"% h 4 @ . 4 t i 5 9 # e < A c V Z Z M M } ;.[ Z v -.1.#.` ^ ^ ` &.,./ [ #.;.0.}.|.}.).).'.{.[.[.^.F s w u I w w $ t 7 3 # @ o # ",
"% # % 7 h # 3 4 5 6 5 8 < M M 2 m s S N ^ [ b 2 K +.=.:./ v x ^ #.` v | =.@.| Y._.).*X{.`.R.Y U S s r ; * w $ $ t 7 3 # o o . @ ",
"7 & 9 7 7 7 6 3 # % @ w ; 1 ; G - e S N / V : < } _ ..(.X.B N v ` / Z Z / ' C M Z H J H D m , G - r w * 8 9 # 3 0 3 @ @ o 7 # @ ",
"3 % h 7 9 3 9 3 4 # 3 4 $ 5 * ; 5 q < n x ; * > C ~ x X.H D m M ^ c J M A c A m N 2 p 1 : < ; ; 8 q 8 4 * 3 # # 6 # o T j g 3 4 ",
"# % 4 9 % 9 7 y 4 4 9 y t . 5 8 u F s p 1 y d S C C B H S : r H v n a S 2 Z V G 1 1 S G r $ 8 w u L y $ 4 t y t 9 9 9 j 7 o 7 k ",
"@ % % % % % # # f y 9 j 3 y 7 6 t I G , y y 5 < n H S a = - r s N N , , , p N > d F r F ; u w 8 t l j * t y 3 % & j 9 8 o o 7 7 ",
"@ % . 9 3 % % X j 4 % 3 y t # # 3 4 = 8 t 3 7 ; 2 ; ; u 8 $ 5 w > , $ r 8 , 2 $ F 8 * ; u y * * * 4 * 9 t % 6 % % % 3 g 6 o 4 7 ",
"% @ X % 7 # 0 t 4 % 3 % 7 3 3 3 # 4 7 @ h % 6 8 ; q 9 k 6 % o 7 ; - X % 7 * s u 7 3 4 3 9 4 3 4 # 3 7 @ y % 6 4 % 4 6 k 6 % o 7 ",
"o . o 3 # % # 7 7 3 # o 4 o % % . @ 6 6 7 6 % * 8 . 7 3 % X o # - $ o 3 # * = w t 4 # @ 7 # 3 % . @ 7 7 7 7 % 3 7 . 6 3 % X o # ",
"4 % % 4 3 % % 0 3 % % 7 9 4 j 7 # 7 E 0 o . o o 3 # # . 3 o 3 3 7 4 % 4 3 % * t 4 % % 9 9 4 j 9 # 7 E 0 o . o o % # # . 3 o 3 3 ",
"g 7 o 7 0 4 7 3 @ o g 9 4 k 0 o 3 h k t & % 6 9 4 4 3 % 4 4 3 7 h 9 o 7 0 4 9 4 # o g 9 4 k 0 o 3 h k t & % 6 9 4 4 3 % 4 4 3 7 "
};
