/* XPM */
static char *xpm_[] = {
/* columns rows colors chars-per-pixel */
"64 64 244 2 ",
"   c #4F3C23",
".  c #4D3D1F",
"X  c #765619",
"o  c #7B621A",
"O  c #5C452A",
"+  c #5B4626",
"@  c #644B2C",
"#  c #654B2A",
"$  c #6C5425",
"%  c #6C522C",
"&  c #7B5E25",
"*  c #72562D",
"=  c #755A2B",
"-  c #7A5C2C",
";  c #745925",
":  c #664B31",
">  c #6A4E33",
",  c #6D5133",
"<  c #6E5338",
"1  c #725535",
"2  c #7B5D33",
"3  c #775A38",
"4  c #7E6224",
"5  c #7E612B",
"6  c #7E6135",
"7  c #7F6045",
"8  c #845E0F",
"9  c #9E750E",
"0  c #8A6C1E",
"q  c #856519",
"w  c #946D17",
"e  c #94741D",
"r  c #9B7C1C",
"t  c #997716",
"y  c #916E15",
"u  c #A17C1D",
"i  c #A47D13",
"p  c #A77E0E",
"a  c #826523",
"s  c #856924",
"d  c #8B6C24",
"f  c #83642C",
"g  c #87692B",
"h  c #8B6B2B",
"j  c #89662A",
"k  c #936E26",
"l  c #8E7121",
"z  c #8E712A",
"x  c #947424",
"c  c #9B7B23",
"v  c #94732B",
"b  c #9C7A2B",
"n  c #997627",
"m  c #836432",
"M  c #8B6B33",
"N  c #896938",
"B  c #916F33",
"V  c #987633",
"C  c #8E7039",
"Z  c #A17D23",
"A  c #A37E29",
"S  c #A27E32",
"D  c #805F27",
"F  c #886845",
"G  c #96754C",
"H  c #9E8118",
"J  c #AD840D",
"K  c #B48A0D",
"L  c #BA920D",
"P  c #BB980E",
"I  c #AB8C15",
"U  c #A4831C",
"Y  c #AA861C",
"T  c #AC8B1B",
"R  c #A88517",
"E  c #B28B14",
"W  c #B28E1B",
"Q  c #BA8D14",
"!  c #AF9017",
"~  c #B49315",
"^  c #B99514",
"/  c #BC9A14",
"(  c #B4921B",
")  c #BA951A",
"_  c #BC9A1A",
"`  c #9F8021",
"'  c #A38323",
"]  c #A98522",
"[  c #AC8A21",
"{  c #A8852A",
"}  c #B28D24",
"|  c #B59222",
" . c #BC9824",
".. c #A68435",
"X. c #B3913C",
"o. c #BFA019",
"O. c #C39D0B",
"+. c #C29D14",
"@. c #C19D1B",
"#. c #C39515",
"$. c #C5A20D",
"%. c #CAA50C",
"&. c #CEAB0D",
"*. c #CEA907",
"=. c #D2AD0D",
"-. c #D3AE07",
";. c #D5B20D",
":. c #DAB50C",
">. c #DDBA0C",
",. c #D8B406",
"<. c #C5A213",
"1. c #CAA513",
"2. c #CDAA13",
"3. c #C5A21A",
"4. c #CCAA1A",
"5. c #C8A618",
"6. c #D2AD12",
"7. c #D2AD1B",
"8. c #D8A917",
"9. c #D5B213",
"0. c #DAB512",
"q. c #DDBA12",
"w. c #DAB719",
"e. c #E2BD0B",
"r. c #E3BD06",
"t. c #E2BD13",
"y. c #E4BA19",
"u. c #C49E22",
"i. c #C8A322",
"p. c #D2AE23",
"a. c #DBB823",
"s. c #E2BE23",
"d. c #DCC20E",
"f. c #EAC606",
"g. c #E5C20C",
"h. c #EAC50B",
"j. c #EDCA0C",
"k. c #E9C707",
"l. c #F2CD0C",
"z. c #F1CC07",
"x. c #EBD20D",
"c. c #EFDA07",
"v. c #F4D30D",
"b. c #F6D80C",
"n. c #E5C313",
"m. c #EAC513",
"M. c #EDCB14",
"N. c #E6C31A",
"B. c #E9C51B",
"V. c #EDCC1B",
"C. c #E7C81C",
"Z. c #F2CD12",
"A. c #F2CE1A",
"S. c #F6C917",
"D. c #EDD214",
"F. c #F4D313",
"G. c #F9D415",
"H. c #FADA14",
"J. c #F4D31B",
"K. c #F9D41B",
"L. c #FADA1C",
"P. c #F4DA19",
"I. c #F8E217",
"U. c #F3E50A",
"Y. c #ECCB22",
"T. c #ECCD2A",
"R. c #E5C225",
"E. c #F1CE24",
"W. c #F4CA26",
"Q. c #EED129",
"!. c #F3D424",
"~. c #FBD424",
"^. c #F5DB24",
"/. c #F9DB23",
"(. c #F3D32B",
"). c #F4DA2C",
"_. c #F9DB2B",
"`. c #FBD42D",
"'. c #EBCB35",
"]. c #EED233",
"[. c #EFD33B",
"{. c #F3D333",
"}. c #F4DB33",
"|. c #F9DC33",
" X c #F9DC3A",
".X c #F5D83A",
"XX c #FAE22B",
"oX c #F9E527",
"OX c #FBE43B",
"+X c #F9E737",
"@X c #FCF537",
"#X c #F8F028",
"$X c #A28141",
"%X c #F4DA46",
"&X c #F2DA55",
"*X c #EFD642",
"=X c #FBE443",
"-X c #FBEC44",
";X c #F5E34C",
":X c #F9E74A",
">X c #FCF449",
",X c #FBEC53",
"<X c #F8E659",
"1X c #FCF558",
"2X c #F5DE65",
"3X c #FBEC64",
"4X c #F8E867",
"5X c #FBF264",
"6X c #FCF968",
"7X c #F7E978",
"8X c #FCF474",
"9X c #FCFA74",
"0X c #FCF47C",
"qX c #FDFB7B",
"wX c #F9ED86",
"eX c #FBF485",
"rX c #FCFB84",
"tX c #FBF58C",
"yX c #FDFA8A",
"uX c #F7ED97",
"iX c #FBF394",
"pX c #FDFC92",
"aX c #FCF49B",
"sX c #FCFA9B",
"dX c #FCF2A5",
"fX c #FDFBA4",
"gX c #FDFBAC",
"hX c #FCF4AD",
"jX c #FBF4B3",
"kX c #FDFBB3",
"lX c #FBF4BB",
"zX c #FDFBBB",
"xX c #F6EEAC",
"cX c #FDFBC3",
"vX c #FCF5CC",
"bX c #FDFBCC",
"nX c #FDF5C3",
"mX c #FDFCD4",
"MX c #FDFCDC",
"NX c #FCF6D6",
"BX c #FDFCE4",
"VX c #FEFDEC",
"CX c #FEFDF4",
"ZX c #FFFFFD",
/* pixels */
"F 7   1 1 : : @ O , 1 , @ @ # # m m 2 * 2 & v d s ; - & 5 4 x n ....o g f 5 f a 0 c c d & 4 $ # 2 m j - 3 % < > : @ : @ : O > > ",
"< < < > @ @ : O O @ @ % 1 # # * m g m - # g ..c ..g f 4 j a Z U c c x g a a d 0 t U t d d a $ = f v x a + 3 G 1 F , > O > O < > ",
"< : 1 3 <   > 3 1 3 1 + 6 2 m * = s 4 f f h d c c q 4 a d 0 U T U U c v v o x ' T ) U q b z m ; d t l g - 6 % 3 2 # O O @ O < < ",
"@ 1 3 3 F @ % 1 % 1 F # M f 5 5 M x n v V h c U ] Z b b n ' T ^ I W ] b ..e U T ^ ^ } e ] h 5 d ] U x M B g 2 = 6 3 2 2 3 1 : < ",
"@ < : 1 @ + % % * * $ $ - 4 a v h v ' x x d c T ( T ] ' n Y ^ P ^ ) T ' t t I ^ <.^ U U r a s ] ) [ x d d & f 5 m m m f = , O + ",
"@ : O @ , # % $ = = - f h v l n x x r [ ' n U ! / _ ( T ' ( <.=.<.+.I U Y I ^ $.&./ ( W Z v r ~ ^ U 0 { b d s & f h x j 2 * % , ",
"1 @ @ 3 3 2 m f ; 5 h h h v n ' ' e Y ( } U T / 1.1.<.3.W ^ ;.>.6.%./ _ ) @.2.;.&.<./ ) c ' ^ 1./ U ` ' A x d d x ' c V m % 1 6 ",
"< @ 3 1 3 2 m M s b V V S b Z  .H } | / ~ ( ^ 1.6.9.9.1._ <.>.g.:.=.2.@.@.2.;.e.;.2.1. .} ) =.9.~ | | U r n x Z ] } b j f 1 3 1 ",
", , G F * - - j d ' c S A { { | I )  .4.1.^ <.2.q.:.:.;.<.1.e.f.e.:.q.7.1.;.e.g.:.6.1.u._ 6.:.6.^ _ @. .Y t ] (  .c n d = % % 3 ",
"1 % F N - f j d k u T Y ] } T | ( @.3.1.q.<.2.0.t.e.g.g.9.6.h.z.h.e.n.0.;.>.f.h.>.:.1.@.6.e.>.6.+.1.@.(  .I ) @. .U c a = % 3 , ",
"2 $ N f M j n Z t t R P E W ) _ ^ _ 4.6.d.;.9.q.e.g.h.x.g.;.h.z.h.g.h.q.e.h.z.j.e.:.1.6.e.h.>.6.&.%.<.~ ^ P <.) ( T x f + . 1 F ",
"* - j $XS b A u R W  .1.%.^ @.i./ +.1.0.g.g.0.n.g.h.j.c.v.t.j.v.j.j.D.m.n.j.v.j.g.q.6.>.f.g.:.:.-.%.O.O.O.$.+.3./ U a * G % M $X",
"= f j d w u u i E E @.^ ;.;.+.+.1.2.<.t.h.x.e.n.g.M.l.b.b.m.M.v.Z.v.v.m.m.l.v.j.m.0.:.h.z.r.e.>.:.=.6.6.%.$.$.%.I S N N M g s s ",
"M f o q w t i i J K L L 6.j.>.%.6.9.7.0.j.P.A.h.M.M.v.^.oXl.M.F.Z.P.P.M.Z.b.F.Z.m.t.h.z.j.h.l.Z.N.0.0.9.%.-.:.3.c V B d l x a 4 ",
"M a X 8 y 9 9 p J L L O.O.e.c.>.=.0.w.w.f.^.+Xj.M.A.v.XX,XF.A.K.b.XX+XZ.F.H.F.A.m.n.l.v.l.b.l.e.;.;.;.-.,.r.%.[ n b n r n 0 o c ",
"a q X 8 #.8.#.L L L O.P $.-.j.U.e.:.t.w.t.F.:X!.M.V.F.XX8XXXA./.b.<X;XZ.G.K.A.A.B.M.F.b.v.l.h.>.e.e.>.r.g.-.) Z ] Y Y ' Z Z U U ",
"D q e y 9 8.S.y.y.y.t.0.1.9.e.I.#Xg.e.y.y.z.;X;XF.E.J.XXtX,XK._./.0X;XJ./.!.E.E.V.G.H.F.F.j.e.e.e.e.f.f.-.E Y E W W } T W W ( I ",
"& a w i p K y.K.S.S.S.S.S.y.m.z.-X:Xf.N.N.M.OX7X).!.(.XXiX0X^._.=XaX<X/._.(.(.E.!.L.K.G.F.M.m.M.j.z.z.:.L J K L E ) ^ +.+./ / R ",
"V v k w E K 6.L.K.G.G.G.G.S.B.l.b.0X,Xz.Y.!.).wX<XoX+X+XtXsX-XXX5XkX<XXX X.X}.(._./.L.L.J.A.K.F.b.v.Z.y.8.1.+.E L %.%.%.%.1.W r ",
"B V n c 9 J 6.G.K.S.F.Z.Z.Z.W.S.v.XXfX:XG.`.).7XwX-X-XOXeXkX5X+XeXcX5XOX%X=XOX XXXoXXX~.J.L.K.H.b.F.~.`.`.W.W.y.;.:.,.;.%.) e j ",
"x S S Z w 9 1.K.F.S.Z.j.l.Z.J.~.~.b.3XzX=X~. X3XdX8X5X1XeXcXyX>XgXbX6X>X,X>X:XOX-X-X_.(.!./.H.H.F.K.~.`.`.`.J.F.v.l.e.O.R e V h ",
"u } [ u 9 i s.~.S.l.Z.l.Z.F.G.~.W.E./.iXlX:X+X3XdXiX0X0XeXcXfXrXbXbX8X5X1X1X1X>X8X<X|.|._./.L.J.~.~.~.~.J.F.v.l.j.m.y.#.y q q 0 ",
"U E ~ / L #.y.8.1.e.l.v.H.L.L./.(.{./.:XjXhX,X3XaXjXiXsXaXzXcXkXMXmXeX9XrXqX1X0X0X=XOXOXOXXX^.!.~.~.K.G.b.v.j.e.=./ K K 9 q q a ",
"] ( +.O.%.-.%.L L O.:.l.G.L./._._. X=X-X0XnXhX0XiXnXhXfXgXcXmXbXBXmXpXpXcXrXqXsX3X>X,X,XOX+X_.W.W.J.H.H.F.j.e.=.+.E i 9 y q q 0 ",
"c U / $.*.,.e.>.;.6.6.t.M.K.~.`.|.OX,X,X6XaXvXjXaXlXvXzXzXbXBXMXCXMXfXcXmXpXfXpX6X6X3X6X1X@X.X(./.L.L.L.M.t.6.+.@.W i [ u U R W ",
"e r I / %.:.g.h.j.h.n.N.C.V.~.|..X%X,X8X0XtXjXNXlXzXNXmXvXmXVXVXCXMXcXVXmXkXgXrXqX0XyXkX8X X XXX_.(./.J.t.7.7.i.u.@.@.3.<.P <.3.",
"0 r R ~ <.=.e.h.j.Z.Z.J.V.Q.).}..X%X<X0XaXdXdXnXMXvXMXBXBXBXCXCXZXMXBXCXMXbXzXgXpXkXmXyX:X:X=X=X X).!.B.7.7.7.6.9.q.0.0.&.$.+._ ",
"0 e r ( / 1.:.g.l.F.M.V.!.(.).:X4X4X<X3XiXjXlXlXNXBXBXVXVXCXCXZXZXVXCXCXVXBXMXzXbXBXsX<X<X5X5X>XOX(.R.R.N.n.m.h.g.e.:.0.2.+./ ) ",
"U U r T ) / 7.q.n.M.F.J.T.T.].=X7XuXuXwX7XaXvXvXmXVXCXCXCXZXZXZXZXZXZXCXCXVXMXBXCXgX8XeXfXpX5X=X.X{.(.J.J.M.M.M.h.g.>.0.2.<.^ ) ",
"R I ^ +.<.<.1.9.q.n.B.J.(.].'.*X%X4XuXjXxXdXlXNXBXVXCXZXZXZXZXZXZXZXZXZXZXCXZXCXjXaXzXbXgX8X:X%X X|.(.!.A.F.F.v.j.g.e.;.&.$.^ ! ",
"c U T _ <.6.:.t.t.n.B.Y.T.{..X%X&X<X7XuXlXvXvXmXVXCXCXZXZXZXZXZXZXZXZXZXZXZXCXvXvXBXmXaX3X3X3X,X-X+X).^.G.H.F.j.h.g.e.;.=.$.~ T ",
"{ ' U ( _ +.7.0.q.n.V.Y.T.{.*X%X<X4X7XwXaXlXMXBXVXCXZXZXZXZXZXZXZXZXZXZXZXZXVXVXVXvXfXaXsXyX0X1X=X X_._.L.H.F.v.v.j.g.>.=.1.^ ( ",
"|  .I _ 3.<.2.9.q.N.V.Y.Q.].*X&X4X7XwXuXdXlXvXBXCXCXZXZXZXZXZXZXZXZXZXZXZXZXZXCXmXcXzXfXtX8X,X=X X_.L.H.b.b.F.Z.j.h.g.>.:.;.;.=.",
"( _ <.1.2.9.9.0.q.N.C.Y.Q.].*X&X2X7XwXdXlXvXmXBXCXZXZXZXZXZXZXZXZXZXZXZXZXZXZXCXCXMXcXkXgXfXsXpXyX0X8X5X,X+XI.b.v.x.j.j.k.g.>.;.",
") / 2.0.e.e.h.j.M.V.V.Y.(.{.*X%X&X2X7XuXxXnXMXVXCXZXZXZXZXZXZXZXZXZXZXZXZXZXZXZXZXZXZXCXVXBXMXbXzXgXpX8X1X+XI.b.v.j.h.>.;.%.<./ ",
"U ) @.1.9.;.>.n.m.M.A.M.J.).%X&X4X7XwXuXhXnXMXVXCXZXZXZXZXZXZXZXZXZXZXZXZXZXZXCXBXbXnXhXiXeX8X1X:XOXoXH.H.b.F.Z.h.e.>.6.1.+.! T ",
"I / <.6.;.>.g.j.D.P.).;X4XwXuXuXxXxXlXlXvXvXNXBXVXCXZXZXZXZXZXZXZXZXZXZXZXZXZXZXVXbXfXiXtX7X4X<X:X X|._./.L.G.F.v.j.h.e.;.1.^ I ",
"&.;.>.g.j.j.j.j.x.D.}.%X<X4X4X7X7X7XwXuXdXlXvXNXBXCXZXZXZXZXZXZXZXZXZXZXZXZXZXZXCXVXmXkXpXqX8X3X:XOX|._.!.A.M.n.t.q.0.9.2.<.^ ( ",
";.;.;.>.>.g.g.g.m.M.M.M.V.(.{.*X&X4X7XuXdXlXvXMXVXCXZXZXZXZXZXZXZXZXZXZXZXZXZXZXCXBXbXgXpX9X6X,X=X X|._.J.A.m.q.0.9.1.4.3.^ ) | ",
") ^ 1.=.>.g.h.j.j.A.V.Y.T.{..X%X<X7X7XwXaXjXvXBXVXVXCXZXZXZXZXZXZXZXZXZXZXZXZXCXCXZXMXsX6X6X1X,X-X X).~.J.J.M.n.q.7.5.) ) T } Y ",
"U ! p.9.;.>.e.g.m.M.V.!.(.]..X%X&X&X2X7XdXnXvXvXvXBXCXCXZXZXZXZXZXZXZXZXZXZXZXCXbXbXVXVXgX6X>X%X*X X_.!.A.M.m.m.n.:.2.+.~ Y U ] ",
"T ^ 4.7.;.:.e.g.j.M.B.Y.T.].].[.*X&X7XaXjXjXdXhXvXBXBXVXCXCXZXZXZXZXZXZXZXZXCXCXBXfXtXzXMXcX9X@X.X[.{./.L.A.m.t.w.2.<.<./ ~ ) Y ",
"( ~ <.1.6.;.>.g.n.n.B.V.Y.T.'.[.%X4XwXiXtXwXiXlXMXbXmXVXVXCXCXZXZXZXZXCXVXZXZXVXBXMXsX1X8XfXzXrX@X_.T.Q.L.H.F.m.0.1._ ( H t U { ",
"T ~ <.7.9.9.q.q.q.n.q.y.s.R.'.*X%X<X3X3X4X0XjXbXjXjXBXBXBXVXVXCXCXZXZXVXBXBXZXZXmXbXbXsX:X=X5X9X>XoX/.K.J.F.b.l.g.9.<.)  .r { ..",
"! _ <.1.&.9.9.6.7.4.5.p.a.Y.].].[.%X:X%X4XdXjXiXeXbXmXvXBXMXVXBXBXZXCXVXcXzXbXZXVXzXgXkXrX;X.XXXXXXX^.J.G.F.l.z.j.g.9.5.) U n l ",
"_ / / / +.~ W  . .i.p.w.C.Y.Y.T.}..X[.;XeXaX7X3XiXvXgXzXmXmXBXmXcXCXBXBXkXpXpXzXZXmXfXqX6X>XOX|._./.J.C.q.n.j.j.j.g.>.2.~ Y e l ",
") T R r ' { U | u.i.w.B.B.B.J.(.(.'.].;X8X3X,X4XjXaXyXkXsXkXMXcXgXVXBXMXkXeXpX9XzXCXzX6X@X-X@XXX(./.L.A.9.7.7.9.>.e.:.&.+.I y c ",
"x 0 q d A { Y ( 5.0.n.m.M.F.V.R.R.T.).=X;X=X=XwXdX5X9XpXqXyXmXkXiXMXMXcXzX0XtX9X1XcXVXrX@X.X}.oX/.!.J.F.j.w.i.( ) <.=.&.<.^ T r ",
"a 4 b 0 c u W 1.:.g.h.j.h.t.y.a.s.Q.).}.}.{.;XiX5X>X6X6X6XqXzXgXeXcXBXfXkXqX4XwX,X-XbXmX-XL.'.T.H.P.M.M.j.h.7.W ` c [ ) ^ ~ W H ",
"a d d e u W 1.;.e.h.h.:.=.8.7.w.B.J.!.(.(.Q.4X5XOX>X1X1X1X1XsXsX5XfXVXrX9XrX,XwX3X/.-XMXsXI.Y.a.C.G.F.M.g.g.e.1.U b b x r U U y ",
"V z l t / %.,.,.e.e.t.1.+.+.7.n.A.J.J.J.Y.).+XXX X-X=X:X:X>XrXtX-XrXBXrX@X6X-X4X4X}.F.:XmX,Xc.s.p.n.M.g.g.q.0.;.<.] d a ; g s l ",
"B b U ^ $.=.*.*.=.8.+.E ^ 1.q.j.M.M.M.B.Y.^.^.).}.}..X XOX-X9X0XXX5XmXrX#X@X+X%X7X}.Y.j.,XgXI.j.7.4.n.0.0.0.9.2.<.p.U v h h = 5 ",
"e | +.$.$.$.$.L ^ L J E +.:.h.j.j.M.N.C.V.J.^.!.!.(.{.}._.+X8X4X/.-XcXyXoXXXoX~.4X;XM.R.f.5X9Xz.n.5.9.q.7.7.2.4._ ~ ( n h 5 C 6 ",
"U @./ ^ L ~ W I R i i ^ =.h.j.j.m.t.y.B.M.K.K.V.Y.(.(./.~.).4X;XL.^.sXpXI.(.^.G..X<XD.y.w.k.1X+Xk.q.5.9.2.5.+.+.~ ( U r 0 ; $ $ ",
"I I I ( ( U u u r u ~ &.e.h.g.e.q.0.t.n.M.F.M.B.V.J.J.L.J.Y.<X}.L.v.5XyXI.A.Y.J.A.;X^.t.w.0.n.#Xx.:.7.<.2.@.I I ( Y r l q a $ % ",
"' r ' ' ' c x k x T O.:.>.e.:.q.2.0.t.n.v.l.n.n.V.J.K.G.V.Y.%X^.H.l.OX9XH.F.B.J.j.].}.h.7.7.=.g.U.>.6.<.3._ R U ' r e 0 a h & $ ",
"x l { v v a B h U ^ &.:.:.;.=.1.1.9.q.h.z.h.q.t.M.F.F.F.m.V.Q.F.G.m.P.>XH.F.M.M.h.M.).n.2.5.2.1.d.x.2.<./ ~ I r c l 0 ..V B 5 5 ",
"s s g m = m j { ~ +.6.9.6.$.<.@.2.9.>.z.h.q.9.n.x.v.l.j.n.n.M.Z.F.m.M.I.P.v.M.m.m.e.x.M.9.^ <.1.3.d.d.^ / _ | { b v z V j ; f C ",
"& = * % * = d U _ 1.2.1.+.3.) ^ 1.7.g.f.>.2.2.g.j.j.j.h.q.q.n.j.v.n.q.c.c.l.h.t.n.q.>.x.9.5._ +._ @.0.<.( _ I r l V h h & $ 2 2 ",
"# @ + 2 = a e t @.<.^ ~ _ ( U ~ ^ &.g.>.2.^ 2.g.j.h.g.e.0.9.q.h.z.e.6.x.x.h.h.:.t.:.6.d.0.3.~ ~ ( R I 5.( H Y r l s 4 N 5 $ - 2 ",
"@ @   % f s ' ( ^ ~ T R T n U ( ^ :.e.$. .( 6.g.g.g.e.0.1.2.;.g.z.>.+.q.h.g.h.0.6.2.1.2.9._ ( ! T U c U _ n c r l g f N 3 % # 3 ",
"O + O * & d r W T U t t n 0 U U P ;.&.( ' ( =.>.>.:.;.1./ / <.:.z.;.^ 1.>.>.>.;.1.<.+.^ 2.~ T R H r c x ' ' s s z $ 5 * @ + @ @ ",
"> : @ - 5 l H ] n x x n h x { T $.=.i.' e I &.;.;.=.$.~ ( ~ / ;.g.=.W _ 2.;.:.6./ ~ ^ ) o.) } Y r ' X.v 4 0 s ; 4 ; $ + % @ > < ",
"3 1 # 6 h n c d a 4 b m g ..b I $._ { n x ~ 2.2.1.1.^ T Y T ( 2.e.2.U [ 3.<.6.1.~ R | W T  .' e r { S v 5 5 z M - 2 * % , , > < "
};
