/* XPM */
static char *xpm_[] = {
/* columns rows colors chars-per-pixel */
"64 64 241 2 ",
"   c #00001E",
".  c #080D30",
"X  c #3F3021",
"o  c #463424",
"O  c #4A3726",
"+  c #4D3A2A",
"@  c #4C3827",
"#  c #543E2C",
"$  c #583F2C",
"%  c #483C37",
"&  c #431832",
"*  c #56402E",
"=  c #5A422E",
"-  c #5D4431",
";  c #5E4834",
":  c #58463A",
">  c #4D443A",
",  c #614633",
"<  c #644935",
"1  c #694D37",
"2  c #654B39",
"3  c #6A4E39",
"4  c #6F513C",
"5  c #6D513B",
"6  c #66503E",
"7  c #72543E",
"8  c #72543D",
"9  c #73583F",
"0  c #0C2443",
"q  c #132A48",
"w  c #193551",
"e  c #1B324F",
"r  c #3B3F49",
"t  c #253A56",
"y  c #293E5A",
"u  c #283A55",
"i  c #2E3349",
"p  c #433C43",
"a  c #3E424C",
"s  c #2D425D",
"d  c #384458",
"f  c #324661",
"g  c #364A63",
"h  c #3B4D66",
"j  c #3C4F68",
"k  c #3D5169",
"l  c #375D74",
"z  c #2C7979",
"x  c #1B6C74",
"c  c #484547",
"v  c #564747",
"b  c #5B554A",
"n  c #474855",
"m  c #595557",
"M  c #4F4E53",
"N  c #614E43",
"B  c #6E5441",
"V  c #6A5A49",
"C  c #745641",
"Z  c #765943",
"A  c #7B5B44",
"S  c #745D4B",
"D  c #7D5E49",
"F  c #665459",
"G  c #576858",
"H  c #7D614A",
"J  c #75634F",
"K  c #7B6A59",
"L  c #676352",
"P  c #434D64",
"I  c #42556C",
"U  c #485466",
"Y  c #555768",
"T  c #465971",
"R  c #4A5C73",
"E  c #465770",
"W  c #505E72",
"Q  c #4C7263",
"!  c #4E6177",
"~  c #53657A",
"^  c #58677A",
"/  c #51736D",
"(  c #797367",
")  c #656B78",
"_  c #6B6B6B",
"`  c #765F68",
"'  c #815F48",
"]  c #82634C",
"[  c #856955",
"{  c #8C6B53",
"}  c #876852",
"|  c #93735B",
" . c #916E51",
".. c #8A7A6A",
"X. c #478578",
"o. c #5D8E7F",
"O. c #6B8577",
"+. c #8A8476",
"@. c #978674",
"#. c #A38C7B",
"$. c #157F91",
"%. c #5C6D82",
"&. c #5B778A",
"*. c #627285",
"=. c #6D7B8D",
"-. c #68768A",
";. c #6F7E90",
":. c #727E90",
">. c #727B8E",
",. c #9A7C8B",
"<. c #2E8D96",
"1. c #3CA399",
"2. c #1AB3B7",
"3. c #39BAB3",
"4. c #2FB1AB",
"5. c #2392A1",
"6. c #468887",
"7. c #4D968E",
"8. c #748293",
"9. c #7D8A9B",
"0. c #7A8797",
"q. c #6E818C",
"w. c #5CA79E",
"e. c #35C3BD",
"r. c #29C4BD",
"t. c #49C6BD",
"y. c #1DCAC8",
"u. c #14D9D9",
"i. c #2ACDC7",
"p. c #33CCC6",
"a. c #36D2CC",
"s. c #2DD9D5",
"d. c #33D7D1",
"f. c #02FFFF",
"g. c #0CFFFF",
"h. c #06F5F4",
"j. c #14FEFE",
"k. c #1BFEFE",
"l. c #18F5F4",
"z. c #11E7E4",
"x. c #25F6F5",
"c. c #23FEFE",
"v. c #2CFFFF",
"b. c #2BF6F5",
"n. c #32FFFF",
"m. c #3BFEFE",
"M. c #3AF6F5",
"N. c #29E4E5",
"B. c #21E1E0",
"V. c #6CD0D6",
"C. c #44FFFF",
"Z. c #4CFFFF",
"A. c #49F3F4",
"S. c #52FFFF",
"D. c #5CFFFF",
"F. c #5AF3F2",
"G. c #54E7E5",
"H. c #64FFFF",
"J. c #6DFFFF",
"K. c #66F6F5",
"L. c #72FFFF",
"P. c #7CFFFF",
"I. c #72F5F4",
"U. c #7AEDF0",
"Y. c #45D5D1",
"T. c #838E9D",
"R. c #85929C",
"E. c #979388",
"W. c #AC919A",
"Q. c #99A299",
"!. c #AAA49B",
"~. c #8E9AA8",
"^. c #8996A4",
"/. c #929DAA",
"(. c #949AA0",
"). c #97A2AF",
"_. c #9BA5B2",
"`. c #9EA9B5",
"'. c #8BB5B5",
"]. c #A4AEA5",
"[. c #A5B4AC",
"{. c #A5ADB8",
"}. c #A6B0BB",
"|. c #ABB4BE",
" X c #AABBB4",
".X c #BAB8B1",
"XX c #BE98A6",
"oX c #C7B9B6",
"OX c #AEC3BD",
"+X c #C9C3BD",
"@X c #AEB7C1",
"#X c #B4BCC5",
"$X c #B8BEC7",
"%X c #E2BBC4",
"&X c #BCC3CB",
"*X c #B3CEC9",
"=X c #B2D3CF",
"-X c #84FFFF",
";X c #89FCFB",
":X c #92FEFE",
">X c #9CFFFF",
",X c #9BF6F5",
"<X c #95EEEF",
"1X c #A4FFFF",
"2X c #ACFFFF",
"3X c #B4FEFE",
"4X c #B9FEFE",
"5X c #B8F3F3",
"6X c #BBE6E8",
"7X c #8CD7D2",
"8X c #C3C5CD",
"9X c #C6CCD3",
"0X c #CBD2D6",
"qX c #CAD6D9",
"wX c #D1D6DB",
"eX c #D4DADE",
"rX c #D3D6D5",
"tX c #D3C8CF",
"yX c #D8DDE2",
"uX c #CEDFE4",
"iX c #DBE4E6",
"pX c #C3FEFE",
"aX c #CCFEFE",
"sX c #C7F6F5",
"dX c #D4FFFF",
"fX c #DCFFFF",
"gX c #DDF5F3",
"hX c #C8E8E4",
"jX c #E3E6E9",
"kX c #E9ECEE",
"lX c #E6E8EA",
"zX c #EDEFF1",
"xX c #E3FEFE",
"cX c #EBFEFE",
"vX c #E8F4F4",
"bX c #F2F5F5",
"nX c #F5FDFD",
"mX c #FEFEFE",
"MX c #F6F7F8",
"NX c #F2EAEA",
"BX c #DEDBDC",
/* pixels */
"D D @ 3 5 - , = * < 3 , = = = # 5 4 1 - < - 3 < , = - = , = < 1 D D @ 3 5 - , - * < 3 , = = = # 8 4 1 - < - 3 < , = - = , = < 1 ",
"5 5 3 < , - , # * = = , , = # , 5 3 3 , o 1 { 3 ] < , = < $ 5 1 5 5 3 < , = , $ * = = , , = # , 5 3 3 , o 1 { 3 ] < , = < $ 5 1 ",
"1 , 1 8 5 o , 5 1 8 < @ 4 5 8 = = = - 1 < 3 - 3 1 # $ $ - # 3 1 1 , 1 8 5 o , 5 1 8 < @ 4 5 8 = = = - 1 < 3 - 3 1 # $ $ - # 3 1 ",
"- 5 8 8 ] = , 3 , < D # 9 1 < , 8 1 3 8 C 3 3 - 5 3 8 4 3 5 ; 3 - 5 8 8 ] = , 1 , < D # 9 1 < , 8 1 3 8 C 3 3 - 5 3 8 8 3 5 ; 3 ",
"- 1 , 3 $ o = , , - * = - - - 8 8 8 3 < < $ 2 , 3 3 8 1 , , # + - 1 , 3 $ o = , , - * = - - - 8 8 9 3 < < $ 2 , 3 3 8 1 , , # + ",
"- , $ - < = - # , = < < 3 8 - , < 1 $ Z 8 , - * < 4 < < 2 < - , - , $ - < = - # , = < < 3 8 - , < 1 $ Z 8 , - * < 4 < < 2 < - , ",
"5 = - C 3 4 4 < O , 3 3 1 5 < 5 5 , < 2 9 , , - < 5 1 D 3 - 3 A 5 = - C 3 4 4 < O , 3 3 1 5 < 5 5 , < 2 9 , , - < 5 1 D 3 - 3 A ",
"< - 8 1 3 5 4 8 $ 8 8 A A 8 3 ] + Z 9 - $ , , 5 5 ' C < 3 2 B 3 < - 8 U b 5 4 8 $ 8 8 A A 8 3 ] + Z 9 - $ , , 5 5 ' C < 3 2 B 3 ",
", ; | ' , , - < - 5 2 D 4 9 C 9 = 5 A Z 1 # 5 5 ] < < , : ; , 8 , : ) ~ v , - < - 5 2 D 4 9 C 9 = 5 A Z 1 # 5 5 ] < < , - - , 4 ",
", * D C = - - - , 5 3 8 Z 9 1 8 - C C 2 H - 1 Z @.K , - U M C < , r jX9.* - - v , 5 3 8 Z 9 1 8 - C 8 < H - 1 Z | , , - - - C , ",
"< # 5 , 3 = < 1 - < 3 8 8 8 8 8 - 3 A , - # 5 S =X[., < a a 2 H 2 W 0X).b - 2 M v < 3 8 8 8 4 8 - 3 A , - # 5 3 4 , - , + X 1 H ",
"; , 3 { C 3 8 , = 3 - 3 3 < Z H + - , 3 ; - B =X[., = - ) R V [ n iX^.zX^.2 8 b <.N - 3 3 < Z H + - , 3 ; - 3 Z , , = - [ * C [ ",
"; 5 8 3 = , , - A 3 # - < - Z , - - # ] < J *X[.+ A 4 M 0XeXn ; c yX~.{.{.v , - B.5.% - < - Z , - - # ] < 3 * - + A 4 C 8 , - ; ",
"C 3 - = , $ + 5 1 5 D - - - , < 3 < 3 , 6 *X XA S ( B c 8XzX#Xc m lX^.0 kX/.p 4 Y D.5.K - - , < 3 < 3 , - ; 8 A , Z C ; ; , + - ",
"8 2 - = < C - < C 4 C C - + 8 C C 8 C 2 *XhX5 S .X'.> : wX~.~.#X0XmX8.t |.8.n N Y &XJ.pX( % 8 C C 8 C < + C 5 2 < 4 < - , # o 5 ",
", $ # = 3 8 , < 4 3 , < - 1 { | } } 8 [.dXE.[ qX+.m r p eX}.0 `.nXmX0.s h I , 1 j Y vXC.<X,.{ | } } 8 4 $ 8 A ; , , , , 3 < - , ",
", $ 9 # 3 , 3 2 4 1 1 $ # 1 Z C < 2 Q.dXQ.3 .X!.- % 9.~ &X@Xy e 9XmX8.s T s 3 N j ) kXN.j.6X..C < 2 2 3 $ 3 3 - - - 5 3 , - 8 - ",
"= - , = 1 , D - 3 5 , - - 5 C - $ ].dXdX.X=XV.- - q.:.9XwX_.y g T.mX~.t R `._ P j *.BX&.h.m.mX..$ - 3 - + * - = = 3 3 , - - < o ",
"9 1 , # A < = O , 4 - - = 4 8 3 Q.dXaXnXnXG.x p +XuX  %.mX~.q ! s `.0.f R &X=.j g R NX&.A.v.>XfX( - 1 # $ 3 5 < < 3 - $ # , = - ",
"8 4 , - + , # $ # < - * < - 8  XdXdXnXfXm.7.5 bXrXP 0.-.*.eX0.g R f k ! T g I I R }.^.oXnXf.c.nXfX+.# = 3 5 5 4 <  ., 5 3 5 - , ",
"= B 4 - X = 9 5 8 - + < 8 8 [.dXdXxXfXm.i.O.+X|.$Xy &XiX. _./.g g y I ~ f y s h g ~.~.mXmXy.k.>XfXqX5 8 8 5 < ' 3 - 8 < 1 < A 3 ",
"- Z < * @ < 5 9 < 3 $ 5 < ].dXdXdXmXP.f.'.#.(.. T.9XjX9Xt g t e 9.$X*.q ;.@X}.E ^.}.mXmXW.I f.c.fXuX+.< 8 D 3 3 # 5 3 - = $ # = ",
"- = - 3 Z = , , < < , 2 [.dXdXdXdXxX1X4XmXw.: P t 8.#X;.h t 8.}.9X}.*.8.MX9X#X&X{.{.=XU.& W f.C.nXfX=X, , 3 $ $ 5 2 , = # $ + * ",
"3 ; 5 3 3 1 < , = - # 3 dXdXfXcXdXaXmXnXY.Q # n ~ g t g I ;.bXkX~ 0 g mXmXI q @X@Xe w 2.6.< 4.c.:XxXhX+.2 2 $ - 5 - * $ $ 3 = * ",
", - Z 3 5 - 5 , , $ , ].aXnX4XS.dXnXcXn.y.- - : g R T E y wXmX=.e T j nXmX-.t f #X0Xi l l.X.- f.n.cXnX2XX.- - * , - # { A C , < ",
"= - , 5 = 5 < 9 , , 5 dXcXfXZ.J.cXdXZ.u.X.4 @.Q.M I T T y 9XmXT.s T f 0.^.j t h s #X8X! 4.x.1.f.S.cXnX>Xr.4 9 4 5 5 3 A 3 $ 3 D ",
"* - - - - - = = B Z  XxXdXZ.:XmXmX2Xf.2.4 #.gX( m g T T I ~ iX).y t {.&X_.#X&XT s j `.F m k.c.f.S.cXnX1Xz.7.- - - Z 5 1 $ $ 3 3 ",
"* - + 5 , - - O A B xXcXm.g.cXcXaXS.z.G +.iX+.- : U T T h =.lX^.q `.&X9.mXmXmX&Xf h s v 9 k.c.f.S.cXmX>Xf.e., - - - - C 2 $ < 3 ",
"- * o - 3 = 4 8 < 2 vXC.g.2XfXnXpXf.4.L NX( 2 , - 2 Y T y 0XmXyX! eX^.8.T.iXmXmXwX~ j n 5 X.c.f.S.cXfXfXJ.z.7., - < 2 S 2 - # 3 ",
"$ + # , = - = 1 3 , F.f.c.nXcXpXC.2.O.rX+.2 - - 3 + 1 d s 9XmXmXiXjX*.eX0X%.^ bXmX-.c n < * c.f.S.cXdXmX1Xf.p.- 3 + 1 , - O $ = ",
"< - - < , - - 4 , 4.f.k.:XfXnX:Xf.7XoX@.# + # $ - c b + d 8.9.iXmXmX&XjXmX|.~.kX/.v - 2 5 G c.f.S.cXfXnX:Xf.4.$ - = = + , # , , ",
"C 3 $ 3 4 < 3 , * c.g.k.xXcXfXpX3XmXiX8 ; - 2 5 < a 0X!.> : i g 9XmXmXmXMXmXmXmXt # C 5 < K j.f.S.cXfXnX:Xf.3.5 < < , - < < , 3 ",
"D D @ 3 5 - , - * k.c.1XfXfXdXfXcXqXK - < - 3 < , p |.bX) c d /.~.&XmXmXmXmXbX/.#X) 3 , B =Xj.f.S.cXfXnX:Xf.3.< , = - = , = < 1 ",
"5 5 3 < , - , $ * g.c.cXcXdXdXcXpXt.3 , o 1 { 3 ] c ).mXMXwXeXmXkX^ &XmXmXmX*.f mX8.$ , K 4Xk.f.Z.cXfXnX:Xf.t.3 ] < , = < $ 5 1 ",
"1 , 1 8 5 o , 5 1 G x.aXcXdXdXcX4Xy.- 1 1 3 - 3 v 9.zXnXmXmXmXmXmXjX9.~ %.*.$XyXMX*., @ [ 3Xk.f.Z.cXfXnX:Xf.3.3 1 # $ $ - # 3 1 ",
"- 5 8 8 ] = , 3 , < 5XfXdXdXcXpXn.i.3 8 C 3 3 - c |.mXMXmXnXMXMXbXmXjX0X^ `.mXmXmX^ D # [ 3Xf.v.pXxXdXnX:Xg.3.- 5 3 8 4 3 5 ; 3 ",
"- 1 , 3 $ o = , , rXmXpXS.aXmX3Xf.a.3 < < $ 2 c R.bXnXmX~.|.mXmX_.k *.kXlXbX;.yXmX^ * ; jX4Xf.n.cXfXdXnX:Xf.4., 3 3 8 1 , , # + ",
"- , $ - < = - # , cX4Xm.>XmX4Xc.k.p.$ Z 8 , = % }.mXmXmX^ T.zXnXjX9X%.! 9.=.R wX9.- < ~ nX4Xf.m.fXfXdXnX:Xf.1.V < 4 < < 2 < - , ",
"5 = - C 3 4 4 < O sXc.g.fXmX>Xf.c.p.< 2 9 , , c `.mXnX/.f ^ h #XmXmXMXyXyXyXMXMXg , 3 %.nX1Xn.aXfXdXdXnX:Xf.1.( < 5 1 D 3 - 3 A ",
"< - 8 1 3 5 4 8 $ b.k.3XnXpXv.k.c.a.9 - $ , c T.mXmX@Xt }.=.~./.{.nXmXmXmXmXmXjX^ T Y %.cX1Xm.fXfXdXdXnX:Xg.h.G.5 ' C < 3 2 C 3 ",
", ; | ' , , - < - h.k.fXmXpXg.k.c.a.A Z 1 # v /.nXmXmXnX}.s 0XmX=.}.mXMXMXmXlX^.kXmX0Xq.xX>Xc.dXfXdXdXnX:Xf.f.L.] < < , - - , 4 ",
", * D C = - - - , l.C.dXcX1Xk.k.c.a.C 2 H - 1 F U /.kXlXzXbXmXkX;.#XmXMXmXMX^ `.zXwX%.6XnX1XZ.dXfXdXdXnX:Xf.S.vX| , , - - - C , ",
"< # 5 , 3 = < 1 - b.dXmX4Xk.k.c.c.p.A , - # 5 3 4 M U d @XmXkX;.}.mXMXMXmXmX8.k P r %.fXxXdXfXdXdXdXdXnX;Xg.P.bX4 , - , + X 1 H ",
"; , 3 { C 3 8 , = v.dXmX4Xj.k.c.c.s.b 3 ; - 3 Z , , = - _ U u |.mXmXMXnXMXkXbXW = 3 gXfXdXfXfXdXdXdXdXnXL.Z.cXgX, , = - [ * C [ ",
"; 5 8 3 = , , - A s.aXmX4Xk.k.c.c.c.p.] < 3 * - + A 4 C 8 2 n 0XmXMXMXmXbX*.yXT.C S vXdXdXdXdXdXdXdXdXnXL.S.mXsX+ A 4 C 8 , - ; ",
"C 3 - = , $ + 5 1 4 eXcX4Xk.k.c.c.c.s.; - ; 8 A , Z C ; ; r #XmXMXMXMXmXmX*.0XmX>.6XxXdXdXdXdXdXdXdXdXnXL.Z.mX;X2 Z C ; ; , + - ",
"8 2 - = < C - < C 4 S cX4Xk.k.c.c.c.c.p.c C 5 2 < 4 < - ; Y eXmXMXMXnXmXwXk 9XmXnXfXdXdXdXdXdXdXdXdXdXnXH.m.mX;X< 4 < - , # o 5 ",
", $ # = 3 8 , < 4 3 , 0X4Xk.k.c.c.c.c.c.s.V A ; , , , , d 9XmXMXnXMXmXmX-.k lXmXfXdXdXfXcXdXdXdXdXdXdXcX-XH.mX,X, , , , 3 < - , ",
", $ 9 # 3 , 3 2 4 1 1 = 4Xk.k.c.c.c.c.c.c.a./ b - - 3 n t &XmXMXnXmXjX8X*.wXmXcXdXdXfXaX2XdXdXdXdXdXxXcXdXcXfXH.- - 5 3 , - 8 - ",
"= - , = 1 , D - 3 5 , , *Xd.j.c.c.c.c.c.c.c.c.s.Q G N 0.I @XmXmXmXjXU i I lXmXdXdXdXnX4Xv.dXfXdXdXfXpX2XfXmX-Xz.= 3 3 , - - < o ",
"Z 1 , # A < = O , 4 - - = L k.c.c.c.c.c.c.c.c.k.u.7.tXmX8.}.mXyX}.m - # v yXcXdXdXfXfXJ.n.dXfXdXdXnX-Xv.xXmX1X4.< 3 - $ # , = - ",
"8 4 , - + , # $ # < - * < b d.c.c.c.c.c.c.c.c.k.$.W.mXmX9.;.&X^   ( 5 - z 5XcXdXdXcXxXf.v.fXfXdXdXmX>Xm.cXdXD.e.<  ., 5 3 5 - , ",
"= B 4 - X = 9 5 8 - + < 8 8 > i.c.c.c.c.c.j.f.f.$.XXmXmX/.w y n ) vXK G u.4XcXdXfXfX>Xf.k.fXxXdXfXdXD.m.mX>Xz.7.3 - 8 < 1 < A 3 ",
"- Z < * @ < 5 9 < 3 $ 5 < Z , 1 p.c.c.j.f.c.;XD.<.` yXmX0.. p = E.mXw.z.f.2XcXdXcXxXj.g.P.fXfXdXmX4Xf.Z.nXD.r.3 # 5 2 - = $ # = ",
"- = - 3 9 = , , < < , < , 1 < - , y.f.c.D.4XmXH.V 2 ,.mX%X&.z O.rXmXS.f.S.aXfXfXmX>Xf.c.nXxXdXcXnXS.k.2XD.f.X.$ 5 2 - = # $ + * ",
"3 ; 5 3 3 1 < , = - # 3 = < - A # 5 H.1XmXnXm.f.e.<.V.:X1Xv.n.aXmX2Xc.f.2XmXfXnX-Xf.j.;XfXdXcXnXC.c.4XJ.h./ $ - 5 - * $ $ 3 = * ",
", - Z 3 5 - 5 , , $ - , $ < - , !.oXnXmXxXm.f.c.c.c.g.f.f.c.mXmX3Xg.f.S.aXcXmX;Xf.f.j.xXxXcXnXH.f.S.P.f.Q - - * , - # { A C , < ",
"= - < 5 = 5 < 9 , , 5 9 J  XQ. XdXdXnXfXm.f.c.c.c.c.c.g.D.mXpXL.v.f.S.nXnXnX:Xg.g.c.P.fXmXcXD.f.c.j.f./ , 4 9 4 5 5 3 A 3 $ 3 D ",
"* - - - - - = = B 9 3 Z V qXdXdXaXnXcXm.f.c.c.c.c.c.c.j.L.1Xv.f.f.S.cXmXmX:Xf.g.j.n.mXmX-XD.f.k.c.c.o.- 4 8 - - - Z 5 1 $ $ 3 3 ",
"* - + 5 , - - O A < - , 9 4 OXdXnXcXC.f.c.c.k.k.c.c.c.c.g.f.f.L.>XmXmX:XJ.j.g.c.k.c.-XJ.f.f.c.c.1.X.- 2 8 - , - - - - C 2 $ < 3 ",
"- * o - 3 = 4 8 < - , - 3 , , E.R.M.h.x.x.3.6.6.4.x.x.x.x.x.l.K.,XI.K.l.h.x.x.7.7.N.h.h.x.N.6./ = , 1 * Z - 2 , - < 2 S 2 - # 3 ",
"$ + # , = - = 1 3 , = # < # - - + $ 2 2 2 2 - - 3 + 1 , - O $ = $ + # , = - = 1 3 , = # < # - - + $ 2 2 2 2 - - 3 + 1 , - O $ = ",
"< - - < , - - 4 , - - 3 5 < A 3 = 3 | 4 # + # * - = = + , # , , < - - < , - - 4 , - - 3 5 < A 3 = 3 | 4 # + # $ - = = + , # , , ",
"C 3 $ 3 4 < 3 , * # C 5 < D 4 $ , Z D 8 ; - 2 5 < < , - < < , 3 C 3 $ 3 4 < 3 , * # C 5 < D 4 $ , Z D 8 ; - 2 5 < < , - < < , 3 "
};
