/* XPM */
static char *xpm_[] = {
/* columns rows colors chars-per-pixel */
"64 64 248 2 ",
"   c #0F0811",
".  c #271518",
"X  c #32231D",
"o  c #2D2518",
"O  c #0D0B29",
"+  c #150D25",
"@  c #1A182B",
"#  c #1C1B38",
"$  c #071336",
"%  c #221D2C",
"&  c #351929",
"*  c #241E34",
"=  c #300E2D",
"-  c #18253A",
";  c #28232B",
":  c #372928",
">  c #3F3021",
",  c #282537",
"<  c #342A32",
"1  c #332A38",
"2  c #3B3232",
"3  c #383439",
"4  c #2F3136",
"5  c #521518",
"6  c #770E10",
"7  c #56052B",
"8  c #461A25",
"9  c #581921",
"0  c #4C1538",
"q  c #6D122D",
"w  c #462928",
"e  c #453424",
"r  c #4A3726",
"t  c #44332B",
"y  c #4A362B",
"u  c #4D3A2A",
"i  c #4C3926",
"p  c #543E2C",
"a  c #583F2C",
"s  c #4B3A33",
"d  c #463735",
"f  c #533D32",
"g  c #563A39",
"h  c #53262F",
"j  c #7A2C33",
"k  c #5A2107",
"l  c #56402E",
"z  c #5A422E",
"x  c #5D4431",
"c  c #5E4834",
"v  c #574237",
"b  c #614633",
"n  c #644935",
"m  c #694D37",
"M  c #664C38",
"N  c #6A4E39",
"B  c #6C4F3A",
"V  c #6A4E39",
"C  c #68453A",
"Z  c #6D513A",
"A  c #6F513C",
"S  c #6E513B",
"D  c #70523A",
"F  c #71533D",
"G  c #72543E",
"H  c #72543D",
"J  c #73583F",
"K  c #6F4629",
"L  c #5C5210",
"P  c #0E0D5A",
"I  c #330F4B",
"U  c #1C2848",
"Y  c #0B2346",
"T  c #32364C",
"R  c #000C75",
"E  c #302D6D",
"W  c #022074",
"Q  c #4A315A",
"!  c #4D354C",
"~  c #532E4C",
"^  c #3E425B",
"/  c #354378",
"(  c #584B45",
")  c #474655",
"_  c #564B5B",
"`  c #524A51",
"'  c #6E5441",
"]  c #745640",
"[  c #765943",
"{  c #7B5B44",
"}  c #7D5D48",
"|  c #765B49",
" . c #674D4E",
".. c #7D614A",
"X. c #4E526A",
"o. c #575867",
"O. c #4F5674",
"+. c #5B6376",
"@. c #6B676F",
"#. c #666777",
"$. c #767174",
"%. c #6A5F62",
"&. c #8D1414",
"*. c #B40100",
"=. c #B81709",
"-. c #A61710",
";. c #AD0E0E",
":. c #8A1727",
">. c #8D2E2F",
",. c #A43C33",
"<. c #942719",
"1. c #D71607",
"2. c #C61406",
"3. c #EF1000",
"4. c #E52413",
"5. c #B84839",
"6. c #B14734",
"7. c #B56930",
"8. c #985A3F",
"9. c #CC4519",
"0. c #F75110",
"q. c #FB661B",
"w. c #FC6B22",
"e. c #F46D2B",
"r. c #CC5C3B",
"t. c #9D2757",
"y. c #E71D57",
"u. c #805F4A",
"i. c #815F47",
"p. c #8D464E",
"a. c #B1574E",
"s. c #83634C",
"d. c #876651",
"f. c #8B6B53",
"g. c #876A55",
"h. c #93735B",
"j. c #917050",
"k. c #B6635B",
"l. c #8A5B6D",
"z. c #8F6A6F",
"x. c #B36C6B",
"c. c #D15548",
"v. c #C76652",
"b. c #C67667",
"n. c #D97C66",
"m. c #C67D72",
"M. c #E36F59",
"N. c #6C8265",
"B. c #8E8B2A",
"V. c #FFAE31",
"C. c #F9882E",
"Z. c #A2916A",
"A. c #F28949",
"S. c #FEA846",
"D. c #FFB34C",
"F. c #CB8778",
"G. c #D68E7F",
"H. c #EC8C6B",
"J. c #EFBA7C",
"K. c #FFD056",
"L. c #000A93",
"P. c #293695",
"I. c #5E2291",
"U. c #394D8C",
"Y. c #2F4DAC",
"T. c #48548C",
"R. c #4D548E",
"E. c #556397",
"W. c #4F609A",
"Q. c #787686",
"!. c #6D7793",
"~. c #5C72AA",
"^. c #6B7BAA",
"/. c #6774A5",
"(. c #747BAA",
"). c #0F6AFF",
"_. c #105DE0",
"`. c #8C7784",
"'. c #A97D87",
"]. c #FF59AD",
"[. c #807DFF",
"{. c #8249E3",
"}. c #7A86AB",
"|. c #6E83B5",
" X c #788BBA",
".X c #7397B8",
"XX c #6A83A8",
"oX c #7292C8",
"OX c #68AFF7",
"+X c #8E8B91",
"@X c #A6909B",
"#X c #838DB3",
"$X c #8F93AE",
"%X c #98A4B9",
"&X c #94A1AD",
"*X c #A4A7B7",
"=X c #AEB0B4",
"-X c #AA99AB",
";X c #D89988",
":X c #C59285",
">X c #E5AC97",
",X c #EFAC8E",
"<X c #CFB6AE",
"1X c #E5B7AD",
"2X c #E7A18C",
"3X c #F4D184",
"4X c #FBD6BA",
"5X c #F3C7B0",
"6X c #FFE7BB",
"7X c #D2C3B0",
"8X c #8599C7",
"9X c #97A7C9",
"0X c #8BA6D3",
"qX c #93AAD5",
"wX c #9CB2DA",
"eX c #8BA2CE",
"rX c #A8B9D8",
"tX c #B2BBD1",
"yX c #A7BCE1",
"uX c #98B3E0",
"iX c #C0BFC2",
"pX c #B7C2D9",
"aX c #BEC0C4",
"sX c #B3C8EB",
"dX c #BDE1FF",
"fX c #C7CCD9",
"gX c #D2D6CF",
"hX c #F7D5C8",
"jX c #FCE5C7",
"kX c #FBF6D4",
"lX c #F1ECD1",
"zX c #C8D5EA",
"xX c #D4DBE9",
"cX c #C9DAF4",
"vX c #D3E4FA",
"bX c #D8E6F7",
"nX c #DEF8FF",
"mX c #D4E7EB",
"MX c #FFFFE5",
"NX c #FFFEEC",
"BX c #F7F6E3",
"VX c #ECF5FE",
"CX c #E8F7FE",
"ZX c #F4FBFE",
"AX c #FEFFFF",
"SX c #FCFBF5",
"DX c #E6EAEF",
"FX c #DCE2D6",
/* pixels */
"} } i B Z x b x l n N b z z z p Z A m x n x B n b z x z b z n m } } i B Z x b x l n N b z z z p D A m x n x B n b z x z b z n m ",
"Z Z N n b x b p l z z b b z p b Z N N b e m f.B s.n b z n p Z m Z Z N n b x b p l z z b b z p b Z N N b e m f.B s.n b z n p Z m ",
"m b m H Z e b Z m H n r A Z F z z z x m n N x N m p p p x p N m m b m H Z e b Z m H n r A Z F z z z x m n N x N m p p p x p N m ",
"x Z D D s.z b N b n } p J m n b D m B F ] B N x Z B H A N Z c N x Z D D s.z b N b n } p J m n b D m B F ] N N x Z N H F N Z c N ",
"x m b N p e z b b x l z x x x F D H N n n a M b B B F m b b p u x m b N p e z b b x l z x x x F D J N n n a M b B B F m b b p u ",
"x b p x n z x p b z n n B D x b n m a [ F b x l n A n n M n x b x b p x n z x p b z n n B D x b n m a [ F b x l n A n n M n x b ",
"Z z x ] N A A n r b B B m Z n S Z b n M J b b x n Z m } B x N { Z z x ] N A A n r b B B m Z n S Z b n M J b b x n Z m } B x N { ",
"n x H m N Z A D p H H { { F B s.u [ J x p b b Z Z i.] n N M ' B n x H m N Z A D p H H { { F B s.u [ J x p n b Z Z i.] n N M ' B ",
"b c h.u.b b x n x Z M } A J ] J z Z { [ m p Z Z s.n n b x x b A b c h.u.b b x n x Z M } A J ] J z Z { [ m p Z Z s.n n b x x b A ",
"b l } ] z x x x b Z B H [ J m H x ] ] M ..x m [ h.b b x x x ] b b l } ] z x x x b Z B H [ J m H x ] H M ..x m [ h.b b x x x ] b ",
"n p Z b N z n m x n B D F D H H x N { b x p Z N A b x b u > m ..n p Z b N z n m x n B D F D F H x N { b x p Z N A b x b u > m ..",
"c b N f.] N F b z N x N B n | ..u x b N c x N [ b b z x * U T T < c N f.] N F b z N x N B n | ..u x b N c x N [ b b z x g.l ] g.",
"c Z F N z b b x { N p x n x | b x x p s.n N p x u { A ] f ) DXAX&X1 d M z b b x { N p x n x | b x x p s.n N l x u { A ] H b x c ",
"] N x z b p u Z m Z } x x x b n N n N b x c A { b | ] x c y o.ZXAXAX$X: x p u M x c ' u s u l n N n N b x c H { b | ] c c b u x ",
"H M x z n ] x n ] A ] ] x u H ] ] F ] n u ] Z M n M n x b p X #.AXVXAX#.e ] z 3 _ ) ) ) ) ) o.v c F ] n u ] Z M n A n x b p e Z ",
"b a p z B H b n A N b n x m f.h.d.d.F A p H { c x , b b N n t #.vXqXZX*X; p ( xXZXnXnXxXvXAX*X1 d d.F A p H { c b b b b N n x b ",
"b p J p N b N M A m m a p m [ ] n M M B p m N z l @ s N b x y Q.ZX8XsXAXaX; !.yX~.8X XqXnX*Xd ] n M M B p N V x x x Z N b x F x ",
"z x b z m b } x N Z b x x Z ] x p x N d 2 t t e z , T u x c t +.ZXzXrXVXxX8X/./.#XT.T.cX=X: S x p x N x u l x z z B B b x x n e ",
"J m b p { n z r b A x x z A H N x x m < ; @ }.Q.: + sXO.: b t U vXmXqX XE.fXVXbXxX(.sX*X: : * M x x m p p B Z n n B x p p b z x ",
"H A b x u b p p p n x l n x F x x p p z N 2 &XAX+XX. XsXX.e : }.cXbXqX~.pXAXwXVX/. X%X: y +., x x p p z N Z Z A n j.b Z N Z x b ",
"z ' A x > z J Z H x u n F H u u x b Z v B Z : Q.VXAX#XoX8X, tXZXwXpXqXwXzXwXcXxX^.0XO X *XVX, u x b Z H F Z n u.N x F n m n { N ",
"x | n l i n Z J n N p Z n [ b n Z Z Z # % } N + sXvXAX%XE.VXAXrXeXeXwXyX0X0XcXE.|.bX=X&XCXVX# n Z Z Z n H } N B p Z N x z p p z ",
"x z x N [ z b b n n b n b m n x b N N % !.! . t @.zXcXZXfXrXW.~.qXyX XU.pXrXT.U.oXzXvXCXvX+.s x b N N b b B p p Z M b z p p u l ",
"N c Z N N m n b z x p B z n x { p N N s X.#X}.< # #XwXcXrXW.9XtXVX9X^.*X$X}.^.rX XoXuX Xo.r x { p N N x M M p x Z x l p p N z l ",
"b x [ N Z x Z b b p x b p n x b b b n c u T sXqXT.E /.8X/.zXAXAXpX|.CXAXxXE.rXCXpX^.qXX.e n x b b b n x x x x l b x p f.{ ] b n ",
"z x b Z z Z n J b b Z J D r b N ] { A l b M T wXwX XT.T.(.AXxXsX+X6.@XoXZXDX}.rXvXsX+.s D r b N ] { A l b A J A Z Z N { N p N } ",
"l x x x x x z z ' J N | b H m n A } { x A H f T ^.yX9X^./.AXvX(.,.H.b.Q oXAXQ.+XAXAX) V b H m n A } { x A H x x x | Z m p p N N ",
"l x u Z b x x r { n x b J A z z x b x M 3 ; % !.qX/./.E.U 9XnX'.>.Y.<XH.Q dXQ.  fXAXX.y J A z z x b x M H x b x x x x ] M p n N ",
"x l e x N z A H n x b x N b b b z b m l M s @ ^ 9XqX X1 j Q 0X<X>.O..X<Xn.~ U f 3 fX+.y N b b b z b m l [ x M b x n M | M x p N ",
"p u p b z x z m N b z p n p x x u p M M M M x x % ^ .X1 r.,.E tX:X'.xX|.x.5 : m N 1 , t n p x x u l M M M M x x N y m b x r p z ",
"n x x n b x x A b x x B Z n { B z N h.A p u p p x p - , a.>.l.BXAXSXZ.!.DXZ.2 B b x % f Z n { B z N h.A p u p p x z z u b p b b ",
"] N p N A n N b l p ] Z n } A p b [ } D c c M Z n n x , , O '.SXAXNX5X4XMXlX_ y l p ] Z n } A p b [ } D c x M Z n n b x n n b B ",
"} } i B Z x b x l n N b z z z p Z A m x n x B n b z x z d = z.BXAXAXjXkXkX%.2 x l n N b z z z p Z A m x n x B n b z x z b z n m ",
"Z Z N n b x b p l z z b b z p b Z N N b e m f.B s.n f r 8 5.:.`.xX=XjXkX .t x p p z z b b z p b Z N N b e m f.B s.n b z n p Z m ",
"m b m H Z e b Z m H n r A Z F z z z x m n N x N f : o.@.m.G.k.>.h & +Xo.o e b A m H n r A Z F z z z x m n N x N m p p p x p N m ",
"x Z D D s.z b N b n } p J m n b D m B F ] N N s ) !.5X4XjXjX5Xb.b.c.5 U +.d x N b n } p J m n b D m B F ] N N x Z N H A N Z c N ",
"x m b N p e z b b x l z x x x F D H N n n z M - AXjX<.a.>Xx.NXMXm.&.v.5XAX+X: b b x l z x x x F D H N n n a M b B B F m b b p u ",
"x b p x n z x p b z n n B D x b n m a [ H n 2 C m.6.F.k.;XF.jXa.,.>X4X6.n.`.: p b z n n B D x b n m a [ F b x l n A n n m n x b ",
"Z z x ] N A A n r b B B m Z n S Z b n M J b @ p.G.;X>X5X>X;X;X<.4XFXj v.b.  s n r b B B m Z n S Z b n M J b b x n Z m } B x N { ",
"n x H m N Z A D p H H { { F B s.u ] J x a n @ Q AXNX5.5X1Xb.5X>XAX$.& NX-X .( M p H H { { F B s.u [ J x p b b Z Z i.] n N M ] B ",
"b c h.u.b b x n x Z M } A J ] J z Z { [ m p + Q BX2Xw 8 F.4XMXSX4X0 g AX$X1X=Xe x Z M } A J ] J z Z { [ m p Z Z s.n n b x x b A ",
"b l } ] z x x x b Z B H [ J m H x ] ] M ..< z.k.v.h < O a.;XF.:Xn.7.k l.k.hX&Xy b Z B H [ J m H x ] ] M ..x m [ h.b b x x x ] b ",
"n p Z b N z n m x n B D F D H H x N { b x O kX6Xw d x 1 A.C.0.*.0.3XoXP a.NXQ.+ f n B D F D H H x N { b x p Z N A b x b u > m ..",
"c b N f.] N F b z N x N B n | ..u x b N c ; U.Y.$ b x s b ) E I I P._.W o oXoXE t N x N B n | ..u x b N c x N [ b b z x g.l ] g.",
"c Z F N z b b x { N p x n x | b x x p s.b < R L.$ < A ] o z.).).).P.;.9   Y.OX/ c N p x n x | b x x p s.n N l x u { A ] H b x c ",
"] N x z b p u Z m Z } x x x b n N n N b x @ @XgX7X<X3 x m A.l.J.3Xe.*.. $.FXFX_ f Z } x x x b n N n N b x c H { M | ] c c b u x ",
"H M x z n ] x n ] A ] ] x u H ] ] H J n u @ 6X,XH.jXU   9.7.>.V.V.V.e +.2X,XMXo.v A ] ] x u H ] ] F ] n u ] Z M n A n x b p e Z ",
"b a p z B H b n A N b n x m f.h.d.d.D B p , <Xn.F.` $ & 0.5.j D.S.K.c _ M.,XBX_ + v b n x m f.h.d.d.F A p H { c b b b b N n x b ",
"b p J p N b N M A m m a p m [ ] n M M B p M 1 , 3 y T 6XA.1.&.p.S.S.K @.gXFX@.7.B f m a p m [ ] n M M B p N V x x x Z N b x F x ",
"z x b z m b } x N Z b x x Z ] x p x N x u l x z p & a.4XS.S.w.&.:.2.e.j.# # 8.D.C s b x x Z ] x p x N x u l x z z B B b x x n e ",
"[ m b p { n z r b A x x z A H N x x m p p B Z c w -.q j S.D.w.<.$ & - 6 1.9.S.K.>.= d x z A H N x x m p p B Z n n B x p p b z x ",
"H A b x u b p p p n x l n x F x x p p z N Z Z < =.q 7 2.S.w.q.7.1 V , 6 0.w.e.C.>.;.9 d n x F x x p p z N Z Z A n j.b Z N Z x b ",
"z ' A x > z J Z H x u n F H u u x b Z H F Z n < =.q 7 4.0.6.r.6 4 ( -.&.7 q.0.*.q =.9 s F H u u x b Z H F Z n u.N x F n m n { N ",
"x | n l i n Z J n N p Z n [ b n Z Z Z n H } N < =.q 0 -.&.0 q * s ( &.1.0 q =.q I 1.9 v n [ b n Z Z Z n H } N B p Z N x z p p z ",
"x z x N J z b b n n n n b m n x b N N b b B p * ;.=.0 I I 1.=.- x 4 :.3.2.0 I I :.-.: v b m n x b N N b b B p p Z M b z p p u l ",
"N c Z N N m n b z x p B z n x { p N N x M M p 2 0 :.&.-.1.3.9 2 Z s 9 t.4.*.:.-.-.< u B z n x { p N N x M M p x Z x l p p N z l ",
"b x [ N Z x Z b b p x b p n x b b b n x x x x l Y L.4.:.&.8 s n b x y _.OXy.1.6 < p x b p n x b b b n x x x x l b x p f.{ ] b n ",
"z x n Z z Z n J b b Z J D r b N ] { A l b A J A ; t.I.W 3 t N } z s L .X[.y.8 3 b b Z J D r b N ] { A l b A J A Z Z N { N p N } ",
"l x x x x x z z ' J N | b H m n A } { x A H x 3 P y.P 2 p p N B l > N.kXc.5 l z ' J Z { b H m n A } { x A H x x x [ Z m p p N B ",
"l x u Z b x x r { n x b J A z z x b x M H x b # Z.V.: ] M p n N y T {.v.L f x r { n x b J A z z x b x M H x b x x x x ] M p n N ",
"x l e x N z A H n x b x N b b b z b m l [ x M . C.B.s | M c p N X _.].&.d z A F n x b x N b b b z b m l [ x M b x n M | M x p N ",
"p u p b z x z m N b z p n p x x u p M M M M 2 R.y.+ m b l r p z r ) (.t.9 s z m N b z p n p x x u p M M M M x x N y m b x i p z ",
"n x x n b x x A b x x B Z n { B z N h.A p u p p b z z u b p b b n b z n b x x F b x x B Z n { B z N h.A p u p p x z z u b p b b ",
"] N p N A n N b l p ] Z n } A p b [ } D c x M Z n m b x n n b B ] N l N A n B b l p ] Z n } A p b [ } D c x M Z n n b x n n b B "
};
