/* XPM */
static char *xpm_[] = {
/* columns rows colors chars-per-pixel */
"64 64 181 2 ",
"   c #3F3021",
".  c #463424",
"X  c #4A3726",
"o  c #4B3927",
"O  c #4B3728",
"+  c #4E3A2A",
"@  c #543E2C",
"#  c #583F2C",
"$  c #56402E",
"%  c #5A422E",
"&  c #5D4431",
"*  c #5E4834",
"=  c #594838",
"-  c #49483B",
";  c #614633",
":  c #644935",
">  c #694D37",
",  c #664C38",
"<  c #6A4E39",
"1  c #6E513B",
"2  c #72543D",
"3  c #73583F",
"4  c #397B6E",
"5  c #3B7D70",
"6  c #585546",
"7  c #645544",
"8  c #6D5441",
"9  c #6E5E4E",
"0  c #745641",
"q  c #765943",
"w  c #7B5B44",
"e  c #745C4A",
"r  c #7D5D49",
"t  c #5A6959",
"y  c #7D614A",
"u  c #7A6654",
"i  c #7C6C5B",
"p  c #756757",
"a  c #4C7768",
"s  c #7B7163",
"d  c #7C786C",
"f  c #7C7F73",
"g  c #815F47",
"h  c #805F4A",
"j  c #83634C",
"k  c #876751",
"l  c #876A55",
"z  c #8C6C53",
"x  c #856C59",
"c  c #916E51",
"v  c #83725E",
"b  c #93735B",
"n  c #847A6C",
"m  c #8E7D6C",
"M  c #897766",
"N  c #947D6D",
"B  c #807F74",
"V  c #3D887B",
"C  c #4E8174",
"Z  c #438679",
"A  c #46887B",
"S  c #5B8878",
"D  c #608B7A",
"F  c #8C8272",
"G  c #86867A",
"H  c #8B8578",
"J  c #928B7C",
"K  c #9F8E7D",
"L  c #3F9D92",
"P  c #29A89F",
"I  c #3AA599",
"U  c #26B8B0",
"Y  c #3EB9B0",
"T  c #4F8F80",
"R  c #7F9186",
"E  c #52BDB6",
"W  c #72BEB6",
"Q  c #2AC4BD",
"!  c #17CECA",
"~  c #1AD0CA",
"^  c #16D9D4",
"/  c #28CAC3",
"(  c #23D0CA",
")  c #3CCDC6",
"_  c #12E1DE",
"`  c #38E1DE",
"'  c #0BEEEC",
"]  c #01FFFF",
"[  c #0BFFFF",
"{  c #13FEFE",
"}  c #1AFFFF",
"|  c #1CF6F5",
" . c #20E5E2",
".. c #3FE8E5",
"X. c #24FEFE",
"o. c #2BFFFF",
"O. c #34FEFE",
"+. c #3AFFFF",
"@. c #58CEC8",
"#. c #67D7D3",
"$. c #42ECEA",
"%. c #44FFFF",
"&. c #4BFFFF",
"*. c #53FFFF",
"=. c #5BFFFF",
"-. c #5AE8E5",
";. c #66FFFF",
":. c #63FEFE",
">. c #6AFFFF",
",. c #73FFFF",
"<. c #7CFEFE",
"1. c #8E8D81",
"2. c #929285",
"3. c #95968A",
"4. c #95998E",
"5. c #9A998B",
"6. c #949990",
"7. c #8B938A",
"8. c #A89585",
"9. c #8FA297",
"0. c #9CA49A",
"q. c #A5A499",
"w. c #B4A79C",
"e. c #99B8B2",
"r. c #A4ACA2",
"t. c #A6B2AA",
"y. c #ACB6AC",
"u. c #B3B3A7",
"i. c #ABBBB3",
"p. c #A8B7B0",
"a. c #BAAEA6",
"s. c #C1B5AD",
"d. c #83C0B9",
"f. c #B3C3BB",
"g. c #B5C0B6",
"h. c #B4CAC4",
"j. c #B9CCC4",
"k. c #B4CEC9",
"l. c #B8CFC9",
"z. c #BBD2CD",
"x. c #ACDEDA",
"c. c #BBD6D2",
"v. c #BDDBD7",
"b. c #B3DBD6",
"n. c #98E0DC",
"m. c #83FFFF",
"M. c #8BFEFE",
"N. c #93FFFF",
"B. c #9BFFFF",
"V. c #98F8F7",
"C. c #A3FFFF",
"Z. c #ABFFFF",
"A. c #B4FFFF",
"S. c #BCFFFF",
"D. c #CCCFCA",
"F. c #C1C9C4",
"G. c #C4D3CE",
"H. c #D1D1CA",
"J. c #C1DEDA",
"K. c #C5D6D2",
"L. c #C3E2DF",
"P. c #E4E3DF",
"I. c #C5E5E2",
"U. c #CBEDEB",
"Y. c #C7E9E6",
"T. c #CEF5F4",
"R. c #C4FFFF",
"E. c #CBFFFF",
"W. c #D0F6F5",
"Q. c #D6FFFF",
"!. c #D5FFFF",
"~. c #DBFFFF",
"^. c #D5F7F6",
"/. c #DCEAE7",
"(. c #E3EAE8",
"). c #E3FFFF",
"_. c #EBFFFF",
"`. c #EBF4F3",
"'. c azure",
"]. c #F3FFFF",
"[. c #FCFFFF",
/* pixels */
"r r o < 1 & ; % $ : < ; % % % @ 1 2 > & : & < : ; % & % ; % : > r r o < 1 & ; & $ : < ; % % % @ 2 1 > & : & < : ; % & % ; % : > ",
"1 1 < : ; % ; @ $ % % ; ; % @ ; 1 < < ; . > z < j : ; % : # 1 > l.F < : & & ; # $ % % ; ; % @ ; 1 < < ; . > z < j : ; % : # 1 > ",
"> ; > 2 1 . ; 1 > 2 : O 1 1 2 % % % & > : < & < > @ # # & @ < > J.F > 2 1 . ; 1 > 2 : O 1 1 2 % % % & > : < & < > @ # # & @ < > ",
"& 1 2 2 j % ; < ; : r @ 3 > : ; 2 > < 2 0 < < & 1 < 2 1 < 1 * F T.f.2 2 j % ; > ; : r @ 3 > : ; 2 > < 2 0 < < & 1 < 2 2 < 1 * < ",
"& > ; < # . % ; ; & $ % & & & 2 2 2 < : : # , ; < < 2 > ; ; @ f ~.c.; < # . % ; ; & $ % & & & 2 2 3 < : : # , ; < < 2 > ; ; @ + ",
"& ; # & : % & @ ; % : : < 2 & ; : > # q 2 ; & $ : 1 : : , : 6 #.].U.B & : % & @ ; % : : < 2 & ; : > # q 2 ; & $ : 1 : : , : & ; ",
"1 % & 0 < 1 1 : X ; < < > 1 : 1 1 ; : , 3 ; ; & : 1 > r < & 7 =.'.Q.c.r < 1 1 : X ; < < > 1 : 1 1 ; : , 3 ; ; & : 1 > r < & < w ",
": & 2 , < 1 1 2 # 2 2 w w 2 < j + q 3 & # ; ; 1 1 g r M < , L ;.'.Q.Q.n < 1 1 2 # 2 2 w w 2 < j + q 3 & # ; ; 1 1 g 0 : < , 8 < ",
"; * b h ; ; & : & 1 , r 1 3 0 3 % 1 w q > @ 1 1 j : e K.* & ] ;.'.Q.Q.z.; ; & : & 1 , r 1 3 0 3 % 1 w q > @ 1 1 j : : ; & & ; 1 ",
"; $ r 0 % & & & ; 1 < 2 q 3 > 2 & 0 0 , y 7 p q b ; , !.w.& ' ;.'.Q.Q.Q.p 6.G & ; 1 < 2 M y > 2 & 0 2 : y & > q b ; ; & & & 0 ; ",
": @ 1 ; < % : > & : < 2 2 2 2 2 & < w ; & f j.< 1 ; & !.(.- ^ ;.'.Q.Q.Q.l.i.2.> & : < 2 J.v 2 2 & < w ; & @ 1 < 1 ; & ; +   > y ",
"* ; < z 0 < 2 ; % < & < < : e y + & ; < * G i.q ; ; % v._.R / :.'.Q.Q.Q.f.r.L.; % < & J W.8 e y + & ; < * & < q ; ; % & l $ 0 l ",
"* 1 2 < % ; ; & w < @ & : & e ; & & @ j : c.v.7 + w i U.~.U.| *.'.Q.Q.Q.T.T.Q.s w < = k.Q.t.e ; & & @ j : < $ & + w 1 0 2 ; & * ",
"0 < & % ; # + 1 > 1 r & & & ; : < : < ; & c.Q.5.; e h.Q.~.Q.} *.'.Q.Q.Q.Q.Q.Q.J.> 1 m Q.Q.c.; : < : < ; & * 2 w ; e 0 * * : + & ",
"2 , & % : 0 & : 0 1 0 0 & + 2 0 0 2 0 : 7.T.Q.I.e 1 i.Q.).!.] *.'.Q.Q.Q.Q.Q.Q.z.0 1 c.Q.Q.T.2.0 0 2 0 : + 0 1 , : 1 : & ; @ . 1 ",
"; # @ % < 2 ; : 1 < ; : & > z b k k 2 1 h.Q.Q.Q., ; i.Q.~.~.%.=._.Q.Q.Q.Q.Q.Q.z.1 n !.Q.Q.Q.g.b k k 2 1 # 2 w * ; ; ; ; < : & ; ",
"; # 3 @ < ; < , 1 > > # @ > q 0 : , , < t.!.Q.Q.0.& p.Q.Q._.Z.:.).Q.Q.Q.Q.Q.!.G.1 b.~.Q.Q.Q.r.0 : , , < # < < & & & 1 < ; & 2 & ",
"% & ; % > ; r & < 1 ; & & 1 0 & # & < & e.).Q.Q.!.< t.Q.Q._.B.:.).Q.Q.Q.Q.Q.).7 t V.'.Q.Q.Q.r.& # & < & + $ & % % < < ; & & : . ",
"q > ; @ w : % X ; 1 & & % 1 2 < & & > 4 M.[.Q.Q.U.p 0.Q.Q._.N.*._.Q.Q.Q.Q.Q.(.o U C.'.Q.Q.Q.r.< & & > @ # < 1 : : < & # @ ; % & ",
"2 1 ; & o ; @ # @ : & $ : & 2 & & @ @ V M.].Q.Q.Q.u.2.Q.Q.~.S.Z.~.Q.Q.Q.Q.Q.D.a ] C.'.!.Q._.u.& & @ @ % < 1 1 1 : c ; 1 < 1 & ; ",
"% 8 1 &   % 3 1 2 & + : 2 2 + + & ; 1 T N.].Q.Q.Q.Y.Y.Q.Q.!.~._.!.Q.Q.Q.Q.Q.`.n.] N.].Q.!.x.6 + & ; 1 2 2 1 : h < & 2 : > : w < ",
"& e : $ o : 1 3 : < # 1 : q ; : 1 1 1 A N.[.Q.Q.Q.Q.Q.Q.Q.Q.Q.Q.Q.Q.Q.Q.!.).[.B.} A._.).!.) ; : 1 1 1 : 2 r < < @ 1 < & % # @ % ",
"& % & < q % ; ; : : ; : ; > : & ; < < Z N.].Q.Q.Q.Q.Q.Q.Q.Q.Q.Q.Q.Q.Q.!._.B.S.N.;.].!.).!.( : p 5.< < ; ; < # # 1 , ; % @ # + $ ",
"< * 1 < < > : ; % & @ < % : & y.= < < Z X.A._.Q.Q.Q.Q.Q.Q.Q.Q.Q.Q.Q.Q.~.'.%.B.B.%.].~.).=.~ & K T.0 < & , , # & 1 & $ # # < % $ ",
"; & q < 1 & 1 ; ; # & ; # : & I.3.; : Z ] Z.].Q.Q.Q.Q.~.~.Q.Q.Q.Q.Q.!.'.R.] Z.R.M.).~._.+.~ & 8 ~.3.: & & & & $ ; & @ z w 0 ; : ",
"% & ; 1 % 1 : 3 ; ; 1 3 2 X ; J.!.8.1 5 [ =.).~.Q.Q.Q.!.).).!.Q.Q.!._.).%.] C.[.).!._.N.{ ! ; w.Q.U.u $ ; 1 3 1 1 1 < w < # < r ",
"$ & & & & & % % 8 3 < e ; 2 0.T.Q.~.M t ] +._.~.Q.Q._.C.%.~.[.Q.Q.[._.*.] <.).~.Q.!.[.m.] Y > /.Q.Q.y & 1 2 & & & e 1 > # # < < ",
"$ & + 1 ; & & X w : & ; 3 1 i.Q.Q.~.^.E [ o.Z.).Q.Q.).E.} +.A.'._.A.*.] o.'.).!.Q.~.~.*.[ / d.'.Q.Q.4., 2 & ; & & & & 0 , # : < ",
"& $ . & < % 1 2 : & ; & < ; t.Q.Q.).E.X.} ] *.'.Q.Q.!._._.+.] *.=.[ ] { C.).Q.Q.Q.'.B.] X.] ,.[.Q.Q.Q.$ q & , ; & : , e , & @ < ",
"# + @ ; % & % > < ; % @ : @ t.Q.Q.Q.].m.] ] ,.[.!.Q.Q.!._.).&.] ] } { &._.).!.Q.!.].S.[ ] +.).~.Q.Q.W., , , & & < o > ; & X # % ",
": & & : ; & & 1 ; & & < 1 : f.Q.Q.Q._.E.o.] +.R.).Q.Q.Q.!.].E.} } X.] B.[.!.Q.Q.~.~.>.[ [ N._.Q.Q.Q.W.1 @ + @ # & % % + ; @ ; ; ",
"0 < # < 1 : < ; $ @ 0 1 : r t.Q.Q.Q.!.[.<.] ] <.[.Q.Q.Q.Q.~._.>.] } [ B.'.Q.Q.Q.).R.{ ] +.).).Q.Q.Q.Q.2 * & , 1 : : ; & : : ; < ",
"r r o < 1 & ; & $ : < ; % % * k.Q.Q.Q.~.).&.] N.].Q.Q.Q.Q.!.].A.} ] :._.Q.!.!.Q.).E.X.[ Z._.Q.Q.Q.Q.z.& : & < : ; % & % ; % : > ",
"1 1 < : ; & ; # $ % % ; ; % @ h.Q.Q.Q.Q.'.&.] N.].Q.Q.Q.Q.Q.Q.'.=.] =.[.!.!.!.!.).E.X.] A.'.!.Q.Q.Q.0 ; . > z < j : ; % : # 1 > ",
"> ; > 2 1 . ; 1 > 2 : O 1 1 2 L.Q.Q.Q.Q._.C.] <.[.Q.Q.Q.Q.Q.Q._.&.[ <._.Q.!.!.!.).R.] *.).~.Q.Q.Q.Q.9 > : < & < > @ # # & @ < > ",
"& 1 2 2 j % ; < ; : r @ 3 > : r.Q.Q.Q.Q._.S.} B._.Q.Q.Q.Q.Q.Q.).+.+._.Q.Q.Q.Q.!.~.Q.X.<.[.!.Q.Q.Q.Q.i 2 0 < < & 1 < 2 1 < 1 * < ",
"& > ; < # . % ; ; & $ % & & & 2 W.Q.Q.Q._.N.=.'.Q.Q.Q.Q.Q.Q.Q._.O.+.[.!.Q.Q.Q.!.!.].m.=.].Q.Q.Q.Q.f.0 : : # , ; < < 2 > ; ; @ + ",
"& ; # & : % & @ ; % : : < 2 & 1 Q.Q.Q.Q.).C.,.).Q.Q.Q.Q.Q.Q.!.].%.o.!.~.Q.Q.!.Q.Q._.N.,._.Q.Q.Q.Q.2.# q 2 ; & $ : 1 : : , : & ; ",
"1 % & 0 < 1 1 : X ; < < > 1 : 8 H.).!.Q.Q.Q.~.!.Q.Q.Q.Q.Q.Q.).R.+.] :._.Q.Q.Q.Q.Q.Q.Q.Q.!.Q.!.~.(.M : , 3 ; ; & : 1 > r < & < w ",
": & 2 > < 1 1 2 # 2 2 w w 2 < j C Z.].!.Q.~.~.Q.Q.Q.Q.Q.Q.Q.].m.] ] :.'.Q.Q.Q.Q.Q.!.~.~.!.Q.).Q.#.q 3 & # ; ; 1 1 g 0 : < , 0 < ",
"; * b h ; ; & : & 1 , r 1 3 0 3 a -._.~.Q.Q.Q.Q.Q.Q.Q.Q.Q.Q.].M.] { ;._.Q.!.Q.Q.Q.Q.Q.Q.Q.Q._.V.P 1 w q > @ 1 1 j : : ; & & ; 1 ",
"; $ r 0 % & & & ; 1 < 2 q q.u 2 & I R.[.!.Q.Q.Q.Q.Q.Q.Q.Q.Q.'.<.*.m.*._.Q.Q.Q.Q.Q.Q.!.Q.!.~.[...& m x , y & > q b ; ; & & & 0 ; ",
": @ 1 ; < % : > & : < 2 2 i.T.N & I &.E.).Q.Q.Q.Q.Q.Q.Q.!.!.~.S.~.!.Z.~.!.Q.Q.Q.Q.Q.Q.!.Q._.N._ & s.J ; & @ 1 < 1 ; & ; +   > y ",
"* ; < z 0 < 2 ; % < & < < i Q.).= & ] ,.[.!.Q.Q.Q.Q.Q.Q.Q.Q.!.).~.~._.!.Q.Q.Q.Q.Q.Q.Q.!.].R.] D + F.0.< * & < q ; ; % & l $ 0 l ",
"* 1 2 < % ; ; & w < @ & : 9 J.!.P.7 V X.E._.!.Q.Q.Q.Q.Q.Q.Q.Q.Q.Q.Q.Q.Q.!.Q.Q.Q.Q.Q.Q.~._.:.Q ; a.!.Q.j : < $ & + w 1 0 2 ; & * ",
"0 < & % ; # + 1 > 1 r & & & 0.Q.!.P.< _ <.[.~.!.Q.Q.Q.Q.Q.Q.Q.Q.Q.Q.Q.Q.!.!.!.Q.Q.Q.!.].E.] C J _.Q.W.; & * 2 w , e 0 * * ; + & ",
"2 , & % : 0 & : 0 1 0 0 & + i.Q.Q.'.9. .[ B.[.Q.!.Q.Q.Q.Q.Q.!.).).E._.).E.!.Q.!.Q.!.].~.O.[ { C.'.Q.!.: + 0 1 , : 1 : & ; @ . 1 ",
"; # @ % < 2 ; : 1 < ; : & > j.Q.Q.).~.+.] ] B._.Q.Q.Q.Q.Q.Q.).C.S.[.A.C.).Q.Q.Q.Q.).!.o.] X.] B.].Q.Q.1 # 2 w * ; ; ; ; < : & ; ",
"; # 3 @ < ; < , 1 > > # @ > v J.Q.).E.} ,.&.{ A._.Q.Q.Q.Q.Q.].,.o.Z.[ ,.[.Q.!.Q.~.~.%.[ M.O.[ Z.'.Q.1.< # < < & & & 1 < ; & 2 & ",
"% & ; % > ; r & < 1 ; & & 1 0 h.Q.).R.] B.[.S.R.~.Q.Q.Q.Q.Q.[.m.] [ [ A._.!.Q.Q.Q.E.A.~.).] *.[.Q.Q.8 & + $ & % % < < ; & & : . ",
"q > ; @ w : % X ; 1 & & % 1 2 J.Q.~.).&.,.[.).~.!.Q.Q.Q.Q.Q.).R.+.] :.[.!.Q.Q.Q.!.Q.).'.S.o.S._.!.Q.p @ # < 1 ; : < & # @ ; % & ",
"2 1 ; & + ; @ # @ : & $ : & 2 s Q.!.'.B.m._.Q.Q.Q.Q.Q.Q.Q.Q.Q.].O.} E.).Q.Q.Q.Q.Q.Q.Q.).A.<._.!.Q.i.& % < 1 1 1 : c ; 1 < 1 & ; ",
"% 8 1 &   % 3 1 2 & + : 2 2 + + D.).!.Q.~.Q.Q.Q.Q.Q.Q.Q.Q.Q.Q.).;.&.].!.!.Q.!.Q.Q.Q.Q.Q.Q.Q.!.~.`.u 1 2 2 1 : h < & 2 : > : w < ",
"& e : $ o : 1 3 : < # 1 : q ; : S C.[.'.).!.Q.Q.Q.Q.Q.Q.Q.Q.!.~.!.,.!.Q.!.!.!.Q.Q.Q.Q.!.~._.[.!.@.1 1 : 2 r < < @ 1 , & % # @ % ",
"& % & < 3 % ; ; : : ; : ; > : & : I C.S.~.[._.!.!.Q.Q.Q.Q.Q.!.Q.!.R.!.Q.Q.Q.Q.Q.Q.!.~.[.'.S.R.` ; < < ; ; < # # 1 , & % @ # + $ ",
"< * 1 < < > : ; % & @ < % : d w.H W ] ] =.M.A.'.Q.Q.Q.Q.Q.Q.!.!.Q.).Q.Q.Q.Q.Q.Q.!._.!.M.m.} ] $.d w.q.& , , # & 1 & $ # # < % $ ",
"; & q < 1 & 1 ; ; # & ; # : s 4.~.'.R.>.] ] ] B.[.~.Q.Q.Q.Q.Q.!.Q.Q.Q.Q.Q.Q.Q.!._.Q.X.] ] +.C.).'.k.2.& & & & $ ; & @ z w 0 ; : ",
"% & : 1 % 1 : 3 ; ; 1 3 2 X ; < 5.Q.].).S.Z.o.+.B.~.~.Q.Q.Q.Q.!.Q.Q.Q.Q.Q.Q.Q.).R.=.X.<.R.R.[.~.f.w 1 $ ; 1 3 1 1 1 < w < # < r ",
"$ & & & & & % % 8 3 < e ; 2 > : 1 F !.~._._.).E.M.E.~.Q.Q.Q.Q.Q.Q.Q.Q.Q.Q.Q.Q.).C.C._.)._.).!.t.1 r w & 1 2 & & & e 1 > # # < < ",
"$ & + 1 ; & & X w : & ; 3 1 % % & ; n !.Q.Q.~.~._.Q.Q.Q.Q.Q.Q.Q.Q.Q.Q.Q.Q.Q.Q.!.).).~.~.!.Q.i.% & ; & , 2 & ; & & & & 0 , # : < ",
"& $ . & < % 1 2 : & ; & < ; ; ; % ; > d J.Q.Q.Q.Q.Q.Q.Q.Q.Q.Q.Q.Q.Q.Q.Q.Q.Q.Q.Q.Q.Q.Q.Q.Y.p.; ; % ; > $ q & , ; & : , e , & @ < ",
"# + @ ; % & % > < ; % @ : @ & & + # , , , 4.T.T.T.T.T.T.T.T.T.T.T.T.T.T.T.T.T.T.W.T.T.h.8 @ & & + # , , , , & & < o > ; & X # % ",
": & & : ; & & 1 ; & & < 1 : w < % < b 1 @ + @ # & % % + ; @ ; ; ; & & : ; & & 1 ; & & < 1 : w < % < b 1 @ + @ # & % % + ; @ ; ; ",
"0 < # < 1 : < ; $ @ 0 1 : r 1 # ; q r 2 * & , 1 : : ; & : : ; < 0 < @ < 1 : < ; $ @ 0 1 : r 1 # ; q r 2 * & , 1 : : ; & : : ; < "
};
