/* XPM */
static char *xpm_[] = {
/* columns rows colors chars-per-pixel */
"64 64 249 2 ",
"   c #070516",
".  c #130E14",
"X  c #23191B",
"o  c #0C0B25",
"O  c #191729",
"+  c #1A1B36",
"@  c #091338",
"#  c #251B29",
"$  c #231D38",
"%  c #331D38",
"&  c #390A26",
"*  c #1C2436",
"=  c #2D2125",
"-  c #2A272B",
";  c #362729",
":  c #3F3021",
">  c #3E322F",
",  c #2C2634",
"<  c #2E2A34",
"1  c #242338",
"2  c #3B2F32",
"3  c #342833",
"4  c #383337",
"5  c #3B2B1F",
"6  c #460B17",
"7  c #6D1115",
"8  c #48163A",
"9  c #571436",
"0  c #4C1925",
"q  c #791628",
"w  c #671535",
"e  c #700E2D",
"r  c #472829",
"t  c #453424",
"y  c #4A3726",
"u  c #43332D",
"i  c #4B3729",
"p  c #4D3A2A",
"a  c #4C3926",
"s  c #543E2C",
"d  c #583F2C",
"f  c #453533",
"g  c #483836",
"h  c #523D33",
"j  c #4E2834",
"k  c #732B30",
"l  c #5E2E1B",
"z  c #56402E",
"x  c #5A422E",
"c  c #544135",
"v  c #5D4431",
"b  c #5F4834",
"n  c #57443A",
"m  c #614633",
"M  c #644935",
"N  c #694C37",
"B  c #664B38",
"V  c #6A4E39",
"C  c #6C4F3A",
"Z  c #6A4E39",
"A  c #604739",
"S  c #6D513A",
"D  c #6F513C",
"F  c #6D513B",
"G  c #70523A",
"H  c #71533D",
"J  c #72543E",
"K  c #76573F",
"L  c #72543D",
"P  c #73583F",
"I  c #77433B",
"U  c #10185D",
"Y  c #3B1345",
"T  c #152B54",
"R  c #363745",
"E  c #2D3452",
"W  c #2D314C",
"Q  c #081970",
"!  c #1B3867",
"~  c #4F3845",
"^  c #7A374D",
"/  c #4E2F6F",
"(  c #62156B",
")  c #36476F",
"_  c #48495A",
"`  c #4C4852",
"'  c #6E5441",
"]  c #62524A",
"[  c #755640",
"{  c #745641",
"}  c #765943",
"|  c #7B5B44",
" . c #7D5D48",
".. c #765B49",
"X. c #6D494A",
"o. c #7D614A",
"O. c #474B62",
"+. c #52576D",
"@. c #635A6A",
"#. c #6C6F74",
"$. c #951514",
"%. c #BC180C",
"&. c #AD130E",
"*. c #841626",
"=. c #8D322F",
"-. c #AC3736",
";. c #B02920",
":. c #CC1002",
">. c #E71A03",
",. c #E60700",
"<. c #D53A14",
"1. c #F62B03",
"2. c #CF183B",
"3. c #E53F31",
"4. c #B94237",
"5. c #9F512B",
"6. c #EF4F13",
"7. c #F96A1E",
"8. c #C65B36",
"9. c #FA7D29",
"0. c #EF7534",
"q. c #DE6230",
"w. c #C71D63",
"e. c #974849",
"r. c #805F4A",
"t. c #815F47",
"y. c #954D56",
"u. c #A34D46",
"i. c #AA524B",
"p. c #AF514D",
"a. c #83634C",
"s. c #876651",
"d. c #8B6B53",
"f. c #866A54",
"g. c #93735B",
"h. c #906F54",
"j. c #885070",
"k. c #906D76",
"l. c #AE6E6C",
"z. c #B85F64",
"x. c #CB5D4E",
"c. c #F37342",
"v. c #C5796A",
"b. c #DD7F6C",
"n. c #E36A62",
"m. c #FF9930",
"M. c #F2AF2A",
"N. c #F8E328",
"B. c #B78C47",
"V. c #EF8E5A",
"C. c #FFA747",
"Z. c #FFB149",
"A. c #D68A77",
"S. c #CE8979",
"D. c #FE9C71",
"F. c #E7AE73",
"G. c #FFCD55",
"H. c #FFD362",
"J. c #978C27",
"K. c #2C3290",
"L. c #0000AC",
"P. c #00038E",
"I. c #304988",
"U. c #3D5BA2",
"Y. c #495B96",
"T. c #4E578A",
"R. c #566687",
"E. c #55669C",
"W. c #4F639C",
"Q. c #6D7999",
"!. c #797A8D",
"~. c #576AA2",
"^. c #526CAF",
"/. c #697AA9",
"(. c #717EAA",
"). c #6677AA",
"_. c #0026D6",
"`. c #0033E7",
"'. c #2463EC",
"]. c #6D71D0",
"[. c #8B66A5",
"{. c #DB448C",
"}. c #A76FDC",
"|. c #7383AB",
" X c #798AB8",
".X c #7E91BF",
"XX c #6F84BB",
"oX c #6F858C",
"OX c #7B93C4",
"+X c #4F8AFF",
"@X c #908D93",
"#X c #9599A6",
"$X c #8995BA",
"%X c #8E84AF",
"&X c #9EA1AE",
"*X c #B7A28D",
"=X c #D79886",
"-X c #CB8F85",
";X c #E6AB96",
":X c #E3B29D",
">X c #F6BAA4",
",X c #DDAF9D",
"<X c #FDCE8F",
"1X c #FBC5A6",
"2X c #FED4B6",
"3X c #F3CAAC",
"4X c #FFF6BF",
"5X c #849AC8",
"6X c #909EC2",
"7X c #8AA1CE",
"8X c #96A8CB",
"9X c #8CA4D1",
"0X c #95ABD3",
"qX c #98AED4",
"wX c #91A7D4",
"eX c #9CB3DA",
"rX c #A6BBDE",
"tX c #A6B8D9",
"yX c #B1B7CB",
"uX c #9BB1EB",
"iX c #A6BDE3",
"pX c #9384F7",
"aX c #B8C3D8",
"sX c #ACC3E8",
"dX c #B6C8E6",
"fX c #B3CCF5",
"gX c #A8C6F2",
"hX c #CBCED8",
"jX c #F2D3C4",
"kX c #FCE6C7",
"lX c #FFF8CB",
"zX c #FFEED1",
"xX c #FFF4D5",
"cX c #EFE3CA",
"vX c #C7D4E9",
"bX c #CADDF5",
"nX c #D4DEF5",
"mX c #CED4E4",
"MX c #DAE1EC",
"NX c #D8E6FA",
"BX c #DCF0FF",
"VX c #FFFFE3",
"CX c #FFF8E4",
"ZX c #E3EBF5",
"AX c #EAF4FC",
"SX c #F6FCFF",
"DX c #FDFFFF",
"FX c #FFFFF5",
"GX c #ECE6E9",
/* pixels */
" . .a C S v m v z M V m x x x s S D N v M v C M m x v x m x M N  . .a C S v m v z M V m x x x s S D N v M v C M m x v x m x M N ",
"S S V M m v m s z x x m m x s m S V V m t N d.C a.M m x M s S N S S V M m v m s z x x m m x s m S V V m t N d.C a.M m x M s S N ",
"N m N L S t m S N L M i D S H x x x v N M V v V N s s s v s V N N m N L S t m S N L M i D S H x x x v N M V v V N s s s v s V N ",
"v S G G a.x m V m M  .s K N M m G N C H { V V v S C L D V S b V v S G G a.x m V m M  .s K N M m G N C H { V V v S V L H V S b V ",
"v N m V s t x m m v z x v v v H G L V M M d B m C C H N m m s p v N m V s t x m m v z x v v v H G K V M M d B m C C H N m m s p ",
"v m s v M x v s m x M M C G v m M N d } H m v z M D M M B M v m v m s v M x v s m x M M C G v m M N d } H m v z M D M M B M v m ",
"S x v { V D D M y m C C N S M F S m M B K m m v M S N  .C v V | S x v { V D D M y m C C N S M F S m M B K m m v M S N  .C v V | ",
"M v L N V S D G s L L | | H C a.p } K v s m m S S t.{ M V B ' C M v L N V S D G s L L | | H C a.p } K v s m m S S t.{ M V B ' C ",
"m b g.r.m m v M v S B  .D K { K x S | } N s S S a.M M m v v m D m b g.r.m m v M v S B  .D K { K x S | } N s S S a.M M m v v m D ",
"m z  .{ x v v v m S C L } K N L v { { B o.v N } g.m m v v v { m m c  .{ x v v v m S C L } K N L v { { B o.v N } g.m m v v v { m ",
"M s S m V x M N v M C G H G L L v V | m v s S V D m v m p : N o.f u S m V x M N v M C G H G L L v V | m v s S V D m v m p : N o.",
"b m V d.{ V H m x V v V C M ..o.p v m B b v V } m m x v f.z { ] o f V d.{ V H m x V v V C M ..o.p v m V b v V } m m x v f.z { f.",
"b S H V x m m v | V s v M v ..m v v s a.M V z v p | D { L m u @.@.h H V x m m v | V s v M v ..m v v s a.M V z v p | D { L m v b ",
"{ V v x m s p S N S  .v v v m M V M V m v b L | m ..{ b b u _ SX!.i v x m = # = - 3 g v v v m M V M V m v b L | m ..{ b b m p v ",
"L B v x M { v M { D { { v p L { { H { M p { A 2 M D M v m X #XDX+.p v ; = R.(.|.Q.+ g { v p L { { H { M p { S B M D M v m s t S ",
"m d s x C L m M D V m M v N d.g.s.s.H D s L n O m m m m f O.vXDX+.. O R.$XBXDXBX+.b m M v N d.g.s.s.H D s L | b m m m m V M v m ",
"m s K s V m V B D N N d s N } { M B B C s m +.yX- v S V # #XBXNX@.+.wXnXDXSXDX_ B N N d s N } { M B B C s V C v v v S V m v H v ",
"x v m x N m  .v V S m v v S { v s v V v p s O.DX&X= C m = #XNXsXMXMXAXSXZX XhXR V S f , v S { v s v V v p z v x x C C m v v M t ",
"K N m s | M x y m D v v x D L V v v N s s M _ SXDX#XX d = @XBX5XNXDXDXAX XI.W t m n 1 1 x D L V v v N s s C S M M C v s s m x v ",
"L D m v p m s s s M v z M v H v v s p x V m _ nXvXDX&Xf 5 @XAXOXvXDXMX XyX|.  i t !.yX# M v H v v s s x V S S D M h.m S V S v m ",
"x ' D v : x K S L v p M H L p p v m $ n H V _ nXrXAXDX#X; #XbX5XMXMX(.tXDX(.E 1 O.DXhX# H L p p v m S L H S M r.V v H M N M | V ",
"v ..M z a M S K M V s S M } m M S S * W B  ._ ZX9XrXSXAXZXdX7XwXbX$XyXdXvX(.vXDXAXDXhXO M } m M S S S M L  .V C s S V v x s s x ",
"v x v V } x m m M M m M m N M v m V W 0X_ p ` AXeXOXaXbXwXqX0XqX7XvXdX9XvX(.MXDXbXdX#X- m N M v m V V m m C s s S B m x s s p z ",
"V b S V V N M m x v s C x M v | s V 1 eXiXW O.NXsX XY.7XrX0XqXqX0XqX0X0XmX(.tXvXNXhX. C h h v | s V V v B B s v S v z s s V x z ",
"m v } V S v S m m s v m s M v m m m 1 8XsXiXXX).0X5XE.|.5XiX0XqXqX0XqX9XvX(.OXNXDX@Xu m , 2 v m m m M v v v v z m v s d.| { m M ",
"x v m S x S N K m m S K G y m V { | 1 iXiXtX0X~./.E.6XhXE.5XiX0X0XtXqXrXMX~.(.aX!.. c 4 4 y m V { | D z m D P D S S V | V s V  .",
"z v v v v v x x ' K V ..m L N M D  .4 Q.fXeXqXsX7XY.~.AXmXW.5XrXrX5XXXNXDX XI.Y.) +.+ g m L N M D  .| v D L v v v ..S N s s V V ",
"z v p S m v v y | M v m K D x x v m v = Q.fXfXtXiX.X~.sXDXhXW.7XqX~.6XSXDXrX$X5XbXQ.; m K D x x v m v B L v m v v v v { B s M V ",
"v z t v V x D L M v m v V m m m x m N z h +.R.5XfX.X).qXqXDXmX).I.5XSXaX XvXNX8X+.> m v V m m m x m N z } v B m v M B ..B v s V ",
"s p s m x v x N V m x s M s v v p s B 4 2   ! ^..X~./.rX7XqXDXMX~.U.ZX XR.yXAXZXO m x s M s v v p z B B B B v v V i N m v y s x ",
"M v v M m v v D m v v C S M | C x V h.4 - 2 ) ) W.Y.OXsXqX7XqXDX!.@.yXU.jX!.Q.ZXW v v V S M | C x V g.D s p s s v x x p m s m m ",
"{ V s V D M V m z s { S M  .D s m }  .G b v i f E W ) wXsXeXwXfXW F.$X%X@XY.g ~ 1 s { S M  .D s m }  .G b v B S M M m v M M m C ",
" . .a C S v m v z M V m x x x s S D N v M v C M p u ; + |.fXeXgXT *X-X2X` ~ m : O m V m x x x s S D N v M v C M m x v x m x M N ",
"S S V M m v m s z x x m m x s m S V V m t N d.C a.M m p 2 E E E @ ^ 1Xk.> v m s p x x m m x s m S V V m t N d.C a.M m x M s S N ",
"N m N L S t m S N L M i D S H x x x v N M V v V V s s u o 0 =.k =.-.] g S t m S N L M i D S H x x x v N M V v V N s s s v s V N ",
"v S G G a.x m V m M  .s K N M m G N C H { V V c 1 # O j u.i.x.p.4.>X_ . , 1 # m m M  .s K N M m G N C H { V V v S V L D V S b V ",
"v N m V s t x m m v z x v v v H G L V M M s n , u.u.e.=XkX3X3X3X3XzXcXl.e.i.hX` m v z x v v v H G L V M M d B m C C H N m m s p ",
"v m s v M x v s m x M M C G v m M N d } H m f & b.xX2XkXVXS.=XVXzX2XkXkX1Xn.CXO.v x M M C G v m M N d } H m v z M D M M N M v m ",
"S x v { V D D M y m C C N S M F S m M B K v 3 -.A.FX;XS.VXv.v.xXzXz.:X=Xi.p.u., y m C C N S M F S m M B K m m v M S N  .C v V | ",
"M v L N V S D G s L L | | H C a.p } K v s v O k.zXVXA.A.DXv.v.VXVXz.:XA.;XS.k # p L L | | H C a.p } K v s m m S S t.{ M V B { C ",
"m b g.r.m m v M v S B  .D K { K x S | } N s o k.VX=Xq l.jX-X:XcX:Xp.=Xk.=XVXj.y., S B  .D K { K x S | } N s S S a.M M m v v m D ",
"m z  .{ x v v v m S C L } K N L v { { B o.f % k.;X0 o I 0.V.>X=Xl.-X4.l X.;Xl.hXR S C L } K N L v { { B o.v N } g.m m v v v { m ",
"M s S m V x M N v M C G H G L L v V | m v , x.e., f c C B.c.>.0.lX<Xc.0.g 0 D.CX$ h C G H G L L v V | m v s S V D m v m p : N o.",
"b m V d.{ V H m x V v V C M ..o.p v m V n $ y.^ < m v g O R.z.$.B.$.[.) B 2 *XnXK.# v V C M ..o.p v m V b v V } m m x v f.z { f.",
"b S H V x m m v | V s v M v ..m v v s a.b + L.P.O { D ' d K.`.`._._.K.@ x m . '.+X, s v M v ..m v v s a.M V z v p | D { L m v b ",
"{ V v x m s p S N S  .v v v m M V M V m v + / / k g ' 4 5.<X%X[.%X8XD.5.; ; @.uXwX<  .v v v m M V M V m v b L | B ..{ b b m p v ",
"L B v x M { v M { D { { v p L { { H { M i , 8.e.x.u.+ 0 8.G.6.>.m.M.Z.1.6 oX>X4X2X< { { v p L { { H { M p { S B M D M v m s t S ",
"m d s x C L m M D V m M v N d.g.s.s.H C s 3 i.j.e.j @ 7 6.G.<.6.H.C.C.7.r l.-.2XxX< m M v N d.g.s.s.H D s L | b m m m m V M v m ",
"m s K s V m V B D N N d s N } { M B B C s g j ~ f 2 # &.6.H.6.7.0.0.Z.<XR l.2XzX#.O N d s N } { M B B C s V C v v v S V m v H v ",
"x v m x N m  .v V S m v v S { v s v V v p z > u f 4 $.,.0.m.&.*.q.6.9.lXhX#.#.@.u c m v v S { v s v V v p z v x x C C m v v M t ",
"} N m s | M x y m D v v x D L V v v N s s C S M r $.*.:.<.1.7 @ ;.9.<.V.D.6   ; m D v v x D K V v v N s s C S M M C v s s m x v ",
"L D m v p m s s s M v z M v H v v s s x V S b r &.e *.>.,.&.% 4 ; ;.9.6.:.e 8 < s M v z M v H m v s s x V S S D M h.m S V S v m ",
"x ' D v : x K S L v p M H L p p v m S L H S c 7 %.Y w q q w % c 4 & <.1.:.w w $.2 v p M H L p p v m S L H S M r.V v H M N M | V ",
"v ..M z a M S K M V s S M } m M S S S N L  .n 0 %.9 9 8 Y $.7 > < *.$.e q 9 e :.# V s S M } m M S S S M L  .V C s S V v x s s x ",
"v x v V K x m m M M m M m N M v m V V m m C i + $.&.9 9 &.$.< s * &.>.e 8 w %.q * M m M m N M v m V V m m C s s S B m x s s p z ",
"V b S V V N M m x v s C x M v | s V V v B B s g Q ( >.%.>.7 4 z < 9 e &.:.:.q $ h v s C x M v | s V V v B B s v S v z s s V x z ",
"m v } V S v S m m s v m s M v m m m M v v v z s U ( w.U ; g m M b , o ].j.7 $ c m s v m s M v m m m M v v v v z m v s d.| { m M ",
"x v M S x S M K m m S K G y m V { | D z m D P n e w.Q g B s V  .z v = '.{.].! D M M C { G y m V { | D z m D P D S S V | V s V  .",
"z v v v v v x x ' K V ..m L N M D  .| v D D h T y.3.* N s s V C z v v * w.}.T p ' L C ..m L N M D  .| v D L v v v } S N s s V C ",
"z v p S m v v y | M v m K D x x v m v B L v c a N.J., { B s M V z v p ; ^.n.6 y | M v m K D x x v m v B L v m v v v v { B s M V ",
"v z t v V x D L M v m v V m m m x m N z } v 4 ^ 2.* B ..B b s V v z t v < M.] c M v m v V m m m x m N z } v B m v M B ..B v s V ",
"s p s m x v x N V m x s M s v v p s B B B m ) }.;.- B B v i s x z p s m # 2.pXI.g m x s M s v v p s B B B B v v V i N m v y s x ",
"M v v M m v v D m v v C S M | C x V g.D s p s s m x x p m s m m M v x M u -.[.^.2 v v C S M | C x V g.D s p s s v x x p m s m m ",
"{ V s V D M V m z s { S M  .D s m }  .G b v B S M B m v M M m C { S s S D M V m z s { S M  .D s m }  .G b v B S M M m v M M m C "
};
