/* XPM */
static char *xpm_[] = {
/* columns rows colors chars-per-pixel */
"64 64 255 2 ",
"   c #050318",
".  c #150F12",
"X  c #362217",
"o  c #0C0B25",
"O  c #181729",
"+  c #1A1B36",
"@  c #091338",
"#  c #251B2A",
"$  c #231D38",
"%  c #351531",
"&  c #1C2436",
"*  c #372829",
"=  c #3E3023",
"-  c #2A2635",
";  c #362B33",
":  c #393336",
">  c #28262A",
",  c #24181E",
"<  c #460B17",
"1  c #6D1115",
"2  c #4E3219",
"3  c #693611",
"4  c #48163A",
"5  c #571436",
"6  c #4C1925",
"7  c #791628",
"8  c #6D1130",
"9  c #463424",
"0  c #4A3726",
"q  c #4E3A2A",
"w  c #48362A",
"e  c #543E2C",
"r  c #583F2C",
"t  c #583E25",
"y  c #483835",
"u  c #533D31",
"i  c #4A282E",
"p  c #732B30",
"a  c #6C4212",
"s  c #69441C",
"d  c #754B1C",
"f  c #7A4E1B",
"g  c #744716",
"h  c #7C511C",
"j  c #6A400F",
"k  c #56402E",
"l  c #5A422E",
"z  c #5B4225",
"x  c #5D4431",
"c  c #5F4834",
"v  c #564237",
"b  c #66492D",
"n  c #6B4B2C",
"m  c #664626",
"M  c #724C24",
"N  c #724E28",
"B  c #7D5222",
"V  c #75512C",
"C  c #7C552B",
"Z  c #765025",
"A  c #614633",
"S  c #644935",
"D  c #6A4D36",
"F  c #664C38",
"G  c #6A4E39",
"H  c #6E513B",
"J  c #6D5134",
"K  c #745334",
"L  c #7A5634",
"P  c #7D5934",
"I  c #72543D",
"U  c #7C5A3C",
"Y  c #76573C",
"T  c #714B2F",
"R  c #10185D",
"E  c #3B1345",
"W  c #152B54",
"Q  c #2D3452",
"!  c #30334A",
"~  c #081970",
"^  c #1B3867",
"/  c #4F3845",
"(  c #7A374D",
")  c #58226D",
"_  c #36476F",
"`  c #48485A",
"'  c #4F4B53",
"]  c #6E5541",
"[  c #60544C",
"{  c #745641",
"}  c #765942",
"|  c #7B5B43",
" . c #7D5D48",
".. c #765B49",
"X. c #6D494A",
"o. c #7D614A",
"O. c #50546A",
"+. c #635A6A",
"@. c #6D7074",
"#. c #951514",
"$. c #B2150D",
"%. c #841626",
"&. c #8D322F",
"*. c #AC3736",
"=. c #B02920",
"-. c #CC1002",
";. c #E71A03",
":. c #E60700",
">. c #D53A14",
",. c #F62B03",
"<. c #CF183B",
"1. c #E53F31",
"2. c #87571A",
"3. c #98641C",
"4. c #B26E19",
"5. c #845A2B",
"6. c #835725",
"7. c #835B33",
"8. c #825E3B",
"9. c #8A5E31",
"0. c #915330",
"q. c #B94237",
"w. c #986726",
"e. c #8A633A",
"r. c #946B35",
"t. c #AB7628",
"y. c #B44A13",
"u. c #EF4F13",
"i. c #CA7A1E",
"p. c #F96A1E",
"a. c #C65B36",
"s. c #D87127",
"d. c #F37830",
"f. c #C71D63",
"g. c #805F46",
"h. c #964A4F",
"j. c #A34D46",
"k. c #AA524B",
"l. c #AF514D",
"z. c #84644B",
"x. c #8B6B52",
"c. c #876852",
"v. c #916E51",
"b. c #94735A",
"n. c #946D48",
"m. c #885070",
"M. c #906D76",
"N. c #AE6E6C",
"B. c #B85F64",
"V. c #CB5D4E",
"C. c #F37342",
"Z. c #CA7A6A",
"A. c #E36A62",
"S. c #B6852D",
"D. c #B68A35",
"F. c #978C27",
"G. c #CB8928",
"H. c #D59229",
"J. c #D19232",
"K. c #EF982F",
"L. c #D2AA37",
"P. c #E7AA37",
"I. c #F6B637",
"U. c #EAB335",
"Y. c #DA851E",
"T. c #F7C33A",
"R. c #F8E328",
"E. c #B78C47",
"W. c #EF8E5A",
"Q. c #D9A841",
"!. c #E8B345",
"~. c #FBB047",
"^. c #D68A77",
"/. c #CE8979",
"(. c #FE9C71",
"). c #DDA663",
"_. c #FED349",
"`. c #F6C44E",
"'. c #F9D263",
"]. c #FFE568",
"[. c #2C3290",
"{. c #00029D",
"}. c #304988",
"|. c #3D5BA2",
" X c #4B5A92",
".X c #556593",
"XX c #6D7999",
"oX c #797A8D",
"OX c #576AA2",
"+X c #526CAF",
"@X c #697AA9",
"#X c #6C7BAA",
"$X c #0026D6",
"%X c #0033E7",
"&X c #2463EC",
"*X c #6D71D0",
"=X c #8B66A5",
"-X c #DB448C",
";X c #A76FDC",
":X c #7383AB",
">X c #798AB8",
",X c #798CBD",
"<X c #6F858C",
"1X c #7B93C4",
"2X c #4F8AFF",
"3X c #908D93",
"4X c #9093AE",
"5X c #9EA1AE",
"6X c #B7A28D",
"7X c #D79886",
"8X c #CB8F85",
"9X c #E5AD98",
"0X c #F6BAA4",
"qX c #DDAF9D",
"wX c #FDCE8F",
"eX c #FED4B6",
"rX c #F6C8A9",
"tX c #FFF6BF",
"yX c #849AC8",
"uX c #909EC2",
"iX c #8AA1CE",
"pX c #8CA4D1",
"aX c #95ABD3",
"sX c #98AED4",
"dX c #91A7D4",
"fX c #9CB3DA",
"gX c #96A8CB",
"hX c #A6B9DB",
"jX c #B1B7CB",
"kX c #9BB1EB",
"lX c #A6BDE3",
"zX c #9384F7",
"xX c #B8C3D8",
"cX c #ACC3E8",
"vX c #B6C8E6",
"bX c #B3CCF5",
"nX c #A8C6F2",
"mX c #CBCED8",
"MX c #F2D3C4",
"NX c #FFF8CB",
"BX c #FFF4D5",
"VX c #FBE8CA",
"CX c #C7D4E9",
"ZX c #CADDF5",
"AX c #D0D8EA",
"SX c #DAE1EC",
"DX c #D8E6FA",
"FX c #DCF0FF",
"GX c #FFFFE3",
"HX c #FFF8E4",
"JX c #E3EBF5",
"KX c #EAF4FC",
"LX c #FDFFFF",
"PX c #F7FCFD",
"IX c #ECE6E9",
/* pixels */
" . .0 G H x A x k S G A l l l r I I G S J b I D S l A b A l S F  . .q H I S D b l G I F l l l r H H F x S x G S A l x l A l S D ",
"H H G S A x A e k l l A S l k S I I Y J t K v.Y z.G D l D l I D I H H G n D D b b b b D D l k S H G G A 9 D x.G z.S A l S e H F ",
"D A D I H 9 A H D I S 0 I H Y b b n n K L L n Y L b b b S k I J K D K U U z K P L P K t U Y Y b l l x D F G x G D r e e x e G D ",
"x H I I z.l A G A S  .r U G D D U L P P P Z V V 8.8.e.U Y U D Y D P 8.e.n.V Z C M N 8.m 8.K G S I D G I { G G x H G I I G H c G ",
"x F A G r 9 l A A x k l A A S U P P V M Z Z M Z 7.9.e.7.L L n n L P L 7.Z s d d d d s M V K D U Y Y G S S r F A G G I D A A e q ",
"x A e x S l x e A l S D K Y D D n M s Z f M 6.d 6.9.5.7.7.C V P C 7.Z C 6.d h r.e.5.d Z 7.e.K J G G l } I A x k S H S S F S x A ",
"H l x { G H H S 0 A G H G Y K Y V s h f g 3 h w.d 6.6.r.5.B 6.e.9.6.6.6.h t.J.B 3 a d B 5.7.L Y Y S D F Y A A x S H D  .G x G | ",
"S x I F G H H I r I I | | Y Y n.m M 2.I.P.J.w.J.D.B B f f d B h B f B 2.4.i.0.d d f g B 5.C L n.z | U A r A A H H g.{ S G F ] G ",
"A c b.g.A A x S x H F  .I U 8.e.M Z f L._.T.P.J.P.G.4.4.D.S.D.6.6.2.t.G.i.K.T.`.`.!.J.r.6.M V P b Y g.U F r H H z.S S A x x A H ",
"A k  .{ l x x x A H G I | U K 8.N C f U.I.H.J.U.H.G.H.P.I.P.!.!.H.Y.i.i.P.L.H.U._._.].'.Q.w.m K b U U D o.x F } b.A A x x x { A ",
"S r H A G l S F x S G I I Y U U n M B w.f 3.T.U.G.U.!.!.H.4.4.K.5.D._.Q.U.`.J.4.P._.S.h h 2.m K b I | S x e H G H A x A q = D o.",
"c A G x.{ G I A l G x G I D z.z.z m s f f d 2.S.s.I.K.Y.3.a a t o r.!.!.H.`.~.G.w.L.a f B M K U t S S H c x G } A A l x c.k { c.",
"c H I G l A A x | G e x S A  .D n n m e.C 5.f d 2.K.i.f a j t @.+.S.4.2.2.t.I._.w.d a B 6.Z U D n S k z.S D k x q | H { I A x c ",
"{ G x l A e q H D H  .x x x S G K J L L C 5.r.9.f w.h a a m +.PXoXD.2.g g 2 z J 9 * y C C V K K I D H A A x I | A } { c c A q x ",
"I F x l S { x S { H { { x e Y | | U g.L n n.L w 6.f g a t.M 5XLXO.r.g 2 X .X#X:XXX+ l e.C b 8.| } Y Y S q { H F S H S x A r 9 H ",
"A r r l G I A S H G A S A D x.b.x.x.U U n e.G O 6.f f S.r.` CXLXO.. , .X4XFXLXFXO.M C P K K v.b.x.c.I H e I | c A A A A G S x A ",
"A e Y e G A G F H D F r r F } { F G G Y b L +.jX= d D.P.X 4XFXDX+.O.dXZXLXPXLX' d C 7.N n K | { S F F G e G G x x x H G A x I x ",
"l x A l D A  .x G H A x x I { A r A G A l b ` LX5XX ~.2.X 3XDXcXSXDXKXPXJX>XmX! Z P u ; D Y | A r x G x q k x l l G G A x x S 9 ",
"} D A e | S l 0 A H x x l H Y G x A G l b L ` PXLX4Xz a 2 3XFXyXDXLXLXKX>X}.! s M S - - b I Y G x x D r e G H S S G x e e A l x ",
"I H A x q A e e e S x k S x I A A k r n U L ` ZXCXLX5X2 2 3XKX1XCXLXSX>XjX:X  z t oXjX# D A I x x r e l G H H H S v.A H G H x A ",
"l ] H x = l Y H I x q S I I q e A F # A 8.P ` ZXhXKXLX4X* 5XZXyXSXSX#XjXLX#XQ - ` LXmX# I Y q q x A H I I H S g.G x I S D S | G ",
"x } S k q S H Y S G e H S | A D I Y & ! K e.` JXpXhXPXKXJXvXiXdXAX4XjXvXCX#XCXLXKXLXmXO S | A S H H H S I  .G G r H G x l e e l ",
"x l x G } l A A S S A S A F F A D K ! gX` 2 ' KXfX1XxXZXdXsXaXsXpXCXvXpXCX#XAXLXZXvX4X* A F S x A G G A A G e e H F A l r e q k ",
"G c H G G D S A l x e G l S x g.k K - fXlXQ ` DXcX>X XiXhXaXsXsXaXsXaXaXAX#XhXCXDXmX. H r y x | e G G x F F e x H x k e e G l k ",
"A x } G H x H A A e x A e S A S D n - pXcXlX>X@XaXyX.X:XyXlXaXsXsXaXsXpXCX#X1XDXLX3X9 A - : x A A A S x x x x k A x e x.| { A S ",
"l x A H l H S Y A A H Y I 0 S H | U - lXlXhXaXOX#XOXuXmXOXyXlXaXaXhXsXhXSXOX#XxXoX. v : : 0 A G { | H k A H I H H H G | G e G  .",
"k x x x x x l l ] Y G } A I D D Y  .: XXbXfXsXcXpX XOXKXmX.XyXhXhXyX,XDXLX>X}. X_ O.+ y A I D S H  .| x H I x x x } H D e e G G ",
"k x q H A x x 0 | S x A Y I l l A D b > XXbXbXhXlX,XOXcXLXmXOXiXsXOXiXPXLXhX4XyXZXXX* A Y H l l x A x F I x A x x x x { F e S G ",
"x k 9 x G l H I S x A x G S A S l S J l v O..XyXbX,X@XsXsXLXAX@X}.yXPXxX>XCXDXgXO.= A x G A A A l A F k } x F A x S F ..S x e G ",
"e q e A l x l D G A l e S r x x q l G : :   ^ +X,XOX@XhXiXsXLXAXOX|.JX>X.XjXKXJXO A l e S r x x q e F F F F x x G q F A x 0 e l ",
"S x x S A x x H A x x G H S | G l G b.: > : _ _ OX X1XcXsXiXsXLXoX+.jX|.MXoXXXJX! c x G H S | G l G b.H e q e e x l l q A r A A ",
"{ G e G H S G A k e { H S  .H r A |  .I A c w y Q ! _ dXcXfXdXbX! ^.4X4X3X Xy ` - e { H S  .H e A }  .I c x F H S S A x S S A G ",
" . .0 G H x A x k S G A l l l r H H F x S x G S q w * + :XbXfXnXW 6X8XeX' / A = O A G A l l l r H H F x S x G S A l x l A l S D ",
"H H G S A x A e k l l A A l r A H G G A 9 D x.G z.S A q : Q Q Q @ ( rXM.: x A r q l l A A l r A H G G A 9 D x.G z.S A l S e H F ",
"D A D I H 9 A H D I S 0 H H I l l l x D S G x G G r e w o 6 &.p &.*.[ y H 9 A H F I S 0 H H I l l l x D S G x G D r e e x e G D ",
"x H I I z.l A G A S  .e Y D S A I D G I { G G v - # O i j.k.V.l.q.0X` . - - # A A S  .e Y D S A I D G I { G G x H G I H G H c G ",
"x F A G e 9 l A A x k l x x x I I I G S S e v - j.j.0.7XVXrX0XrXrXBXVXN.h.k.mX` A x k l x x x I I I G S S r F A G G I D A A e q ",
"x A e x S l x e A l S S G I x A S D r } I A y % Z.BXeXVXGX^.7XGXBXeXVXVXrXA.BX` x l S S G I x A S D r } I A x k S H S S F S x A ",
"H l x { G H H S 0 A G G D H S H H A S S Y x ; *.^.LX9X/.GXZ.Z.BXBXB.9X7Xk.l.j.- 0 A G G D H S H H A S S Y A A x S H D  .G x G | ",
"S x I F G H H I e I I | | I G z.q Y Y l e x O M.BXGX^.^.LXZ.Z.GXGXB.9X^.9X/.p # q I I | | I G z.q } Y x e A A H H g.{ S G F { G ",
"A c b.g.A A x S x H F  .H Y { Y l H | } F r o M.GX7X7 N.MX8XqXVXqXl.7XM.7XGXm.h.- H F  .H Y { Y l H | } F r H H z.S S A x x A H ",
"A k  .{ l x x x A H G I } Y D I x { { F o.y % M.7X6 o T d.W.0X7XN.8X*.3 X.9XN.mX! H G I } Y D I x { { F o.x F } b.A A x x x { A ",
"S r H A G l S F x S G I I I I I x G | A x ; V.h.- y v G E.C.;.d.NXwXC.d.y 6 (.HX$ u G I I I I I x G | A x e H G H A x A q = D o.",
"c A G x.{ G I A l G x G G S } o.q x A G v $ h.( ; A x y O .XB.#.E.#.=X_ F : 6XDX[.# x G G S } o.q x A G c x G } A A l x c.k { c.",
"c H I G l A A x | G e x S x } A x x r z.x + {.{.O { ] ] r [.%X%X$X$X[.@ l A . &X2X- e x S x } A x x r z.S G k x q | H { I A x c ",
"{ G x l A e q H D H  .x x x A S G S G A x + ) ) p y ] : w.wX4X=X4XgX(.y.* * +.kXdX-  .x x x A S G S G A x c I | F } { c c A q x ",
"I F x l S { x S { H { { x q I { { I { A 0 - a.j.V.j.+ 6 a._.u.;.K.I.~.,.< <X0XNXeX- { { x q I { { I { S q { H F S H S x A r 9 H ",
"A r r l G I A S H G A S x D x.b.c.c.H H q ; k.m.h.i R 1 u.'.>.u.'.~.~.p.i N.*.eXBX- A S x D x.b.c.c.I H e I | c A A A A G S x A ",
"A e Y e G A G F H D F r r F } { S F F G e y y / y ; # $.u.'.u.p.d.d.~.wX! N.eXNX@.O F r r F } { S F F G e G G x x x H G A x I x ",
"l x A l D A  .x G H A x x H { x e x G x q k : w y : #.:.d.K.$.%.s.u.d.NXmX@.@.+.w v A x x H { x e x G x q k x l l G G A x x S 9 ",
"} D A e | S l 0 A H x x l H I G x x D r e G H S i #.%.-.>.,.1 @ =.d.>.W.(.<   * A H x x l H I G x x D r e G H S S G x e e A l x ",
"I H A x q A e e e S x k S x I x x r e l G G c i $.8 %.;.:.$.% : * =.d.u.-.7 4 - e S x k S x I A x r e l G H H H S v.A H G H x A ",
"l ] H x = l Y H I x q S I I q q x A H I I H u 1 -.E 8 7 7 8 $ v : % >.,.-.8 5 #.: x q S I I q q x A H I I H S g.G x I S D S | G ",
"x } S k q S H Y S G e H S } A S H H H F I  .v 6 $.5 5 4 E #.1 : ; %.#.8 7 5 8 -.# G e H S } A S H H H S I  .G G r H G x l e e l ",
"x l x G Y l A A S S A S A F S x A G G A A G w + #.$.5 5 $.#.; e & $.;.8 4 8 $.7 & S A S A F S x A G G A A G e e H F A l r e q k ",
"G c H G D D S A l x e G l S x | e G G x F F e y ~ ) ;.$.;.1 : k - 5 8 $.-.-.7 $ u x e G l S x | e G G x F F e x H x k e e G l k ",
"A x } G H x H A A e x A e S x A A A S x x x k e R ) f.R * y A S c - o *Xm.1 $ v A e x A e S x A A A S x x x x k A x e x.| { A S ",
"l x S H l H S Y A A H Y I 0 A G { | H k A H I v 8 f.~ y S e G  .l x > &X-X*X^ H S S G { I 0 A G { | H k A H I H H H H | G e G  .",
"k x x x x x l l ] Y G } A I D S H  .| x H H u W h.1.& G e e G G k x x & f.;XW q ] I G } A I D S H  .| x H I x x x } H D e e G G ",
"k x q H A x x 0 | S x A Y H l l x A x F I x v 2 R.F.; { F e S G k l q * +XA.< 0 | S x A Y H l l x A x F I x A x x x x { F e S G ",
"x k 9 x G l H I S x A x G A A A l A F k } x : ( <.& F ..S c e G x k 9 x ; U.[ v S x A x G S A A l A F k } x F A x S F ..S x e G ",
"e q e A l x l D G A x e S e x x q e F F F A _ ;X=.> F S x 0 e l e q e A # <.zX}.y A l e S r x x q e F F F F x x G q F A x 0 e l ",
"S x x S A x x H A x x G H S | G l G b.H e q e e A l l q A r A A S x l S w *.=X+X: x x G H S | G l G b.H e q e e x l l q A r A A ",
"{ G e G H S G A k e { H S  .H e A }  .I c x F H S F A x S S A G { D e H H S G A k e { H S  .H e A }  .I c x F H S S A x S S A G "
};
