/* XPM */
static char *xpm_[] = {
/* columns rows colors chars-per-pixel */
"64 64 251 2 ",
"   c #170E0E",
".  c #2B0E0D",
"X  c #32231B",
"o  c #181526",
"O  c #181C33",
"+  c #0F112A",
"@  c #261C26",
"#  c #301630",
"$  c #3C2D2C",
"%  c #362829",
"&  c #3F3021",
"*  c #282535",
"=  c #362C37",
"-  c #3D3232",
";  c #363339",
":  c #2D212A",
">  c #520000",
",  c #590315",
"<  c #4A0C18",
"1  c #76101D",
"2  c #56092E",
"3  c #461825",
"4  c #571C25",
"5  c #470732",
"6  c #6D142A",
"7  c #412829",
"8  c #453424",
"9  c #4A3727",
"0  c #43322D",
"q  c #4A362B",
"w  c #4D3A2A",
"e  c #4C3926",
"r  c #543E2C",
"t  c #583F2C",
"y  c #423533",
"u  c #4D3D33",
"i  c #483937",
"p  c #533E32",
"a  c #503F38",
"s  c #4F2B33",
"d  c #762C39",
"f  c #6B2F35",
"g  c #763E11",
"h  c #56402E",
"j  c #5A422E",
"k  c #5D4431",
"l  c #5E4834",
"z  c #574237",
"x  c #4C403A",
"c  c #614633",
"v  c #644935",
"b  c #694D36",
"n  c #664C38",
"m  c #6A4E39",
"M  c #6C4F3A",
"N  c #6A4E39",
"B  c #6D513A",
"V  c #6F513C",
"C  c #6E513B",
"Z  c #655C3D",
"A  c #70523A",
"S  c #71533D",
"D  c #72543E",
"F  c #72543D",
"G  c #73583F",
"H  c #794830",
"J  c #576833",
"K  c #151749",
"L  c #270B47",
"P  c #172450",
"I  c #2B2E43",
"U  c #373647",
"Y  c #393E55",
"T  c #283248",
"R  c #183770",
"E  c #363D63",
"W  c #243B6A",
"Q  c #111575",
"!  c #701057",
"~  c #453D45",
"^  c #412942",
"/  c #6D3046",
"(  c #533965",
")  c #53185F",
"_  c #394452",
"`  c #394570",
"'  c #306B7C",
"]  c #554748",
"[  c #575158",
"{  c #4A4755",
"}  c #6E5441",
"|  c #745640",
" . c #765943",
".. c #7A5B44",
"X. c #7D5D48",
"o. c #765B49",
"O. c #70514F",
"+. c #7D614A",
"@. c #7C6351",
"#. c #48526E",
"$. c #6C5C68",
"%. c #6C6B6D",
"&. c #99181C",
"*. c #890F09",
"=. c #B70000",
"-. c #B7180C",
";. c #A91312",
":. c #B92312",
">. c #8A1623",
",. c #842939",
"<. c #8C322A",
"1. c #B4332E",
"2. c #A8231A",
"3. c #D81902",
"4. c #C61A03",
"5. c #ED1806",
"6. c #D62B13",
"7. c #EF3905",
"8. c #89413D",
"9. c #B15638",
"0. c #B46835",
"q. c #A64F19",
"w. c #D44E18",
"e. c #F65718",
"r. c #F54A11",
"t. c #F96E1D",
"y. c #D25A2D",
"u. c #EC5723",
"i. c #CD6C3C",
"p. c #F67829",
"a. c #EC6F2D",
"s. c #8F3D44",
"d. c #A41564",
"f. c #C82068",
"g. c #805F4A",
"h. c #845C47",
"j. c #964F4A",
"k. c #B1544B",
"l. c #83634C",
"z. c #876651",
"x. c #8B6B53",
"c. c #876A55",
"v. c #93735B",
"b. c #916E51",
"n. c #B7694E",
"m. c #837C70",
"M. c #AE6F69",
"N. c #92597B",
"B. c #D5674A",
"V. c #EB6A49",
"C. c #C77B67",
"Z. c #748456",
"A. c #FA8831",
"S. c #FFAC3D",
"D. c #E39E1D",
"F. c #91867B",
"G. c #B98773",
"H. c #F3984F",
"J. c #FFB954",
"K. c #F6B24F",
"L. c #D28672",
"P. c #EF9675",
"I. c #FFBA71",
"U. c #DDA149",
"Y. c #FFD07C",
"T. c #070FAE",
"R. c #0020BC",
"E. c #1A1A89",
"W. c #364E90",
"Q. c #1E4FB1",
"!. c #475C99",
"~. c #57658D",
"^. c #777785",
"/. c #687699",
"(. c #6C7592",
"). c #5C6DA2",
"_. c #5973AA",
"`. c #4F69A7",
"'. c #6678AA",
"]. c #657CB4",
"[. c #737EAC",
"{. c #002BCC",
"}. c #325BC1",
"|. c #507EC1",
" X c #8D778D",
".X c #8A79BE",
"XX c #887EC7",
"oX c #768994",
"OX c #7A8AB7",
"+X c #7389B1",
"@X c #49809B",
"#X c #768ECC",
"$X c #60A1FF",
"%X c #878793",
"&X c #B39794",
"*X c #8695BC",
"=X c #8D95AC",
"-X c #B396A5",
";X c #98A7A7",
":X c #B3AAAE",
">X c #ABA08E",
",X c #CA948D",
"<X c #E89785",
"1X c #D1AD95",
"2X c #ECAB8F",
"3X c #D3B3AB",
"4X c #E3BBB6",
"5X c #C696A3",
"6X c #F8C88D",
"7X c #D7C5AF",
"8X c #EAC7B4",
"9X c #FBD8B8",
"0X c #F2C9A8",
"qX c #FAEEBB",
"wX c #869AC5",
"eX c #8396D3",
"rX c #9BAACB",
"tX c #95ABD4",
"yX c #9CB2DA",
"uX c #93AFD5",
"iX c #A8BADA",
"pX c #ABB3CA",
"aX c #9AB7E7",
"sX c #A4BCE5",
"dX c #A783FC",
"fX c #B5C2DB",
"gX c #AAC0DD",
"hX c #ACC4E9",
"jX c #B7C7E3",
"kX c #B2CCF7",
"lX c #A4D6FD",
"zX c #CAD0DA",
"xX c #E9D4D0",
"cX c #FEE9C7",
"vX c #FFFDD6",
"bX c #FFFADA",
"nX c #FFF5CE",
"mX c #C8CFE0",
"MX c #C7D3E6",
"NX c #D3DCE9",
"BX c #C4D8F5",
"VX c #DAE2ED",
"CX c #D9E6F7",
"ZX c #FEFAE6",
"AX c #E8F4FD",
"SX c #FFFEF3",
"DX c #F5FBFE",
"FX c #FFFFFF",
"GX c #F7F7FF",
"HX c #E4E8EF",
"JX c #D4E5D9",
/* pixels */
"X.X.e M B k c k h v m c j j j r B V b k v k M v c j k j c j v b X.X.e M B k c k h v m c j j j r A V b k v k M v c j k j c j v b ",
"B B m v c k c r h j j c c j r c B m m c 8 b x.M l.v c j v r B b B B m v c k c r h j j c c j r c B m m c 8 b x.M l.v c j v r B b ",
"b c b F B 8 c B b F v 9 V B S j j j k b v m k m b r r r k r m b b c b F B 8 c B b F v 9 V B S j j j k b v m k m b r r r k r m b ",
"k B A A l.j c m c v X.r G b v c A b M S | M m k B M F V m B l m k B A A l.j c m c v X.r G b v c A b M S | m m k B m F S m B l m ",
"k b c m r 8 j c c k h j k k k S A F m v v t n c M M S b c c r w k b c m r 8 j c c k h j k k k S A G m v v t n c M M S b c c r w ",
"k c r k v j k r c j v v M A k c v b t  .S c k h v V v v n v k c k c r k v j k r c j v v M A k c v b t  .S c k h v V v v n v k c ",
"B j k | m V V v 9 c M M b B v C B c v n G c c k v B b X.M k m ..B j k | m V V v 9 c M M b B v C B c v n G c c k v B b X.M k m ..",
"v k F b m B V A r F F ....S M l.w  .G k r c c B B g.| v m n } M v k F b m B V A r F F ....S M l.w  .G k r c c B B g.| v m n } M ",
"c l v.g.c c k v k B n X.V G | G j B .. .b r B B l.v v c k k c V c l v.g.c c k v k B n X.V G | G j B .. .b r B B l.v v c k k c V ",
"c h X.| j k k k c B M F  .G b F k | | n +.k b  .v.c c k k k | c c k X.| j k k k c B M F  .G b F k | | n +.k b  .v.c c k k k | c ",
"v r B c m j v b k v M A S A F F k m ..c k r B m V c k c w & b +.b r V v m j v b k v M A S A F F k m ..c k r B m V c k c w & b +.",
"l c m x.| m S c j m k m M v o.+.w k c n l k m  .c c j - * * @ * c c m x.| m S c j m k m M v o.+.w k c m l k m  .c c j k c.h | c.",
"l B S m j c c k ..m r k v k o.c k k r l.v m h k w ..V n + ;XHXpX* @ S m j c c k ..m r k v k o.c k k r l.v m h k w ..V | F c k l ",
"| m k j c r w B b B X.k k k c v m v m c k l F ..c o.| k h { HXFXzX;X- r c r $ U * ; U ~ u p c v m v m c k l F ..c o.| l l c w k ",
"F n k j v | k v | V | | k w F | | S | v w | B n c V v k c r ; NXCXFX;X@ v q =XCXtXmXDXzXU o F | | S | v w | B n v V v k c r 8 B ",
"c t r j M F c v V m c v k b x.v.z.z.S V r F ..= = c c c m v * mXhXFXzX@ 9 ` uXjXNXFXDX{ p v x.v.z.z.S V r F ..l c c c c m v k c ",
"c r G r m c m n V b b t r b  .| v n n M r b m - @ k B m c k ; NXsXtXAX(.K OXOX).'.pX{ e r b  .| v n n M r m M k k k B m c k S k ",
"j k c j b c X.k m B c k k B | k r k m k w h j q _ U n c c c ; NXiXtXMX*XpXFXVXiXDX^.k k o m | k r k m k w h k j j M M c k k v 8 ",
"G b c r ..v j 9 c V k k j V F m k k i - $ q q X /.gX@ r r r + NXhXiXOXrXFXFXjXBXJX{ k 9 { z F m k k b r r M B v v M k r r c j k ",
"F V c k w c r r r v k h v k S k k r * o Y =X^.%.~.sXrX% 8 { %XfXVXmXrXAXNXCXjXAX[ X % %.AXU S k k r r j m B B V v b.c B m B k c ",
"j } V k & j G B F k w v S F w w k c B F ~ MXFXFXmX!.aX~.Y FXFXtXVXDXFXjXjXMXjXFX=X_ #.DXDX= w w k c B F S B v g.m k S v b v ..m ",
"k o.v h e v B G v m r B v  .c v B B m i F % +XAXFXNX).wXFXAXjXyXAXDXMXiXiXsXNXCXyXkXCXFXDXI c v B B B v F X.m M r B m k j r r j ",
"k j k m  .j c c v v c v c b v k c m n O 0 M X '.AXFXNXfXCX'.W.tXjX'._.sXOX!.).fXjX].HXAX(.i v k c m m c c M r r B n c j r r w h ",
"m l B m m b v c j k r M j v k ..r m m U ~.% & % +XBXMXjX`.OXpXjX+XrX*X*XNXpXrXOXfXmX*XE % v k ..r m m k n n r k B k h r r m j h ",
"c k  .m B k B c c r k c r v k c c c c u ~.tX(.  P #XyX].*XDXFXNX'.FXFX*X*XAXFXNX[.mXiX/.; v k c c c v k k k k h c k r x...| c v ",
"j k c B j B v G c c B G A 9 c m | ..V h 0 /.kX*X*XtXhX`.zXFXjXwX'.CXFXDX+X_.CXFXVXOXtXkX*X* c m | ..V h c V G V B B m ..m r m X.",
"h k k k k k j j } G m o.c F b v V X...k F z #.hXyXyXsX'.fXFXrXs.s._.hXFXpX!.yXCXFX*XK I Y * b v V X...k V F k k k o.B b r r m m ",
"h k w B c k k 9 ..v k c G V j j k c k n n p - ~.#X'.W.+X[.iXMXB.y.d ).BX4Xf O %XFXoX8 p n n j j k c k n F k c k k k k | n r v m ",
"k h 8 k m j V F v k c k m c c c j c b r * o U wXsX#.  ` ( ( iXJX0XB.,.|.:X<.0 q ;X^.l k m c c c j c b h  .k n c k v n o.n k r m ",
"r w r c j k j b m c j r v r k k w r n n n z o T ].` f f ^ k. XW._.4XV.d :X7X@ b = O u r v r k k w h n n n n k k m w b c k 9 r j ",
"v k k v c k k V c k k M B v ..M j m v.V r w r 0 E R f V./ 7XcXf +XuX-X<.2Xm.$ V c - u M B v ..M j m v.V r w r r k j j w c r c c ",
"| m r m V v m c h r | B v X.V r c  .X.A k k n B p + s 8./ GXFXG.ZXuXR CX1X@ m c r r | B v X.V r c  .X.A l k n B v v c k v v c M ",
"X.X.e M B k c k h v m c j j j r B V b k v k M v c r - % # -XFXvXcX:X:XSXO.w c k r v m c j j j r B V b k v k M v c j k j c j v b ",
"B B m v c k c r h j j c c j r c B m m c 8 b x.m 0 $ y $ + 3 -XFXbXbXvX]   % p r r j j c c j r c B m m c 8 b x.M l.v c j v r B b ",
"b c b F B 8 c B b F v 9 V B S j j j k b v m p i =X$.} O.3 <.1  X&X&Xj.> @.;X[ l b F v 9 V B S j j j k b v m k m b r r r k r m b ",
"k B A A l.j c m c v X.r G b v c A b M S | m q %XSX<X9X9X2X8X4XM., ^ 3X<Xk.8X@.0 v v X.r G b v c A b M S | m m k B m F V m B l m ",
"k b c m r 8 j c c k h j k k k S A F m v v t q %X<XC.SXbX2XxXFXSX0X&X:XFX%X, L.$.q k h j k k k S A F m v v t n c M M S b c c r w ",
"k c r k v j k r c j v v M A k c v b t  .S c q ] B.k.C.L.1.2XvXZXFX0Xj.SX:X/ ZXF.% j v v M A k c v b t  .S c k h v V v v b v k c ",
"B j k | m V V v 9 c M M b B v C B c n n F z * 5 M.8XM.2 / M.9X9X,Xn.k.1X8X&X Xy % c M M b B v C B c v n G c c k v B b X.M k m ..",
"v k F b m B V A r F F ....S M l.w  . .k r 0 s ,.&XFX&Xf j./ k.C.4XxXxXL.L.s ] ,X7 a F ....S M l.w  .G k r c c B B g.| v m n | M ",
"c l v.g.c c k v k B n X.V G | G j B .. .u # P.,X,X>X+ d B.k.2X9XSXbXM.L.cXn Z FX^.$ n X.B G | G j B .. .b r B B l.v v c k k c V ",
"c h X.| j k k k c B M F  .G b F k | | n z ] SXxX= - k * 0.A.I.qXqXP.B.6XK.H $.DX(.0 M F  .G b F k | | n +.k b  .v.c c k k k | c ",
"v r B c m j v b k v M A S A F F k m ..c 0 [ AXrX$ c k - % O }.G.0.*.1.l.o   W.$XW.8 M A S A F F k m ..c k r B m V c k c w & b +.",
"l c m x.| m S c j m k m M v o.+.w k c m q W $XQ.X c j k @.$ Q R.R.{.{.E.q u OXaX` q k m M v o.+.w k c m l k m  .c c j k c.h | c.",
"l B S m j c c k ..m r k v k o.c k k r l.w E aX#X%.~ C | O U.7..XeXXX#X5Xq.#.9XcX%.0 r k v k o.c k k r l.v m h k w ..V | F c k l ",
"| m k j c r w B b B X.k k k c v m v m c 0 [ vX9X3X&X] % ] y.r.S.A.7.y.9.i.4 # 2XF.0 X.k k k c v m v m c k l F ..n o.| l l c w k ",
"F n k j v | k v | V | | k w F | | S G v % $.FX2X. 4X7X% A.r.H.J.p.7.0.j.t.> W ZXF.$ | | k w F | | S | v w | B n v V v k c r 8 B ",
"c t r j M F c v V m c v k b x.v.z.z.A B w y :XnX3X1XI *.5.a.J.J.a.r.i.j.K.0.m.oX_ p c v k b x.v.z.z.S V r F ..l c c c c m v k c ",
"c r G r m c m n V b b t r b  .| v n n M r m * oX;XT = ,X6.a.J.a.A.7.d 6 u.S.w.X V b b t r v  .| v n n M r m M k k k B m c k S k ",
"j k c j b c X.k m B c k k B | k r k m k w h k : . > :XZX:.t.a.e.w., / y.=.V.Y.:.H B c k j B | k r k m k w h k j j M M c k k v 8 ",
" .b c r ..v j 9 c V k k j V F m k k b r r M H 2.3.;.M.a.=.6.p.e.1 L >.p.u.2.9XI.A.U.M k h V F m k k b r r M B v v M k r r c j k ",
"F V c k w c r r r v k h v k S k k r r j m B c 6 >.5 n.r.u.A.w.< O # 5 &.p.e.,.k.<.G b h c k S k k r r j m B B V v b.c B m B k c ",
"j } V k & j G B F k w v S F w w k c B F A B x 3 >.L B.e.6.y.1 O ; 3 2.2 d 8.< =., y w v S F w w k c B F S B v g.m k S v b v ..m ",
"k o.v h e v B G v m r B v  .c v B B B b A X.x 1 3.5 &.&.5 1 -.: h % 5.-.2 5 &.5.4 i r B v  .c v B B B v F X.m M r B m k j r r j ",
"k j k m G j c c v v v v c b v k c m M c c M 0 4 5.>.6 1 6 ;.4.: k u 4 3.-.-.3.6 - c v v c b v k c m m c c M r r B n c j r r w h ",
"m l B m m b v c j k r M j v k ..r m B k n n r 9 Q ! 5.&.-.4 * r m l u K T.! >.; j k r M j v k ..r m m k n n r k B k h r r m j h ",
"c k  .m B k B c c r k c r v k c c c v k k k k w K d.d.P $ } c v c k C P T.E.4 u c r k c r v k c c c v k k k k h c k r x...| c v ",
"j k v B j B v G c c B G A 9 c m | ..V h c V V Y f.d.P n m r m X.j k c a i _ y G c c m F A 9 c m | ..V h c V G V B B m ..m r m X.",
"h k k k k k j j } G m o.c F b v V X...k V F 0 ' 6Xq.* b r r m M h k k $ Z.H.3 - } G m o.c F b v V X...k V F k k k  .B b r r m M ",
"h k w B c k k 9 ..v k c G V j j k c k n F k z g D.J y | n r v m h k w 9 Q.dX1.4 s z k c G V j j k c k n F k c k k k k | n r v m ",
"k h 8 k m j V F v k c k m c c c j c b h  .u 7 f.) % m X.n k r m k h 8 w { @XN.1.d i c k m c c c j c b h  .k n c k v n o.n k r m ",
"r w r c j k j b m c j r v r k k w r n n n n k k m q b c k 9 r j r w r c j k j b m c j r v r k k w r n n n n k k m w b c k 9 r j ",
"v k k v c k k V c k k M B v ..M j m v.V r w r r k j j w c r c c v k k v c k k V c k k m B v ..M j m v.V r w r r k j j w c r c c ",
"| m r m V v m c h r | B v X.V r c  .X.A l k n B v n c k v v c M | m r m V v m c h r | B v X.V r c  .X.A l k n B v v c k v v c M "
};
