/* XPM */
static char *xpm_[] = {
/* columns rows colors chars-per-pixel */
"64 64 255 2 ",
"   c #050318",
".  c #130E14",
"X  c #261C16",
"o  c #372317",
"O  c #0C0B25",
"+  c #181729",
"@  c #1A1B36",
"#  c #091338",
"$  c #251B2A",
"%  c #231D38",
"&  c #351531",
"*  c #1C2436",
"=  c #372829",
"-  c #3E3023",
";  c #2A2635",
":  c #362B33",
">  c #393336",
",  c #28262A",
"<  c #460B17",
"1  c #6D1115",
"2  c #4B3219",
"3  c #693611",
"4  c #48163A",
"5  c #571436",
"6  c #4C1925",
"7  c #791628",
"8  c #6D1130",
"9  c #463424",
"0  c #4A3726",
"q  c #4E3A2A",
"w  c #48362A",
"e  c #543E2C",
"r  c #583F2C",
"t  c #583E25",
"y  c #483835",
"u  c #533D31",
"i  c #4A282E",
"p  c #732B30",
"a  c #6A4319",
"s  c #754B1C",
"d  c #7B4E1B",
"f  c #724716",
"g  c #7C521B",
"h  c #69560D",
"j  c #56402E",
"k  c #5A422E",
"l  c #5B4225",
"z  c #5D4431",
"x  c #5F4834",
"c  c #564237",
"v  c #66492D",
"b  c #6B4B2C",
"n  c #664726",
"m  c #724C24",
"M  c #724E28",
"N  c #7D5323",
"B  c #75512C",
"V  c #7C552B",
"C  c #765025",
"Z  c #614633",
"A  c #644935",
"S  c #6A4D36",
"D  c #664C38",
"F  c #6A4E39",
"G  c #6E513B",
"H  c #6D5134",
"J  c #745334",
"K  c #7A5634",
"L  c #7D5934",
"P  c #72543D",
"I  c #7C5A3C",
"U  c #76573C",
"Y  c #77433B",
"T  c #10185D",
"R  c #3B1345",
"E  c #152B54",
"W  c #2D3452",
"Q  c #30334A",
"!  c #081970",
"~  c #1B3867",
"^  c #4F3845",
"/  c #7A374D",
"(  c #58226D",
")  c #36476F",
"_  c #484959",
"`  c #4F4C53",
"'  c #6E5541",
"]  c #60544C",
"[  c #745641",
"{  c #765942",
"}  c #7B5B43",
"|  c #7D5D48",
" . c #765B49",
".. c #6D494A",
"X. c #7D614A",
"o. c #50546A",
"O. c #635A6A",
"+. c #6F7274",
"@. c #951514",
"#. c #B2150D",
"$. c #841626",
"%. c #8D322F",
"&. c #AC3736",
"*. c #B02920",
"=. c #CC1002",
"-. c #E71A03",
";. c #E60700",
":. c #D53A14",
">. c #F62B03",
",. c #CF183B",
"<. c #E53F31",
"1. c #87591A",
"2. c #82570F",
"3. c #976B17",
"4. c #A97316",
"5. c #845A2B",
"6. c #835726",
"7. c #835B33",
"8. c #835E3A",
"9. c #915330",
"0. c #B94237",
"q. c #986726",
"w. c #8A633A",
"e. c #956A33",
"r. c #AC7526",
"t. c #B44A13",
"y. c #EF4F13",
"u. c #CB7A1E",
"i. c #F96A1E",
"p. c #C65B36",
"a. c #D87127",
"s. c #F37830",
"d. c #C71D63",
"f. c #805F46",
"g. c #964A4F",
"h. c #AA524B",
"j. c #A94E49",
"k. c #84644B",
"l. c #8B6B52",
"z. c #876852",
"x. c #916E51",
"c. c #94735A",
"v. c #946D48",
"b. c #885070",
"n. c #906D76",
"m. c #AE6E6C",
"M. c #B85F64",
"N. c #CB5D4E",
"B. c #F37342",
"V. c #CA7A6A",
"C. c #E36A62",
"Z. c #B6910D",
"A. c #B98830",
"S. c #A39229",
"D. c #D19815",
"F. c #D7AB0F",
"G. c #E5B80D",
"H. c #CF912E",
"J. c #F49931",
"K. c #D2AA37",
"L. c #E8AB36",
"P. c #EBB538",
"I. c #F7B637",
"U. c #E8B625",
"Y. c #F6CF14",
"T. c #F6CF2F",
"R. c #F8E328",
"E. c #B78C47",
"W. c #A7A166",
"Q. c #EF8E5A",
"!. c #F7B047",
"~. c #D68A77",
"^. c #CE8979",
"/. c #FE9C71",
"(. c #DCA85A",
"). c #FFD448",
"_. c #F8C44D",
"`. c #F9D263",
"'. c #FCE654",
"]. c #2C3290",
"[. c #00029D",
"{. c #304988",
"}. c #3D5BA2",
"|. c #4B5A92",
" X c #556593",
".X c #6D7999",
"XX c #77798B",
"oX c #576AA2",
"OX c #526CAF",
"+X c #697AA9",
"@X c #6C7BAA",
"#X c #0026D6",
"$X c #0033E7",
"%X c #2463EC",
"&X c #6D71D0",
"*X c #8B66A5",
"=X c #DB448C",
"-X c #A76FDC",
";X c #7383AB",
":X c #798AB8",
">X c #798CBD",
",X c #6F858C",
"<X c #7B93C4",
"1X c #4F8AFF",
"2X c #908D93",
"3X c #BBAC87",
"4X c #9093AE",
"5X c #9EA1AE",
"6X c #B39F8C",
"7X c #D79886",
"8X c #CB8F85",
"9X c #E5AD98",
"0X c #F6BAA4",
"qX c #DDAF9D",
"wX c #FDCE8F",
"eX c #FED4B6",
"rX c #F6C8A9",
"tX c #FDF4BE",
"yX c #FBEE80",
"uX c #849AC8",
"iX c #909EC2",
"pX c #8AA1CE",
"aX c #8CA4D1",
"sX c #95ABD3",
"dX c #98AED4",
"fX c #91A7D4",
"gX c #9CB3DA",
"hX c #96A8CB",
"jX c #A6B9DB",
"kX c #B3B8CA",
"lX c #9BB1EB",
"zX c #A6BDE3",
"xX c #9384F7",
"cX c #B8C3D8",
"vX c #ACC3E8",
"bX c #B6C8E6",
"nX c #AFCAF4",
"mX c #CBCED8",
"MX c #F2D3C4",
"NX c #FFF8CB",
"BX c #FFF5D5",
"VX c #FBE8CA",
"CX c #C7D4E9",
"ZX c #CADDF5",
"AX c #D0D8EA",
"SX c #DAE1EC",
"DX c #D8E6FA",
"FX c #DCF0FF",
"GX c #FFFFE3",
"HX c #FFF8E4",
"JX c #E3EBF5",
"KX c #EAF4FC",
"LX c #FDFFFF",
"PX c #F7FCFD",
"IX c #ECE6E9",
/* pixels */
"| | 0 F G z Z z j A F Z k k k r P P F A H A P S A k Z v Z k A D | | q G P A S v k F P D k k k r G G D z A z F A Z k z k Z k A S ",
"G G F A Z z Z e j k k Z A k j A P P U H t J x.U k.F S k S k G S P G G F S S S n n v v S S k j A G F F Z 9 S l.F k.A Z k A e G D ",
"S Z S P G 9 Z G S P A 0 P G U v v b b J K K b U K v v v A j P H J S J I I l J L K L J t I U U v k k z S D F z F S r e e z e F S ",
"z G P P k.k Z F Z A | r I F S S I K L L L C B B 8.8.w.8.U I S U S L 8.w.v.B C V m M 8.n 8.J F A P S F P [ F F z G F P P F G x F ",
"z D Z F r 9 k Z Z z j k Z Z A I L L B m C C m C 7.8.w.8.K K b b K 7.K 8.m a s s s n a m B B S I U U F A A r D Z F F P S Z Z e q ",
"z Z e z A k z e Z k A S J U S S b m a C s m 6.s 6.7.5.7.7.L B L V 7.C V 6.s g e.w.5.s C 7.w.J H F F k { P Z z j A G A A D A z Z ",
"G k z [ F G G A 0 Z F G F U J U B a g d f 3 g q.s 6.6.e.5.N 6.w.5.6.6.6.g r.H.N 3 a s N 5.7.K U U A S D U Z Z z A G S | F z F } ",
"A z P D F G G P r P P } } U U v.n m 1.I.L.H.q.H.A.N N d g g 3.3.3.3.1.1.4.u.9.s s d f N 5.V K v.l } I Z r Z Z G G f.[ A F D ' F ",
"Z x c.f.Z Z z A z G D | P I 8.w.m C d K.).T.L.H.L.H.r.4.H.D.G.G.G.F.D.D.u.J.T._._.!.K.e.6.m B L n U f.I D r G G k.A A Z z z Z G ",
"Z j | [ k z z z Z G F P } I J 8.M V s P.I.H.H.P.H.H.H.L.U.Y.R.'.R.Y.G.D.L.K.H.P.).).'.`.K.q.n J v I I S X.z D { c.Z Z z z z [ Z ",
"A r G Z F k A D z A F P P U I I b m N r.d 3.T.P.H.P.L.P.G.Y.yXBXW.E.Y.U.U._.H.r.L.).A.g g 1.n J v P } A z e G F G Z z Z q - S X.",
"x Z F l.[ F P Z k F z F P S k.k.l n n s s s 1.A.a.I.J.D.G.T.tXkXO W.R.Y.F._.!.H.q.K.a d N m J I t A A G x z F { Z Z k z z.j [ z.",
"x G P F k Z Z z } F e z A Z | S b n n w.V 5.d s 1.J.u.4.F.T.W.XXO.W.Y.D.3.r.I.).q.s a N 6.C I S b A j k.A S j z q } G [ P Z z x ",
"[ F z k Z e q G S G | z z z A F J S K K V 5.e.5.s q.g 2.Z.S.O.PXXXE.Y.Z.2.2 l H 9 = y V K B J J P S G Z Z z P } Z { [ x x Z q z ",
"P D z k A [ z A [ G [ [ z e U } } I f.K b w.L q 6.d f 2.D.h 5XLXo.Z.Z.t o  X@X;X.X@ k w.V n 8.} { U U A q [ G D A G A z Z r 9 G ",
"Z r r k F P Z A G F Z A Z S l.c.l.l.I I b w.F + 6.d d A.e._ CXLXo.X X  X4XFXLXFXo.m V L J J x.c.l.z.P G e P } x Z Z Z Z F A z Z ",
"Z e U e F Z F D G S D r r D { [ D F F U v K O.kX- s A.L.o 4XFXDXO.o.fXZXLXPXLX` s V 7.M b J } [ A D D F e F F z z z G F Z z P z ",
"k z Z k S Z | z F G Z z z P [ Z r Z F Z k v _ LX5Xo !.1.o 2XDXvXSXDXKXPXJX:XmXQ C L u : S U } Z r z F z q j z k k F F Z z z A 9 ",
"{ S Z e } A k 0 Z G z z k G U F z Z F k v K _ PXLX4Xl a 2 2XFXuXDXLXLXKX:X{.Q a m A ; ; v P U F z z S r e F G A A F z e e Z k z ",
"P G Z z q Z e e e A z j A z P Z Z j r b I K _ ZXCXLX5X2 2 2XKX<XCXLXSX:XkX;X  l t XXkX$ S z P z z r e k F G G G A x.Z G F G z Z ",
"k ' G z - k U G P z q A P P q e Z D $ Z 8.L _ ZXjXKXLX4X= 5XZXuXSXSX@XkXLX@XW ; _ LXmX$ P U q q z Z G P P G A f.F z P A S A } F ",
"z { A j q A G U A F e G A } Z S P U * Q J w._ JXaXjXPXKXJXbXpXfXAX4XkXbXCX@XCXLXKXLXmX+ A } Z A G G G A P | F F r G F z k e e k ",
"z k z F { k Z Z A A Z A Z D D Z S J Q hX_ 2 ` KXgX<XcXZXfXdXsXdXaXCXbXaXCX@XAXLXZXbX4X, Z S A z Z F F Z Z F e e G D Z k r e q j ",
"F x G F F S A Z k z e F k A z f.j J ; gXzXW _ DXvX:X|.pXjXsXdXdXsXdXsXsXAX@XjXCXDXmX. G r u z } e F F z D D e z G z j e e F k j ",
"Z z { F G z G Z Z e z Z e A Z A S b ; aXvXzX:X+XsXuX X;XuXzXsXdXdXsXdXaXCX@X<XDXLX2X9 Z ; > z Z Z Z A z z z z j Z z e l.} [ Z A ",
"k z Z G k G A U Z Z G U P 0 A G } I ; zXzXjXsXoX@XoXiXmXoXuXzXsXsXjXdXjXSXoX@XcXXX. c > > 0 Z F [ } G j Z G P G G G F } F e F | ",
"j z z z z z k k ' U F { Z P S S U f.> .XnXgXdXvXaX|.oXKXmX XuXjXjXuX>XDXLX:X{.|.) o.@ y Z P S A G | } z G P z z z { G S e e F F ",
"j z q G Z z z 0 } A z Z U P k k Z S v , .XnXnXjXzX>XoXvXLXmXoXpXdXoXpXPXLXjX4XuXZX.X= Z U G k k z Z z D P z Z z z z z [ D e A F ",
"z j 9 z F k G P A z Z z F A Z A k A H k c o. XuXbX>X+XdXdXLXAX+X{.uXPXcX:XCXDXhXo.- Z z F Z Z Z k Z D j { z D Z z A D  .A z e F ",
"e q e Z k z k S F Z k e A r z z q k F > >   ~ OX>XoX+XjXpXdXLXAXoX}.JX:X XkXKXJX+ Z k e A r z z q e D D D D z z F q D Z z 0 e k ",
"A z z A Z z z G Z z z F G A } F k F c.> , > ) ) oX|.<XvXdXpXdXLXXXO.kX}.MXXX.XJXQ x z F G A } F k F c.G e q e e z k k q Z r Z Z ",
"[ F e F G A F Z j e [ G A | G r Z } | P x x w y W Q ) fXvXgXfXnXQ ~.4X4X2X|.y _ ; e [ G A | G e Z { | P x z D G A A Z z A A Z F ",
"| | 0 F G z Z z j A F Z k k k r G G D z A z F A q w = @ ;XnXgXvXE 6X8XeX` ^ Z - + Z F Z k k k r G G D z A z F A Z k z k Z k A S ",
"G G F A Z z Z e j k k Z Z k r Z G F F Z 9 S l.F k.A Z q > W W W # / rXn.> z Z r q k k Z Z k r Z G F F Z 9 S l.F k.A Z k A e G D ",
"S Z S P G 9 Z G S P A 0 G G P k k k z S A F z F F r e w O 6 %.p %.&.] y G 9 Z G D P A 0 G G P k k k z S A F z F S r e e z e F S ",
"z G P P k.k Z F Z A | e U S A Z P S F P [ F F c ; $ + i j.h.N.h.0.0X_ . ; ; $ Z Z A | e U S A Z P S F P [ F F z G F P G F G x F ",
"z D Z F e 9 k Z Z z j k z z z P P P F A A e c ; j.j.9.7XVXrX0XrXrXBXVXm.g.h.mX_ Z z j k z z z P P P F A A r D Z F F P S Z Z e q ",
"z Z e z A k z e Z k A A F P z Z A S r { P Z y & V.BXeXVXGX~.7XGXBXeXVXVXrXC.HX_ z k A A F P z Z A S r { P Z z j A G A A D A z Z ",
"G k z [ F G G A 0 Z F F S G A G G Z A A U z : &.~.LX9X^.GXV.V.BXBXM.9X7Xh.h.j.; 0 Z F F S G A G G Z A A U Z Z z A G S | F z F } ",
"A z P D F G G P e P P } } P F k.q U U k e z + n.BXGX~.~.LXV.V.GXGXM.9X~.9X^.p $ q P P } } P F k.q { U z e Z Z G G f.[ A F D [ F ",
"Z x c.f.Z Z z A z G D | G U [ U k G } { D r O n.GX7X7 m.MX^.qXVXqXh.7Xn.7XGXb.g.; G D | G U [ U k G } { D r G G k.A A Z z z Z G ",
"Z j | [ k z z z Z G F P { U S P z [ [ D X.y & n.7X6 O Y s.Q.0X7Xm.8X&.3 ..9Xm.mXQ G F P { U S P z [ [ D X.z D { c.Z Z z z z [ Z ",
"A r G Z F k A D z A F P P P P P z F } Z z : N.g.; y c F E.B.-.s.NXwXB.s.y 6 /.HX% u F P P P P P z F } Z z e G F G Z z Z q - S X.",
"x Z F l.[ F P Z k F z F F A { X.q z Z F c % g./ : Z z y +  XM.@.E.@.*X) D > 3XDX].$ z F F A { X.q z Z F x z F { Z Z k z z.j [ z.",
"x G P F k Z Z z } F e z A z { Z z z r k.z @ [.[.+ [ G ' r ].$X$X#X#X].# k Z . %X1X; e z A z { Z z z r k.A F j z q } G [ P Z z x ",
"[ F z k Z e q G S G | z z z Z A F A F Z z @ ( ( p y ' > e.wX4X*X4XhX/.t.= = O.lXfX; | z z z Z A F A F Z z x P } D { [ x x Z q z ",
"P D z k A [ z A [ G [ [ z q P [ [ P [ Z 0 ; p.g.N.j.@ 6 p.).y.-.J.I.!.>.< ,X0XNXeX; [ [ z q P [ [ P [ A q [ G D A G A z Z r 9 G ",
"Z r r k F P Z A G F Z A z S l.c.z.z.P G e : h.b.g.i T 1 y.`.:.y.`.!.!.i.i m.&.eXBX; Z A z S l.c.z.z.P G e P } x Z Z Z Z F A z Z ",
"Z e U e F Z F D G S D r r D { [ A D D F e y y ^ y : $ #.y.`.y.i.s.s.!.wXQ m.eXNX+.+ D r r D { [ A D D F e F F z z z G F Z z P z ",
"k z Z k S Z | z F G Z z z G [ z e z F z q j > w y > @.;.s.J.#.$.a.y.s.NXmX+.+.O.w c Z z z G [ z e z F z q j z k k F F Z z z A 9 ",
"{ S Z e } A k 0 Z G z z k G P F z z S r e F G A i @.$.=.:.>.1 # *.s.:.Q./.<   = Z G z z k G P F z z S r e F G A A F z e e Z k z ",
"P G Z z q Z e e e A z j A z P z z r e k F F x i #.8 $.-.;.#.& > = *.s.y.=.7 4 ; e A z j A z P Z z r e k F G G G A x.Z G F G z Z ",
"k ' G z - k U G P z q A P P q q z Z G P P G u 1 =.R 8 7 7 8 % c > & :.>.=.8 5 @.> z q A P P q q z Z G P P G A f.F z P A S A } F ",
"z { A j q A G U A F e G A { Z A G G G D P | c 6 #.5 5 4 R @.1 > : $.@.8 7 5 8 =.$ F e G A { Z A G G G A P | F F r G F z k e e k ",
"z k z F U k Z Z A A Z A Z D A z Z F F Z Z F w @ @.#.5 5 #.@.: e * #.-.8 4 8 #.7 * A Z A Z D A z Z F F Z Z F e e G D Z k r e q j ",
"F x G F S S A Z k z e F k A z } e F F z D D e y ! ( -.#.-.1 > j ; 5 8 #.=.=.7 % u z e F k A z } e F F z D D e z G z j e e F k j ",
"Z z { F G z G Z Z e z Z e A z Z Z Z A z z z j e T ( d.T = y Z A x ; O &Xb.1 % c Z e z Z e A z Z Z Z A z z z z j Z z e l.} [ Z A ",
"k z A G k G A U Z Z G U P 0 Z F [ } G j Z G P c 8 d.! y A e F | k z , %X=X&X~ G A A F [ P 0 Z F [ } G j Z G P G G G G } F e F | ",
"j z z z z z k k ' U F { Z P S A G | } z G G u E g.<.* F e e F F j z z * d.-XE q ' P F { Z P S A G | } z G P z z z { G S e e F F ",
"j z q G Z z z 0 } A z Z U G k k z Z z D P z c 2 R.S.: [ D e A F j k q = OXC.< 0 } A z Z U G k k z Z z D P z Z z z z z [ D e A F ",
"z j 9 z F k G P A z Z z F Z Z Z k Z D j { z > / ,.* D  .A x e F z j 9 z : U.] u A z Z z F A Z Z k Z D j { z D Z z A D  .A z e F ",
"e q e Z k z k S F Z z e A e z z q e D D D Z ) -X*., D A z 0 e k e q e Z $ ,.xX{.y Z k e A r z z q e D D D D z z F q D Z z 0 e k ",
"A z z A Z z z G Z z z F G A } F k F c.G e q e e Z k k q Z r Z Z A z k A w &.*XOX> z z F G A } F k F c.G e q e e z k k q Z r Z Z ",
"[ F e F G A F Z j e [ G A | G e Z { | P x z D G A D Z z A A Z F [ S e G G A F Z j e [ G A | G e Z { | P x z D G A A Z z A A Z F "
};
