/* XPM */
static char *xpm_[] = {
/* columns rows colors chars-per-pixel */
"64 64 254 2 ",
"   c #0C0816",
".  c #0C0B25",
"X  c #191729",
"o  c #1A1B36",
"O  c #091338",
"+  c #251B2B",
"@  c #241D39",
"#  c #351531",
"$  c #1C2436",
"%  c #2A2629",
"&  c #362828",
"*  c #3E3125",
"=  c #2A2635",
"-  c #362A33",
";  c #393336",
":  c #460B17",
">  c #6D1115",
",  c #4F1633",
"<  c #791628",
"1  c #6D1130",
"2  c #4A3726",
"3  c #4E3A2A",
"4  c #473527",
"5  c #543E2C",
"6  c #583F2C",
"7  c #473835",
"8  c #523D31",
"9  c #4A282E",
"0  c #732B30",
"q  c #5E2E1B",
"w  c #56402E",
"e  c #5A422E",
"r  c #5D4431",
"t  c #5F4834",
"y  c #564237",
"u  c #514932",
"i  c #664B2C",
"p  c #6A5626",
"a  c #7B5C2B",
"s  c #73562B",
"d  c #614633",
"f  c #644935",
"g  c #694D36",
"h  c #664C38",
"j  c #6A4E39",
"k  c #6E513B",
"l  c #6C5234",
"z  c #745532",
"x  c #72543D",
"c  c #7B5B3C",
"v  c #775938",
"b  c #77433B",
"n  c #786133",
"m  c #6B5919",
"M  c #10185D",
"N  c #152B54",
"B  c #2D3452",
"V  c #2F334B",
"C  c #1F215E",
"Z  c #7A374D",
"A  c #552960",
"S  c #36476F",
"D  c #494958",
"F  c #4E4B51",
"G  c #6C5542",
"H  c #745641",
"J  c #765943",
"K  c #7B5B44",
"L  c #7D5D48",
"P  c #765B49",
"I  c #6D494A",
"U  c #7D614A",
"Y  c #7C764F",
"T  c #50556B",
"R  c #635A6A",
"E  c #6D6E6E",
"W  c #951514",
"Q  c #B2150D",
"!  c #8D322F",
"~  c #AC3736",
"^  c #9E2122",
"/  c #CC1002",
"(  c #E71A03",
")  c #E60700",
"_  c #D53A14",
"`  c #F62B03",
"'  c #CF183B",
"]  c #E53F31",
"[  c #87671B",
"{  c #9A791A",
"}  c #8F6E18",
"|  c #A37C19",
" . c #87503F",
".. c #B94237",
"X. c #886728",
"o. c #946D29",
"O. c #997727",
"+. c #866536",
"@. c #997634",
"#. c #8C732C",
"$. c #A17B23",
"%. c #B44A13",
"&. c #EF4F13",
"*. c #F96A1E",
"=. c #F37830",
"-. c #CE5D34",
";. c #C71D63",
":. c #805F49",
">. c #964A4F",
",. c #AA524B",
"<. c #A94E49",
"1. c #83634B",
"2. c #896A53",
"3. c #93735B",
"4. c #94724C",
"5. c #885070",
"6. c #906D76",
"7. c #AE6E6C",
"8. c #B85F64",
"9. c #CB5D4E",
"0. c #F37342",
"q. c #CA7A6A",
"w. c #E36A62",
"e. c #AA8618",
"r. c #B48D18",
"t. c #B99516",
"y. c #B5900D",
"u. c #93892E",
"i. c #A68327",
"p. c #A38533",
"a. c #B99534",
"s. c #C49B0B",
"d. c #C39D15",
"f. c #CBA50B",
"g. c #D2AD0C",
"h. c #DAB40B",
"j. c #C6A212",
"k. c #CAA414",
"l. c #CCA717",
"z. c #D9B613",
"x. c #D1AD11",
"c. c #E2BC0C",
"v. c #E3BC18",
"b. c #FF9930",
"n. c #EDB228",
"m. c #C7A82B",
"M. c #E9C60C",
"N. c #F2CD0C",
"B. c #F6D10D",
"V. c #EAC815",
"C. c #F2CC14",
"Z. c #F7D417",
"A. c #EFD21A",
"S. c #F6D827",
"D. c #F6DD35",
"F. c #EDCD20",
"G. c #FAE239",
"H. c #F9E22C",
"J. c #B78C47",
"K. c #918E5F",
"L. c #EF8E5A",
"P. c #FFA947",
"I. c #D48A78",
"U. c #FE9C71",
"Y. c #E7AE73",
"T. c #FAD44B",
"R. c #FAE447",
"E. c #FBE958",
"W. c #FFD362",
"Q. c #FAEA65",
"!. c #FCEE77",
"~. c #2C3290",
"^. c #00029D",
"/. c #304988",
"(. c #3D5BA2",
"). c #4B5A92",
"_. c #556593",
"`. c #6D7999",
"'. c #77798B",
"]. c #576AA2",
"[. c #526CAF",
"{. c #697AA9",
"}. c #6C7BAA",
"|. c #0026D6",
" X c #0033E7",
".X c #2463EC",
"XX c #6D71D0",
"oX c #8B66A5",
"OX c #A76FDC",
"+X c #DB448C",
"@X c #798AB8",
"#X c #7687B3",
"$X c #6F858C",
"%X c #7B93C4",
"&X c #4F8AFF",
"*X c #929094",
"=X c #AA9F92",
"-X c #9093AE",
";X c #9EA1AE",
":X c #B7B6B2",
">X c #BBA48D",
",X c #D79886",
"<X c #CB8F85",
"1X c #E5AD98",
"2X c #F6BAA4",
"3X c #DDAF9D",
"4X c #FDCE8F",
"5X c #FAEC88",
"6X c #FDF386",
"7X c #FDF596",
"8X c #FED4B6",
"9X c #F6C8A9",
"0X c #FDF7A9",
"qX c #FDF8B8",
"wX c #F8EFA6",
"eX c #C2C2B8",
"rX c #849AC8",
"tX c #909EC2",
"yX c #8AA1CE",
"uX c #95ABD3",
"iX c #98AED4",
"pX c #91A7D4",
"aX c #9CB3DA",
"sX c #91A6CE",
"dX c #B9BBC6",
"fX c #A6B9DB",
"gX c #AEB6CE",
"hX c #9BB1EB",
"jX c #A6BDE3",
"kX c #9384F7",
"lX c #B8C3D8",
"zX c #ACC3E8",
"xX c #B6C8E6",
"cX c #AFCAF4",
"vX c #CBCED8",
"bX c #F2D3C4",
"nX c #FEFAC7",
"mX c #FEFDDC",
"MX c #FEF7D2",
"NX c #FBE8CA",
"BX c #C7D4E9",
"VX c #CADDF5",
"CX c #D0D8EA",
"ZX c #DAE1EC",
"AX c #D8E6FA",
"SX c #DCF0FF",
"DX c #FFFFE4",
"FX c #FFFBEA",
"GX c #E3EBF5",
"HX c #EAF4FC",
"JX c #FFFEF5",
"KX c #FEFFFE",
"LX c #F6FCFF",
"PX c #ECE6E9",
/* pixels */
"L L 2 j k r d e w f j d e e e e v c z a X.X.@.O.e.e.t.t.d.j.j.j.l.l.y.t.t.e.e.{ X.X.+.z i i e 5 k k g r f r j f d e r e d e f g ",
"k k j f d r d 5 w e e d f e e g v c +.X.a O.a.t.l.j.x.h.h.h.c.c.h.h.g.x.j.d.t.e.{ o.X.a z i e f k j g d 4 g 2.j 1.f d e f 6 k h ",
"g d g x k 4 d k g x f 2 x k c i s a X.O.$.e.t.k.x.g.h.M.M.N.N.N.N.M.M.c.h.f.j.t.r.i.O.s +.+.c d e e e g f j r j g 5 6 6 r 5 j g ",
"r k x x 1.e d j d f L 5 c j z z +.X.o.i.r.t.j.x.z.V.V.A.Z.Z.Z.Z.N.N.N.M.c.h.x.d.r.e.i.[ @.+.z g v g j x H j j r k j x x j k t j ",
"r g d j 6 4 e d d r w e d d s +.#.o.O.e.y.j.g.c.V.F.S.D.G.G.G.S.S.Z.Z.N.M.c.g.f.y.y.| } o.X.z c c v j f f 6 h d j j x g d d 5 3 ",
"r d 6 r f e r 5 d e f g x v a a X.} { y.s.g.M.V.S.D.R.E.Q.Q.Q.E.R.G.D.Z.N.M.c.z.l.d.e.| $.O.a z l l e J x d r e f k f f h f r d ",
"k e r H j k k f 2 d j j j v X.+.o.} y.s.f.h.V.S.D.R.Q.!.6X7X7X6XQ.E.R.H.Z.N.C.h.s.y.y.e.| O.X.+.c f g h v d d r f k g L j r j K ",
"f r x h j k k x 6 x x K K v #.@.} | s.C.C.N.A.D.R.Q.5XwXqXqXqX0X7X!.Q.R.S.Z.V.h.f.s.y.e.| O.X.4.i c c d 6 d d k k :.H f j h G g ",
"d t 3.:.d d r f r k h L x c @.@.{ e.s.V.Z.Z.S.R.Q.6X0XnXmXDXDXmXnX0X6XQ.R.D.S.Z.Z.C.v.d.e.{ X.+.p v 1.K h 5 k k 1.f f d r r d k ",
"d w L H e r r r d k j x K c o.@.| r.s.N.B.Z.D.E.!.7XnXmXFXJXJXFXmXnX0X6XE.G.S.Z.Z.Z.S.S.n.r.[ X.s c c j U r h J 3.d d r r r H d ",
"f 5 k d j e f g r f j x x v @.@.e.t.f.c.M.A.G.E.5X0XMXDXJXKXKXJX*X:XqX7X!.R.G.Z.B.B.c.s.y.e.[ X.s v +.f r 5 k j k d r d 3 * g U ",
"t d j 2.H j x d e j r j x g p.p.{ t.f.c.V.A.D.Q.5XqXmXFXJXKXKXdX. *XMX0X!.E.G.Z.N.N.h.f.y.| o.+.i i l k t r j J d d e r 2.w H 2.",
"t k x j e d d r K j 5 r f d p.O.e.t.g.M.V.F.R.Q.5XqXmXJXKXKXdX'.R :XmXqX6XQ.G.Z.B.M.h.f.t.| @.a s i i 1.f j 6 r 3 K k H x d r t ",
"H j r e d 6 3 k g k L r r r O.O.t.j.h.M.V.F.R.Q.5XqXmXJXKX:XR LX'.:XmXqX6X#.p m m i p s.r.O.X.a v g x d d t x K d J H t t d 3 r ",
"x h r e f H r f H k H H r 5 i.i.t.k.h.M.V.F.m.Y 5XwXMXFXKXE ;XKXT eXMXK.k _.}.#X`.o [ d.e.[ +.+.c v H f 3 H k h f k f r d 5 4 k ",
"d 6 5 e j x d f k j d f d g a.a.m.l.x.c.M.V.p.X Q.5XqXMX=XT BXKXT % F _.-XSXKXSXT t.j.r.O.o.4.3.2.2.x k 6 x K t d d d d j f r d ",
"d 6 v 5 j d j h k g g 6 5 g i.O.e.t.j.z.z.z.R dXn !.7XqXE -XSXAXR T pXVXKXLXKXF f.g.d.e.} X.+.c g h h j 6 j j r r r k j d r x r ",
"e r d e g d L r j k d r r x @.X.{ e.t.j.x.k.D KX;Xl !.7XY *XAXzXZXAXHXLXGX#XvXy h.x.X.; o.#.+.f e r j r 3 w r e e j j d r r f 4 ",
"J g d 5 K f e 2 d k r r e x #.X.#.O.e.t.j.k.D LXKX-Xp Q.K.*XSXrXAXKXKXHX@X/.V f.g.{ = = X.+.c j r d g 5 6 j k f f j r 6 5 d e r ",
"x k d r 3 r 5 6 5 f r e f r #.a X.} } t.k.d.D VXBXKX;Xu.u.*XHX%XBXKXZX@XgX#X  y.e.'.dX% X.s v d d 5 5 e j k k k f 4.d k j k r d ",
"e G k r * e v k x r 3 f x x p p X.O.= #.k.j.D VXfXHXKX-X& ;XVXrXZXZX}.gXKX}.B = D KXvX% +.+.w 5 d d k x x k f :.j r x f g f K j ",
"r J f w 3 f k v f j 6 k f K a a #.O.$ V e.l.F GXyXfXLXHXGXxXyXpXCX-XgXxXBX}.BXKXHXKXvXX z +.f f k k k f x L j j 5 k j r e 6 5 e ",
"r e r j J e d d f f d f d g z s X.#.V sXD [ F HXaX%XlXVXpXiXuXiXyXBXxXyXBX}.CXKXVXxX;X& l l g r f j j d d j 6 6 k h d e 5 6 3 w ",
"j t k j j g f d e r 5 j r f i +.p X.= aXjXB D AXzX@X).yXfXuXiXiXuXiXuXuXCX}.gXBXAXvX  v e 8 e K 5 j j r h h 6 r k t w 6 6 j e w ",
"d r J j k r k d d 6 r d 6 f i g z a = sXzXjX#X{.uXrX_.#XrXjXuXiXiXuXiXyXBX}.%XAXKX*X2 i = ; r d d d f r r r r w d r 5 2.K H d f ",
"e r d k e k f v d d k v x 2 f k +.+.= jXjXfXuX].}.].tXvX].rXjXuXuXfXiXfXZX].#XlX'.  t ; ; 3 f j H K k w d k x k k k j K j 6 j L ",
"w r r r r r e e G v j J d x g g v 1.7 `.cXaXiXzXsX).].HXvX_.rXfXfXrX@XAXKX@X/.).S T o 7 d x g f k L K r k x r r r J k g 6 6 j j ",
"w r 3 k d r r 2 K f r d v x e e f g i & `.cXcXfXjX@X].zXKXvX_.yXiX].tXLXKXfX-XrXVX`.& d v x e e r d r h x r d r r r r H h 6 f j ",
"r w 4 r j e k x f r d r j f d f e f k e y T _.rXxX@X{.iXiXKXCX{./.rXLXlX@XBXAXsXT 4 d r j f d d e d h w J r h d r f h P f r 5 j ",
"6 3 5 d e r e g j d e 5 f 5 r r 3 e j ; ;   B [.@X].{.fXyXiXKXCX].(.GX@X_.gXHXGXX f e 5 h 6 r r 3 6 h h h h r r j 3 h d r 2 6 e ",
"f r r f d r r k d r r j k f K j e j 3.; % ; S S ].).%XzXiXyXiXKX'.R gX(.bX'.`.GXV t r j k f K j e j 3.k 5 3 5 6 r e e 3 d 5 d d ",
"H j 6 j k f j d w 5 H k f L k 6 d K L x t t 3 7 B V S pXzXaXpXcXV Y.-X-X*X).7 D = 5 H k f L k 6 d J L x t r h k f f d r f f d j ",
"L L 2 j k r d r w f j d e e e 5 k k g r f r j f 3 4 & o #XcXaXzXN >X<X8XF 7 d * X d j d r e e 5 k k g r f r j f d e r e d e f g ",
"k k j f d r d 6 w e e d d e 5 d k j j d 4 g 2.j 1.f d 3 ; B B B O Z 9X6.4 r d 5 3 e e d d e 5 d k j j d 4 g 2.j 1.f d e f 6 k h ",
"g d g x k 4 d k g x f 2 k k x e e e r j f j r j j 5 6 4 . : ! 0 ! ~ I 7 k 4 d k f x f 2 k k x e e e r g f j r j g 5 6 6 r 5 j g ",
"r k x x 1.e d j d f L 5 v g f d x g j x H j j y = + X 9 <.,.9.,...2XD   = = + d d f L 5 v g f d x g j x H j j r k j x k j k t j ",
"r g d j 6 4 e d d r w e r r r x x x j f f 6 t = <.<. .,XNX9X9X9X9XMXNX7.>.,.vXD d r w e r r r x x x j f f 6 h d j j x g d d 5 3 ",
"r d 6 r f e r 5 d e f f j x r d f g 6 J x d 7 # q.MX8XNXDXI.,XDXMX8XNXNX9Xw.PXD r e f f j x r d f g 6 J x d r w f k f f h f r d ",
"k e r H j k k f 2 d j j g k f k k d f f v r - ~ I.JX1XI.FXq.q.MXMX8.1X,X,.,.<.= 2 d j j g k f k k d f f v d d r f k g L j r j K ",
"f r x h j k k x 6 x x K K x j 1.3 v v e 6 r X 6.MXDXI.I.KXq.q.DXDX8.1XI.1XI.0 + 3 x x K K x j 1.3 J v r 6 d d k k :.H f j h H j ",
"d t 3.:.d d r f r k h L k v H v e k K J h 5 . 6.DX,X< 7.bX<X3XNX3X,.,X6.,XDX5.>.= k h L k v H x e k K J h 5 k k 1.f f d r r d k ",
"d w L H e r r r d k j x J v g x r H H h U 7 # 6.,X9 . b =.L.2X,X7.<X~ q I 1X7.vXV k j x J x g x r H H h U r h J 3.d d r r r H d ",
"f 5 k d j e f g r f j x x x x x r j K d r = 9.>.= 7 y g J.0.( =.nX4X0.=.7 , U.FX@ 8 j x x x x x r j K d r 5 k j k d r d 3 * g U ",
"t d j 2.H j x d e j r j j f J U 3 r d j y @ >.Z - d r 7 X _.8.W J.W oXS h ; >XAX~.+ r j j f J U 3 r d j t r j J d d e r 2.w H 2.",
"t k x j e d d r K j 5 r f r P d r r 5 1.r o ^.^.X H k G 6 ~. X X|.|.~.O e d   .X&X= 5 r f r J d r r 5 1.f j w r 3 K k H x d r t ",
"H j r e d 6 3 k g k L r r r d f j f j d r o A A 0 7 G ; o.4X-XoX-XiXU.%.& & E hXpX= L r r r d f j f j d r t x K h J H t t d 3 r ",
"x h r e f H r f H k H H r 3 x H H x H d 2 = -.>.9.<.o , -.T.&.( b.n.P.` : $X2XnX8X= H H r 3 x H H x H f 3 H k h f k f r d 5 4 k ",
"d 6 5 e j x d f k j d f r g 2.3.2.2.x j 5 - ,.5.>.9 M > &.W._ &.W.P.P.*.9 7.~ 8XMX= d f r g 2.3.2.2.x k 6 x K t d d d d j f r d ",
"d 6 v 5 j d j h k g g 6 5 g J H f h h j 5 7 7 y 7 - + Q &.W.&.*.=.=.P.4XV 7.8XMXE X g 6 5 g J H f h h j 6 j j r r r k j d r x r ",
"e r d e g d L r j k d r r k H r 6 r j r 3 w ; 4 7 V W ) =.P.Q ! -.&.=.MXvXE E R 4 y d r r k H r 6 r j r 3 w r e e j j d r r f 4 ",
"J g d 5 K f e 2 d k r r e k x j r r g 5 6 j j f 9 W W / _ ` > O ^ =._ L.U.:   & d k r r e k H j r r g 5 6 j k f f j r 6 5 d e r ",
"x k d r 3 d 5 6 5 f r w f r x r r 5 5 e j j t 9 Q 1 W ( ) Q # ; & %.=.&./ < , = 5 f r w f r x d r 5 5 e j k k k f 4.d k j k r d ",
"e G k r * e v k x r 3 f x x 3 3 r d k x x k 8 > / # 1 W < 1 @ y ; # _ ` / 1 1 W ; r 3 f x x 3 3 r d k x x k f :.j r x f g f K j ",
"r J f w 3 f k v f j 6 k f J d f k k k h x L y , Q 1 , , # W > ; - W W 1 < , 1 / + j 6 k f J d f k k k f x L j j 5 k h r e 6 5 e ",
"r e r j x e t d f f d f d g f r d j j d d j 3 o W Q , , Q W % 6 $ Q ( 1 , 1 Q < $ f d f d g f r d j j d d j 6 6 k h r e 5 6 3 w ",
"j t k j j g f t e r 5 j e f r K 5 j j r h h 5 7 M A ( Q ( > ; w = , 1 Q / / < @ 8 r 5 j e f r K 5 j j r h h 6 r k r w 6 6 j e w ",
"d r J j k r k d d 6 r d 6 f r d d d f r r r w 5 M A ;.C & 7 t f t = . XX5.> @ y d 6 r d 6 f r d d d f r r r r w d r 5 2.K H d f ",
"e r f k e k f v d d k v x 2 d j H K k w d k x y 1 ;.M 7 f 6 j L w r % .X+XXXN k f f j H x 2 d j H K k w d k x k k k k K j 6 j L ",
"w r r r r r e e G v j J d x g f k L K r k k 8 N >.] $ j 6 6 j j w r r $ ;.OXN 3 G H j J d x g f k L K r k x r r r J k g 6 6 j j ",
"w r 3 k d r r 2 K f r d v k e e r d r h x r y 2 H.u.= H h 6 f j w r 3 & [.w.: 2 K f r d v k e e r d r h x r d r r r r H h 6 f j ",
"r w 4 r j e k x f r d r j d d d e d h w J r ; Z ' $ h P f t 5 j r w 4 r - n.G 8 f r d r j d d d e d h w J r h d r f h P f r 5 j ",
"6 3 5 d e r e g j d r 5 f 6 r r 3 6 h h h d S OX^ % h f r 2 6 e 6 3 5 d + ' kX/.8 d e 5 f 5 r r 3 6 h h h h r r j 3 h d r 2 6 e ",
"f r r f d r r k d r r j k f K j e j 3.k 5 3 5 6 r r e 3 d 5 d d f r r f 4 ~ }.[.; t r j k f K j e j 3.k 5 3 5 6 r e e 3 d 5 d d ",
"H j 6 j k f j d w 5 H k f L k 6 d J L x t r h k f h d r f f d j H j 5 k k f j d w 5 H k f L k 6 d J L x t r h k f f d r f f d j "
};
