/* XPM */
static char *xpm_[] = {
/* columns rows colors chars-per-pixel */
"64 64 252 2 ",
"   c #050318",
".  c #130E14",
"X  c #241A1F",
"o  c #362B1A",
"O  c #0C0B25",
"+  c #181729",
"@  c #1A1B36",
"#  c #091338",
"$  c #251B2A",
"%  c #231D38",
"&  c #351531",
"*  c #1C2436",
"=  c #2B2429",
"-  c #362728",
";  c #3E3023",
":  c #2A2635",
">  c #3B2F32",
",  c #342833",
"<  c #383337",
"1  c #460B17",
"2  c #6D1115",
"3  c #46351C",
"4  c #48163A",
"5  c #571436",
"6  c #4C1925",
"7  c #791628",
"8  c #671535",
"9  c #700E2D",
"0  c #472829",
"q  c #453424",
"w  c #4A3726",
"e  c #42322D",
"r  c #4D3A2A",
"t  c #4B3827",
"y  c #543E2C",
"u  c #583F2C",
"i  c #473835",
"p  c #523E32",
"a  c #4E2834",
"s  c #732B30",
"d  c #6D2818",
"f  c #56402E",
"g  c #5A422E",
"h  c #544135",
"j  c #5D4431",
"k  c #5F4834",
"l  c #57443A",
"z  c #74582D",
"x  c #614633",
"c  c #644935",
"v  c #694D37",
"b  c #664C38",
"n  c #6A4E39",
"m  c #604739",
"M  c #6E513B",
"N  c #6D5232",
"B  c #72543D",
"V  c #73583A",
"C  c #6C4D30",
"Z  c #7D612C",
"A  c #706014",
"S  c #10185D",
"D  c #3B1345",
"F  c #152B54",
"G  c #2D3452",
"H  c #30334A",
"J  c #081970",
"K  c #1B3867",
"L  c #4F3845",
"P  c #7A374D",
"I  c #4E2F6F",
"U  c #62156B",
"Y  c #36476F",
"T  c #484859",
"R  c #4D4B54",
"E  c #6E5541",
"W  c #60544C",
"Q  c #745641",
"!  c #765943",
"~  c #7B5B44",
"^  c #7D5D48",
"/  c #765B49",
"(  c #6D494A",
")  c #7D614A",
"_  c #484C62",
"`  c #53576D",
"'  c #635A6A",
"]  c #6F7274",
"[  c #951514",
"{  c #BC180C",
"}  c #AD130E",
"|  c #841626",
" . c #8D322F",
".. c #AC3736",
"X. c #B02920",
"o. c #CC1002",
"O. c #E71A03",
"+. c #E60700",
"@. c #D53A14",
"#. c #F62B03",
"$. c #CF183B",
"%. c #E53F31",
"&. c #8F731B",
"*. c #A07F1E",
"=. c #B94237",
"-. c #866927",
";. c #977825",
":. c #836435",
">. c #9C672E",
",. c #A14629",
"<. c #EF4F13",
"1. c #F96A1E",
"2. c #C65B36",
"3. c #FA7D29",
"4. c #EF7534",
"5. c #DE6230",
"6. c #C71D63",
"7. c #974849",
"8. c #805F49",
"9. c #954D56",
"0. c #A34D46",
"q. c #AA524B",
"w. c #AF514D",
"e. c #83634C",
"r. c #846243",
"t. c #876651",
"y. c #8B6B53",
"u. c #876A55",
"i. c #93735B",
"p. c #906F54",
"a. c #885070",
"s. c #906D76",
"d. c #AE6E6C",
"f. c #B85F64",
"g. c #CB5D4E",
"h. c #F37342",
"j. c #CA7A6A",
"k. c #E36A62",
"l. c #B99816",
"z. c #A6861A",
"x. c #A68423",
"c. c #B18E25",
"v. c #978C27",
"b. c #C29F16",
"n. c #DAB70D",
"m. c #CEAB13",
"M. c #E2BE10",
"N. c #FF9930",
"B. c #F2AF2A",
"V. c #E9C70C",
"C. c #EECE16",
"Z. c #F2D82D",
"A. c #FAE334",
"S. c #B39249",
"D. c #B5B06E",
"F. c #EF8E5A",
"G. c #FFA747",
"H. c #FFB149",
"J. c #D68A77",
"K. c #CE8979",
"L. c #FE9C71",
"P. c #DAAF63",
"I. c #FCD24E",
"U. c #FAE753",
"Y. c #FFD362",
"T. c #FAEE7A",
"R. c #2C3290",
"E. c #00029D",
"W. c #304988",
"Q. c #3D5BA2",
"!. c #495B96",
"~. c #4E578A",
"^. c #55669C",
"/. c #55658B",
"(. c #6D7999",
"). c #77788B",
"_. c #576AA2",
"`. c #526CAF",
"'. c #697AA9",
"]. c #717EAA",
"[. c #6677AA",
"{. c #0026D6",
"}. c #0033E7",
"|. c #2463EC",
" X c #6D71D0",
".X c #8B66A5",
"XX c #DB448C",
"oX c #A76FDC",
"OX c #7383AB",
"+X c #798AB8",
"@X c #798CBD",
"#X c #6F858C",
"$X c #7B93C4",
"%X c #4F8AFF",
"&X c #928F8F",
"*X c #BBB093",
"=X c #9599A6",
"-X c #8995BA",
";X c #8E84AF",
":X c #9EA1AE",
">X c #B8AEA2",
",X c #D79886",
"<X c #CB8F85",
"1X c #E6AB96",
"2X c #E3B29D",
"3X c #F6BAA4",
"4X c #DDAF9D",
"5X c #FDCE8F",
"6X c #FAF299",
"7X c #FED4B6",
"8X c #F6C8A9",
"9X c #FDF3B2",
"0X c #849AC8",
"qX c #909EC2",
"wX c #8AA1CE",
"eX c #8CA4D1",
"rX c #95ABD3",
"tX c #98AED4",
"yX c #91A7D4",
"uX c #9CB3DA",
"iX c #96A8CB",
"pX c #B7BAC7",
"aX c #A6B9DB",
"sX c #AEB6CE",
"dX c #9BB1EB",
"fX c #A6BDE3",
"gX c #9384F7",
"hX c #B8C3D8",
"jX c #ACC3E8",
"kX c #B6C8E6",
"lX c #B3CCF5",
"zX c #A8C6F2",
"xX c #CBCED8",
"cX c #F2D3C4",
"vX c #FCE6C7",
"bX c #FFF8CB",
"nX c #FEF5D4",
"mX c #FAEACE",
"MX c #C7D4E9",
"NX c #CADDF5",
"BX c #D0D8EA",
"VX c #DAE1EC",
"CX c #D8E6FA",
"ZX c #DCF0FF",
"AX c #FFFFE3",
"SX c #FFF8E4",
"DX c #E3EBF5",
"FX c #EAF4FC",
"GX c #F6FCFF",
"HX c #FDFFFF",
"JX c #FEFEF2",
"KX c #ECE6E9",
/* pixels */
"^ ^ t n M j x g f c n x g g g y M B v j c j n c x g j g x g c v ^ ^ t n M j x j f c n x g g g y B M v j c j n c x g j g x g c v ",
"M M n c x g x y f g g x x g y x M n n x q v y.n e.c x g c u M v M M v c x g x u f g g x x g y x M n n x q v y.n e.c x g c u M v ",
"v x v B M q x M v B c t M M B g g g j v c n j n v y u u j y n v v x v B M q x M v B c t M M B g g g j v c n j n v y u u j y n v ",
"j M B B e.g x n x c ^ y B v c x B v n B Q n n j M n B M n M k n g M B B e.g x v x c ^ y B v c x B v n B Q n n j M n B B n M k n ",
"j v x n u q g x x j f g j j j B B B n c c u b x n n B v x x u y x v x n u q g x x j f g j j j B B B n c c u b x n n B v x x y r ",
"j x u j c g j y x g c c n B j x c v u ! B x j f c B v c b v C z z N g g c g j y x g c c n B j x c v u ! B x j f c M c c b c j x ",
"M g j Q n M M c w x n n v M c M M x c b B x x j c M n r.:.-.;.c.x.;.-.:.V B M c w x n n v M c M M x c b B x x j c M v ^ n j n ~ ",
"c j B b n M M B u B B ~ ~ B n e.r ! B j u x x M M r.:.-.x.l.n.n.n.m.b.x.-.V M B u B B ~ ~ B n e.r ! B j u x x M M 8.Q c n b E n ",
"x k i.8.x x j c j M b ^ M B Q B g M ~ ! v y M M e.N Z *.m.V.Z.Z.C.V.V.b.;.z x c j M b ^ M B Q B g M ~ ! v y M M e.c c x j j x M ",
"x f ^ Q g j j j x M n B ! B v B j Q Q b ) j v ! i.z ;.l.V.U.T.6XT.A.C.m.z.-.C j x M n B ! B v B j Q B b ) j v ! i.x x j j j Q x ",
"c y M x n g c v j c n B B B B B j n ~ x j y M n M Z z.n.Z.T.nXJX&XD.A.M.b.&.z v j c n B B B B B j n ~ x j y M n M x j x r ; v ) ",
"k x n y.Q n B x g n j n n c / ) r j x b k j n ! x -.l.M.I.6XJXpXO &XU.C.n.x.:.c g n j n n c / ) r j x n k j n ! x x g j u.f Q u.",
"k M B n g x x j ~ n y j c j / x j j y e.c n f j r x.b.V.A.6XpX).' *XU.C.m.;.N x ~ n y j c j / x j j y e.c n f j r ~ M Q B x j k ",
"Q n j g x u r M v M ^ j j j x c n c n x j k B ~ x ;.l.n.Z.S.' GX).D.A.V.l.3 $ = = , i j j j x c n c n x j k B ~ x / Q k k x r j ",
"B b j g c Q j c Q M Q Q j r B Q Q B Q c r Q m > c :.;.l.n.A =XHX` S.C.A 3 /.].OX(.@ i Q j r B Q Q B Q c r Q M b c M c j x y q M ",
"x u y g n B x c M n x c j v y.i.t.t.B M u B l + x z -.z.&._ MXHX` X ; /.-XZXHXZX` k x c j v y.i.t.t.B M u B ~ k x x x x n c j x ",
"x u B y n x n b M v v u y v ! Q c b b n u c ` pX= x :.;.3 =XZXCX' ` yXNXHXGXHX_ b v v u y v ! Q c b b n u n n j j j M n x j B j ",
"g j x g v x ^ j n M x j j M Q j u j n j r y _ HX:X= B z o =XCXjXVXVXFXGXDX+XxXH n M i : j M Q j u j n j r f j g g n n x j j c q ",
"! v x y ~ c g w x M j j g M B n j j v y u c T GXHX=XX g = &XZX0XCXHXHXFX+XW.H q x l : : g M B n j j v y u n M c c n j u y x g j ",
"B M x j r x y u y c j f c j B j j y r g n x T NXMXHX:Xe o &XFX$XMXHXVX+XsXOX  r q ).pX$ c j B j j y y g n M M M c p.x M n M j x ",
"g E M j ; g B M B j r c B B r r j x % l B n T NXaXFXHX=X- =XNX0XVXVX].sXHX].G : _ HXxX$ B B r r j x M B B M c 8.n j B c v c ~ n ",
"j / c f t c M B c n u M c ! x c M M * H b ^ T DXeXaXGXFXDXkXwXyXBX-XsXkXMX].MXHXFXHXxX+ c ! x c M M M c B ^ n n y M n j g u y g ",
"j g j n ! g x x c c x c x v c j x n H rXT r R FXuX$XhXNXyXtXrXtXeXMXkXeXMX].BXHXNXkX=X= x b c j x n n x x n u u M b x g y u r f ",
"n k M n n v c x g j y n g c j ~ y n : uXfXG _ CXjX+X!.wXfXrXtXtXrXtXrXrXBX].sXMXCXxX. n p p j ~ y n n j b b u j M j f u u n g f ",
"x j ! n M j M x x u j x u c j x x x : eXjXfX+X[.rX0X^.OX0XfXrXtXtXrXtXeXMX].$XCXHX&Xe x : > j x x x c j j j j f x j y y.~ Q x c ",
"g j x M g M c B x x M B B w x n Q ~ : fXfXaXrX_.'.^.qXxX^.0XfXrXrXaXtXaXVX_.].hX).. h < < w x n Q ~ M f x M B M M M n ~ n u n ^ ",
"f j j j j j g g E B n / x B v c M ^ < (.lXuXtXjXeX!._.FXxX^.0XaXaX0X@XCXHX+XW.!.Y ` @ i x B v c M ^ ~ j M B j j j / M v u u n n ",
"f j r M x j j w ~ c j x B M g g j x j = (.lXlXaXfX@X_.jXHXxX^.wXtX_.wXGXHXaX-X0XNX(.- x B M g g j x j b B j x j j j j Q b u c n ",
"j f q j n g M B c j x j n x x x g x v f p ` /.0XlX@X[.tXtXHXBX[.W.0XGXhX+XMXCXiX` ; x j n x x x g x v f ! j b x j c b / b j y n ",
"u r y x g j g v n x g y c y j j r u b < >   K `.@X_.'.aXwXtXHXBX_.Q.DX+X/.sXFXDX+ x g y c y j j r u b b b b j j n r v x j w u g ",
"c j j c x j j M x j j n M c ~ n g n p.< = > Y Y ^.!.@XjXtXwXtXHX).' sXQ.cX).(.DXH k j n M c ~ n g n i.M y r y u j g g r x y x x ",
"Q n u n M c n x f y Q M c ^ M u x ! ^ B k j r i G H Y yXjXuXyXlXH J.-X;X&X!.i L : y Q M c ^ M u x ! ^ B k j b M c c x j c c x n ",
"^ ^ t n M j x j f c n x g g g y M M v j c j n c r w - @ OXlXuXzXF *X<X7XW L x ; + x n x g g g y M M v j c j n c x g j g x g c v ",
"M M n c x j x u f g g x x g y x M n n x q v y.n e.c x r > G G G # P 8Xs.> j x y r f g x x g y x M n n x q v y.n e.c x g c u M v ",
"v x v B M q x M v B c t M M B g g g j v c n j n n y u e O 6  .s  ...W i M q x M c B c t M M B g g g j v c n j n v y u u j y n v ",
"j M B B e.g x n x c ^ y B v c x B v n B Q n n h : $ + a 0.q.g.w.=.3XR . : : $ x x c ^ y B v c x B v n B Q n n j M n B M n M k n ",
"j v x n u q g x x j f g j j j B B B n c c u l : 0.0.7.,XvX8X8X8X8XnXmXd.7.q.xXT x j f g j j j B B B n c c u b x n n B v x x y r ",
"j x u j c g j y x g c c n B j x c v u ! B x i & j.nX7XvXAXJ.,XAXmX7XvXvX8Xk.SX_ j g c c n B j x c v u ! B x j f c M c c b c j x ",
"M g j Q n M M c w x n n v M c M M x c b B j , ..J.JX1XK.AXj.j.nXmXf.2X,Xq.w.0.: w x n n v M c M M x c b B x x j c M v ^ n j n ~ ",
"c j B v n M M B u B B ~ ~ B n e.r B B g u j + s.nXAXJ.J.HXj.j.AXAXf.2XJ.1XK.s $ r B B ~ ~ B n e.r ! B j u x x M M 8.Q c n b Q n ",
"x k i.8.x x j c j M b ^ M B Q B g M ~ ! v y O s.AX,X7 d.cXK.2XvX2Xw.,Xs.,XAXa.9.: M b ^ M B Q V g M ~ ! v y M M e.c c x j j x M ",
"x f ^ Q g j j j x M n B ! B v B j Q Q b ) i & s.1X6 O n 4.F.3X,Xd.<X=.d ( 1Xd.xXH M n B ! V v B j Q Q b ) j v ! i.x x j j j Q x ",
"c y M x n g c v j c n B B B B B j n ~ x j , g.7., i h n S.h.O.4.bX5Xh.4.i 6 L.SX% p n B B B B B j n ~ x j y M n M x j x r ; v ) ",
"k x n y.Q n B x g n j n n c / ) r j x n l % 9.P , x j i + /.f.[ S.[ .XY b > *XCXR.$ j n n c / ) r j x n k j n ! x x g j u.f Q u.",
"k M B n g x x j ~ n y j c j / x j j y e.k @ E.E.+ Q M E u R.}.}.{.{.R.# g x . |.%X: y j c j / x j j y e.c n f j r ~ M Q B x j k ",
"Q n j g x u r M v M ^ j j j x c n c n x j @ I I s i E < >.5X;X.X;XiXL.,.- - ' dXyX: ^ j j j x c n c n x j k B ~ b / Q k k x r j ",
"B b j g c Q j c Q M Q Q j r B Q Q B Q c t , 2.7.g.0.@ 6 2.I.<.O.N.B.H.#.1 #X3X9X7X: Q Q j r B Q Q B Q c r Q M b c M c j x y q M ",
"x u y g n B x c M n x c j v y.i.t.t.B n y , q.a.7.a # 2 <.Y.@.<.Y.G.G.1.0 d...7XnX: x c j v y.i.t.t.B M u B ~ k x x x x n c j x ",
"x u B y n x n b M v v u y v ! Q c b b n y i a L i > $ } <.Y.<.1.4.4.H.5XH d.7XbX] + v u y v ! Q c b b n u n n j j j M n x j B j ",
"g j x g v x ^ j n M x j j M Q j u j n j r f > e i < [ +.4.N.} | 5.<.3.bXxX] ] ' e h x j j M Q j u j n j r f j g g n n x j j c q ",
"! v x y ~ c g w x M j j g M B n j j v y u n M c 0 [ | o.@.#.2 # X.3.@.F.L.1   - x M j j g M B n j j v y u n M c c n j u y x g j ",
"B M x j r x y u y c j f c j B j j y y g n M k 0 } 9 | O.+.} & < - X.3.<.o.9 4 , y c j f c j B x j y y g n M M M c p.x M n M j x ",
"g E M j ; g B M B j r c B B r r j x M B B M h 2 { D 8 7 7 8 % h < & @.#.o.8 8 [ > j r c B B r r j x M B B M c 8.n j B c v c ~ n ",
"j / c f t c M B c n u M c ! x c M M M v B ^ l 6 { 5 5 4 D [ 2 > < | [ 9 7 5 9 o.$ n u M c ! x c M M M c B ^ n n y M b j g u y g ",
"j g j n V g x x c c x c x v c j x n n x x n r @ [ } 5 5 } [ , u * } O.9 4 8 { 7 * c x c x v c j x n n x x n u u M b j g y u r f ",
"n k M n n v c x g j y n g c j ~ y n n j b b y i J U O.{ O.2 < f : 5 9 } o.o.7 % p j y n g c j ~ y n n j b b u j M j f u u n g f ",
"x j ! n M j M x x u j x u c j x x x c j j j f y S U 6.S - i k c k : O  Xa.2 % h x u j x u c j x x x c j j j j f x j y y.~ Q x c ",
"g j c M g M c B x x M B B w x n Q ~ M f x M B l 9 6.J i b u n ^ f j = |.XX XK M c c n Q B w x n Q ~ M f x M B M M M M ~ n u n ^ ",
"f j j j j j g g E B n / x B v c M ^ ~ j M M p F 9.%.* n u u n n f j j * 6.oXF r E B n / x B v c M ^ ~ j M B j j j ! M v u u n n ",
"f j r M x j j w ~ c j x B M g g j x j b B j h 3 A.v., Q b u c n f g r - `.k.1 w ~ c j x B M g g j x j b B j x j j j j Q b u c n ",
"j f q j n g M B c j x j n x x x g x v f ! j < P $.* b / b k y n j f q j , B.W h c j x j n x x x g x v f ! j b x j c b / b j y n ",
"u r y x g j g v n x g y c y j j r u b b b x Y oXX.= b x j t u g u r y x $ $.gXW.i x g y c u j j r u b b b b j j n r v x j w u g ",
"c j j c x j j M x j j n M c ~ n g n i.M y r y u x g g r x y x x c j g c e ..].`.> j j n M c ~ n g n i.M y r y u j g g r x y x x ",
"Q n u n M c n x f y Q M c ^ M u x ! ^ B k j b M c b x j c c x n Q n u M M c n x f y Q M c ^ M u x ! ^ B k j b M c c x j c c x n "
};
