/* XPM */
static char *_015887cc91f4f6ef40f09b3ad87c255MgeHdZ24KqJVgxPZ[] = {
/* columns rows colors chars-per-pixel */
"64 64 247 2 ",
"   c #010101",
".  c #0A0504",
"X  c #0C0907",
"o  c #04040A",
"O  c #05090C",
"+  c #0A0A0C",
"@  c #080507",
"#  c #130D0A",
"$  c #170604",
"%  c #15100C",
"&  c #1B130E",
"*  c #1C190C",
"=  c #0A0B14",
"-  c #0E1114",
";  c #07161A",
":  c #121314",
">  c #1D1611",
",  c #13161A",
"<  c #15191D",
"1  c #1B151F",
"2  c #06110F",
"3  c #250904",
"4  c #270616",
"5  c #231A13",
"6  c #2A1E16",
"7  c #211915",
"8  c #361A16",
"9  c #300F0C",
"0  c #2D221A",
"q  c #34261B",
"w  c #39271A",
"e  c #322203",
"r  c #1A1D24",
"t  c #161920",
"y  c #051B27",
"u  c #3F1E2E",
"i  c #321930",
"p  c #1E232A",
"a  c #1B2227",
"s  c #002130",
"d  c #252729",
"f  c #3E2D21",
"g  c #372724",
"h  c #3F3021",
"j  c #3E322A",
"k  c #242B33",
"l  c #282E39",
"z  c #2A313B",
"x  c #343534",
"c  c #46100B",
"v  c #67171A",
"b  c #741A1A",
"n  c #6E120B",
"m  c #4F321A",
"M  c #720027",
"N  c #422A26",
"B  c #453324",
"V  c #4A3727",
"C  c #4C3927",
"Z  c #4A3728",
"A  c #4E3A2A",
"S  c #543E2C",
"D  c #583F2B",
"F  c #543521",
"G  c #47373A",
"H  c #78253C",
"J  c #65342F",
"K  c #592421",
"L  c #3F4E35",
"P  c #56402E",
"I  c #5A422E",
"U  c #4A423F",
"Y  c #5D4431",
"T  c #5E4834",
"R  c #564338",
"E  c #614633",
"W  c #644935",
"Q  c #694D37",
"!  c #664C38",
"~  c #6C4F3A",
"^  c #6A4E39",
"/  c #694436",
"(  c #6D513A",
")  c #6F513D",
"_  c #6D513B",
"`  c #71533D",
"'  c #72543E",
"]  c #75563F",
"[  c #72543D",
"{  c #73583F",
"}  c #75432B",
"|  c #674604",
" . c #353B46",
".. c #302B47",
"X. c #1C1A49",
"o. c #472C5A",
"O. c #542B4F",
"+. c #692948",
"@. c #7B2C43",
"#. c #6A3654",
"$. c #783255",
"%. c #6C374A",
"&. c #493367",
"*. c #703867",
"=. c #37414E",
"-. c #3B4553",
";. c #3E4958",
":. c #25485D",
">. c #1F4475",
",. c #2E4B79",
"<. c #484648",
"1. c #4A4A50",
"2. c #6E5441",
"3. c #645443",
"4. c #745641",
"5. c #765942",
"6. c #7B5B44",
"7. c #7D5D48",
"8. c #765B49",
"9. c #7D614A",
"0. c #72644B",
"q. c #766654",
"w. c #4A4D6F",
"e. c #6F4E6F",
"r. c #6B6D6B",
"t. c #B9150B",
"y. c #BC2714",
"u. c #8E092C",
"i. c #982938",
"p. c #932B2F",
"a. c #A62828",
"s. c #B62C2B",
"d. c #B9323B",
"f. c #AB3331",
"g. c #CB311D",
"h. c #E53F15",
"j. c #C52A26",
"k. c #D03530",
"l. c #955532",
"z. c #904D2F",
"x. c #AD4C29",
"c. c #B06736",
"v. c #8B411A",
"b. c #FF531C",
"n. c #F3431C",
"m. c #C94C2B",
"M. c #C94838",
"N. c #D94933",
"B. c #D4512D",
"V. c #F34C28",
"C. c #F95737",
"Z. c #EE4D2D",
"A. c #FF6428",
"S. c #FF6B36",
"D. c #FE643A",
"F. c #FF6E3B",
"G. c #FC6535",
"H. c #FF723A",
"J. c #FF7A3B",
"K. c #FF7235",
"L. c #FF7623",
"P. c #CC4C18",
"I. c #853848",
"U. c #97334D",
"Y. c #A83848",
"T. c #B3364A",
"R. c #C73C43",
"E. c #CD3D54",
"W. c #815F47",
"Q. c #805E4A",
"!. c #86565F",
"~. c #AC5A4E",
"^. c #B25251",
"/. c #83644D",
"(. c #816140",
"). c #876751",
"_. c #8B6B53",
"`. c #866A54",
"'. c #916E51",
"]. c #93735B",
"[. c #956E53",
"{. c #B07251",
"}. c #9C626D",
"|. c #9D4D7B",
" X c #CB5045",
".X c #FE5A46",
"XX c #CA7350",
"oX c #EC774F",
"OX c #F34565",
"+X c #C47C65",
"@X c #738269",
"#X c #D5AA3A",
"$X c #B59075",
"%X c #898169",
"&X c #EE8B54",
"*X c #F5A54F",
"=X c #D18B6E",
"-X c #E49666",
";X c #E69E72",
":X c #FAAA75",
">X c #FEB77C",
",X c #F6A873",
"<X c #FFC17E",
"1X c #4B3E8A",
"2X c #134A89",
"3X c #325290",
"4X c #396095",
"5X c #4C508F",
"6X c #754D88",
"7X c #55689A",
"8X c #6D6E94",
"9X c #5556AB",
"0X c #4A71A4",
"qX c #3A7FCC",
"wX c #3358E3",
"eX c #4773F2",
"rX c #5B6CD0",
"tX c #886CAA",
"yX c #AF7583",
"uX c #6D86B4",
"iX c #758691",
"pX c #569CEB",
"aX c #B8A483",
"sX c #A78FB9",
"dX c #9AAABA",
"fX c #979CAC",
"gX c #D1A789",
"hX c #E7B186",
"jX c #FCB98B",
"kX c #F5BC91",
"lX c #F8BFA3",
"zX c #C69F9D",
"xX c #F9C496",
"cX c #FFDA9B",
"vX c #ECC29A",
"bX c #FECDA2",
"nX c #F5CCAA",
"mX c #FFE5B9",
"MX c #FFEEAD",
"NX c #CDC2B3",
"BX c #B9ACE3",
"VX c #A3C6D5",
"CX c #DCDFDD",
"ZX c #FFEEC0",
"AX c #FFFCC9",
"SX c #FFFFD5",
"DX c #FBFFF9",
/* pixels */
"7.6.C ( ( E E I P W ^ E I D I S [ ( Q E Q I ~ W E D Y E E I W Q 7.7.C ( Q E E I I W ^ E D I I S ( ` Q E ! Y ~ W E D Y E E D / ^ ",
"( ( ^ W E I E P P I P E W I S E ( ( Q E B ( _.~ /.W E D W D ( Q ( ( Q W E Y E P S D I E E I P E Q ( Q E V Q _.~ ).W W D W S ( W ",
"Q E ^ [ ( B E ) W [ W C [ ( ` I I I I ^ W Q Y ( ! S S S R S Q Q Q E Q ] ( B E [ Q ` W V ' ~ ` I I I I Q Q Q Y ( ! S S S I S ^ ^ ",
"I ( ( [ /.I E Q W W (.S ] Q W W ( Q ( [ ] ( ^ I ~ ^ 4.' ^ ^ T ! I ( [ ( U * % * E W 7.S ] ^ W W ] Q Q ] 4.Q Q Y ~ ^ 4.~ ! ( Y ^ ",
"E Q E ^ D B I Y E E P I E Y E [ [ ] ^ W W P Q E ~ ~ ' Q E E S S Y T j <.:   & 5 Y Y I P E I Y ' [ ] Q Q E I Q E ~ Q ' Q W E S A ",
"Y E P I W I I S E Y W W Q ( Y E E ^ D ] ' W I P W ) W Q / W R W S > k < . w I S E I W ^ Q [ Y E E Q P { ` W I I / ) W W ! W Y W ",
"( I I ' ^ ( ` W V E ( ( Q ( Q ( ( E W ! ' E T T ! ~ Q W.~ Y ! ^ 7 k t   & ) ) W C W ( ( Q ( W ) Q E E W ] E E E ! ( ~ W.~ Y ! 6.",
"W I { ^ ^ ( ( ` S ] ] 6.] [ Q /.C 5.] Y D E W ( ) W.5./ Q ! T >  .k   @ q Q S S f S S Y ] [ ( /.P ] ] E D E E ( ` W.4.! Q ! 2.Q ",
"W T ].7.E E Y W E ( ^ 7.` ] ] ] I ( 6.6.W S ( ( ).W W E Y Y > p -.<   q Y f + = - - - - Z 4.4.4.I ( 6.] ! P ( ( /.Q W E Y Y E ' ",
"E R Q.4.D Y Y Y E Q Q ` ] ] ^ ' Y 4.] W 9.I ! 5.].W W Y T P 1 l a     g V = =. .z z z l - Z W ' I { { Q 9.P ! 5.].E W R Y Y ' W ",
"! S ~ / ^ D / ! I Q Q ( ) ) ) ' T Q 6.T T P ( ! _ T T W C % p ;.<     , -. . .z o   O + z < B ) T Q 6.T T P ( ! ) W T W A h W 9.",
"E E ~ _.4.~ ) E I ( E ^ ( W 6.9.A I E ( Y Y ! 5.W T I T `.& k 1.t     - -.k         k  .O p t A A Y T Q T P Q 8.W T Y Y `.P 4.`.",
"Y ~ 4.! D E E E 6.Q S Y W Y 8.T Y Y I /.! ! P Y A 6.2.4.' 5 p ;.t     < l o     O k - + Z R 3.I E I I /.W Q S Y C 8.) 4.2.W Y T ",
"4.Q Y D W S S ~ Q ~ 8.R Y Y E W ! W Q E Y T ' 6.W 8.2.> X     O               O l + ^ S Y Y W W ^ E ( E E T ' 6.! 6.4.E T W A Y ",
"4./ E D W ] E ! 4.' 4.4.Y S ' 4.4.' A # 5 { ) ! W ) 6                           - T ] 2.Y A ' 5.4.' ' W Z 4.( ! W ) E Y T S V _ ",
"E D S Y ~ ` E W ' Q W E Y ! _.].).).Y 6   & 7 <.E Y .             - =.r   + z k k <.<.& Y ! ).].).).( ) D ] 4.T E Y W W ! W Y Y ",
"Y P ] P Q E ( Q ) Q W D S Q 4.4.W ! ! ) 5     r G > X   , z =   , p p k r   p -.< <  .k  .g ~ 4.W Q ! ~ S ^ Q I E Y ) Q W Y ) Y ",
"I Y T I Q E 7.I Q ~ W T Y ~ 4.E S E ! Y A w     , p O , =.z +   z z   O k p   t t   - p r d d A S Y ! R A I Y Y D ~ ~ E T T W B ",
"5.^ E P ] Q P C E ( Y I D ~ 4.f 7 6 j <.<.R ,      .- k ;.+       o     O k ;   p p       r - . I E ! D S Q ( W ! ~ Y D S W D Y ",
"' _ E I A Y C P S W Y D W T ' q &   + r r l -.p d =.+ k ;.-   m l.l.8     O l     p k 0 0 6 q 5 E S S I ^ ( ( ( W '.E ) Q ~ Y W ",
"I 2.( T h I ] ( ` E S W ` ` A A Y S 0 5     a k k a   , -.,   F z.v.z.F   0 W       k E ) ` S A I W ( [ ` ( Q 7.( Y ' W Q ! 6.! ",
"T 5.! P C W ( ] W ! S ~ Q 4.E W ' ( ( ! q q             r y     l w.} l.d 3 -X        Y Q 5.E W ` ~ ` W ] 6.~ Q S ) ! Y P S S I ",
"P P P ( ] I E E W ! W W W / Q Y E ~ I w B V         w     S d 4 zXCXiX0.=Xq.vX. &     S W ! Q Y E ^ ^ W E ( I P ( Q I I S P C P ",
"_ T ( Q ^ ^ Q E S Y S ~ I W Y 6.S ^ B               XXJ @ l.].%.3.2 dXDX-XAXhX  Y #   S D W I 6.S Q ^ Y W W S Y ) Y P P S ! Y P ",
"T Y 5.! ( Y ( W E P I W D W I E E E W Y V X X       {.,X8 } &X&X[.x dXDXcXkXl.# E I # C S W Y E E T ! T Y T Y P ! P P _.{ 4.W W ",
"P T T _ I ~ W ] W E ( ] ` Z W Q ' 6.) P T ) _       c.&X4.~.&XjX;X-XbXkXmXgX. 4.E E ( ' ` C E Q ] 6.) P T _ { ) ! ( ! 6.( P Q 6.",
"P T T I Y Y Y D 2.] Q 6.E ` Q W ) 6.6.I ) { I P P X % $ * (.oXjXmXhXXX-XZX$X# I ) 4.Q 4.E ' ^ W ( 7.5.I _ { Y Y T 5.( ^ P S Q _ ",
"P P P _ E Y Y B 6.W I E ` ' I D T E Y ! { I ! I I I I % $X! v jXmXnXjXmX$X& I V 7.! Y E ] ( I I Y E Y ! 2.Y ! Y Y Y T 2.! S W ( ",
"I P B Y ! D ' 4.Q Y E Y Q W E W I E Q P 4.T W E Y W 6   vX3.$ XX>XmXmXlXN # ) ` ! T E Y ^ W E W I E Q P 5.T ! E Y W ! 8.! Y S ! ",
"P P S T Y Y D ! ^ W I S ! S Y Y C P Q ! ! Y # . % #   u }.+ J {.@.!.e.^.B.z.$ 7 Q E Y S W I I I C P ! ! ! ! I Y ( C Q W R V S Y ",
"W Y I W T Y Y 2.W T R ~ ~ W 4.~ I Q ].) P h O 3X,.  ].-Xx.$XT 7.NX{.v !.>Xb.P.x.5 Y Y Q ( W 6.Q P ^ ].) S A S P Y I I A E S Y E ",
"2.^ P ( ~ W ~ E S S 4.' W 7.' D E 5.7.` T C ; pXqX  hX,X,XbX@ 0.SXcX>X$X=X:XzXG.$ S 4.( W 7.` S E 5.9._ T T ! ( W Q E Y W ! E ~ ",
"(.6.C Q ( E E I I W Q E I P P D ( ' Q Y Q I # NX$Xi gXvX;XjX8 :.VXdXVXfX6XpXuXn.@ 6 Q W D D I S ( ` ^ E W Y ~ W E Y Y Y E D / Q ",
"_ ( Q W E I E P S I I E E I P E ( Q ^ E f q g +XyX9XvXAXxXMXU o 5X2X,.4X4X2X8XxXQ.  D E E Y S W ( Q ^ E V Q _.~ Q.W W D W D ( Q ",
"^ E Q ] ( B E _ Q ] E C [ Q [ Y I I Y ^ B & ~.}.wXeXBX].r.@Xu t.m.w.>.G ..i r.DXSXF g Z 4.~ ' I E I I Q ^ Q Y Q ! S S S Y S Q ! ",
"I [ ( [ /.I E ^ E E W.D ] Q Q E [ ^ Q ' S 9 >XmXsXtX1X3 c 9 a.C.A.oX0X2X4X,.l ,.jX*XW.g ) Q W E [ Q Q ` 4.~ Q Y ~ ~ 4.) ! ( Y ( ",
"I Q E Q D B I Y E Y I P Y I E [ [ ] Q W B g AXSXmXc.* n s.a.y.t.Z.L.oXuXfXr.o e z.+XnXd C I Y ' [ [ Q Q E I Q E ~ ~ ) Q T E S A ",
"E E P T W I I S E Y W Q ( ( Y E E Q P ] Y 0 $XaX$X< ! w 5 @ +.|. Xb.V.b.A.y.& l.  X.1X= I [ Y E E Q P { ` W I I W ) / Q ! W Y ! ",
"( I I { ^ ` ` Q C E Q ( Q ^ W ( ( W Q W ] Y X X # ) ( 7.^ 5 2XpX6Xt.i.a.s.b     # 1 &.1 I ( W ( Q E W Q ] E E E Q ( Q W.~ Y ! 6.",
"Q I [ W ^ ~ ~ ( S ` ] 6.6.` ~ /.C ] ] I D W W ~ ) (.] Q J i O.e.&.3X5X5X&..   9 &XcX: ! ] ` ~ /.P ] ] I D E E ( ~ W.4.! ! ! 2.Q ",
"E Y ].Q.E E Y W E ~ ! 7.) ' ' ] I ( 6.] Q P Q ( ).W W E & x.V.t.tXeXrXeXtXn . XX:XxX- 2.( ] 4.] I ( 6.5.Q P ( _ /.! W E Y Y W ~ ",
"W P 7.4.Y Y Y Y E ~ ~ 4.6.4.Q ` I ] { Q 9.Y ! 4.].W W Y & x.C.k.G. XN. X^.B.. w hXq Y ) 6.4.Q ' I { ' Q 9.P ! 5.].W W Y R Y 4.W ",
"Q S ) W ^ D W / Y W Q ' ` ` ( ' E ^ 6.T P P ( Q 2.Y E > x.Z.N.F.K.n.n.M.I.H.m.  > I ^ ( ' ) ) ' T Q 6.T T P _ ! ) T Y W A h Q 7.",
"Y T Q _.4.! 4.E Y ~ Y Q ~ W 8./.C E E ^ T T ! 5.W E 5 v C.G.C.S.K.N.Z. X%.J.G.O C ~ I ^ Q W 6./.A Y T Q T P ! 5.W W Y T `.P 4.`.",
"E ) ~ ^ E E E Y 6.Q A D W Y 8.E E Y S /.! Q P T A 7.X m.F.S.S.C.H.N.j.i.I.F.C.b q ! S I E Y 8.E E I I /.W Q S Y C 8.) 4.) W Y T ",
"4.! Y D E S A ) ^ ) 7.Y T I E W ^ W Q W T T _ 5.W 5 b G.H.G.K.N.k.T.+...I.S.H.Z.. Q 7.R R Y E W ^ E ( E E Y 4.6.W 6.4.T T W A Y ",
"4.! E D W 4.D ~ 4.) 4.4.Y A ' 4.' ' ' W A { ( Q 5   a.G.S.H.N.C.y.6 J ^.f.F.F.G.. ) 6.2.Y S ' 4.4.' ' W A 4.~ ! W ) E Y T S V _ ",
"W S S Y ~ ' / ! 2.^ W W Y Q `.].).).' ( S ' 8.* b u a.A.&XN.C.m.h 6 n A.V.N.J.F.u 6 W W Y Q ).].).).( ) D ` 5.T E T W W ! W Y T ",
"E D ] S ( E ^ Q ) ^ W I S Q ] ] W ! Q ^ S E 8 v Y.$.f.N.Z.k.s.0 Y N 4 Y. XZ.V.Z.I.c q S D Q 4.4.W ! ! ~ S Q ~ Y Y Y 4.! W Y ' Y ",
"I I E I Q W 7.I ! ( W E I ` ] Y S E ! Y S B 3 k.#.O.j.j.i.U.+ q I 8 i &.#.R.i.H $.k.$ Z I ~ 4.E S E ! Y A I Y Y D ~ ~ E Y E W B ",
"] ( E S ] Q P V W ( Y I Y ~ ' ! I E ^ S S Y 3 s.$.O.i.f.O.$.8 q 5.q i U.@.o...o.U.T.. Z D ' 4.! Y Y ! S S Q ( W ! ~ Y D S E D R ",
"[ _ E I C E C P A W Y P E Y ' E E S C I ! S $ T.i.O.o.o.@.R.c q ) A - H T.i.I.Y.T.u > A W Y ) E E S S I ^ ( ~ ( W '.E ~ ^ ` I W ",
"I { { T h P ] ( ` Y A E ' 4.A A Y W ( ' ` I - O.U.I.@.U.T.H < C I 2.A - +.d.y.p.u 4 Z E ' 4.A A I E ( ] ` ( ^ 7.^ E ' W ^ W 6.^ ",
"Y 5.T P C T ( ] Q ~ S ' W 4.W W ) ( ( Q ] 7.W O 0XR.j.s.+.= w I Y 6.! B y *.u.o # 2.S ~ / 5.E W ` ~ ` W [ 6.Q ( S ( ! Y P S C I ",
"Y P Y _ { I E W W W E E E Q / Y W Q ( E E Q A 2 0XOXtXs . N C P R P Y C y *.M # / W W W E ! Q Y W ^ ^ E E ( S P ( Q I I S P C P ",
"! T _ ! ^ Q Q T Y D S Q Y W Y 6.A Q ( Y W Q A o 7XOX8Xs N ^ I P ! T ^ Z p  .+ T P D S ~ D Q D 6.S Q ^ Y W Q S Y ( Y P P P ( I P ",
"T Y 5.Q ( Y ) E E S E E S W I W E E W T Y Y A $ E.e.; ) 8.4.W ! ! Y { V e | # / E S Y W D W Y E E E ! T Y Y Y P ! P P _.{ 4.T ! ",
"P Y ! ( I ~ Q 4.W W ( ` ` V W ^ 4.6.) P W T < #X#X- V 8.~ S ! 7.P Y ! V ; 2.M + # E ~ ` ` V W Q ] 5.) P T _ { ) ! ( Q 6.( P Q 9.",
"P T T Y Y Y Y S 2.] ^ 5.E ' Q W ' 6.5.Y ) W $ .Xm I ^ ~ D S ! ~ P T I h ; w.#.M M $ ! 4.E ' Q W ) 6.6.I _ 2.T Y T 8.( ^ I S Q Q ",
"P I A ( E I Y Z 7.W I E ` ' I D I T Y ! P 9 T.6X  I Y 4.! D ! ^ P Y A ! G <.R H W.N D Y ] ) I I Y W T ! ) T W Y Y Y T ) ! S W ( ",
"Y P V Y ~ D 2.4.! Y E Y ~ W E E I E Q P 5.Y ! E E ! ! 8.! Y S ^ Y S B Y ~ D ' 4.! T E Y Q W E W I T Q P 5.T ! E Y ! ! 8.W Y S Q ",
"S A S Y D E D ^ ^ E Y S W D Y Y C S Q ! Q ! Y Y Q A ! W P C S P S A S E D E D ! ^ E Y S Q D I I C P ! ! ! ! I Y Q C ! W R V S P ",
"W T Y W E D D 2.E T Y ~ ~ W 6.Q I ^ ].) P C S S Y I Y C T S T / ! E R Q E Y Y 2.W Y Y Q ) W 6.Q P ^ ].) P C S P Y I I A E S T / ",
"4.! P Q ) W 2.W S S 4.~ Q 7.~ D T 5.9.) T T Q ` W ! E Y W / E ~ 4.! S ~ ~ / Q E I S ] ` W 8.` S E 5.9.) T T Q ( W ^ E Y W W T ( "
};
