/* XPM */
static char *xpm_[] = {
/* columns rows colors chars-per-pixel */
"64 64 254 2 ",
"   c #060617",
".  c #160913",
"X  c #1B1312",
"o  c #271213",
"O  c #2E221C",
"+  c #33261E",
"@  c #030528",
"#  c #140023",
"$  c #181528",
"%  c #1D1C36",
"&  c #040F33",
"*  c #261A28",
"=  c #331B28",
"-  c #280A31",
";  c #2D2429",
":  c #3C2D2A",
">  c #382927",
",  c #3F3021",
"<  c #3F372E",
"1  c #2A2636",
"2  c #332A33",
"3  c #372A36",
"4  c #383437",
"5  c #1E212E",
"6  c #550D14",
"7  c #691B1A",
"8  c #791B16",
"9  c #720D12",
"0  c #481C2A",
"q  c #571337",
"w  c #4B143E",
"e  c #731426",
"r  c #453424",
"t  c #4A3727",
"y  c #44332C",
"u  c #4A372B",
"i  c #4E3A2A",
"p  c #4C3926",
"a  c #543E2C",
"s  c #593E2C",
"d  c #443432",
"f  c #4D3B33",
"g  c #493736",
"h  c #533D32",
"j  c #54393A",
"k  c #4C262B",
"l  c #6D2B2F",
"z  c #54381F",
"x  c #374027",
"c  c #56402E",
"v  c #5A422E",
"b  c #5D4431",
"n  c #5F4834",
"m  c #594439",
"M  c #4C443D",
"N  c #614633",
"B  c #644935",
"V  c #694D37",
"C  c #664C38",
"Z  c #6A4E39",
"A  c #6C4F3A",
"S  c #6A4E39",
"D  c #68443C",
"F  c #774137",
"G  c #6D513A",
"H  c #6F513C",
"J  c #6E513B",
"K  c #70523A",
"L  c #71533D",
"P  c #72543E",
"I  c #76573F",
"U  c #72543D",
"Y  c #73583F",
"T  c #605F2A",
"R  c #0B1548",
"E  c #361347",
"W  c #2E1141",
"Q  c #052154",
"!  c #2B2B47",
"~  c #2B324A",
"^  c #343548",
"/  c #373B55",
"(  c #302F42",
")  c #030A68",
"_  c #2B3461",
"`  c #3B067E",
"'  c #4E0D4F",
"]  c #443B46",
"[  c #442B50",
"{  c #73384A",
"}  c #70136B",
"|  c #453563",
" . c #643864",
".. c #5C0E60",
"X. c #3E415A",
"o. c #344371",
"O. c #494249",
"+. c #424659",
"@. c #554D50",
"#. c #6E5441",
"$. c #755640",
"%. c #745641",
"&. c #765943",
"*. c #7A5B44",
"=. c #7D5D48",
"-. c #765B49",
";. c #6E4845",
":. c #7E614A",
">. c #4C536B",
",. c #4B4F6E",
"<. c #6B576D",
"1. c #58617E",
"2. c #6A6268",
"3. c #72686E",
"4. c #9A1616",
"5. c #921310",
"6. c #AE1512",
"7. c #801726",
"8. c #971F21",
"9. c #A21036",
"0. c #C71807",
"q. c #D91A01",
"w. c #D60400",
"e. c #FD1900",
"r. c #F41800",
"t. c #E41708",
"y. c #D23312",
"u. c #E02E06",
"i. c #8F4D32",
"p. c #AB4636",
"a. c #9D7234",
"s. c #A66C20",
"d. c #F55012",
"f. c #CF562C",
"g. c #C5793E",
"h. c #F17231",
"j. c #DC4E13",
"k. c #9D2552",
"l. c #805F4A",
"z. c #845B46",
"x. c #8A484E",
"c. c #A74E49",
"v. c #83634C",
"b. c #876651",
"n. c #8B6B53",
"m. c #866A54",
"M. c #916E51",
"N. c #93735B",
"B. c #916641",
"V. c #827877",
"C. c #976E6E",
"Z. c #AF756B",
"A. c #92526E",
"S. c #C8584C",
"D. c #CC6B57",
"F. c #E66D49",
"G. c #CD7267",
"H. c #DD2C53",
"J. c #B38B13",
"K. c #FF892C",
"L. c #FA8938",
"P. c #FFBA35",
"I. c #AD866D",
"U. c #F18C4A",
"Y. c #FFAB49",
"T. c #FFBB4C",
"R. c #FDA552",
"E. c #E79079",
"W. c #FFBB6B",
"Q. c #CF894C",
"!. c #FFD356",
"~. c #FFD57E",
"^. c #0E3487",
"/. c #000DA5",
"(. c #150F95",
"). c #492C95",
"_. c #304F90",
"`. c #294CA5",
"'. c #4F588C",
"]. c #5A678B",
"[. c #777987",
"{. c #67759A",
"}. c #536EAB",
"|. c #6879A7",
" X c #657BB4",
".X c #0032E3",
"XX c #0D59F6",
"oX c #275AE6",
"OX c #986D9A",
"+X c #B164E1",
"@X c #4B839B",
"#X c #7888AB",
"$X c #7A8AB7",
"%X c #7C90BE",
"&X c #6D83AF",
"*X c #7C8296",
"=X c #7B94CD",
"-X c #6DB6FF",
";X c #8A8C97",
":X c #B2908E",
">X c #8E99B4",
",X c #A8ACBB",
"<X c #ACADB3",
"1X c #A4A0A6",
"2X c #D1AB96",
"3X c #EAB095",
"4X c #D0B6A9",
"5X c #EC959C",
"6X c #FED7BC",
"7X c #F6CAB0",
"8X c #FFFAAC",
"9X c #EACCA1",
"0X c #8499C6",
"qX c #909ECE",
"wX c #8EA3CB",
"eX c #96A5C8",
"rX c #88A4D4",
"tX c #95AAD3",
"yX c #9EB2D8",
"uX c #ABB2C9",
"iX c #A6B8DA",
"pX c #A6ACC8",
"aX c #A5BCE3",
"sX c #B0BFE5",
"dX c #8CA4FF",
"fX c #BAC5DA",
"gX c #AEC0DF",
"hX c #AAC3E7",
"jX c #B6C8E7",
"kX c #AACEFD",
"lX c #C4CCDC",
"zX c #CBD1DA",
"xX c #CFC6CB",
"cX c #FEDBC5",
"vX c #ECDAC1",
"bX c #FDE7C8",
"nX c #FFFEDC",
"mX c #FFF5D4",
"MX c #FFE2D2",
"NX c #C7D3E8",
"BX c #C5DAF7",
"VX c #CAD3E6",
"CX c #DCE2E9",
"ZX c #DCE8F9",
"AX c #CCE4FA",
"SX c #FFFEEC",
"DX c #FFFBE3",
"FX c #E4EDF6",
"GX c #E7ECF4",
"HX c #EAF4FB",
"JX c #F5FAFC",
"KX c #FEFFFF",
"LX c #F9FDF6",
"PX c #EAEFE8",
/* pixels */
"=.=.p A G b N b c B Z N v v v a G H V b B b A B N v b v N v B V =.=.p A G b N b c B Z N v v v a G H V b B b A B N v b v N v B V ",
"G G Z B N b N a c v v N N v a N G Z Z N r V n.A v.B N v B a G V G G Z B N b N a c v v N N v a N G Z Z N r V n.A v.B N v B a G V ",
"V N V U G r N G V U B t H G L v v v b V B Z b Z V a a a b a Z V V N V U G r N G V U B t H G L v v v b V B Z b Z V a a a b a Z V ",
"b G K K v.v N Z N B =.a I V B N K V A L %.Z Z b G Z U H Z G n Z b G K K v.v N Z N B =.a I V B N K V A L %.Z Z b G Z U L Z G n Z ",
"b V N Z a r v N N b c v b b b L U U Z B B s C N A A L V N N a i b V N Z a r v N N b c v b b b L U I Z B B s C N A A L V N N a i ",
"b N a b B v b a N v B B A K b N B V s &.L N b c B H B B C B b N b N a b B v b a N v B B A K b N B V s &.L N b c B H B B C B b N ",
"G v b %.Z H H B t N A A V G B J G N B C I N N b B G V =.A b Z *.G v b %.Z H H B t N A A V G B J G N B C I N N b B G V =.A b Z *.",
"B b U V Z G H K a U U *.*.L A v.i &.I b a N N G G l.%.B Z C #.A B b U V Z G H K a U U *.*.L A v.i &.I b a N N G G l.%.B Z C #.A ",
"N n N.l.N N b B b G C =.H I %.I v G *.&.V a G G v.B B N b b N H N n N.l.N N b B b G C =.H I %.I v G *.&.V a G G v.B B N b b N H ",
"N c =.%.v b b b N G A U &.I V U b %.%.C :.b V &.N.N N b b b %.: N c =.%.v b b b N G A U &.I V U b %.U B :.b V &.N.N N b b b %.N ",
"B a G N Z v B V b B A K L K U U b Z *.N b a G Z H N b N i , m ^ h a G N Z v B V b B A K L K U U b Z *.N b a G Z H N b N i , V :.",
"n N Z n.%.Z L N v Z b Z A B -.:.i b N Z n b Z &.N N v b m.c ( zX2.f Z n.%.Z L N v Z b Z A B *.v.i b N Z n b Z &.N N v b m.c %.m.",
"n G L Z v N N b *.Z a b B b -.N b b a v.B Z c b i =.H %.U N   HXCX. H Z v N n b *.Z a b B b -.N b b a v.B Z c b i =.H %.U N b n ",
"%.Z b v N a i G V G =.b b b N B Z B Z N b n U *.N -.%.n n g 2.KXCXX.g v N i ; y : : g > > b N B Z B Z N b n U *.N -.%.n n N i b ",
"U C b v B %.b B %.H %.%.b i U %.%.L %.B i %.G C B H B b N % FXHXHX%X  v b ] {.1.[.;X[.[.;X2 f %.%.L %.B i %.G C B H B b N a r G ",
"N s a v A U N B H Z N B b V n.N.b.b.L H a U *.g g N N N Z 1 lXjXFXNX1.O $ '.=X XBXJXKXKX>X2 O.N.b.b.L H a U *.n N N N N Z B b N ",
"N a I a Z N Z C H V V s a V &.%.B C C A a Z A 2 1 b G Z N 1 lXjXBXCX,.R {.jX>XuX|._.ZX;X, V &.%.B C C A a Z A b b b G Z N b L b ",
"v b N v V N =.b Z G N b b G %.b a b 2 1 ; * u f $ n Z N b * zXaXjXuX_ sXZXKXKXZXiXfX*X> y Z %.b a b Z b i c b v v A A N b b B r ",
"&.V N a *.B v t N H b b v H U Z b b g ; ^ xX[.X ,.>.t a a $ zXjXtXiXBXKXJXHXNXiXKX<X> ; % A U Z b b V a a A G B B A b a a N v b ",
"U H N b i N a a a B b c B b L b b a a v f ;XZXxXeX=X+.. * ,XJXyXtXCXKXNXVXVXiXJX[.t : ,X^ b L b b a a v Z G G H B M.N G Z G b N ",
"v #.H b , v I G U b i B L U i i b N 2 U L : ].KXKX%X X'.,XKXjX0XiXKXKXjXNXjXhXKX/ X <XKX( H i i b N G U L G B l.Z b L B V B =.Z ",
"b -.B c p B G I B Z a G B &.N B G G 1 ^ G C ~ hXKXHX>XrXZXiX=XrXhXfXtXyX0XwXNXHXwX&XJXfX% %.N B G G G B U =.Z A a G Z b v a a v ",
"b v b Z &.v N N B B N B N V B b N Z ^ #X,.4 > ].BXHXFXVX$X|.iXiX%X|.|.%X|.}.NXFXjXBXwX1 b V B b N Z Z N N A a a G C N v a a i c ",
"Z n G Z Z V B N v b a A v B b *.a Z C ( aX#X>.aXtXtXtX&XfXFXHXAXwXKXlX|.GXuX#XVXVXeX1 V v B b =.a Z Z b C C a b G b c a a Z v c ",
"N b &.Z G b G N N a b N a B b N N N B b 1 wXhXaXiXhX}.eXKXiX>XxXxXBXKXuX0XJXfX_. X].g N a B b N N N B b b b b c N b a n.*.%.N B ",
"v b N G v G B I N N G I K t N Z %.*.H c N 1 '.0X$XrX}.lXKXrXc.f.D.,.rXKX>Xo.NXuX{.$X/ : G t N Z %.*.H c N H Y H G G Z *.Z a Z =.",
"c b b b b b v v #.I Z -.N U V B H =.%.2 : ] #X=X%X'.R &XKXFXc.<.4XG.| kX;X  =XKX2.o 3 4 b U V B H =.*.b H U b b b -.G V a a Z Z ",
"c b i G N b b t *.B b N I H v v b N b 2 * +.#X#XkXX.o [ rXfXc.| }.4XD.<.~ _  X;X+.b b N I H v v b N b C U b N b b b b %.C a B Z ",
"b c r b Z v H U B b N b Z N N N v N V c &.c O 1 o.R i.S.| ^.Z.x.>XhXSX0 * / ~ + $ d N b Z N N N v N V c &.b C N b B C -.C b a Z ",
"a i a N v b v V Z N v a B a b b i a C C C C b b y $ x.F.{ 1XmX3XDXfX>X|.: b u V h h v a B a b b i c C C C C b b Z u V N b t a v ",
"B b b B N b b H N b b A G B *.A v Z N.H a i a a b 2 1 { { bXKXKXmX4X2XSX3.: b H N b b Z G B *.A v Z N.H a i a a b v v i N a N N ",
"%.Z a Z H B Z N c a %.G B =.H a N &.=.K b b V G B 2 @ & % O.>./ 2.mXSX7X] h Z n c a &.H B =.H a N &.=.K n b C G B B N b B B N A ",
"=.=.p A G b N b c B Z N v v v a G H V b B b A B f V.Z.l :X{ 6 I.V.V.vX4 B b N b c B Z N v v v a G H V b B b A B N v b v N v B V ",
"G G Z B N b N a c v v N N v a N G Z Z N r V n.Z d 2XDX7XE.cXcX3XbX:X2 N N b N a c v v N N v a N G Z Z N r V n.A v.B N v B a G V ",
"V N V U G r N G V U B t H G L v v v b V B Z b g 0 3XDXmXG.cXKXc.G.4XX U G r N G V U B t H G L v v v b V B Z b Z V a a a b a Z V ",
"b G K K v.v N Z N B =.a I V B N K V A L %.Z Z > V.nX6XcX6X4X6XD.{ <.4 G v.v N Z N B =.a I V B N K V A L %.Z Z b G Z U H Z G n Z ",
"b V N Z a r v N N b c v b b b L U U Z B B s C y +.nXnXbXbX2.7 l A.LXzX; a r v N N b c v b b b L U U Z B B s C N A A L V N N a i ",
"b N a b B v b a N v B B A K b N B V s &.L N h d = 3.9X6XbXcX@.@ x.MXPX* B v b a N v B B A K b N B V s &.L N b c B H B B V B b N ",
"G v b %.Z H H B t N A A V G B J G N B C I N 4 j F.k o 2XSXDXSX^ p.E.Z.; Z G G B t N A A V G B J G N B C I N N b B G V =.A b Z *.",
"B b U V Z G H K a U U *.*.L A v.i &.I N s N 4 j F.x.@ I.8X9XU.6 C.nXZ.O.m A A K a U U *.*.L A v.i &.I b a N N G G l.%.B Z C %.A ",
"N n N.l.N N b B b G C =.H I %.I v G *.&.V a b g {  .% p a.:XG.j., 7XKX2XO b b B b G C =.H I %.I v G *.&.V a G G v.B B N b b N H ",
"N c =.%.v b b b N G A U &.I V U b %.%.C :.b V M 3 S.F @ @ .XoX<.# 6 pXeX~ a b b N G A U &.I V U b %.%.C :.b V &.N.N N b b b %.N ",
"B a G N Z v B V b B A K L K U U b Z *.N b a G m g  .).R   ;.oXXXoX^.) -XoX  i B b B A K L K U U b Z *.N b a G Z H N b N i , V :.",
"n N Z n.%.Z L N v Z b Z A B -.:.i b N Z n b Z &.N R /.) i.P.G.A.4X:X$ |.iXeX2.h v Z b Z A B -.:.i b N Z n b Z &.N N v b m.c %.m.",
"n G L Z v N N b *.Z a b B b -.N b b a v.N Z c b i %.1 R U.T.w.d.P.K.. @.nXSXJX>.C Z a b B b -.N b b a v.B Z c b i =.H %.U N b n ",
"%.Z b v N a i G V G =.b b b N B Z B Z N b b H *.C *.H 5 g.d.h.Y.T.U.- ] G.3XKXOXy G =.b b b N B Z B Z N b n U *.C -.%.n n N i b ",
"U C b v B %.b B %.H %.%.b i U %.%.L %.B i %.G C B H B 2 g.L.Y.Y.Y.h.# 2.G.G.SX2.h H %.%.b i U %.%.L %.B i %.G C B H B b N a r G ",
"N s a v A U N B H Z N B b V n.N.b.b.L H a U &.n N N 2 i.9XW.Y.L.y.4.i.Q.! 3 ] f H Z N B b V n.N.b.b.L H a U *.n N N N N Z B b N ",
"N a I a Z N Z C H V V s a V &.%.B C C A a Z A b b b 1 z.bXW.h.d.p.1 T.h.# 1 Z C H V V s a V &.%.B C C A a Z A b b b G Z N b L b ",
"v b N v V N =.b Z G N b b G %.b a b Z b i c b v v Z = I.bXR.j.h.8 s !.F.- * j c Z G N b b G %.b a b Z b i c b v v A A N b b B r ",
"&.V N a *.B v t N H b b v H U Z b b V a a A G B C 2 6.7.Q.!.h.8 - y.K.f.W 6.5.2 N H b b v H U Z b b V a a A G B B A b a a N v b ",
"U H N b i N a a a B b c B b L b b a a v Z G G C 3 0.4.- f.K.u.= q q 6.5.E 6.5.4 a B b c B b L b b a a v Z G G H B M.N G Z G b N ",
"v #.H b , v I G U b i B L U i i b N G U L G B O.7 e.7.' 0.0.7.0 q.e E E q t.4.4 U b i B L U i i b N G U L G B l.Z b L B V B =.Z ",
"b -.B c p B G I B Z a G B &.N B G G G B U =.Z g 7 e.e w 8.q q * 6.r.4.5.q.q.k m B Z a G B &.N B G G G B U =.Z A a G Z b v a a v ",
"b v b Z &.v N N B B N B N V B b N Z Z N N A a y W 6.5.E E 4.e.= 1 7 e } 9.7 4 N B B N B N V B b N Z Z N N A a a G C N v a a i c ",
"Z n G Z Z V B N v b a A v B b *.a Z Z b C C u 1 /.k.e.6.0.e.8 d Z 4 4 /.` e 4 N v b a A v B b *.a Z Z b C C a b G b c a a Z v c ",
"N b &.Z G b G N N a b N a B b N N N B b b b y ) (.} q 8 8 7 4 B N b H Q ` 9 4 N N a b N a B b N N N B b b b b c N b a n.*.%.N B ",
"v b B G v G B I N N G I K t N Z %.*.H c N m T a...) ! M g 4 Z =.c b n ! B.s.3 %.N N A I K t N Z %.*.H c N H Y H G G Z *.Z a Z =.",
"c b b b b b v v #.I Z -.N U V B H =.*.b H y _.8XJ.g G A a a Z A c b b t @X5X5.y #.I Z *.N U V B H =.*.b H U b b b &.G V a a Z A ",
"c b i G N b b t *.B b N I H v v b N b C C _.+Xk.< b N %.C a B Z c b i i `.dX'.O *.B b N I H v v b N b C U b N b b b b %.C a B Z ",
"b c r b Z v H U B b N b Z N N N v N V c C k.H.= b B C -.C b a Z b c r b ;.@XOX9 f b N b Z N N N v N V c &.b C N b B C -.C b a Z ",
"a i a N v b v V Z N v a B a b b i a C C C f > b Z i V N b t a v a i a N v b D F C N v a B a b b i a C C C C b b Z u V N b t a v ",
"B b b B N b b H N b b A G B *.A v Z N.H a i a a N v v i N a N N B b b B N b b H N b b A G B *.A v Z N.H a i a a b v v i N a N N ",
"%.Z a Z H B Z N c a %.G B =.H a N &.=.K n b C G B B N b B B N A %.Z a Z H B Z N c a %.G B =.H a N &.=.K n b C G B B N b B B N A "
};
