/* XPM */
static char *xpm_[] = {
/* columns rows colors chars-per-pixel */
"64 64 141 2 ",
"   c #3F3021",
".  c #463424",
"X  c #4A3726",
"o  c #4C3927",
"O  c #4B3728",
"+  c #4E3A2A",
"@  c #543E2C",
"#  c #583F2C",
"$  c #56402E",
"%  c #5A422E",
"&  c #5D4431",
"*  c #5E4834",
"=  c #614633",
"-  c #644935",
";  c #694D37",
":  c #664C38",
">  c #684B38",
",  c #684C38",
"<  c #684D38",
"1  c #694C39",
"2  c #694D39",
"3  c #6A4D38",
"4  c #6A4D39",
"5  c #684F38",
"6  c #684F39",
"7  c #6A4E38",
"8  c #6B4E38",
"9  c #6A4E39",
"0  c #6B4E39",
"q  c #684E3A",
"w  c #694E3A",
"e  c #6B4F3A",
"r  c #6B4F3B",
"t  c #6C4E38",
"y  c #6C4E39",
"u  c #6C4F39",
"i  c #6C4E3A",
"p  c #6C4F3A",
"a  c #6C4F3B",
"s  c #6D4F3B",
"d  c #6C4F3C",
"f  c #6A4E39",
"g  c #6B5039",
"h  c #6D5038",
"j  c #6C5039",
"k  c #6C5139",
"l  c #6F5138",
"z  c #6C503A",
"x  c #6D503A",
"c  c #6C513A",
"v  c #6D513A",
"b  c #6D503B",
"n  c #6D513B",
"m  c #6E503A",
"M  c #6E513A",
"N  c #6E503B",
"B  c #6F503B",
"V  c #6E513B",
"C  c #6F523B",
"Z  c #6F533B",
"A  c #6A503C",
"S  c #6E503C",
"D  c #6E503D",
"F  c #6F513D",
"G  c #6F523C",
"H  c #6E523D",
"J  c #6F543F",
"K  c #6E513B",
"L  c #705139",
"P  c #705238",
"I  c #70523A",
"U  c #70533A",
"Y  c #70523B",
"T  c #70533B",
"R  c #72543A",
"E  c #70523C",
"W  c #70533C",
"Q  c #71533C",
"!  c #71533D",
"~  c #71523E",
"^  c #71533E",
"/  c #73543C",
"(  c #72543D",
")  c #70543E",
"_  c #71543E",
"`  c #73553E",
"'  c #72543F",
"]  c #74553E",
"[  c #74563E",
"{  c #75573F",
"}  c #76573F",
"|  c #77573F",
" . c #72543D",
".. c #73583F",
"X. c #6F5340",
"o. c #6E5541",
"O. c #735640",
"+. c #745640",
"@. c #755640",
"#. c #765640",
"$. c #765641",
"%. c #775741",
"&. c #745641",
"*. c #765840",
"=. c #775840",
"-. c #775941",
";. c #765942",
":. c #765843",
">. c #765943",
",. c #795942",
"<. c #785A43",
"1. c #7B5B43",
"2. c #795B46",
"3. c #7F5D44",
"4. c #7C5E46",
"5. c #7E5F47",
"6. c #7A5B43",
"7. c #765B49",
"8. c #7F5E48",
"9. c #7C5E4A",
"0. c #7C5D48",
"q. c #7A604B",
"w. c #7E6148",
"e. c #7E614A",
"r. c #815F47",
"t. c #815F47",
"y. c #805F4A",
"u. c #805F49",
"i. c #84634B",
"p. c #80614D",
"a. c #83654E",
"s. c #85654D",
"d. c #83634C",
"f. c #876651",
"g. c #876A55",
"h. c #8E6C54",
"j. c #8B6B52",
"k. c #916E51",
"l. c #927359",
"z. c #95745D",
"x. c #93735B",
/* pixels */
"5.5.o u v & = & $ - 7 = % % % @ v G > & - & d - = % & % = % - 7 5.5.o u v & = & $ - 7 = % % % @ v G > & - & d - = % & % = % - 7 ",
"v g 7 - = & = @ $ % % = = % @ = v 7 7 = . 7 h.u p.- = % - @ v ; v g 7 - = & = @ $ % % = = % @ = v 7 7 = . 7 h.u p.- = % - @ v ; ",
"7 = 7 / v . = v 7 / - O J v E % % % & 7 - 7 & 7 7 @ @ @ & @ 7 7 7 = 7 / v . = v 7 / - O J v E % % % & 7 - 7 & 7 7 @ @ @ & @ 7 7 ",
"& v I I i.% = 7 = - 8.@ | 7 - = I 7 u E +.7 7 & v 7 / G 7 v * 7 & v I I i.% = 7 = - 8.@ | 7 - = I 7 u E +.7 7 & v 7 / G 7 v * 7 ",
"& > = 7 @ . % = = & $ % & & & E R / 7 - - # : = u u E 7 = = @ + & > = 7 @ . % = = & $ % & & & E R / 7 - - # : = u u E 7 = = @ + ",
"& = @ & - % & @ = % - - t I & = - 7 # -.E = & $ - G - - : - & = & = @ & - % & @ = % - - t I & = - 7 # -.E = & $ - G - - : - & = ",
"v % & +.7 G G - X = u u 7 v - A v = - : | = = & - v 7 5.u & 7 ,.v % & +.7 G G - X = u u 7 v - A v = - : | = = & - v 7 5.u & 7 ,.",
"- & / > 7 v G I @ / / 2.,.E u s.+ -.| & @ = = v v r.+.- 7 : X.t - & / > 7 v G I @ / / 2.,.E u s.+ -.| & @ = = v v r.+.- 7 : X.t ",
"= * z.y.= = & - & v : 8.G | +.| % v ,.-.; @ g v a.- - = & & = G = * z.y.= = & - & v : 8.G | +.| % v ,.-.; @ g v a.- - = & & = G ",
"= $ 8.+.% & & & = v u / -.| 7 / & +.&.: e.& ; -.l.= = & & * &.= = $ 8.+.% & & & = v u / -.| 7 / & +.&.: e.& ; -.l.= = & & & &.= ",
"- @ v = 7 % - > & - t I E I / / & 7 ,.= & @ v 7 G = & = +   7 q.- @ v = 7 % - > & - t I E I / / & 7 ,.= & @ v 7 G = & = +   7 q.",
"* = 7 j.+.7 E = % 7 & 7 u - 7.e.+ & = : * & 7 -.= = % & g.$ &.g.* = 7 j.+.7 E = % 7 & 7 u - 7.e.+ & = 7 * & 7 -.= = % & g.$ &.g.",
"* v E 7 % = = & ,.7 @ & - & 7.= & & @ d.- 7 $ & + 4.G &./ = & * * v E 7 % = = & ,.7 @ & - & 7.= & & @ d.- 7 $ & + 4.G &./ = & * ",
"+.7 & % = @ + v 7 v 0.& & & = - 7 - 7 = & * / 6.= 7.&.* * = + & +.7 & % = @ + v 7 v 0.& & & = - 7 - 7 = & * / 6.= 7.&.* * = + & ",
"/ : & % - +.& - +.J +.&.& + / +.&.E &.- + &.v : - G - & = @ . v / : & % - +.& - +.J +.&.& + / +.&.E &.- + &.v : - G - & = @ . v ",
"= # @ % u / = - G 7 = - & 7 j.x.f.f.E G @ / ,.* = = = = 7 - & = = # @ % u / = - G 7 = - & 7 j.x.f.f.E G @ / ,.* = = = = 7 - & = ",
"= @ | @ 7 = 7 : G 7 > # @ > -.&.- : : d @ 7 d & & & v 7 = & E & = @ | @ 7 = 7 : G 7 > # @ > -.&.- : : d @ 7 d & & & v 7 = & E & ",
"% & = % 7 = 8.& 7 v = & & v +.& @ & 7 & + $ & % % u u = & & - . % & = % 7 = 8.& 7 v = & & v +.& @ & 7 & + $ & % % u u = & & - . ",
"-.7 = @ ,.- % X = G & & % G / 7 & & 7 @ @ u v - - u & @ @ = % & -.7 & @ ,.- % X = G & & % G / 7 & & 7 @ @ u v - - u & @ @ = % & ",
"/ G = & + = @ @ @ - & $ - & E & & @ @ % 7 v v G - k.= v 7 v & = / G = & + = @ @ @ - & $ - & E & & @ @ % 7 v v G - k.= v 7 v & = ",
"% o.G &   % | v / & + - E / + + & = v / E v - y.7 & E - 7 - 4.7 % o.G &   % | v / & + - E / + + & = v / E v - y.7 & E - 7 - 4.7 ",
"& 7.- $ o - v | - 7 @ v - -.= - v v v - / 5.7 u @ v 7 & % @ @ % & 7.- $ o - v | - 7 @ v - -.= - v v v - / 5.7 u @ v 7 & % @ @ % ",
"& % & 7 -.% = = - - = - = > - & = 7 7 = = u @ @ v : = % @ @ + $ & % & 7 -.% = = - - = - = > - & = 7 7 = = u @ @ v : = % @ @ + $ ",
"7 * v 7 7 7 - = % & @ u % - & 3.@ 7 7 & : : @ & v & $ @ @ 7 % $ 7 * v 7 7 7 - = % & @ u % - & 3.@ 7 7 & : : @ & v & $ @ @ 7 % $ ",
"= & -.7 g & v = = @ & = @ - & = = = - & & & & $ = & @ j.,.+.= - = & -.7 g & v = = @ & = @ - & = = = - & & & & $ = & @ j.,.+.= - ",
"% & = g % v - | = = v | I X = 7 +.,.G $ = J ..J g g 7 ,.7 @ 7 8.% & - g % v - | = = v | I X = 7 +.,.G $ = J ..J g g 7 ,.7 @ 7 8.",
"$ & & & & & % % o.+.7 7.= / 7 - G 0.,.& J / & & & 7.g 7 @ @ 7 u $ & & & & & % % o.| 7 7.= / 7 - G 0.,.& J / & & & 7.g 7 @ @ 7 u ",
"$ & + v = & & X 3.- & = | G % % & = & : / & = & & & & &.: @ - 7 $ & + v = & & X 3.- & = | G % % & = & : / & = & & & & &.: @ - 7 ",
"& $ . & 7 % G / - & = & 7 = = = % = ; $ -.& : = & - : 7.: & @ 7 & $ . & 7 % G / - & = & 7 = = = % = ; $ -.& : = & - : 7.: & @ 7 ",
"@ + @ = % & % 7 7 = % @ - @ & & + @ : : : : & & 7 + ; = & X @ % @ + @ = & & % 7 7 = % @ - @ & & + @ : : : : & & 7 + ; = & X @ % ",
"- & & - = & & G = & & u v - ,.u % 7 l.J @ + @ @ & % % + = @ = = - & & - = & & G = & & u v - ,.u % 7 l.J @ + @ @ & % % + = @ = = ",
"&.7 @ 7 G - 7 = $ @ +.v - 5.G @ = -.5.I * & : v - - = & - - = u &.7 @ 7 G - 7 = $ @ +.v - 5.G @ = -.5.I * & : v - - = & - - = u ",
"5.5.o u v & = & $ - 7 = % % % @ v G > & - & d - = % & % = % - 7 5.5.o u v & = & $ - 7 = % % % @ v G > & - & d - = % & % = % - 7 ",
"v g 7 - = & = @ $ % % = = % @ = v 7 7 = . 7 h.u p.- = % - @ v ; v g 7 - = & = @ $ % % = = % @ = v 7 7 = . 7 h.u p.- = % - @ v ; ",
"7 = 7 / v . = v 7 / - O J v E % % % & 7 - 7 & 7 7 @ @ @ & @ 7 7 7 = 7 / v . = v 7 / - O J v E % % % & 7 - 7 & 7 7 @ @ @ & @ 7 7 ",
"& v I I i.% = 7 = - 8.@ | 7 - = I 7 u E +.7 7 & v 7 / G 7 v * 7 & v I I i.% = 7 = - 8.@ | 7 - = I 7 u E +.7 7 & v 7 / G 7 v * 7 ",
"& > = 7 @ . % = = & $ % & & & E R / 7 - - # : = u u E 7 = = @ + & > = 7 @ . % = = & $ % & & & E R / 7 - - # : = u u E 7 = = @ + ",
"& = @ & - % & @ = % - - t I & = - 7 # -.E = & $ - G - - > - & = & = @ & - % & @ = % - - t I & = - 7 # -.E = & $ - G - - > - & = ",
"v % & +.7 G G - X = u u 7 v - A v = - : | = = & - v 7 5.u & 7 ,.v % & +.7 G G - X = u u 7 v - A v = - : | = = & - v 7 5.u & 7 ,.",
"- & / > 7 v G I @ / / 2.,.E u s.+ -.| & @ = = v v r.+.- 7 : O.t - & / > 7 v G I @ / / 2.,.E u s.+ -.| & @ = = v v r.+.- 7 : O.t ",
"= * z.y.= = & - & v : 8.G | +.| % v ,.-.; @ g v a.- - = & & = G = * z.y.= = & - & v : 8.G | +.| % v ,.-.; @ g v a.- - = & & = G ",
"= $ 8.+.% & & & = v u / -.| 7 / & +.&.: e.& ; -.l.= = & & & &.= = $ 8.+.% & & & = v u / -.| 7 / & +.&.: e.& ; -.l.= = & & & &.= ",
"- @ v = 7 % - > & > t I E I / / & 7 ,.= & @ v 7 G = & = +   7 q.- @ v = 7 % - > & > t I E I / / & 7 ,.= & @ v 7 G = & = +   7 q.",
"* = 7 j.+.7 E = % 7 & 7 u - 7.e.+ & = 7 * & 7 -.= = % & g.$ &.g.* = 7 j.+.7 E = % 7 & 7 u - 7.e.+ & = 7 * & 7 -.= = % & g.$ &.g.",
"* v E 7 % = = & ,.7 @ & - & 7.= & & @ d.- 7 $ & + 4.G &./ = & * * v E 7 % = = & ,.7 @ & - & 7.= & & @ d.- 7 $ & + 4.G &./ = & * ",
"+.7 & % = @ + v 7 v 0.& & & = - 7 - 7 = & * / 6.: 7.&.* * = + & +.7 & % = @ + v 7 v 0.& & & = - 7 - 7 = & * / 6.: 7.&.* * = + & ",
"/ : & % - +.& - +.J +.&.& + / +.&.E &.- + &.v : - G - & = @ . v / : & % - +.& - +.J +.&.& + / +.&.E &.- + &.v : - G - & = @ . v ",
"= # @ % u / = - G 7 = - & 7 j.x.f.f.E G @ / ,.* = = = = 7 - & = = # @ % u / = - G 7 = - & 7 j.x.f.f.E G @ / ,.* = = = = 7 - & = ",
"= @ | @ 7 = 7 : G 7 > # @ > -.&.- : : d @ 7 d & & & v 7 = & E & = @ | @ 7 = 7 : G 7 > # @ > -.&.- : : d @ 7 d & & & v 7 = & E & ",
"% & = % 7 = 8.& 7 v = & & v +.& @ & 7 & + $ & % % u u = & & - . % & = % 7 = 8.& 7 v = & & v +.& @ & 7 & + $ & % % u u = & & - . ",
"-.7 = @ ,.- % X = G & & % G / 7 & & 7 @ @ u v - - u & @ @ = % & -.7 = @ ,.- % X = G & & % G / 7 & & 7 @ @ u v - - u & @ @ = % & ",
"/ G = & + = @ @ @ - & $ - & E & & @ @ % 7 v v G - k.= v 7 v & = / G = & + = @ @ @ - & $ - & E & & @ @ % 7 v v G - k.= v 7 v & = ",
"% o.G &   % | v / & + - E / + + & = v / E v - y.7 & E - 7 - 4.7 % o.G &   % | v / & + - E / + + & = v / E v - y.7 & E - 7 - 4.7 ",
"& 7.- $ o - v | - 7 @ v - -.= - v v v - / 5.7 u @ v 7 & % @ @ % & 7.- $ o - v | - 7 @ v - -.= - v v v - / 5.7 u @ v 7 & % @ @ % ",
"& % & 7 -.% = = - - = - = > - & = 7 7 = = u @ @ v : = % @ @ + $ & % & 7 -.% = = - - = - = > - & = 7 7 = = u @ @ v : = % @ @ + $ ",
"7 * v 7 7 7 - = % & @ u % - & 3.@ 7 7 & : : @ & v & $ @ @ 7 % $ 7 * v 7 7 7 - = % & @ u % - & 3.@ 7 7 & : : @ & v & $ @ @ 7 % $ ",
"= & -.7 g & v = = @ & = @ - & = = = - & & & & $ = & @ j.,.+.= - = & -.7 g & v = = @ & = @ - & = = = - & & & & $ = & @ j.,.+.= - ",
"% & - g % v - | = = v | I X = 7 +.,.G $ = J ..J g g 7 ,.7 @ 7 8.% & - g % v - | = = v | I X = 7 +.,.G $ = J ..J g g 7 ,.7 @ 7 8.",
"$ & & & & & % % o.| 7 7.= / 7 - G 0.,.& J / & & & 7.g 7 @ @ 7 u $ & & & & & % % o.| 7 7.= / 7 - G 0.,.& J / & & & 7.g 7 @ @ 7 u ",
"$ & + v = & & X 3.- & = | G % % & = & : / & = & & & & &.: @ - 7 $ & + v = & & X 3.- & = | G % % & = & : / & = & & & & &.: @ - 7 ",
"& $ . & 7 % G / - & = & 7 = = = % = ; $ -.& : = & - : 7.: & @ 7 & $ . & 7 % G / - & = & 7 = = = % = ; $ -.& : = & - : 7.: & @ 7 ",
"@ + @ = % & % 7 7 = % @ - @ & & + @ : : : : & & 7 + ; = & X @ % @ + @ = % & % 7 7 = % @ - @ & & + @ : : : : & & 7 + ; = & X @ % ",
"- & & - = & & G = & & u v - ,.u % 7 l.J @ + @ @ & % % + = @ = = - & & - = & & G = & & u v - ,.u % 7 l.J @ + @ @ & % % + = @ = = ",
"&.7 @ 7 G - 7 = $ @ +.v - 5.G @ = -.5.I * & : v - - = & - - = u &.7 @ 7 G - 7 = $ @ +.v - 5.G @ = -.5.I * & : v - - = & - - = u "
};
