/* XPM */
static char *_03f9b5a53494565919f66a4fc9cda79cuvRkSNiDHfzsGUr[] = {
/* columns rows colors chars-per-pixel */
"64 64 152 2 ",
"   c #A70C01",
".  c #A80D00",
"X  c #AC1504",
"o  c #AF1A05",
"O  c #B21B02",
"+  c #B42201",
"@  c #B82201",
"#  c #BA2A02",
"$  c #B3210A",
"%  c #B82809",
"&  c #BC3203",
"*  c #C03403",
"=  c #C23A03",
"-  c #CB3E01",
";  c #E42A00",
":  c #CB4202",
">  c #C74805",
",  c #CB4D04",
"<  c #CE5405",
"1  c #D55103",
"2  c #D35E06",
"3  c #C44013",
"4  c #E74500",
"5  c #E65D00",
"6  c #E85F00",
"7  c #D76506",
"8  c #D86406",
"9  c #DD6E06",
"0  c #EB6200",
"q  c #EE6A00",
"w  c #F36600",
"e  c #F56B00",
"r  c #FE6E00",
"t  c #E07306",
"y  c #EE7600",
"u  c #EE7D02",
"i  c #ED740A",
"p  c #E57F08",
"a  c #F57400",
"s  c #FE7300",
"d  c #F67B00",
"f  c #FE7B01",
"g  c #ED8203",
"h  c #ED8F09",
"j  c #F08600",
"k  c #FE8401",
"l  c #F08B04",
"z  c #FF8C01",
"x  c #F18E0A",
"c  c #FF9200",
"v  c #FF9B04",
"b  c #F1910D",
"n  c #F69D09",
"m  c #F19414",
"M  c #F29917",
"N  c #F2961B",
"B  c #F2981E",
"V  c #FFA306",
"C  c #FFA608",
"Z  c #FFAC0A",
"A  c #FFB10B",
"S  c #FFAA13",
"D  c #FEAD1C",
"F  c #FFB412",
"G  c #FFB61C",
"H  c #FFB91D",
"J  c #F18A21",
"K  c #F29A22",
"L  c #F39F29",
"P  c #F4A126",
"I  c #FFAE22",
"U  c #F3A22C",
"Y  c #FEB221",
"T  c #FFBA22",
"R  c #FFB32B",
"E  c #FFBD2C",
"W  c #F4A532",
"Q  c #F4A936",
"!  c #F5AC3B",
"~  c #F6B037",
"^  c #FEB533",
"/  c #FFBF36",
"(  c #F6B23D",
")  c #FDB73C",
"_  c #FFBA3D",
"`  c #FFC133",
"'  c #FFC33D",
"]  c #F5AF41",
"[  c #F6B244",
"{  c #FFBD44",
"}  c #F6B54A",
"|  c #F7BA4E",
" . c #FCBD4C",
".. c #FFB754",
"X. c #F7BC53",
"o. c #F9BE54",
"O. c #F8BF58",
"+. c #FFC443",
"@. c #FFC64C",
"#. c #FFC94C",
"$. c #FBC155",
"%. c #FFCA55",
"&. c #F8C25C",
"*. c #FFCC5A",
"=. c #FAC662",
"-. c #FACB65",
";. c #F8C56A",
":. c #FACC6B",
">. c #FED16C",
",. c #F7C672",
"<. c #FACF73",
"1. c #F5C979",
"2. c #FFCE79",
"3. c #FBD273",
"4. c #FCD57B",
"5. c #FBD97D",
"6. c #F9CF81",
"7. c #F4CE8E",
"8. c #FCD582",
"9. c #FCD984",
"0. c #FFD78F",
"q. c #FCDB8B",
"w. c #FED792",
"e. c #FEDD94",
"r. c #FDDD9C",
"t. c #F4D7A6",
"y. c #F6D8A4",
"u. c #FCDFA3",
"i. c #F0D7AF",
"p. c #F4DCAD",
"a. c #FFDEAC",
"s. c #FEE2A4",
"d. c #F6E1A9",
"f. c #FEE3AB",
"g. c #F7E3B3",
"h. c #FCE5B3",
"j. c #FFE8B7",
"k. c #FDE6BC",
"l. c #FFE9BC",
"z. c #EFE0C9",
"x. c #F6E3C2",
"c. c #FBE7C3",
"v. c #FFEBC4",
"b. c #F1E4C8",
"n. c #FCEAC9",
"m. c #FFEFD1",
"M. c #FFF0D3",
"N. c #FFF2DC",
"B. c #FFF5E3",
"V. c #FFF7E9",
"C. c #FFF9ED",
"Z. c #FFFAF2",
/* pixels */
"K K K B K J B K N N m m m m K K K N K K N N m h h b N K K K K K N N M h b m N N K K K K K K B K K K K B B K K B K K B N g B N B ",
"y j N N N N N N N N N K m b m K N m N N K K N N N B N N K K N l b N m N K N M N K K K N K K K K B K K B B K B K K J N B b B B N ",
"; y N N N K N K N m x K m m m K N N N K K K K K P K N N K L K m N K P U L M N K K K K K m m m N B b J N B K K B B B B B B B B B ",
"4 g K K K N K K N m x N m m N N m K K K K K K K P U U U U U W D K U W U W P U U L K N D m h h N B b N K K K K K N B B B B B B B ",
"j m K K K K N m m m N N m N J N K K K K L U U U Q Q ( ! Q ! [ Q ! ] [ ! ] [ ! Q W U m B B M m N B B N K K K K K B B K B B B B N ",
"N B K N K N K K B B B m m N B B K K N U U W Q ] [ | | } [ $.&.&.=.=.&.&.&.X.X.| [ ! J B U U N h K N N N K B K B B B B B B B B N ",
"N N K K K K K N N N m x N N B B L L W Q [ } X.&.=.-.3.8.5.q.q.8.9.8.q.9.9.8.:.:.&.$.} [ ! Q U U K N N K K K B K K J B B B B B B ",
"N K K K m K N N N N N N N K L P W W ! [ X.&.-.4.q.M.l.u.9.*.@.' ' +.+.*.>.e.f.n.5.&.=.&.X.[ Q W U L K K B K B K K B B B K B B B ",
"K K K K N K B B N K N K K K L W ! ! ( | :.9.9.N.5./ T A Z C C V V C C A A A F E %.f.q.5.:.$.} [ Q W B b m N N K N B K K K B B K ",
"K K K K N J m N N N N L L L W ! [ | $.3.N.N.N.N.2.V v c c c c c c c c c c v C Z A A { 9.f.:.=.X.[ ( P N M K m K B B B K B B B K ",
"N K K N N b m m m N B L L Q ] | &.<.8.N.N.N.N.N.a.c c c c c c c c c c c c c c c v Z A A T 4.l.:.&.X.] W U N N K K K B B K B B K ",
"K K K N K h N B N K B P Q ] X.=.4.N.N.N.N.N.N.N.r.c c c c c c c c c c c c c c c c c C Z Z F *.l.3.=.X.( W U K K B B B K K K B K ",
"K K K N B N B N N N x W ] X.=.8.N.N.N.N.N.N.N.N.=.v c c c c c c c c c c c c c v V Z A A A A Z R 5.r.;.X.[ Q U K K B N K K K B B ",
"K K K N m m B K K L U ] X.=.8.N.N.N.N.N.B.B.B.N.I v v v v c c c c c c c c c V Z A Z A A A Z Z Z S 0.u.&.| [ Q W L K K K B B B B ",
"K K K J B m B K U W ] } =.8.N.N.N.N.B.B.B.V.B.4.T T S C C v c v z c c c n Z A A A A Z v c c z V Z C -.g.=.X.[ W U K N N N J K B ",
"N N N b N N B K U Q [ X.4.N.N.N.B.B.B.V.C.C.m.5.-.+.E H A A A Z c c c C A A A A Z V c c c c z z v C C <.9.;.X.] W L K K N B K K ",
"N m m m m m N L U ! X.*.q.N.N.N.B.B.C.C.Z.C.l.r.5.%.' H F F A A Z C C A A A Z C c c c c c c z k k V C S w.3.&.} ! W L K K K K K ",
"N m m N m x N P U ~ -.q.N.N.N.N.B.C.Z.Z.Z.M.l.f.e.*.' T F A A A A A A A A Z V c c c z c c c c z k f C C R u.<.O.[ Q U L K K K K ",
"K m m N B K P P ! $.8.h.n.N.N.B.B.C.Z.C.m.v.v.h.e.>.' H F F A A A A A A A Z v c c c c c c c c d k s k C C R e.:.X.! W U L K K N ",
"K x u u b b M Q X.4.h.*.M.N.N.B.B.C.N.v.l.v.l.f.9.*.` H F A A A A A A A A A Z v c c c c c c c d a f r v C C -.4.| ( ! U L K K K ",
"m x l x N B P } =.q.*.^ c.N.N.B.M.j.s.f.l.l.f.e.>.+.` H A A A A A A A A A A A Z v c c c c c c k q s r k V C I x.;.X.] W L L K K ",
"N b m K P B Q | <.j.A V ..r.r.3.*.*.5.q.e.e.q.>.#.` H A A A A A A A A A A A A A Z c c c c c c z y w r r v C C ..4.=.} ! W K K K ",
"K K m h L D ~ $.9.3.Z v z c Z T ` ' *.>.>.>.*.#.` H F F A A A A A A A A A A A A A v c c c c c z d 0 r r k C C D c.:.O.] W L K K ",
"K m u t W ~ } =.s.T V c c c A F F ` ` ' ' ` ` ` H F F A A A A A A A A A A A A A A Z c c c c c c k 5 q r s v C C ;.3.O.[ W L K K ",
"K m u i Q [ O.3.0.A c c c C G l.%.F H H H H H F F A A A A A A A A A A A A A A A A A v c c c c c z 5 5 r r k C C ^ q.=.[ ! M N K ",
"m m K L Q } =.s.+.Z c c c Z 5.l.` F F F F F F A A A A A A A A A A A A A A A A Z A A V c c c c c z 5 5 e r f C C S g.:.X.! U K K ",
"N K L U ! | -.c.T C c c c Z j.@.F A A A A A A A A A A A A A A A A A A A A A A C Z A Z c c c c c z 0 5 w r s n C C 1.:.X.! W U K ",
"K K L W ] O.:.s.A V c c c Z G A A A A A A A A A A A A A A A A Z g Z A A A A Z Z V A Z v c c c c z 0 5 0 r r v C C { <.$.[ W U K ",
"N K L W [ O.8.5.A v c c c Z A A A A A A A A A A A A A A A A A n > g A A A A A Z v Z Z v c c c c z 0 5 5 r r c C C S 3.&.[ W U K ",
"N K K W [ O.q.-.A v c c c Z A A A A A A A A A A A A A A A A Z t o > Z A Z A A V v Z A v c c c c z 5 5 0 e r z C C C 5.&.} Q U K ",
"N b m W [ O.8.@.A v c c c Z A A A A A A A A A A A A A A g < : # o o & & 7 Z A V c Z Z v c c c z k 5 5 5 r r k C C C r.&.[ Q U K ",
"K K K L [ &.q.{ Z c c c c v A A A A A A A A A A A A A A A 2 . o 3 O   7 V A A v c Z Z c c z c z d 5 5 5 e r z C C C p.&.[ W U K ",
"N K L W [ $.q._ Z c c c c c A A A Z A A A A A A A A A A A A < O % X > A A A A c c C Z c c c c k q 5 5 5 r r k C C C y.&.} Q U K ",
"N K L W [ &.8._ Z c c z c c V A A A A A A A A A A A A A A A 1 O & @ & A A A V c c Z v c c c c f 0 0 5 0 r r z S C C 3.=.[ W L K ",
"N N L W } &.9.{ Z v z c c c c A A A A A A A A A A A A A A Z : < b 9 @ Z Z Z v c c Z v c c c z a 5 5 5 0 r r z C C C 5.O.[ W L K ",
"K K L Q [ &.3.$.C c z z c c c V A A A A A A A A A A A A Z C h Z A A h V Z v c c c v c c c z k 0 5 5 5 0 r r v C C ^ 3.=.[ W L B ",
"K K U W [ &.3.;.Z v k k z c c c C A A A A A A A A A A A A A A A A A A A Z c c c c c c c z z f 5 5 5 5 w r r v Z C &.<.&.[ W K K ",
"K K L W [ &.3.8.C C f k z c c c c C A A A A A A A A A A A A A A A A A n c c c c c c c c z k 0 5 5 5 5 e r s C C C y.:.X.] U L N ",
"K K L W Q X.:.a.Z C k k z k z c c c V Z A A A A A A A A A A A A A A V c c c c c c c c z k e 5 5 5 5 0 r r k C C D c.:.| ! U m l ",
"K N L U ! X.:.n.I C k f k d k c c c c v Z Z A A Z A A A A A A A V v c z c c c c c c z k a 5 5 5 5 5 w r s v C C ) 5.=.} Q U N m ",
"N K L U W } =.4.{ C v f f k q k c c c c c c C Z A A A A A A V c c c c c c c c c c z k s 6 5 5 5 5 5 r r f V C C ,.3.&.[ W U K K ",
"N K K L W ] X.<.w.C C k s f a q j z c c c c c c c c v c c c c c c c c c c c c z z k a 0 5 5 5 5 5 e r s v C C S c.:.O.] W K K K ",
"K N K L U ! X.;.9.Y C v s s s w 0 d z c c c c c c c c z c c c c c c c c c c z k f r 5 5 5 5 5 5 0 r r f V C C  .4.=.} ! U m N N ",
"B K K K P Q } &.4.:.C V k r s a 0 0 a k z z c c c c c c c c c c c c c z z z k f e 5 5 5 5 5 5 6 e r r z C C C i.:.&.[ W U K l h ",
"B B K K K Q [ | -.b.S C v s r s r 6 5 5 a k k z z c z c c z c z z z z k f f e 0 5 5 5 5 5 5 5 e r r k S C C &.5.=.X.! W K K B N ",
"M N B B K U Q } =.5.o.Z C v r r r w 5 5 0 e f k k z z z z z z k k f f s e 0 5 5 5 5 5 5 5 5 w r r s V C C Z n.-.X.] W L m m N K ",
"m m N B K P K Q X.:.n.) C C c r r r e r r e w 5 0 e r a a s s e e w 0 5 5 5 5 5 5 5 5 5 5 w r s r v C C S 2.3.X.} ! W K m b N K ",
"K N B B K K m U [ =.3.f.S C C k s r r r 5 5 5 5 5 5 5 5 5 5 5 5 5 5 5 5 5 5 5 5 5 5 5 0 r r r s c C C C &.3.:.X.! W L K K N N K ",
"K K K N B N K W ] X.=.3.-.Z C V z s r r r w 6 5 5 5 5 5 5 5 5 5 5 5 5 5 5 5 5 5 5 5 w r r r s v C C C ) b.=.$.[ W U K K K K K N ",
"N K K K N B K W W ] X.=.g.^ C C C z r r r r r 0 5 5 5 5 5 5 5 5 5 5 5 5 5 5 5 5 0 e r r r r v C C C D i.<.&.[ ! U K N K K K K N ",
"m N N N N B K U K B [ X.:.d.R C C C v s r r r r r w 0 5 5 5 5 5 5 5 5 5 5 6 w e r r r r k v C C C D i.3.=.} ! U U K K M l N K N ",
"N K N N B K K K K K Q } X.:.d.R C C C C z f r r r r r r r e w w w w w r r r r r r r f v C C C C R z.:.&.X.] W U K K K N N K K K ",
"B K B N K B K K K K U ! [ O.;.r.&.C C C C V z a r r s r r r r r r r r r r r s r f c S V C C C &.p.>.&.| ! W L N m N K B B K B K ",
"B K B K B K K B K K L W ! [ X.-.3.8.D Z C C C C v k f s s r r r r r r s s f z v C C C C Z Y 6.4.;.&.} ! W P L b h N B K K B B B ",
"K N N N B B K B B K K L W Q [ X.=.:.g. .Z C C C S C n v v v z z z c v v V C C C C C C C $.d.:.=.X.[ ! W U L K K B B K K K B K N ",
"N m b N N B B B B K K K L W W ] } O.=.3.y.&.C Z C C C C C C S C S C C C C C C C C S O.t.3.;.&.} [ Q U L L K N K K K K K K K K B ",
"B N N B K N m N K K K K K L U W ] [ X.=.;.<.r.7.X.S C C C C C C C C C C C C S X.7.e.3.;.&.X.[ ! W B K K K K N K K K K N K B B B ",
"K N m N B B N N K B K N K K L L W Q ] } | &.=.:.3.p.6.+.R I I G I Y G R  .8.p.8.<.;.&.X.[ ! Q U L N K K K K K K B K K K K B B K ",
"B B N m N N B K B B N g N K K K U U W Q ( } | X.&.=.&.&.:.<.<.<.3.<.:.:.:.:.-.=.O.| [ ! ! W U U L N K K K K K l m B B N B B B B ",
"K B N N N N N K K B m h N K K K K K L U W Q ! [ } [ | X.X.&.O.O.O.O.| X.X.X.} } ] ! ! W U K K K K K K N K K K l m B B J B K K B ",
"K B N B B J N N B N N N N K B K K N K L U U U W Q U Q ~ ] ] ] ] ] ] ] ] ] ! ! Q W W L U K K K B K B B K K N N N K K K m K K B N ",
"K N N B K B N K B N b N K K N K K N N K K K K U P P U W W W W W W U W W W W W L L K K K K K K B K K K B K K N K N K K K K K K h ",
"K B K K B K B K B N B B B B K B N N K K K K K K L K K U L L B L L L L K L L K L m u B K K K K K B K K B N N N N K N K N N K B B ",
"K K K B K K K K B N B K N N N N h N N N K K K N K K K N K K K K B K K K K K K K B b K K K K B K B B K K K N N J N K N K N y h N "
};
