/* XPM */
static char *_4390994dd434cf9e444af5e7cc8ca1bVhxU8oahZ7twRkYD[] = {
/* columns rows colors chars-per-pixel */
"64 64 57 1 ",
"  c #F29921",
". c #F29920",
"X c #F2971D",
"o c #F2981E",
"O c #F2961A",
"+ c #F19211",
"@ c #F29519",
"# c #F19417",
"$ c #F19416",
"% c #F2971C",
"& c #F2981F",
"* c #F19110",
"= c #F18E09",
"- c #F18D08",
"; c #F08B03",
": c #F19313",
"> c #F2961B",
", c #F08500",
"< c #EE7700",
"1 c #F08700",
"2 c #F19518",
"3 c #F19314",
"4 c #F08900",
"5 c #F18F0C",
"6 c #E42A00",
"7 c #ED7500",
"8 c #F1900D",
"9 c #F19212",
"0 c #F18F0B",
"q c #F19415",
"w c #F1910F",
"e c #E74500",
"r c #EF8100",
"t c #F1900E",
"y c #F18E0A",
"u c #F08800",
"i c #ED6E00",
"p c #F08A00",
"a c #F08D07",
"s c #EF8300",
"d c #F08C06",
"f c #F08A01",
"g c #F08C05",
"h c #F08B02",
"j c #EF8000",
"k c #F08600",
"l c #EF8400",
"z c #F2971E",
"x c #EE7C00",
"c c #EC6E00",
"v c #EC6900",
"b c #EE7900",
"n c #EF8500",
"m c #EB6600",
"M c #EF7F00",
"N c #F2961C",
"B c #F2951A",
/* pixels */
"   .XX.oXO+@#$% .Xo&.X*=-*O&.. .OO@;:#O>%          .&. .  .#,XXX",
"<1>OX&oX>2>o3*#.X#Oo.oO$@>##X&O452:2%2$>.  o.   & .&.    X%%:XoX",
"67XXo&ooX$8&99OX#%X&.&oooX$:%XX=0qO.ow:%oo&&#*9OX*O..   &oo&oX&&",
"er. &&&XO35X9#X%#.....XOXO2@@:X5t2X@X9$OO%2X:y5@X*>     Xo...X&o",
"4$  . &Oq$%O3@XXX&X&.X>3O2>2t5%-:&>:>XX#$Ou9#39$XXo&    XX.&o.o>",
"Xo... .XX&o2$@%X&o+>X>%o>X@-,qo..  &%X&%#2ipOX:;X@2X    &&&oX&o%",
"@%   .&XO#qa2%>%.oX.    .=*%2&XXXX  &XX&o>%X&&X%X32X .   &ooXoo&",
"&& &@.&%%XOOXo&&.X%o&&oXo@OX& &O#>  ....:sX&&%2X%Xo&&.  .&o..&&&",
"   .X oXX&X.XX%OO:-aq%:%o%XXO:X>@>&&#+3@q=o..O$X@&+atX%.Xo.  &&.",
"   .X@2>O2> XXX>O*usd*f>&@OXO9%:q%>95y:O%o.##2OX2&+=w@3oo&.. o& ",
"  .o>8:@2qO.&...o#-1g5h%&@@X&O$8:O$=d*OX>%&w+2XX>.XO@#qo..&. &. ",
"  .oX5O%Xo@oo. &XX&XO%.o.&XXo2yOO3:@g:2$:+>2O@2X& .>#OXoo&.   ..",
"   .oO&>>9jX ..XO.    ...  X$8$%#-fXX5*@X  &8fyX%.  &%O%&&o.  %o",
"   o##X&.o2.  &X&.t@o#+.X&&X2qqX=g@@Xkf$X@&XO5g#%X+t#&.. X%o&.&.",
" .oXX9>&..    %@.&wO>8f29%Oq#q>X8;0tq0w2#y&9$td@Xo@q@. ..%O%@&..",
"XX@:X$@Xoo&q>::O%&O%>:8:*q:9#O>X35tq@%+w$*@q95=wX.X#$...&XXX%.  ",
"O@3wq9$O$9X0q09oO..o2q2tqqq$q*#%>@O@&o*8#@#Xw8wgX.X##.&&&. .    ",
"Xqq%*;:$apo32>X&.. %w09g#o>#9l#o.&2-X%%X@3.Xt9@5>o&oz..&o.   .  ",
"&q:X>X2yy$%o.&XXX>.dy%O0X%;f>0$Xoo@d#X& .  %>>2:$#O39X. XX..   &",
"o5rx=k4+X&..  2+#t25+%@%.X#2.X2%X%2$>&.&o.o&&XX>;:X&>q&od5X.    ",
"@gu-$tt2& ... %2%3OO%X>& .oo..*:3q@XXX&.oXX..XXo:+> &%X&q#X...  ",
">99XX-*@oOy@w:2>&>%%X&o&o.o%X&:+3::&oO%X%%%o%%o.X@X..&o.oo&...  ",
".Xwd&d5q%@a2440$XX22%..XX.XOXo%@$t=X.y5$>%XoO@X o.X%X...&&&.&   ",
" Orc X+:O& .yuh9OXq@X&.XX&X>XX&o:ggO>1u+XoX&o@#.X.O$@o..XXXXo>& ",
"&qxv    oX o&@#%& o.  .%$XX$+@Xqtt3Od$XO@ .&&&& .&&.%qX%#%XO&h2.",
"92>#>o..&&.%+@29>&.....&:X.>32X$$2#@2o&oo&.&oXX&#3%.&X&oXooo XXo",
"@X .&&@%& .@+2%X&.   .&.>o.o%XXX++XOo..&&. X##%ota#o&..&%q:@X...",
"o&    %X.&O#2O%o     .o&&@>&..&.#$X%..oo..&:93$O9y2&o& &X@2%X. .",
"X  ..&&..X#@ooXo  . .%:@&#2X  ..oXX2qq@XXOoy:@3t**>&oo &&&&.&.  ",
"@%>X&XX&o%>o. &X&.  .$h*oX@OX... .Xq-y$X>q.52.@=53XX>o.Xo..o    ",
"X8=2&@$>oX&   O3X.  &#=*o X$q    &XXqoXX.o o&..&. oq+O&OX.%#&...",
"oo@3X.&.Oq    .X%  .&>qX&  .&.oXoX%.%X&...&XO22@o.XXoX%>o&%2XX&&",
"%.X%&>X.X>.    &%OqOo%3. *:XX &&X>X.oX>Oq-$X>OO2&O>>%&&&&&>$&.&&",
"$XX%.XqOoo. Xo..oX@Xo%> X3$Xo ..oXX.%X2228>o%%@*XX%%Xo  .&o%&oXo",
"2X&X .:3>o.&XXX>>>o.oXo.X>2#q8>XXX>&$X#9q>..XX@+>o%XoX.Xoo. .X>X",
"o.    >#2%oX.o3==:o&X%X&&O$+fb*#>>O.:>@*wo. .X%>OXXX%@%@%Xo  &%X",
"&.     .XOOX.%0nl$&&#:%.X2>21my2OX .O@XX@>o.&&&&o&.o#*3Oo%%  %>%",
"  .. ...o%@$XX>OXo X::& ot3o>*a9>&. X.&X%.%>XoOqo.  o>XXX@2& XX>",
"  .X2&. XOX>X&X%X&..O$X .XXoX%#gp* .qo.&oX#w@&XO&OXX%X&..&XXXo9u",
"%X &>&o&X2:Xo.XO%o%@O%X    .X3wt-* &2o  o#X3q%o>XX&X$3X&.&ooX&@*",
"%o .XoXXX>qOo&X>>otw2XX .  &>$:O#@..X. .X$>@qO&XXo&o@q%Xo&&...&.",
".&&&X%XX&&o@X&oX%o0*2XX.>o&XOXXXXoo... o>O2%@>&X>>X.&X%XX&...@X.",
" XX&o>&..   o&  .X&Xo.oo*%XOXoO$OXXXoo.%q#X.XXX2t$X..oXo... .0qX",
"&  X$.&Xo  o.  &Xo.o&X#%Oo&o&oyd:&&O>%&#4M=>&. . >o&%O&X&..  o4y",
"o. .X  22. . X@$$.&>##X@#o ...%%Xo&Xoo.X#q$%&&o&.o&@qX......%.>X",
"$2Xoo&&XX   .oX>#XXX%X&@%& ..o&.%2OXX&.%:0OOX.oX...X$:%9O&&X*9X ",
"$2%%oX=9o     .X29X&..&%X.  .%%%O2OXoo&X35@#X oOO..o@+X9>&&X3t%.",
"XoX%&>fto ..  .oO9X&..&oX&&&oO#qOXX@.o&.XO%2X o22&&X@9X>o..&o#X.",
"  .oX#o .&XX&   ..&&..o..o>O%%3:%&@t&.     Xo.XO .>O#+$%&&&&&. .",
"&. .%X& XOX3>& .oX&.&X%.X$+qo.XX.2y+&   .&& .&.& .=wo@3&&>OX.&.X",
"2@oo#X..+gXoX&  &@oXX.. .22X.Xo&.oXo .O>&%. .&& &.XX..&..&XqdX.o",
">XXOX&  2+X .ooo@0#X..X%%Xo.&X&X&..  3qX.o.:#22 .&@> &X.&&&X#. .",
"& oX.. .X>&  &oX@:Oo.&oXX& .&o.&.    qy+.  2qq@  .>Xo>%++O..    ",
" .&....oXX .  .oXX>oXX..X&.&..    .&X>a5  .&@@X   ..XO&88@ . . o",
".%OoX..o&..&    &X:>%>&&>oXX    .&X>:Oq2  &XooX.  ...&.X%o   . %",
"o:wO>..&& .. ...&%9@oo%X@o%>.   o@3+aqX...    &X.&Xo .X..      .",
" XX..>3>    .&.  .o&Xq5XXo23@>@&.X%X#t2.oO No .o.*O  .X.     &. ",
" @q>.o%o...2o.&&  ..o>#OO>jb#X$X&X%&o%X&.o.%XXXo.3%   ..  .. &&.",
" X2#XOo..o#d@&&&.&. .&o>>>h4%&%o.%q@&..... XoXX& Xo.  .d:o.o..&&",
" &%O%$X..X$-O&..&XX. .oXo:2&.    %q2&  .&& o&&o&  .. .&;9oo>& .o",
" X>&&@>&.XO>.  .&%>& &Xo&09.  ...oX&   .&o.&. &X.   .&oo. X@. .O",
" %>  &&.X2*@& ...%%&.&&..B%. .o&.oX&.   .X .. .o&  .&oXX&.  . ow",
" .. .   o%X&   &%o&....X..   .2o .&X..  9jX     .  .oX#&.&&&XXoo",
"        oX. X>%$g@&...&X. oX. oo&...    >8&&. ..o.  .&X>o&&&Ox-%"
};
