/* XPM */
static char *xpm_[] = {
/* columns rows colors chars-per-pixel */
"64 64 135 2 ",
"   c black",
".  c #3E3020",
"X  c #453424",
"o  c #4A3726",
"O  c #4C3927",
"+  c #4B3728",
"@  c #4E3A2A",
"#  c #543E2C",
"$  c #583F2C",
"%  c #56402E",
"&  c #5A422E",
"*  c #5D4431",
"=  c #5E4834",
"-  c #614633",
";  c #644935",
":  c #694D37",
">  c #664C38",
",  c #684E3A",
"<  c #694E3A",
"1  c #6B4F3A",
"2  c #6B4F3B",
"3  c #6A4E38",
"4  c #6C4E38",
"5  c #6C4E39",
"6  c #6C4F39",
"7  c #6C4E3A",
"8  c #6C4F3A",
"9  c #6C4F3B",
"0  c #6D4F3B",
"q  c #6C4F3C",
"w  c #6A4E39",
"e  c #6B5039",
"r  c #6D5038",
"t  c #6C5039",
"y  c #6C5139",
"u  c #6F5138",
"i  c #6C503A",
"p  c #6D503A",
"a  c #6C513A",
"s  c #6D513A",
"d  c #6D503B",
"f  c #6D513B",
"g  c #6E503A",
"h  c #6E513A",
"j  c #6E503B",
"k  c #6F503B",
"l  c #6E513B",
"z  c #6F523B",
"x  c #6F533B",
"c  c #6A503C",
"v  c #6E503C",
"b  c #6E503D",
"n  c #6F513D",
"m  c #6F523C",
"M  c #6E523D",
"N  c #6F543F",
"B  c #6D513B",
"V  c #705139",
"C  c #705238",
"Z  c #70523A",
"A  c #70533A",
"S  c #70523B",
"D  c #70533B",
"F  c #72543A",
"G  c #70523C",
"H  c #70533C",
"J  c #71533C",
"K  c #71533D",
"L  c #71523E",
"P  c #71533E",
"I  c #73543C",
"U  c #72543D",
"Y  c #70543E",
"T  c #71543E",
"R  c #73553E",
"E  c #72543F",
"W  c #74553E",
"Q  c #74563E",
"!  c #75573F",
"~  c #76573F",
"^  c #77573F",
"/  c #72543D",
"(  c #73583F",
")  c #6F5340",
"_  c #6E5541",
"`  c #735640",
"'  c #745640",
"]  c #755640",
"[  c #765640",
"{  c #765641",
"}  c #775741",
"|  c #745641",
" . c #765840",
".. c #775840",
"X. c #775941",
"o. c #765942",
"O. c #765843",
"+. c #765943",
"@. c #795942",
"#. c #785A43",
"$. c #7B5B43",
"%. c #795B46",
"&. c #7F5D44",
"*. c #7C5E46",
"=. c #7E5F47",
"-. c #7A5B44",
";. c #765B49",
":. c #7F5E48",
">. c #7C5E4A",
",. c #7C5D48",
"<. c #7A604B",
"1. c #7E6148",
"2. c #7E614A",
"3. c #FF4F01",
"4. c #FF4F01",
"5. c #815F47",
"6. c #815F47",
"7. c #805F4A",
"8. c #805F49",
"9. c #84634B",
"0. c #80614D",
"q. c #83654E",
"w. c #85654D",
"e. c #83634C",
"r. c #876651",
"t. c #876A55",
"y. c #8E6C54",
"u. c #8B6B52",
"i. c #916E51",
"p. c #927359",
"a. c #95745D",
"s. c #93735B",
"d. c #2948B8",
"f. c #2948B8",
"g. c #FFC79F",
/* pixels */
"=.=.O 6 s * - * % ; 3 - & & & # s m : * ; * q ; - & * & - & ; 3 =.=.O 6 s * - * % ; 3 - & & & # s m : * ; * q ; - & * & - & ; 3 ",
"s e 3 ; - * - # % & & - - & # - s 3 3 - X 3 y.6 0.; - & ; # s : s e 3 ; - * - # % & & - - & # - s 3 3 - X 3 y.6 0.; - & ; # s : ",
"3 - 3 I s X - s 3 I ; + N s G & & & * 3 ; 3 * 3 3 # # # * # 3 3 3 - 3 I s X - s 3 I ; + N s G & & & * 3 ; 3 * 3 3 # # # * # 3 3 ",
"* s Z Z 9.& - 3 - ; :.# ^ 3 ; - Z 3 6 G ' 3 3 * s 3 I m 3 s = 3 * s Z Z 9.& - 3 - ; :.# ^ 3 ; - Z 3 6 G ' 3 3 * s 3 I m 3 s = 3 ",
"* : - 3 # X & - - * % & * * * G F I 3 ; ; $ > - 6 6 G 3 - - # @ * : - 3 # X & - - * % & * * * G F I 3 ; ; $ > - 6 6 G 3 - - # @ ",
"* - # * ; & * # - & ; ; 4 Z * - ; 3 $ X.G - * % ; m ; ; > ; * - * - # * ; & * # - & ; ; 4 Z * - ; 3 $ X.G - * % ; m ; ; > ; * - ",
"s & * ' 3 m m ; o - 6 6 3 s ; c s - ; > ^ - - * ; s 3 =.6 * 3 @.s & * ' 3 m m ; o - 6 6 3 s ; c s - ; > ^ - - * ; s 3 =.6 * 3 @.",
"; * I : 3 s m Z # I I %.@.G 6 w.@ X.^ * # - - s s 5.' ; 3     4 ; * d.: 3 s m Z # I I %.@.G 6 w.@ X.^ * # - - s s 5.' ; 3 > ) 4 ",
"- = a.7.- - * ; * s > :.m ^ ' ^ & s @.X.: # e s q.; ; - 3.    m - = d.7.- - * ; * s > :.m ^ ' ^ & s @.X.: # e s q.; ; - * * - m ",
"- % :.' & * * * - s 6 I X.^ 3 I * ' | > 2.* : X.p.- - * 3.    - - % d.' & * * * - s 6 I X.^ 3 I * ' | > 2.* : X.p.- - * * * | - ",
"; # s - 3 & ; : * ; 4 Z G Z I I * 3 @.- * # s 3 m - * - 3.    <.; # d.- 3 & ; : * ; 4 Z G Z I I * 3 @.- * # s 3 m - * - @ . 3 <.",
"= - 3 u.' 3 G - & 3 * 3 6 ; ;.2.@ * - 3 = * 3 X.- - & * 3.    t.= - d.u.' 3 G - & 3 * 3 6 ; ;.2.@ * - 3 = * 3 X.- - & * t.% | t.",
"= s G 3 & - - * @.3 # * ; * ;.- * * # e.; 3 % * @ *.m | 3.    = = s d.d.& - - * @.3 # * ; * ;.- * * # e.; 3 % * @ *.m | I - * = ",
"' 3 * & - # @ s 3 s ,.* * * - ; 3 ; 3 - * = I -.- ;.| = 3.    * ' 3 d.d.- # @ s 3 s ,.* * g.- ; 3 ; 3 - * = I -.- ;.| = = - @ * ",
"I > * & ; ' * ; ' N ' | * @ I ' | G | ; @ | s > ; m ; g.3.    s I > d.d.; ' * ; ' N ' | * g.I ' | G | ; @ | s > ; m ; * - # X s ",
"- $ # & 6 I - ; m 3 - ; * 3 u.s.r.r.G m # I @.= - - - g.3.    - - $ d.d.6 I - 3.m 3 - ; * g.u.s.r.r.G m # I @.= - - - - 3 ; * - ",
"- # ^ # 3 - 3 > m 3 : $ # : X.| ; > > q # 3 g.* * * s g.3.    * - # d.d.d.- 3 3.m 3 : $ # g.X.| ; > > q # 3 q * * * s 3 - * G * ",
"& * - & 3 - :.* 3 s - * * s ' * # * 3 * @ % g.& & 6 6 g.3.3.  3.& * d.d.d.- :.3.3 s - * * g.' * # * 3 * @ % * & & 6 6 - * * ; X ",
"X.3 - # @.; & o - m * * & m I 3 * * 3 # # 6 g.; ; g.* g.3.3.  3.X.3 d.d.d.; & 3.- m * * & g.I 3 * * 3 # # 6 s ; ; 6 * # # - & * ",
"I m - * @ - # # # ; * % ; * G * * # # & 3 s g.m ; g.- g.3.3.  3.I m d.d.d.- # 3.3.; * % ; g.G * * # # & 3 s s m ; i.- s 3 s * - ",
"& _ m * . & ^ s I * @ ; G I @ @ * - s I G s g.7.3 g.G g.3.3.  3.& _ d.d.d.& ^ 3.3.* @ ; G g.@ @ * - s I G s ; 7.3 * G ; 3 ; *.3 ",
"* ;.; % O ; s ^ ; 3 # s ; X.- ; s s s ; I =.g.6 # g.3 g.3.3.  3.* ;.d.d.d.; s 3.3.3 # s g.g.- ; s s s ; I =.3 6 # s 3 * & # # & ",
"* & * 3 X.& - - ; ; - ; - : ; * - 3 3 - - 6 g.g.s g.- g.3.3.  3.* & d.d.d.& - 3.3.; - ; g.g.; * - 3 3 - - 6 # # s > - & # # @ % ",
"3 = s 3 3 3 ; - & * # 6 & ; * &.# 3 3 * > > g.g.g.g.% g.3.3.  3.3 = d.d.d.3 3.3.3.* # 6 g.g.* &.# 3 3 * > > # * s * % # # 3 & % ",
"- * X.3 e * s - - # * - # ; * - - - ; * * * g.g.g.g.# g.3.3.3.3.- * d.d.d.* 3.3.3.# * - g.g.* - - - ; * * * * % - * # u.@.' - ; ",
"& * - e & s ; ^ - - s ^ Z o - 3 ' @.m % - N g.g.g.g.3 g.3.3.3.3.& * d.d.d.s 3.3.3.- s ^ g.g.- 3 ' @.m % - N ( N e e 3 @.3 # 3 :.",
"% * * * * * & & _ ^ 3 ;.- I 3 ; m ,.@.* N I g.g.g.g.e g.3.3.3.3.% * d.d.d.* 3.3.3.^ 3 ;.g.g.3 ; m ,.@.* N I * * * ;.e 3 # # 3 6 ",
"% * @ s - * * o &.; * - ^ m & & * - * > I * g.g.g.g.* g.3.3.3.3.% * d.d.d.* 3.3.3.; * - g.g.& & * - * > I * - * * * * | > # ; e ",
"* % X * 3 & m I ; * - * 3 - - - & - : % X.* g.g.g.g.> g.3.3.3.3.* % d.d.d.& 3.3.3.* - * g.g.- - & - : % X.* > - * ; > ;.> * # 3 ",
"# @ # - & * & 3 3 - & # ; # * * @ # > > > > * g.g.g.: g.3.3.3.3.# @ d.d.d.* 3.3.3.- & # g.g.* * @ # > > > > * * 3 + : - * o # & ",
"; * * ; - * * m - * * 6 s ; @.6 & 3 p.N # @ # g.* g.& 3.3.3.3.3.; * d.d.d.* 3.3.3.* * 6 g.; @.6 & 3 p.N # @ # # * & & @ - # - - ",
"| 3 # 3 m ; 3 - % # ' s ; =.m # - X.=.Z = * > g.; g.- 3.3.3.3.3.| 3 d.d.d.; 3.3.3.# ' s g.=.m # - X.=.Z = * > s ; ; - * ; ; - 6 ",
"=.=.O 6 s * - * % ; 3 - & & & # s m : * ; * q g.- g.* 3.3.3.3.3.=.=.d.d.d.* 3.3.3.; 3 - g.& & # s m : * ; * q ; - & * & - & ; 3 ",
"s e 3 ; - * - # % & & - - & # - s 3 3 - X 3 y.g.0.g.- 3.3.3.3.3.s e d.; d.* 3.3.3.& & - g.& # - s 3 3 - X 3 y.6 0.; - & ; # s : ",
"3 - 3 I s X - s 3 I ; + N s G & & & * 3 ; g.* g.3 g.# 3.3.3.3.3.3 - d.I d.X 3.3.3.I ; + g.s G & & & * 3 ; 3 * 3 3 # # # * # 3 3 ",
"* s Z Z 9.& - 3 - ; :.# ^ 3 ; - Z 3 6 G ' g.3 * s g.I 3.3.3.3.3.* s d.Z d.& 3.3.3.; :.# g.3 ; - Z 3 6 G ' 3 3 * s 3 I m 3 s = 3 ",
"* : - 3 # X & - - * % & * * * G F I 3 ; ; g.> - 6 g.G 3.3.3.3.3.* : d.3 d.X 3.3.3.* % & g.* * G F I 3 ; ; $ > - 6 6 G 3 - - # @ ",
"* - # * ; & * # - & ; ; 4 Z * - ; 3 $ X.G g.* % ; m ; 3.3.3.3.3.* - d.* d.& 3.3.3.& ; ; g.Z * - ; 3 $ X.G - * % ; m ; ; : ; * - ",
"s & * ' 3 m m ; o - 6 6 3 s ; c s - ; > ^ g.- * ; s 3 3.3.3.3.3.s & d.' 3 m 3.3.3.- 6 6 g.s ; c s - ; > ^ - - * ; s 3 =.6 * 3 @.",
"; * I : 3 s m Z # I I %.@.G 6 w.@ X.^ * # g.- s s 5.' 3.3.3.3.3.; * d.: 3 s 3.3.3.I I %.g.G 6 w.@ X.^ * # - - s s 5.' ; 3 > ` 4 ",
"- = a.7.- - * ; * s > :.m ^ ' ^ & s @.X.: g.e s q.; ; 3.3.3.3.3.- = d.7.- - 3.3.3.s > :.m ^ ' ^ & s @.X.: # e s q.; ; - * * - m ",
"- % :.' & * * * - s 6 I X.^ 3 I * ' | > 2.g.: X.p.- - 3.3.3.3.3.- % d.' & * 3.3.3.s 6 I X.^ 3 I * ' | > 2.* : X.p.- - * * * | - ",
"; # s - 3 & ; : * : 4 Z G Z I I * 3 @.- * # s 3 m - * 3.3.3.3.3.; # d.- 3 & 3.: 3.; 4 Z G Z I I * 3 @.- * # s 3 m - * - @ . 3 <.",
"= - 3 u.' 3 G - & 3 * 3 6 ; ;.2.@ * - 3 = * 3 X.- - & 3.3.3.3.3.= - d.u.' 3 3.- 3.3 * 3 6 ; ;.2.@ * - 3 = * 3 X.- - & * t.% | t.",
"= s G 3 & - - * @.3 # * ; * ;.- * * # e.; 3 % * @ *.m 3.3.3.3.3.= s d.3 & - 3.* 3.3 # * ; * ;.- * * # e.; 3 % * @ *.m | I - * = ",
"' 3 * & - # @ s 3 s ,.* * * - ; 3 ; 3 - * = I -.- ;.| 3.3.3.3.3.' 3 d.& - # 3.s 3.s ,.* * * - ; 3 ; 3 - * = I -.> ;.| = = - @ * ",
"I > * & ; ' * ; ' N ' | * @ I ' | G | ; @ | s > ; m ; 3.3.3.X 3.I > d.& ; ' * ; 3.N ' | * @ I ' | G | ; @ | s > ; m ; * - # X s ",
"- $ # & 6 I - ; m 3 - ; * 3 u.s.r.r.G m # I @.= - - - 3.3.3.* 3.- $ d.& 6 I - ; 3.3 - ; * 3 u.s.r.r.G m # I @.= - - - - 3 ; * - ",
"- # ^ # 3 - 3 > m 3 : $ # : X.| ; > > q # 3 q * * * s 3.3.3.G 3.- # d.# 3 - 3 > 3.3 : $ # : X.| ; > > q # 3 q * * * s 3 - * G * ",
"& * - & 3 - :.* 3 s - * * s ' * # * 3 * @ % * & & 6 6 3.3.3.; 3.& * d.& 3 - :.* 3 s - * * s ' * # * 3 * @ % * & & 6 6 - * * ; X ",
"X.3 - # @.; & o - m * * & m I 3 * * 3 # # 6 s ; ; 6 * 3.3.3.& * X.3 d.# @.; & o - m * * & m I 3 * * 3 # # 6 s ; ; 6 * # # - & * ",
"I m - * @ - # # # ; * % ; * G * * # # & 3 s s m ; i.- 3.3.3.* - I m d.* @ - # # # ; * % ; * G * * # # & 3 s s m ; i.- s 3 s * - ",
"& _ m * . & ^ s I * @ ; G I @ @ * - s I G s ; 7.3 * G 3.3.3.*.3 & _ d.* . & ^ s I * @ ; G I @ @ * - s I G s ; 7.3 * G ; 3 ; *.3 ",
"* ;.; % O ; s ^ ; 3 # s ; X.- ; s s s ; I =.3 6 # s 3 3.3.3.# & * ;.d.% O ; s ^ ; 3 # s ; X.- ; s s s ; I =.3 6 # s 3 * & # # & ",
"* & * 3 X.& - - ; ; - ; - : ; * - 3 3 - - 6 # # s > - 3.3.3.@ % * & d.3 X.& - - ; ; - ; - : ; * - 3 3 - - 6 # # s > - & # # @ % ",
"3 = s 3 3 3 ; - & * # 6 & ; * &.# 3 3 * > > # * s * % 3.3.3.& % 3 = s 3 3 3 ; - & * # 6 & ; * &.# 3 3 * > > # * s * % # # 3 & % ",
"- * X.3 e * s - - # * - # ; * - - - ; * * * * % - * # 3.@.' - ; - * X.3 e * s - - # * - # ; * - - - ; * * * * % - * # u.@.' - ; ",
"& * ; e & s ; ^ - - s ^ Z o - 3 ' @.m % - N ( N e e 3 3.3 # 3 :.& * ; e & s ; ^ - - s ^ Z o - 3 ' @.m % - N ( N e e 3 @.3 # 3 :.",
"% * * * * * & & _ ^ 3 ;.- I 3 ; m ,.@.* N I * * * ;.e 3 # # 3 6 % * * * * * & & _ ^ 3 ;.- I 3 ; m ,.@.* N I * * * ;.e 3 # # 3 6 ",
"% * @ s - * * o &.; * - ^ m & & * - * > I * - * * * * | > # ; 3 % * @ s - * * o &.; * - ^ m & & * - * > I * - * * * * | > # ; 3 ",
"* % X * 3 & m I ; * - * 3 - - - & - : % X.* > - * ; > ;.> * # 3 * % X * 3 & m I ; * - * 3 - - - & - : % X.* > - * ; > ;.> * # 3 ",
"# @ # - & * & 3 3 - & # ; # * * @ # > > > > * * 3 + : - * o # & # @ # - & * & 3 3 - & # ; # * * @ # > > > > * * 3 + : - * o # & ",
"; * * ; - * * m - * * 6 s ; @.6 & 3 p.N # @ # # * & & @ - # - - ; * * ; - * * m - * * 6 s ; @.6 & 3 p.N # @ # # * & & @ - # - - ",
"| 3 # 3 m ; 3 - % # ' s ; =.m # - X.=.Z = * > s ; ; - * ; ; - 6 | 3 # 3 m ; 3 - % # ' s ; =.m # - X.=.Z = * > s ; ; - * ; ; - 6 "
};
