/* XPM */
static char *xpm_[] = {
/* columns rows colors chars-per-pixel */
"64 64 144 2 ",
"   c black",
".  c #3F3021",
"X  c #463424",
"o  c #4A3726",
"O  c #4C3926",
"+  c #4B3728",
"@  c #4E3A2A",
"#  c #543E2C",
"$  c #583F2C",
"%  c #56412E",
"&  c #5A422E",
"*  c #5D4431",
"=  c #5E4834",
"-  c #614633",
";  c #644935",
":  c #694D37",
">  c #664C38",
",  c #684D38",
"<  c #694C39",
"1  c #694D39",
"2  c #684C38",
"3  c #6A4D38",
"4  c #6A4D39",
"5  c #684F38",
"6  c #684F39",
"7  c #6A4E38",
"8  c #6B4E38",
"9  c #6A4E39",
"0  c #6B4E39",
"q  c #684E3A",
"w  c #694E3A",
"e  c #6B4F3A",
"r  c #6B4F3B",
"t  c #6C4E38",
"y  c #6C4E39",
"u  c #6C4F39",
"i  c #6C4E3A",
"p  c #6C4F3A",
"a  c #6C4F3B",
"s  c #6D4F3B",
"d  c #6C4F3C",
"f  c #6A4E39",
"g  c #6B5039",
"h  c #6D5038",
"j  c #6C5039",
"k  c #6C5139",
"l  c #6F5138",
"z  c #6C503A",
"x  c #6D503A",
"c  c #6C513A",
"v  c #6D513A",
"b  c #6D503B",
"n  c #6D513B",
"m  c #6E503A",
"M  c #6E513A",
"N  c #6E503B",
"B  c #6F503B",
"V  c #6E513B",
"C  c #6F523B",
"Z  c #6F533B",
"A  c #6A503C",
"S  c #6E503C",
"D  c #6E503D",
"F  c #6F513D",
"G  c #6F523C",
"H  c #6E523D",
"J  c #6F543F",
"K  c #6E513B",
"L  c #705139",
"P  c #705238",
"I  c #70523A",
"U  c #70533A",
"Y  c #70523B",
"T  c #70533B",
"R  c #72543A",
"E  c #70523C",
"W  c #70533C",
"Q  c #71533C",
"!  c #71533D",
"~  c #71523E",
"^  c #71533E",
"/  c #73543C",
"(  c #72543D",
")  c #70543E",
"_  c #71543E",
"`  c #73553E",
"'  c #72543F",
"]  c #74553E",
"[  c #74563E",
"{  c #75573F",
"}  c #76573F",
"|  c #77573F",
" . c #72543D",
".. c #73583F",
"X. c #6F5340",
"o. c #6E5541",
"O. c #735640",
"+. c #745640",
"@. c #755640",
"#. c #765640",
"$. c #765641",
"%. c #775741",
"&. c #745641",
"*. c #765840",
"=. c #775840",
"-. c #775941",
";. c #765942",
":. c #765843",
">. c #765943",
",. c #795942",
"<. c #785A43",
"1. c #7B5B43",
"2. c #795B46",
"3. c #7F5D44",
"4. c #7C5E46",
"5. c #7E5F47",
"6. c #7A5B43",
"7. c #765B49",
"8. c #7F5E48",
"9. c #7C5E4A",
"0. c #7C5D48",
"q. c #7A604B",
"w. c #7E6148",
"e. c #7E614A",
"r. c #FF4F01",
"t. c #815F47",
"y. c #815F47",
"u. c #805F4A",
"i. c #805F49",
"p. c #84634B",
"a. c #80614D",
"s. c #83654E",
"d. c #85654D",
"f. c #83634C",
"g. c #876651",
"h. c #866A54",
"j. c #8E6C54",
"k. c #8B6B52",
"l. c #916E51",
"z. c #927359",
"x. c #95745D",
"c. c #93735B",
"v. c #2948B8",
"b. c #FFC79F",
/* pixels */
"5.5.O u v * - * % ; 7 - & & & # v G 2 * ; * d ; - & * & - & ; 7 5.5.O u v * - * % ; 7 - & & & # v G 2 * ; * d ; - & * & - & ; 7 ",
"v g 7 ; - * - # % & & - - & # - v 7 7 - X 7 j.u a.; - & ; # v : v g 7 ; - * - # % & & - - & # - v 7 7 - X 7 j.u a.; - & ; # v : ",
"7 - 7 / v X - v 7 / ; + J v E & & & * 7 ; 7 * 7 7 # # # * # 7 7 7 - 7 / v X - v 7 / ; + J v E & & & * 7 ; 7 * 7 7 # # # * # 7 7 ",
"* v I I p.& - 7 - ; 8.# | 7 ; - I 7 u E +.7 7 * v 7 / G 7 v = 7 * v I I p.& - 7 - ; 8.# | 7 ; - I 7 u E +.7 7 * v 7 / G 7 v = 7 ",
"* 2 - 7 # X & - - * % & * * * E R / 7 ; ; $ > - u u E 7 - - # @ * 2 - 7 # X & - - * % & * * * E R / 7 ; ; $ > - u u E 7 - - # @ ",
"* - # * ; & * # - & ; ; t I * - ; 7 $ -.E - * % ; G ; ; > ; * - * - # * ; & * # - & ; ; t I * - ; 7 $ -.E - * % ; G ; ; > ; * - ",
"v & * +.7 G G ; o - u u 7 v ; A v - ; > | - - * ; v 7 5.u * 7     & * +.7 G G ; o - u u 7 v ; A v - ; > | - - * ; v 7 5.u * 7 ,.",
"; * / 2 7 v G I # / / 2.,.E u d.@ -.| * # - - v v t.+.; 7 > X.    * / 2 7 v G I # / / 2.,.E u d.@ -.| * # - - v v t.+.; 7 > X.t ",
"- = x.u.- - * ; * v > 8.G | +.| & v ,.-.: # g v s.; ; - * * -     = x.u.- - * ; * v > 8.G | +.| & v ,.-.: # g v s.; ; - * * - G ",
"- % 8.+.& * * * - v u / -.| 7 / * +.&.> e.* : -.z.- - * * = &.    % 8.+.& * * * - v u / -.| 7 / * +.&.> e.* : -.z.- - * * * &.- ",
"; # v - 7 & ; 2 * ; t I E I / / * 7 ,.- * # v 7 G - * - @ . 7     # v - 7 & ; 2 * ; t I E I / / * 7 ,.- * # v 7 G - * - @ . 7 q.",
"= - 7 k.+.7 E - & 7 * 7 u ; 7.e.@ * - > = * 7 -.- - & * h.% &.    - 7 k.+.7 E - & 7 * 7 u ; 7.e.@ * - 7 = * 7 -.- - & * h.% &.h.",
"= v E 7 & - - * ,.7 # * ; * 7.- * * # f.; 7 % * @ 4.G &./ - *   = v E 7 & - - * ,.7 # * ; * 7.- * * # f.; 7 % * @ 4.G &./ - * = ",
"+.7 * & - # @ v 7 v 0.* * * - ; 7 ; 7 - * = / 6.- 7.&.b.= - @   +.7 * & - # @ v 7 v 0.* * b.- ; 7 ; 7 - * = / 6.- 7.&.= = - @ * ",
"/ > * & ; +.* ; +.J +.&.* @ / +.&.E &.; @ &.v > ; G ; b.- # X   / > * & v.+.* ; +.J +.&.* b./ +.&.E &.; @ &.v > ; G ; * - # X v ",
"- $ # & u / - ; G 7 - ; * 7 k.c.g.g.E G # b.,.= - - - b.7 ; *   - $ # & v./ - ; G r.- ; * b.k.c.g.g.E G # / ,.= - - - - 7 ; * - ",
"- # | # 7 - 7 > G 7 2 $ # 2 -.&.; > > d # b.d * * * v b.- * E   - # | # v.- r.> G r.2 $ # b.-.&.; > > d # 7 d * * * v 7 - * E * ",
"& * - & 7 - 8.* 7 v - * * v +.* # * 7 * @ b.* & & b.u b.* * ;   & * - & v.- r.* 7 r.- * * b.+.* # * 7 * @ % * & & u u - * * ; X ",
"-.7 - # ,.; & o - G * * & G / 7 * * 7 # # b.v ; ; b.* b.# - &   -.7 - # v.; r.o - r.* * & b./ 7 * * 7 # # u v ; ; u * # # - & * ",
"/ G - * @ - # # # ; * % ; * E * * # # & 7 b.v G ; b.- b.7 v * -   G - * v.- r.# # r.r.% ; b.E * * # # & 7 v v G ; l.- v 7 v * - ",
"& o.G * . & | v / * @ ; E / @ @ * - v / E b.; u.7 b.E b.7 ; 4.7   o.G * v.& r.v / r.r.; E b.@ @ * - v / E v ; u.7 * E ; 7 ; 4.7 ",
"* 7.; % O ; v | ; 7 # v ; -.- ; v v v ; / b.b.u # b.7 b.& # # &   7.; % v.; r.| ; r.r.v ; b.- ; v v v ; / 5.7 u # v 7 * & # # & ",
"* & * 7 -.& - - ; ; - ; - 2 ; * - 7 7 - - b.b.# v b.- b.# # @ %   & * 7 v.& r.- ; r.r.; - b.; * - 7 7 - - u # # v > - & # # @ % ",
"7 = v 7 7 7 ; - & * # u & ; * 3.# 7 7 * > b.b.* v b.% b.# 7 & %   = v 7 v.7 r.- r.r.r.u & b.* 3.# 7 7 * > > # * v * % # # 7 & % ",
"- * -.7 g * v - - # * - # ; * - - - ; * * b.b.% - b.# b.,.+.- ; v.* -.7 v.* r.- r.r.r.- # b.* - - - ; * * * * % - * # k.,.+.- ; ",
"& * - g & v ; | - - v | I o - 7 +.,.G % - b.b.J g b.7 b.7 # 7 8.v.* ; g v.v r.| r.r.r.| I b.- 7 +.,.G % - J ..J g g 7 ,.7 # 7 8.",
"% * * * * * & & o.+.7 7.- / 7 ; G 0.,.* J b.b.* * b.g b.# # 7 u v.* * * v.* r.& r.r.r.7.- b.7 ; G 0.,.* J / * * * 7.g 7 # # 7 u ",
"% * @ v - * * o 3.; * - | G & & * - * > / b.b.* * b.* b.> # ; 7 v.* @ v v.* r.o r.r.r.- | b.& & * - * > / * - * * * * &.> # ; 7 ",
"* % X * 7 & G / ; * - * 7 - - - & - : % -.* > b.* b.> b.> * # 7 v.% X * v.& r./ r.r.r.* 7 b.- - & - : % -.* > - * ; > 7.> * # 7 ",
"# @ # - & * & 7 7 - & # ; # * * @ # > > > > * * 7 b.: r.* o # & v.@ # - & r.r.7 r.r.r.# ; b.* * @ # > > > > * * 7 + : - * o # & ",
"; * * ; - * * G - * * u v ; ,.u & 7 z.J # @ # # * b.& r.- # - - v.* * ; - r.r.G r.r.r.u v ; ,.u & 7 z.J # @ # # * & & @ - # - - ",
"&.7 # 7 G ; 7 - % # +.v ; 5.G # - -.5.I = * > v ; b.- r.; ; - u v.7 # 7 G r.r.- r.r.r.v ; 5.G # - -.5.I = * > v ; ; - * ; ; - u ",
"5.5.O u v * - * % ; 7 - & & & # v G 2 * ; * d ; - b.* r.- & ; v.v.5.O u v r.r.* r.r.r.- & & & # v G 2 * ; * d ; - & * & - & ; 7 ",
"v g 7 ; - * - # % & & - - & # - v 7 7 - b.7 j.u a.b.- r.; # v : v.g 7 ; - * r.# r.r.r.- - & # - v 7 7 - X 7 j.u a.; - & ; # v : ",
"7 - 7 / v X - v 7 / ; + J v E & & & * 7 b.7 * 7 7 b.# r.* # 7 7 v.- 7 / v X r.v r.r.r.+ J v E & & & * 7 ; 7 * 7 7 # # # * # 7 7 ",
"* v I I p.& - 7 - ; 8.# | 7 ; - I 7 u E b.7 7 * v b./ r.7 v = 7 v.v I I p.& r.7 r.r.r.# | 7 b.- I 7 u E +.7 7 * v 7 / G 7 v = 7 ",
"* 2 - 7 # X & - - * % & * * * E R / 7 ; b.$ > - u u E r.- - # @ v.2 - 7 # X r.- r.r.r.& * * b.E R / 7 ; ; $ > - u u E 7 - - # @ ",
"* - # * ; & * # - & ; ; t I * - ; 7 $ -.b.- * % ; G ; r.> ; * - v.- # * ; & r.# r.r.r.; t I b.- ; 7 $ -.E - * % ; G ; ; 2 ; * - ",
"v & * +.7 G G ; o - u u 7 v ; A v - ; > b.- - * ; v 7 r.u * 7 ,.v.& * +.7 G G ; r.v.r.u 7 v b.A v - ; > | - - * ; v 7 5.u * 7 ,.",
"; * / 2 7 v G I # / / 2.,.E u d.@ -.| * b.- - v v t.+.r.7 > r.t v.* / 2 7 v G I r.v.r.2.,.E b.d.@ -.| * # - - v v t.+.; 7 > O.t ",
"- = x.u.- - * ; * v > 8.G | +.| & v ,.-.b.# g v s.; ; r.* * r.G v.= x.u.- - * ; r.v.r.8.G | +.| & v ,.-.: # g v s.; ; - * * - G ",
"- % 8.+.& * * * - v u / -.| 7 / * +.&.> e.* : -.z.- - r.* * r.- v.% 8.+.& * * * r.v.r./ -.| 7 / * +.&.> e.* : -.z.- - * * * &.- ",
"; # v - 7 & ; 2 * 2 t I E I / / * 7 ,.- * # v 7 G - * r.@ . r.q.v.# v - 7 & ; 2 r.; r.I E I / / * 7 ,.- * # v 7 G - * - @ . 7 q.",
"= - 7 k.+.7 E - & 7 * 7 u ; 7.e.@ * - 7 = * 7 -.- - & r.h.% r.h.v.v.7 k.+.7 E - r.7 r.7 u ; 7.e.@ * - 7 = * 7 -.- - & * h.% &.h.",
"= v E 7 & - - * ,.7 # * ; * 7.- * * # f.; 7 % * @ 4.G r./ - r.= v.v.E 7 & - - * r.7 r.* ; * 7.- * * # f.; 7 % * @ 4.G &./ - * = ",
"+.7 * & - # @ v 7 v 0.* * * - ; 7 ; 7 - * = / 6.- 7.&.r.= - r.* v.v.* & - # @ v r.v r.* * * - ; 7 ; 7 - * = / 6.> 7.&.= = - @ * ",
"/ > * & ; +.* ; +.J +.&.* @ / +.&.E &.; @ &.v > ; G ; r.- # r.v / v.* & ; +.* ; +.J r.&.* @ / +.&.E &.; @ &.v > ; G ; * - # X v ",
"- $ # & u / - ; G 7 - ; * 7 k.c.g.g.E G # / ,.= - - - r.7 ; r.- - v.# & u / - ; G 7 r.; * 7 k.c.g.g.E G # / ,.= - - - - 7 ; * - ",
"- # | # 7 - 7 > G 7 2 $ # 2 -.&.; > > d # 7 d * * * v r.- * r.* - # | # 7 - 7 > G 7 r.$ # 2 -.&.; > > d # 7 d * * * v 7 - * E * ",
"& * - & 7 - 8.* 7 v - * * v +.* # * 7 * @ % * & & u u r.* * r.X & * - & 7 - 8.* 7 v - * * v +.* # * 7 * @ % * & & u u - * * ; X ",
"-.7 - # ,.; & o - G * * & G / 7 * * 7 # # u v ; ; u * r.# - r.* -.7 - # ,.; & o - G * * & G / 7 * * 7 # # u v ; ; u * # # - & * ",
"/ G - * @ - # # # ; * % ; * E * * # # & 7 v v G ; l.- r.7 v r.- / G - * @ - # # # ; * % ; * E * * # # & 7 v v G ; l.- v 7 v * - ",
"& o.G * . & | v / * @ ; E / @ @ * - v / E v ; u.7 * E r.7 ; r.7 & o.G * v.& | v / * @ ; E / @ @ * - v / E v ; u.7 * E ; 7 ; 4.7 ",
"* 7.; % O ; v | ; 7 # v ; -.- ; v v v ; / 5.7 u # v 7 r.& # r.& * 7.; % v.; v | ; 7 # v ; -.- ; v v v ; / 5.7 u # v 7 * & # # & ",
"* & * 7 -.& - - ; ; - ; - 2 ; * - 7 7 - - u # # v > - r.# # r.% * & * 7 v.& - - ; ; - ; - 2 ; * - 7 7 - - u # # v > - & # # @ % ",
"7 = v 7 7 7 ; - & * # u & ; * 3.# 7 7 * > > # * v * % r.# 7 r.% 7 = v 7 7 7 ; - & * # u & ; * 3.# 7 7 * > > # * v * % # # 7 & % ",
"- * -.7 g * v - - # * - # ; * - - - ; * * * * % - * # r.,.+.- ; - * -.7 g * v - - # * - # ; * - - - ; * * * * % - * # k.,.+.- ; ",
"& * ; g & v ; | - - v | I o - 7 +.,.G % - J ..J g g 7 ,.7 # 7 8.& * ; g & v ; | - - v | I o - 7 +.,.G % - J ..J g g 7 ,.7 # 7 8.",
"% * * * * * & & o.| 7 7.- / 7 ; G 0.,.* J / * * * 7.g 7 # # 7 u % * * * * * & & o.| 7 7.- / 7 ; G 0.,.* J / * * * 7.g 7 # # 7 u ",
"% * @ v - * * o 3.; * - | G & & * - * > / * - * * * * &.> # ; 7 % * @ v - * * o 3.; * - | G & & * - * > / * - * * * * &.> # ; 7 ",
"* % X * 7 & G / ; * - * 7 - - - & - : % -.* > - * ; > 7.> * # 7 * % X * 7 & G / ; * - * 7 - - - & - : % -.* > - * ; > 7.> * # 7 ",
"# @ # - & * & 7 7 - & # ; # * * @ # > > > > * * 7 + : - * o # & # @ # - & * & 7 7 - & # ; # * * @ # > > > > * * 7 + : - * o # & ",
"; * * ; - * * G - * * u v ; ,.u & 7 z.J # @ # # * & & @ - # - - ; * * ; - * * G - * * u v ; ,.u & 7 z.J # @ # # * & & @ - # - - ",
"&.7 # 7 G ; 7 - % # +.v ; 5.G # - -.5.I = * > v ; ; - * ; ; - u &.7 # 7 G ; 7 - % # +.v ; 5.G # - -.5.I = * > v ; ; - * ; ; - u "
};
