/* XPM */
static char *xpm_[] = {
/* columns rows colors chars-per-pixel */
"64 64 148 2 ",
"   c black",
".  c #3F3021",
"X  c #521800",
"o  c #463424",
"O  c #4A3726",
"+  c #4C3926",
"@  c #4B3728",
"#  c #4E3A2A",
"$  c #543E2C",
"%  c #583F2C",
"&  c #56402E",
"*  c #5A422E",
"=  c #5D4431",
"-  c #5E4834",
";  c #614633",
":  c #644935",
">  c #694D37",
",  c #664C38",
"<  c #684D38",
"1  c #694C39",
"2  c #684C38",
"3  c #6A4D38",
"4  c #6A4D39",
"5  c #684F38",
"6  c #684F39",
"7  c #6A4E38",
"8  c #6B4E38",
"9  c #6A4E39",
"0  c #6B4E39",
"q  c #684E3A",
"w  c #694E3A",
"e  c #6B4F3A",
"r  c #6B4F3B",
"t  c #6C4E38",
"y  c #6C4E39",
"u  c #6C4F39",
"i  c #6C4E3A",
"p  c #6C4F3A",
"a  c #6C4F3B",
"s  c #6D4F3B",
"d  c #6C4F3C",
"f  c #6A4E39",
"g  c #6B5039",
"h  c #6D5038",
"j  c #6C5039",
"k  c #6C5139",
"l  c #6F5138",
"z  c #6C503A",
"x  c #6D503A",
"c  c #6C513A",
"v  c #6D513A",
"b  c #6D503B",
"n  c #6D513B",
"m  c #6E503A",
"M  c #6E513A",
"N  c #6E503B",
"B  c #6F503B",
"V  c #6E513B",
"C  c #6F523B",
"Z  c #6F533B",
"A  c #6A503C",
"S  c #6E503C",
"D  c #6E503D",
"F  c #6F513D",
"G  c #6F523C",
"H  c #6E523D",
"J  c #6F543F",
"K  c #6E513B",
"L  c #705139",
"P  c #705238",
"I  c #70523A",
"U  c #70533A",
"Y  c #70523B",
"T  c #70533B",
"R  c #72543A",
"E  c #71533C",
"W  c #71533E",
"Q  c #71523E",
"!  c #72543D",
"~  c #73543C",
"^  c #71543E",
"/  c #70543E",
"(  c #72543F",
")  c #73553E",
"_  c #74553E",
"`  c #75573F",
"'  c #77573F",
"]  c #76573F",
"[  c #72543D",
"{  c #73583F",
"}  c #0F2040",
"|  c #152560",
" . c #1B376D",
".. c #6F5340",
"X. c #6E5541",
"o. c #735640",
"O. c #745640",
"+. c #755640",
"@. c #765641",
"#. c #745641",
"$. c #775840",
"%. c #765943",
"&. c #765943",
"*. c #795942",
"=. c #785A43",
"-. c #7B5B43",
";. c #795B46",
":. c #7F5D44",
">. c #7C5E46",
",. c #7E5F47",
"<. c #7A5B44",
"1. c #765B49",
"2. c #7F5E48",
"3. c #7C5E4A",
"4. c #7C5D48",
"5. c #7A604B",
"6. c #7E6148",
"7. c #7E614B",
"8. c #8F0C12",
"9. c #9E3000",
"0. c #ED1C24",
"q. c #B17C06",
"w. c #854F3D",
"e. c #F04C1F",
"r. c #815F47",
"t. c #815F47",
"y. c #805F4A",
"u. c #805F4A",
"i. c #84634B",
"p. c #80614D",
"a. c #83654E",
"s. c #85654D",
"d. c #83644C",
"f. c #876651",
"g. c #866A54",
"h. c #8E6C54",
"j. c #8A6B52",
"k. c #916E51",
"l. c #927359",
"z. c #95745D",
"x. c #93735B",
"c. c #F0AA0C",
"v. c #CF8D64",
"b. c #2948B8",
"n. c #A5B5B6",
"m. c #FFC79F",
"M. c #F5FCFF",
"N. c #F9F9F9",
/* pixels */
",.,.+ u v = ; = & : 7 ; * * * $ v G 2 = : = d : ; * = * ; * : 7 ,.,.+ u v = ; = & : 7 ; * * * $ v G 2 = : = d : ; * = * ; * : 7 ",
"v g 7 : ; = ; $ & * * ; ; * $ ; v 7 7 ; o 7 h.u p.: ; * : $ v > v g 7 : ; = ; $ & * * ; ; * $ ; v 7 7 ; o 7 h.u p.: ; * : $ v > ",
"7 ; 7 ~ v o ; v 7 ~ : @ J v E * * * = 7 : 7 = 7 7 $ $ $ = $ 7 7 7 ; 7 ~ v o ; v 7 ~ : @ J v E * * * = 7 : 7 = 7 7 $ $ $ = $ 7 7 ",
"= v I I i.* ; 7 ; : 2.$ ' 7 : ; I 7 u E O.7 7 = v 7 ~ G 7 v - 7 = v I I i.* ; 7 ; : 2.$ ' 7 : ; I 7 u E O.7 7 = v 7 ~ G 7 v - 7 ",
"= 2 ; 7 $ o * ; ; = & * = = = E R ~ 7 : : % , ; u u E 7 ; ; $ # = 2 ; 7 $ o * ; ; = & * = = = E R ~ 7 : : % , ; u u E 7 ; ; $ # ",
"= ; $ = : * = $ ; * : : t I = ; : 7 % $.E ; = & : G : : , : = ; = ; $ = : * = $ ; * : : t I = ; : 7 % $.E ; = & : G : : , : = ; ",
"v * = O.7 G G : O ; u u 7 v : A v ; : , ' ; ; = : v 7 ,.u = 7 *.v * = O.7 G G : O ; u u 7 v : A v ; : , ' ; ; = : v 7 ,.u = 7 *.",
": = ~ 2 7 v G I $ ~ ~ ;.*.E u s.# $.' = $ ; ; v v r.O.: 7 , ..t : = ~ 2   v G I $ ~ ~ ;.*.E u s.# $.' = $ ; ; v v r.O.: 7 , ..t ",
"; - z.y.; ; = : = v , 2.G ' O.' * v *.$.> $ g v a.: : ; = = ; G ; -   y.; ; = : = v , 2.G ' O.' * v *.$.> $ g v a.: : ; = = ; G ",
"; & 2.O.* = = = ; v u ~ $.' 7 ~ = O.#., 7.= > $.l.; ; = = - #.;   &   O.* = = = ; v u ~ $.' 7 ~ = O.#., 7.= > $.l.; ; = = = #.; ",
": $ v ; 7 * : 2 = : t I E I ~ ~ = 7 *.; = $ v 7 G ; = ; # . 7     $   ; 7 * : 2 = : t I E I ~ ~ = 7 *.; = $ v 7 G ; = ; # . 7 5.",
"- ; 7 j.O.7 E ; * 7 = 7 u : 1.7.# = ; 7 - = 7 $.; ; * = g.&       ;   j.O.7 E       = 7 u : 1.7.# = ; 7 - = 7 $.; ; * = g.& #.g.",
"- v E 7 * ; ; = *.7 $ = : = 1.; = = $ d.: 7 & = # >.G #.~ ;       v E 7     ;           : = 1.; = = $ d.: 7 & = # >.G #.~ ; = - ",
"O.7 = * ; $ # v 7 v 4.= = = ; : 7 : 7 ; = - ~ <.; 1.#.- - ;       7 = *     #             = ; : 7 : 7 ; = - ~ <.; 1.#.- - ; # = ",
"~ , = * : O.= : O.J O.#.= # ~ O.#.E #.: # #.v , : G : = ; $       ,   *     =               ~ O.#.E #.: # #.v , : G : = ; $ o v ",
"; % $ * u ~ ; : G 7 ; : = 7 j.x.f.f.E G $ ~ *.- ; ; ;   7 :       %   *     ;         : = 7 j.x.f.f.E G $ ~ *.- ; ; ; ; 7 : = ; ",
"; $ ' $ 7 ; 7 , G 7 2 % $ 2 $.#.: , , d $ 7 d = = = v     =       $   $     7     7 2 % $ 2 $.#.: , , d $ 7 d = = = v 7 ; = E = ",
"* = ; * 7 ; 2.= 7 v ; = = v O.= $ = 7     & = * * u       =       =   *     2.  7 v ; = = v O.= $ = 7 = # & = * * u u ; = = : o ",
"$.7 ; $ *.: * O ; G = = * G ~ 7 = = 7 $     v   : u       ;       7   $     *         = * G ~ 7 = = 7 $ $ u v : : u = $ $ ; * = ",
"~ G ; = # ; $ $ $ : = & : = E = = $ $ * 7   v     k.      v       G   =     $             = E = = $ $ * 7 v v G : k.; v 7 v = ; ",
"* X.G = . * ' v ~ = # : E ~ # # = ; v ~ E v :     =       :       X.  =     '               # # = ; v ~ E v : y.7 = E : 7 : >.7 ",
"= 1.: & + : v ' : 7 $ v : $.; : v           7     v       $       1.  &     v                 : v v v : ~ ,.7 u $ v 7 = * $ $ * ",
"= * = 7 $.* ; ; : : ; : ; 2 : = ; 7 7       $     ,       $   v.  *   7     ;       ; : ; 2 : = ; 7 7 ; ; u $ $ v , ; * $ $ # & ",
"7 - v 7 7 7 : ; * = $ u * : = :.$ 7 7 = ,   $     =       7 v.v.v.-   7 m.v.:         u * : = :.$ 7 7 = , , $ = v = & $ $ 7 * & ",
"; = $.7 g = v ; ; $ = ; $ : = ; ; ; : = = = =     =       O.    v.=   7 m.v.v         ; $ : = ; ; ; : = = = = & ; = $ j.*.O.; : ",
"* = ; g * v : ' ; ; v ' I O ; 7 O.*.G       {     g v.  v.$ w.n.    m.g   m.:         ' I O ; 7 O.*.G & ; J { J g g 7 *.7 $ 7 2.",
"& = = = = = * * X.O.7 1.; ~ 7 : G 4.*.= J   =     1.v.v.w.$ w.N.N.    =   m.* v.  '   1.; ~ 7 : G 4.*.= J ~ = = = 1.g 7 $ $ 7 u ",
"& = # v ; = = O :.: = ; ' G * * = ; = , ~ = ; =   = v.v.w.v.v.N.N.    v v.m.= v.  : = ; ' G * * = ; = , ~ = ; = = = = #., $ : 7 ",
"= & o = 7 * G ~ : = ; = 7 ; ; ; * ; > & $.= , ; = :     w.v.v.v.m.m.  =   v.G w.v.  ; = 7 ; ; ; * ; > & $.= , ; = : , 1., = $ 7 ",
"$ # $ ; * = * 7 7 ; * $ : $ = = # $ , , , , = = 7 # > ;   w.v.v.m.m.m.;   v.* v.b.  * $ : $ = = # $ , , , , = = 7 # > ; = O $ * ",
": = = : ; = = G ; = = u v : *.u * 7 l.J $ # $ $ = *       v.w.m.m.m.v.:     = | b.b.  u v : *.u * 7 l.J $ # $ $ = * * # ; $ ; ; ",
"#.7 $ 7 G : 7 ; & $ O.v : ,.G $ ; $.,.I - = ,     : 9.e.v.v.v.w.w.    7 9.  7 | b.v.  v : ,.G $ ; $.,.I - = , v : : ; = : : ; u ",
",.,.+ u v = ; = & : 7 ; * * * $ v G 2 = : = d } } * e.9.e.m.m.m.v.w.m.u e.9.;   m.m.v.  * * * $ v G 2 = : = d : ; * = * ; * : 7 ",
"v g 7 : ; = ; $ & * * ; ; * $ ; v 7 7 ; o 7    . .:  .e.9.9.m.m.m.v.w.:  .e.; } v.m.m.  ; * $ ; v 7 7 ; o 7 h.u p.: ; * : $ v > ",
"7 ; 7 ~ v o ; v 7 ~ : @ J v E * * * = 7 :   m.w.m.$ } e.e.e.e. . . . .~  .e.; } w.v.m.  J v E * * * = 7 : 7 = 7 7 $ $ $ = $ 7 7 ",
"= v I I i.* ; 7 ; : 2.$ ' 7 : ; I 7 u E O.  w.m.m.7   e.e.9.e.e. .} } I } * ;         $ ' 7 : ; I 7 u E O.7 7 = v 7 ~ G 7 v - 7 ",
"= 2 ; 7 $ o * ; ; = & * = = = E R ~ 7 : :   v.m.m.u   9.e.e.9.e.M. .} 7 } n.* ; ; = & * = = = E R ~ 7 : : % , ; u u E 7 ; ; $ # ",
"= ; $ = : * = $ ; * : : t I = ; : 7 % $.E   m.v.  G :   e.e.9.9.M.e. .= e.  = $ ; * : : t I = ; : 7 % $.E ; = & : G : : 2 : = ; ",
"v * = O.7 G G : O ; u u 7 v : A v ; : ,   m.m.  : v 7 ,.    b.b.M.e.e.O.9.  G : O ; u u 7 v : A v ; : , ' ; ; = : v 7 ,.u = 7 *.",
": = ~ 2 7 v G I $ ~ ~ ;.*.E u s.# $.' =   m.v.  v r.O.: 7   | | M.| | 2   v G I $ ~ ~ ;.*.E u s.# $.' = $ ; ; v v r.O.: 7 , o.t ",
"; - z.y.; ; = : = v , 2.G ' O.' * v *.$.  b.b.  a.: : ;   e.9.9.M.b.b.y.  ; = : = v , 2.G ' O.' * v *.$.> $ g v a.: : ; = = ; G ",
"; & 2.O.* = = = ; v u ~ $.' 7 ~ = O.#.  | b.b.  l.; ; =   e.9.e.M.e.X O.e.  = = ; v u ~ $.' 7 ~ = O.#., 7.= > $.l.; ; = = = #.; ",
": $ v ; 7 * : 2 = : t I E I ~ ~ = 7 *.  m.m.m.m.  ; =   e.9.e.e.M.e.X ; e.9.: 2 = : t I E I ~ ~ = 7 *.; = $ v 7 G ; = ; # . 7 5.",
"- ; 7 j.O.7 E ; * 7 = 7 u : 1.7.# = ;   m.m.m.v.m.;     e.e.e.e.M.9.X j.e.e.E ; * 7 = 7 u : 1.7.# = ; 7 - = 7 $.; ; * = g.& #.g.",
"- v E 7 * ; ; = *.7 $ = : = 1.; = = $   m.v.m.v.  >.  #.e.e.e.e.M.  X 7 e.e.; = *.7 $ = : = 1.; = = $ d.: 7 & = # >.G #.~ ; = - ",
"O.7 = * ; $ # v 7 v 4.= = = ; : 7 : 7 ;     m.m.  1.9.- e.e.e.9.M.  9.* e.e.#   7 v 4.= = = ; : 7 : 7 ; = - ~ <., 1.#.- - ; # = ",
"~ , = * : O.= : O.J O.#.= # ~ O.#.E #.: # #.    : G e.= e.e.9.9.M.  e.* e.e.=   O.J O.#.= # ~ O.#.E #.: # #.v , : G : = ; $ o v ",
"; % $ * u ~ ; : G 7 ; : = 7 j.x.f.f.E G $ ~ *.-   ; e.; e.9.e.e.M.  9.* 9.e.;   G 7 ; : = 7 j.x.f.f.E G $ ~ *.- ; ; ; ; 7 : = ; ",
"; $ ' $ 7 ; 7 , G 7 2 % $ 2 $.#.: , , d $ 7 d =   = e.7 e.e.9.  M.X X $ e.e.7 9.  7 2 % $ 2 $.#.: , , d $ 7 d = = = v 7 ; = E = ",
"* = ; * 7 ; 2.= 7 v ; = = v O.= $ = 7 = # & =   e.u 9.; X X   o   9.9.* 9.9.2.e.  v ; = = v O.= $ = 7 = # & = * * u u ; = = : o ",
"$.7 ; $ *.: * O ; G = = * G ~ 7 = = 7 $ $ u v   e.u X $ 9.e.  = $.  e.$ X 9.*   ; G = = * G ~ 7 = = 7 $ $ u v : : u = $ $ ; * = ",
"~ G ; = # ; $ $ $ : = & : = E = = $ $ * 7 v v   9.k.e.v e.9.  ; ~ G   = e.e.$ $ $ : = & : = E = = $ $ * 7 v v G : k.; v 7 v = ; ",
"* X.G = . * ' v ~ = # : E ~ # # = ; v ~ E v :    .= e.:     >.7 * X.  = 8.  ' v ~ = # : E ~ # # = ; v ~ E v : y.7 = E : 7 : >.7 ",
"= 1.: & + : v ' : 7 $ v : $.; : v v v : ~ ,.7    .v   = * $ $ * = 1.  & 8.  v ' : 7 $ v : $.; : v v v : ~ ,.7 u $ v 7 = * $ $ * ",
"= * = 7 $.* ; ; : : ; : ; 2 : = ; 7 7 ; ; u $   c.,   * $ $ # & = * = 7 q.  ; ; : : ; : ; 2 : = ; 7 7 ; ; u $ $ v , ; * $ $ # & ",
"7 - v 7 7 7 : ; * = $ u * : = :.$ 7 7 = , ,    .0.= & $ $ 7 * & 7 - v 7 } 8.    * = $ u * : = :.$ 7 7 = , , $ = v = & $ $ 7 * & ",
"; = $.7 g = v ; ; $ = ; $ : = ; ; ; : = = =   0. .= $ j.*.O.; : ; = $.7 } } 8.8.  $ = ; $ : = ; ; ; : = = = = & ; = $ j.*.O.; : ",
"* = : g * v : ' ; ; v ' I O ; 7 O.*.G & ;    .0. .g 7 *.7 $ 7 2.* = : g * v : ' ; ; v ' I O ; 7 O.*.G & ; J { J g g 7 *.7 $ 7 2.",
"& = = = = = * * X.' 7 1.; ~ 7 : G 4.*.= J ~ = = = 1.g 7 $ $ 7 u & = = = = = * * X.' 7 1.; ~ 7 : G 4.*.= J ~ = = = 1.g 7 $ $ 7 u ",
"& = # v ; = = O :.: = ; ' G * * = ; = , ~ = ; = = = = #., $ : 7 & = # v ; = = O :.: = ; ' G * * = ; = , ~ = ; = = = = #., $ : 7 ",
"= & o = 7 * G ~ : = ; = 7 ; ; ; * ; > & $.= , ; = : , 1., = $ 7 = & o = 7 * G ~ : = ; = 7 ; ; ; * ; > & $.= , ; = : , 1., = $ 7 ",
"$ # $ ; * = * 7 7 ; * $ : $ = = # $ , , , , = = 7 # > ; = O $ * $ # $ ; * = * 7 7 ; * $ : $ = = # $ , , , , = = 7 # > ; = O $ * ",
": = = : ; = = G ; = = u v : *.u * 7 l.J $ # $ $ = * * # ; $ ; ; : = = : ; = = G ; = = u v : *.u * 7 l.J $ # $ $ = * * # ; $ ; ; ",
"#.7 $ 7 G : 7 ; & $ O.v : ,.G $ ; $.,.I - = , v : : ; = : : ; u #.7 $ 7 G : 7 ; & $ O.v : ,.G $ ; $.,.I - = , v : : ; = : : ; u "
};
