/* XPM */
static char *xpm_[] = {
/* columns rows colors chars-per-pixel */
"64 64 140 2 ",
"   c black",
".  c #3F3021",
"X  c #463424",
"o  c #4A3726",
"O  c #4C3926",
"+  c #4B3728",
"@  c #4E3A2A",
"#  c #543E2C",
"$  c #583F2C",
"%  c #56402E",
"&  c #5A422E",
"*  c #5D4431",
"=  c #5E4834",
"-  c #614633",
";  c #644935",
":  c #694D37",
">  c #664C38",
",  c #684F39",
"<  c #684F38",
"1  c #6A4E38",
"2  c #6B4E38",
"3  c #6A4E39",
"4  c #6B4E39",
"5  c #684E3A",
"6  c #694E3A",
"7  c #6B4F3A",
"8  c #6B4F3B",
"9  c #694D38",
"0  c #6C4E38",
"q  c #6C4E39",
"w  c #6C4F39",
"e  c #6C4E3A",
"r  c #6C4F3A",
"t  c #6C4F3B",
"y  c #6D4F3B",
"u  c #6C4F3C",
"i  c #6A4E39",
"p  c #6B5039",
"a  c #6D5038",
"s  c #6C5039",
"d  c #6C5139",
"f  c #6F5138",
"g  c #6C503A",
"h  c #6D503A",
"j  c #6C513A",
"k  c #6D513A",
"l  c #6D503B",
"z  c #6D513B",
"x  c #6E503A",
"c  c #6E513A",
"v  c #6E503B",
"b  c #6F503B",
"n  c #6E513B",
"m  c #6F523B",
"M  c #6F533B",
"N  c #6A503C",
"B  c #6E503C",
"V  c #6E503D",
"C  c #6F513D",
"Z  c #6F523C",
"A  c #6E523D",
"S  c #6F543F",
"D  c #6D513B",
"F  c #705139",
"G  c #705238",
"H  c #70523A",
"J  c #70533A",
"K  c #70523B",
"L  c #70533B",
"P  c #72543A",
"I  c #70523C",
"U  c #70533C",
"Y  c #71533C",
"T  c #71533D",
"R  c #71523E",
"E  c #71533E",
"W  c #73543C",
"Q  c #72543D",
"!  c #70543E",
"~  c #71543E",
"^  c #73553E",
"/  c #72543F",
"(  c #74553E",
")  c #74563E",
"_  c #75573F",
"`  c #76573F",
"'  c #77573F",
"]  c #72543D",
"[  c #73583F",
"{  c #6F5340",
"}  c #6E5541",
"|  c #735640",
" . c #745640",
".. c #755640",
"X. c #765640",
"o. c #765641",
"O. c #775741",
"+. c #745641",
"@. c #765840",
"#. c #775840",
"$. c #775941",
"%. c #765942",
"&. c #765843",
"*. c #765943",
"=. c #795942",
"-. c #785A43",
";. c #7B5B43",
":. c #795B46",
">. c #7F5D44",
",. c #7C5E46",
"<. c #7E5F47",
"1. c #7A5B44",
"2. c #765B49",
"3. c #7F5E48",
"4. c #7C5E4A",
"5. c #7C5D48",
"6. c #7A604B",
"7. c #7E6148",
"8. c #7E614A",
"9. c #FF4F01",
"0. c #815F47",
"q. c #815F47",
"w. c #805F4A",
"e. c #805F49",
"r. c #84634B",
"t. c #80614D",
"y. c #83654E",
"u. c #85654D",
"i. c #83634C",
"p. c #876651",
"a. c #876A54",
"s. c #8E6C54",
"d. c #8A6B52",
"f. c #916E51",
"g. c #927359",
"h. c #95745D",
"j. c #93735B",
"k. c #2948B8",
"l. c #FFC79F",
"z. c #FFC79F",
/* pixels */
"<.<.O w k * - * % ; 1 - & & & # k Z : * ; * u ; - & * & - & ; 1 <.<.O w k * - * % ; 1 - & & & # k Z : * ; * u ; - & * & - & ; 1 ",
"k p 1 ; - * - # % & & - - & # - k 1 1 - X 1 s.w t.; - & ; # k : k p 1 ; - * - # % & & - - & # - k 1 1 - X 1 s.w t.; - & ; # k : ",
"1 - 1 W k X - k 1 W ; + S k I & & & * 1 ; 1 * 1 1 # # # * # 1 1 1 - 1 W k X - k 1 W ; + S k I & & & * 1 ; 1 * 1 1 # # # * # 1 1 ",
"* k H H r.& - 1 - ; 3.# ' 1 ; - H 1 w I  .1 1 * k 1 W Z 1 k = 1 * k H H r.& - 1 - ; 3.# ' 1 ; - H 1 w I  .1 1 * k 1 W Z 1 k = 1 ",
"* : - 1 # X & - - * % & * * * I P W 1 ; ; $ > - w w I 1 - - # @ * : - 1 # X & - - * % & * * * I P W 1 ; ; $ > - w w I 1 - - # @ ",
"* - # * ; & * # - & ; ; 0 H * - ; 1 $ $.I - * % ; Z ; ; > ; * - * - # * ; & * # - & ; ; 0 H * - ; 1 $ $.I - * % ; Z ; ; > ; * - ",
"k & *  .1 Z Z ; o - w w 1 k ; N k - ; > ' - - * ; k 1 <.w * 1 =.k & *  .1 Z Z ; o - w w 1 k ; N k - ; > ' - - * ; k 1 <.w * 1 =.",
"; * W 9 1 k Z H # W W :.=.I w u.@ $.' * # - - k k 0. .; 1 > { 0 ; * W 9 1 k Z H # W W :.=.I w u.@ $.' * # - - k k 0. .; 1 > { 0 ",
"- = h.w.- - * ; * k > 3.Z '  .' & k =.$.: # p k y.; ; - * * - Z - = h.w.- - * ; * k > 3.Z '  .' & k =.$.: # p k y.; ; - * * - Z ",
"- % 3. .& * * * - k w W $.' 1 W *  .+.> 8.* : $.g.- - * * = +.- - %    .& * * * l.k w W $.' 1 W *  .+.> 8.* : $.g.- - * * * +.- ",
"; # k - 1 & ; : * ; 0 H I H W W * 1 =.- * # k 1 Z - * - @ . 1 6.; #   - 1 & ; : l.; 1 H I H W W * 1 =.- * # k 1 Z - * - @ . 1 6.",
"= - 1 d. .1 I - & 1 * 1 w ; 2.8.@ * - > = * 1 $.- - & * a.% +.a.k.-   d. .1 I l.l.1 * 1 w ; 2.8.@ * - 1 = * 1 $.- - & * a.% +.a.",
"= k I 1 & - - * =.1 # * ; * 2.- * * # i.; 1 % * @ ,.Z +.W - * = k.k   1 & - - l.l.1 # * ; * 2.- * * # i.; 1 % * @ ,.Z +.W - * = ",
" .1 * & - # @ k 1 k 5.* * * - ; 1 ; 1 - * = W 1.- 2.+.= =   @ * k.1   & - # @ l.l.k 5.* * * - ; 1 ; 1 - * = W 1.- 2.+.= = - @ * ",
"W > * & ;  .* ;  .S  .+.* @ W  .+.I +.; @ +.k > ; Z ; * -   X k k.>   & ;  .* l.l.S  .+.* @ W  .+.I +.; @ +.k > ; Z ; * - # X k ",
"- $ # & w W - ; Z 1 - ; * 1 d.j.p.p.I Z # W =.= - - - - 9.  * - k.$   & w W - l.l.1 - ; * 1 d.j.p.p.I Z # W =.= - - - - 1 ; * - ",
"- # ' # 1 - 1 > Z 1 : $ # : $.+.; > > u # 1 u * * l.k 1 9.  I * k.#   # 1 - 1 l.l.1 : $ # : $.+.; > > u # 1 u * * * k 1 - * I * ",
"& * - & 1 - 3.* 1 k - * * k  .* # * 1 * @ % * & & l.w - 9.  ; X k.*   & 9.- 3.l.l.k - * * k  .* # * 1 * @ % * & & w w - * * ; X ",
"$.1 - # =.; & o - Z * * & Z W 1 * * 1 # # w k ; ; l.* # 9.  & k.k.1   # 9.; & l.l.Z * * & Z W 1 * * 1 # # w k ; ; w * # # - & * ",
"W Z - * @ - # # # ; * % ; * I * * # # & 1 k k Z ; l.- k 9.    k.k.    * 9.- # l.l.; * % ; * I * * # # & 1 k k Z ; f.- k 1 k * - ",
"& } Z * . & ' k W * @ ; I W @ @ * - k W I k ; w.1 l.I ; 9.    k.k.    * 9.& ' l.l.* @ ; I W @ @ * - k W I k ; w.1 * I ; 1 ; ,.1 ",
"* 2.; % O ; k ' ; 1 # k ; $.- ; k k k ; W <.9.w # l.1 * 9.    k.k.    % 9.k.k l.l.1 # k ; $.- ; k k k ; W <.1 w # k 1 * & # # & ",
"* & * 1 $.& - - ; ; - ; - : ; * - 1 1 - - w 9.# k l.- 9.9.    k.k.  k.1 9.k.- l.l.; - ; - : ; * - 1 1 - - w # # k > - & # # @ % ",
"1 = k 1 1 1 ; - & * # w & ; * >.# 1 1 * > > 9.* k l.% 9.9.    k.k.  k.1 9.k.; l.l.* # w & ; * >.# 1 1 * > > # * k * % # # 1 & % ",
"- * $.1 p * k - - # * - # ; * - - - ; * l.* 9.% - l.# 9.9.  k.k.k.  k.1 9.k.k l.l.# * - # ; * - - - ; * * * * % - * # d.=. .- ; ",
"& * - p & k ; ' - - k ' H o - 1  .=.Z % l.S 9.S p l.1 9.9.  k.k.k.  k.p 9.k.; l.l.- k ' H o - 1  .=.Z % - S [ S p p 1 =.1 # 1 3.",
"% * * * * * & & }  .1 2.- W 1 ; Z 5.=.* l.W 9.* * l.p 9.9.  k.k.k.  k.* 9.k.& l.l.' 1 2.- W 1 ; Z 5.=.* S W * * * 2.p 1 # # 1 w ",
"% * @ k - * * o >.; * - ' Z & & * - * > l.* l.* l.l.* 9.9.  k.k.k.  k.k 9.k.* l.l.; * - ' Z & & * - * > W * - * * * * +.> # ; 1 ",
"* % X * 1 & Z W ; * - * 1 - - - & - : % l.* l.- l.l.> 9.9.  k.k.k.  k.* 9.k.Z l.l.* - * 1 - - - & - : % $.* > - * ; > 2.> * # 1 ",
"# @ # - & * & 1 1 - & # ; # * * @ # > > l.l.l.l.l.l.: 9.9.  k.k.k.k.k.- 9.k.& l.l.- & # ; # * * @ # > > > > * * 1 + : - * o # & ",
"; * * ; - * * Z - * * w k ; =.w & 1 g.S l.l.l.l.l.l.& 9.9.  k.k.k.k.k.; 9.k.* l.l.* * w k ; =.w & 1 g.S # @ # # * & & @ - # - - ",
"+.1 # 1 Z ; 1 - % #  .k ; <.Z # - $.<.H l.l.l.l.l.l.- 9.9.  k.k.k.k.k.1 9.k.1 l.l.#  .k ; <.Z # - $.<.H = * > k ; ; - * ; ; - w ",
"<.<.O w k * - * % ; 1 - & & & # k Z : * ; l.l.l.l.l.* 9.9.  k.k.k.9.k.w 9.k.- l.l.; 1 - & & & # k Z : * ; * u ; - & * & - & ; 1 ",
"k p 1 ; - * - # % & & - - & # - k 1 1 - X l.l.l.l.l.- 9.9.  k.k.9.9.k.; 9.k.- l.l.& & - - & # - k 1 1 - X 1 s.w t.; - & ; # k : ",
"1 - 1 W k X - k 1 W ; + S k I & & & * 1 ; l.l.l.l.l.# 9.9.  k.9.9.9.k.W 9.k.- 9.l.W ; + S k I & & & * 1 ; 1 * 1 1 # # # * # 1 1 ",
"* k H H r.& - 1 - ; 3.# ' 1 ; - H 1 w I  .l.l.l.l.l.W 9.9.k.k.9.k.9.9.H 9.k.- 9.l.; 3.# ' 1 ; - H 1 w I  .1 1 * k 1 W Z 1 k = 1 ",
"* : - 1 # X & - - * % & * * * I P W 1 ; ; $ l.9.l.l.I 9.9.k.k.k.k.9.9.1 9.k.& 9.l.* % & * * * I P W 1 ; ; $ > - w w I 1 - - # @ ",
"* - # * ; & * # - & ; ; 0 H * - ; 1 $ $.I - l.9.l.l.; 9.9.k.k.k.k.9.9.* 9.k.* 9.l.& ; ; 0 H * - ; 1 $ $.I - * % ; Z ; ; 9 ; * - ",
"k & *  .1 Z Z ; o - w w 1 k ; N k - ; > ' - l.9.l.l.1 9.9.k.k.k.k.9.9. .9.k.Z 9.l.- w w 1 k ; N k - ; > ' - - * ; k 1 <.w * 1 =.",
"; * W 9 1 k Z H # W W :.=.I w u.@ $.' * # - l.9.9.l. .9.9.k.k.k.k.9.9.9 9.k.Z 9.l.W W :.=.I w u.@ $.' * # - - k k 0. .; 1 > | 0 ",
"- = h.w.- - * ; * k > 3.Z '  .' & k =.$.: # l.9.9.l.; 9.9.k.k.k.k.9.9.w.9.k.* 9.* k > 3.Z '  .' & k =.$.: # p k y.; ; - * * - Z ",
"- % 3. .& * * * - k w W $.' 1 W *  .+.> 8.* : 9.9.l.- 9.9.k.k.k.k.9.9. .9.k.* 9.- k w W $.' 1 W *  .+.> 8.* : $.g.- - * * * +.- ",
"; # k - 1 & ; : * : 0 H I H W W * 1 =.- * # k 9.9.- * 9.9.k.k.k.k.9.9.- 9.9.; 9.* : 0 H I H W W * 1 =.- * # k 1 Z - * - @ . 1 6.",
"= - 1 d. .1 I - & 1 * 1 w ; 2.8.@ * - 1 = * 1 9.9.- & 9.9.k.k.k.k.9.9.d.9.9.I 9.& 1 * 1 w ; 2.8.@ * - 1 = * 1 $.- - & * a.% +.a.",
"= k I 1 & - - * =.1 # * ; * 2.- * * # i.; 1 % 9.9.,.Z 9.9.k.k.k.k.9.9.1 9.9.- 9.=.1 # * ; * 2.- * * # i.; 1 % * @ ,.Z +.W - * = ",
" .1 * & - # @ k 1 k 5.* * * - ; 1 ; 1 - * = W 9.9.2.+.9.9.k.k.k.k.9.9.& 9.9.@ k 1 k 5.* * * - ; 1 ; 1 - * = W 1.> 2.+.= = - @ * ",
"W > * & ;  .* ;  .S  .+.* @ W  .+.I +.; @ +.k 9.9.Z ; 9.9.k.k.k k.9.9.& 9.9.* ;  .S  .+.* @ W  .+.I +.; @ +.k > ; Z ; * - # X k ",
"- $ # & w W - ; Z 1 - ; * 1 d.j.p.p.I Z # W =.9.9.- - 9.9.k.* - k.9.9.& 9.9.- ; Z 1 - ; * 1 d.j.p.p.I Z # W =.= - - - - 1 ; * - ",
"- # ' # 1 - 1 > Z 1 : $ # : $.+.; > > u # 1 u 9.* * k 9.9.* I * k.9.9.# 9.9.1 > Z 1 : $ # : $.+.; > > u # 1 u * * * k 1 - * I * ",
"& * - & 1 - 3.* 1 k - * * k  .* # * 1 * @ % * 9.& w w 9.9.* ; X k.9.- & 9.9.3.* 1 k - * * k  .* # * 1 * @ % * & & w w - * * ; X ",
"$.1 - # =.; & o - Z * * & Z W 1 * * 1 # # w k 9.; w * 9.9.- & * k.9.- # 9.9.& o - Z * * & Z W 1 * * 1 # # w k ; ; w * # # - & * ",
"W Z - * @ - # # # ; * % ; * I * * # # & 1 k k 9.; f.- 9.9.k * - k.9.- * 9.9.# # # ; * % ; * I * * # # & 1 k k Z ; f.- k 1 k * - ",
"& } Z * . & ' k W * @ ; I W @ @ * - k W I k ; 9.1 * I 9.9.; ,.1 k.9.Z * 9.& ' k W * @ ; I W @ @ * - k W I k ; w.1 * I ; 1 ; ,.1 ",
"* 2.; % O ; k ' ; 1 # k ; $.- ; k k k ; W <.1 9.# k 1 9.9.# # & k.2.; % 9.; k ' ; 1 # k ; $.- ; k k k ; W <.1 w # k 1 * & # # & ",
"* & * 1 $.& - - ; ; - ; - : ; * - 1 1 - - w # 9.k > - 9.# # @ % k.& * 1 9.& - - ; ; - ; - : ; * - 1 1 - - w # # k > - & # # @ % ",
"1 = k 1 1 1 ; - & * # w & ; * >.# 1 1 * > > # * k * % 9.# 1 & % 1 = k 1 9.1 ; - & * # w & ; * >.# 1 1 * > > # * k * % # # 1 & % ",
"- * $.1 p * k - - # * - # ; * - - - ; * * * * % - * # d.=. .- ; - * $.1 p * k - - # * - # ; * - - - ; * * * * % - * # d.=. .- ; ",
"& * ; p & k ; ' - - k ' H o - 1  .=.Z % - S [ S p p 1 =.1 # 1 3.& * ; p & k ; ' - - k ' H o - 1  .=.Z % - S [ S p p 1 =.1 # 1 3.",
"% * * * * * & & } ' 1 2.- W 1 ; Z 5.=.* S W * * * 2.p 1 # # 1 w % * * * * * & & } ' 1 2.- W 1 ; Z 5.=.* S W * * * 2.p 1 # # 1 w ",
"% * @ k - * * o >.; * - ' Z & & * - * > W * - * * * * +.> # ; 1 % * @ k - * * o >.; * - ' Z & & * - * > W * - * * * * +.> # ; 1 ",
"* % X * 1 & Z W ; * - * 1 - - - & - : % $.* > - * ; > 2.> * # 1 * % X * 1 & Z W ; * - * 1 - - - & - : % $.* > - * ; > 2.> * # 1 ",
"# @ # - & * & 1 1 - & # ; # * * @ # > > > > * * 1 + : - * o # & # @ # - & * & 1 1 - & # ; # * * @ # > > > > * * 1 + : - * o # & ",
"; * * ; - * * Z - * * w k ; =.w & 1 g.S # @ # # * & & @ - # - - ; * * ; - * * Z - * * w k ; =.w & 1 g.S # @ # # * & & @ - # - - ",
"+.1 # 1 Z ; 1 - % #  .k ; <.Z # - $.<.H = * > k ; ; - * ; ; - w +.1 # 1 Z ; 1 - % #  .k ; <.Z # - $.<.H = * > k ; ; - * ; ; - w "
};
