/* XPM */
static char *xpm_[] = {
/* columns rows colors chars-per-pixel */
"64 64 170 2 ",
"   c #050403",
".  c #080605",
"X  c #0A0806",
"o  c #0F0B08",
"O  c #130E0A",
"+  c #1A140E",
"@  c #1E1610",
"#  c #251B13",
"$  c #291E15",
"%  c #2C2117",
"&  c #2F2318",
"*  c #32241A",
"=  c #37281E",
"-  c #3A2A1E",
";  c #3D2D22",
":  c #3F3021",
">  c #453424",
",  c #4A3726",
"<  c #4C3927",
"1  c #4B3728",
"2  c #4D3A2A",
"3  c #543E2C",
"4  c #583F2C",
"5  c #56402E",
"6  c #5A422E",
"7  c #5D4431",
"8  c #5E4834",
"9  c #6A422A",
"0  c #7A4121",
"q  c #724225",
"w  c #614633",
"e  c #644935",
"r  c #694D37",
"t  c #664C38",
"y  c #6B4E38",
"u  c #694E3A",
"i  c #694D39",
"p  c #6C4F39",
"a  c #6C4F3B",
"s  c #6C4F3C",
"d  c #6A4E39",
"f  c #6E463C",
"g  c #704A30",
"h  c #6B5039",
"j  c #6C5039",
"k  c #6D503A",
"l  c #6E503B",
"z  c #6F523A",
"x  c #6A503C",
"c  c #6F513D",
"v  c #6F523C",
"b  c #6F543F",
"n  c #6D513B",
"m  c #70523B",
"M  c #705239",
"N  c #71533C",
"B  c #71533E",
"V  c #72533D",
"C  c #72543D",
"Z  c #71543E",
"A  c #72543F",
"S  c #77573F",
"D  c #74563E",
"F  c #72543D",
"G  c #7A5238",
"H  c #73583F",
"J  c #393647",
"K  c #4B3F49",
"L  c #413F57",
"P  c #34407C",
"I  c #3B447F",
"U  c #5B4640",
"Y  c #5C4A4C",
"T  c #444059",
"R  c #4C465C",
"E  c #4B4254",
"W  c #504756",
"Q  c #5B4D53",
"!  c #6F5340",
"~  c #6E5541",
"^  c #735640",
"/  c #745640",
"(  c #765641",
")  c #745641",
"_  c #775840",
"`  c #765943",
"'  c #765943",
"]  c #795A43",
"[  c #7E5E46",
"{  c #7A5B44",
"}  c #765B49",
"|  c #7F5E48",
" . c #7C5E4A",
".. c #7C5D48",
"X. c #685454",
"o. c #7A604B",
"O. c #7E6148",
"+. c #7E614A",
"@. c #4F4760",
"#. c #474569",
"$. c #554B62",
"%. c #4D4C74",
"&. c #514872",
"*. c #605467",
"=. c #8E441F",
"-. c #AC4716",
";. c #AD4918",
":. c #B54713",
">. c #B64813",
",. c #BB4B16",
"<. c #B54A18",
"1. c #BE4D18",
"2. c #8E4621",
"3. c #804C2E",
"4. c #944720",
"5. c #964A23",
"6. c #9B4D24",
"7. c #9F5027",
"8. c #9C522B",
"9. c #805032",
"0. c #A15027",
"q. c #A4552D",
"w. c #AD5C33",
"e. c #B3683E",
"r. c #D54C0D",
"t. c #D94E0E",
"y. c #C14D16",
"u. c #D74F10",
"i. c #D84F10",
"p. c #C1501A",
"a. c #CE5318",
"s. c #DA5010",
"d. c #FA4F03",
"f. c #815F47",
"g. c #815F47",
"h. c #805F4A",
"j. c #805F49",
"k. c #964C5B",
"l. c #A54C4E",
"z. c #84634B",
"x. c #83634C",
"c. c #88674D",
"v. c #8B694E",
"b. c #876750",
"n. c #886750",
"m. c #876A55",
"M. c #8E6C54",
"N. c #8B6B52",
"B. c #916E51",
"V. c #937055",
"C. c #987357",
"Z. c #93735B",
"A. c #9A765C",
"S. c #9F7A5E",
"D. c #A17A5D",
"F. c #A27C62",
"G. c #C79A78",
"H. c #3E4681",
"J. c #3A478B",
"K. c #354797",
"L. c #374898",
"P. c #3A4A99",
"I. c #444A85",
"U. c #DFAD89",
"Y. c #E1AE8A",
"T. c #E5B28D",
"R. c #E8B48F",
"E. c #EAB691",
"W. c #F5BF98",
"Q. c #F6C099",
/* pixels */
"[ [ < p k 7 w 7 5 e y w 6 6 6 3 k v r 7 e 7 s e w 6 7 6 w 6 e y [ [ < p k 7 w 7 5 e y w 6 6 6 3 k v r 7 e 7 s e w 6 7 6 w 6 e y ",
"k h y e w 7 w 3 5 6 6 w w 6 3 w k y y w > y M.p x.e w 6 e 3 k r k h y e w 7 w 3 5 6 6 w w 6 3 w k y y w > y M.p x.e w 6 e 3 k r ",
"y w y C k > w k y C e 1 b k N 6 6 6 7 y e y 7 y y 3 3 3 7 3 y y y w y C k > w k y C e 1 b k N 6 6 6 7 y e y 7 y y 3 3 3 7 3 y y ",
"7 k m m z.6 w y w e | 3 S y e w m y p N / y y 7 k y C v y k 8 y 7 k m m z.6 w y w e | 3 S y e w m y p N / y y 7 k y C v y k 8 y ",
"7 r w y 3 > 6 w w 7 5 6 7 7 7 N C C y e e 4 t w p p N y w w 3 2 7 r w y 3 > 6 w w 7 5 6 7 7 7 N C C y e e 4 t w p p N y w w 3 2 ",
"7 w 3 7 e 6 7 3 w 6 e e p m 7 w e y 4 _ N w 7 5 e v e e t e 7 w 7 w 3 7 e 6 7 3 w 6 e e p m 7 w e y 4 _ N w 7 5 e v e e t e 7 w ",
"k 6 7 / y v v e , w p p y k e x k w e t S w w 7 e k y [ p 7 y ] k 6 7 / y v v e , w p p y k e x k w e t S w w 7 e k y [ p 7 y ] ",
"e 7 C r y k v m 3 C C { ] N p x.2 _ S 7 3 w w k k f./ e y t ! p e 7 C r y k v m 3 C C { ] N p x.2 _ S 7 3 w w k k f./ e y t ! p ",
"w 8 Z.h.w w 7 e 7 k t | v S / S 6 k ] _ r 3 h k x.e e w 7 7 w v w 8 Z.h.w w 7 e 7 k t | v S / S 6 k ] _ r 3 h k x.e e w 7 7 w v ",
"w 5 | / 6 7 7 7 w k p C _ S y C 7 / ) t +.7 r _ Z.w w 7 7 7 ) w w 5 | / 6 7 7 7 w k p C _ S y C 7 / C t +.7 r _ Z.w w 7 7 7 ) w ",
"e 3 k w y 6 e r 7 e p m N m C C 7 y ] w 7 3 k y v w 7 w 2 : y o.e 3 k w y 6 e r 7 e p m N G.[ C 7 y ] w 7 3 k y v w 7 w 2 : y o.",
"8 w y N./ y N w 6 y 7 y p e } +.2 7 w t 8 7 y _ w w 6 7 m.1 ; m.8 w y N./ > 3 w 6 y 7 y N W.N.+.2 7 w y 8 7 y _ w w 6 7 m.5 ) m.",
"8 k N y 6 w w 7 ] y 3 7 e 7 } w 7 7 3 x.e y 5 7 2 ..v ) C , o 8 8 k N y 6 $ * 7 ] y 3 7 t W.N.w 7 7 3 x.e y 5 7 2 ..v ) C w 7 8 ",
"/ y 7 6 w 3 2 k y k ..7 7 7 w e y e y w 7 8 C { w } ) 8 8 3 # - / y 7 6 w # $ k y k ..7 8 W._ e y e y w 7 8 C { w } ) 8 8 w 2 7 ",
"C t 7 6 e / 7 e / b / ) 7 2 C / ) [ A.e 2 ) k t e v e 7 w 3 - . C t 7 6 e * * e / b / ) 8 W.x./ ) N ) e 2 ) k t e v e 7 w 3 > k ",
"w 4 3 6 p C w e v y w e 7 y N.Z.b.F.E.v 3 C ] 8 w w w w y e 2 . w 4 3 6 p & * e v y w e w W.A.Z.b.b.N v 3 C ] 8 w w w w y e 7 w ",
"w 3 S 3 y w y t v y r 4 3 r _ ) e n.E.s 3 y s 7 7 7 k y w 7 7 . w 3 S 3 y $ = t v y r 4 6 W.v.) e t t s 3 y s 7 7 7 k y w 7 N 7 ",
"6 7 w 6 y w | 7 y k w 7 7 k / 7 3 x.E.7 2 5 7 6 6 p p w 7 7 3   6 7 w 6 y $ ; 7 y k w 7 7 Q.c.7 3 7 y 7 2 5 7 6 6 p p w 7 7 e > ",
"_ y w 3 ] e 6 , w v 7 7 6 v C y 7 x.E.3 3 p k e e p 7 3 3 w , . _ y 7 3 ] $ % , w v 7 7 6 Q.x.y 7 7 y 3 3 p k e e p 7 3 3 w 6 7 ",
"C v w 7 2 w 3 3 3 e 7 5 e 7 N 7 7 ..R.6 y k k v e B.w k y k 2 . b v w 7 2 $ $ 3 3 e 7 5 r W.z.7 7 3 3 6 y k k v e B.w k y k 7 w ",
"6 ~ v 7 : 6 S k C 7 2 e N C 2 2 7 x.E.C N k e h.y 7 v e y e t . 6 ~ v 7 : # ; k C 7 2 e C Q.t 2 7 w k C N k e h.y 7 N e y e ..y ",
"7 } e 5 < e k S e y 3 k e _ w e k N.E.e C [ y p 3 k t 7 6 3 > . 7 } e 5 < $ - S e y 3 k y Q.] e k k k e C [ y p 3 k y 7 6 3 3 6 ",
"7 6 7 y _ 6 w w e e w e w r e 7 w v.E.w w p 3 3 k t w 6 0 -.> . 7 6 7 y _ # * w e e w e t W.[ 7 w y y w w p 3 3 k t w 6 3 3 2 5 ",
"y 8 k y y y e w 6 7 3 p 6 e 7 { 3 _ S.7 t t 3 7 k 7 5 3 =.t., . y 8 k y y $ * w 6 7 3 p 7 D.e { 3 y y 7 t t 3 7 k 7 5 3 3 y 6 5 ",
"w 7 _ y h 7 k w w 3 7 w 3 e 7 w w w w 7 7 7 7 5 w 7 3 N.q.s.3 . w 7 _ y > O - w w 3 7 w 3 e 7 w w w e 7 7 7 7 5 w 7 3 N.] / w e ",
"6 7 w h 6 k r S w w k S m , w y / ] v 5 w b H 8.9.h y ] 6.r.4 X 6 7 e h +   * S w w k S m , w y / ] v 5 w b H b h h y ] y 3 y | ",
"5 7 7 7 7 7 6 6 ~ S y } w C y e v ..] 7 b C 7 r.5.} h y =.r.7 % 5 7 7 7 @   & 5 ~ S y } w C y e v ..] 7 b C 7 7 7 } h y 3 3 y y ",
"5 7 2 k w 7 7 , { e 7 w S v 6 6 7 w 7 t C 7 w r.4.7 7 ) 5.r.e y 5 7 2 k * + - , { e 7 w S v 6 6 7 w 7 t C 7 w 7 7 7 7 ) t 3 e y ",
"7 5 > 7 y 6 v C e 7 w 7 y w w w 6 w r 5 _ 7 t r.5.e t } 5.t.3 y 7 5 > 7 y 9 G C e e { 7 y w w w 6 w r 5 _ 7 t w 7 e t } t 7 3 y ",
"3 2 3 w 6 7 6 y y w 6 3 e 3 7 7 2 3 t t t t 7 r.6.1 r w 2.r.3 6 3 2 3 w 6 ,.;.y y N.Y.3 e 3 7 7 2 3 t t t t 7 7 y 1 r w 7 , 3 6 ",
"e 7 7 e w 7 7 v w 7 7 p k e ] p 6 y Z.b 3 2 3 r.5.6 6 2 5.r.w w e 7 7 e w ,.;.N w N.Y.p k e ] p 6 y Z.b 3 2 3 3 7 6 6 2 w 3 w w ",
") y 3 y v e y w 5 3 / k e [ v 3 w _ [ m 8 7 t s.6.e w 7 5.t.w p ) y 3 y v y.d.<.5 x.R.k e [ T.{ w _ [ m 8 7 t k e e w 7 e e w p ",
"[ [ < p k 7 w 7 5 e y w 6 6 6 3 k v r 7 e 7 s r.6.6 7 6 5.r.e y [ [ < p k &.l.,.5 N.R.w 6 6 R...k v r 7 e 7 s e w 6 7 6 w 6 e y ",
"k h y e w 7 w 3 5 6 6 w w 6 3 w k y y w > y M.i.w.e w 6 g q k r k h y e w H.k.>.5 x.Y.w w 6 R.z.k y y w > y M.p x.e w 6 e 3 k r ",
"y w y C k > w k y C e 1 b k N 6 6 6 7 y e y 7 u.6.3 3 3 7 3 y y y w y C k P k.p.y C.T.1 b k E.x.6 6 7 y e y 7 y y 3 3 3 7 3 y y ",
"7 k m m z.6 w y w e | 3 S y e w m y p N / y y r.7.y C v Q %.8 y 7 k m m z.H.k.1.w N.R.3 S y E.z.m y p N / y y 7 k y C v y k 8 y ",
"7 r w y 3 > 6 w w 7 5 6 7 7 7 N C C y e e 3 t r.6.p N y @.L.3 2 7 r w y 3 P k.,.w v.Y.6 7 6 S.f.C C y e e 4 t w p p N y w w 3 2 ",
"7 w 3 7 e 6 7 3 w 6 e e p m 7 w e y 4 _ N w 7 r.6.v e e $.L.7 w 7 w 3 7 e H.k.:.w v.T.e p m 7 w e y 4 _ N w 7 5 e v e e r e 7 w ",
"k 6 7 / y v v e , w p p y k e x k w e t S w w r.6.k y [ $.K.y ] k 6 7 / y I.k.1., N.R.p y k e h k w e t S w w 7 e k y [ p 7 y ] ",
"e 7 C r y k v m 3 C C { ] N p x.2 _ S 7 3 w w u.0.f./ e $.L.^ p e 7 C r y I.k.p.3 C.R.{ ] N p x.2 _ S 7 3 w w k k f./ e y t ^ p ",
"w 8 Z.h.w w 7 e 7 k t | v S / S 6 k ] _ r 3 h s.w.e e w R K.w v w 8 Z.h.w H.k.1.7 V.T.| v S / S 6 k ] _ r 3 h k x.e e w 7 7 w v ",
"w 5 | / 6 7 7 7 w k p C _ S y C 7 / ) t +.7 r a.e.w w 7 R J.) w w 5 | / 6 H.k.,.w V.R.C _ S y C 7 / ) t +.7 r _ Z.w w 7 7 7 ) w ",
"e 3 k w y 6 e r 7 r p m N m C C 7 y ] w 7 3 k y v w 7 w 2 : y o.e 3 k w y H.k.1.7 v.U.m N k C C 7 y ] w 7 3 k y v w 7 w 2 : y o.",
"8 w y N./ y N w 6 y 7 y p e } +.2 7 w y 8 7 y _ w w 6 7 m.5 ) m.8 w y N./ I.k.,.6 k w y p e } +.2 7 w y 8 7 y _ w w 6 7 m.5 ) m.",
"8 k N y 6 w w 7 ] y 3 7 e 7 } w 7 7 3 x.e y 5 7 2 ..v ) C w 7 8 8 k N y 6 H.k.,.] y 3 7 e 7 } w 7 7 3 x.e y 5 7 2 ..v ) C w 7 8 ",
"/ y 7 6 w 3 2 k y k ..7 7 7 w e y e y w 7 8 C { t } ) 8 W I.2 7 / y 7 6 w I k.p.y k ..7 7 7 w e y e y w 7 8 C { t } ) 8 8 w 2 7 ",
"C t 7 6 e / 7 e / b / ) 7 2 C / ) N ) e 2 ) k t e v e 7 U K > k C t 7 6 e X.f 3./ b / ) 7 2 C / ) N ) e 2 ) k t e v e 7 w 3 > k ",
"w 4 3 6 p C w e v y w e 7 y N.Z.b.b.N v 3 C ] 8 w w w w y e 7 w w 4 3 6 p C w e v y w e 7 y N.Z.b.b.N v 3 C ] 8 w w w w y e 7 w ",
"w 3 S 3 y w y t v y r 4 3 r _ ) e t t s 3 y s 7 7 7 k y Y #.N 7 w 3 S 3 y w y t v y r 4 3 r _ ) e t t s 3 y s 7 7 7 k y w 7 N 7 ",
"6 7 w 6 y w | 7 y k w 7 7 k / 7 3 7 y 7 2 5 7 6 6 p p w R L.e > 6 7 w R Y w | 7 y k w 7 7 k / 7 3 7 y 7 2 5 7 6 6 p p w 7 7 e > ",
"_ y w 3 ] e 6 , w v 7 7 6 v C y 7 7 y 3 3 p k e e p 7 3 T L.6 7 _ y w K.*.e 6 , w v 7 7 6 v C y 7 7 y 3 3 p k e e p 7 3 3 w 6 7 ",
"C v w 7 2 w 3 3 3 e 7 5 e 7 N 7 7 3 3 6 y k k v e B.w k $.P.7 w C v w K.L w 3 3 3 e 7 5 e 7 N 7 7 3 3 6 y k k v e B.w k y k 7 w ",
"6 ~ v 7 : 6 S k C 7 2 e N C 2 2 7 w k C N k e h.y 7 N e $.L...y 6 ~ v H.J 6 S k C 7 2 e N C 2 2 7 w k C N k e h.y 7 N e y e ..y ",
"7 } e 5 < e k S e y 3 k e _ w e k k k e C [ y p 3 k y 7 E J.3 6 7 } e 5 < e k S e y 3 k e _ w e k k k e C [ y p 3 k y 7 6 3 3 6 ",
"7 6 7 y _ 6 w w e e w e w r e 7 w y y w w p 3 3 h t w 6 3 3 2 5 7 6 7 y _ 6 w w e e w e w r e 7 w y y w w p 3 3 k t w 6 3 3 2 5 ",
"t 8 k y y y e w 6 7 3 p 6 e 7 { 3 y y 7 t t 3 7 h 7 5 3 3 y 6 5 t 8 k y y y e w 6 7 3 p 6 e 7 { 3 y y 7 t t 3 7 h 7 5 3 3 y 6 5 ",
"w 7 _ y h 7 k w w 3 7 w 3 e 7 w w w e 7 7 7 7 5 w 7 3 N.] / w e w 7 _ y h 7 k w w 3 7 w 3 e 7 w w w e 7 7 7 7 5 w 7 3 N.] / w e ",
"6 7 e h 6 k e S w w k S m , w y / ] v 5 w b H b h h y ] y 3 y | 6 7 e h 6 k e S w w k S m , w y / ] v 5 w b H b h h y ] y 3 y | ",
"5 7 7 7 7 7 6 6 ~ S y } w C y e v ..] 7 b C 7 7 7 } h y 3 3 y p 5 7 7 7 7 7 6 6 ~ S y } w C y e v ..] 7 b C 7 7 7 } h y 3 3 y p ",
"5 7 2 k w 7 7 , { e 7 w S v 6 6 7 w 7 t C 7 w 7 7 7 7 ) t 3 e y 5 7 2 k w 7 7 , { e 7 w S v 6 6 7 w 7 t C 7 w 7 7 7 7 ) t 3 e y ",
"7 5 > 7 y 6 v C e 7 w 7 y w w w 6 w r 5 _ 7 t w 7 e t } t 7 3 y 7 5 > 7 y 6 v C e 7 w 7 y w w w 6 w r 5 _ 7 t w 7 e t } t 7 3 y ",
"3 2 3 w 6 7 6 y y w 6 3 e 3 7 7 2 3 t t t t 7 7 y 1 r w 7 , 3 6 3 2 3 w 6 7 6 y y w 6 3 e 3 7 7 2 3 t t t t 7 7 y 1 r w 7 , 3 6 ",
"e 7 7 e w 7 7 v w 7 7 p k e ] p 6 y Z.b 3 2 3 3 7 6 6 2 w 3 w w e 7 7 e w 7 7 v w 7 7 p k e ] p 6 y Z.b 3 2 3 3 7 6 6 2 w 3 w w ",
") y 3 y v e y w 5 3 / k e [ v 3 w _ [ m 8 7 t k e e w 7 e e w p ) y 3 y v e y w 5 3 / k e [ v 3 w _ [ m 8 7 t k e e w 7 e e w p "
};
