/* XPM */
static char *xpm_[] = {
/* columns rows colors chars-per-pixel */
"64 64 149 2 ",
"   c black",
".  c #3F3021",
"X  c #521800",
"o  c #463424",
"O  c #4A3726",
"+  c #4C3926",
"@  c #4B3728",
"#  c #4D3A2A",
"$  c #543E2C",
"%  c #583F2C",
"&  c #56402E",
"*  c #5A422E",
"=  c #5D4431",
"-  c #5E4834",
";  c #614633",
":  c #644935",
">  c #694D37",
",  c #664C38",
"<  c #684D38",
"1  c #694C39",
"2  c #684C38",
"3  c #6A4D38",
"4  c #6A4D39",
"5  c #684F38",
"6  c #684F39",
"7  c #6A4E38",
"8  c #6B4E38",
"9  c #6A4E39",
"0  c #6B4E39",
"q  c #684E3A",
"w  c #694E3A",
"e  c #6B4F3A",
"r  c #6B4F3B",
"t  c #6C4E38",
"y  c #6C4E39",
"u  c #6C4F39",
"i  c #6C4E3A",
"p  c #6C4F3A",
"a  c #6C4F3B",
"s  c #6D4F3B",
"d  c #6C4F3C",
"f  c #6A4E39",
"g  c #6B5039",
"h  c #6D5038",
"j  c #6C5039",
"k  c #6C5139",
"l  c #6F5138",
"z  c #6C503A",
"x  c #6D503A",
"c  c #6C513A",
"v  c #6D513A",
"b  c #6D503B",
"n  c #6D513B",
"m  c #6E503A",
"M  c #6E513A",
"N  c #6E503B",
"B  c #6F503B",
"V  c #6E513B",
"C  c #6F523B",
"Z  c #6F533B",
"A  c #6A503C",
"S  c #6E503C",
"D  c #6E503D",
"F  c #6F513D",
"G  c #6F523C",
"H  c #6E523D",
"J  c #6F543F",
"K  c #6E513B",
"L  c #705139",
"P  c #705238",
"I  c #70523A",
"U  c #70533A",
"Y  c #70523B",
"T  c #70533B",
"R  c #72543A",
"E  c #71533C",
"W  c #71533E",
"Q  c #71523E",
"!  c #72543D",
"~  c #73543C",
"^  c #71543E",
"/  c #70543E",
"(  c #72543F",
")  c #73553E",
"_  c #74553E",
"`  c #75573F",
"'  c #77573F",
"]  c #76573F",
"[  c #72543D",
"{  c #73583F",
"}  c #0F2040",
"|  c #152560",
" . c #1B376D",
".. c #474648",
"X. c #6F5340",
"o. c #6E5541",
"O. c #735640",
"+. c #745640",
"@. c #755640",
"#. c #765641",
"$. c #745641",
"%. c #775840",
"&. c #765943",
"*. c #765943",
"=. c #795942",
"-. c #785A43",
";. c #7B5B43",
":. c #795B46",
">. c #7F5D44",
",. c #7C5E46",
"<. c #7E5F47",
"1. c #7A5B43",
"2. c #765B49",
"3. c #7F5E48",
"4. c #7C5E4A",
"5. c #7C5D48",
"6. c #7A604B",
"7. c #7E6148",
"8. c #7E614B",
"9. c #8F0C12",
"0. c #9E3000",
"q. c #ED1C24",
"w. c #B17C06",
"e. c #854F3D",
"r. c #F04C1F",
"t. c #815F47",
"y. c #815F47",
"u. c #805F4A",
"i. c #805F49",
"p. c #84634B",
"a. c #80614D",
"s. c #83654E",
"d. c #85654D",
"f. c #83644C",
"g. c #876651",
"h. c #866A54",
"j. c #8E6C54",
"k. c #8B6B52",
"l. c #916E51",
"z. c #927359",
"x. c #95745D",
"c. c #93735B",
"v. c #F0AA0C",
"b. c #CF8D64",
"n. c #2948B8",
"m. c #A5B5B6",
"M. c #FFC79F",
"N. c gray95",
"B. c #F9F9F9",
/* pixels */
"<.<.+ u v = ; = & : 7 ; * * * $ v G 2 = : = d : ; * = * ; * : 7 <.<.+ u v = ; = & : 7 ; * * * $ v G 2 = : = d : ; * = * ; * : 7 ",
"v g 7 : ; = ; $ & * * ; ; * $ ; v 7 7 ; o 7 j.u a.: ; * : $ v > v g 7 : ; = ; $ & * * ; ; * $ ; v 7 7 ; o 7 j.u a.: ; * : $ v > ",
"7 ; 7 ~ v o ; v 7 ~ : @ J v E * * * = 7 : 7 = 7 7 $ $ $ = $ 7 7 7 ; 7 ~ v o ; v 7 ~ : @ J v E * * * = 7 : 7 = 7 7 $ $ $ = $ 7 7 ",
"= v I I p.* ; 7 ; : 3.$ ' 7 : ; I 7 u E +.7 7 = v 7 ~ G 7 v - 7 = v I I p.* ; 7 ; : 3.$ ' 7 : ; I 7 u E +.7 7 = v 7 ~ G 7 v - 7 ",
"= 2 ; 7 $ o * ; ; = & * = = = E R ~ 7 : : % , ; u u E 7 ; ; $ # = 2 ; 7 $ o * ; ; = & * = = = E R ~ 7 : : % , ; u u E 7 ; ; $ # ",
"= ; $ = : * = $ ; * : : t I = ; : 7 % %.E ; = & : G : : , : = ; = ; $ = : * = $ ; * : : t I = ; : 7 % %.E ; = & : G : : , : = ; ",
"v * = +.7 G G : O ; u u 7 v : A v ; : , ' ; ; = : v 7 <.u = 7 =.v * = +.7 G G : O ; u u 7 v : A v ; : , ' ; ; = : v 7 <.u = 7 =.",
": = ~ 2 7 v G I $ ~ ~ :.=.E u d.# %.' = $ ; ; v v t.+.: 7 , X.t : = ~     v G I $ ~ ~ :.=.E u d.# %.' = $ ; ; v v t.+.: 7 , X.t ",
"; - x.u.; ; = : = v , 3.G ' +.' * v =.%.> $ g v s.: : ; = = ; G ;       ; ; = : = v , 3.G ' +.' * v =.%.> $ g v s.: : ; = = ; G ",
"; & 3.+.* = = = ; v u ~ %.' 7 ~ = +.$., 8.= > %.z.; ; = = - $.;         * = = = ; v u ~ %.' 7 ~ = +.$., 8.= > %.z.; ; = = = $.; ",
": $ v ; 7 * : 2 = : t I E I ~ ~ = 7 =.; = $ v 7 G ; = ; # . 7         ; 7 * : 2 = : t I E I ~ ~ = 7 =.; = $ v 7 G ; = ; # . 7 6.",
"- ; 7 k.+.7 E ; * 7 = 7 u : 2.8.# = ; 7 - = 7 %.; ; * = h.&           k.+.7         = 7 u : 2.8.# = ; 7 - = 7 %.; ; * = h.& $.h.",
"- v E 7 * ; ; = =.7 $ = : = 2.; = = $ f.: 7 & = # ,.G $.~ ;         E 7                 : = 2.; = = $ f.: 7 & = # ,.G $.~ ; = - ",
"+.7 = * ; $ # v 7 v 5.= = = ; : 7 : 7 ; = - ~ 1.; 2.$.- -           =                     = ; : 7 : 7 ; = - ~ 1.; 2.$.- - ; # = ",
"~ , = * : +.= : +.J +.$.= # ~ +.$.E $.: # $.v , : G :   ;                                   ~ +.$.E $.: # $.v , : G : = ; $ o v ",
"; % $ * u ~ ; : G 7 ; : = 7 k.c.g.g.E G $ ~ =.- ; ; ;   7                             : = 7 k.c.g.g.E G $ ~ =.- ; ; ; ; 7 : = ; ",
"; $ ' $ 7 ; 7 , G 7 2 % $ 2 %.$.: , , d $ 7 d = = = v                             7 2 % $ 2 %.$.: , , d $ 7 d = = = v 7 ; = E = ",
"* = ; * 7 ; 3.= 7 v ; = = v +.= $ = 7     & = * * u                             7 v ; = = v +.= $ = 7 = # & = * * u u ; = = : o ",
"%.7 ; $ =.: * O ; G = = * G ~ 7 = = 7 $         : u                                   = * G ~ 7 = = 7 $ $ u v : : u = $ $ ; * = ",
"~ G ; = # ; $ $ $ : = & : = E = = $ $ * 7                                                 = E = = $ $ * 7 v v G : l.; v 7 v = ; ",
"* o.G = . * ' v ~ = # : E ~ # # = ; v ~ E v                                                 # # = ; v ~ E v : u.7 = E : 7 : ,.7 ",
"= 2.: & + : v ' : 7 $ v : %.; : v                                                             : v v v : ~ <.7 u $ v 7 = * $ $ * ",
"= * = 7 %.* ; ; : : ; : ; 2 : = ; 7 7                         b.                    ; : ; 2 : = ; 7 7 ; ; u $ $ v , ; * $ $ # & ",
"7 - v 7 7 7 : ; * = $ u * : = >.$ 7 7 = ,                   b.b.b.      M.            u * : = >.$ 7 7 = , , $ = v = & $ $ 7 * & ",
"; = %.7 g = v ; ; $ = ; $ : = ; ; ; : = = =                     b.b.      M.b.        ; $ : = ; ; ; : = = = = & ; = $ k.=.+.; : ",
"* = ; g * v : ' ; ; v ' I O ; 7 +.=.G               b.  b.  e.m.    b.    e.M.  ;     ' I O ; 7 +.=.G & ; J { J g g 7 =.7 $ 7 3.",
"& = = = = = * * o.+.7 2.; ~ 7 : G 5.=.= J           b.b.e.b.e.B.B...  M.    M.e.  '   2.; ~ 7 : G 5.=.= J ~ = = = 2.g 7 $ $ 7 u ",
"& = # v ; = = O >.: = ; ' G * * = ; = , ~ = ; =     b.b.e.b.b.B.B...M.M.    M.M.  : = ; ' G * * = ; = , ~ = ; = = = = $., $ : 7 ",
"= & o = 7 * G ~ : = ; = 7 ; ; ; * ; > & %.= , ; = :     e.b.b.b.M.M.M.  b.M.M.M.b.  ; = 7 ; ; ; * ; > & %.= , ; = : , 2., = $ 7 ",
"$ # $ ; * = * 7 7 ; * $ : $ = = # $ , , , , = = 7 # > ;   e.b.b.M.M.M.  M.b.M.M.M.  * $ : $ = = # $ , , , , = = 7 # > ; = O $ * ",
": = = : ; = = G ; = = u v : =.u * 7 z.J $ # $ $ =         b.e.M.M.M.b.    b.M.M.M. .  u v : =.u * 7 z.J $ # $ $ = * * # ; $ ; ; ",
"$.7 $ 7 G : 7 ; & $ +.v : <.G $ ; %.<.I - = ,     r.0.r.b.b.b.e.e.    0.0.    | n.b.  v : <.G $ ; %.<.I - = , v : : ; = : : ; u ",
"<.<.+ u v = ; = & : 7 ; * * * $ v G 2 = : =   } }  .r.0.r.M.M.M.b.e.M.b.r.0.}   M.M.b.  * * * $ v G 2 = : = d : ; * = * ; * : 7 ",
"v g 7 : ; = ; $ & * * ; ; * $ ; v 7 7 ; o 7    . .}  .r.0.0.M.M.M.b.e.M. .r.} } b.M.M.  ; * $ ; v 7 7 ; o 7 j.u a.: ; * : $ v > ",
"7 ; 7 ~ v o ; v 7 ~ : @ J v E * * * = 7 :   M.e.M. .} r.r.r.r. . . . . . .r.} } e.b.M.  J v E * * * = 7 : 7 = 7 7 $ $ $ = $ 7 7 ",
"= v I I p.* ; 7 ; : 3.$ ' 7 : ; I 7 u E +.  e.M.M.b.  r.r.0.r.r. .} } } } N.          $ ' 7 : ; I 7 u E +.7 7 = v 7 ~ G 7 v - 7 ",
"= 2 ; 7 $ o * ; ; = & * = = = E R ~ 7 : :   b.M.M.    0.r.r.0.r.r. .} } } m.  ; ; = & * = = = E R ~ 7 : : % , ; u u E 7 ; ; $ # ",
"= ; $ = : * = $ ; * : : t I = ; : 7 % %.E   M.b.  G :   r.r.0.0.r.r. . .r.  = $ ; * : : t I = ; : 7 % %.E ; = & : G : : 2 : = ; ",
"v * = +.7 G G : O ; u u 7 v : A v ; : ,   M.M.  : v 7 <.    n.n.0.r.r.r.0.  G : O ; u u 7 v : A v ; : , ' ; ; = : v 7 <.u = 7 =.",
": = ~ 2 7 v G I $ ~ ~ :.=.E u d.# %.' =   M.b.  v t.+.: 7   | | | | | |   v G I $ ~ ~ :.=.E u d.# %.' = $ ; ; v v t.+.: 7 , O.t ",
"; - x.u.; ; = : = v , 3.G ' +.' * v =.%.  n.n.  s.: : ;   r.0.0.n.n.n.n.  ; = : = v , 3.G ' +.' * v =.%.> $ g v s.: : ; = = ; G ",
"; & 3.+.* = = = ; v u ~ %.' 7 ~ = +.$.  | n.n.  z.; ; =   r.0.r.r.r.X 0.r.  = = ; v u ~ %.' 7 ~ = +.$., 8.= > %.z.; ; = = = $.; ",
": $ v ; 7 * : 2 = : t I E I ~ ~ = 7 =.  M.M.M.M.  ; =   r.0.r.r.r.r.X X r.0.  2 = : t I E I ~ ~ = 7 =.; = $ v 7 G ; = ; # . 7 6.",
"- ; 7 k.+.7 E ; * 7 = 7 u : 2.8.# = ;   M.M.M.b.M.      r.r.r.r.r.0.X X r.r.  ; * 7 = 7 u : 2.8.# = ; 7 - = 7 %.; ; * = h.& $.h.",
"- v E 7 * ; ; = =.7 $ = : = 2.; = = $   M.b.M.b.      r.r.r.r.r.r.  X r.r.r.  = =.7 $ = : = 2.; = = $ f.: 7 & = # ,.G $.~ ; = - ",
"+.7 = * ; $ # v 7 v 5.= = = ; : 7 : 7 ;     M.M.    0.r.r.r.r.0.X   0.r.r.r.0.  7 v 5.= = = ; : 7 : 7 ; = - ~ 1., 2.$.- - ; # = ",
"~ , = * : +.= : +.J +.$.= # ~ +.$.E $.: # $.    :   r.r.r.r.0.0.0.  r.0.r.r.r.  +.J +.$.= # ~ +.$.E $.: # $.v , : G : = ; $ o v ",
"; % $ * u ~ ; : G 7 ; : = 7 k.c.g.g.E G $ ~ =.-   0.r.r.r.0.r.r.    0.r.0.r.r.  G 7 ; : = 7 k.c.g.g.E G $ ~ =.- ; ; ; ; 7 : = ; ",
"; $ ' $ 7 ; 7 , G 7 2 % $ 2 %.$.: , , d $ 7 d =   0.r.r.r.r.0.    X X 0.r.r.r.0.  7 2 % $ 2 %.$.: , , d $ 7 d = = = v 7 ; = E = ",
"* = ; * 7 ; 3.= 7 v ; = = v +.= $ = 7 = # & =   r.0.0.X X X   o   0.0.X 0.0.0.r.  v ; = = v +.= $ = 7 = # & = * * u u ; = = : o ",
"%.7 ; $ =.: * O ; G = = * G ~ 7 = = 7 $ $ u v   r.0.X 0.0.r.  = %.  r.0.X 0.r.  ; G = = * G ~ 7 = = 7 $ $ u v : : u = $ $ ; * = ",
"~ G ; = # ; $ $ $ : = & : = E = = $ $ * 7 v v   0.r.r.r.r.0.  ; ~ G   r.r.r.  $ $ : = & : = E = = $ $ * 7 v v G : l.; v 7 v = ; ",
"* o.G = . * ' v ~ = # : E ~ # # = ; v ~ E v :    .q.r.r.    ,.7 * o.  } 9.  ' v ~ = # : E ~ # # = ; v ~ E v : u.7 = E : 7 : ,.7 ",
"= 2.: & + : v ' : 7 $ v : %.; : v v v : ~ <.7    .q.    * $ $ * = 2.  } 9.  v ' : 7 $ v : %.; : v v v : ~ <.7 u $ v 7 = * $ $ * ",
"= * = 7 %.* ; ; : : ; : ; 2 : = ; 7 7 ; ; u $   v.v.  * $ $ # & = * =   w.  ; ; : : ; : ; 2 : = ; 7 7 ; ; u $ $ v , ; * $ $ # & ",
"7 - v 7 7 7 : ; * = $ u * : = >.$ 7 7 = , ,    .q.  & $ $ 7 * & 7 - v   } 9.    * = $ u * : = >.$ 7 7 = , , $ = v = & $ $ 7 * & ",
"; = %.7 g = v ; ; $ = ; $ : = ; ; ; : = = =   q. .  $ k.=.+.; : ; = %.  } } 9.9.  $ = ; $ : = ; ; ; : = = = = & ; = $ k.=.+.; : ",
"* = : g * v : ' ; ; v ' I O ; 7 +.=.G & ;    .q. .  7 =.7 $ 7 3.* = : g * v : ' ; ; v ' I O ; 7 +.=.G & ; J { J g g 7 =.7 $ 7 3.",
"& = = = = = * * o.' 7 2.; ~ 7 : G 5.=.= J ~ = = = 2.g 7 $ $ 7 u & = = = = = * * o.' 7 2.; ~ 7 : G 5.=.= J ~ = = = 2.g 7 $ $ 7 u ",
"& = # v ; = = O >.: = ; ' G * * = ; = , ~ = ; = = = = $., $ : 7 & = # v ; = = O >.: = ; ' G * * = ; = , ~ = ; = = = = $., $ : 7 ",
"= & o = 7 * G ~ : = ; = 7 ; ; ; * ; > & %.= , ; = : , 2., = $ 7 = & o = 7 * G ~ : = ; = 7 ; ; ; * ; > & %.= , ; = : , 2., = $ 7 ",
"$ # $ ; * = * 7 7 ; * $ : $ = = # $ , , , , = = 7 # > ; = O $ * $ # $ ; * = * 7 7 ; * $ : $ = = # $ , , , , = = 7 # > ; = O $ * ",
": = = : ; = = G ; = = u v : =.u * 7 z.J $ # $ $ = * * # ; $ ; ; : = = : ; = = G ; = = u v : =.u * 7 z.J $ # $ $ = * * # ; $ ; ; ",
"$.7 $ 7 G : 7 ; & $ +.v : <.G $ ; %.<.I - = , v : : ; = : : ; u $.7 $ 7 G : 7 ; & $ +.v : <.G $ ; %.<.I - = , v : : ; = : : ; u "
};
