/* XPM */
static char *lose_floor1692725076[] = {
/* columns rows colors chars-per-pixel */
"64 64 119 2 ",
"   c #070507",
".  c #080607",
"X  c #080608",
"o  c #0D0A0A",
"O  c #160507",
"+  c #130E0D",
"@  c #181507",
"#  c #16110E",
"$  c #19120F",
"%  c #1B1411",
"&  c #250408",
"*  c #350408",
"=  c #241606",
"-  c #201713",
";  c #231A15",
":  c #291D15",
">  c #2A1F18",
",  c #282506",
"<  c #393506",
"1  c #2D211A",
"2  c #33251D",
"3  c #36291E",
"4  c #39291F",
"5  c #372820",
"6  c #3C2C22",
"7  c #3F3021",
"8  c #440409",
"9  c #530309",
"0  c #62030A",
"q  c #71030A",
"w  c #492D04",
"e  c #4C310A",
"r  c #402F23",
"t  c #453325",
"y  c #4A3727",
"u  c #4C3927",
"i  c #4B3729",
"p  c #4D3A2A",
"a  c #543E2C",
"s  c #583F2C",
"d  c #494406",
"f  c #5A5405",
"g  c #6A6405",
"h  c #7B7305",
"j  c #56412E",
"k  c #5A422E",
"l  c #564031",
"z  c #5D4431",
"x  c #5E4835",
"c  c #614633",
"v  c #644935",
"b  c #694D37",
"n  c #664C38",
"m  c #6A4E39",
"M  c #6D513B",
"N  c #72543D",
"B  c #73583F",
"V  c #6E5441",
"C  c #745641",
"Z  c #765942",
"A  c #7B5B44",
"S  c #765B49",
"D  c #7D5E48",
"F  c #7C614A",
"G  c #81020B",
"H  c #90020B",
"J  c #9F020C",
"K  c #AE010C",
"L  c #BD010D",
"P  c #CD010D",
"I  c #DC000E",
"U  c #EB000E",
"Y  c #FF2200",
"T  c #FF3100",
"R  c #BB7201",
"E  c #FF4800",
"W  c #FF5D00",
"Q  c #FF6F00",
"!  c #FF7300",
"~  c #815F47",
"^  c #805F4A",
"/  c #83634D",
"(  c #816651",
")  c #876A55",
"_  c #8C6C53",
"`  c #916E51",
"'  c #93735B",
"]  c #8B8404",
"[  c #9C9404",
"{  c #ACA404",
"}  c #BDB403",
"|  c #C98500",
" . c #C48E01",
".. c #DF9500",
"X. c #E78F00",
"o. c #FF8F00",
"O. c #E49600",
"+. c #EC9400",
"@. c #FF9700",
"#. c #F69B00",
"$. c #FC9E00",
"%. c #FFA400",
"&. c #FFAB00",
"*. c #FFB400",
"=. c #FFBA00",
"-. c #FFB70E",
";. c #D49534",
":. c #CDC303",
">. c #DED303",
",. c #EEE302",
"<. c #FFF302",
"1. c #FFC62A",
"2. c #FFD77C",
"3. c #FFDD9E",
"4. c #FFE8AC",
"5. c #FFF8BB",
"6. c #FFF6C4",
"7. c #FFFBC8",
"8. c #FFFFFE",
/* pixels */
"D A u M m c c k j v b c k k k s M N b z b k m v c s c z c s n b ^ D u b M c c s j v b v s s k a N N b k b c m v c s c z c s b b ",
"M M b v c z c j j k k c v k s z M m b c y b ` m ^ v v s n s M v m m b v c c c s s s k c v k s c m m m c t b _ m ^ v c s c s M v ",
"b c b N m t c N b N c u N b M z k z k b b m k m b s a a s a m m m c b N b t c N b N c y V m N k k k z m b m z n m s a a z a m b ",
"k M M N / k c n c v / u B b b c N b m N B m b c m m V N n m c m z m N N / k c b c v ~ a B b b c N b m N C m n c M m C M m m c n ",
"c b c m j t s c c z k k c k c N N N m b v k n c M M C v c c s i c b c m k t k z c z s s c k c N N N b b b s b v m M M b c c a p ",
"z c s k v k z a c z c b b N c c v b s N N v k j v M v v m v c v k c s k b k k a c c b b m m c c c b s N M c k k c V v v n v s v ",
"M k k B b N M v u c M b b b v b m z v n N v x x v M b ~ m c b C M s k B m N M v y c m M b M b m M c b b N c c z b M b ^ m c V A ",
"v k N b m M m N s N N ~ B N M / a B Z k s c c M M ~ C b m v V b v z N b m m M M s N N A B N m / u B B c s c b m M ~ C b b v V n ",
"c c ' ^ c c c v z M b ~ N N N B j M A Z v a M M ( n v c z z v M v z ' ^ c c s n c m b S N N Z N k M A Z v j M M / b c c s c c V ",
"c s ^ C k z z s c M b N B N m N z C C n F k v Z ' c v z z z C v c s ^ C c s c s v V m C Z N b N k B B v F l v Z ' c V s c s V n ",
"m a V c m s v b z b b N N N B N z y 5 7 z a 2 $ % 1 x n p 7 n D b a N v b > # + ; r b i 2 % + o $ 2 B v x j M n M c c n p 6 n D ",
"c c m _ C m N c k m z b m v A p #       6 1         o 1 F l C ) z v n ) 5 X X   X X $ X   . X     . 1 m x k M Z v c s c ) s C ) ",
"s V M m k c c z A m a z c s 5     @ [     #   :.:.<     > v z z z m N n # X :.>.[ <     [ :.>.,.:.  # / v m a z p A m N C n s x ",
"S m z s c s a M m m A l z ;   # { <.<.{     d <.<.<.>.@ . 3 %   X X + : + X >.<.<.<.]   } <.<.<.,.  o c z z N A v S C v x n a l ",
"C c z s v C z n C V C C z +   >.<.<.<.<.g   :.<.<.<.:.  % . : e w =   X o   ,.<.<.<.f   g <.<.<.<.    v i C N n v M c z v a t V ",
"c s s z m N c n N n v v z >   , ,.<.<.<.,.g <.<.<.<.,   $ 3.7.1.*.*.#.d     <.<.<.<.# . @ <.<.<.<.@   n s N Z l v v c v n n z z ",
"c s C s m c m b V b v a a c ; X = ,.<.<.<.<.<.<.<.[   + 6.8.4.-.*.*.=.$.h   <.<.<.<.      ,.<.<.<.d   a a b m z z z N n v s N z ",
"k z c z b c ^ s m m v c z M m % o d ,.<.<.<.<.<.,.@   ;.5.2.*.%.&.*.*.=. .@ <.<.<.,.  o   :.<.<.<.d   t a s z k s m m c c c v t ",
"C b c a A v s i v N s c s N C c +   f <.<.<.<.<.g     %.*.&.@.W Q %.*.=.O.h ,.<.<.,.  o   :.<.<.<.d   6 a m m v n m z a a v s z ",
"C M c s i z a a p v c a v z M c 6 . @ >.<.<.<.:.      &.*.*.! Y T o.*.=.+.h >.<.<.,.  o   { <.<.<.d   t m M m M n ` v N m m z v ",
"z V M z 6 k N m N c i c N N p r     { <.<.<.<.,   >   %.*.*.@.E W &.*.=...g :.<.<.<.      } <.<.<.d   j N M v / m z N v m v A M ",
"z Z n j p v N B b m s M v Z c ;   g <.<.<.<.[   % z   R =.*.&.%.%.&.*.*. .  [ <.<.<.g     >.<.<.<.@ . c N D m m a M b c a a p j ",
"k k k b N k c c n n v v c b 2   @ ,.<.<.<.,.@   y n >   &.=.*.*.=.*.=.+.f   < <.<.<.>., < <.<.<.,.  o c k M a k M b z k a j p j ",
"m x N m m b b c s s p M s v # . :.<.<.<.<.g   - M z a %   X.*.=.*.&.| <   o   :.<.<.<.<.<.<.<.<.}   % x b n a z M z j a a n k j ",
"x l Z M M x M v z j k c s z . @ ,.<.<.<.:.  X p v z j F >       X .     % 1   d <.<.<.<.<.<.<.<.f   3 x x z z l c z j ) B B c n ",
"j x v m k M v B c b M B M y ; . @ >.<.<.,   3 M m m n Z m 1 ; o     $ 2 z m @   h <.<.<.<.<.<.:.  o n j x M B V M M m A m j b D ",
"j z x z z z k j N N b A c N z ;     [ {   ; z z k F m m s a b b j x k z z k y     d >.<.<.<.{     6 Z z M B z z z Z m m k a b M ",
"j j j M c k z u A b k c B N k k :         5 x z k x x V n a v M j z a m x z z 4 #               1 x z m M z c z z z x V n a v m ",
"k j t z n 1 %   .       % 6 c c k 6 1 ; t z n c x v n F x x a n z j y 7 1 o       o o       % 2 3 2 2 % % $ o o   $ 2 S v z p m ",
"j j a c 1               . . 4 z p a n n n n k z m u n x j y a k a y %                 # p a :                         2 z y a l ",
"x z z v #   L U U U U U J   1 m z m ' M j p l j z k z j x j k v z -   O H P U U U L *     p   O 0 G G K L L I I U L   + c a v n ",
"M M j n %   L U U U U U G   5 a c Z A N a ; #       o % t c c M 1   & I U U U U U U U q   +   q U U U U U U U U U L   # v v v n ",
"/ F u b $   L U U U U U q   2 j M M z ; .               . $ a y   O P U U U U U U U U U 9     J U U U U U U U U U K   % v k v b ",
"b m b b $   L U U U U U 8 . r c M v %     0 P U U U I H O     1   G U U U U U U U U U U P     P U U U U U U U U U J   ; n a N v ",
"b c m N $ X L U U U U U 8   a k a o   * I U U U U U U U U 0   .   P U U U U U U U U U U U 9   U U U U U U U U U U H   ; z a b b ",
"k M m N ; X L U U U U U     c c :   9 I U U U U U U U U U U 0     U U U U U U U U U U U U J 9 U U U U U U U U U U q   6 n M z m ",
"c b c b #   L U U U U U     z p   O I U U U U U U U U U U U I O 8 U U U U U I I U U U U U K H U U U U U U U U U U q X 6 v z a p ",
"z c k z +   P U U U U I   o z 1   H U U U U U U L U U U U U U H q U U U U q     J U U U U L K U U U U U U U U U U 8 X i n v l v ",
"m k k N o   I U U U U P   # c #   P U U U U U U q J U U U U U P q U U U I       q U U U U J   K U U U U U U U U U 8   z m z m A ",
"v k N b o   I U U U U L   % M     U U U U U q         L U U U I 8 U U U U &     J U U U U G   K U U U U I 0 J P I O X v n v C m ",
"c x ' / o   I U U U U K   ; 6     U U U U U U J     K U U U U U   I U U U I 8       O * H *   L U U U U I           ; c z z v M ",
"c k ~ B o   I U U U U J           I U U U U U q 8 O J U U U U I   q U U U U U L 9             L U U U U U L I O   ; l z x z Z c ",
"n j m c o   I U U U U H   & q K q L U U U U I J U I H U U U U K     q U U U U U U U G     #   P U U U U U U I   o v z n p 7 n F ",
"c c m _ o   I U U U U I U U U U 8 9 U U U U U U U U U U U U U 0       & J U U U U U U J   o   I U U U U U I G     % z z ) l C ) ",
"z m N n o   I U U U U U U U U U *   L U U U U U U U U U U U P     H J 8     q I U U U U 9     I U U U U P     9 &   c N M n z x ",
"Z b z k o   I U U U U U U U U U     O P U U U U U U U U U I &     L U U U J     K U U U K     U U U U U P P U U 8   l x x c p z ",
"Z v c s o   I U U U U U U U U I   o   O L U U U U U U U I * . ;   K U U U P     O U U U L     U U U U U U U U U *   a z z j y M ",
"c a a k     U U U U U U U U U P   # 1     8 L U U U P G O   $ 2   9 U U U U P G I U U U K   O U U U U U U U U U     c c m c z x ",
"c s N a     U U U U U U U U U L . % b 2 +                 % n a o   L U U U U U U U U U 9   8 U U U U U U U U U     M m c z N z ",
"k z c z     U U U U U U U U U K . @ m z y : #       + : t x v y 1   O K U U U U U U U G     8 U U U U U U I P J . % m v c z v y ",
"B m z s     U I P L H G * &     . 2 b j a m m v n m s s j v k k B :     8 K I I I J &       0 I P K q * O       . r z s a c s z ",
"B M c k #     .         . . X $ 2 s u k n m N N v ` v V m M k c N M 3 +       .       % y   X X           o + : 6 ` c M n M z c ",
"k B M x 3 % . o # # - 2 a v p p k v m B N M v D m c N v n n S n k V V z : $ + O o - 2 v N c % o + % 4 z b M n / b c N v m v A m ",
"z Z v j u v M B v m a m c Z v v N m N v N D b M a N n v s a a k z Z n j p c m B v m a m b Z c v N M M n N D b M j M b z j j p j ",
"k j j m B k x v v b v v v b b k c b m c z m j j m n z s a s p a k j j M Z k z n v v v v c b b k c m m c c m k k M n k k a j p j ",
"M x M m m b m z s s a m s b k A a m m c n n j x m v a a s n z a m x M n m n v c s z a m z v s A a m m z n n a k M z j a j m k j ",
"x z Z m m c N c v a c c s c k c c c v z z z l j n l p _ A C v n x x B b M x M x c s z c s v z c c x v z z z l l v k p _ B B v n ",
"j z v m s M v N v v m C N y v m B A M k c M Z M M M m A n a n ^ j z v M j M v B c c m B N y v m B A M j x B B M m M m F m j b D ",
"j z z k c k z s V C m C c C b v N A A k V V x z z Z m m s a n m j x z z z z z k V Z m C c N b v N A Z x M B x z x Z m m s s b m ",
"j z a m v z z i A n z c N N k s z c z n C z c z z z c C n s n m j l j m c k z u A n z v B N s k z c k m M x v z k z x V n a v M ",
"z k y z V a V C b z c z m v c v k c n j B z n c z n n S v z a m z k y z b k M N v z n l m v c v k v v j B z v c z c M S v z a n ",
"a p a z s c a n m v s a v s z z u j n b n M k k m i m x z t a a a p p c k z k b m n s a v s k k p a n n m n z z M p n c l p a l ",
"n z z c c s s V n s s N m v Z m k m ' M j p j j k k j p v a c v n z k v c k z M v z z m M v A m k b ' M j u a j k k k p c a v v ",
"C m a m V n V c s a C M v A N s c B F M x x b M b n x x v v c m C m a m N v M x s a Z M v A N a c S A N x x n N v b c z v v z m "
};
