/* XPM */
static char *xpm_[] = {
/* columns rows colors chars-per-pixel */
"64 64 252 2 ",
"   c #1C1D33",
".  c #1E233A",
"X  c #3F3021",
"o  c #22253A",
"O  c #25273D",
"+  c #3A2A3B",
"@  c #3A142E",
"#  c #721027",
"$  c #4A3726",
"%  c #4D3A2A",
"&  c #483625",
"*  c #543E2C",
"=  c #583F2B",
"-  c #572837",
";  c #702933",
":  c #50162F",
">  c #56412E",
",  c #5A422E",
"<  c #5D4431",
"1  c #5D4935",
"2  c #564938",
"3  c #59553C",
"4  c #4C5238",
"5  c #614633",
"6  c #644935",
"7  c #694D37",
"8  c #664C39",
"9  c #6A4E39",
"0  c #6D453C",
"q  c #63523B",
"w  c #6D513B",
"e  c #665A3E",
"r  c #72543D",
"t  c #73593F",
"y  c #72423F",
"u  c #292D42",
"i  c #232C42",
"p  c #2C3246",
"a  c #2B374A",
"s  c #323B4D",
"d  c #35384B",
"f  c #273D52",
"g  c #353C52",
"h  c #382A4B",
"j  c #5D3A48",
"k  c #4F344E",
"l  c #683548",
"z  c #601E44",
"x  c #394557",
"c  c #2E4B50",
"v  c #2E7757",
"b  c #375569",
"n  c #315468",
"m  c #386469",
"M  c #2E6576",
"N  c #366E77",
"B  c #5B5847",
"V  c #444C5C",
"C  c #5B5859",
"Z  c #514D50",
"A  c #6E5541",
"S  c #6B5B43",
"D  c #655A44",
"F  c #745641",
"G  c #765A43",
"H  c #7A5B44",
"J  c #7D5E48",
"K  c #745B4A",
"L  c #734B51",
"P  c #586649",
"I  c #567757",
"U  c #526C55",
"Y  c #696448",
"T  c #7B624B",
"R  c #74654B",
"E  c #696756",
"W  c #766953",
"Q  c #687855",
"!  c #78765A",
"~  c #67714E",
"^  c #495666",
"/  c #50526B",
"(  c #6C5566",
")  c #596565",
"_  c #48786C",
"`  c #577A68",
"'  c #496776",
"]  c #586676",
"[  c #487775",
"{  c #4B6C68",
"}  c #70736D",
"|  c #8B101D",
" . c #871625",
".. c #B23528",
"X. c #8D232A",
"o. c #C03E26",
"O. c #95463A",
"+. c #B85534",
"@. c #DD461E",
"#. c #D64D29",
"$. c #EA6C37",
"%. c #DC5B31",
"&. c #815E49",
"*. c #94534D",
"=. c #AE584F",
"-. c #83634C",
";. c #886A53",
":. c #93735B",
">. c #8E7155",
",. c #B57257",
"<. c #847865",
"1. c #917074",
"2. c #AC736B",
"3. c #83596D",
"4. c #D06F49",
"5. c #EB7745",
"6. c #C77B6A",
"7. c #8E3746",
"8. c #3D8377",
"9. c #30B371",
"0. c #26B058",
"q. c #67865B",
"w. c #73815C",
"e. c #459478",
"r. c #518872",
"t. c #768968",
"y. c #779974",
"u. c #6D906B",
"i. c #75AB7B",
"p. c #6DA976",
"a. c #4FB16E",
"s. c #858B73",
"d. c #968B7B",
"f. c #87957A",
"g. c #86816A",
"h. c #B78577",
"j. c #9E936D",
"k. c #F98A4A",
"l. c #FC9552",
"z. c #F6914F",
"x. c #CD8B77",
"c. c #E6906A",
"v. c #FFA76B",
"b. c #347688",
"n. c #377A91",
"m. c #3A6E82",
"M. c #50778C",
"N. c #667683",
"B. c #6A6F99",
"V. c #5F6493",
"C. c #887C86",
"Z. c #368987",
"A. c #389096",
"S. c #38AC91",
"D. c #3B97A6",
"F. c #3BB7AB",
"G. c #458A95",
"H. c #548797",
"J. c #49918D",
"K. c #708B92",
"L. c #4AAB8C",
"P. c #7CAD81",
"I. c #79B685",
"U. c #6FAA9F",
"Y. c #5095B1",
"T. c #4EAEB6",
"R. c #73ACB0",
"E. c #6F9FA9",
"W. c #3DCBB3",
"Q. c #46C9AF",
"!. c #6ECBB7",
"~. c #60C892",
"^. c #4B95CB",
"/. c #4EAFCE",
"(. c #71B2C4",
"). c #529DEF",
"_. c #51A8ED",
"`. c #4FB9EB",
"'. c #55ABEB",
"]. c #6AACF2",
"[. c #70B3F2",
"{. c #4ECED0",
"}. c #72E5D2",
"|. c #50CCE7",
" X c #67C7EC",
".X c #76D5EB",
"XX c #6ED2EC",
"oX c #65E4E6",
"OX c #8A9B84",
"+X c #989988",
"@X c #938D93",
"#X c #AE9288",
"$X c #8AA789",
"%X c #97AA93",
"&X c #97B598",
"*X c #8EB18E",
"=X c #A8A298",
"-X c #B2A79D",
";X c #8097A5",
":X c #8385A7",
">X c #8EB3AB",
",X c #B3B6AC",
"<X c #C99886",
"1X c #D79E86",
"2X c #E19C82",
"3X c #D3A790",
"4X c #ECAE8E",
"5X c #CBBBAE",
"6X c #87C396",
"7X c #92C59E",
"8X c #99C7A5",
"9X c #93D5AD",
"0X c #B9C6B9",
"qX c #A6D5B6",
"wX c #A9DCBD",
"eX c #A8D8BA",
"rX c #AACBB3",
"tX c #A8E1BF",
"yX c #81B6E4",
"uX c #B7D8C3",
"iX c #ADCDC9",
"pX c #80E8DB",
"aX c #ACE2C2",
"sX c #B5E5CA",
"dX c #B0EAD7",
"fX c #8AD2F0",
"gX c #ACD2EC",
"hX c #96ECEE",
"jX c #A4E8F2",
"kX c #B8F4F4",
"lX c #ADF1F0",
"zX c #8AC5D3",
"xX c #C9CBC7",
"cX c #C4DACC",
"vX c #CFDFD6",
"bX c #C7EAD8",
"nX c #D3E6DC",
"mX c #CFEFE0",
"MX c #D4ECE3",
"NX c #D8F2E8",
"BX c #C7F5F5",
"VX c #DAF8F9",
"CX c #D0E6F7",
"ZX c #E4ECEB",
"AX c #E2F2ED",
"SX c #E5F6F2",
"DX c #EAF9F7",
"FX c #EDFAFB",
"GX c #E7F7F8",
"HX c #F1FBFD",
"JX c #E3EFFC",
"KX c #C6D5E2",
/* pixels */
"J J $ 9 w < 5 , > 6 9 5 , , , * w r 7 < 6 5 A 6 5 = < , 5 , 6 7 J J $ 9 w < 5 < > 6 9 5 , , , * r w 7 < 6 < 9 6 5 , < , 5 , 6 7 ",
"w w 9 6 5 < 5 * > , , 5 5 , * 5 w 9 9 5 % rXd.9 -.6 6 , 6 = w 7 w w 9 6 5 5 D 3 > , > 5 5 , * 5 w 9 9 5 & 7 >.9 -.6 5 , 6 = w 7 ",
"7 5 7 r w & 5 w 7 r 6 $ w w r , , , < 7 q.nX<.9 7 * = = < * 9 7 7 5 7 r w OX6Xw.7 r 6 % w w r , , , < 7 6 9 < 9 7 * = = < * 9 7 ",
"< w r r -., 5 9 5 6 J * t 7 6 5 r 7 9 r p.NX<.< 9 9 r w 9 w D OX< w r r -.$X6XQ 5 6 J * t 7 6 5 r 7 9 r F 9 9 < w 9 r r 9 w < 9 ",
"< 7 5 9 = & , 5 5 < > , < < < r r r 9 6 &XAX<.5 9 9 W Q 5 5 D qX< 7 5 9 = $X6XQ 5 < > , < < < r r t 9 6 6 = 8 5 9 9 r 7 5 5 * % ",
"< 5 = < 6 , < * 5 , 6 6 9 r < 5 6 7 = G bXFX%XD 6 w t.f.8 6 D qX< 5 = < 6 $X6XI 5 , 6 6 9 r < 5 6 7 = G r 5 < > 6 w 6 6 8 6 < 5 ",
"w , < F 9 w w 6 $ 5 9 9 7 w 6 w w 5 6 8 ZXHXsX! 6 w s.%X9 < R eX9 , , F 9 %X6XQ $ 5 9 9 7 w 6 w w 5 6 8 t 5 5 < 6 w 7 J 9 < 9 H ",
"6 < r 8 9 w w r = r r H H r 9 -.% G t < ZXHXsX<.w -.f.%X9 D f.qX5 , r 7 9 %X6Xw.= r r H H r 9 -.% G t < = 5 5 w w &.F 6 9 8 A 9 ",
"5 < :.&.5 5 < 6 < w 8 J w t F t , w H G ZXHXbXf.;.7 s.&XK R aXeX5 < :.&.5 f.P.~ < w 8 J w t F t , w H G 7 * w w -.6 6 5 < < 5 w ",
"5 > J F , < < < 5 w 9 r G t 7 r , t F 8 ZXFXHXbX+X5 s.bXxXE aXeX5 > J F , < < < 5 w 9 G ! ! 9 r < F r 6 T < 7 G :.5 8 < < < F 5 ",
"6 * w 5 9 , 6 7 < 6 9 r r r r r < 9 H 5 uXbXSXSX+Xq s.bX0XB aXeX6 * w 5 9 , 6 7 < 7 t <.NXwXG F < 9 H 5 < * w 9 w 1 ` 5 % X 7 T ",
"< 5 9 ;.F 9 r 5 , 9 < 9 9 6 K T % , 5 9 qX9XNXHX8X~ t.bXxXQ aXeX< 5 9 ;.F 9 r 5 , ! wXDXDXwXT T % < 5 9 < < 9 G 5 5 < < ;.> F ;.",
"< w r 9 , 5 5 < H 9 * < 6 < K 5 < < * -.6XQ 8XbX6Xw.t.aXAXuXsXqX< w r 9 , < 1 < H g.mXmXDXwXT 5 < < * -.6 9 > < % H w F r 5 < 1 ",
"F 9 < , 5 = % w 7 w J < < < 5 6 9 6 9 5 D 1 W i.p.w.R +XFXDXNXqXF 9 < , 5 * % w 7 G f.9XDXtXq 6 9 6 9 5 < < r H 5 K F 1 < 5 % < ",
"r 8 < , 6 F < 6 F w F F < % r F F r F 6 % F w D Y S 6 d.HXHXDXqXr 8 < , 6 F < 7 G w W *XDXwXK F F r F 6 % F w 8 6 w 6 < 5 * & w ",
"5 = * , 9 r 5 6 w 9 5 6 < 7 ;.:.;.;.r w = r H < 5 5 6 ! wXHXDXqX5 = * , 9 r Q Q ! t.q t.mXwX>.:.;.;.r w = r H < 5 5 5 5 9 6 < 5 ",
"5 = t * 9 5 9 7 w 7 7 = * 7 G F 6 8 8 9 = 7 9 < < < w S OXHXDXqX5 = K.J.E 5 f.f.t.$X7 S sXmXt.G 6 8 8 9 = 9 9 < < < w 9 5 < r < ",
", < 5 , 7 5 J < 9 w 5 < < r F < = < 9 < % t.e , , 9 9 5 R ,XNXqX, r.(./.J.B $X&X&XrXt.Y qXFXi.3 = < 9 < % > < , , 9 9 5 < < 6 & ",
"t 7 5 * H 6 , $ 5 w < < , w r 8 < < 7 * P I.W 5 6 9 < = > ! bXqXG Q.>XH.Z.U $XsXbXsX&Xq y.FXi.e < < q > > 9 w 6 6 9 < = * 5 , < ",
"r w 5 < % 5 * = * 6 < > 6 < r < < * * , &Xi.Y w 6 >.B ` ` R &XeX` S.;X] b N U.dXSXmX&X, A 0XI.e < * 3 Q s.<.w w 6 >.5 w 9 w < 5 ",
", A w < X , t w r < % 6 R R % % < 5 w ! ZX*XY T 9 < r.W.Y.P W &XW.M ;XV x m.T.aXSXnXf.6 r Y p.~ 6 5 q.8XmX,X6 &.9 < r 6 7 6 H 9 ",
"< K 6 > % 6 w t 6 9 = w s.$Xe 6 w w A 7XDX*XY w * w r.A.M e.* 3 W.M ;XV s x v a.eX0X2 w 6 K q i.R w q.uXHX5X9 9 * w 9 < , = * , ",
"< , < 9 G , 5 5 6 6 5 6 =XuXq.< 5 w Y sXSXP.3 > w 8 r.Z.c L.% 2 W.M ;XV p p c 3 g.%X5 6 5 7 6 3 5 9 q.rXFX,X= = w 8 5 , * = % > ",
"9 1 w 9 9 7 6 5 , < * 9 =XuXq.H * e i.FXsXR * < w < r.Z.c J.> 2 W.M ;XV p p c 4 < < * w < 8 < T > 9 9 OXbX,X= < w < > = = 9 , > ",
"5 < G 9 w < w 5 5 = < 5 =XuXq.5 5 q p.FXsXS > > 5 < _ Z.i m P D W.M ;XV p p c v _ ^ ) ) N M M F.S.P 6 OX6XQ < > 5 < * ;.H F 5 6 ",
", < 5 w , w 6 t 5 5 w t -XDX,X9 R P.SXHXsXW T.|.|.|.|.D.  f G.q.|.M ;XV p N.E.M.^ ^ s o i b.F.E R H w u.u.A t w w w 9 H 9 = 9 J ",
"> < < < < < , , A t 9 K =XHX5X6 Y I.HXHXsXW Y.A.b.G.Y.M.a . M L.Y.' N.x x N.N.' ^ g . . N R.e.q w J H 3 R r < < < K w 7 = = 9 9 ",
"> < % w 5 < < $ H 6 < 5 -XHX,X, e I.HXHXsXS G.n i b ' ' x   f T.' ' ] x V N.K.K.K.N.V n (.R.G.2 < 5 1 f.8X*Xu.< < < < F 8 = 6 9 ",
"< > & < 9 , w r 6 < 5 < ;.%X$X5 1 w.NXHXsXS C 8.N c V N.N.x i N p p x a ] / ^ ^ ] ] n n./.' D.B , q =XvXNXNXuXy.< 6 8 K 8 < * 9 ",
"= % * 5 , < , 7 9 5 , * 6 3 Y < % 3 7XFXsXR < U J.m u ^ K.N.p x     i o V s o p x x f b.H.^ D.B $ t.vXHXHXHXSXuXt.% 7 5 < $ = , ",
"6 < < 6 5 < < w 5 < < 9 w 6 H 9 , S I.FXsXB 4 { U.H.c O ^ K.^ x         g u   p x x ] M.^ ^ D.D P 0XSXSXmXNXHXNX8X, , % 5 * 5 5 ",
"F 9 = 9 w 6 9 5 > * F w 6 J w = 5 T y.SXsXY P G.E.R.m.. d N.] x         s O   p x s / ^ s b D.2 u.bXDX0X$XrXSXDXcX~ 5 < 6 6 5 9 ",
"J J $ 9 w < 5 < > 6 9 5 , , , * w w S bXMXt.I G.M.K.H.c u ^ x u O u   o a O o s g .   o a N [ 2 u.bXNXf.q ! sXHXMXu.< , 5 , 6 7 ",
"w w 9 6 5 < 5 = > , , 5 5 , * 5 w w w &XSX6Xt.[ ^ ^ M.m p p   O a s O a a i u g g u O p a Z.B 5 q.cXbXs.& ! uXFXnXq.5 , 6 = w 7 ",
"7 5 7 r w & 5 w 7 r 6 $ w w r , , , < 7 nXsXW 9 B c p s s u o s O u x x p p p u p a s a . f 8.P 3 rXsXs.S -XHXAX,X2 = = < * 9 7 ",
"< w r r -., 5 9 5 6 J * t 7 6 5 r 7 9 r &XNX<.< D ) x .     o x   ] } N.x u s ^ V u s x a a n 8.Y &XaXf.+XmXFXxXS 9 r w 9 w < 9 ",
"< 7 5 9 = & , 5 5 < > , < < < r t r 9 6 e cX<.5 r.D.b.a     o g O K.l j N.^ d V ] ^ f G.Q.W.W.Y r i.9Xs.=XHXNX,Xw w r 7 5 5 * % ",
"< 5 = < 6 , < * 5 , 6 6 9 r < Y u.e = G r 8XE > B b i     o + u s ] l l ( / k h b ^ i b I w < 5 6 7 $Xf.-XHXcXq.6 w 6 6 8 6 < 5 ",
"w , < F 9 w w 6 $ 5 9 9 7 w g.bXAXbXI.8 t D P.~ 8 H.T.M   + L j L C + - j Z k V n.n.i b U w rXR w < *Xs.-XHXcXq.6 w 7 J 9 < 9 H ",
"6 < r 7 9 w w r = r r H H r d.FXHXFXNXu.< 5 e A r.N ^ ) Z Z l L *.=.L / L *.L ' F.S.Z.) K r eXqXB G R q =XNX&XA w &.F 6 9 8 F 9 ",
"5 < :.&.5 5 < 6 < w 8 J w t #XHXHXHXDXp.q * w w L.J.@X3Xh.#X2.*.*.=.*.C.} L L ] N I B R w G bXsXY y.! G =XNX&Xw -.6 6 5 < < 5 w ",
"5 > J F , < < < 5 w 9 r G t d.HXHXHXDXp.T < 7 ~ r.) 2.1X4Xx.x.=.=.*.1X5X#Xh.<X@Xm P 9 r G H ZXsXy.wXd.8 -XNX%XG :.5 5 < < < F 5 ",
"6 * w 5 9 , 6 7 < 6 9 r r r +XHXHXHXFXuXD * w I { ( #X1Xx.1X2X4.x.x.h.h.2.2.4X+XN e.Y r r r SXbX7XmX#X5 W %X&X9 w 5 < 5 % X 7 T ",
"< 5 9 ;.F 9 r 5 , 9 < 9 9 6 d.bXHXHXHXHXy.3 ` r.t.2.#X1.T 4X4X6.2Xx.<Xh.,.2.x.1.b.Z.^ B 9 8 SXNXbXSXd.9 < t.$XT 5 5 , < ;.> F ;.",
"< w r 9 , 5 5 5 H 9 * < 6 < ! *XbXHXmXsX9XR Z.J.#X<X1.( C d.1Xc.4Xx.3X<X6.:.( / b ] } ! B P bXSXbXbX<.-.6 ~ Q 1 % H w F r 5 < 1 ",
"F 9 < , 5 = % w 7 w J < < < 5 Y *XDXwXy.$XD ` r.OX@X:XC.( j 2.1X5.6.h.2.,.&.k g / :.1Xh.C e.wXbX$X8Xg.5 < < r H 8 K F < < 5 % < ",
"r 8 < , 6 F < 6 F w F F < % r F <.bXeX8 % F r I [ B.:X#X2.*.L 3...*.=.O.*.C b / 1.x.1X<X) W.9XtX! OX<.6 % F w 8 6 w 6 < 5 * & w ",
"5 = * , 9 r 5 6 w 9 5 6 < 7 ;.:.<.7XqXw = r H B { [ 1.#X1Xh.j l l ( ( l Z M.Y.H.1.<X<X+XJ.9.a.9Xg.;.w w = r H < 5 5 5 5 9 6 < 5 ",
"5 = t * 9 5 9 8 w 7 7 = * 7 G F 8 ~ I.w = D Y 3 r.e.OX5X3X2.*.@.2.1.1.L y E K.E.E.} K.A.9.0.0.I.Y 8 D E 2 9 9 < < < w 9 5 < r < ",
", < 5 , 7 5 J < 9 w 5 < < w G 1 4 U 9 < 2 e.Q.L.9.9.Q.!.K.*.$.k.l.#.@...4.5.+.&.^ b ^./.T.9.T.C 2 < K.!.r.2 < , , 9 9 5 < < 6 & ",
"G 7 5 * H 6 , $ 5 w < < , w S r.L.1 q 4 pXjX}.Q.Q.pXhX>X4.5.k.l.5.@...X.%.k.l.z.c.,.n.`._.[.fX'.^.) P R.hXU.w 5 6 9 < = * 5 , < ",
"r w 5 < % 5 * = * 6 < > 6 P L.{.S.Q.!.lXGXhXhXlXBXjX/.' ; c.v.z.O.; @ @ +.$.k.l.k.,.n.`.)._.[.).).^.S.T.jXdXL.w 6 >.5 w 9 w < 5 ",
", A w < X , t w r < % 6 I L.{.{.{.lXBXFXFXhXkXVXFX>Xn h 7.4Xv.z.0 N A.n O.%.$.k.l.h.n.XX].)._.)._._././.jXdXL.&.9 < r 6 7 6 H 9 ",
"< K 6 > % 6 w t 6 9 * w r.{.XXjXBXkXBXHXBXkXVXFX,XL # #  .5.l.$.- v D.L  ...#.o.O.N.gXCXyX).).).'.`.`..XBXdXL.9 * w 8 < , = * , ",
"< , < 9 t , 5 5 6 5 5 6 r.{.jXVXlX.XhXkX.XoXBXVX;Xl | #  .@.$.%.- 4 A.l |  . . .L R.GXCX].).)._. X X XjXGXdXL.= w 8 < , * = % > ",
"9 1 w 9 9 7 6 5 , < % 9 r.}.lXjXXXoXhXXX XhXVXCXB.l | # # X.L E [ 3 ` V z  .| ; ] zXJXgX).)._.fXkXjXlXBXlX!.P < w < > = = 9 , > ",
"5 < G 9 w < w 5 5 = < 5 I !.hX X`.oXXX_..XBXFXKXV.z  .| # - n.A.{ < I m h ; ; / (.gXgX].)._. XBXFXVXVXkX}.L.< > 5 < * ;.H F 5 6 ",
", < 6 w , w 6 t 5 5 w t Y ` E._._.|.'.'.jXGXHXMX:Xk : # # Z J.r., < P m Z k V.^.[.fX].).). XjXGXHXHXBXfXT.` t w w w 9 H 9 = 9 J ",
"> < < < < < , , A t 9 K 5 r C Y.^._.).|.BXFXHXGXgXB./ / V.M.e.9 > < _ M } ( M.^.'.]._.'. XjXGXFXVXBXfXY.} r < < < K w 7 = = 9 9 ",
"> < % w 5 < < $ H 6 < 5 t w , 3 _ H.Y.T.hXBXFXHXFXgXyX].'._.Y.) U < [ ' V.V.V.Y.`.`..XfXlXHXVXkXjX.XY.) r < 5 < < < < F 8 = 6 9 ",
"< > & < 9 , w r 6 < 5 < 9 5 5 5 , 1 P 4 R.!.iXxXxXxXiX(.T.Y.Y.G.G.< & < M.B.B.Y.T.R.iXiXxXxXqXR.Y.Y.) > G < 8 5 < 6 8 K 8 < * 9 ",
"= % * 5 , < , 7 9 5 , * 6 * < < % = 7 8 8 8 < < 9 % 7 5 < $ = , = % * 5 < < , 9 9 6 < * 6 = < < % = 8 8 8 8 < < 9 % 7 5 < $ = , ",
"6 < < 6 5 < < w 5 < < 9 w 6 H 9 , 9 :.w * % * > < , , % 5 * 5 5 6 < < 6 5 < < A 5 < < 9 w 6 H 9 , 9 :.w * % * = < , , % 5 * 5 5 ",
"F 9 = 9 w 6 9 5 > * F w 6 J w = 5 G J r 1 < 8 w 6 7 5 < 6 6 5 9 F 9 = 9 w 6 9 5 , = F w 6 J w = 5 K J r 1 < 8 w 6 6 5 < 6 6 5 9 "
};
