/* XPM */
static char *xpm_[] = {
/* columns rows colors chars-per-pixel */
"64 64 160 2 ",
"   c #3F3021",
".  c #463424",
"X  c #4A3726",
"o  c #4C3926",
"O  c #4B3728",
"+  c #4E3A2A",
"@  c #543E2C",
"#  c #583F2C",
"$  c #56402E",
"%  c #5A422E",
"&  c #5D4431",
"*  c #5E4834",
"=  c #614633",
"-  c #644935",
";  c #694D37",
":  c #664C38",
">  c #6A4E39",
",  c #6D513B",
"<  c #72543D",
"1  c #73583F",
"2  c #6E5441",
"3  c #745641",
"4  c #765942",
"5  c #7B5B44",
"6  c #765B49",
"7  c #7D5D48",
"8  c #7C614A",
"9  c #815F47",
"0  c #805F4A",
"q  c #82634C",
"w  c #876751",
"e  c #876A55",
"r  c #8E6C54",
"t  c #8B6C52",
"y  c #916E51",
"u  c #88715D",
"i  c #92735B",
"p  c #857162",
"a  c #9A8678",
"s  c #948578",
"d  c #7D99E7",
"f  c #77A1E8",
"g  c #71A9E8",
"h  c #6BB1E9",
"j  c #64BAEA",
"k  c #75B4EC",
"l  c #7FB7EF",
"z  c #77BDEC",
"x  c #78BEEC",
"c  c #5EC2EB",
"v  c #5EC2EB",
"b  c #58CAEB",
"n  c #4CDAED",
"m  c #4CDAED",
"M  c #52D2EC",
"N  c #5EDDEE",
"B  c #7BCDEB",
"V  c #6FDEEC",
"C  c #7DD1EF",
"Z  c #73C7F0",
"A  c #71E1F1",
"S  c #8391E6",
"D  c #8391E6",
"F  c #8D94E9",
"G  c #9796EC",
"H  c #919DE9",
"J  c #A299EE",
"K  c #AC9BF1",
"L  c #B69EF4",
"P  c #8BA6ED",
"I  c #84AEEC",
"U  c #9EA9EC",
"Y  c #92BAED",
"T  c #95B0EC",
"R  c #95A9F0",
"E  c #9AB4F3",
"W  c #A9B1E4",
"Q  c #A8B4EE",
"!  c #ACB6EE",
"~  c #ACB6EE",
"^  c #A6A3F2",
"/  c #B8A7F4",
"(  c #B3AFF1",
")  c #BAA8F7",
"_  c #B4BFF0",
"`  c #C0A0F7",
"'  c #CBA3F9",
"]  c #D5A5FC",
"[  c #DFA8FF",
"{  c #D2B6F9",
"}  c #DCB9FC",
"|  c #C7B4F7",
" . c #8CC2EE",
".. c #83C9EE",
"X. c #81C5EA",
"o. c #9BC4EF",
"O. c #81DFEC",
"+. c #98D9EB",
"@. c #8FD4F1",
"#. c #94D6F1",
"$. c #A0C6F0",
"%. c #A8CFF2",
"&. c #BAC2F1",
"*. c #B4CAF2",
"=. c #81E1EE",
"-. c #92E1EC",
";. c #83E4F2",
":. c #83E4F2",
">. c #88E6F3",
",. c #94E4F0",
"<. c #9BE0F3",
"1. c #95E8F4",
"2. c #98E9F5",
"3. c #A4E4EC",
"4. c #B5E5EB",
"5. c #A5E6F0",
"6. c #A7EAF4",
"7. c #A8EBF6",
"8. c #BAEFF8",
"9. c #E4DEDA",
"0. c #C2D4E9",
"q. c #C3CCF3",
"w. c #C8CEF4",
"e. c #C8CEF4",
"r. c #CCD6F5",
"t. c #C6D7FA",
"y. c #D6DAF7",
"u. c #D6DAF7",
"i. c #D7D9F8",
"p. c #D9CAF9",
"a. c #E5C3FE",
"s. c #EAC5FF",
"d. c #EDCFFF",
"f. c #E0DDF9",
"g. c #EBDEFE",
"h. c #C7E6EB",
"j. c #D8E8EB",
"k. c #C0E7F7",
"l. c #CBECF1",
"z. c #C8E0FA",
"x. c #C9EBF8",
"c. c #D0E2F7",
"v. c #CCF2F9",
"b. c #DDF2F7",
"n. c #D3F5FA",
"m. c #DFF6FB",
"M. c #EAEAEA",
"N. c #ECEFF0",
"B. c #E3E7F9",
"V. c #E3E7F9",
"C. c #EDE7FD",
"Z. c #F4E2FF",
"A. c #F8ECFF",
"S. c #EFF4F7",
"D. c #EFF0FD",
"F. c #F1F1F1",
"G. c #F1F3FC",
"H. c #F1F9FD",
"J. c white",
"K. c white",
/* pixels */
"7 7 o > , & = % $ - > = % % % @ , < ; & - & > - = % & % = % - ; 7 7 o > , & = & $ - > = % % % @ < , ; & - & > - = % & % = % - ; ",
", , > - = % = @ $ % % = = % @ = , > > = . ; r > q - = % - # , ; , , > - = % = # $ % % = = % @ = , > > = . ; r > q - = % - # , ; ",
"; = ; < , . = , ; < - O , , < % % % & ; - > & > ; @ # # & @ > ; ; = ; < , . = , ; < - O , , < % % % & ; - > & > ; @ # # & @ > ; ",
"& , < < q % = > = - 7 @ 1 ; - = < ; > < 3 > > & , > < , > , * > & , < < y.% = > = - 7 @ 1 ; - = < ; > < 3 > > & , > < < > , * > ",
"& ; = > # . % = = & $ % & & & < < < > - - # : = > > < ; = = @ + & ; = > S . % = = & $ % & & & < < 1 > - - # : = > > < ; = = @ + ",
"& = # & - % & @ = % - - > < & = - ; # 4 < = & $ - , - - : S & = & = # & S e.& @ = % - - > < & = - ; # 4 < = & $ - , - - : - & = ",
", % & 3 > , , - X = > > ; , - , , = - : 1 = = ! Y C ; 7 > S > 5 , % & ! S ! , - X = > > ; e.- , , = - : 1 = = & - , ; 7 > & > 5 ",
"- & < : > , , < # < < 5 5 < > q + B.1 & # = y.f C v.Q y.S S 2 > - & < S v H e.< # < < 5 U e.B.J.+ 4 1 & # = = , , 9 3 - > : 2 > ",
"= * i 0 = = & - & , : 7 , 1 3 1 J.y.S 4 ; @ S g :.H.Q S S S m v S S ` S m S ! s.& , : ! , 1 3 ! J., 5 4 ; @ , , q - - = & & = , ",
"= $ 7 3 % & & & = , > < 4 1 ; J.B.y.S G p.{ g :.H.H.7.z S m h.O.z ) R :.H.v J d.f.U g ! 4 1 ; B.! y.J.- 8 & ; 4 i = = & & & 3 = ",
"- @ , = > % - ; & - > < < < J.y.e.y.S K ] J m 7.H.H.H.7.S m M.M.O.E Z H.H.C P ` G S m U < < B.U J.! 5 = & @ , > , = & = +   ; 8 ",
"* = > t 3 > < = % > & > > - G.S J.c.g d K P m D.C.H.H.H.g m M.M.3.z b H.H.8.b g g g m g  .x.Y d + & = > * & > 4 = = % & e $ 3 e ",
"* , < > % = = & 5 > @ & - S U S n.2.1.b f v 8.D.C.H.H.H.8.m M.M.M.h.V H.H.,.4.4.4.4.4.4.4.+.M g & & @ q - > $ & + 5 , 3 < = & * ",
"3 > & % = # + , ; , 7 & & | G S  .:.m.A b M H.v.7.H.H.H.H.m M.M.M.M.h.N.N.h.M.M.M.M.M.M.h.,.A g > - > = & * < 5 = 4 3 * * = + & ",
"< : & % - 3 & - 3 , 3 3 & ! S S g :.H.H.H.:.H.O.4.:.H.H.H.m M.M.M.M.M.M.M.M.M.M.M.M.M.:.H.H.:.g 3 < 3 - + 3 , : - , - & = @ . , ",
"= # @ % > < = - , > = - p W S m g :.H.H.H.H.H.O.4.:.H.H.H.m M.M.M.M.M.M.M.M.M.M.M.M.m S.4.:.:.g w w < , # < 5 * = = = = > - & = ",
"= # 1 @ > = > : , ; ; % # a ~ m A :.m.8.8.8.8.O.M.h.6.b.8.m M.M.M.M.M.M.M.M.M.M.M.O.8.3.4.:.:.g - : : > # > > & & & , > = & < & ",
"% & = % ; = 7 & > , = & & u W m v.1.6.O.O.O.O.3.M.M.3.h.O.O.M.M.M.M.M.M.M.M.M.M.h.V O.M.4.:.@.f # & > & + $ & % % > > = & & - . ",
"4 ; = @ 5 - % X = , & & s 9.! g 7.m.6.h.M.M.M.M.M.M.M.M.M.M.M.M.M.M.M.M.M.M.M.M.h.4.M.M.4.N I &.& & ; @ # > , - - > & # @ = % & ",
"< , = & o = @ # @ - & $ e.B.! S :.H.m.b.5.h.M.M.M.M.M.M.M.M.M.M.M.M.M.M.M.M.M.M.M.M.M.M.4.m g y.! S @ % > , , , - y = , > , & = ",
"% 2 , &   % 1 , < & + - H y.B.S z 7.v.l.=.V M.M.M.M.M.M.M.M.M.M.M.M.M.M.M.M.M.M.M.M.M.M.4.m g U ` S , < < , - 0 > & < - ; - 5 > ",
"& 4 - $ o - , 1 - > # , ` [ Z.S g :.8.4.M.O.m M.M.M.M.M.M.M.M.M.M.M.M.M.M.M.M.M.M.M.M.4.m m g ` S S , - < 7 > > @ , > & % # @ % ",
"& % & > 4 % = = - - S S S ` J J.S g m 4.M.M.M.O.M.M.M.M.M.M.M.M.M.M.M.M.M.M.M.M.M.M.M.4.m m m 8.S S > = = > # # , : = % @ # + $ ",
"> * , > > ; - = % & B.U S S U S L I :.7.3.j.M.M.M.M.M.M.M.M.M.M.M.M.M.M.M.M.M.M.M.M.M.h.,.v.v.C S ! > & : : # & , & $ # # > % $ ",
"= & 4 > , & , = = # & B.H S r.g G E :.H.7.3.M.M.M.M.M.M.M.M.M.M.M.M.M.M.M.M.M.M.M.M.M.M.h.,.C f S = - & & & & $ = & @ t 5 3 = - ",
"% & = , % , - 1 = = , e.B.U ..8.h g :.H.7.N M.M.M.M.M.M.M.M.M.M.M.M.M.M.M.M.M.M.M.3.O.O.O.B d K 3 5 , $ = , 1 , , , > 5 > # > 7 ",
"$ & & & & & % % 2 1 > e.B.! v H.<.b :.7.3.4.M.M.M.M.M.M.M.M.M.M.M.M.M.M.M.h.3.M.M.O.8.1.b f K - , 7 5 & , < & & & 4 , ; # # > > ",
"$ & + , = & & X 5 - & &.&.H f :.m.1.:.v.,.O.M.M.M.M.M.M.M.M.M.M.M.M.M.M.M.4.N h.M.O.H.C h l K % & = & : < & = & & & & 3 : # - > ",
"& $ . & > % , < - & = & > = ! m H.H.H.H.H.H.m O.M.M.M.M.M.M.M.M.M.M.M.M.M.4.:.N.M.O.H.m :.r.S = % = ; $ 4 & : = & - : 6 : & @ > ",
"# + @ = % & % ; > = % @ - @ B.J C v.D.D.H.H.H.v.,.h.M.M.M.M.M.M.M.M.M.M.M.l.H.H.7.v.H.7.k.x B.B.+ # : : : : & & > o ; = & X # % ",
"- & & - = & & , = & & > , - U ` P C z.C.H.H.H.m.1.V 4.4.M.M.M.M.M.M.M.M.4.:.H.H.H.H.g.m.%.U y.&.% > i , @ + @ # & % % + = @ = = ",
"3 > # > , - > = $ @ 3 , - U S S K g :.H.H.H.H.6.O.O.O.O.M.M.M.M.M.M.M.M.O.,.v.H.H.H.a.8.v S U e.= 4 7 < * & : , - - = & - - = > ",
"7 7 o > , & = & $ - > = % ` l v v C v.H.H.H.:.h.M.M.M.M.M.M.M.M.M.M.M.M.M.j.3.v.H.H.H.C f U _ / , , ; & - & > - = % & % = % - ; ",
", , > - = & = # $ % % = = % R m 8.v.H.H.H.H.m M.M.M.M.M.M.M.M.M.M.M.M.M.M.M.4.8.H.H.:.h ..q./ ] , > > = . ; r > q - = % - # , ; ",
"; = ; < , . = , ; < - O , , < S :.H.H.H.H.H.m M.M.M.M.M.M.M.M.M.M.M.M.M.M.M.M.O.8.H.m :.H.r.S S % % & ; - > & > ; @ # # & @ > ; ",
"& , < < q % = > = - 7 @ 1 ; - S g :.H.H.H.H.m M.M.M.M.M.M.M.M.M.M.M.M.M.M.M.M.O.8.H.m H.8.v S y.J.; > < 3 > > & , > < , > , * > ",
"& ; = > # . % = = & $ % & & & S d j A m.H.:.M.M.M.M.M.M.M.M.M.M.M.M.M.M.M.M.M.3.6.m.:.H.8.v G f.y.! > - - # : = > > < ; = = @ + ",
"& = # & - % & @ = % - - > < & S g N :.v.v.,.M.M.M.M.M.M.M.M.M.M.M.M.M.M.M.M.M.M.O.8.H.m.<.k { A.S J.&.B.< = & $ - , - - : - & = ",
", % & 3 > , , - X = > > ! U ! S g :.H.H.:.4.M.M.M.M.M.M.M.M.M.M.M.M.M.M.M.M.M.M.O.8.a.8.v F f.e.S = - e.J.= = & - , ; 7 > & > 5 ",
"- & < ; > , , < # < < 5 ! K G v g :.H.H.:.4.M.M.M.M.M.M.M.M.M.M.M.M.M.M.M.M.M.M.O.8.g.8.v U &.H S 4 1 & # = = , , 9 3 - > : 3 > ",
"= * i 0 = = & - & , : 7 ! G L 8.j z 7.H.:.4.M.M.M.M.M.M.M.M.M.M.M.M.M.M.M.M.M.M.O.8.H.8.v H H h S S ! 4 ; @ , , q - - = & & = , ",
"= $ 7 3 % & & & = , > < J.! S H.8.m :.H.:.4.M.M.M.M.M.M.M.M.M.M.M.M.M.M.M.M.M.M.O.8.H.8.v S S r.S S J.: 8 & ; 4 i = = & & & 3 = ",
"- @ , = > % - ; & - > < < ! S H.H.8.:.H.:.4.M.M.M.M.M.M.M.M.M.M.M.M.M.M.M.M.M.M.O.8.H.8.v S v 8.S > 5 = & @ , > , = & = +   ; 8 ",
"* = > t 3 > < = % > & > > J.! v v.H.D.D.:.4.M.M.M.M.M.M.M.M.M.M.M.M.M.M.M.M.M.M.O.8.H.v d z v.@.! & = > * & > 4 = = % & e $ 3 e ",
"* , < > % = = & 5 > @ & - B.U S C v.C.C.7.3.M.M.M.M.M.M.M.M.M.M.M.M.M.M.M.M.M.h.,.v.H.b z 7.v.T & & @ q - > $ & + 5 , 3 < = & * ",
"3 > & % = # + , ; , 7 & e.H S S d z 7.H.H.v.M.M.M.M.M.M.M.M.M.M.M.M.M.M.M.M.h.N 8.H.H.A v.H.o.d > - > = & * < 5 : 4 3 * * = + & ",
"< : & % - 3 & - 3 , 3 3 e.y.y.y.S d z v.H.H.S.3.M.M.M.M.M.M.M.M.M.M.M.M.M.M.j.V A v.H.v.H.v.I &.3 < ! e.J.3 , : - , - & = @ . , ",
"= # @ % > < = - , > = - & ; t J.y.y.*.C v.H.:.h.M.M.M.M.M.M.M.M.M.M.M.M.M.M.M.h.4.,.H.H.v.C ^ } ! S U B.# < 5 * = = = = > - & = ",
"= # 1 @ > = > : , ; ; # @ ; 4 J.Z.` S v 8.H.m M.M.M.M.M.M.M.M.M.M.M.M.M.M.M.M.M.O.8.H.8.v S S ` S S : > # > > & & & , > = & < & ",
"% & = % ; = 7 & > , = & & e.H S g I E C v.H.m M.M.M.M.M.M.M.M.j.j.M.M.M.M.M.M.M.O.8.H.H.m.k...f # & > & + $ & % % > > = & & - . ",
"4 ; = @ 5 - % X = , & & % , e.S v b N v.H.H.m M.M.M.M.M.M.M.M.4.-.j.M.M.M.M.M.h.,.v.H.m.<.k F U & & ; @ # > , - - > & # @ = % & ",
"< , = & + = @ # @ - & $ - & < ! S f C m.H.H.:.h.M.M.M.M.M.M.j.3.:.3.j.M.M.M.j.,.v.H.H.<.k K ( & & @ @ % > , , , - y = , > , & = ",
"% 2 , &   % 1 , < & + - < < + + &.S d C v.H.H.O.M.M.M.M.M.O.,.v.H.:.4.M.M.M.4.8.H.H.:.P ' ` U + & = , < < , - 0 > & < - ; - 5 > ",
"& 4 - $ o - , 1 - > # , - 4 = - G.&.S f C v.H.O.M.M.M.3.O.8.@ % & v.,.M.M.h.,.m.H.H.8.i.t.l S - , , , - < 7 > > @ , : & % # @ % ",
"& % & > 1 % = = - - = - = ; - & S S J [ J v m M.M.M.O.8.H.# + $ & H.:.M.M.4.m 8.H.H.m v S S - & = > > = = > # # , : & % @ # + $ ",
"> * , > > ; - = % & @ > % - & 5 @ > S S v m m M.M.M.O.8.# > % $ > * :.M.M.M.M.O.m m S S ! - & 5 @ > > & : : # & , & $ # # > % $ ",
"= & 4 > , & , = = # & = # - & = = = - e.H v O.M.M.4.8.t 5 3 = - = & 7.N.N.j.4.0.X.Y ! J.# - & = = = - & & & & $ = & @ t 5 3 = - ",
"% & - , % , - 1 = = , 1 < X = > 3 5 , $ e.#.F.F.F.l.n.5 > # > 7 % & - H.H.n.>.$.! B., 1 < X = > 3 5 , $ = , 1 , , , > 5 > # > 7 ",
"$ & & & & & % % 2 1 > 4 = < ; - , 7 5 & , < & & & 4 , ; # # > > $ & & & & & % % 2 1 > 4 = < ; - , 7 5 & , < & & & 4 , ; # # > > ",
"$ & + , = & & X 5 - & = 1 , % % & = & : < & = & & & & 3 : # - > $ & + , = & & X 5 - & = 1 , % % & = & : < & = & & & & 3 : # - > ",
"& $ . & > % , < - & = & > = = = % = ; $ 4 & : = & - : 6 : & @ > & $ . & > % , < - & = & > = = = % = ; $ 4 & : = & - : 6 : & @ > ",
"# + @ = % & % ; > = % @ - @ & & + # : : : : & & > o ; = & X # % # + @ = % & % ; > = % @ - # & & + # : : : : & & > o ; = & X # % ",
"- & & - = & & , = & & > , - 5 > % > i , @ + @ # & % % + = @ = = - & & - = & & , = & & > , - 5 > % > i , @ + @ # & % % + = @ = = ",
"3 > # > , - > = $ @ 3 , - 7 , # = 4 7 < * & : , - - = & - - = > 3 > # > , - > = $ @ 3 , - 7 , # = 4 7 < * & : , - - = & - - = > "
};
