/* XPM */
static char *xpm_[] = {
/* columns rows colors chars-per-pixel */
"64 64 256 2 ",
"   c #020428",
".  c #0B0535",
"X  c #270536",
"o  c #370932",
"O  c #15253A",
"+  c #3F3021",
"@  c #33373D",
"#  c #2C110F",
"$  c #4F0F33",
"%  c #670031",
"&  c #74072C",
"*  c #4A3727",
"=  c #4E3A2A",
"-  c #473525",
";  c #543E2C",
":  c #583F2B",
">  c #513435",
",  c #75232E",
"<  c #324433",
"1  c #56402E",
"2  c #5A422E",
"3  c #504D28",
"4  c #5D4431",
"5  c #5E4834",
"6  c #595837",
"7  c #614633",
"8  c #644935",
"9  c #694D37",
"0  c #664C38",
"q  c #6A4E39",
"w  c #6E513B",
"e  c #6A5635",
"r  c #72543D",
"t  c #745B3B",
"y  c #5A6A3B",
"u  c #7A6639",
"i  c #6B7230",
"p  c #5C4618",
"a  c #030147",
"s  c #0A154E",
"d  c #0E2F4E",
"f  c #27344C",
"g  c #05126C",
"h  c #073070",
"j  c #2B215D",
"k  c #4F2B4B",
"l  c #61215F",
"z  c #294551",
"x  c #31514E",
"c  c #3A6558",
"v  c #064E6F",
"b  c #324F69",
"n  c #0A697B",
"m  c #256C7C",
"M  c #184956",
"N  c #575846",
"B  c #4B5351",
"V  c #6E5441",
"C  c #745640",
"Z  c #765942",
"A  c #7A5B44",
"S  c #7D5D48",
"D  c #765B49",
"F  c #7A4F5A",
"G  c #566C4F",
"H  c #7C6249",
"J  c #677645",
"K  c #6E7651",
"L  c #4B516B",
"P  c #4A6C6A",
"I  c #6F7271",
"U  c #6B4A79",
"Y  c #9E001B",
"T  c #B5101C",
"R  c #960526",
"E  c #8C1128",
"W  c #AA1B24",
"Q  c #AF1023",
"!  c #97262F",
"~  c #B02C2F",
"^  c #A4211D",
"/  c #CF1919",
"(  c #D93619",
")  c #F2340C",
"_  c #D52211",
"`  c #8B793C",
"'  c #8C6F35",
"]  c #9D4C3B",
"[  c #F44E16",
"{  c #D84B2C",
"}  c #EC5526",
"|  c #FE652A",
" . c #FA6E35",
".. c #F87235",
"X. c #FF6814",
"o. c #A6214F",
"O. c #F73E53",
"+. c #805E48",
"@. c #8C4F56",
"#. c #AC5248",
"$. c #83634C",
"%. c #876651",
"&. c #8A6B53",
"*. c #93735B",
"=. c #907547",
"-. c #B06955",
";. c #8F6969",
":. c #B27475",
">. c #974A76",
",. c #C75640",
"<. c #D46D4C",
"1. c #EB7048",
"2. c #D06C63",
"3. c #7E8A3D",
"4. c #748B51",
"5. c #669A68",
"6. c #92893B",
"7. c #AAA439",
"8. c #AA9637",
"9. c #FE833A",
"0. c #FF903C",
"q. c #CBB939",
"w. c #FFC702",
"e. c #E1C435",
"r. c #978643",
"t. c #8F944D",
"y. c #A69844",
"u. c #AB9B4A",
"i. c #94AA50",
"p. c #B6A947",
"a. c #BCB349",
"s. c #A8AB4E",
"d. c #AE8B76",
"f. c #A1AD6C",
"g. c #FE8944",
"h. c #FF9B53",
"j. c #FB914D",
"k. c #C4B84B",
"l. c #CAB951",
"z. c #FFA858",
"x. c #FCAE55",
"c. c #D38D70",
"v. c #F3936C",
"b. c #FFAF6E",
"n. c #CB8A53",
"m. c #B0C758",
"M. c #AECD61",
"N. c #CBC34B",
"B. c #D3C94C",
"V. c #DED952",
"C. c #D1CE4F",
"Z. c #E6DA4D",
"A. c #E3DC51",
"S. c #FFCA5A",
"D. c #EAE553",
"F. c #FCFA56",
"G. c #F1EC4C",
"H. c #E8E66A",
"J. c #081993",
"K. c #0B2A8E",
"L. c #233893",
"P. c #053AAE",
"I. c #004797",
"U. c #04548C",
"Y. c #026C85",
"T. c #007689",
"R. c #027C96",
"E. c #0C6292",
"W. c #0A51B3",
"Q. c #0471B0",
"!. c #2A7AB9",
"~. c #2B5D8E",
"^. c #697192",
"/. c #5D68A2",
"(. c #2E38C7",
"). c #0B67C7",
"_. c #145CC9",
"`. c #467ED7",
"'. c #89788A",
"]. c #8F77B2",
"[. c #C6749D",
"{. c #038799",
"}. c #108691",
"|. c #0097A9",
" X c #009AB6",
".X c #098CAE",
"XX c #2C8EB3",
"oX c #02A5BB",
"OX c #0DAEB7",
"+X c #30AEB4",
"@X c #2D8492",
"#X c #748D9C",
"$X c #4E9CBB",
"%X c #6C91B5",
"&X c #5CA5AC",
"*X c #08B4CC",
"=X c #30B5CC",
"-X c #01B3E4",
";X c #278BE7",
":X c #71BCCF",
">X c #4FA7FF",
",X c #5FB1C7",
"<X c #12C5D7",
"1X c #2BC5D5",
"2X c #06D9E8",
"3X c #15D0EA",
"4X c #2DD6E5",
"5X c #02FBFE",
"6X c #0FE9F5",
"7X c #2BFCFE",
"8X c #37F7FB",
"9X c #32E5F0",
"0X c #71C8D2",
"qX c #53CEE0",
"wX c #48FBFC",
"eX c #59FCFD",
"rX c #46E7F2",
"tX c #6AFFFF",
"yX c #72EAEE",
"uX c #60D2D7",
"iX c #8D8A94",
"pX c #8EA79A",
"aX c #8B8BB1",
"sX c #AC95B5",
"dX c #B0ACB3",
"fX c #9CA7AA",
"gX c #D4AE95",
"hX c #FDB888",
"jX c #FDB291",
"kX c #CDB5AE",
"lX c #D8A292",
"zX c #FFC591",
"xX c #F1D3B7",
"cX c #FFF1BA",
"vX c #C9C2B6",
"bX c #B2B7C2",
"nX c #90AFCC",
"mX c #91D5E8",
"MX c #98FDFE",
"NX c #89F2F7",
"BX c #BAFDFF",
"VX c #AAF8FD",
"CX c #A2D2DC",
"ZX c #D7D3C9",
"AX c #EED9D3",
"SX c #D6F3DA",
"DX c #FEFCD7",
"FX c #F8EECA",
"GX c #CAFFFF",
"HX c #CDEDF4",
"JX c #E8FFFF",
"KX c #FDFEFE",
"LX c #FBFDF8",
"PX c #FAFAE9",
"IX c #CCD7ED",
"UX c #B0DB83",
/* pixels */
"S S * q w 4 7 2 1 8 q 7 2 2 2 ; w w 9 4 8 4 q 8 7 2 4 2 7 : 8 9 S S * q w 4 7 4 1 8 q 7 2 2 2 ; w w 9 4 8 4 q 8 7 2 4 2 7 2 8 9 ",
"w w q 8 7 2 7 ; 1 2 2 7 7 2 ; 7 w q q 7 - 9 &.q $.8 7 2 8 : w 9 w q q 8 7 4 7 : 1 2 2 7 7 2 ; 7 w q q 7 - 9 &.q $.8 7 2 8 : w 9 ",
"9 7 9 r w - 7 w 9 r 8 * w w r 2 2 2 4 9 8 q 4 q 9 ; : : 4 ; q 9 9 7 9 r w - 7 w 9 r 8 * w w r 2 2 2 4 9 8 q 4 q 9 ; : : 4 ; q 9 ",
"4 w r r $.2 7 q 7 8 S ; t 9 8 7 r 9 q r C q q 4 w p.k.w q w 5 q 4 w w w $.2 7 9 7 8 S ; t 9 8 7 r 9 q r C q q 4 w q r r q w 5 q ",
"4 9 7 q : - 2 7 7 4 1 2 4 4 4 r r r q 8 8 : 0 7 u.t.K u.7 7 ; = ` Z.p.q : - 2 7 7 4 1 2 4 4 4 r r r q 8 8 : 0 7 q q r 9 7 7 ; = ",
"4 7 : 4 8 2 4 ; 7 2 8 8 q r 4 7 8 9 : Z r 7 4 1 a.J x a.0 8 4 7 y.s.G p.8 2 2 ; 7 2 8 8 q r 4 7 8 9 : Z r 7 4 1 8 w 8 8 0 8 4 7 ",
"w 2 4 C q w w 8 * 7 q q 9 w 8 w w 7 8 0 t 7 7 ` 6.@X.X6.C.B.r.A y.s.a t.a.w w 8 1 B.k.q 9 q 8 w w 7 8 0 t 7 7 4 8 w 9 S q 4 q A ",
"8 4 r 0 q w w r : r r A A r q $.= Z t 4 : 7 7 y.p I.BX'.  X y.D.G.7./.aX< k.w u a.N F.A A r q $.= Z t 4 : 7 7 w w +.C 8 q 0 V 9 ",
"7 5 *.+.7 7 4 8 4 w 0 S w t C t 2 w A Z 9 ; y.y.I :XtXIX^.Q.m 3 N.q.~.VX^.3.` 8 l.O A.S w t t t 2 w A Z 9 ; w w $.8 8 7 4 4 7 w ",
"7 1 S C 2 4 4 4 7 w q r Z t 9 r 4 C C 0 H 1 B.i ].KX5XwXGXJXVX%X}.+ v MXKX/.s.q.P XXK k.A t 9 r 4 C C 0 H 4 9 Z *.7 7 4 4 4 C 7 ",
"8 ; w 7 q 2 8 9 4 8 q r r r r r 4 q A p.` u r.M CXbXOXwX4XuXKXKXHX^.{.wXBXIX  N =X3Xd G.r r r r 4 q A 7 4 ; w q w 7 4 7 = + 9 H ",
"5 7 q &.C q r 7 2 q 4 q q 8 D H = 4 r.t.s.D.> K.BXdXn rXrX*X=XyXGXyX{.7XNXZXh .XtX4Xx G.k.p.D H = 4 7 q 5 4 q Z 7 7 2 4 &.1 C &.",
"5 w r q 2 7 7 4 A q ; 4 8 4 D 7 4 4 N.x . G.r.h GXZX{.3X9XeX*X X2X|.}.7XyXIXR.|.|.T.  u K G l.7 4 4 ; $.8 q 1 4 = D w C r 8 4 5 ",
"C q 4 2 7 : = w 9 w S 4 4 4 7 8 q 7 k.J I.5.# h tX,X|.8X*X9XeX*X X.X1X2XqXAXY.+XbXdXdXQ.a K y.8 q 8 q 7 4 5 r A 7 D C 5 5 7 = 4 ",
"r 0 4 2 8 C 4 8 C w C C 4 = r C C r k.e  XmX~.Y.|.T.&XVX6X*X9XeX4X<X3X9X=X=XuXJXmXGXMXR.s.6.r C C r C 8 = C w 0 8 w 8 4 7 ; - w ",
"7 : ; 2 q r 7 8 w q 7 8 4 9 &.*.%.%.k.e E.MXKXuXv d bXKXtX6X*X4XtX4X<XrXoX9XJX0X6X6Xn 8.F.9 &.*.%.%.r w : r A 5 7 7 7 7 q 8 4 7 ",
"7 : t ; q 7 q 0 w 9 9 : ; 9 Z C 8 0 N.= Q.5XNXKX=Xv +XKXKXtX2X*XwX8X<X*X4XKXqX*X8XQ.* G.` 9 Z C 8 0 0 q : q q 4 4 4 w q 7 4 r 4 ",
"2 4 7 2 9 7 S 4 q w 7 4 4 w C 4 : 7 =.y.c -X2XqXKX,X|.9XJXLXtX6XoX}.R.*X=X#XY.{.{.h . r.y.p.Z 7 : 4 q 4 = 1 4 2 2 q q 7 4 4 8 - ",
"Z 9 7 ; A 8 2 * 7 w 4 4 2 w r q 4 4 9 y.e.c 3X2XyXKX:XoX9XKXKXmXT.+X*X X{.oX+XXXn  XQ.U.` F.r q 4 4 9 ; : q w 8 8 q 4 : ; 7 2 4 ",
"r w 7 4 = 7 ; : ; 8 4 1 8 4 r 4 4 ` y.V.F.' I.9X2XNXMX*X*X+XfXfX1XeX7X{.n 8XwXwXR. X5X-Xh t.y.4 4 ; ; 2 q w w w 8 &.7 w q w 4 7 ",
"2 V w 4 + 2 t w r 4 = 8 r r = = 4 G.s.K t.> s }.<X2X6X XR..Xn {.wXeXVXrXoXGXMX5X<XR.|.<X-Xd Z.= 4 7 w r r w 8 +.q 4 r 8 9 8 D q ",
"4 D 8 1 = 8 w t 8 q : w 8 Z 7 8 w u.t.a g Y.{.Y.Y.|.|.{.+XtXOXR.8XNXPXkX+XnXVXMX7X*Xd h I.z B.8 w w w 8 r S q q ; w q 4 2 : ; 2 ",
"4 2 4 q Z 2 7 7 8 8 7 8 7 9 8 4 7 9 ` a.b -X5X*X{.|.n +XeX6X+XP 2XMXAX .2.B P bXBX4XO J N s B.4 7 q q 7 7 q : : w q 7 2 ; : = 1 ",
"q 5 w q q 9 8 7 2 4 ; q 2 8 4 A ; 9 q ` 7.v E.{.|.oXY.OX7X.Xc.1.P rXSX<.c.b.*.  nX9Xx D.p.t.D.A ; q q 4 0 0 : 4 w 4 1 : : q 2 1 ",
"7 4 Z q w 4 w 7 7 : 4 7 : 8 4 7 7 7 8 4 ` V.# s |.v P +X5XpX| c.P R.uXv.<.zXdX  c Q.x D.: N.p.7 7 7 8 4 4 4 4 1 7 4 ; &.A C 7 8 ",
"2 4 7 w 2 w 8 t 7 7 w t r * 7 q C A w ` u.t.P  X5XU.:.gXT.0Xb.d.m v @XDXv.hXaXO F.@ s p.r * 7 q C A w 1 7 w r w w w q A q : q S ",
"1 4 4 4 4 4 2 2 V t q D 7 r 9 8 w D A r.s.6 Y.W.U.s iXDXc.pXLXlX@.CX&XpXpXlXI 4.a.B.K D 7 r 9 8 w S A 4 w r 4 4 4 D w 9 : : q q ",
"1 4 = w 7 4 4 * A 8 4 7 t w 2 2 4 7 4 0 r.H.u.> e O j %X:.hXPXlXlXKXmXU.nXsX< Z.A 9 a.7 t w 2 2 4 7 4 0 r 4 7 4 4 4 4 C 0 : 8 q ",
"4 1 - 4 q 2 w r 8 4 7 4 q 7 7 7 2 7 9 1 Z 4 r.p.p.a.J y < F xXDXFXFXCXyXLX'.s.D.8 4 7 4 q 7 7 7 2 7 9 1 Z 4 0 7 4 8 0 D 0 4 ; q ",
": = ; 7 2 4 2 9 q 7 2 ; 8 ; 4 4 = : 0 0 0 0 4 e t y.M.D.4.  2.ZXDXDXDXDX;.O m.m.=.' H ; 8 ; 4 4 = : 0 0 0 0 4 4 q = 9 7 4 * : 2 ",
"8 4 4 8 7 4 4 w 7 4 4 q w 8 A q 2 q *.w ; u p.u.7.u $ j g -.{ @.gXgXgX2.> b k $ 7.7.m.r.w 8 A q 2 q *.w ; = ; : 4 2 2 = 7 ; 7 7 ",
"C q : q w 8 q 7 1 ; C w 8 S w : 7 Z S r 5 B.N a I., ) l /.zXzXv.E , ] c.vX$XX.[ h g f G.8 S w : 7 Z S r 5 4 0 w 8 8 7 4 8 8 7 q ",
"S S * q w 4 7 4 1 8 q 7 2 2 2 ; w w 9 4 8 k.y h ;X^.| l _.SXSXZX;.F kXPXmX~.| gX;XW.x Z.: : 1 ; w w 9 4 8 4 q 8 7 2 4 2 7 2 8 9 ",
"w w q 8 7 4 7 : 1 2 2 7 7 2 ; 7 w q q 7 - a.y g W.).d.<.W.).!.!.!.XXXXQ.I.-.c.).W.J.@ V.7 2 ; 7 w q q 7 - 9 &.q $.8 7 2 8 : w 9 ",
"9 7 9 r w - 7 w 9 r 8 * w w r 2 2 2 4 9 u s.I /.#X!.U X.<.L.J.L.L.L.J.P.aXx.:.W.#X^.I s.r.w r 2 2 2 4 9 8 q 4 q 9 ; : : 4 ; q 9 ",
"4 w r r $.2 7 q 7 8 S ; t 9 8 7 r 9 q r k.< aXcXg.#X#X| [ c.P.P.P.P.J.aXJXkXd.XXj.hXkXd F.q 8 7 r 9 q r C q q 4 w q r w q w 5 q ",
"4 9 7 q : - 2 7 7 4 1 2 4 4 4 r r r q 8 p.G k jXPX^.> S. .[ d.$X%X$Xd.1.sXcX] s DXcX@.z G.7 4 r r r q 8 8 : 0 7 q q r 9 7 7 ; = ",
"4 7 : 4 8 2 4 ; 7 2 8 8 q r 4 7 7 9 : Z u.G   c.PX^.> n.<._ | z.j.z...) } n.+.f ZXxXo f G.r 4 7 8 9 : Z r 7 4 1 8 w 8 8 0 8 4 7 ",
"w 2 4 C q w w 8 * 7 q q 9 w 8 w w 7 8 w p.K X #.L t.N.j > { { ) ) ) ( 1.n.s t.V.B -.$ B V.u 8 w w 7 8 0 t 7 7 4 8 w 9 S q 4 q A ",
"8 4 r 9 q w w r : r r A A r q $.= C t a.J iXjXo 4.F.V.D.7.P././ ~ / >.W.x F.y.t m.s c.kXf Z.w $.= Z t 4 : 7 7 w w +.C 8 q 0 C q ",
"7 5 *.+.7 7 4 8 4 w 0 S Z t C t 2 w A N.y ^.LX/.4.u.8 u.s.g (.(.(.(.(.J.B V.4 8 Z.f DXkXd D.C C 2 w A Z 9 ; w w $.8 8 7 4 4 7 w ",
"7 1 S C 2 4 4 4 7 w q r H t 9 r 4 C C k.6.P.>XW.N 7 r.4.f [ >.;X`.;X^.[ #.x p.e a.d ;X_.f Z.q r 4 C C 0 H 4 9 Z *.7 7 4 4 4 C 7 ",
"8 ; w 7 q 2 8 9 4 8 q r r r r r 4 q A a.6.I.>X!.. @ r.4.o ) 9.<.#.g.} 0.! f F.A.s b >X!.f Z.r C 4 q A 7 4 ; w q w 7 4 7 = + 9 H ",
"5 7 q &.C q r 7 2 q 4 q q 8 D H = 4 7 k.J ^.DXFXL i.M.X | h.x.{ ~ 9.} z.9.& 4.G.f xXFXdXd Z.D $.= 4 7 q 5 4 q Z 7 7 2 4 &.1 C &.",
"5 w r q 2 7 7 4 A q ; 4 8 4 D 7 7 4 2 N.y iXzXv.L 4.t.k x.h.x.,.#.g.{ z.x.#.J C.f v.hXkXd Z.D 7 4 4 ; $.8 q 1 4 = D w C r 7 4 5 ",
"C q 4 2 7 : = w 9 w S 4 4 4 7 8 q 8 q k.y aXzXjXiXs $ | z.h.x.,.~ 9.{ z.z.g.! s b jXhXkXd Z.7 8 q 8 q 7 4 5 r A 0 D C 5 5 7 = 4 ",
"r 0 4 2 8 C 4 8 C w C C 4 = r C C r C k.y ^.AX'.i.5.o | z.h.x.<.Y ) } z.z.9.& M a.I AXdXd G.t C C r C 8 = C w 0 8 w 8 4 7 ; - w ",
"7 : ; 2 q r 7 8 w q 7 8 4 9 &.*.&.%.r t y.K b t.t.f Y  .z.h.z.<.% ! j.h.z.g.T $ K s.b G D.Z.&.*.%.%.r w : r A 5 7 7 7 7 q 8 4 7 ",
"7 : t ; q 7 q 0 w 9 9 : ; 9 Z C 8 0 0 q : k.G.i.$ T Y ..z.z. .^ s o | z.z.j.T R E c G.G.F.t Z C 0 0 0 q : q q 4 4 4 w q 7 4 r 4 ",
"2 4 7 2 9 7 S 4 q w 7 4 4 w C 4 : 4 q 4 = a.4.k ( T R ..b...| -.s B  . .z.g.W R ( , 4.D.u r C 4 : 4 q 4 = 1 4 2 2 q q 7 7 4 8 - ",
"Z 9 7 ; A 8 2 * 7 w 4 4 2 w r q 4 4 9 ; : k.x o ) % W [ ( ..$.c V.i.B ..{ } ~ % T W d V.2 r t q 4 4 9 ; : q w 8 8 q 4 : ; 7 2 4 ",
"r w 7 4 = 7 ; : ; 8 4 1 8 4 r 4 4 ; ; 2 q l.c $ / % W [ T W X x F.m.a ! Y [ ~ % R ^ z A.8 4 r 4 4 ; ; 2 q w w w 8 &.7 w q w 4 7 ",
"2 V w 4 + 2 t w r 4 = 8 r r = = 4 7 w r w N.c o / % R R & T $ x F.f.X T % R R & Q W f D.r r = = 4 7 w r r w 8 +.q 4 w 8 9 8 D q ",
"4 D 8 1 = 8 w t 8 q : w 8 Z 7 8 w w w 9 r =.a.4.E / % R ( / X M F.i.a / ( W % R W B N.=.8 Z 7 8 w w w 8 r S q q ; w 0 4 2 : ; 2 ",
"4 2 4 q t 2 5 7 8 8 7 8 7 9 8 4 7 q w 7 7 w p.i.. / ( / E a N N.' y.4.a $ T ( _ % M A.8 7 9 8 4 7 q q 7 7 q : : w 0 7 2 ; : = 1 ",
"q 5 w q q 9 8 5 2 4 ; q 2 8 4 A ; q w 5 0 0 k.t.K.>.2.L.f M.a.e q 5 p.M.4.h :.O.U.z Z.q 2 8 4 A ; q q 4 0 0 : 4 w 4 1 : : q 2 1 ",
"7 4 Z q w 4 w 7 7 : 4 7 : 8 4 7 7 7 8 4 4 4 a.6.W.sXE m N.=.q 8 7 4 Z ` y.5.l O. Xz Z.8 : 8 4 7 7 7 8 4 4 4 4 1 7 4 ; &.A C 7 8 ",
"2 4 8 w 2 w 8 t 7 7 w t r * 7 q C A w 1 7 w k.i.j [.h i N.: q S 2 4 9 w e N.g ].l z A.t r * 7 q C A w 1 7 w r w w w q A q : q S ",
"1 4 4 4 4 4 2 2 V t q D 7 r 9 8 w S A 4 w p.K G w.' m p.t : q q 1 4 5 2 0 6.5.v w.7.G l.7 r 9 8 w S A 4 w r 4 4 4 Z w 9 : : q q ",
"1 4 = w 7 4 4 * A 8 4 7 t w 2 2 4 7 4 0 r N.x $ H.v 6 k.0 : 8 q 1 4 = w 7 t y.a UX{ d F.t w 2 2 4 7 4 0 r 4 7 4 4 4 4 C 0 : 8 q ",
"4 1 - 4 q 2 w r 8 4 7 4 q 7 7 7 2 7 9 1 y.t.E.>.l ~.a.=.0 4 ; q 4 1 - 4 q 9 p.4.L.o.~.4.N.0 7 8 2 7 9 1 Z 4 0 7 4 8 0 D 0 4 ; q ",
": = ; 7 2 4 2 9 q 7 4 ; 8 ; 4 4 = : 0 0 0 0 4 4 q = q 0 4 * : 2 : = ; 7 2 4 2 9 q 7 2 ; 8 ; 4 4 = : 0 0 0 0 4 4 q = 9 7 4 * : 2 ",
"8 4 4 8 7 4 4 w 7 4 4 q w 8 A q 2 q *.w ; = ; : 4 2 2 = 7 ; 7 7 8 4 4 8 7 4 4 w 7 4 4 q w 8 A q 2 q *.w ; = ; : 4 2 2 = 7 ; 7 7 ",
"C q : q w 8 q 7 1 ; C w 8 S w : 7 Z S r 5 4 0 w 8 0 7 4 8 8 7 q C q : q w 8 q 7 2 : C w 8 S w : 7 Z S r 5 4 0 w 8 8 7 4 8 8 7 q "
};
