/* XPM */
static char *xpm_[] = {
/* columns rows colors chars-per-pixel */
"64 64 245 2 ",
"   c #010101",
".  c #0B0B0C",
"X  c #080607",
"o  c #110D0A",
"O  c #160703",
"+  c #18110B",
"@  c #0D0E11",
"#  c #040915",
"$  c #0F1012",
"%  c #111215",
"&  c #15161B",
"*  c #1A181A",
"=  c #1D0C1D",
"-  c #231A13",
";  c #2A1E16",
":  c #271E1B",
">  c #2E0B09",
",  c #2D2219",
"<  c #2C2017",
"1  c #37271C",
"2  c #1B1D24",
"3  c #02062B",
"4  c #321927",
"5  c #1E2128",
"6  c #152237",
"7  c #21252C",
"8  c #222C2B",
"9  c #3D2D21",
"0  c #342924",
"q  c #3F3021",
"w  c #262933",
"e  c #2B2F39",
"r  c #272B35",
"t  c #2D313C",
"y  c #283F38",
"u  c #313138",
"i  c #530C0D",
"p  c #701812",
"a  c #4E2615",
"s  c #6B2B15",
"d  c #671A30",
"f  c #422B24",
"g  c #453324",
"h  c #493727",
"j  c #4A3728",
"k  c #4D3A2A",
"l  c #493727",
"z  c #543E2C",
"x  c #583F2B",
"c  c #5E3B23",
"v  c #563930",
"b  c #4D3330",
"n  c #6D3130",
"m  c #56402E",
"M  c #5A422E",
"N  c #5D4431",
"B  c #5E4834",
"V  c #564636",
"C  c #444133",
"Z  c #614633",
"A  c #644935",
"S  c #694D37",
"D  c #664C38",
"F  c #6C4F3A",
"G  c #6A4E39",
"H  c #6D513A",
"J  c #6F513C",
"K  c #6D513B",
"L  c #72543E",
"P  c #72543D",
"I  c #73583F",
"U  c #744530",
"Y  c #774000",
"T  c #0D1646",
"R  c #2B1B45",
"E  c #313641",
"W  c #373B49",
"Q  c #2B3249",
"!  c #0D305C",
"~  c #562A56",
"^  c #4F2D54",
"/  c #652A4B",
"(  c #6F2D56",
")  c #3E4751",
"_  c #374A79",
"`  c #3A446B",
"'  c #005552",
"]  c #575B4C",
"[  c #49574E",
"{  c #6E5541",
"}  c #665542",
"|  c #745640",
" . c #765943",
".. c #7B5B44",
"X. c #7D5D48",
"o. c #75594B",
"O. c #774D4E",
"+. c #7D614A",
"@. c #756E59",
"#. c #4E4F6D",
"$. c #4E776B",
"%. c #676763",
"&. c #8C0F0F",
"*. c #913816",
"=. c #8E1927",
"-. c #972838",
";. c #8B2C34",
":. c #AF3136",
">. c #AE0F12",
",. c #D42C16",
"<. c #E83014",
"1. c #CD342B",
"2. c #EC3832",
"3. c #864B32",
"4. c #B15233",
"5. c #B65629",
"6. c #FA4D14",
"7. c #D55036",
"8. c #E74628",
"9. c #FC562B",
"0. c #FB5937",
"q. c #EB4F2F",
"w. c #FE6534",
"e. c #FF6B33",
"r. c #FE6B3A",
"t. c #FF7234",
"y. c #DC6731",
"u. c #8A324E",
"i. c #AD3444",
"p. c #AB1F75",
"a. c #FF1D42",
"s. c #815F48",
"d. c #95544C",
"f. c #A4504A",
"g. c #83644D",
"h. c #84684B",
"j. c #896A53",
"k. c #92735A",
"l. c #9E735D",
"z. c #916E51",
"x. c #B26952",
"c. c #967C62",
"v. c #927471",
"b. c #AE7167",
"n. c #904E6A",
"m. c #D27A50",
"M. c #ED6D51",
"N. c #4E8477",
"B. c #8E8676",
"V. c #AF9076",
"C. c #8D8C47",
"Z. c #CE875A",
"A. c #F89159",
"S. c #EF9A6A",
"D. c #F9AF79",
"F. c #CD9974",
"G. c #1C328D",
"H. c #2E4F88",
"J. c #2557B6",
"K. c #4E4C87",
"L. c #756D8F",
"P. c #556EB5",
"I. c #1E5CCC",
"U. c #2879D8",
"Y. c #4476C1",
"T. c #8C7092",
"R. c #8868A6",
"E. c #936486",
"W. c #C362A5",
"Q. c #3C958B",
"!. c #38BEB7",
"~. c #32B6AE",
"^. c #4D9589",
"/. c #688D86",
"(. c #4AB8AF",
"). c #59ADA2",
"_. c #37C3BC",
"`. c #46C5BF",
"'. c #7A9ED4",
"]. c #2ED1CD",
"[. c #02FEFE",
"{. c #0BFFFF",
"}. c #14FFFF",
"|. c #1CFFFF",
" X c #1AF8F7",
".X c #23FFFF",
"XX c #2AFEFE",
"oX c #37FFFF",
"OX c #2FEEEB",
"+X c #59FFFF",
"@X c #4DF3F3",
"#X c #6AFFFF",
"$X c #64FBFA",
"%X c #74FFFF",
"&X c #7CFFFF",
"*X c #61DCE2",
"=X c #979C93",
"-X c #93948A",
";X c #AA978E",
":X c #96A49A",
">X c #ABA69A",
",X c #9CAFAF",
"<X c #A5B4AC",
"1X c #AABAB2",
"2X c #B5BCB4",
"3X c #B0AFA8",
"4X c #CFAC8A",
"5X c #F9B891",
"6X c #C3B8B3",
"7X c #CF96AB",
"8X c #FDC89C",
"9X c #F9C695",
"0X c #FAD5AD",
"qX c #FBD1A8",
"wX c #FFE7B7",
"eX c #FFEAB3",
"rX c #E0D3A0",
"tX c #9DB3C4",
"yX c #ACBFCA",
"uX c #BCD5D1",
"iX c #8BFFFF",
"pX c #82FCFB",
"aX c #92FFFF",
"sX c #9CFFFF",
"dX c #92F5F4",
"fX c #BBFFFF",
"gX c #B2FFFF",
"hX c #ACFFFF",
"jX c #D5D4D1",
"kX c #FFF6CE",
"lX c #CCFFFF",
"zX c #C5FCFB",
"xX c #D4FFFF",
"cX c #DCFFFF",
"vX c #D5F8F7",
"bX c #D5EFEE",
"nX c #FFFDE9",
"mX c #E3FFFF",
"MX c #ECFFFF",
"NX c #E9F5F4",
"BX c #F4FFFF",
"VX c #FDFFFF",
"CX c #F6F5F4",
"ZX c #E4EFEC",
"AX c #CAD8E5",
/* pixels */
"X.X.h F H N Z N m A G Z M M M z H J S N A N F A Z M N M Z M A S X.X.h F H N Z N m A G Z M M M z H J S N A N F A Z M N M Z M A S ",
"H H G A Z N Z z m M M Z Z M z Z H G G Z g S z.F g.A Z M A z H S H H G A N N Z z m M M Z Z M z Z H G G Z g S z.F g.A Z M A z H S ",
"S Z S P H g Z H S P A j J H P M M M N S A G N G S z z z N z G S S Z S P H g Z H S P A j J H P M M M N S A G N G S z z z N z G S ",
"N H P P g.M Z G Z A X.z I S A Z P S F P | F G N H G P J G H B G N H P P g.M Z G Z A X.z I S A Z P S F P | G G N H G P P G H B G ",
"N S Z G z g M Z Z N m M N N N P P P G A A x D Z F F P S Z Z z k N S Z G z g M Z Z N m M N N N P P I G A A x D Z F F P S Z Z z k ",
"N Z z N A M N z Z M A A F P N Z A S x  .P Z N m A J A A D A N Z N Z z g   g N z Z M A A F P N Z A S x  .P Z N m A J A A D A N Z ",
"H M N | G J J A h Z F F S H A K H Z A D I Z Z N A H S X.F N G ..H M N J . X J A h Z F F S H A K H Z A D I Z Z N A H S X.F N G ..",
"A N P S G H J P z P P ....P F g.k  .I N z Z Z H H s.| A M Z { F A N P k W % N P z P P ....P F g.k  .I N z Z Z H H s.| A G D { S ",
"Z B k.s.Z Z N A N H D X.J I | I M H .. .S z H H g.A A N o M Z J Z B j.X W r X A N H D X.J I | I M H .. .S z H H g.A A Z N N Z J ",
"Z m X.| M N N N Z H F P  .I S P N | | D +.N S  .k.Z B 9 . N | Z Z m X.X W t . j N z G P  .I S P N | P A +.N S  .k.Z Z N N N | Z ",
"A z H Z G M A S N A F P P P P P N G ..Z N z H G J Z N . X q S +.A z z $ w W t X 9   F P P P P P N G ..Z N z H G J Z N Z k q S +.",
"B Z G j.| G P Z M G N G F A o.+.k N Z D B m h | Z B g E o m | j.B N X r   t t o k & 9 G F A o.+.k N Z G B N G  .Z Z M N j.m | j.",
"B H P G M Z Z N ..G z N A N o.Z N N z g.A k   N k | X t * z N B B j & 2   t t . m W X N A N o.Z N N z g.A G m N k ..J | P Z N B ",
"| G N M Z z k H S H X.N N N Z A G A G Z N j   m Z  .. E r @ g N N % r     E t     E o h N N Z A G A G Z N B P ..Z o.| B B Z k N ",
"P D N M A | N A | J | | N k P | | P | A k Z   @ z J % r @ w % z % r       W e   @ w .   N k P | | P | A k | H D A J A N Z z g H ",
"Z x z M F P Z A J G Z A N S j.k.j.j.P J z Z X w & g o e     5 & W e       e t X w . 7 X z z j.k.j.j.P J z P ..B Z Z Z Z G A N Z ",
"Z z I z G Z G D J S S x z S  .| A D D F z M     7 $   t @   X r ) t       X 2 2 & X w o f . P | A D D F z G F N N N H G Z N P N ",
"M N Z M S Z X.N G H Z N N H | N z N G N k h       7 2 W W %     w 7         & w   X 7 . 9 o P N z N G N k m N M M F F Z N N A g ",
"I S Z z ..A M h Z J N N M J P G N N S z z M         7 7 7 7               . 2     X r 5 5 . P G N N S z z F H A A F N z z Z M N ",
"P J Z N k Z z z z A N m A N P N N z z z z H ;                 %     & $       % @   E e   X P N N z z M G H H J A z.Z H G H N Z ",
"M { J N q M I H P N k A P P k k N Z H N   z z X             & w   @ t w @   % e 7 & &       k k N Z H P P H A s.G N P A S A ..G ",
"N o.A m k A H I A G z H A  .Z A H H H M                   % 5   X r   X w 2 2   X r .     ; Z A H H H A P X.G F z H G N M z z M ",
"N M N G  .M Z Z A A Z A Z S A N Z G G M +               & E     . t     X 5 .     X w     S A N Z G G Z Z F z z H D Z M z z k m ",
"G B H G G S A Z M N z F M A N ..z G G N D               E E     X &       @ e     . e   ; A N ..z G G N D D z N H N m z z G M m ",
"Z N  .G H N H Z Z z N Z z A N Z Z Z A N N o             W t               . 6     X 2 + z A N Z Z Z A N N N N m Z N z j...| Z A ",
"M N Z H M H A I Z Z H I P h Z G | ..J m Z J ;           # r X     n c     o o.o.&   o I P h Z G | ..J m Z J I J H H G ..G z G X.",
"m N N N N N M M { I G o.Z P S A J X...N J P N +       X 0 E     1 4.5.z   + A.A.u @ o o.Z P S A J X...N J P N N N o.H S z z G G ",
"m N k H Z N N h ..A N Z I J M M N Z N D P N Z N -     * 9Xd.  a y.0 ) k.} - m.y.+ u . N I J M M N Z N D P N Z N N N N | D z A G ",
"N m g N G M J P A N Z N G Z Z Z M Z S m  .N A Z N -   % wXD.c S.m.v.MX%.c.O S.D.+ N , M G Z Z Z M Z S m  .N D Z N A D o.D N z G ",
"z k z Z M N M S G Z M z A z N N k z D D D D M N S j < X V.F.S.0XrXb.nXjX  [ wXV., Z M z A z N N k z D D D D N N G j S Z N h z M ",
"A N N A Z N N J Z N N F H A ..F M G k.J z k z z 1 1 9 < ,   x.wXqX0XnXBX,XnXqXX Z N N F H A ..F M G k.J z k z z N M M k Z z Z Z ",
"| G z G J A G Z m z | H A X.J z Z  .X.P B N D H   s a z z   O.4XeX0XtXtXjXwX@.X M z | H A X.J z Z  .X.P B N D H A A Z N A A Z F ",
"X.X.h F H N Z N m A G Z M M M z H J S N A N G 9 & 7.9.i s c 5.;.;X5X=.&.-.o.>   1 Z G Z M M M z H J S N A N F A Z M N M Z M A S ",
"H H G A Z N Z z m M M Z Z M z Z H G G Z g S g.X H.H.-.6.w.A.D.Z.U b.1.2.>.&.e.7   M M Z Z M z Z H G G Z g S z.F g.A Z M A z H S ",
"S Z S P H g Z H S P A j J H P M M M N S A G M . Y.U.K.4.1.8.5XeXD.b.l.| V.M.M.P.$ P A k J H P M M M N S A G N G S z z z N z G S ",
"N H P P g.M Z G Z A X.z I S A Z P S F P | G G X #.L.J._ e.6.w.=X3XjX6XT.uXL.q.P.# Z X.z I S A Z P S F P | G G N H G P J G H B G ",
"N S Z G z g M Z Z N m M N N N P P P G A A z l b 3.S.,X6 &.*.5./ ! H.H.H.G.#.S._ : N 9 1 g g N P P P G A A x D Z F F P S Z Z z k ",
"N Z z N A M N z Z M A A F P N Z A S x  .P N   F.k.wXh.. ] [ O 8.d.H._ _ ` ;XAXX Z M X c f a 9 Z A S x  .P Z N m A J A A S A N Z ",
"H M N | G J J A h Z F F S H A K H Z A D P q V m.f.c.0 d.8X4XO <.9.T.U.U.E.M.#.X 1 g 1 x.b.A.X K H Z A D I Z Z N A H S X.F N G ..",
"A N P S G H J P z P P ....P F g.k  .I N z 0 kXkXZ.  8XA.S.F.c *.,.w.T.b.9.,.  3 4 c O.f.x.U X g.k  .I N z Z Z H H s.| A G D | F ",
"Z B k.s.Z Z N A N H D X.J I | I M H .. .Z < V.4XkX` c.9XqX8XS.  u.9.6.6.,.5.v G.K.m.d.m.x.  , I M H .. .S z H H g.A A Z N N Z J ",
"Z m X.| M N N N Z H F P  .I S P N | | D +.N < , v._   B.wX9X] T J.u.=.-.d   P R T d.A.x.4 9 S P N | | D +.N S  .k.Z Z N N N | Z ",
"A z H Z G M A S N A F P P P P P N G ..Z N z H G 1 ; -   c.c.a u./ J.I.I.P.a X < - f 3.3.1 P P P B G ..Z N z H G J Z N Z k q S +.",
"B Z G j.| G P Z M G N G F A o.+.k N Z G B N G  .Z Z M ; l   w.<.8.E.R.R.R.q.o Z M , ; 1 F A ..+.k N Z G B N G  .Z Z M N j.m | j.",
"B H P G M Z Z N ..G z N A N o.Z N N x g.A G m N k ..J | z s 7.8.t.6.<.8.;.7.s 1 ..G z N A N o.Z N N z g.A G m N k ..J | P Z N B ",
"| G N M Z z k H S H X.N N N Z A G A F Z N B P ..Z  .| B + r.8.e.e.0.1.q./ r.e.> C N./.$.$.N Z A G A G Z ] Q.P ..D o.| B B Z k N ",
"P D N M A | N A | J | <X} k P | | -X=X:Xk P H D 3X| Z , p e.e.e.e.q.q.f.~ w.w.>.8 aX}.}..XQ.N.| ^.^.| A [ ].(.;XA J A N Z z g H ",
"Z x z M F P Z A J G <XuX} S j.>X>XxXxXuXz P -X2XjXZ 9 = 1.w.e.e.7.2.0.~ n e.w.&.4 3XiX[.}..X X).aX{.^.N.z P OXsXB.Z Z Z G A N Z ",
"Z z I z G Z G D =X3X2Xz z -X3XxXxXvXB.F -X<XcX6XN 1   ( 1.e.e.8.q.p i ( 1.e.e.7.d > =XgXXX}.}.oXxXsX|.|.N.G K }.lXB.H G Z N P N ",
"M N Z M S Z X.:XMX+XZ B.=XxXxXxXxXvXv.-XxXcX>XM 1 = d / 1.e.9.0.*.< < a 9.q.t.r.u.=.i ;X}.}.XX{.|.sXoX}.[.$.N XXlXmXF Z N N A g ",
" .S Z z ..A =XmX$X@X:XMXxXxXxXxXxXxXxXxXxXNXH 1 i i.i./ 1.8.:.*.1 S N O 7.8.q.e./ ( &.  *XXX|..X|.[.}.oX#XXX~.{.lXNXN z z Z M N ",
"P J Z N k Z MX+X+XBXMXlXxXxXxXxXxXxXxXxXvX;XH   1.:.~ / -.u.R X P H N # ^ f.,.8./ ( &.X ZXoX}..X.X.X{.+XcX|.|.&XxXvXZ H G H N Z ",
"M { J N q M $X+XMXcXxXBXcXlXcXVXBXxXlXcXCXH S   1.~ ^ / ^ ~ d X m { G + u.~ ;.n ( -.i %.CXXX}..X.X.X[.oXzX[..XVXmXvXP A S A ..G ",
"N o.A m k A $XmXcXmXmX%XzXMXmX&X#XlXmXlXdXX.G 1 p :.;.^ ~ :.:.  m o.Z ; p :.-.-.=.i -XVXsX}.|..X.X}.[.sXgX[.&XcXcXvXG N M z z M ",
"N M M G I M NXxXcXBXiX@XxXVX&X[.oXxXBXfX[.N.z z X s.,.i.i.2.p - m M N G ; p f.:.p X VXVX{.{..X.X}.[.&XVXfX&XMXcXxXbXZ M z z k m ",
"G B H G S S xXmXVX%X}.mXVX%X{.%XMXmXmXfX.X}.N.N . E.n.p p i , m G B J G G , T #.i   ZXiX|.|..X}.[.pXVXcXcXMXxXxXBXmXm z z G M m ",
"Z N  .G H N 3XcX&X[.XXBXaX[.}.BXmXxXMXfX[.}.OXy Q a.P.  1 9 Z A Z N  .G H M   ^ &.v.$X[.|.XX{.{.pXBXcXxXxXxXmXMXpX=Xz j...| Z A ",
"M N A H M H A ,X[.{.oX%X{.}.pXcXcXxXcXxX#X{.{.  p.W.Q 9 G z G X.M N A H N A <   7XhX{.|.|.[.[.aXVXcXxXxXxXMXMX%X[.H D ..G z G X.",
"m N N N N N M M ~.(.|.[.{.XXmXmXxXxXxXmXVX*X' Y 9.Q j S z z G G m N N N N N M v.%X[.}.[.}.#XaXBXcXxXxXxXmXBX#X[.Q. .H S z z G F ",
"m N k H Z N N h ..A ~.!._.`.xXmXxXxXxXxXMXAXv 9XC.  [ ^.$.z A G m N k H Z N /.fX[.[.}.+X&XVXVXxXxXxXcXVXVX%X[.~.M N N | D z A G ",
"N m g N G M J P A N Z N G Z >X<XxXxXxXxXxXcXVXxX'./.#X.X|._.!.!.B m g ] _.].{.{.%X%XiXBXBXxXxXxXxXcXlXiX#X{.^.Z N A D o.D N z G ",
"z k z Z M N M S G Z M z A z N N ,X<X1X1X1X1X1X1X2X2X2X!.!.].].].V k z ] ].].~.(.2X6X2X<X1X<X1X1X<X2X,X~.~.Q.N N G j S Z N h z M ",
"A N N A Z N N J Z N N F H A ..F M G k.J z k z z Z M M k Z z Z Z A N N A Z N N J Z N N F H A ..F M G k.J z k z m N M M k Z z Z Z ",
"| G z G J A G Z m z | H A X.J z Z  .X.P B N D H A S Z N A A Z F | G z G J A G Z m z | H A X.J z Z  .X.P B N D J A A Z N A A Z F "
};
