/* XPM */
static char *xpm_[] = {
/* columns rows colors chars-per-pixel */
"64 64 249 2 ",
"   c #1D1E35",
".  c #1F283E",
"X  c #3F3021",
"o  c #27263A",
"O  c #352838",
"+  c #281C32",
"@  c #7D081F",
"#  c #4E122F",
"$  c #690124",
"%  c #750723",
"&  c #771131",
"*  c #493726",
"=  c #4D3A2A",
"-  c #483525",
";  c #543E2C",
":  c #583F2C",
">  c #51353C",
",  c #73302F",
"<  c #56402E",
"1  c #5A422E",
"2  c #5D4431",
"3  c #5A4934",
"4  c #51543B",
"5  c #614633",
"6  c #644935",
"7  c #694D37",
"8  c #664C38",
"9  c #6A4E39",
"0  c #6E513B",
"q  c #60553E",
"w  c #72543D",
"e  c #73583F",
"r  c #253E54",
"t  c #2B314D",
"y  c #24215F",
"u  c #463644",
"i  c #632E40",
"p  c #6C3649",
"a  c #681A56",
"s  c #2C546A",
"d  c #2F667B",
"f  c #57504A",
"g  c #6A5742",
"h  c #745641",
"j  c #765942",
"k  c #7B5C44",
"l  c #7D5D48",
"z  c #765B49",
"x  c #724E55",
"c  c #567259",
"v  c #576D54",
"b  c #6C6B4F",
"n  c #775A64",
"m  c #577C65",
"M  c #4C6873",
"N  c #536874",
"B  c #5D727D",
"V  c #71746E",
"C  c #4F5571",
"Z  c #93121A",
"A  c #AA1C17",
"S  c #88241C",
"D  c #B12717",
"F  c #A33530",
"G  c #872535",
"H  c #CA270E",
"J  c #D12E12",
"K  c #DB2B2F",
"L  c #AE4D36",
"P  c #DE461E",
"I  c #D1492A",
"U  c #E45527",
"Y  c #EB6732",
"T  c #EF6D35",
"R  c #C3673D",
"E  c #843647",
"W  c #A61A49",
"Q  c #825E48",
"!  c #935854",
"~  c #83634D",
"^  c #8A6B53",
"/  c #93735B",
"(  c #946D54",
")  c #AD655B",
"_  c #8C6F73",
"`  c #A8716B",
"'  c #A65450",
"]  c #C96B52",
"[  c #CD7966",
"{  c #D07E6A",
"}  c #D66746",
"|  c #2BAE5A",
" . c #23B14E",
".. c #37AA6C",
"X. c #58836D",
"o. c #558B79",
"O. c #4A9370",
"+. c #5B9571",
"@. c #B48B7C",
"#. c #8E8D74",
"$. c #FE9853",
"%. c #F98747",
"&. c #D68973",
"*. c #D48B76",
"=. c #EF9870",
"-. c #F3A478",
";. c #8D8030",
":. c #32519B",
">. c #367489",
",. c #357395",
"<. c #3A6DB0",
"1. c #487A8B",
"2. c #697B85",
"3. c #575D94",
"4. c #3E7AC4",
"5. c #967C86",
"6. c #8F5189",
"7. c #39859A",
"8. c #3F9DB1",
"9. c #549486",
"0. c #519292",
"q. c #71828C",
"w. c #778992",
"e. c #788D97",
"r. c #55A09D",
"t. c #51A296",
"y. c #49A48A",
"u. c #5A9FA5",
"i. c #5D9EA9",
"p. c #579FA1",
"a. c #4697AB",
"s. c #669BB8",
"d. c #609DAE",
"f. c #4DACB5",
"g. c #72A8A9",
"h. c #71AD97",
"j. c #76CE94",
"k. c #7297CB",
"l. c #7A94D8",
"z. c #6D98C3",
"x. c #44B6C9",
"c. c #52B2C6",
"v. c #7B9BE7",
"b. c #7F96E5",
"n. c #6EADE9",
"m. c #75A4E8",
"M. c #74A8E8",
"N. c #6AB3E9",
"B. c #64BBEA",
"V. c #67BAE9",
"C. c #76B8EC",
"Z. c #66ABD4",
"A. c #4EC4D6",
"S. c #59C9EB",
"D. c #59C9EB",
"F. c #4DDAED",
"G. c #4DD4E9",
"H. c #55DBEE",
"J. c #56D6EC",
"K. c #4CCEE0",
"L. c #6AC5EC",
"P. c #75C3ED",
"I. c #63DEEE",
"U. c #6DDDEC",
"Y. c #77D8EC",
"T. c #6FDCF0",
"R. c #6DE0F0",
"E. c #73E1F1",
"W. c #7DE3F2",
"Q. c #77E0EF",
"!. c #35C393",
"~. c #8A8F9B",
"^. c #B09288",
"/. c #8999A3",
"(. c #9497A5",
"). c #88A8AB",
"_. c #98A5AB",
"`. c #9DABB2",
"'. c #96B1BC",
"]. c #A4AEB4",
"[. c #A9B3B9",
"{. c #AEAFB3",
"}. c #CE9C8A",
"|. c #E8B99A",
" X c #F2BC9B",
".X c #F0AC88",
"XX c #D6AA97",
"oX c #F8C29C",
"OX c #F8C9A6",
"+X c #FED3AD",
"@X c #F3CCB0",
"#X c #8EAECE",
"$X c #ABB7C8",
"%X c #8391E6",
"&X c #8D93E9",
"*X c #9697EB",
"=X c #A49AEC",
"-X c #AB9CF1",
";X c #B49DF3",
":X c #B09EEF",
">X c #92B0EB",
",X c #ACB2F0",
"<X c #959FD5",
"1X c #D2A8FB",
"2X c #E3B9FF",
"3X c #B9C3C8",
"4X c #B5C6CE",
"5X c #87D5F0",
"6X c #93D5EF",
"7X c #BAD4F2",
"8X c #83E1EE",
"9X c #8BE2ED",
"0X c #88E5F2",
"qX c #99E7F4",
"wX c #9AE5ED",
"eX c #ACECF7",
"rX c #A5E8F4",
"tX c #B6EEF7",
"yX c #BBEFF8",
"uX c #B9EBF6",
"iX c #B6E7EE",
"pX c #C4CACD",
"aX c #C5CFD3",
"sX c #CAD3D8",
"dX c #D6DADC",
"fX c #D6C6C6",
"gX c #F3DAC9",
"hX c #F8E7D8",
"jX c #F7E1D0",
"kX c #D8DEE1",
"lX c #C7D0F4",
"zX c #E9D3FE",
"xX c #C7EAEF",
"cX c #D8E8EB",
"vX c #C3F1F9",
"bX c #CBF2F9",
"nX c #D4F3FA",
"mX c #DCF5FB",
"MX c #CDEAF7",
"NX c #E3ECEE",
"BX c #EEEEEE",
"VX c #E2E5E6",
"CX c #EBEBFB",
"ZX c #E4F6FC",
"AX c #ECF8FC",
"SX c #EBF6F9",
"DX c #F1F9FD",
"FX c #F6F8FA",
"GX c #F5F0EB",
/* pixels */
"l l * 9 0 2 5 1 < 6 9 5 1 1 1 ; 0 w 7 2 6 2 9 6 5 1 2 1 5 1 6 7 l l * 9 0 2 5 2 < 6 9 5 1 1 1 ; w 0 7 2 6 2 9 6 5 1 2 1 5 1 6 7 ",
"0 0 9 6 5 2 5 ; < 1 1 5 5 1 ; 5 0 9 9 5 - 7 ^ 9 ~ 6 5 1 s.: 0 7 0 0 9 6 5 2 5 : < 1 1 5 6 1 ; 5 0 9 9 5 - 7 ^ 9 ~ 6 5 1 6 : 0 7 ",
"7 5 7 w 0 - 5 0 7 w 6 * 0 0 w 1 1 1 2 7 6 9 2 9 7 ; : < | r.0 s.7 5 7 w 0 - s.0 7 w 6 * 0 0 w 1 1 1 2 7 6 9 2 9 7 ; : : 2 ; 9 7 ",
"2 0 w w ~ 1 5 9 5 6 l ; e 7 6 5 w 7 9 w h 9 g 2 0 9 m Z. . ...z.2 0 w w ~ 1 s.t.5 6 l ; e 7 6 5 w 7 9 w h 9 9 2 0 9 w w 9 0 2 9 ",
"2 7 5 9 : - 1 5 5 2 < 1 2 2 2 w w w 9 6 6 : 9.o.X.X.N.9Xy.| u.v.c.7 5 9 : < k.%X5 2 < 1 2 2 2 X.g w 9 6 6 : 8 5 9 9 w 7 5 5 ; = ",
"2 5 : 2 6 1 2 ; 5 1 6 6 9 w 2 5 6 7 3 j w 5 2 o.%XN.qXCXk...%XM.B.z.: 2 q k.M.b.u.1 6 g.9 w u.l.t.g : j w 5 2 < 6 0 6 6 8 6 2 5 ",
"0 1 2 h 9 0 0 6 * 5 9 9 7 0 6 0 0 5 i.s.e 5 5 9.%XF.DXCXl.d.%XM.S.M.z.r.<X*XD.m.%X5 ).h.7 i.l.v 0 q 6 g e 5 5 2 6 0 7 l 9 2 9 k ",
"6 2 w 8 9 0 0 w : w w k k w 9 ~ = j i.%Xs.5 g.%XB.eXDXZXN.%Xv.P.8XS.M.=X-XC.qXP.b.'.h. .i.%Xk.~ = j e 0.3 5 5 0 0 Q h 6 9 8 g 7 ",
"5 2 / Q 5 5 2 6 2 0 8 l 0 e h e 4 g i.%X-X$X=XV.F.AXDXAXrXV.m.8XcX8XS.,X>XqXZXE.v.1X$Xs.%XB.k.e 1 0 k r.t.< 0 0 ~ 6 6 5 2 2 5 0 ",
"5 < l h 1 2 2 2 5 0 9 w k e 7 g r.| i.%X*X1X*XG.yXDXDXDXAX7Xm.8XpX'.8XC.L.yXDXbXL.*X*X%Xb.G.l.r.2 h k.r.l 2 7 j / 5 5 2 2 2 h 5 ",
"6 ; 0 5 9 1 6 7 2 6 9 w z.z.9.y.r. .f.D.m.*XL.F.ZX2XDXDXDXbXS.8XsX/.'.5XG.yXDXDXI.S.D.D.S.F.D.S.A.Z.N.r.2 ; 0 9 0 5 2 5 = X 7 l ",
"2 5 9 ^ h 9 w 5 1 9 2 9 m %Xl.l.r.!.wXW.G.v.S.vXAXCXDXDXDXAXeX8XkX/.B $X8XyXDX0XxX0.1.1.0.cXcXcXiXG.B.r.2 2 9 j 5 5 1 2 ^ < h ^ ",
"2 0 w 9 1 5 5 2 k 9 ; 2 6 +.;X%Xl.B.eXZXE.G.F.mXDXI.DXDXDXDXvX8XkX/._._.$X9XI.xXw.N M dXkXBXcXI.0XeXB.r.6 9 < 2 = k 0 h w 5 2 3 ",
"h 9 2 1 5 : = 0 7 0 l 2 2 4 %X%X%XB.eXDXAXZXR.mXI.NXH.DXDXDXvX8XkX/.`.NX/.3XNXw.N M cXBXBXcXE.ZXAXtXB.r.2 2 w k 8 j h 3 2 5 = 2 ",
"w 8 2 1 6 h 2 6 h 0 h h 2 4 %Xn.V.B.eXDXDXDXDXDXH.BXBXDXDXDXvX8XkX/.`.BX/.3XaX4X4X4X4XBXNXI.DXxXW.tXB.r.= h 0 8 6 0 6 2 5 ; - 0 ",
"5 : ; 1 9 w 5 6 0 9 5 6 2 7 X.N.H.H.eXAXAXAXAXAXH.BXNXI.AXAXyX8XkX/.`.BX/.).q.sXBX4XBXBXH.nXU.xXW.tXB.r.: u.b 2 5 5 5 5 9 6 2 5 ",
"5 : e ; 9 5 9 7 0 7 7 : ; 7 m N.qXrXeX0XH.H.K.K.K.cXBXNXE.vXK.Y.sXe._._./.w.aXBX4XNXBXcXF.U.BXxXW.uXB.r.9.o.9 2 2 2 0 9 5 2 w 2 ",
"1 2 5 1 7 5 l 2 9 0 5 5 2 0 m n.qXZXqXiXcXNX~.2.N B VXBXcXc.2.2.B M N /.e.pXBXdXw.VXBXI.U.cX$XxXE.7Xl.t.| p.4 2 1 9 9 5 2 2 6 - ",
"e 7 5 ; k 6 1 * 5 0 2 1 1 w c %XN.rXDXqXE.MXBXBXw.4X'.VXdXq.BXBX3Xq./.q.[.BXBXq.dXsXVXVXVX3X2.xXF.D.i.| i.X.0 6 6 9 2 : ; 5 1 2 ",
"w 0 5 2 = 5 ; : ; 6 2 1 o.s...k.n.6XmXnXZXBXBXBXpXBXe.`.aXq.BXBXBXBX$Xw.pXBXBXq.dX/.4XaXaXdX2.xXF.D.s.g.&XX.0 0 6 ( 5 0 9 0 2 5 ",
"1 g 0 2 X 1 e 0 w 2 = 6 &X<X..y.%XB.eX0XxXpX3XNX/.BXNX/.4X_.VX3XsXBXdX3XdXBXaX2.[.NXBXBXBX$X).wXF.D.&X;X=XX.6 Q 9 2 w 6 7 6 k 9 ",
"2 j 6 < = 6 0 e 6 9 c t.*X1X<Xg.>XM.6XR.xX].B ].BXBX$XBXBXVX[./.[.dX`./.].dX]././.[.BXBX[._.wXF.F.S.,X,X%XX.9 9 ; 0 9 2 1 : ; 1 ",
"2 1 2 9 j 1 5 5 6 6 i.%X%X*X=X,X,X*XB.W.rXcX]._.[.[.N BXVX].[.BXBX[.`.BX$X].kXBXBX`.[.[._.NX8XH.qXqXqX6X%XX.: : 0 8 5 1 ; : = < ",
"9 3 0 9 9 7 6 5 1 2 ; i.%X%X>X,X*X;XP.tXtXwXNXBX].].N `.(.q.BXVXdX_./.VXBX3X`.aXBXBX].N BXBXNXwXtXnX5Xm.s.8 : 2 0 2 < : : 9 1 < ",
"5 2 j 9 0 2 0 5 5 : 9.| u.%X,X7XM.*XP.tXDXyXwXNXBXBXN [._.q.BXcX{.` _ [.VXBXe.q.4XNXBXN BXBXBXcXrX5Xm.%X9.2 2 1 5 2 ; ^ k h 5 6 ",
"1 2 5 0 1 0 6 e 5 5 X.t.| u.>XqX5XM.B.tXDXrXH.8XNXBXN VX(.[.[.cX^.] ) _ $XVX^.].dXsXBX[.9X9X9X9X5Xm.*X#X5 0 e 0 0 0 9 k 9 : 9 l ",
"< 2 2 2 2 2 1 1 g e 9 X.r...n.qXnX5XG.tXrXiXiXiXBXBXN NXpXVX[.].fX.X&.) V aX}.gXwXcX/.BXH.yXrXS.m.*X;Xi.0 w 2 2 2 j 0 7 : : 9 9 ",
"< 2 = 0 5 2 2 * k 6 2 #X7Xk.b.C.tXmXW.tXnX0XQ.NXBXBXpXBXgXBXfX_ {.hX@X&.) 5.XXhXI.T.4XBXH.ZXY.n.C.;X*Xr.w 2 5 1 2 2 2 h 8 : 6 9 ",
"2 < - 2 9 1 0 w 6 2 5 c #X5 t.N.qXDXmXZXDXnXbXQ.U.BXBXBX+XBXjX|.^.5.pX@X&.) |.V A.vXT.BXH.mXF.Y.7X*Xs.< j 2 8 5 2 6 8 z 8 2 ; 9 ",
": = ; 5 1 2 1 7 9 5 1 ; 7 ; 2 r.C.tXDXDXDXDXDXmXnXU.BXBX+X|.5.GX{.5.NXBXVX@Xn a.xXAXmXI.mXmXI.yXL.s.8 8 8 9.4 2 9 = 7 5 2 * : 1 ",
"6 2 2 6 5 2 2 0 5 2 2 9 0 6 b =X-XV.tXzXCXDXDXDXDXZXI.BXBXfX_ FXhXOXjXaXdXgXf x.nXDXDXZXDXAXZXMXs.| X.9.9.X.; : 2 1 1 = 5 ; 5 5 ",
"h 9 : 9 0 6 9 5 : ; h 0 6 b %X%X-X-XB.yXDXDXDXDXDXH.F.H.H.x.O 5.hX+X+X+X+Xn a.F.nXDXDXDXDX2XnXL.%Xl.,XlX9.2 8 0 6 6 5 2 6 6 5 9 ",
"l l * 9 0 2 5 2 < 6 9 5 1 %X%X%X%X%XB.yXDXDXDXDXH.          > ' 5.hX+X+X` O     x.mXDXDXDXDXnXD.%X,XlXr.6 2 9 6 5 1 2 1 5 1 6 7 ",
"0 0 9 6 5 2 5 : < 1 1 5 &X1X,XF.H.H.tXDXDXDXDXI.. +XGXOX+XOX+X+X}.p i p }.+X+X+Xu A.AXDXDXnXD.%X,XlX-X).- 7 ^ 9 ~ 6 5 1 6 : 0 7 ",
"7 5 7 w 0 - 5 0 7 w 6 s.0 b :Xn.qXZXDXDXDXDXDXI.. GX] [ OX] { +XhX.X' @.jXgX&. Xf x.nXDXZXG.m.8XlX*X1X).7 9 2 9 7 ; : : 2 ; 9 7 ",
"2 0 w w ~ 1 5 9 5 6 l ; e 7 g l.n.qXZXDXDXDXDXI..  X]  XOX X[ &.jXgXOX@.}.+X&. X+Xt K.DXZXH.8XAX7X%Xl.o.h 9 9 2 0 9 w 0 9 0 2 9 ",
"2 7 5 9 : - 1 5 5 2 < 1 1 2 2 X.%Xn.qXZXDXDXnXc.o ' { [ ) +X X*. X*.*.OX+XoX[ }.XXO K.DXZXI.DXbXD.%Xi.6 6 : 8 5 9 9 w 7 5 5 ; = ",
"2 5 : 2 6 1 2 ; 5 1 6 6 9 w 2 X.%Xv.D.qXZXDXR.t p i +XOXx +XOX*.[ &.[ .X X{ [ ! ! u 8.vXAX0XDXbXD.&Xg.j t.9.2 < 6 0 6 6 8 6 2 5 ",
"0 1 2 h 9 0 0 6 * 5 9 9 u.0 6 X.%XB.R.0XnXvXf.f &.i +X@.x +X|.[ .X+X}.*.*.[ |.[ oXXXo F.DXDXZXrXC.=Xh.o.t.c o.2 6 0 7 l 9 2 9 k ",
"6 2 w 7 9 0 0 w : w w k k k.m s.%XB.eXDXAXE.r &.jXi #.d M @.-.=.oX+X|.*. X&.-.! |.FXo F.DXzXnXD.*X)...s.9.5 c 0 0 Q h 6 9 8 h 9 ",
"5 2 / Q 5 5 2 6 2 0 8 l 0 *X*Xv.m.B.eXDXDXE.r |.FX> >.0Xx.O ! ( }..X-.-..X) Q O (.$Xo F.DXzXnXD.*X#Xs.%Xs.; 0 0 ~ 6 6 5 2 2 5 0 ",
"5 < l h 1 2 2 2 5 0 9 w j *X;X,X5XN.5XnXDXE.r /.>X  H.SX6X7.d t C ! E E ! u d t <.4.  F.DXDXnXD.*X,Xm.M.%Xs.r.j / 5 5 2 2 2 h 5 ",
"6 ; 0 5 9 1 6 7 2 6 9 w w i.*XlXbX5XS.tXDXE.r <.4.  >.qXnXA.M L p :.:.:.:.n M #.{.{.o F.DXDXnXD.%X%X>X6X%Xs.X.9 0 5 2 5 = X 7 l ",
"2 5 9 ^ h 9 w 5 1 9 2 9 9 g %X,XDXnXE.tXDXE.r _.{.^.^.>.W.x.> T I @.` ` n ] 2 ` ` OXo F.DXDXnXD.%Xm.6X7Xs.2 9 j 5 5 1 2 ^ < h ^ ",
"2 0 w 9 1 5 5 2 k 9 ; 2 6 2 u.>XtXDXnXmXDXE.r |.+X&./ ^.s C R U %.$.Y Y F } L > i oXo F.DXZXY.m.m.Y.rX>X9.9 < 2 = k 0 h w 5 2 3 ",
"h 9 2 1 5 : = 0 7 0 l 2 2 2 c b.P.yXDXzXCXE.r |.+X] p oXO } U %.$.$.Y Y F } P # ^.OXo F.DXmXS.v.Y.nX7Xd.2 2 w k 8 j h 2 2 5 = 2 ",
"w 8 2 1 6 h 2 6 h 0 h h 2 = l.%Xb.P.yXCXDXmXc.f OX XXXu O J P $.$.$.Y Y F } %.} f f x.nXDXmXF.Y.mXvXP.r.= h 0 8 6 0 6 2 5 ; - 0 ",
"5 : ; 1 9 w 5 6 0 9 5 5 2 l.%X%X%Xb.L.vXDXDXmXA.t t t O |.-.P $.T Y Y A % D J %.J f.F.DXDXmXI.mXDXlXb.r.: w k 2 5 5 5 5 9 6 2 5 ",
"5 : e ; 9 5 9 8 0 7 7 : s.7 j h r.%X%XL.vXDXDXZXK.  D & oX] P T U Y A $ L P J .X$.I K.H.DXAXZXDXvXL.i. .9.l.l.3 2 2 0 9 5 2 w 2 ",
"1 2 5 1 7 5 l 2 9 0 5 2 2 0 h 2 : 2 9 s.D.bXDXI.J H H & %.J J U T A $ $ A T P R oX$.$.$.H.DXDXbXD.=X1X:X%X%Xc 1 1 9 9 5 2 2 6 - ",
"j 7 5 ; k 6 1 * 5 0 2 2 1 0 w 9 2 ).-X%XD.bXDXI.. $ $ & %.P $.T S     # $ A T P % H + F.DXDXnXS.%X%X=X;X%XX.0 6 6 9 2 : ; 5 1 2 ",
"w 0 5 2 = 5 ; : ; 6 2 < 6 3 l.%X%Xb.;X*XL.bXDXI.. J $ & T H H A # >.,.S Z $ $ $ % H + F.DXDXDXAXZXuXB.%Xo.0 0 0 6 ( 5 0 9 0 2 5 ",
"1 g 0 2 X 1 e 0 w 2 = 6 w w 4 l.n.J.F.H.bXDXDXI.. J % % D $ $ Z S >.7., H Z % % H D t I.DXDXAXyXB.&Xl.9.w 0 6 Q 9 2 w 6 7 6 k 9 ",
"2 j 6 < = 6 0 e 6 9 : 0 6 j 5 v l.%XN.rXZXDXDXW.s D D @ @ @ Z D , 0.R.0., D D H D r U.DXDXAXyXB.=X:X9.6 w l 9 9 ; 0 8 2 1 : ; 1 ",
"2 1 2 9 e 1 5 5 6 6 5 6 5 7 6 2 v l.%XN.rXZXDXDXH.  y J A A G s 0.eXDXqXd y y & + A.AXDXAXyXB.-X1Xs.9 5 5 9 : : 0 8 2 1 ; : = < ",
"9 3 0 9 7 7 6 5 1 2 ; 9 1 6 2 k ; c l.%XN.rXZXDXH.  a W y s 1.W.eXDXDXtX0.y y # s Y.AXDXAX5X,X2X,X%Xl.v 8 8 : 2 0 2 < : : 9 1 < ",
"5 2 j 9 0 2 0 5 5 : 2 5 : 6 2 5 v y.s.*X=XC.rXtXa.s K y >.0XrXDXDXDXDXDX0Xs f O x.eXAXDXAXtXuX7XN.l.c 2 2 2 2 < 5 2 ; ^ k h 5 6 ",
"1 2 6 0 1 0 6 e 5 5 0 e w * 5 9 u.u.k.=X;XM.G.F.. #.T t I.DXDXDXDXDXDXDX0Xs #.E 1.7.rXeXrXB.N.l.u.m 0 < 5 0 e 0 0 0 9 k 9 : 9 l ",
"< 2 2 2 2 2 1 1 g e 9 j 5 w 7 6 0 l b r.l.n.G.F.. T ;.7.eXDXDXDXDXDXDXDX0Xs :.6.E G >.F.N.l.r.m 0 l k 2 0 w 2 2 2 j 0 7 : : 9 9 ",
"< 2 = 0 5 2 2 * k 6 2 5 e 0 1 1 2 5 2 8 b l.S.7.G 6.. H.DXDXDXDXDXDXDXDXvX'.#X>X(.~.3.N.9.m 1 1 2 5 2 8 w 2 5 2 2 2 2 h 8 : 6 9 ",
"2 < - 2 9 1 0 w 6 2 5 2 9 5 5 5 1 5 7 < j f O.4 b f 4 O.j.j.j.j.j.j.j.j.j.j.j.j.O.O.m m 9 5 5 5 1 5 7 < j 2 8 5 2 6 8 z 8 2 ; 9 ",
": = ; 5 1 2 1 7 9 5 1 ; 6 ; 2 2 = : 8 8 8 8 2 2 9 = 7 5 2 * : 1 : = ; 5 1 2 1 7 9 5 1 ; 6 ; 2 2 = : 8 8 8 8 2 2 9 = 7 5 2 * : 1 ",
"6 2 2 6 5 2 2 0 5 2 2 9 0 6 k 9 1 9 / 0 ; = ; < 5 1 1 = 5 < 5 5 6 2 2 6 5 2 2 0 5 2 2 9 0 6 k 9 1 9 / 0 ; = ; : 2 1 1 = 5 ; 5 5 ",
"h 9 : 9 0 6 9 5 < ; h 0 6 l 0 : 5 j l w 2 2 8 0 6 6 6 2 6 6 5 0 h 9 : 9 0 6 9 5 1 : h 0 6 l 0 : 5 j l w 2 2 8 0 6 6 5 2 6 6 5 9 "
};
