/* XPM */
static char *xpm_[] = {
/* columns rows colors chars-per-pixel */
"64 64 234 2 ",
"   c #020202",
".  c #060608",
"X  c #070809",
"o  c #0A0B0C",
"O  c #080907",
"+  c #140B08",
"@  c #0B1A0D",
"#  c #12130C",
"$  c #1D120D",
"%  c #0C0E11",
"&  c #0E1213",
"*  c #121315",
"=  c #1C1A13",
"-  c #15161B",
";  c #16191D",
":  c #1A1B17",
">  c #24150D",
",  c #261914",
"<  c #321C12",
"1  c #210A0A",
"2  c #192619",
"3  c #1C341D",
"4  c #092712",
"5  c #28271A",
"6  c #37261C",
"7  c #27371D",
"8  c #1B1D22",
"9  c #171E20",
"0  c #271E20",
"q  c #371824",
"w  c #1E2128",
"e  c #1D2127",
"r  c #1A3321",
"t  c #22252D",
"y  c #2A2B2B",
"u  c #392A24",
"i  c #263624",
"p  c #323422",
"a  c #3E3021",
"s  c #3C3A26",
"d  c #37372C",
"f  c #262A33",
"g  c #282B35",
"h  c #2B2B39",
"j  c #342735",
"k  c #2A3638",
"l  c #3B3E39",
"z  c #4A1413",
"x  c #452418",
"c  c #7C201E",
"v  c #632719",
"b  c #4D1B2A",
"n  c #6E1F24",
"m  c #453424",
"M  c #4A3626",
"N  c #4C3926",
"B  c #4A3728",
"V  c #423C29",
"C  c #4D3A2A",
"Z  c #443826",
"A  c #543E2C",
"S  c #593E2C",
"D  c #56372A",
"F  c #582D35",
"G  c #493A32",
"H  c #543029",
"J  c #672524",
"K  c #742324",
"L  c #6C3828",
"P  c #7B2535",
"I  c #752635",
"U  c #68383A",
"Y  c #6F312E",
"T  c #3A4629",
"R  c #284136",
"E  c #344739",
"W  c #365633",
"Q  c #4E432D",
"!  c #4A492E",
"~  c #43422A",
"^  c #56412E",
"/  c #5A422E",
"(  c #56482D",
")  c #4A4733",
"_  c #534431",
"`  c #5D4431",
"'  c #5D4A34",
"]  c #544A35",
"[  c #485334",
"{  c #565337",
"}  c #6A422F",
"|  c #614633",
" . c #644935",
".. c #694D37",
"X. c #664C38",
"o. c #6B4E38",
"O. c #694E39",
"+. c #6C4F3A",
"@. c #6A4E39",
"#. c #694438",
"$. c #65523A",
"%. c #6D503A",
"&. c #6E513A",
"*. c #6F513C",
"=. c #6D513B",
"-. c #675A3C",
";. c #70523A",
":. c #71533D",
">. c #72543E",
",. c #76573F",
"<. c #72543D",
"1. c #73583F",
"2. c #744431",
"3. c #4B613B",
"4. c #1E2545",
"5. c #51324B",
"6. c #6B2848",
"7. c #7C2B42",
"8. c #742A45",
"9. c #733A4F",
"0. c #355743",
"q. c #4E4759",
"w. c #544D48",
"e. c #664642",
"r. c #6E5441",
"t. c #665A41",
"y. c #755640",
"u. c #745641",
"i. c #765841",
"p. c #765943",
"a. c #795A43",
"s. c #7B5B44",
"d. c #765B49",
"f. c #7C5D48",
"g. c #7E534F",
"h. c #735A52",
"j. c #724A56",
"k. c #7D614A",
"l. c #7A674D",
"z. c #6E674A",
"x. c #6E6260",
"c. c #883C25",
"v. c #983E23",
"b. c #872A38",
"n. c #9A2D35",
"m. c #873338",
"M. c #962C32",
"N. c #B8362B",
"B. c #A22E33",
"V. c #A73637",
"C. c #B43933",
"Z. c #AE2A2D",
"A. c #90361D",
"S. c #C93C2C",
"D. c #9F5D3B",
"F. c #A2492F",
"G. c #CE462B",
"H. c #D4462C",
"J. c #DE582D",
"K. c #C84837",
"L. c #D84E33",
"P. c #C8513B",
"I. c #DD5D3C",
"U. c #EB5630",
"Y. c #F55D31",
"T. c #E3522E",
"R. c #FA6333",
"E. c #8C3441",
"W. c #815F47",
"Q. c #805F4A",
"!. c #885847",
"~. c #945948",
"^. c #855951",
"/. c #8A4F57",
"(. c #AC4540",
"). c #A04A43",
"_. c #AD564A",
"`. c #83634C",
"'. c #896A4E",
"]. c #876651",
"[. c #876A55",
"{. c #8B6B52",
"}. c #916E52",
"|. c #93735B",
" X c #9D775C",
".X c #897154",
"XX c #A56646",
"oX c #BA6D49",
"OX c #B07456",
"+X c #8F4F69",
"@X c #A15A73",
"#X c #9B7F65",
"$X c #A07C60",
"%X c #CE5C46",
"&X c #CE6F4F",
"*X c #EC754C",
"=X c #C26567",
"-X c #BD825E",
";X c #9D8168",
":X c #A78568",
">X c #B68A6F",
",X c #CA825D",
"<X c #D7885C",
"1X c #D98D61",
"2X c #CC926B",
"3X c #DD9469",
"4X c #D8936A",
"5X c #DD9E74",
"6X c #C69878",
"7X c #E49F7C",
"8X c #D7A17A",
"9X c #E4A67B",
"0X c #5A5798",
"qX c #6F5687",
"wX c #757191",
"eX c #6D78C3",
"rX c #897887",
"tX c #7F8480",
"yX c #9F8792",
"uX c #B1A0B1",
"iX c #8F8AB2",
"pX c #CAA186",
"aX c #D9B393",
"sX c #D5A986",
"dX c #EAB58D",
"fX c #EBB68C",
"gX c #EEBC93",
"hX c #E6B996",
"jX c #F0BF96",
"kX c #E4AC84",
"lX c #F2C49C",
"zX c #F1C097",
"xX c #F4C9A1",
"cX c #E7C0A1",
/* pixels */
"f.f.N +.%.` | ` ^  .o.| / / / A %.*...`  .` +. .| / ` / | /  .o.f.f.N +.%.` | ` ^  .o.| / / / A %.*...`  .` +. .| / ` / | /  .o.",
"%.%.o. .| ` | A ^ / / | | / A | %.o.o.| m o.{.+.`. .| /  .A %...%.%.o. .| ` | A ^ / / | | / A | %.o.o.| m o.{.+.`. .| /  .A %...",
"o.| o.<.%.m | %.o.<. .B *.%.:./ / / ` o. .o.` o.o.A A A ` A o.o.o.| o.<.%.m | %.o.<. .B *.%.:./ / / ` o. .o.` o.o.A A A ` A o.o.",
"` %.;.;.`./ | o.|  .f.A ,.o. .| ;.o.+.:.u.o.o.` %.o.<.*.o.%.` o.` %.;.;.`./ | o.|  .f.A ,.o. .| ;.o.+.:.u.o.o.` %.o.<.:.o.%.` o.",
"` ..| o.A m / | | ` ^ / ` ` ` :.;.<.o. . .S X.| +.+.:.o.| | A C ` ..| o.A m / | | ` ^ / ` ` ` :.;.,.o. . .S X.| +.+.:.o.| | A C ",
"` | A `  ./ ` A | /  . .o.;.` |  .o.S i.:.| ` ^  .*. . .X. .` | ` | A `  ./ ` A | /  . .o.;.` |  .o.S i.:.| ` ^  .*. . .X. .` | ",
"%./ ` u.o.*.*. .M | +.+.o.%. .%.%.|  .X.,.| | `  .%.o.f.+.` o.a.%./ ` u.o.*.*. .M | +.+.o.%. .%.%.|  .X.,.| | `  .%.o.f.+.` o.a.",
" .` <...o.%.*.;.A <.<.s.a.:.+.`.C i.,.` A | | %.%.W.u. .o.X.r.o. .` <...o.%.*.;.A <.<.s.a.:.+.`.C i.,.` A | | %.%.W.u. .o.X.r.o.",
"| ` |.Q.| | `  .` %.X.f.*.,.u.,./ %.a.i...A %.%.`. . .| ! ` | *.| ` |.Q.| | `  .` %.X.f.*.,.u.,./ %.a.i...A %.%.`. . .| ` ` | *.",
"| ^ f.u./ ` ` ` | %.+.<.i.,.o.<.` u.u.X.k.` ..i.|.| | ` ^ ` u.| | ^ f.u./ ` ` ` | %.+.<.i.u...<.` u.<.X.k.` ..i.|.| | ` ` ` u.| ",
" .A %.| o./  ...`  .o.;.:.;.<.<.` o.a.| ` A %.o.*.| ` | + 6 o.k. .A %.| o./  ...`  .o.;.:.;.<.u.` o.a.| ` A %.o.*.| ` | C a o.k.",
"` | o.{.u.o.:.| / o.` o.+. .d.k.C ` | X.` ` o.r.] | / ` O V u.[.` | o.{.u.o.:.| / o.` o.+. .d.k.C ` | o.` ` o.i.| | / ` [.^ u.[.",
"` %.:.o./ | | ` a.o.A `  .` d.| ` ` A `. .o.^ ! V f.*.*.O ~ ` ' ` %.:.o./ | | ` a.o.A `  .` d.| ` ` A `. .o.^ ` C f.*.u.<.| ` ' ",
"u.o.` / | A C %.o.%.f.` ` ` |  .o. .o.| ` ` <.$._ i.u.` O d C ` u.o.` / | A C %.o.%.f._ _ _ Q Q '  .o.| ` ` <.a.| d.u.' ` | C ` ",
"<.X.` /  .u.`  .u.*.u.u.` C <.u.u.:.u. .C u.%.' ^ ^ ` ` O g r ' <.X.` ^  .u.`  .u.%.t.E R R r 3 ) :.u. .C u.%.X. .*. .` | A m %.",
"| S A / +.<.|  .*.o.|  .` o.{.|.].].:.*.A <.a.` / = k ` O f k Q 5 5 = V $.<.| | _ y g h % o O.|.].].:.*.A <.a.` | | | | o. .` | ",
"| A ,.A o.| o.X.*.o...S A ..i.u. .X.X.+.A o.+.` ` 5 X k   . t &       + ` ` ! # 8 %       A i.u. .X.X.+.A o.+.` ` ` %.o.| ` :.` ",
"/ ` | / o.| f.` o.%.| ` ` %.u.` A ` o.` C ^ ` / A s   O g X t o         O # o 8 %       M %.u.` A ` o.` C ^ ` / / +.+.| ` `  .m ",
"i.o.| A a. ./ M | *.` ` / *.<.o.` ` o.A A +.%. . .| @   . t f o     X 9 t - - &         O o # M ` ` o.A A +.%. . .+.` A A | / ` ",
"<.*.| ` C | A A A  .` ^  .` :.` ` A A / o.%.%.*. .'.2     X o       o w h t *     O w f f f f ; : p A / o.%.%.*. .}.| %.o.%.` | ",
"/ r.*.` a / ,.%.<.` C  .:.<.C C ` | %.<.:.%.' p.| u tXo       O O   X 9 g t %   - e f g g g g t e : 5 ~ :.%. .Q.o.` :. .o. .f.o.",
"` d. .^ N  .%.,. .o.A %. .i.|  .%.%.%. .<.f.X.X.p o l O     X - ; o O X % o O   o % % % % % % % % - 9 2 T f.o.+.A %.o.` / A A / ",
"` / ` o.i./ | |  . .|  .| .. .` | o.o.| | +.A A ' 7       X - * * - o           O     X X     O 6 C Q s T %.A A %.X.| / A A C ^ ",
"o.' %.o.o.o. .| / ` A +./  .` s.A o.o.` X.X.A ` %.` #     8 * O . - %           & %   * - % o *.C o.o.` X.X.A ` %.` ^ A A o./ ^ ",
"| ` i.o.%.` %.| | A ` | A  .` | | |  .` ` ` _ ( ' ( i 5   w X     X X . o X     o - % & & - 5 ` | '  .` ` ` _ ^ | ` A {.a.u.|  .",
"/ ` | %./ %. .,.| | %.,.;.M | o.u.a.*.^ | *.1.*.$.3..X#Xu * O   $ > + % ; ; o     % 8 .   o ; ' u.a.*.^ | *.1.*.%.%.o.a.o.A o.f.",
"^ ` ` ` ` ` / / r.,.o.d.| <.o. .*.f.a.` *.<.` ` d.$X8XlX:X$   > L 2.< o - 8 *       t o     o : X.f.a.` *.<.` ` ` d.%.o.A A o.o.",
"^ ` C %.| ` ` M s. .` | ,.*./ / ` | ` X.<.` | ] 6X9X9XlXxXa $ 2.oXD.6   X ; * O     t 2 @ @ O X = ` ` X.<.` | ` ` ` ` u.X.A  .o.",
"` ^ m ` o./ *.<. .` | ` o.| | | / | ..^ i.` X.l.4X9X9XjXxXXXU XXoX} $   X ; - & o   t W { { s = O 2 | ^ i.` X.| `  .X.d.X.` A o.",
"A C A | / ` / o.o.| / A  .A ` ` C A X.X.X.X.`  X4XdXfX3XlXfXOXXXXXh.t   o 8 - & 9 X t A  .A ` ` p @ ~ X.X.X.` ` o.B ..| ` M A / ",
" .` `  .| ` ` *.| ` ` +.%. .a.+./ o.|.*.A C Q #.~.,X1X&XzXlX1XoX~.e.0 X u | Z [ 3   = o.%. .a.+./ X.l.*.A C A A ` / / C | A | | ",
"u.o.A o.*. .o.| ^ A u.%. .f.*.A | i.f.;.` ` *.g.g.6X~.kX3XjXfX1XoX2.G d.-XXX| ` A 4 -.%. .f.*.A | i.f.;.' ` X.%. . .| `  . .| +.",
"f.f.N +.%.` | ` ^  .o.| / / / A %.*...`  .` {.OX^.pX^.hX<X1XgXgXdX>Xu.!.5XOX| ` A 4 o.| / / / A %.*...`  .` +. .| / ` / | /  .o.",
"%.%.o. .| ` | A ^ / / | | / A | %.o.o.| m o.z.>X,X&X6 aXdXfX3X3XkX8X2X-X~.^ ` A ^ C / | | / A | %.o.o.| m o.{.+.`. .| /  .A %...",
"o.| o.<.%.m | %.o.<. .B *.%.:./ / / ` o. .o.` :X1X&X> *X*X%X7XgXjXgXgXsX^.a ' %.o.<. .B *.%.:./ / / ` o. .o.` o.o.A A A ` A o.o.",
"` %.;.;.`./ | o.|  .f.A ,.o. .| ;.o.+.:.u.o.o.s.9X8X, x.K.N.*X*X&X&X&X~.#.Q ` X.|  .f.A ,.o. .| ;.o.+.:.u.o.o.` %.o.<.*.o.%.` o.",
"` ..| o.A m / | | ` ^ / ` ` ` :.;.<.o. . .S X.{ pXaX0 4.9.9.+X+Xj.9.Y F 5.l ! ` | ` ^ / ` ` ` :.;.<.o. . .S X.| +.+.:.o.| | A C ",
"` | A `  ./ ` A | /  . .o.;.` |  .o.S i.:.| ` E wXiX5.. ).qX0X0XqX/.m.F q.x.[ A | /  . .o.;.` |  .o.S i.:.| ` ^  .*. . ... .` | ",
"%./ ` u.o.*.*. .M | +.+.o.%. .%.%.|  .X.<.| | R 0XeXyX* J.=X@X@X+X_.G.c.h.>Xt.' M | +.+.o.%. .%.%.|  .X.,.| | `  .%.o.f.+.` o.a.",
" .` <...o.%.*.;.A <.<.s.a.:.+.`.C i.,.` A | | ) rXuXcX= J.R.G.L.(.P.T.F.!.;Xt.%.A <.<.s.a.:.+.`.C i.,.` A | | %.%.W.u. .o.X.u.o.",
"| ` |.Q.| | `  .` %.X.f.*.,.u.,./ %.a.i...A o.-.2XlXlX, J.Y.S.L.F.P.Y.N.Y t.] ' ` %.X.f.*.,.u.,./ %.a.i...A %.%.`. . .| ` ` | *.",
"| ^ f.u./ ` ` ` | %.+.<.i.,.o.<.` u.u.X.k.` ' OX3XgXaX6 J.L.N.K.(.P.R.P.L m d ` | %.+.<.i.,.o.<.` u.u.X.k.` ..i.|.| | ` ` ` u.| ",
" .A %.| o./  ...` ..o.;.:.;.<.<.` o.a.| ` A _ :X8XsX}.c.H.Z.b.m.E.P.*X&XF.x 7 ..` ..o.;.:.;.<.<.` o.a.| ` A %.o.*.| ` | C a o.k.",
"` | o.{.u.o.:.| / +.` o.+. .d.k.C ` | o.` ` d e.d.s.c.H.H.v u q P K.I.%XP.v.( | / +.` o.+. .d.k.C ` | o.` ` o.i.| | / ` [.^ u.[.",
"` %.:.o./ | | ` a.o.A `  .` d.| | ` A `.| S I K A.v.G.T.L ' T 2 J C.H.S.B.m.A ` a.o.A `  .` d.| ` ` A `. .o.^ ` C f.*.u.<.| ` ' ",
"u.o.` / | A C %.o.%.f.` ` ` |  .o. .o.| S I 7.V.U.R.U.R.< ` s H I E.C.C.b.I m %.o.%.f.` ` ` |  .o. .o.| ` ` <.a.X.d.u.` ` | C ` ",
"<.X.` /  .u.`  .u.*.u.u.` C <.u.u.:.u.` J 7.8.B.S.G.V.v ! A > K b.6.7.7.7.b.S  .u.*.u.u.` C <.u.u.:.u. .C u.%.X. .*. .` | A m %.",
"| S A / +.<.|  .*.o.|  .` o.{.|.].].*.` n 7.8.B.N.M.B.1 ` | , c n.7.6.8.I #.|  .*.o.|  .` o.{.|.].].:.*.A <.a.` | | | | o. .` | ",
"| A ,.A o.| o.X.*.o...S A ..i.u. .X.X.~ c n.7.7.b.n.Z.+ ` ` ' x F m.n.M.} | o.X.*.o...S A ..i.u. .X.X.+.A o.+.` ` ` %.o.| ` :.` ",
"/ ` | / o.| f.` o.%.| ` ` %.u.` A ` ] j P Z.B.n.M.z z M ` `  ., h 5.I H o.| f.` o.%.| ` ` %.u.` A ` o.` C ^ ` / / +.+.| ` `  .m ",
"i.o.| A a. ./ M | *.` ` / *.<.o.` ` ~ j 6.8.6.b z D M A A  ./ B j h j Z a. ./ M | *.` ` / *.<.o.` ` o.A A +.%. . .+.` A A | / ` ",
"<.*.| ` C | A A A  .` ^  .` :.` ` A p b 5.j t d C }.| %.o.%.` | a 5 7 T B | A A A  .` ^  .` :.` ` A A / o.%.%.*. .}.| %.o.%.` | ",
"/ r.*.` a / ,.%.<.` C  .:.<.C C ` ] w.e.G i N k.o.` :. .o. .f.o.6 6 m 6 6 / ,.%.<.` C  .:.<.C C ` | %.<.:.%. .Q.o.` :. .o. .f.o.",
"` d. .^ N  .%.,. .o.A %. .i.|  .%.G j.x.W t.o.+.A %.o.` / A A / u h 5.b u ` $.,. .o.A %. .i.|  .%.%.%. .<.f.o.+.A %.o.` / A A / ",
"` / ` o.i./ | |  . .|  .| .. .` ' S j.q.) +.A A %.X.| / A A C ^ V l w.9.U C [ |  . .|  .| .. .` | o.o.| | +.A A %.X.| / A A C ^ ",
"o.' %.o.o.o. .| / ` A +./  .` s.C e.x.0.'  .A ` %.` ^ A A o./ ^ X.' %.o.o.o. .| / ` A +./  .` s.A o.o.` X.X.A ` %.` ^ A A o./ ^ ",
"| ` i.o.%.` %.| | A ` | A  .` | | | | ` ` ` ` ^ | ` A {.a.u.|  .| ` i.o.%.` %.| | A ` | A  .` | | |  .` ` ` ` ^ | ` A {.a.u.|  .",
"/ `  .%./ %. .,.| | %.,.;.M | o.<.a.*.^ | *.1.*.%.%.o.a.o.A o.f.^ ` | o./ %. .,.| | %.,.;.M | o.u.a.*.^ | *.1.*.%.%.o.a.o.A o.f.",
"^ ` ` ` ` ` / / r.,.o.d.| <.o. .*.f.a.` *.<.` ` ` d.%.o.A A o.+.^ ` ` ` ` ` / / r.,.o.d.| <.o. .*.f.a.` *.<.` ` ` d.%.o.A A o.+.",
"^ ` C %.| ` ` M s. .` | ,.*./ / ` | ` X.<.` | ` ` ` ` u.X.A  .o.^ ` C %.| ` ` M s. .` | ,.*./ / ` | ` X.<.` | ` ` ` ` u.X.A  .o.",
"` ^ m ` o./ *.<. .` | ` o.| | | / | ..^ i.` X.| `  .X.d.X.` A o.` ^ m ` o./ *.<. .` | ` o.| | | / | ..^ i.` X.| `  .X.d.X.` A o.",
"A C A | / ` / o.o.| / A  .A ` ` C A X.X.X.X.` ` o.B ..| ` M A / A C A | / ` / o.o.| / A  .A ` ` C A X.X.X.X.` ` o.B ..| ` M A / ",
" .` `  .| ` ` *.| ` ` +.%. .a.+./ o.|.*.A C A A ` / / C | A | |  .` `  .| ` ` *.| ` ` +.%. .a.+./ o.|.*.A C A A ` / / C | A | | ",
"u.o.A o.*. .o.| ^ A u.%. .f.*.A | i.f.;.' ` X.%. . .| `  . .| +.u.o.A o.*. .o.| ^ A u.%. .f.*.A | i.f.;.' ` X.%. . .| `  . .| +."
};
