/* XPM */
static char *xpm_[] = {
/* columns rows colors chars-per-pixel */
"64 64 245 2 ",
"   c #1D1E34",
".  c #201E34",
"X  c #1E2335",
"o  c #1C2835",
"O  c #3F3021",
"+  c #232135",
"@  c #22253A",
"#  c #24293D",
"$  c #2B2E37",
"%  c #2A3939",
"&  c #393939",
"*  c #3B2839",
"=  c #7D0F1F",
"-  c #55172B",
";  c #7A0A22",
":  c #6A1B25",
">  c #7A1525",
",  c #671A33",
"<  c #6E0623",
"1  c #47292E",
"2  c #562B2B",
"3  c #463424",
"4  c #4A3726",
"5  c #4C3926",
"6  c #4E3A2A",
"7  c #48392B",
"8  c #543E2C",
"9  c #583F2C",
"0  c #5D362A",
"q  c #592736",
"w  c #493933",
"e  c #543835",
"r  c #452C31",
"t  c #633B33",
"y  c #742D2B",
"u  c #2C4839",
"i  c #3C4433",
"p  c #3A4E3B",
"a  c #344638",
"s  c #3A543B",
"d  c #324A36",
"f  c #4D412F",
"g  c #56412E",
"h  c #5A422E",
"j  c #434333",
"k  c #4A4333",
"l  c #4B4C3A",
"z  c #474938",
"x  c #544533",
"c  c #5D4431",
"v  c #544A34",
"b  c #5C4A35",
"n  c #544B3A",
"m  c #5B4C3A",
"M  c #56463A",
"N  c #49573C",
"B  c #55533B",
"V  c #5C523B",
"C  c #58563B",
"Z  c #614633",
"A  c #644935",
"S  c #694D37",
"D  c #664C38",
"F  c #6A4E39",
"G  c #6A4536",
"H  c #64523C",
"J  c #6D513B",
"K  c #685A3C",
"L  c #72543E",
"P  c #75563F",
"I  c #72543D",
"U  c #74583F",
"Y  c #7C5535",
"T  c #7B4A3D",
"R  c #5D6636",
"E  c #272C40",
"W  c #292D42",
"Q  c #2B3245",
"!  c #2E3649",
"~  c #2E3B47",
"^  c #313449",
"/  c #323B4C",
"(  c #383846",
")  c #353E51",
"_  c #3A3B54",
"`  c #342247",
"'  c #353B64",
"]  c #521C49",
"[  c #4A3745",
"{  c #5B3748",
"}  c #423B54",
"|  c #4E2A4E",
" . c #663946",
".. c #723A50",
"X. c #563762",
"o. c #6D3D60",
"O. c #32434B",
"+. c #3A4B4D",
"@. c #364846",
"#. c #385346",
"$. c #364252",
"%. c #3A4354",
"&. c #3C4857",
"*. c #3B5658",
"=. c #2A4845",
"-. c #434C43",
";. c #464847",
":. c #584948",
">. c #4A5748",
",. c #585545",
"<. c #414B5D",
"1. c #464857",
"2. c #594756",
"3. c #475558",
"4. c #5B5757",
"5. c #644746",
"6. c #77464C",
"7. c #645442",
"8. c #6D5541",
"9. c #695A44",
"0. c #755640",
"q. c #745641",
"w. c #765942",
"e. c #7B5B44",
"r. c #7D5D48",
"t. c #785949",
"y. c #674C57",
"u. c #774B53",
"i. c #6A5A5B",
"p. c #755758",
"a. c #55634C",
"s. c #7D614A",
"d. c #726749",
"f. c #686458",
"g. c #796756",
"h. c #726A4E",
"j. c #435363",
"k. c #495363",
"l. c #4D5A69",
"z. c #495966",
"x. c #555968",
"c. c #534E6B",
"v. c #655B6B",
"b. c #72526A",
"n. c #55646A",
"m. c #556372",
"M. c #5D6B7A",
"N. c #5B6775",
"B. c #546A71",
"V. c #7A6765",
"C. c #676978",
"Z. c #6E6F70",
"A. c #820C1F",
"S. c #92161F",
"D. c #861623",
"F. c #81162A",
"G. c #982528",
"H. c #8C3630",
"J. c #B03527",
"K. c #AB2117",
"L. c #C92F17",
"P. c #864B37",
"I. c #84553A",
"U. c #965237",
"Y. c #B04B33",
"T. c #85693D",
"R. c #CA5634",
"E. c #CD4A2A",
"W. c #E05C30",
"Q. c #D46738",
"!. c #EA733D",
"~. c #F3793E",
"^. c #E66835",
"/. c #874949",
"(. c #954A49",
"). c #805F4A",
"_. c #855C46",
"`. c #885857",
"'. c #925750",
"]. c #8D5051",
"[. c #A35854",
"{. c #B25949",
"}. c #83634C",
"|. c #876651",
" X c #856A54",
".X c #8B6B53",
"XX c #876A5E",
"oX c #936A55",
"OX c #81735F",
"+X c #93735B",
"@X c #A76757",
"#X c #B86950",
"$X c #825669",
"%X c #955F68",
"&X c #846967",
"*X c #9B6A67",
"=X c #9A7369",
"-X c #8A7475",
";X c #977578",
":X c #877469",
">X c #B16E67",
",X c #AC796A",
"<X c #B6776B",
"1X c #A27A78",
"2X c #AF786F",
"3X c #C05541",
"4X c #CD6F4C",
"5X c #E37845",
"6X c #F17942",
"7X c #C97B68",
"8X c #908872",
"9X c #B98779",
"0X c #A99A7A",
"qX c #AA8479",
"wX c #F58848",
"eX c #FB904D",
"rX c #FD9552",
"tX c #F8965E",
"yX c #EA8750",
"uX c #C48878",
"iX c #D58B75",
"pX c #DA927B",
"aX c #C58977",
"sX c #EE9A6E",
"dX c #F9A26E",
"fX c #475894",
"gX c #667583",
"hX c #707E8C",
"jX c #847D87",
"kX c #A47C82",
"lX c #728690",
"zX c #90878E",
"xX c #B89786",
"cX c #B1948C",
"vX c #8D97A6",
"bX c #8DA0AB",
"nX c #C89985",
"mX c #D79A84",
"MX c #C58E84",
"NX c #E19D83",
"BX c #DAA68C",
"VX c #C8A390",
"CX c #E6A789",
"ZX c #E8B497",
"AX c #E9B092",
/* pixels */
"r.r.5 F J c Z h g A F Z h h h 8 J J S c A c F A Z h c h Z h A S r.r.5 F J c Z c g A F Z h h h 8 J J S c A c F A Z h c h Z h A S ",
"J J F A Z h Z 8 g h h Z Z h 8 Z J F F Z 3 S .XF }.A Z h A 9 J S J J F A Z c Z 9 g h h Z Z h 8 Z J F F Z 3 S .XF }.A Z h A 9 J S ",
"S Z S I J 3 Z J S I A 4 J J I h h h c S A F c F S 8 9 9 c 8 F S S Z S I J 3 Z J S I A 4 J J I h h h c S A F c F S 8 9 9 c 8 F S ",
"c J I I }.h Z F Z A r.8 P S A Z I S F I q.F F c J F I J F J c F h J J I }.h Z S Z A r.8 P S A Z I S F I q.F F c J F I I F J c F ",
"c S Z F 9 3 h Z Z c g h c c c I I I F A A 9 D Z F F I S Z Z 8 6 c S Z F 9 3 h Z Z c g h c c c I I I F A A 9 D Z F F I S Z Z 8 6 ",
"c Z 9 c A h c 8 Z h A A F I c Z A S 9 w.I Z c g A J A A D A x j % Z 9 c A h c 8 Z h A A F I c Z A S 9 w.I Z c g A J A A D A c Z ",
"J h c q.F J J A 4 Z F F S J A J J Z A D P Z Z c A J S r.F c D l a h c q.F J J A 4 Z F F S J A J J Z A D P Z Z c A J S r.F c F e.",
"A c I S F J J I 9 I I e.e.I F }.6 w.P c 9 Z Z J J ).q.A F D 8.k ~ -.8.D F J J I 9 I I e.e.I F }.6 w.P c 9 Z Z J J ).q.A F D 8.F ",
"Z c +X).Z Z c A c J D r.J P q.P h J e.w.S 8 J J }.S A Z c c c :.%.n.f.9.c Z c A c J D r.J P q.P h J e.w.S 8 J J }.A A Z c c Z J ",
"Z g r.q.h c c c Z J F I w.P S I c q.q.D s.c S w.+XZ Z c c c 8.:.l.lX3.>.x c c v n 7.7.7.7.7.M m k 9.K A s.c S w.+XZ Z c c c q.Z ",
"A 8 J Z F h A S c A F I I I I I c F e.Z c 8 J J J b c Z 6 O D i.N.vXl.+.-.x b >.#.3.3.3.1.( & a s N a.Z c 8 J F J Z c Z 6 O S s.",
"c Z F .Xq.F I Z h F c F F A t.s.6 c Z D c c F w.m B v c  Xg 8.f.M.bXk.O.+.-.#.#.*.j.&./ # $ z ,.i v B F c c F w.Z Z h c  Xg q. X",
"c J I F h Z Z c e.F 8 c A c t.Z c c 8 }.A J g b i >.C q.I Z c :.M.bX<./ ) +.=.*.z.j./ # o $ ,.b c c g }.A F g c 6 e.J q.I Z c b ",
"q.F c h Z 9 6 J S J r.c c c Z A F A F Z c c I d.l p l v c Z 8 :.M.bX<.! ) <.j.m.M.m.k.~ $ & x b D A F Z c c I e.Z t.q.b c Z 6 c ",
"I D c h A q.c A q.J q.q.c 6 I q.q.I 8.m 7 9.J V z % u z b 8 7 4.M.vX<./ &.m.M.gXhXhXC.3.i 7 7.,.B I I A 6 q.J D A J A c Z 8 3 J ",
"Z 9 8 h F I Z A J F Z A c S .X+X|.|.C N d >.,.>.>.O.Q a N m n 4.m.lX&.%.l.gXN.x.C.gXn.:.x H g.a.>.|.I J 9 I e.c Z Z Z Z F A c Z ",
"Z 9 P 8 F Z F D J S S 9 8 S w.q.A D B s u =.@.n.M.l./ % #.-.>.1.l.M.$.k.C.gX&.) k.k.) & f 7.f.3.p D D F 9 F F c c c J F Z c I c ",
"h c Z h S Z r.c F J Z c c J q.c 9 c D z d % $ z.gXgXl.$.O.+./ ! $.j.! l.N.j.W ! &.<.%.+.>.f.N.*.d c F c 6 g c h h F F Z c c A 3 ",
"w.S Z 8 e.A h 4 Z J c c h J I F c c S 6 k M & ( &.l.M.l.$.$.W + @ # + / $.W X ! ) %.k.N.N.x.3.#.p c S 8 9 F J A A F c 9 8 Z h c ",
"I J Z c 5 Z 8 9 8 A c g A c I c c 8 8 k l m m & Q ) j.<./ Q @         W W X   / / Q ^ _ %.%.%.-.x 8 8 h F J J J A oXZ J F J c Z ",
"h 8.J c O h P J I c 6 A I I 6 6 c Z J M ( ;.m i.1.^ ! Q # # # # @   # W # X # $.$.W + + E / @.j c Z J I I J A ).F c I A S A e.F ",
"c t.A g 5 A J P A F 9 J A w.Z A J J J e & @.-.4.x.%.W @ X @ Q ! W + Q / Q W Q $.$.! W W Q ~ =.l J J J A I r.F F 8 J F c h 9 8 h ",
"c h c F w.h Z Z A A Z A Z S A c Z F F Z k % o Q %.%.! # # ! Q @ @ ! ! Q ! / E + + W ! / Q   + r Z J J Z Z F 9 9 J D Z h 8 9 6 g ",
"F b J F F S A Z h c 8 F h A c e.8 F F c D n % # @ @ + # ! ) ! <.gXM.M.%.# W / <._ W W ! Q     $ % N N c D D 9 c J c g 9 9 F h g ",
"Z c w.F J c J Z Z 9 c Z 9 A c Z Z Z A c c c j $ +     # / $.^ x.zXC.C.x.) W $.m.m.&.Q O.+.& & i z B B c c c c g Z c 8 .Xe.q.Z A ",
"h c Z J h J A P Z Z J P I 4 Z F q.e.J g b B n & +     @ ^ / / x.jXy.v.v.l.%.} k.l.3.O.O.>.j v V 9.w.K g Z J U J J J F e.F 9 F r.",
"g c c c c c h h 8.P F t.Z I S A J r.e.c H z % $ o   . * [ ( _ c.v.{  .y.v.x.[ ( +.3.+.=.p K S Z J r.e.c J I c c c t.J S 9 9 F F ",
"g c 6 J Z c c 4 e.A c Z P J h h c Z c D J x x a % o + e /.5.:.2.} * q { y.2.{ ( -.z a u s J h h c Z c D I c Z c c c c q.D 9 A F ",
"c g 3 c F h J I A c Z c F Z Z Z h Z S g w.c l u % o +  .[././.6.2.[ [  ./.u.{ :.n x k u p b Z Z h Z S g w.c D Z c A D t.D c 8 F ",
"9 6 8 Z h c h S F Z h 8 A 8 c c 6 9 D D D H a.Z.Z.i.y.u.'./.(.].].y.v.i.u.6.5.7.H Z x i l 9 c c 6 9 D D D D c c F 5 S Z c 4 9 h ",
"A c c A Z c c J Z c c F J A e.F h F +XJ f l V.cXVXVX9X=X`.].(.[.[.*XzX-Xp.u.XXOXd.D c D H Z e.F h F +XJ 8 6 8 9 c h h 6 Z 8 Z Z ",
"q.F 9 F J A F Z g 8 q.J A r.J 9 Z w.r.J v l :XnXCXZXZXnX<X<X>X@X>XuXxXcX=X*XxX0Xg.m q.J A r.J 9 Z w.r.I b c D J A A Z c A A Z F ",
"r.r.5 F J c Z c g A F Z h h h 8 J I S b n w &XMXmXCXAXCXiXpXiXuX<X9X9X9XqX9XBX0Xh.J F Z h h h 8 J J S c A c F A Z h c h Z h A S ",
"J J F A Z c Z 9 g h h Z Z h 8 Z J F F H :.u.1XxX9X9XBXCXiXpXCXCXnX<X2X<X<XaX9X Xb c g b Z h 8 Z J F F Z 3 S .XF }.A Z h A 9 J S ",
"S Z S I J 3 Z J S I A 4 J J I h h h x g.=X<XMX1XV.V.xXZXAXpXNXAXZXAXmXiX7X>Xu.5.M 7.,.n 9.H J h h h c S A F c F S 8 9 9 c 8 F S ",
"c J I I }.h Z F Z A r.8 P S A Z I S l OXVXBXnX-X2.2.V.xXZXCXpXpXBXZXBXiX7X=X2.} ( ;.f.g.g.C b Z I S F I q.F F c J F I J F J c F ",
"c S Z F 9 3 h Z Z c g h c c c I I I n g.xXVXcXzXZ.v.4.=XCXsX7X>X;XcXkX>X@X&XX.} 1.i.&X=XXX,.b I I I F A A 9 D Z F F I S Z Z 8 6 ",
"c Z 9 c A h c 8 Z h A A F I c Z A S 9 g.:XzXvXvXzX-Xp.`.,X<X{.(.$X$X$X].].i.c.c.V.1X2X9X,Xg.D A A S 9 w.I Z c g A J A A S A c Z ",
"J h c q.F J J A 4 Z F F S J A J J Z D V ,.&.zXzX*X>X<X`._ X...(.*X*X(.].&XZ.C.v.;XaXBXBXxXOX8.J J Z A D P Z Z c A J S r.F c F e.",
"A c I S F J J I 9 I I e.e.I F }.6 w.P c k #.8XxXBXCXmXoXq y o.fXfXfX' _ x.jXg.:X-XqXnX8Xh.q.J }.6 w.P c 9 Z Z J J ).q.A F D q.F ",
"Z c +X).Z Z c A c J D r.J P q.P h J e.w.A z f.0XBXmX9X@XY.Y.{.%X$X$X .6./.`.i.i.V.;X-Xg.8.I q.P h J e.w.S 8 J J }.A A Z c c Z J ",
"Z g r.q.h c c c Z J F I w.P S I c q.q.D s.c 7.g.=X@X@X#X!.!.5X4XY.3XH.{.4X#X@Xt.p.V.f.9.w.P S I c q.q.D s.c S w.+XZ Z c c c q.Z ",
"A 8 J Z F h A S c A F I I I I I c F e.Z c 8 J m :.T Y.5XeXeXwXW.L.E.G.R.wXwX5X{.'.}.9.H I I I I c F e.Z c 8 J F J Z c Z 6 O S s.",
"c Z F .Xq.F I Z h F c F F A t.s.6 c Z F c c F ,.m I.4XyXrXeX!.E.K.G.> Y.!.eXeXyXyX#XP.Z J A t.s.6 c Z F c c F w.Z Z h c  Xg q. X",
"c J I F h Z Z Z e.F 8 c A c t.Z c c 8 }.A F g k w P.7XsXrXwXR.H.: - - Y.^.~.eXrXrX4XP.9 A c t.Z c c 8 }.A F g c 6 e.J q.I Z c b ",
"q.F c h Z 9 6 J S J r.c c c Z A F A F Z b z M e q /.7XdXrXyXU.t t e r H.R.^.~.wXwX4XI.c c c Z A F A F Z c c I e.D t.q.c c Z 6 c ",
"I D c h A q.c A q.J q.q.c 6 I q.q.I q.Z 7 j 2 - : H.4XtXwX!.U.G J m 0 y J.E.R.R.Y.U.P 8.c 6 I q.q.I q.A 6 q.J D A J A c Z 8 3 J ",
"Z 9 8 h F I Z A J F Z A c S .X+X|.|.I H j r : ; ; G.R.6X~.Q.P.Z b k y > D.G.G.G.y A b Z c S .X+X|.|.I J 9 I e.c Z Z Z Z F A c Z ",
"Z 9 P 8 F Z F D J S S 9 8 S w.q.A D D H w 2 = A.; S.J.W.W.R.P.9 c z y > D.; ; > 2 k b 9 8 S w.q.A D D F 9 F F c c c J F Z c I c ",
"h c Z h S Z r.c F J Z c c J q.c 9 c F w * q D.A.< ; D.H.I.Y G 4 h v w q > D.D.: w l n c c J q.c 9 c F c 6 g c h h F F Z c c A 3 ",
"w.S Z 8 e.A h 4 Z J c c h J I F c c S * ` ] > A.; < - 1 d p k c P S d ^ ] F.F.2 j B v c h J I F c c S 8 9 F J A A F c 9 8 Z h c ",
"I J Z c 6 Z 8 9 8 A c g A c I c c 8 6 [ | ] , > > > - e b H c Z J J u / | ] w j j m c g A c I c c 8 8 h F J J J A oXZ J F J c Z ",
"h 8.J c O h P J I c 6 A I I 6 6 c b B 2.y.X.] , : 2 e v S A e.F c 8.#.>.:.[ M V K c 6 A I I 6 6 c Z J I I J A ).F c I A S A e.F ",
"c t.A g 5 A J P A F 9 J A w.Z A J H K d.p.1.[ e 2 Z v v h 9 8 h c 9.*.x.p.5.V K A F 9 J A w.Z A J J J A I r.F F 8 J D c h 9 8 h ",
"c h c F w.h c Z A A Z A Z S A c Z B _.T.R N k 9 J D c h 8 9 6 g x v j.m.b.6.,.B Z A Z A Z S A c Z F F Z Z F 9 9 J D c h 8 9 6 g ",
"F b J F F S A c h c 8 F h A c e.8 e u.2.@.n 8 c J c g 9 9 F h g F b J F F S V b h c 8 F h A c e.8 F F c D D 9 c J c g 9 9 F h g ",
"Z c w.F J c J Z Z 9 c Z 9 A c Z Z B D b x c c g Z c 8 .Xe.q.Z A Z c w.F J c J Z Z 9 c Z 9 A c Z Z Z A c c c c g Z c 8 .Xe.q.Z A ",
"h c A J h J A P Z Z J P I 4 Z F q.9.K g Z J U J J J F e.F 9 F r.h c Z J h J A P Z Z J P I 4 Z F q.e.J g Z J U J J J F e.F 9 F r.",
"g c c c c c h h 8.P F t.Z I S A J d.w.c J I c c c t.J S 9 9 F F g c c c c c h h 8.P F t.Z I S A J r.e.c J I c c c t.J S 9 9 F F ",
"g c 6 J Z c c 4 e.A c Z P J h h c Z c D I c Z c c c c q.D 9 A F g c 6 J Z c c 4 e.A c Z P J h h c Z c D I c Z c c c c q.D 9 A F ",
"c g 3 c F h J I A c Z c F Z Z Z h Z S g w.c D Z c A D t.D c 8 F c g 3 c F h J I A c Z c F Z Z Z h Z S g w.c D Z c A D t.D c 8 F ",
"9 6 8 Z h c h S F Z h 8 A 8 c c 6 g D D D D c c F 5 S Z c 4 9 h 9 6 8 Z h c h S F Z h 8 A 8 c c 6 9 D D D D c c F 5 S Z c 4 9 h ",
"A c c A Z c c J Z c c F J A e.F h F +XJ 8 6 8 9 c h h 6 Z 8 Z Z A c c A Z c c J Z c c F J A e.F h F +XJ 8 6 8 9 c h h 6 Z 8 Z Z ",
"q.F 9 F J A F Z g 8 q.J A r.J 9 Z w.r.I b c D J A A Z c A A Z F q.F 9 F J A F Z g 8 q.J A r.J 9 Z w.r.I b c D J A A Z c A A Z F "
};
