/* XPM */
static char *xpm_[] = {
/* columns rows colors chars-per-pixel */
"64 64 246 2 ",
"   c #1C1D35",
".  c #281D34",
"X  c #311E30",
"o  c #1F283F",
"O  c #3F3021",
"+  c #292537",
"@  c #39263B",
"#  c #4A1629",
"$  c #690024",
"%  c #740825",
"&  c #6B1723",
"*  c #4A3726",
"=  c #4E3A2A",
"-  c #483525",
";  c #543E2C",
":  c #583F2C",
">  c #4F2932",
",  c #682D2E",
"<  c #7B121F",
"1  c #56402E",
"2  c #5A422E",
"3  c #5D4431",
"4  c #5E4936",
"5  c #474438",
"6  c #614633",
"7  c #644935",
"8  c #694D37",
"9  c #664C38",
"0  c #6A4E39",
"q  c #6D513B",
"w  c #67503C",
"e  c #72543D",
"r  c #73583F",
"t  c #764D3F",
"y  c #2A195D",
"u  c #202B45",
"i  c #263C53",
"p  c #303B4E",
"a  c #211962",
"s  c #2E2B55",
"d  c #4E1E49",
"f  c #583247",
"g  c #6D3646",
"h  c #32485C",
"j  c #294E64",
"k  c #31566D",
"l  c #524C46",
"z  c #565153",
"x  c #6A5644",
"c  c #745641",
"v  c #765942",
"b  c #7A5B44",
"n  c #7D5D48",
"m  c #765B49",
"M  c #714F5C",
"N  c #6B6357",
"B  c #786251",
"V  c #4F6571",
"C  c #586D78",
"Z  c #5D6970",
"A  c #686867",
"S  c #69727D",
"D  c #6F7075",
"F  c #5A5D5F",
"G  c #91151B",
"H  c #A81A16",
"J  c #B31E13",
"K  c #B42613",
"L  c #8A2A31",
"P  c #9B1C29",
"I  c #D13112",
"U  c #D92B29",
"Y  c #A04737",
"T  c #DA441E",
"R  c #D45431",
"E  c #E55729",
"W  c #ED6D37",
"Q  c #D9673A",
"!  c #823145",
"~  c #D72749",
"^  c #805F49",
"/  c #924F51",
"(  c #A85A54",
")  c #83634C",
"_  c #8A6B53",
"`  c #93735B",
"'  c #946A55",
"]  c #926F6C",
"[  c #AC776D",
"{  c #AA685B",
"}  c #C4695A",
"|  c #D87755",
" . c #E77E4E",
".. c #CB7665",
"X. c #EECE27",
"o. c #FF9751",
"O. c #F3884D",
"+. c #DC947C",
"@. c #D68973",
"#. c #E99067",
"$. c #FCAC77",
"%. c #D58955",
"&. c #BA9D51",
"*. c #326E83",
"=. c #367B8F",
"-. c #3867AE",
";. c #325992",
":. c #697786",
">. c #71798A",
",. c #6F7A95",
"<. c #707DA3",
"1. c #5A6C8D",
"2. c #3E7AC4",
"3. c #847F81",
"4. c #3C9AAF",
"5. c #398499",
"6. c #538F92",
"7. c #788A93",
"8. c #718993",
"9. c #7682A9",
"0. c #7884B7",
"q. c #7196A9",
"w. c #5CA4AC",
"e. c #7D89C8",
"r. c #7A97DC",
"t. c #7C8FD3",
"y. c #47B3C6",
"u. c #56B4C5",
"i. c #6FB1CE",
"p. c #7B9CE7",
"a. c #7F96E7",
"s. c #6EADE9",
"d. c #75A4E8",
"f. c #72AAE8",
"g. c #74A4E3",
"h. c #6AB2E9",
"j. c #65BAE9",
"k. c #74B7EB",
"l. c #4A85C5",
"z. c #4CC6D8",
"x. c #70C6D4",
"c. c #56CDEC",
"v. c #5CC6EB",
"b. c #4DD9ED",
"n. c #4DD6EA",
"m. c #52D2EC",
"M. c #54DBEE",
"N. c #5BD9ED",
"B. c #4CCEE0",
"V. c #79C8EE",
"C. c #63DDEE",
"Z. c #69D7E6",
"A. c #79DDEB",
"S. c #77CAF2",
"D. c #6CD5EF",
"F. c #6BE0F0",
"G. c #74E1F1",
"H. c #7BE3F1",
"J. c #78E0EF",
"K. c #848793",
"L. c #85949C",
"P. c #92878B",
"I. c #B2908B",
"U. c #8A9BA4",
"Y. c #8B98AB",
"T. c #99A5AB",
"R. c #99ADB6",
"E. c #A7B3B9",
"W. c #ACB1B5",
"Q. c #AB9EA0",
"!. c #CC988B",
"~. c #DBB599",
"^. c #D4A890",
"/. c #ECB597",
"(. c #ECB193",
"). c #E7BDA0",
"_. c #DAAE9A",
"`. c #FBC299",
"'. c #F7C9A6",
"]. c #FFD2AD",
"[. c #FAD6B8",
"{. c #E6C3A7",
"}. c #DFC4BD",
"|. c #818CD9",
" X c #818CD3",
".X c #8990D1",
"XX c #B2B3C7",
"oX c #8392E6",
"OX c #8C95E7",
"+X c #9798EA",
"@X c #BB9FF5",
"#X c #A79AED",
"$X c #97ACEC",
"%X c #B2B1F0",
"&X c #9CA1C5",
"*X c #C6A2F8",
"=X c #D9A8FD",
"-X c #E2B2FF",
";X c #ADC3CC",
":X c #BDC3C6",
">X c #BBC7CC",
",X c #B9CCD2",
"<X c #8ADEE9",
"1X c #8CD3F2",
"2X c #BAD0F5",
"3X c #9BE2EC",
"4X c #96E0EA",
"5X c #83E5F3",
"6X c #8DE6F3",
"7X c #97E7F4",
"8X c #89E2EE",
"9X c #A4EAF5",
"0X c #ADECF6",
"qX c #A9E6F5",
"wX c #B7EDF7",
"eX c #AFE2E9",
"rX c #9CCAD5",
"tX c #C5C9CB",
"yX c #C3CED3",
"uX c #C9D2D6",
"iX c #D7DADB",
"pX c #D5CAC4",
"aX c #F3DCCB",
"sX c #C5EAD7",
"dX c #FCEAD9",
"fX c #F3E2D4",
"gX c #DADEE0",
"hX c #D1D3F5",
"jX c #E7D0FE",
"kX c #C7E4E8",
"lX c #DCE3E5",
"zX c #D4E5E7",
"xX c #C4F1F9",
"cX c #CAF1F9",
"vX c #CEF1F7",
"bX c #D4F3FA",
"nX c #DBF5FB",
"mX c #D5E9F9",
"MX c #E5E6E6",
"NX c #EDECFB",
"BX c #E4F7FC",
"VX c #ECF8FC",
"CX c #ECF5FB",
"ZX c #F1F9FD",
"AX c #F4F6FA",
"SX c #FEF1E3",
/* pixels */
"n n * 0 q 3 6 2 1 7 0 6 2 2 2 ; q e 8 3 9 3 0 7 6 2 3 2 6 2 7 8 n n * 0 q 3 6 3 1 7 0 6 2 2 2 ; e q 8 3 7 3 0 7 6 2 3 2 6 2 7 8 ",
"q q 0 7 6 2 6 ; 1 2 2 6 6 2 ; 6 q 0 0 6 - 0 _ 0 ) 7 6 2 7 : q 8 q q 0 7 6 3 6 : 1 2 2 6 7 2 ; 6 q 0 0 6 - 8 _ 0 ) 7 6 2 7 : q 8 ",
"8 6 8 e q - 6 q 8 e 7 * q q e 2 2 2 3 8 7 0 3 0 8 ; : t.3 ; 0 w 8 6 8 e q - 6 q 8 e 7 * e q e 2 2 2 3 8 7 0 3 0 8 ; : : 3 ; 0 8 ",
"3 q e e ) 2 6 0 6 7 n ; r 8 7 6 e 8 0 e c 0 9 3 q 0 e h.0 q 3 0 S q q q ) 2 6 8 6 7 n ; r 8 7 6 e 8 0 e c 0 0 3 q 0 e e 0 q 3 0 ",
"3 8 6 0 : - 2 6 6 3 1 2 3 3 3 e e e 0 7 7 : 9 6 0 0 e.9Xi.6 ; = |.S 6 0 : :.4 6 6 3 1 2 N 3 3 e e r 0 7 7 : 9 6 0 0 e 8 6 6 ; = ",
"3 6 : 3 7 2 3 ; 6 2 7 7 0 e 3 6 7 8 : v e 6 3 1 7 0.j.ZXm.0.3 6 r.g.: 3 7 ,.j.l 6 2 7 7 K.L.3 6 7 8 : v e 6 3 1 7 q 7 7 9 7 3 6 ",
"q 2 3 c 0 q q 7 * 6 0 0 8 q 7 w q 6 7 9 r 6 6 3 D oXwXZXwXj.0.>.s.j.,.c 0 ,.m.t.* 6 0 0 OXN 7 w q 6 7 9 r 6 6 3 7 q 8 n 0 3 0 b ",
"7 3 e 9 0 q q e : e e b b e 0 ) = v r 3 : 6 &XK.r.v.BXZXBXc.oXd.8X7Xg.9 x v.cXc.F e e b |.e 0 ) = v r 3 : 6 6 q q ^ c 7 0 9 c 8 ",
"6 3 ` ^ 6 6 3 7 3 q 9 n q r c 9.2 q b v 8 0.OX@X+Xc.BXZXZXcXm.5X0X3X<Xe.oXc.BXb.9.q 9 0.#X#Xr r 2 q b v 8 ; q q ) 7 7 6 3 3 6 q ",
"6 1 n c 2 3 3 3 6 q 0 e v r <.e 0.c c 9  Xh.$X=XS.bXZXZXZXbXG.VX0X3X<Xf.v.bXZXb.oX:.0 |.h.$X=Xe 3 ,.e 7 n 3 8 v ` 6 6 3 3 3 c 6 ",
"7 ; q 6 0 2 7 8 3 7 0 e e e e e e.0 b |.h.M.h.oXv.bXZXZXZXnXH.wX<XMXU.u.b.bXZXM.m.oX|.oXh.1X1Xg.3 <.b 6 3 ; q 0 q 6 3 6 = O 8 n ",
"3 6 0 _ c 0 e 6 2 0 3 0 0 7 m  XbXOX|.f.6X9Xh.v.xXZXnXZXZXNXZXwX<XMXT.:XA.bXZXbXC.A.%XC.C.C.0XH.g.t.6 0 3 3 0 v 6 6 2 3 _ 1 c _ ",
"3 q e 0 2 6 6 3 b 0 ; 3 7 3 m e.M.nXd.h.6XwXk.S.bXZXN.ZXCXjXVX0X3XMXuXiX<XwXvXA.tXtXtXtXiXMX3XD.v.a.|.) 7 0 1 3 = b q c e 6 3 4 ",
"c 0 3 2 6 : = q 8 q n 3 3 3 6 e.v.wX5XG.6XZX7XwXZXxX<XCXZXZXcXA.MXMXuXuXMX<XA.XXV C 7.7.W.MXkXeX$XoX|.6 3 3 e b 6 m c 4 3 6 = 3 ",
"e 9 3 2 7 c 3 7 c q c c 3 = e e.oXC.ZXbXwXZXwXvXZXF.lXMXZXZXcXA.uXtXyX;XE.uXiX7.8.:.MXMXMXkX3XC.d.oX|.7 = c q 9 7 q 7 3 6 ; - q ",
"6 : ; 2 0 e 6 7 q 0 6 7 3 :._ ` |.k.wXZXbX9X9X9X9XN.lXMX9XZXcXA.W.T.yX;XU.L.yXuXyXL.E.MXkX3X7X3XOXoX|.q : e b 3 6 6 6 6 0 7 3 6 ",
"6 : r ; 0 6 0 8 q 8 8 : ; :.N c |.p.G.CXzX3Xi.i.w.B.lXMX3X7X5XA.W.T.yX;XU.T.MXMXMXyXR.XXi.G.i.,X$X|.9 0 : 0 0 6 3 3 q 0 6 3 e 3 ",
"2 3 6 2 8 6 n 3 0 q 6 6 3 >.oXF oXp.G.vXeXMXtXyXE.6.gXMXlXB.6.6.>.:.R.U.R.iXMXMXMX;X8.q.z.y.q.uX$X|.0 3 l : 3 2 2 0 0 6 3 3 7 - ",
"r 8 6 ; b 7 2 * 6 q 3 2 2 >.oXv.oXp.G.BX9XA.eXMXgXE.7.MXgX6.:X:X:XL.C R.iXMXMX7.yXiX:XR.6.q.7.:X$X|.8 Z <.0 0 7 7 0 3 : ; 6 2 3 ",
"e q 6 3 = 6 ; : ; 7 3 1 7 :.oXb.c.p.G.ZX0X<X4XeXMXlXE.,XiX:.MXMXMXiXL.W.MXMX8.E.iX,X,X;XE.>XL.XX$XmX:.c.9.q 0 q 7 ' 6 q 0 q 3 6 ",
"2 x q 3 O 2 r q e 3 = 7 e >.*XM.nXm.G.ZX0X4X<XM.kXMXMXC C :.MXMXMXMXgXMXMX8.E.;XMXMXMXMXMXT.W.NX$X=XOXb.9.q 3.^ 0 3 e 7 8 7 b 0 ",
"3 m 7 1 = 7 q r 7 0 : q 7 >.oX=XZXnXG.ZX0X4XU.y.eXMXMXMXMXMXtXV U.MXU.V tXMXC V C MXMXMXW.T.MX$X*XOXm.CXOXXX0 0 ; q 0 3 2 : ; 2 ",
"3 2 3 0 v 2 6 6 7 7 6 7 6 7 9.oXN.BXBXZX0X4XMXL.u.kXC MXMXtX7.MXMXT.W.MXMXiXiXMXiX8.iXE.T.MX%XOXoXN.CXm.=X&X: : q 9 6 2 ; : = 1 ",
"0 4 q 0 0 8 7 6 2 3 ; 0 2 7 Y.oXoXm.F.nXwX3XlXMXL.:XC MXiX:.MXiXiXT.E.MXMX7.V lXuXuXS L.MXMXMXzXA.nXCXm.*X:.: 3 q 3 1 : : 0 2 1 ",
"6 3 v 0 q 3 q 6 6 : 3 6 : L.mXoXd.f.b.G.nX9X3XMXMXL.8.MXiX:.tX7.U.K.>XMXMXMXC R.8.MX:XL.MXzXkX8XbXZXZXb.oX:.3 1 6 3 ; _ b c 6 7 ",
"2 3 6 q 2 q 7 r 6 6 q r x hXOXf.5X5X5X5X0XwX3XzXMXMXMXMXiX:.gXE.I.' K.>XMX:XD h R.iX:X8.eX3X5XvXZXZXZXb.oX>.r q q q 0 b 0 : 0 n ",
"1 3 3 3 3 3 2 2 x r 0 m 6 >.%X7XZXZXZXZXZXbXG.<XzXMXMXMXMXU.W.I...+.[ K.uX:.}   w.R.:X6.F.xXZXZXZXZXZXb.oX>.3 3 3 m q 8 : : 0 0 ",
"1 3 = q 6 3 3 * b 7 3 6 r 9.jX2X7X0XZXZXbX3X3X3XzXMXMXMXaXuXA } !.aX/.[ pX] +.  n.w.,Xi.xXZXZXZXZXZX9Xh.e.3 6 3 3 3 3 c 9 : 7 0 ",
"3 1 - 3 0 2 q e 7 3 6 3 0 6 .X@Xs.k.9XZXbX3X<XkXMXMXMXMX].!.W.(.!.Q.pX).!.} '.  b.C.eX5XZXZXZXZXZXZXM.oX9.3 9 6 3 7 9 m 9 3 ; 0 ",
": = ; 6 2 3 2 8 0 6 2 ; 7 ; 3 +X@XoXk.9XZXbX2X1XA.zXMXMX].^.I.SXQ.P.lXfX}.(.N 4.wX0X8XvXZXZXZXZXZX7Xb.oX9.9 3 3 0 = 8 6 3 * : 2 ",
"7 3 3 7 6 3 3 q 6 3 3 0 q 7 b e.+Xv.oXk.9XZXNXmXcX5XA.MXfXpX] AXaX{.dXyXlX[.+ b.ZXVXbXZXZXZXjXNXZXC.d.*X<.= F : 3 2 2 = 6 ; 6 6 ",
"c 0 : 0 q 7 0 6 2 : c q x n q e.oXb.c.m.6XZXZXZXZXF.b.C.C.u.@ I.dX].[.[.[.z y.b.ZXZXZXZXZXZXNXCX5XM.*X+XmXA 9 q 7 7 6 3 7 7 6 0 ",
"n n * 0 q 3 6 3 1 7 0 x 2 2 XXoXoXC.BXBXVXZXZXZX5Xj u u u o > ( I.dX].].' + + u F.ZXZXZXZXZXZX6Xb.d.OXoXCX:.0 7 6 2 3 2 6 2 7 8 ",
"q q 0 7 6 3 6 : 1 2 2 x |.|.CX=XoXp.G.ZXZXZXZX5Xj ~.AX].].]./.} / g f g ^.].].].u F.ZXZXZX7Xb.b.b.p.oXAXoXoX] 0 ) 7 6 2 7 : q 8 ",
"8 6 8 e q - 6 q 8 e 7 l oXa.oX=X=Xp.G.ZXZXZXZX5Xj iX..} '.} ..[.dX^./ !.dX[.} ].p Z.BXZXZXZXZX5Xd.oXNXa.D.=XK.0 8 ; : : 3 ; 0 8 ",
"3 q e e ) 2 6 0 6 7 n l oXc.d.p.oXp.F.nXZXZXZX5Xj !.} /.`.'...@.aXaX'.[ ~.].} ].{.i G.ZXZXZXnXG.d.oXp.F.mX*XA 3 q w c q 0 q 3 0 ",
"3 8 6 0 : - 2 6 6 3 1 z oXc.G.G.d.p.b.H.ZXZXnXx.h / ..@.( ]./.+./.@.+.'.]./.} ^.!.i G.ZXZXZX6Xc.p.d.J.xXv.r.9 6 0 0 e 8 6 6 ; = ",
"3 6 : 3 7 2 3 ; 6 2 7 9 r.j.0XZXV.h.b.5XZXZX7Xk g g '.].g ].'.+...@...(./.} } ] g z u.vXZXZX6Xf.d.5XVXb.oX:.3 1 7 q 7 7 9 7 3 6 ",
"q 2 3 c 0 q q 7 * 6 0 0 A oXm.VXjX1Xb.H.NXmXi.F [ g '.P.f ]./...(.].+.@.+.+.} ].} I.j 5XZXZX6Xj.m.nX0Xj.e.6 6 6 7 q 8 n 0 3 0 b ",
"7 3 e 8 0 q q e : e e b b 9.h.7XZXjX6X5XNX3X*.] [./ ] =.=.]  .#.$.`.(.^.#.$.%.] (.iXj 5XZXZX6Xb.6XBXM.oX<.6 7 q q ^ c 7 0 9 c 0 ",
"6 3 ` ^ 6 6 3 7 3 q 9 n q >.oXb.ZXZXBXxXZX9X*.I.SXz 5.0XB.. , B [ O.$.$.T ! t   Y.0.j 5XZXZX6X7XBXZXM.oXhXF XXq ) 7 7 6 3 3 6 q ",
"6 1 n c 2 3 3 3 6 q A A v r 0.d.5X7XZXZXZX9X*.1.r.p z.ZX0X4.=.u s f M M f . 4.  2.-.j 5XZXZX6XwXZXZXM.oXCXOX7.v ` 6 6 3 3 3 c 6 ",
"7 ; q 6 0 2 7 8 3 8 N oX,.S oXoXd.f.6XZXZX9X*.;.2.u j G.BXz.z R g -.-.-.-.{ h ^.}.Q.j 5XZXZXnXBXZX5Xb.oX-X@Xr.S q 6 3 6 = O 8 n ",
"3 6 0 _ c 0 e 6 2 0 3 A oXv.c.c.c.m.G.ZXZX9X*.P.{.~.~.i C.y.> E O.#.Q | ! O.+ ../ ~.j 5XZXZXZXZXZXC.b.oX=XOXoXA 6 6 2 3 _ 1 c _ ",
"3 q e 0 2 6 6 3 b 0 ; 3 A oXm.b.BXBXVXZXZX9X*.I.]...g '.o @ T o.o.o.E W L O.I + g ~.j 5XjXjXZXZXH.b.b.m.ZXcXv.z = b q c e 6 3 4 ",
"c 0 3 2 6 : = q 8 q n 3 3 S oXoXb.C.VXVXZX9X*.I.]...g '.+ O.T o.o.o.E W L O.o.. '._.j 6XZXZXZXZXZXZXZXVXm.oXD b 9 m c 3 3 6 = 3 ",
"e 9 3 2 7 c 3 7 c q c c 3 = 9.oXoXa.m.H.nXnX7X*.I.{.).X % O.E o.o.o.E W L O.o.I X p <XAXZXZXZXZXZXZXBXm.oXoXN 9 7 q 7 3 6 ; - q ",
"6 : ; 2 0 e 6 7 q 0 6 7 3 8 .XoXd.d.d.h.b.N.wX7Xz # # K % `.`.o.O.E Q L % O.o.].T I %.{.ZXZXZXZXZXbXv.oXoXN b 3 6 6 6 6 0 7 3 6 ",
"6 : r ; 0 6 0 9 q 8 8 : F e.@X+XS.c.N.H.H.wXZXbX( K J $ % | $.o.W E Y $ I W o.`.#.K j G.bXZXZXZXZXC.oXoX9.0 w 3 3 3 q 0 6 3 e 3 ",
"2 3 6 2 8 6 n 3 0 q 6 3 3 q N @X@Xa.V.cXZXZXZX5Xj < G $ % O.I W Q Y & $ Y E W W H G j C.wXZXZXZXZX7X%Xs.s.g.:.3 2 0 0 6 3 3 7 - ",
"v 8 6 ; b 7 2 * 6 q 3 3 2 q e w |.oXa.V.xXZXZX5Xj K I $ % E I H & j i & % Y H H $ G j 5XZXZXxX9X9X9X9X1Xj.h.|.,.7 0 3 : ; 6 2 3 ",
"e q 6 3 = 6 ; : ; 7 3 1 7 3 e 3 3 |.#Xp.V.xXZX5Xj K I $ $ G G % & =.*.G H % $ $ H K j 5XcX7XV.h.h.h.$X#X|.9.0 q 7 ' 6 q 0 q 3 6 ",
"2 x q 3 O 2 r q e 3 = 7 e N l l D *X*XoXp.V.xX5XR., I $ $ % H G M i.y.l & H H H G : u.cXbX0X2XhXV.a.#X Xe q 7 ^ 0 3 e 7 8 7 b 0 ",
"3 m 7 1 = 7 q r 7 0 : q 7 v 0.oXS.S.S.h.oXp.V.0X6Xi d J J H # M rX7XxXi.i d d P @ u.vXZXZXZXZX9Xk.|.|.7 e n 0 0 ; q 9 3 2 : ; 2 ",
"3 2 3 0 r 2 6 6 7 7 6 7 6 8 7 e.r.f.F.qXc.c.7XBXH.i a U d f ;Xz.7XBXZX5Xj a a P u F.ZXZXZXZX9Xk.t.0 0 6 6 0 : : q 9 3 2 ; : = 1 ",
"0 4 q 0 8 8 7 6 2 3 ; 0 2 7 3 b ; |.f.6XnXnXVXZXH.i ~ y u z.H.nXBXZXZXBXZ.i a . z.BXZXZXZX9Xk.oX*X0.<.,.9 9 : 3 q 3 1 : : 0 2 1 ",
"6 3 v 0 q 3 q 6 6 : 3 6 : 7 3 6 6 6 |.f.7XZXZX6Xk -.~   m.VXVXZXZXZXZXZXG.i X.  b.F.ZXZXZXVX6X%X=XOX7 3 3 3 3 1 6 3 ; _ b c 6 7 ",
"2 3 7 q 2 q 7 r 6 6 q r e * 6 0 e.e.oXd.6XVXZX5Xj X.X.+ N.ZXZXZXZXZXZXZXG.i -.~ . p A.VX9Xb.s.e.e.b q 1 6 q r q w q 0 b 0 : 0 n ",
"1 3 3 3 3 3 2 2 x r 0 m 6 e 8 7 q n 9.9.f.7XnXx.h ~ . n.ZXZXZXZXZXZXZXZX5Xk l.l.~ ~ k m.h.0.<.7 q b b 3 q e 3 3 3 v q 8 : : 0 0 ",
"1 3 = q 6 3 3 * b 7 3 6 r q 2 2 3 6 3 0 :.6.6.3 , 3 5 6.sXsXsXsXsXsXsXsXsXsXsX6.6.6.S S >.q 2 2 3 6 3 9 e 3 6 3 3 3 3 c 9 : 7 0 ",
"3 1 - 3 0 2 q e 7 3 6 3 0 6 6 6 2 6 8 1 v 3 9 6 3 7 0 m 9 3 ; 0 3 1 - 3 0 2 q e 7 3 6 3 0 6 6 6 2 6 8 1 v 3 9 6 3 7 9 m 9 3 ; 0 ",
": = ; 6 2 3 2 8 0 6 2 ; 7 ; 3 3 = : 9 9 9 9 3 3 0 = 8 6 3 * : 2 : = ; 6 2 3 2 8 0 6 3 ; 7 : 3 3 = : 9 9 9 9 3 3 0 = 8 6 3 * : 2 ",
"7 3 3 7 6 3 3 q 6 3 3 0 q 7 b 0 2 0 ` q ; = ; : 6 2 2 = 6 ; 6 6 7 3 3 7 6 3 3 q 6 3 3 q q 7 b 0 2 0 ` q ; = ; : 3 2 2 = 6 ; 6 6 ",
"c 0 : 0 q 7 0 6 1 ; c q 7 n q : 6 v n e 4 3 9 q 7 8 6 3 7 7 6 0 c 0 : 0 q 7 0 6 1 ; v q 7 n q : 6 v n e 4 3 9 q 7 7 6 3 7 7 6 0 "
};
