/* XPM */
static char *xpm_[] = {
/* columns rows colors chars-per-pixel */
"64 64 246 2 ",
"   c #171839",
".  c #090B31",
"X  c #2B1338",
"o  c #1A213F",
"O  c #3E3020",
"+  c #36283C",
"@  c #3B3538",
"#  c #2F2F3B",
"$  c #2A0216",
"%  c #7B002C",
"&  c #720025",
"*  c #7E0733",
"=  c #453424",
"-  c #4A3726",
";  c #4C3927",
":  c #4E3A2A",
">  c #4B3629",
",  c #543E2C",
"<  c #583F2C",
"1  c #4C3B34",
"2  c #463B3B",
"3  c #4A3D3B",
"4  c #443535",
"5  c #543D36",
"6  c #502A3B",
"7  c #792A2D",
"8  c #480139",
"9  c #56402E",
"0  c #5A422E",
"q  c #4D423C",
"w  c #5D4431",
"e  c #5E4834",
"r  c #564337",
"t  c #53583D",
"y  c #614633",
"u  c #644935",
"i  c #694D37",
"p  c #664C38",
"a  c #6A4E39",
"s  c #6D513B",
"d  c #72543D",
"f  c #73583F",
"g  c #684829",
"h  c #081A44",
"j  c #291C48",
"k  c #0B274A",
"l  c #182A47",
"z  c #1B314D",
"x  c #18314C",
"c  c #162C53",
"v  c #093757",
"b  c #133556",
"n  c #0B2B51",
"m  c #262D45",
"M  c #22314A",
"N  c #283447",
"B  c #363848",
"V  c #273854",
"C  c #36344E",
"Z  c #032E67",
"A  c #0A3D65",
"S  c #0E396E",
"D  c #27356A",
"F  c #483843",
"G  c #4D2E45",
"H  c #652E54",
"J  c #304252",
"K  c #154668",
"L  c #045D77",
"P  c #0E526B",
"I  c #2C4B6A",
"U  c #00677A",
"Y  c #0D6A7F",
"T  c #265863",
"R  c #584943",
"E  c #4C4E4C",
"W  c #604844",
"Q  c #6D5442",
"!  c #745641",
"~  c #765943",
"^  c #7A5B44",
"/  c #7D5D48",
"(  c #745A49",
")  c #7E4B4E",
"_  c #7E614A",
"`  c #79635A",
"'  c #4B566B",
"]  c #705868",
"[  c #50657C",
"{  c #627771",
"}  c #910A1A",
"|  c #A92C16",
" . c #870129",
".. c #920A2C",
"X. c #B10D23",
"o. c #AE3127",
"O. c #8C302D",
"+. c #D8361C",
"@. c #D42716",
"#. c #ED3615",
"$. c #DA332C",
"%. c #D6282F",
"&. c #AF443B",
"*. c #9C5A39",
"=. c #DF411E",
"-. c #EF431C",
";. c #D74829",
":. c #EE562D",
">. c #F66A33",
",. c #8A3C43",
"<. c #805F49",
"1. c #815F47",
"2. c #8C5255",
"3. c #AD5049",
"4. c #83634C",
"5. c #876651",
"6. c #8B6B53",
"7. c #876A55",
"8. c #916E51",
"9. c #93735B",
"0. c #B16B53",
"q. c #9A7262",
"w. c #A87567",
"e. c #C77252",
"r. c #EB7A4A",
"t. c #C87C6A",
"y. c #738277",
"u. c #DCA833",
"i. c #F1EC25",
"p. c #F1E31D",
"a. c #BF8C74",
"s. c #D58751",
"d. c #FA8A46",
"f. c #FD974A",
"g. c #ED8E54",
"h. c #FFA958",
"j. c #F4A751",
"k. c #D48B6A",
"l. c #EB9974",
"z. c #F9A37A",
"x. c #0C3292",
"c. c #373790",
"v. c #0E35A9",
"b. c #0C5389",
"n. c #046983",
"m. c #027689",
"M. c #017E92",
"N. c #2A6C82",
"B. c #29778A",
"V. c #007FA1",
"C. c #2977AE",
"Z. c #3774AC",
"A. c #2846A2",
"S. c #4470AA",
"D. c #666299",
"F. c #2773C4",
"G. c #2072DA",
"H. c #018698",
"J. c #198C9B",
"K. c #2C8A94",
"L. c #008CA6",
"P. c #0392A9",
"I. c #1699A5",
"U. c #0299B4",
"Y. c #3290A5",
"T. c #01A2BC",
"R. c #0AA8B7",
"E. c #1BAAB4",
"W. c #3FABB3",
"Q. c #6796AD",
"!. c #0A94C5",
"~. c #00A3C2",
"^. c #00ACC7",
"/. c #03B5CC",
"(. c #00BBD4",
"). c #19B7D3",
"_. c #2DB9CF",
"`. c #3291DB",
"'. c #478DC9",
"]. c #53A6FF",
"[. c #4FA7EA",
"{. c #02C3D9",
"}. c #07C5D9",
"|. c #16C8D9",
" X c #16CEDA",
".X c #2CC3CB",
"XX c #27CCD6",
"oX c #35CBD6",
"OX c #38D5DA",
"+X c #2AD0D5",
"@X c #01CCE3",
"#X c #11D4E3",
"$X c #37D4E5",
"%X c #2FCEE4",
"&X c #1BE9F4",
"*X c #30EDF3",
"=X c #48D3DA",
"-X c #51CBD8",
";X c #47DAE8",
":X c #53FEFE",
">X c #5AFBFB",
",X c #49F0F3",
"<X c #66FAFB",
"1X c #75E2E5",
"2X c #908F90",
"3X c #A9A59A",
"4X c #ACAFAF",
"5X c #999FA4",
"6X c #D5A887",
"7X c #C2B69D",
"8X c #F9AA87",
"9X c #FDB68D",
"0X c #F0B694",
"qX c #CBBAAA",
"wX c #FFBFA0",
"eX c #B7C2B5",
"rX c #D2C3B0",
"tX c #F7C9A9",
"yX c #F7D6B6",
"uX c #E8CAB0",
"iX c #FFE5B8",
"pX c #E7E4B7",
"aX c #FFC59D",
"sX c #91D9E8",
"dX c #88FEFF",
"fX c #96FBFD",
"gX c #9AE1EB",
"hX c #B6E4ED",
"jX c #A5FEFF",
"kX c #B0EEFA",
"lX c #B5D0CE",
"zX c #D1D6D0",
"xX c #FBE6C8",
"cX c #FEFAD7",
"vX c #F9F0D1",
"bX c #C6F7FB",
"nX c #DBFFFF",
"mX c #C9E6EF",
"MX c #FFFFE5",
"NX c #ECFFFF",
"BX c #E3F9FA",
"VX c #F4FFFF",
"CX c #FFFFFF",
"ZX c #F8FAF3",
"AX c #EDEAEE",
"SX c #D4DCD8",
/* pixels */
"/ / ; a s w y 0 9 u a y 0 0 0 , s d i w u w a u y 0 w 0 y 0 u i / / ; a s w y w 9 u a y 0 0 0 , d s i w u w a u y 0 w 0 y 0 u i ",
"s s a u y 0 y , 9 0 0 y y 0 , y s a a y = i 6.a 4.u y 0 u < s i s s a u y w y < 9 0 0 y y 0 , y s a a y = i 6.a 4.u y 0 u < s i ",
"i y i d s = y s i d u > s s d 0 0 0 w i u a w a i , < < w , a i i y i d s = y s i d u > s s d 0 0 0 w i u a w a i , < < w , a i ",
"w s d d 4.0 y a y u / , f i u y d i a d ! a a w s a d s a s e a 0 s d d 4.0 y i y u / , f i u y d i a d ! a a w s a d d a s e a ",
"w i y a < = 0 y y w 9 0 w w w d d d a u u < p y a a d i y y , : w i y a < = 0 y y w 9 0 w w w d d f a u u < p y a a d i y y , : ",
"w y < w u 0 w , y 0 u u a d w y u i < ~ d y w 9 u s u u p y w y w l @ w u 0 w < y 0 u u a d w y u i < ~ d y w 9 u s u u p u w y ",
"s 0 w ! a s s u - y a a i s u s s y u p f y y w u s i / a l q ^ a n # ! a s d u - y a a i s u s s y u p f y y w u s i / a w a ^ ",
"u w d i a s s d < d d ^ ^ d a 4.: ~ f w < y y s s 1.! u C V Q a m =XB.5 a s a d < d d ^ ^ d a 4.: ~ f w < y y s s 1.! u a p Q a ",
"y e 9.<.y y w u w s p / s f ! f 0 s ^ ~ i , s s 4.u r C SXD.> J ).nXjXL @ y w u r p p / s f ! f 0 s ^ ~ i , s s 4.u u y w w y s ",
"y 9 / ! 0 w w w y s a d ~ f i d w ! ! p _ w y ~ 9.e M AXjXL . OX@XmXCXdXU 4 w w l F a d ~ f i d w ! d u _ w i ~ 9.y y w w w ! y ",
"u , s y a 0 u i w u a d d d d d w a ^ y w , M q s m zXdX*X}.U.H.U.kXCXVX;XA r i x B i d d d d d w a ^ y w , s a s y w y : O i _ ",
"e y a 6.! a d y 0 a w a a u ( _ : w y a e w x v 3 m AX$X&X XH.=X{.hXCX<XbX[ r # oXB.4 a a u ( _ : w y a e w a ~ y y 0 w 7.9 ! 7.",
"e s d a 0 y y w ^ a , w u w ( y w w , 4.u i l <XK.. AX$X#XI.|.VXoXgXCX).*XN.. _.<XN.O w u w ( y w w , 4.u a 9 w : ^ s ! d y w e ",
"! a w 0 y < : s i s / w w w y u a u a y 1 1   lX-Xv 4X$Xm..X<XCXoXgXVX).@X|. X<XnX[ R w r w y u a u a y w e d ^ y ( ! e e y : w ",
"d p w 0 u ! w u ! s ! ! w : d ! ! d ! e l n A C N.J.m.T.m.+XVXCX_.hXjX(.T.&X:XNXfXL W ! # , f ! ! d ! u : ! s p u s u w y , = s ",
"y < , 0 a d y u s a y u w i 6.9.5.5.d M 4 m _.bXBXBX<XH.L U.BXdX/.hXfX/.#X:XnXfX#XA 1 N b i 6.9.5.5.d s < d ^ e y y y y a u w y ",
"y < f , a y a p s i i < , i ~ ! u p p n x r V ;X<X$XbXfXI.P.BX=X~.,XXXU.*XNXfX}.&XY   =XY.i ~ ! u p p a < a a w w w s a y w d w ",
"0 w y 0 i y / w a s y w w s ! w < w a b ^.K . L +X*X|.mX1X/.bXOX~.*X|.~.bXjX}. X{.$XBXdXm.s ! w < w a w : 9 w 0 0 a a y w w u = ",
"~ i y , ^ u 0 - y s w w 0 s d a w w i v {.(.M.L m.|.^.J.K./.$XR.T.*X|.P.;X|. X X;XnXfX&Xn.s d a w w i , < a s u u a w < , y 0 w ",
"d s y w ; y , < , u w 9 u w d w w , , x T.@X{.m.U oXI.XX:X).m.U T.(./.M.L.(.~.&XNXfX{.*XB.w d w w , , 0 a s s s u 8.y s a s w y ",
"0 Q s w O 0 f s d w : u d d : : w y s s x U.@X(.M.Y OX:X XM.oX>X}.~.$X,XH..XI..X<X|.&XN.3 d : : w y s d d s u <.a w d u i u ^ a ",
"w ( u 9 ; u s f u a < s u ~ y u s s s u d N U.@X/.U ,X>XH.E.:XVX-XU.kXfX*XJ..XI.P.*XB.1 u ( y u s s s u d / a a , s a w 0 < , 0 ",
"w 0 w a ~ 0 y y u u y u y i u w y a a y w p o P./.H.OX>XH.|.:XNX8XK.kXCXdXm.OXE.H.@XK 5 y i u w y a a y y a < < s p y 0 , < : 9 ",
"a e s a a i u y 0 w , a 0 u w ^ , a a w m l v m.L.P.L.OXK.E.:XNXxXtXxXVX<XR..XI.U v 4 s 0 u w ^ , a a w p p < w s w 9 < < a 0 9 ",
"y w ~ a s w s y y < w y < u w y y y y w w l U.@X^.K L.H.e.{ {.nXvXiXyX<X/.%XE.m.H.K 2 w , u w y y y u w w w w 9 y w , 6.^ ! y u ",
"0 w y s 0 s u f y y s f d - y a ! ^ s 9 y a b ~.n.0.B.n.q.r.B.@XSXiXk.T.n.  L./.~.^.K   R - y a ! ^ s 9 y s f s s s a ^ a < a / ",
"9 w w w w w 0 0 Q f a ( y d i u s / ^ w s B # N k t.3.2XJ.w.tXI.eX8X' n.rX]   J b A R Q e d i u s / ^ w s d w w w ( s i < < a a ",
"9 w : s y w w - ^ u w y f s 0 0 w y w p c s.g.r.W ` 3.zXNXY.7XyXk.T sX8XiX[ 1.j.f.5 1 y f s 0 0 w y w p d w y w w w w ! p < u a ",
"w 9 = w a 0 s d u w y w a y w y 0 y i , n S.S.A.w.( G k.vX%X2Xz.Q.~.hXl.6X' b.'.6XW 3 w a y y y 0 y i 9 ~ w p y w u p ( p w , a ",
"< : , y 0 w 0 i a y 0 , u , w w : < p p l x.F.`.'.k.2 2.g.W.lXyXZX;Xy.6 h x.v.x.'.I 4 , u , w w : < p p p p w w a ; i y w - < 0 ",
"u w w u y w w s y w w a s u ^ a 0 a 9.s n Z.] tXvXI | o.0.k.xXcXvX6X2 | H G.3X3.w.E 2 a s u ^ a 0 a 9.s , : , < w 0 0 : y , y y ",
"! a < a s u a y 9 , ! s u / s < y ~ / s x w.3.wXcXI | r.2.e.tXxXl.&.0.-.X 4XMX0.X @ ! s u / s < y ~ / d e w p s u u y w u u y a ",
"/ / ; a s w y w 9 u a y 0 0 0 , s s i w p m w.l.tX2.. g.l.2.) 2.,.w.Q.&.$ 3XcXt.  1 a y w 0 0 , s s i w u w a u y 0 w 0 y 0 u i ",
"s s a u y w y < 9 0 0 y y 0 , y s a a y = p z yX9X,.c e.3X!.C.Z.C.'.Q.V 6 k.l.tX' 4 9 y y 0 , y s a a y = i 6.a 4.u y 0 u < s i ",
"i y i d s = y s i d u > s s d 0 0 0 w i u a l rX9XtXxXC 0.D.v.v.v.a.( ` tXvX8XE 3 d u > s s d 0 0 0 w i u a w a i , < < w , a i ",
"w s d d 4.0 y a y u / , f i u y d i a d ! a p l q.vXcXl.F *.D.v.v.r.g qXcXcX8Xm 5 u / , f i u y d i a d ! a a w s a d s a s e a ",
"w i y a < = 0 y y w 9 0 w w w d d d a u u < p e m qXvXvXI 7 d.f.f.:.+ eXcX8XF 2 y w 9 0 w w w d d d a u u < p y a a d i y y , : ",
"w y < w u 0 w , y 0 u u a d w y u i < ~ d u w 9 l k '.].S b.3.#.#.D.x.Z.].I @ , y 0 u u a d w y u i < ~ d y w 9 u s u u p u w y ",
"s 0 w ! a s s u - y a a i s u s s y u p f y y w m k F.].S.D V c.D K c.G.`.S r p - y a a i s u s s y u p f y y w u s i / a w a ^ ",
"u w d i a s s d < d d ^ ^ d a 4.: ~ f w < y y l 0.f.V 4XvXuXrXS 5XpXyX].S q a d < d d ^ ^ d a 4.: ~ f w < y y s s 1.! u a p ! a ",
"y e 9.<.y y w u w s p / s f ! f 0 s ^ ~ i , a k s.j.z rXcX9X3.7 t.3.0XMX' 1 w u w s p / s f ! f 0 s ^ ~ i , s s 4.u u y w w y s ",
"y 9 / ! 0 w w w y s a d ~ f i d w ! ! p _ 9 M o.d.h.B 4XwXaXl.7 ,.,.tXcX' 4 w w y s a d ~ f i d w ! ! p _ w i ~ 9.y y w w w ! y ",
"u , s y a 0 u i w u a d d d d d w a ^ y w x s.-.>.h.;.o 3X0XuXJ 2XzXuXI h 1 u i w u a d d d d d w a ^ y w , s a s y w y : O i _ ",
"e y a 6.! a d y 0 a w a a u ( _ : w y a e n d.>.+.=.-. .j b V s.` D V h R a d y 0 a w a a u ( _ : w y a e w a ~ y y 0 w 7.9 ! 7.",
"e s d a 0 y y w ^ a , w u w ( y w w , 4.u z o.d.;.@.+...& h O.d.f.s.s.C 1 y y w ^ a , w u w ( y w w , 4.u a 9 w : ^ s ! d y w e ",
"! a w 0 y < : s i s / w w w y u a u a y w w l ..X. .%  . .j o.d.h.h.f.V 1 < : s i s / w w w y u a u a y w e d ^ p ( ! e e y : w ",
"d p w 0 u ! w u ! s ! ! w : d ! ! d ! y : ! x o.+... .#.B X @.f.h.f.:.m 3 ! w u ! s ! ! w : d ! ! d ! u : ! s p u s u w y , = s ",
"y < , 0 a d y u s a y u w i 6.9.5.5.s s < d ! M M o.+.=.B 8 #.f.h.:.>.:.+ R y u s a y u w i 6.9.5.5.d s < d ^ e y y y y a u w y ",
"y < f , a y a p s i i < , i ~ ! u p p a < a a w w M c.Z o.X.o.=.+.r.:.#.6 3 a p s i i < , i ~ ! u p p a < a a w w w s a y w d w ",
"0 w y 0 i y / w a s y w w s ! w < w a w : 9 w 0 0 x x.Z | @.% % % * ..+.F 3 / w a s y w w s ! w < w a w : 9 w 0 0 a a y w w u = ",
"~ i y , ^ u 0 - y s w w 0 s d a w w i , < a s u u a x g # O.X.%  .} o.F R u 0 - y s w w 0 s d a w w i , < a s u u a w < , y 0 w ",
"d s y w : y , < , u w 9 u w d w w , , 0 a s s s u 8.M c.Z k o.#.+.+.G 3 : y , < , u w 9 u w d w w , , 0 a s s s u 8.y s a s w y ",
"0 Q s w O 0 f s d w : u d d : : w y s d d s u <.a w s c c q B %.D._.K 9 O 0 f s d w : u d d : : w y s d d s u <.a w d u i u ^ a ",
"w ( u 9 ; u s f u a < s u ~ y u s s s u d / a a , s p w 9 < k $.2X).K 1 ; u s f u a < s u ~ y u s s s u d / a a , s p w 0 < , 0 ",
"w 0 w a f 0 e y u u y u y i u w y a a y y a < < s p y 0 , < l u.i.E @ a ~ 0 y y u u y u y i u w y a a y y a < < s p w 0 , < : 9 ",
"a e s a a i u y 0 w , a 0 u w ^ , a a w p p < w s e 9 9 < a 1 k Y.I r a a i u y 0 w , a 0 u w ^ , a a w p p < w s w 9 < < a 0 9 ",
"y w ~ a s w s y y < w y < u w y y y u w w w w 9 y w , 6.^ Q B k C.P R a s w s y y < w y < u w y y y u w w w w 9 y w , 6.^ ! y u ",
"0 w u s 0 s u f y y s f d - y a ! ^ s 9 y s f s s s a ^ a m u.p.i.E F s 0 s u f y y s f d - y a ! ^ s 9 y s f s s s a ^ a < a / ",
"9 w w w w w 0 0 Q f a ( y d i u s / ^ w s d w w w ( s i < 1 B p.i.t 2 w w w 0 0 Q f a ( y d i u s / ^ w s d w w w ( s i < < a a ",
"9 w : s y w w - ^ u w y f s 0 0 w y w p d w y w w w w ! p < u a 0 w : s y w w - ^ u w y f s 0 0 w y w p d w y w w w w ! p < u a ",
"w 9 = w a 0 s d u w y w a y y y 0 y i 9 ~ w p y w u p ( p w , a w 0 = w a 9 s d u w y w a y y y 0 y i 9 ~ w p y w u p ( p w , a ",
"< : , y 0 w 0 i a y 0 , u , w w : < p p p p w w a ; i y w - < 0 < , , y 0 w 0 i a y 0 , u , w w : < p p p p w w a ; i y w - < 0 ",
"u w w u y w w s y w w a s u ^ a 0 a 9.s , : , < w 0 0 : y , y y u w w u y w w s y w w a s u ^ a 0 a 9.s , : , < w 0 0 : y , y y ",
"! a < a s u a y 9 , ! s u / s < y ~ / d e w p s u u y w u u y a ! a < a s u a y 9 , ! s u / s < y ~ / d e w p s u u y w u u y a "
};
