/* XPM */
static char *xpm_[] = {
/* columns rows colors chars-per-pixel */
"64 64 208 2 ",
"   c #3F2F21",
".  c #3E3020",
"X  c #453424",
"o  c #4A3726",
"O  c #4C3926",
"+  c #4A3728",
"@  c #4E3A29",
"#  c #543D2C",
"$  c #583F2C",
"%  c #543B26",
"&  c #56402E",
"*  c #5A422E",
"=  c #564131",
"-  c #5D4431",
";  c #5E4834",
":  c #5F4E3F",
">  c #63442E",
",  c #68482B",
"<  c #704C2F",
"1  c #77512F",
"2  c #614633",
"3  c #644935",
"4  c #694D37",
"5  c #664C39",
"6  c #6C4F3A",
"7  c #6A4E39",
"8  c #744F30",
"9  c #6E5037",
"0  c #6D503A",
"q  c #6E513A",
"w  c #6F513C",
"e  c #6D513C",
"r  c #65503D",
"t  c #70523A",
"y  c #71533D",
"u  c #72543E",
"i  c #75563F",
"p  c #72543D",
"a  c #795639",
"s  c #4C4952",
"d  c #6E5541",
"f  c #65534A",
"g  c #6A574B",
"h  c #6B5849",
"j  c #755640",
"k  c #745641",
"l  c #765841",
"z  c #765943",
"x  c #795A43",
"c  c #7B5B44",
"v  c #7C5E49",
"b  c #755C4A",
"n  c #6F5C52",
"m  c #725D51",
"M  c #75604D",
"N  c #7B624B",
"B  c #7D6047",
"V  c #736053",
"C  c #7C6552",
"Z  c #786657",
"A  c #515064",
"S  c #465579",
"D  c #545572",
"F  c #7A6B64",
"G  c #8B5C33",
"H  c #885C38",
"J  c #915E34",
"K  c #8F6039",
"L  c #946135",
"P  c #9B6539",
"I  c #9A6538",
"U  c #A4632D",
"Y  c #A96B28",
"T  c #AD702A",
"R  c #B57529",
"E  c #B47428",
"W  c #AC6E39",
"Q  c #A66935",
"!  c #AE703A",
"~  c #AB763A",
"^  c #B2733C",
"/  c #BF7739",
"(  c #BC7839",
")  c #B26B2F",
"_  c #AD6816",
"`  c #DD771E",
"'  c #C47B3D",
"]  c #C97E3E",
"[  c #C87F2A",
"{  c #815F47",
"}  c #805F4A",
"|  c #82644D",
" . c #8B6343",
".. c #846651",
"X. c #856A54",
"o. c #8C6C54",
"O. c #836D5B",
"+. c #8E6F58",
"@. c #916E51",
"#. c #8C7159",
"$. c #8E7057",
"%. c #93735B",
"&. c #926743",
"*. c #BB7941",
"=. c #B57641",
"-. c #AD7646",
";. c #85766D",
":. c #957C65",
">. c #877971",
",. c #806C73",
"<. c #D5872C",
"1. c #CC813D",
"2. c #DF8232",
"3. c #D68634",
"4. c #F59A29",
"5. c #FA9C29",
"6. c #F49925",
"7. c #E38534",
"8. c #E98A38",
"9. c #FB9738",
"0. c #F58D33",
"q. c #9A8675",
"w. c #A78A6F",
"e. c #A68C72",
"r. c #AA8D72",
"t. c #A98174",
"y. c #AE9176",
"u. c #AE9577",
"i. c #B3957A",
"p. c #B5987D",
"a. c #B4967A",
"s. c #B2A47D",
"d. c #C88144",
"f. c #D28442",
"g. c #DD8A41",
"h. c #DF9859",
"j. c #E48D42",
"k. c #EC9243",
"l. c #F69744",
"z. c #F79844",
"x. c #FF9C45",
"c. c #FF9C48",
"v. c #D99872",
"b. c #E89A60",
"n. c #565E81",
"m. c #4C5C86",
"M. c #4E608B",
"N. c #656585",
"B. c #596FB6",
"V. c #566DB5",
"C. c #5B70B7",
"Z. c #5E74BB",
"A. c #6377BB",
"S. c #6472AF",
"D. c #5A76C8",
"F. c #4F79D5",
"G. c #4E7BDA",
"H. c #517AD6",
"J. c #5076DC",
"K. c #557CDC",
"L. c #4E6EC8",
"P. c #507DEF",
"I. c #4B7FF0",
"U. c #5F8BFF",
"Y. c #4688FF",
"T. c #728DEB",
"R. c #638BFB",
"E. c #6186F1",
"W. c #BA9D80",
"Q. c #BFA184",
"!. c #9E92B7",
"~. c #A993AA",
"^. c #A292B3",
"/. c #B5B3B3",
"(. c #C2A387",
"). c #C3A589",
"_. c #CAAC8E",
"`. c #C6A88B",
"'. c #CCAD90",
"]. c #CEB193",
"[. c #DCBE9E",
"{. c #D6B798",
"}. c #DEBFA0",
"|. c #DFC0A0",
" X c #DDC7AF",
".X c #E2C2A3",
"XX c #EECEAC",
"oX c #F3DFA7",
"OX c #FBD8AE",
"+X c #F6D6B4",
"@X c #F8D7B5",
"#X c #FADAB6",
"$X c #FDDDBA",
"%X c #F6E2A9",
"&X c #FDE1B9",
"*X c #CFD3DA",
"=X c #D0D4DB",
"-X c #C9CED5",
";X c #F3DCC1",
":X c #EEDFD1",
">X c #F9E3C9",
",X c #FFE8CD",
"<X c #F9E1C6",
"1X c #FFEAD0",
"2X c #DDE4EE",
"3X c #DCE7F4",
"4X c #E2EAF4",
"5X c #E1E9F3",
/* pixels */
"v v O 6 0 - 2 - & 3 7 2 * * * # 0 w 4 - 3 - 6 3 2 * - * 2 $ 3 3 v v O 6 0 - 2 - & 3 7 2 * * * # t w 4 - 3 - 6 3 2 * - * 2 * 3 4 ",
"0 0 7 3 2 - 2 # & * * 2 2 * # 2 0 7 7 2 X 4 o.6 | 3 2 * 2 # 7 3 0 0 7 3 2 - 2 # & * * 2 2 * # 2 0 7 7 2 X 4 o.6 | 3 2 * 3 # 0 5 ",
"4 2 4 p 0 X 2 0 4 p 3 + w 0 y * * * - 4 3 7 - 7 4 # # # * @ 3 3 4 2 4 p 0 X 2 0 4 p 3 + w 0 y * * * - 4 3 7 - 7 4 # # # - # 7 4 ",
"- 0 t t | * 2 7 2 3 v # i 4 3 2 t 4 6 y k 7 7 - 0 7 y 7 Z 4X4X0 & 9 t t | * 2 7 2 3 v # i 4 3 2 t 4 6 y k 7 7 - 0 7 p y 7 0 ; 7 ",
"- 4 2 7 # X * 2 2 - & * - - - y t p 7 3 3 $ 5 2 6 6 w 2 n 4X5X= * 3 2 7 # X * 2 2 - & * - - - y t i 7 3 3 $ 5 2 6 6 y 4 2 2 # @ ",
"- 2 # - 3 * - # 2 * 3 3 6 t - 2 3 4 $ l y 2 - & 3 w 2 - m 4X5X5 * - # - 3 * - # 2 * 3 3 6 t - 2 3 4 $ l y 2 - & 3 w 3 3 5 3 - 2 ",
"0 * - k 7 w w 3 o 2 6 6 4 0 3 0 0 2 3 5 i 2 2 - 3 0 3 i m 4X5Xz 3 & - k 7 w w 3 o 2 6 6 4 0 3 0 0 2 3 5 i 2 2 - 3 0 4 v 6 - 7 x ",
"3 - p 4 7 0 w t # p p c x y 6 | @ l i - # 2 2 0 0 { i 2 m 4X5X7 ; & p 4 7 0 w t # p p c x y 6 | @ l i - # 2 2 0 0 { k 3 7 5 d 6 ",
"2 ; %.} 2 2 - 3 - 0 5 v w i k i * 0 x l 5 # 0 0 | 3 2 * f 4X4Xd - - %.} 2 2 - 3 - 0 5 v w p k i * 0 x l 5 # 0 0 | 3 3 2 - - 2 w ",
"2 & v k * - - - 2 0 6 p l i 4 p - k k 5 N - 2 k $.- ; & V 2X/.5 - & v k * - - - 2 0 7 y k i 3 y - k k 5 N - 5 l %.2 2 - - - k 2 ",
"3 # 0 2 7 * 3 4 - 3 6 t y t p p - 7 x 2 - # 7 5 X.d * - F -X- z 2 # 6 2 5 * 3 4 - 3 4 6 k o.w w - 7 x 2 - # 0 7 w 2 - 2 @ . 4 M ",
"; 2 7 o.k 7 y 2 * 7 - 7 6 3 z N O * 2 5 ; - 3 p #XW.# & q.*X0 ..- - 5 ..y 3 6 ; * 7 * 3 +.$X..v O - 2 7 ; - 7 l 2 2 * - X.& k X.",
"; 0 y 7 * 2 2 - x 7 # - 3 - z - - - # N 2 5 # & XXQ.5 5 >.=X= - - 5 S.K.$ - - - i 5 @ # X.$XN - - - # | 3 7 & - @ v w k p 2 - ; ",
"k 7 - * 2 # @ 0 4 0 v - - - 2 2 3 {.(.- - - 0 p XXp.7 & F =X@ & w 2 D.Y.* @ + 4 j.^ k # C #X0 2 5 3 7 2 - ; p x 2 z k ; ; 2 @ - ",
"p 5 - * 3 k - 3 k w k k - @ y y 0 XX{.- o w 3 - XXp.* # F *XX 5 0 ; C.G.3 <.> - z.' 6 6 C #Xv w w y k 3 @ k 0 5 3 w 3 - 2 # X 0 ",
"2 $ # * 6 p 2 3 w 7 2 3 - 4 ..+.v .X_.3 # | _.# .Xu.* - ;.=X- * * # V.H.0 5.> - k.^ - - C #X+.o.| ..y w # p x ; 2 2 2 2 7 3 - 2 ",
"2 # i # 7 2 7 5 w 4 4 $ # 4 k w - |._.2 @ #.$X# [.y.3 2 >.2X7 # * # A.F.7 5.4 - l.W * @ M #Xv w 2 5 5 6 # 7 6 - - - 0 7 2 - y - ",
"* - 2 * 4 2 v - 7 0 2 - - 0 p - # }._.# X M @X@ [.p.2 * V /.>.+ # & C.H.7 5.i @ j.1.< # C #Xv - # - 7 - @ & - * * 6 6 2 - - 3 X ",
"l 4 2 # x 3 * o 2 w - - * w y 2 & .X`.o O ..@X# |.p.# # O n 4Xf 0 2 B.F.i 5.*   1.x.) # M #Xv 2 - - 4 # # 6 0 3 3 6 - # # 2 * - ",
"p w 2 - @ 2 # # # 3 - & 3 - w - # [.).# - ..@X; }.(.- 3 2 O.5Xd 5 2 B.F.# 4.% o 1.x.U o C #Xz - - # # * 7 0 0 w 3 @.2 0 7 0 - 2 ",
"* d w - . * i 0 p - @ 3 y p @ + # ).#Xr.2 ..@Xw |.i.5 - 2 F 2Xh # 5 Z.H.o 4.9 - f.x.U # O.$X- + - 2 0 p y 0 3 } 7 - y 3 4 3 v 7 ",
"- z 3 & @ 3 0 i 3 7 # 0 3 l 2 2 3 Q.$Xp.2 #.@X- [.p.2 - # V 2X5 # 0 C.F.# 5.4 2 ] x.U - C $X0 2 0 0 0 3 p v 7 6 # 0 7 - * # # * ",
"- * - 7 l * 2 2 3 3 2 3 2 4 3 * * (.$Xr.# ..@Xo .Xi.* # @ V 3X: # # V.H.p 4.# J k.x.Q # C #Xd * 2 7 7 2 2 6 # # 0 5 2 * # # @ & ",
"7 ; 0 7 7 4 3 2 * - # 6 * 3 * l o (.$Xe.- C @X# .Xu.@ @ # O.:X5 ; = Z.H.7 4.# 3.x.x.U - M #X5 k @ 7 7 - 5 5 # - 0 - & # # 7 * & ",
"2 - l 7 0 - 0 2 2 # - 2 # 3 * - * Q.$Xe.@ M @XO |.u.O | y #.OXw - # Z.H.7 4.- ' x.x.U # M #X5 * 2 2 3 - - - - & 2 - # o.x k 2 3 ",
"* - 2 0 * 0 5 i 2 2 0 i t o 2 3 7 `.$Xe.# X.#X; |.p.2 p 2 M #X| # # B.H.- 4.# ' x.x.) 2 X.#Xw 3 p x w & 2 w i w 0 0 7 x 7 # 7 v ",
"& - - - - - * * d i 7 z 2 p 3 2 3 '.$Xe.; X.@X@ }.W.2 2 # M $Xk @ # B.H.- 4.o ' x.x.Q 7 C #Xk ; 6 v x - w p - - - z 0 4 # # 7 6 ",
"& - @ 0 2 - - o c 3 - 2 i w * * * (.$Xy.2 M @X@ }.u.& 5 - b &Xk @ # V.G.2 6.@ ( x.x.U # #.#X5 # - 2 - 5 p - 2 - - - - k 5 # 3 7 ",
"- & X - 7 * w p 3 - 2 - 7 2 2 2 # 5 k ]..Xr +X#  Xs.- n.L.n %Xd # @ L.I.- 4.- ' x.x.U @ X.$X0 - * 2 5 & l - 5 2 - 3 5 b 5 - # 7 ",
"# @ # 2 * - * 4 7 2 * # 3 # - - o # 2 X.:.M ;X# h.~ - m.P.f oX5 @ o s F [ z.o ' x.x.U X #.$Xw * O & 5 5 5 5 - - 7 O 5 2 - o # * ",
"3 - - 3 2 - - w 2 - - 6 0 3 x 6 * 7 o.7 @ M >Xo ` _ @ S J.g oX0 ; - # 8 9.z.+ ' x.x.U - z r.v 4 * 7 %.w # @ # # - * * @ 2 # 2 2 ",
"k 7 # 7 w 3 7 2 & # k 0 3 v w # 2 l c 7 - N >X- 2.E # S J.m oXk w 3 @ H c.z.# ' x.x.^ 2 - l 6 # 2 l v t ; - 5 0 3 3 2 - 3 3 2 6 ",
"v v O 6 0 - 2 - & 3 7 2 * * * # 0 6 3 - 2 N >X# 2.Y # S J.g oXw l l X K x.z.@ ' x.x.W - # # * # 0 w 4 - 3 - 6 3 2 * - * 2 * 3 4 ",
"0 0 7 3 2 - 2 # & * * 2 2 * # - | k 3 - X ..>X- 7.E # S J.g oXw 5 5 3 a k.z.@ / x.x.Q $ - * # 2 0 7 7 2 X 4 o.6 | 3 2 * 3 # 0 5 ",
"4 2 4 p 0 X 2 0 4 p 3 + w 7 0 * $Xe.* 2 2 X.>X- 2.Y o S J.g oXd 3 - 3 7 a z.@ ' x.x.W X 0 7 t * * * - 4 3 7 - 7 4 # # # - # 7 4 ",
"- 0 t t | * 2 7 2 3 v # i 4 2 - $Xr.3 7 y X.>X# 7.R 3 n.J.Z oXd & 6 6 4 &.z.# ' x.x.=.o y 3 2 2 0 4 6 y k 7 7 - 0 7 p w 7 0 ; 7 ",
"- 4 2 7 # X * 2 2 - & * - * - 7 $Xy.2 2 2 ..1X# 2.R 3 M.I.m oX; * 3 - 3 1 z.o ' x.x.Q @ $ 0 _.0 0 p 7 3 3 $ 5 2 6 6 y 4 2 2 # @ ",
"- 2 # - 3 * - # 2 * 3 3 6 9 * * $Xe.% y 6 w :.@ 7.R - s D V %Xw * - # * H z.+ / x.x.W - 3 N $X- 2 3 $ l y 2 - & 3 w 3 3 4 3 - 2 ",
"0 * - k 7 w w 3 o 2 6 6 4 4 2 2 $Xw.- ; y - * # 8.( - p 2 N $XN 4 & * w H x.- ' 5.9.W 2 2 v XX5 7 - 3 5 i 2 2 - 3 0 4 v 6 2 7 x ",
"3 - p 4 7 0 w t # p p c x 0 3 v $Xy.w * # 2 - 3 k.*.6 - 2 X.$Xk ; * w 3 a f.- 1.v.b.! 0 w N XXv O i i - # 2 2 0 0 { k 3 7 5 k 6 ",
"2 ; %.} 2 2 - 3 - 0 5 v w p w 0 $Xr.p p 3 # 5 3 k.^ - > , M <Xz - - %.v - - # <.R.^.T d 5 | +Xw & 7 x l 5 # 0 0 | 3 3 2 - - 2 w ",
"2 & v k * - - - 2 0 6 p l i 3 7 $Xu.w 2 B = 2 w l.^ = L 7.v ;Xd - # v k * # # <.T.~.T 5 w ..+X0 * i k 5 N - 5 l %.2 2 - - - k 2 ",
"3 # 0 2 7 * 3 4 - 4 6 t y 0 w 6 $Xi.p ; - # 5 2 k.^ # I 7.5 ;XC 2 # 0 2 5 # - 3.T.~.T 3 7 w | w - 7 x 2 - # 0 7 w 2 - 2 @ . 4 M ",
"; 2 7 o.k 7 y 2 * 7 - 7 6 2 z v C d - 5 ; - 2 w k.^ @ L 8.k ;XX.- - 7 o.k 3 3 <.U.!.Y 2 3 2 z v O - 2 7 ; - 7 l 2 2 * - X.& k X.",
"; 0 y 7 * 2 2 - x 7 # - 3 - z - - - # | 3 5 # & k.*.; P 7.v ;X& = 7 0 7 * - = 2.,.t.R # - - z 2 - - # | 3 7 & - @ v w k p 2 - ; ",
"k 7 - * 2 # @ 0 4 0 v - - - 2 3 4 2 7 2 - - 0 p k.*.3 L 7.k >X).| 3 - * 2 # + j.1 ( f.# = * 2 3 7 3 7 2 - ; p x 5 c k ; ; 2 @ - ",
"p 5 - * 3 k - 3 k w k k - @ p k k y k 3 @ p 7 ; k.^ $ J 7.- ,X$X:.; - * 2 y # j.K ' d.0 * @ p k k y k 3 @ k 0 5 3 w 3 - 2 # X 0 ",
"2 $ # * 6 p 2 3 w 7 2 3 - 4 o.%.....y w # y k = k.! # L 7.w ,X$X..# # * 7 w * k.K ' ] - - 3 o.%.....y w # p x ; 2 2 2 2 7 3 - 2 ",
"2 # i # 7 2 7 5 w 4 4 $ # 4 l k 3 5 5 6 # 4 5 $ k.W - P 7.5 >X$X..# p # 4 - 5 g.H ' ] # # 3 l k 3 5 5 6 # 7 6 - - - 0 7 2 - y - ",
"* - 2 * 4 2 v - 7 0 2 - - 0 k - # - 7 - @ # * # k.^ - L 0.# 7 $X#.* - * 4 2 z * 2 g.' * * 0 k - # - 7 - @ & - * * 6 6 2 - - 3 X ",
"l 4 2 # x 3 * o 2 w - - * w p 7 - - 4 # # 4 5 - k.^ @ G 0.& @ &Xw.3 * # x 3 # X - j.' # # w p 7 - - 4 # # 6 0 3 3 6 - # # 2 * - ",
"p w 2 - @ 2 # # # 3 - & 3 - y - - # # * 7 7 4 3 k.d.# P 9.2 # q.N 7 ; - @ 2 @ # @ z.g.# 2 - y - - # # * 7 0 0 w 3 @.2 0 7 0 - 2 ",
"* d w - . * i 0 p - @ 3 y p @ @ - 2 0 p y 6 2 l k.! 2 I z.- p 3 * d w - . * i 4 0 Q G 2 w y @ @ - 2 0 p y 0 3 } 7 - y 3 4 3 v 7 ",
"- z 3 & @ 3 0 i 3 7 # 0 3 l 2 3 0 0 0 3 p c 3 3 k.^ - L z.@ @ & - z 3 & @ 3 6 i 2 3 # 6 2 l 2 3 0 0 0 3 p v 7 6 # 0 7 - * # # * ",
"- * - 7 i * 2 2 3 3 3 3 2 4 3 - 2 7 7 2 2 7 # # k.^ # J z.# o # * & & 5 i * ; 2 3 2 2 2 2 4 3 - 2 7 7 2 2 6 # # 0 5 2 * # # @ & ",
"7 ; 0 7 7 4 3 2 * - # 6 * 3 - c # 7 7 - 5 2 # & k.! o G z.2 # # 5 - f f 3 3 3 2 * - # 6 * 3 - c # 7 7 - 5 5 # - 0 - & # # 7 * & ",
"2 - l 7 0 - 0 2 2 # - 2 # 3 - 2 2 2 3 - - - & # k.W X -.z.w - 2 - & A.E.5 * 0 2 2 # - 2 # 3 - 2 2 2 3 - - - - & 2 - # o.x k 2 3 ",
"* - 3 0 * 0 3 i 2 2 0 i t o 2 7 k x w & 2 w w 5 k.^ - Q z.@ 3 c # & Z.R.# 7 3 i 2 2 0 i t o 2 7 k x w & 2 w i w 0 0 0 x 7 # 7 v ",
"& - - - - - * * d i 7 z 2 p 4 3 w v x - w w - & k.*.; P z.# 3 4 # * D.R.& * * * d i 7 z 2 p 4 3 w v x - w p - - - z 0 4 # # 7 6 ",
"& - @ 0 2 - - o c 3 - 2 i w * * - 2 - 5 p - ; # k.! # ! x.# 2 7 # & A N.- * - o c 3 - 2 i w * * - 2 - 5 p - 2 - - - - k 5 # 3 7 ",
"- & X - 7 * w p 3 - 2 - 7 2 2 2 * 2 5 & l - 2 - x.' -  .^ - # 5 - # X * 4 # w p 3 - 2 - 7 2 2 2 * 2 5 & l - 5 2 - 3 5 b 5 - # 7 ",
"# @ # 2 * - * 4 7 2 * # 3 # - - @ # 5 5 5 5 * * / G 2 ; # X # & # @ # - * - * 4 7 2 * # 3 # - - @ # 5 5 5 5 - - 7 O 5 2 - o # * ",
"3 - - 3 2 - - w 2 - - 6 0 3 x 6 * 7 %.w # @ # # * & * O - # - 2 3 ; - 3 2 - - w 2 - - 6 0 3 x 6 * 7 %.w # @ # # - * * @ 2 # 2 2 ",
"k 7 # 7 w 3 7 2 & # k 0 3 v w # 2 l v t ; - 5 0 2 3 2 - 3 3 2 6 k 7 # 7 w 3 7 2 & # k 0 3 v w # 2 l v t ; - 5 0 3 3 2 - 3 3 2 6 "
};
