/* XPM */
static char *xpm_[] = {
/* columns rows colors chars-per-pixel */
"64 64 239 2 ",
"   c #3F3021",
".  c #463424",
"X  c #4A3726",
"o  c #4E3A2A",
"O  c #4C3827",
"+  c #543E2C",
"@  c #583F2C",
"#  c #663A14",
"$  c #794701",
"%  c #6E4C0C",
"&  c #56412E",
"*  c #5A422E",
"=  c #5D4431",
"-  c #5E4834",
";  c #5E4B3F",
":  c #67482B",
">  c #614633",
",  c #644935",
"<  c #694D36",
"1  c #664C38",
"2  c #6A4E39",
"3  c #734A33",
"4  c #6D513A",
"5  c #6F513C",
"6  c #6D513B",
"7  c #72543E",
"8  c #72543D",
"9  c #7A5839",
"0  c #704C29",
"q  c #5D4302",
"w  c #0F014F",
"e  c #2C175B",
"r  c #3C2D56",
"t  c #3D315B",
"y  c #231961",
"u  c #6E384D",
"i  c #6E5441",
"p  c #69584A",
"a  c #745641",
"s  c #765942",
"d  c #7B5B43",
"f  c #745C4B",
"g  c #7D5D48",
"h  c #6B5E5B",
"j  c #714D44",
"k  c #7D614A",
"l  c #76614F",
"z  c #7A6557",
"x  c #6A6153",
"c  c #595A7A",
"v  c #776961",
"b  c #696374",
"n  c #635F75",
"m  c #8E0D0B",
"M  c #AC1A10",
"N  c #B4240E",
"B  c #BD2D17",
"V  c #98352A",
"C  c #AB3C30",
"Z  c #C40300",
"A  c #C50D02",
"S  c #CE1D05",
"D  c #CB1201",
"F  c #D31501",
"G  c #CA2306",
"H  c #D52B0C",
"J  c #D5260A",
"K  c #DC310B",
"L  c #D93B15",
"P  c #CF3114",
"I  c #E23407",
"U  c #E11C00",
"Y  c #844F05",
"T  c #906513",
"R  c #864C35",
"E  c #855A37",
"W  c #99492B",
"Q  c #B74839",
"!  c #B1452D",
"~  c #8E623C",
"^  c #96643B",
"/  c #B8763D",
"(  c #A96A3A",
")  c #DD4519",
"_  c #E14E1E",
"`  c #F95910",
"'  c #FA6610",
"]  c #C55237",
"[  c #E45522",
"{  c #E55A24",
"}  c #C67D3E",
"|  c #C17223",
" . c #EB692B",
".. c #E96429",
"X. c #F57827",
"o. c #F07833",
"O. c #BF3942",
"+. c #CC3A4C",
"@. c #805F4A",
"#. c #845E47",
"$. c #BA584C",
"%. c #B34F4F",
"&. c #83634C",
"*. c #826047",
"=. c #8C6B53",
"-. c #866A55",
";. c #93735B",
":. c #966C4A",
">. c #AE7448",
",. c #877466",
"<. c #947A66",
"1. c #887C77",
"2. c #B17469",
"3. c #C56756",
"4. c #CA794C",
"5. c #CB7766",
"6. c #C5766A",
"7. c #ED7F48",
"8. c #F98B39",
"9. c #FF9B38",
"0. c #FA932D",
"q. c #FFA33C",
"w. c #FFB330",
"e. c #E8912D",
"r. c #978678",
"t. c #9F8169",
"y. c #AC8F73",
"u. c #BF855E",
"i. c #D38440",
"p. c #D58A44",
"a. c #CD8A44",
"s. c #EC9343",
"d. c #FD9542",
"f. c #FE9C45",
"g. c #F89A47",
"h. c #F88D45",
"j. c #FFAC4D",
"k. c #FDA449",
"l. c #FFB14E",
"z. c #FFBD48",
"x. c #FFB452",
"c. c #FFBD55",
"v. c #FDAD5A",
"b. c #D58977",
"n. c #CD8879",
"m. c #F3A878",
"M. c #FFC55A",
"N. c #687095",
"B. c #5A6BA5",
"V. c #1A5AF4",
"C. c #3373FF",
"Z. c #1E5CE0",
"A. c #507DED",
"S. c #5C6DC4",
"D. c #885495",
"F. c #788DB5",
"G. c #2E85F9",
"H. c #6B8BC7",
"J. c #538AFF",
"K. c #5393FB",
"L. c #6D8CEC",
"P. c #628CFF",
"I. c #7591EE",
"U. c #998B82",
"Y. c #9E928A",
"T. c #8C898B",
"R. c #A79B94",
"E. c #A89287",
"W. c #ABA19B",
"Q. c #B8A395",
"!. c #8393B8",
"~. c #ACA7A4",
"^. c #B2ABA7",
"/. c #BAB8B9",
"(. c #A19AB2",
"). c #C79685",
"_. c #DA9A86",
"`. c #C8989A",
"'. c #D1AA96",
"]. c #E4A993",
"[. c #EDB59A",
"{. c #D1A9A4",
"}. c #D6B3B0",
"|. c #CCB4AD",
" X c #F2BDA7",
".X c #F7C6AB",
"XX c #F4CDB5",
"oX c #FEDABE",
"OX c #FBD6BB",
"+X c #EACDB3",
"@X c #FFE9B8",
"#X c #FFF2B9",
"$X c #FFE3AF",
"%X c #CCC4B0",
"&X c #849ACA",
"*X c #8AA2CF",
"=X c #96ABD3",
"-X c #9EB2D6",
";X c #8EA5D0",
":X c #A2B5D8",
">X c #A8B7DA",
",X c #B4B7D1",
"<X c #88A2EF",
"1X c #AAB5E0",
"2X c #B8C7E1",
"3X c #B1C1DE",
"4X c #D6D9DD",
"5X c #CACBCB",
"6X c #FEDCC1",
"7X c #F2D6C7",
"8X c #E8D8D2",
"9X c #FFE2C6",
"0X c #FDE6CA",
"qX c #FFEBCD",
"wX c #FBE6C6",
"eX c #FFEED2",
"rX c #F4EADB",
"tX c #FFFBDB",
"yX c #FFF3D5",
"uX c #F0EACC",
"iX c #C5D2E6",
"pX c #CCD7E9",
"aX c #D4DDEC",
"sX c #DADEE4",
"dX c #C1CEE4",
"fX c #DCE2EB",
"gX c #DBE1E8",
"hX c #DEE6F1",
"jX c #DEEAF8",
"kX c #E6E8EA",
"lX c #FFFFE4",
"zX c #E3EAF2",
"xX c #E9EEF4",
"cX c #E0E7F1",
"vX c #EDF2F6",
"bX c #E8FFFF",
"nX c #E4F6FE",
"mX c #F4F7F9",
"MX c #EEF0E9",
/* pixels */
"g g O 2 4 = > = & , 2 > * * * + 4 5 < = , = 2 , > * = * > * , < g g O 2 4 = > = & , 2 > * * * + 8 5 < = , = 2 , > * = * > * , < ",
"4 4 2 , > = > + & * * > > * + > 4 2 2 > . < =.2 &., > * , + 4 < 4 4 2 , > = > + & * * > > * + > 4 2 2 > . < =.2 &., > * , + 4 < ",
"< > < 8 4 . > 4 < 8 , O 5 4 8 * * * = < , 2 = 2 < + + + = + 2 < < > < 8 4 . > 4 < 8 , O 5 4 8 * * * = < , 2 = 2 < + + + = + 2 < ",
"= 4 8 8 &.* > 2 > , g + 7 < , > 8 < 2 8 a 2 2 = 4 2 8 5 2 4 - 2 = 4 8 8 &.* > 2 > , g + 7 < , > 8 < 2 8 a 2 2 = 4 2 8 5 2 4 - 2 ",
"= < > 2 + . * > > = & * = = = 8 8 8 2 , , @ 1 > 2 2 8 < > > + o = < > 2 + . * > > = & * = = = 8 8 7 2 , , @ 1 > 2 2 8 < > > + o ",
"= > + = , * = + > * , , 2 8 = > , < @ s 8 > = & , 5 , , 1 , = > = > + = , * = + > * , , 2 8 = > , < @ s 8 > = & , 5 , , 1 , = > ",
"4 * = a 2 5 5 , X > 2 2 < 4 , 6 4 > , 1 7 > > = , 4 < g 2 = 2 d 4 * = a 2 5 5 , X > 2 2 < 4 , 6 4 > , 1 7 > > = , 4 < g 2 = 2 d ",
", = 8 < 2 4 5 8 + 8 8 d d 8 2 &.o s 7 = + > > 4 4 #.a , 2 1 i 2 , = 8 < 2 4 5 8 + 8 8 d d 8 2 &.o s 7 = + > > 4 4 #.a , 2 1 i 2 ",
"> - ;.@.> > = , = 4 1 g 5 7 a U.4X4 d s < + ^.fXcXfXfX5X= = > 5 > - ;.@.> > = , = 4 1 g 5 7 a 7 * 4 d s < + 4 4 &., , > = = > 5 ",
"> & g a * = = = > 4 2 8 s 7 ,.fXgXa a 1 k ~.zXxXxXzXgXz = - a > > & g a * = = = > 4 2 8 s 7 < 8 = a a 1 k = < s ;.> > = = = a > ",
", + 4 > 2 * , < = , 2 8 5 <.sXaX(.2 d > ^.zXmX2X>X5Xf > o   < k , + 4 > 2 * , < = , 2 8 8 8 8 8 = 2 d > = + 4 2 5 > = > o   < k ",
"- > 2 =.a 2 8 > * 2 = 2 U.4XmXaXF.= > ^.zXmX2X:XaX|.* = -.& a -.- > 2 =.a 2 8 > * 2 = 2 2 , s k o = > 2 - = 2 s > > * = -.& a -.",
"- 4 8 2 * > > = d 2 + = /.xXfX:XN.= W.zXxX2X:XfX5Xr.5 a 8 > = - - 4 8 2 * > > = d 2 + = , = s > = = + &., < & = o d 5 a 8 > = - ",
"a 2 = * > + o 4 < 4 g = ~.mX2X&X,XR.xXzXxX2XaXmX^.s a - - > o = a 2 = * > + o 4 < 4 g = = = > , 2 , 2 > = = 8 d > s a - - > o = ",
"8 1 = * , a = , U.5 a a ~.mX2X-XmXxXzXR.U.W.R.Y.-.5 , = > + . 4 8 1 = * , a = , a 5 a a = o 8 a a 8 a , o a 4 1 , 5 , = > + . 4 ",
"> @ + * 2 8 > , zXR.> , ^.vXiX3XxXvXvXz ; l z p p h h h v ,.,.,.> @ + * 2 8 > , 5 2 > , = < =.;.-.-.8 5 + 8 d - > > > > 2 , = > ",
"> + 7 + 2 > 2 1 cXhX1.@ Y.zXxXvXhXaXpX;X&X&X&X;X:X:X>X:X>XhXxXzXW.v -.+ 2 > 2 1 5 < < @ + < s a , 1 1 2 + 2 2 = = = 4 2 > = 8 = ",
"* = > * < > g = fX:XH.v Y.zXzXvXaX-X-X-X-X-X=XiXmXzXzXzXzXzXzXsX4XkXU.* < > g = 2 4 > = = 4 a = + = 2 = o & = * * 2 2 > = = , . ",
"s < > + d , * X fX-X&XiXvXzXzXzXzXhXhXzXzXzXcXzXxXxXxXxXxXzXxXv k s 1 + d 2 = o 6 5 = = * 5 8 2 = = < + + 2 4 , , 2 = + + > * = ",
"8 5 > = o > + + fX:X*X;XiXvXzXzXzXxXxXxXxXxXxXzXzXzXzXzXxXzX>X!.!.!.!.F.-XgXsXsXgXl = & , = 8 = = + + * 2 4 4 5 , =.> 4 2 4 = > ",
"* i 5 =   * 7 4 fXfXaXpXfXzXzXzXzXzXzXzXzXzXzXvXiX=X-X-X-X-X*X*X&X2XzXaXfXzXzXzXr.1 o , 8 8 o o = > 4 8 8 4 , @.2 = 8 , < , d 2 ",
"= s , & O , 4 7 zXxXvXvXxXzXzXzXzXzXzXzXzXzXzXxXaXdXiXiXiXiXpXpXpXcXvXvXxXsX,.<., 2 + 5 , s > , 4 4 4 , 8 g 2 2 + 4 2 = * + + * ",
"= * = 2 s * > > r.zXzXzXzXzXzXzXzXzXzXzXzXzXzXcXxXvXvXvXvXvXvXvXvXxX~.-.,.2 > , , , > , > < , = > 2 2 > > 2 + + 4 2 > * + + o & ",
"2 - 4 2 2 < , > * 1.U.sXzXzXzXzXzXzXzXzXzXcXbXnXjXjXnXbXbXbXbXbXnXjX,XU.Y.^.^.> * = + 2 * , = d + 2 2 = 1 1 + = 4 = & + + 2 * & ",
"> = s 2 4 = 4 > > + = l r.U.U.W.zXzXcXzXbXbX|.}.MXMX8X{.}.}.`.`.8XMX8XxXbX5X/.> > + = > + , * > > > , = = = = & > = + =.d a > , ",
"* = > 4 * 4 , 7 > > r.U.,.p z U.zXzXzXjX}.8X_.m.qXqX[.! Q C 3.3.[.0X@XXXU.4 , t.<.<.t.s 8 X > 2 a d 5 & > 5 7 5 4 4 2 d 2 + 2 g ",
"& = = = = = * * i a ^.5XcXzXzXzXzXzXjXkX5.].tX0XoXeX.X$.%.5.6XtX9XOXlX].V 3 #.0X6X6X6X).a 8 < , 5 g d = 5 8 = = = s 4 < + + 2 2 ",
"& = o 4 > = = X g z l f /.zXzXzXzXzXkX6X9X6X6X6XoXyX.XQ 5.9X0X6X9XeXwXb.Q Q 3.9XeX6X6X6Xy.5 * * = > = 1 8 = > = = = = a 1 + , 2 ",
"= & . = 2 * 5 8 , 5XfXzXzXzXzXzXjXkX6XoX6X6X6X6X6X0X].5.9X0X6X9XOXwX_.$.3.$.5.OX6X6X6X6Xy.> > , * > < & s = 1 > = , 1 f 1 = + 2 ",
"+ o + > * = * < 2 i i /.zXzXzXzXjXkX6XoX6X6X6X6XeX].5.6X0X6X9XqXb.Q _.wX0X X$.3.3..XqX@Xr.+ = = o + 1 1 1 1 = = 2 O < > = X + * ",
", = = , > = = 5 > = = s z f R.zXjXkX6XoX6X6X6X6X9XXX.X0X6X6XqX5._.+XOXeXtXXX$.Q ] .XqX1XA.B.d 2 * 2 ;.5 + o + + = * * o > + > > ",
"a 2 + 2 5 , 2 > & + a 4 , g 8 z z <.<.oX6X6X6X6XoX9XqX6X9X6X5.b.wXyXqXqXtXXX] j S.I.<XP.C.B.5 + > s g 8 - = 1 4 , , > = , , > 2 ",
"g g O 2 4 = > = & , 2 > * * * + 4 5 < =.6X6X6X6X6X6X6X6X9X6X].6XqXqX[.5.n.$.3 = G.C.C.C.<X%Xt.+ 4 5 < = , = 2 , > * = * > * , < ",
"4 4 2 , > = > + & * * > > * + > 4 2 2 > z oXyXtXyXtXeXoXoX6XeX9XeXlXb.m 5.).> + ,X,X,X>X7X#X'.> 4 2 2 > . < =.2 &., > * , + 4 < ",
"< > < 8 4 . > 4 < 8 , O 5 4 8 * * * = < , &.2.n._.n.b.9X6X6XyXlX].XX0X$.%.2.> 4 #X@X@X#X@X6X}.* * * = < , 2 = 2 < + + + = + 2 < ",
"= 4 8 8 &.* > 2 > , g + 7 < , > 8 < 2 8 y.y.2.V m V ).0X9X6X_.).V C 8XrX2.2.,.2 E.6X6X6X+X).t., 8 < 2 8 a 2 2 = 4 2 8 5 2 4 - 2 ",
"= < > 2 + . * > > = & * = = = 8 8 8 2 , '.+XlX[.%.].tX6X9X6X6.$.n.2._.#X#X#X$X~ > Q.{.'.-.* = 8 8 8 2 , , @ 1 > 2 2 8 < > > + o ",
"= > + = , * = + > * , , 2 8 = > > < @ s 8 > r.%X8XtXeXeXeXyXwX@X@XtXm.' X.X.X.' > * , , 4 4 > , , < @ s 8 > = & , 5 , , 1 , = > ",
"4 * = a 2 5 5 , X > 2 2 < 4 , 6 4 > 1 1 7 3 3 3 2.OX.X.X.X Xh.X.8.q.` F I I H J 0 9 E 8 < 2 , 6 4 > , 1 7 > > = , 4 < g 2 = 2 d ",
", = 8 < 2 4 5 8 + 8 8 d d 8 2 &.o s a = + N A A G P H H K K K K H G G A L g.k.k.k.f.d.>.d 8 2 &.o s 7 = + > > 4 4 #.a , 2 1 a 2 ",
"> - ;.@.> > = , = 4 1 g 5 7 a 7 * 4 d s < @ 3 3 #.V D H 8.8.8.9.u w e e y t > 3 4 E 9 &.5 7 7 7 * 4 d s < + 4 4 &., , > = = > 5 ",
"> & g a * = = = > 4 2 8 s 7 < 8 = a a 1 k = < W B N U N r r r r w Z.K.G.G.S.M = > 4 2 8 s 7 < 8 * 7 a 1 k = < s ;.> > = = = a > ",
", + 4 > 2 * , < = < 2 8 8 8 8 8 = 2 d > / p.p.8.o.o.0.4.V.V.V.V.Z.D.+.%.%.O.F N M , 2 8 8 8 8 8 = 2 d > = + 4 2 5 > = > o   < k ",
"- > 2 =.a 2 8 > * 2 = 2 2 , s k o } } i.f.f.f.j.j.j.j.v.{.{.{.{.|.7.` ' ' ' o.o. .i.a.4.E , s k o = > 2 - = 2 s > > * = -.& a -.",
"- 4 8 2 * > > = d 2 + = , = *./ } f.f.f.j.x.l.l.l.l.x.l.w.w.w.w.w.z.M.M.M.M.M.M.c.j.k.k.k.i.p.i./ = + &., 2 & = o d 5 a 8 > = - ",
"a 2 = * > + o 4 < 4 g = = < i.f.f.f.f.f..._ [ [ [ [ [ {  . . . . . . . . . . ...( >.>.^ >.p.i.i.4., 2 > = - 8 d 1 s a - - > o = ",
"8 1 = * , a = , a 5 a a 9 i.f.f.f.f.k.k._ L L L L L ) L Z Z D S S A Z Z Z Z Z Z R R R R = + 8 a a 8 a , o a 4 1 , 5 , = > + . 4 ",
"> @ + * 2 8 > , 5 2 > , } f.f.f.f.f.f.f.j.j.j.j.j.j.x.f.) ) H J G ) { [ [ [ [ { _ L L K ! E >.>.:.-.8 5 + 8 d - > > > > 2 , = > ",
"> + 7 + 2 > 2 1 5 < < @ } f.f.f.f.f.f.f.f.f.f.f.f.f.f.f.j.j.L S S  .k.d.d.d.d.d.d.j.x.x.x.k.f.f.f.~ ~ ^ E ~ ^ E = = 4 2 > = 8 = ",
"* = > * < > g = 2 4 > = / f.f.f.f.f.f.f.f.f.f.f.f.9.9.9.q.q.I F J J J S S S S S S o.g.8.s.s.s.s.s.g.g.g.g.g.g.s.* 2 2 > > = , . ",
"s < > + d , * X > 5 = = * >.f.f.f.f.f.f.f.f.f.f.f.g.f.f.k.f.L S H J J H J H H H J H H S W 9 d 8 < < 8 * > 8 9 2 , 2 = + + > * = ",
"8 5 > = o > + + + , = & , = 9 ^ f.f.f.f.f.f.f.0.).K.L.L.L.L.L.9 Y q | k.9.d.d.d.f.8.8.8.8.s.s.s.i.+ + * 2 4 4 4 , =.> 4 2 4 = > ",
"* i 5 =   * 7 4 8 = o , 8 8 o o 9 9 ~ f.f.f.f.0.(.G.J.J.J.J.K.0 $ % Y T.&XT T T ~ 9 3 E :.:.E E E > 4 8 8 4 , @.2 = 8 , < , d 2 ",
"= s , & O , 4 7 , 2 + 4 , s > , 4 4 4 ~ ^ g.f.9.u.b n N.P.P.P.H.0 $ $ B.A.q q q , 2 + 4 , s > , 4 4 4 , 8 g 2 2 + 4 2 = * + + * ",
"= * = 2 s * > > , , > , > < , = > 2 2 > > ~ ^ ^ E 1 = * c c c P.H.f $ f N.N.$ $ : , > , > < , = > 2 2 > > 2 + + 4 1 > * + + o & ",
"2 - 4 2 2 < , > * = + 2 * , = d + 2 4 = 1 1 + = 4 = & & + 2 * c N.x $ 0 < N.0 0 * = + 2 * , = d + 2 2 = 1 < + = 4 = & + + 2 * & ",
"> = s 2 4 = 4 > > + = > + , = > > > , = = = = & > = + =.d a > , > = s 4 4 = 4 > > + = > + , = > > > , = = = = & > = + =.d a > , ",
"* = , 4 * 4 , 7 > > 4 7 8 X > 2 7 d 5 & > 5 7 5 4 4 4 d 2 + 2 g * = > 4 * 4 , 7 > > 4 7 8 X > 2 a d 5 & > 5 7 5 4 4 4 d 2 + 2 g ",
"& = = = = = * * i 7 2 s > 8 < , 5 g d = 5 8 = = = s 4 < + + 2 2 & = = * = = * * i 7 2 s > 8 < , 5 g d = 5 8 = = = s 4 < + + 2 2 ",
"& = o 4 > = = X d , = > 7 5 * * = > = 1 8 = > = = = = a 1 + , 2 & = o 4 > = = X d , = > 7 5 * * = > = 1 8 = > = = = = a 1 + , 2 ",
"= & . = 2 * 5 8 , = > = 2 > > > * > < & s = 1 > = , 1 f 1 = + 2 = & . = 2 * 5 8 , = > = 2 > > > * > < & s = 1 > = , 1 f 1 = + 2 ",
"+ o + > * = * < 2 > * + , + = = o + 1 1 1 1 = = 2 O < > = X + * + o + > * = * < 2 > * + , + = = o + 1 1 1 1 = = 2 O < > = X + * ",
", = = , > = = 5 > = = 2 4 , d 2 * 2 ;.5 + o + + = * * o > + > > , = = , > = = 5 > = = 2 4 , d 2 * 2 ;.5 + o + + = * * o > + > > ",
"a 2 + 2 5 , 2 > & + a 4 , g 5 + > s g 8 - = 1 4 , , > = , , > 2 a 2 + 2 5 , 2 > & + a 4 , g 5 + > s g 8 - = 1 4 , , > = , , > 2 "
};
