/* XPM */
static char *xpm_[] = {
/* columns rows colors chars-per-pixel */
"64 64 256 2 ",
"   c #030226",
".  c #060A36",
"X  c #0A153B",
"o  c #131839",
"O  c #160232",
"+  c #2D1531",
"@  c #3E3226",
"#  c #292738",
"$  c #382937",
"%  c #39343B",
"&  c #27313A",
"*  c #170F23",
"=  c #571134",
"-  c #76012D",
";  c #6C0031",
":  c #730030",
">  c #681D34",
",  c #4A3726",
"<  c #4E3A2A",
"1  c #483525",
"2  c #543E2C",
"3  c #583F2C",
"4  c #483B38",
"5  c #54293B",
"6  c #6F2E38",
"7  c #7A110F",
"8  c #56402E",
"9  c #5A422E",
"0  c #5D4431",
"q  c #5E4834",
"w  c #59463A",
"e  c #4C413D",
"r  c #614633",
"t  c #644935",
"y  c #694D37",
"u  c #664C39",
"i  c #6A4E39",
"p  c #6D513B",
"a  c #605A3D",
"s  c #72543D",
"d  c #73583F",
"f  c #734F04",
"g  c #031949",
"h  c #171E45",
"j  c #041350",
"k  c #09264A",
"l  c #132B4D",
"z  c #172749",
"x  c #012451",
"c  c #0B2C54",
"v  c #122E53",
"b  c #043959",
"n  c #15334E",
"m  c #2A2B44",
"M  c #382B43",
"N  c #25354A",
"B  c #363846",
"V  c #2B3653",
"C  c #01326A",
"Z  c #3B2A57",
"A  c #473D45",
"S  c #543042",
"D  c #653942",
"F  c #793741",
"G  c #4E2B69",
"H  c #65316B",
"J  c #5D1A5D",
"K  c #104559",
"L  c #354354",
"P  c #00586A",
"I  c #055C79",
"U  c #104B6D",
"Y  c #304A6E",
"T  c #006476",
"R  c #336767",
"E  c #484446",
"W  c #574944",
"Q  c #47465A",
"!  c #535852",
"~  c #68494A",
"^  c #6E5441",
"/  c #745641",
"(  c #765942",
")  c #7A5B44",
"_  c #7D5D49",
"`  c #765B49",
"'  c #6D5152",
"]  c #7D614A",
"[  c #646259",
"{  c #707072",
"}  c #605270",
"|  c #880C14",
" . c #B12313",
".. c #86032A",
"X. c #970325",
"o. c #971630",
"O. c #AF0E24",
"+. c #903431",
"@. c #AB2D2E",
"#. c #A81E1A",
"$. c #DC391D",
"%. c #D02A1D",
"&. c #FC3814",
"*. c #ED3413",
"=. c #CD3621",
"-. c #C41814",
";. c #A24C28",
":. c #F44915",
">. c #EA5328",
",. c #F76E32",
"<. c #D3632E",
"1. c #853A43",
"2. c #8F204B",
"3. c #F02C4D",
"4. c #805F49",
"5. c #934849",
"6. c #A85953",
"7. c #83634C",
"8. c #896A53",
"9. c #94745A",
"0. c #8D6F54",
"q. c #B16F52",
"w. c #B3776E",
"e. c #975468",
"r. c #C55645",
"t. c #D27B5A",
"y. c #FE7A44",
"u. c #E14562",
"i. c #7D8679",
"p. c #FF813D",
"a. c #FF9A2D",
"s. c #FFB938",
"d. c #FDEB33",
"f. c #A08675",
"g. c #D98B51",
"h. c #FE954C",
"j. c #FF9651",
"k. c #FF9C52",
"l. c #F69755",
"z. c #F2854A",
"x. c #FFA958",
"c. c #FFB54F",
"v. c #D78566",
"b. c #CC856A",
"n. c #EA9A73",
"m. c #F2956D",
"M. c #F6A774",
"N. c #ECC460",
"B. c #0B3592",
"V. c #0D38B4",
"C. c #221699",
"Z. c #52278C",
"A. c #602884",
"S. c #004885",
"D. c #036A87",
"F. c #02778A",
"G. c #037794",
"H. c #167487",
"J. c #1C54B0",
"K. c #2B678E",
"L. c #6D778A",
"P. c #596E94",
"I. c #083CC6",
"U. c #0061E1",
"Y. c #4357D9",
"T. c #008494",
"R. c #01899D",
"E. c #178998",
"W. c #2A859A",
"Q. c #3C8093",
"!. c #018AA3",
"~. c #0195A9",
"^. c #1899A5",
"/. c #019CB9",
"(. c #249AA4",
"). c #388FB0",
"_. c #18A4AE",
"`. c #11A8B8",
"'. c #2EA9B3",
"]. c #439393",
"[. c #44ACBB",
"{. c #5E9BAC",
"}. c #2C93C6",
"|. c #00A9C5",
" X c #01B5CB",
".X c #01BAD2",
"XX c #06BBD3",
"oX c #17B3D0",
"OX c #2EB3D1",
"+X c #2D8AF6",
"@X c #3BB3EA",
"#X c #4CB2CB",
"$X c #04C4D9",
"%X c #1CCADA",
"&X c #0ECDDA",
"*X c #33CBD3",
"=X c #04CCE3",
"-X c #0DD5E9",
";X c #2ED9E6",
":X c #16EFF7",
">X c #34E2E9",
",X c #3BEBF2",
"<X c #2AF9FA",
"1X c #37F8FC",
"2X c #26E5EC",
"3X c #4BCDD7",
"4X c #64D3E2",
"5X c #44FFFF",
"6X c #49F8FA",
"7X c #54FFFF",
"8X c #5CFFFF",
"9X c #4BE7E9",
"0X c #62FEFE",
"qX c #6DFEFE",
"wX c #78FFFF",
"eX c #70E7F2",
"rX c #55D1E0",
"tX c #8A898E",
"yX c #B6B19D",
"uX c #B5B3AF",
"iX c #9EA3AC",
"pX c #CCA78D",
"aX c #F5B28D",
"sX c #D2B0A1",
"dX c #D5A18F",
"fX c #B9C7BD",
"gX c #FFC994",
"hX c #D6D0B9",
"jX c #FFDBB8",
"kX c #F1CFB2",
"lX c #FFE6B9",
"zX c #FFF8BD",
"xX c #9FB4CA",
"cX c #CDB5C2",
"vX c #8EDEEE",
"bX c #89FDFE",
"nX c #99FDFE",
"mX c #9EE6F4",
"MX c #ADF8FB",
"NX c #B8D9E0",
"BX c #D0CFCB",
"VX c #F4DCC3",
"CX c #FEEAC6",
"ZX c #FFF3CB",
"AX c #FFFBDA",
"SX c #F1F1CD",
"DX c #CAFFFF",
"FX c #DAFCFD",
"GX c #D4E5E8",
"HX c #FDFCE8",
"JX c #ECFEFF",
"KX c #E4FBFD",
"LX c #FDFFFF",
"PX c #FCFBF7",
"IX c #E9E3E9",
"UX c #C4E4D1",
/* pixels */
"_ _ , i p 0 r 9 8 t i r 9 9 9 2 p s y 0 u 0 i t r 9 0 9 r 9 t y _ _ , i p 0 r 0 8 t i r 9 9 9 2 s p y 0 t 0 i t r 9 0 9 r 9 t y ",
"p p i t r 9 r 2 8 9 9 r r 9 2 r p i i r 1 y 0.i 7.t r 9 t 3 p y p p i t r 9 r 3 8 9 9 r r 9 2 r p i i r 1 y 0.i 7.t r 9 t 3 p y ",
"y r y s p 1 r p y s t , p p s 9 9 9 0 y t i 0 i y 2 3 3 0 2 i y y r y s p 1 r p y s t , p p s 9 9 9 0 y t i 0 i y 2 3 3 0 2 i y ",
"0 p s s 7.9 r i r t _ 2 d y t r s y i s / i i 0 p i s p i p q i 0 p s s 7.9 r y r t _ 2 d y t r s y i s / i i 0 p i s s i p q i ",
"0 y r i 3 1 9 r r 0 8 9 0 0 0 s s s i t t 3 u r i i s y r r 2 < 0 y r i 3 1 9 r r 0 8 9 0 0 0 s s d i t t 3 u r i i s y r r 2 < ",
"0 r 3 0 t 9 0 2 r 9 t t i s r t t y 3 ( s r 0 8 t i t t u t 0 r 0 r 3 0 t 9 0 2 r 9 t t i s 0 r t y 3 ( s r 0 8 t p t t u t 0 r ",
"p 9 0 / i p p t , r i i y p t p p r t u d r r 0 t w X o o X z v l 9 0 / i p s t , r i i y p t p p r t u d r r 0 t p y _ i 0 i ) ",
"t 0 s u i p p s 2 s s ) ) s i 7.< ( d 0 3 r r 4 * L *X3X3X3XW.o w 0 s u i p p s 3 s s ) ) s i 7.< ( d 0 3 r r p p 4./ t i u ^ y ",
"r q 9.4.r r 0 t 0 p u _ p W B B # # # 4 y 2 $ U ^.rX7X2X-X:XG.* $ # M $ + # $ t 0 p u _ p d / d 9 p ) ( y 2 p p 7.t t r 0 0 r p ",
"r 8 _ / 9 0 0 0 r p i s ( E X v W.E.L.} 4 % U %X<X,X%X.X.X;X{.L.L.L.L.K.F.F.P $ $ 4 E E ( d y s 0 / s t ] 0 y ( 9.r r 0 0 0 / r ",
"t 2 p r i 9 t y 0 t i s u L b h *X1XDXIXZ x /.1X;X|.XXwXqXJXLXLXLXLXLXDXqX0X&XI Y K k N s s s s 0 i ) r 0 2 p i p r 0 r < @ y ] ",
"q r i 8./ i s r 9 i 0 i $ G. Xh   '.<XnXPXF.T !.2X5X0XLXLXLXLXLXLXLXLXLXLXFX1X5X7XW.+ i i t ( ] < 0 r i q 0 i ( r r 9 0 8.8 / 8.",
"q p s i 9 r r 0 ) i 2 0 $ D.=X/.. #X:XXXnXPXT `.<X0XLXLXbX7X8X0X0X0X0X0XqX0X6X7XW.% < 0 t 0 ( r 0 0 2 7.t i 8 0 < ) p / s r 0 q ",
"/ i 0 9 r 3 < p y p B 0 % I =X=XT H.*X-X%XnXNXOXeXJXbXbX_.F.T.T.T.T.T.~.T.`.7XK.% u _ 0 w 0 r t i t i r 0 q s ) r ( / q q r < 0 ",
"s u 0 9 t / 0 t / p l M + I $XF.F.b 3X5X|.<XLX#XOXMX<X$XG.).iXiXiX_.*XT P *X%XX u p ( / 0 < s / / s / t < / p u t p t 0 r 2 1 p ",
"r 3 2 9 i s r t p i z U I G.~.(.T.F._.oX.X7XLX4X=X1X%X XrXJXLXKXFX8X>X_.*X1X|.c e u r t 0 y 8.9.8.8.s p 3 s ) q r r r r i t 0 r ",
"r 3 d 2 y r i y p i o /.-X!.(.5X=X=X!.F.$X,XGX[.$X2X XqXJXJXbX:X1X,XF.*X1X|.~.N W i y 3 2 y ( / t u u i 3 i i 0 0 0 p i r 0 s 0 ",
"9 0 r 9 y r _ 0 i p h /.!.(.1X X,X7X7X>X X|.F.P R.=XqXLXqX<X6X6X,X|.,X;X.X~.h 0 i p r q 0 p / 0 3 0 i 0 < 8 0 9 9 i i r 0 0 t 1 ",
"d y r 2 ) t 9 , r p 0 o (.2X.X2XKXLXMX:X|./.&X9XR.Q.LXwX5X5X7X>X X,X~.T F.P   X o z n z 9 p s i 0 0 y 2 3 i p t t i 0 3 2 r 9 0 ",
"s p r 0 < r 2 3 2 t % R 9X:X>XLXMXeX3X$XoXFXDXwX2X[.{.T.F.oX2X%X,X7XNXBXBXBXcXcX4XG.. % t 0 s 0 0 2 2 9 i p p p t 0.r p i p 0 r ",
"9 ^ p 0 @ 9 d p s 0 X >X5XbXKXtXG.G.D.!..XmXLXnX5X>XK ^.(.R.!.XX>X%XvXmXvXmXDXFX4XU @ t s s < < 0 r p s s p t 4.i 0 s t y t ) i ",
"0 ( t 8 < t p d t i X >X<XxXuX  * R ].].OX|.KXMX<X_.R.7X0X(.D..X/./. X X.X-X<X%XN q 2 s t / r t p p p t s _ i i 2 p i 0 9 3 2 9 ",
"0 9 0 i ( 9 r t t t o *XW.  X l v.jXAXCXhX|.JXMX~.I &X6X7X^.F.$XXXXX6X7X6X9X*Xg 4 r q t r y t 0 r i i r r i 3 3 p u r 9 2 3 < 8 ",
"i q p i y y t r 9 0 l v % t 4 l kXZXVXCXhX XLX{.P G.$X6X7X^.D.-X7X6X7X:XG.o k k k k & i 9 t 0 ) 2 i i 0 u u 3 0 p 0 8 3 3 i 9 8 ",
"r 0 ( i p 0 p r r 3 l % 2 t 4 l VXZXjXjXAXJX).D.{ f..X7X`.F.F.F.E.^._.D.g X 6 6.pXBXtX# 3 t 0 r r r t 0 0 0 0 8 r 0 2 0.) / r t ",
"9 0 r p 9 p t d r r E p s , 4 l aXjXAXlXaX{.H.L r.aX<X Xb X G.$X~.x g O = 5 5.aXZXPXuX. s , r i / ) p 8 r p d p p p i ) i 3 i _ ",
"8 0 0 0 0 0 9 9 ^ / i ( r s w B D aXUXtX[ ].NXe.=.yX$XN ~ $ b !.D.D { pXm.r.+.CXAXzXf.g r s y t p _ ) 0 p s 0 0 0 ( p y 3 3 i i ",
"8 0 < p r 0 0 , ) t 0 r d p 9 9 . sXiXb /.LXPXw.r.f.K @.m.[ g g V aXzXSXpX5.} BXZXn.D m d p 9 9 0 r 0 u s 0 r 0 0 0 0 / u 3 t i ",
"0 8 1 0 i 9 p s t 0 r 0 i r 0 w z uXgXi.-XPXn.t.n.q.+.n.M.A S.OX#XVXn.D . U +X+XdXp m 0 i r r r 9 r y 8 ( 0 u r 0 t u ` u 0 2 i ",
"3 < 2 r 9 0 9 y i r 9 2 t 3 4 l kXZXjXCXkXv.v.v.n.q.1.n.M.A S.@X).c   tXSXBX+X+XY % 0 2 t 2 0 0 < 3 u u u u 0 0 i < y r 0 , 3 9 ",
"t 0 0 t r 0 0 p r 0 0 i p r / e Q kXAXCXkXt.v.v.n.b.F 1.1.@.=.~ U yXfXdXaXHXBXY % 0 0 i p t ) i 9 i 9.p 2 < 2 3 0 9 9 < r 2 r r ",
"/ i 3 i p t i r 8 2 / p t _ p 3 $ Q hXHXkXt.t.n.b.5.1.6.e.>.&.| b HXzXaXkXZXn.o 4 2 / p t _ p 3 r ( _ s q 0 u p t t r 0 t t r i ",
"_ _ , i p 0 r 0 8 t i r 9 9 9 2 p 4 Q hXZXaXm.v.5.> 5.M.M.6.6.;.S tX' sXAXgXaXx 4 t i r 9 8 9 2 p p y 0 t 0 i t r 9 0 9 r 9 t y ",
"p p i t r 0 r 3 8 9 9 r r 9 2 r p i $ L BXhXb.F 5 D 5.t.n.J.P.a.:..   tXpXw.hXQ % 9 8 r r 9 2 r p i i r 1 y 0.i 7.t r 9 t 3 p y ",
"y r y s p 1 r p y s t , p p s 9 9 9 0 e k k k k x m +.1.).U.J :.j.$.&.6 x g z k.' B t , p p s 9 9 9 0 y t i 0 i y 2 3 3 0 2 i y ",
"0 p s s 7.9 r i r t _ 2 d y t r s y i s ^ w w w B 5 >.).oXJ.B.H :.h.:.L.U.C. .*.h.[ B 2 d y t r s y i s / i i 0 p i s p i p q i ",
"0 y r i 3 1 9 r r 0 8 9 0 0 0 s s s i t t 3 u r A . + r.,.G C.V.P.x.:.A.Y.g.p.,.>.,.8.m 0 0 0 s s s i t t 3 u r i i s y r r 2 < ",
"0 r 3 0 t 9 0 2 r 9 t t i s 0 r t y 3 ( s r 0 % % { L.7 7 tXxXw.yXc.e.A.b.c.x.x.,.,.6.x i s r t t y 3 ( s r 0 8 t p t t u t 0 r ",
"p 9 0 / i p p t , r i i y p t p p r t u d r 4 Y q.gXAXc h xXhX<.<.q.Z.w.s.j.j.h.N.,.| c y p t p p r t u d r r 0 t p y _ i 0 i ) ",
"t 0 s y i p p s 3 s s ) ) s i 7.< ( d 0 3 r . hXlXaXsX1.m.~ . l j j  .,.x.j.j.j.l.>.6 N ) s i 7.< ( d 0 3 r r p p 4./ t i u / i ",
"r q 9.4.r r 0 t 0 p u _ p d / d 9 p ) ( y 2 X yXHXsX> 1.m.' % i x x #.,.x.j.k.x.@.+ N _ s d / d 9 p ) ( y 2 p p 7.t t r 0 0 r p ",
"r 8 _ / 9 0 0 0 r p i s ( d y s 0 / / u ] 0 w L V L.jXm.Q 4 W z N g.z.h.k.j.k.x.O.O b V ) ) y s 0 / / u ] 0 y ( 9.r r 0 0 0 / r ",
"t 2 p r i 9 t y 0 t i s s s s s 0 i ) r 0 2 p w 4 B L.[ & @ e j n x.x.k.h.x.x.>.X.= +.+.N s s s 0 i ) r q 2 p i p r 0 r < @ y ] ",
"q r i 8./ i s r 9 i 0 i i t ( ] < 0 r i q 0 i ( r q # & 8.4 W ~ 5 j.k.j.x.k.>.,.o.- O.%.6 % E A # @ r i q 0 i ( r r 9 0 8.8 / 8.",
"q p s i 9 r r 0 ) i 2 0 t 0 ( r 0 0 2 7.t i 8 0 < ) p s s h 9.y...k.x.x.l.,.>.k.@.- ; X.&.Y S.R ! C ! 7.t i 8 0 < ) p / s r 0 q ",
"/ i 0 9 r 3 < p y p _ 0 w 0 r t i t i r 0 q s ) r ( / r w m 9.y.o.z.j.k.>.>.k.$.X.- : X.$.{.+XN.d.OX}.! 0 q s ) u ( / q q r < 0 ",
"s u 0 9 t / 0 t / p / / 0 < s / / s / t < / p u t p t 0 k q.x.x.z.: %.:.$.:.$...- ..: ..$.3.3.3.,.d.}.}.< / p u t p t 0 r 2 1 p ",
"r 3 2 9 i s r t p i r t 0 y 8.9.8.8.s p 3 s ) q r r r r g q.c.x.h.-.+ l n M O.: : ; ..$.&.S M Z B a u.u.3 s ) q r r r r i t 0 r ",
"r 3 d 2 i r i u p y y 3 2 y ( / t u u i 3 i i 0 0 0 p i g q.c.j.j.p.+.+ > 6 j %.*.%.&.:.5 B E E B M 6 +.3 i i 0 0 0 p i r 0 s 0 ",
"9 0 r 9 y r _ 0 i p r 0 0 p / 0 3 0 i 0 < 8 0 9 9 i i r B ~ g.c.x.c.,.O.O.=.E 6 +.;.@.6 B s d 0 3 0 N N < 8 0 9 9 i i r r 0 t 1 ",
"( y r 2 ) t 9 , r p 0 0 9 p s i 0 0 y 2 3 i p t t i 0 3 2 % E g.p.z.>.O.; X.$.M C C x k 4 W W w 0 0 y 2 3 i i t t i 0 3 2 r 9 0 ",
"s p r 0 < r 2 3 2 t 0 8 t 0 s 0 0 2 2 9 i p p p t 0.r p i p % m $.%.$.O.: : ..&.} I.B.k z c c B 0 2 2 9 i i i p t 0.r p i p 0 r ",
"9 ^ p 0 @ 9 d p s 0 < t s s < < 0 r p s s p t 4.i 0 s t y t ( e z l - X.: ; ..&.} V.V.Y f B.V.L 0 r p s s p t 4.i 0 s t y t ) i ",
"0 ( t 8 < t p d t i 3 p t ( r t p p p t s _ i i 2 p u 0 9 3 2 9 4 W h o.&.*.$.5 v C G o.;.o.C.Y p p p t s _ i i 2 p u 0 9 3 2 9 ",
"0 9 0 i d 9 0 r t t r t r y t 0 r i i r r i 3 3 p u 0 9 2 3 < 8 0 8 % A +.+.6 B % % $ > @ J 2.G Y i i r r i 3 3 p u 0 9 2 3 < 8 ",
"i q p i y y t r 9 0 2 i 9 t 0 ) 2 i i 0 u u 3 0 p 0 8 3 3 i 9 8 i q p E N N N r 9 0 4 N z B.J 2.G i i 0 u u 3 0 p 0 8 3 3 i 9 8 ",
"r 0 ( i p 0 p r r 3 0 r 3 t 0 r r r t 0 0 0 0 8 r 0 2 0.) / r t r 0 ( p p 0 p r r 3 0 r 3 & B.G | r t 0 0 0 0 8 r 0 2 0.) / r t ",
"9 0 t p 9 p t d r r p d s , r i / ) p 8 r p d p p p i ) i 3 i _ 9 0 r p 9 p t d r r p d s , m l B ) p 8 r p d p p p i ) i 3 i _ ",
"8 0 0 0 0 0 9 9 ^ d i ( r s y t p _ ) 0 p s 0 0 0 ( p y 3 3 i i 8 0 0 0 0 0 9 9 ^ d i ( r s y t p _ ) 0 p s 0 0 0 ( p y 3 3 i i ",
"8 0 < p r 0 0 , ) t 0 r d p 9 9 0 r 0 u s 0 r 0 0 0 0 / u 3 t i 8 0 < p r 0 0 , ) t 0 r d p 9 9 0 r 0 i s 0 r 0 0 0 0 / u 3 t i ",
"0 8 1 0 i 9 p s t 0 r 0 i r r r 9 r y 8 ( 0 u r 0 t u ` u 0 2 i 0 8 1 0 i 9 p s t 0 r 0 i r r r 9 r y 8 ( 0 u r 0 t u ` u 0 2 i ",
"3 < 2 r 9 0 9 y i r 9 2 t 2 0 0 < 3 u u u u 0 0 i < y r 0 , 3 9 3 < 2 r 9 0 9 y i r 9 2 t 2 0 0 < 3 u u u u 0 0 i < y r 0 , 3 9 ",
"t 0 0 t r 0 0 p r 0 0 i p t ) i 9 i 9.p 2 < 2 3 0 9 9 < r 2 r r r 0 0 t r 0 0 p r 0 0 i p t ) i 9 i 9.p 2 < 2 3 0 9 9 < r 2 r r ",
"/ i 3 i p t i r 8 2 / p t _ p 3 r ( _ s q 0 u p t t r 0 t t r i / i 3 i p t i r 8 2 / p t _ p 3 r ( _ s q 0 u p t t r 0 t t r i "
};
