/* XPM */
static char *xpm_[] = {
/* columns rows colors chars-per-pixel */
"64 64 256 2 ",
"   c #14070F",
".  c #080428",
"X  c #030937",
"o  c #09153A",
"O  c #17193A",
"+  c #1A0D25",
"@  c #251C33",
"#  c #350421",
"$  c #3E3020",
"%  c #2A2538",
"&  c #362A37",
"*  c #39363A",
"=  c #12223E",
"-  c #521033",
";  c #7A002D",
":  c #680032",
">  c #691133",
",  c #4A3726",
"<  c #4D3A2A",
"1  c #483625",
"2  c #543E2C",
"3  c #583F2C",
"4  c #473B38",
"5  c #4F2B37",
"6  c #702C36",
"7  c #6B171C",
"8  c #3A433E",
"9  c #56402E",
"0  c #5A422E",
"q  c #5D4431",
"w  c #5E4834",
"e  c #584539",
"r  c #614633",
"t  c #644935",
"y  c #694D37",
"u  c #664C38",
"i  c #6A4E39",
"p  c #6D513B",
"a  c #72543D",
"s  c #73583F",
"d  c #634D1D",
"f  c #041847",
"g  c #08154F",
"h  c #341546",
"j  c #0B274B",
"k  c #16294A",
"l  c #032654",
"z  c #112C52",
"x  c #0A3758",
"c  c #163657",
"v  c #1B314B",
"b  c #272A47",
"n  c #273447",
"m  c #393944",
"M  c #243654",
"N  c #372C49",
"B  c #083169",
"V  c #2A2C78",
"C  c #711050",
"Z  c #443944",
"A  c #542E49",
"S  c #6E3543",
"D  c #6A1668",
"F  c #6D2E7B",
"G  c #2C4557",
"H  c #044A68",
"J  c #1A4966",
"K  c #025669",
"L  c #0B5076",
"P  c #2E5068",
"I  c #006779",
"U  c #14697C",
"Y  c #266277",
"T  c #464346",
"R  c #564945",
"E  c #4E4A55",
"W  c #6E5541",
"Q  c #745641",
"!  c #765942",
"~  c #7A5B44",
"^  c #7C5D48",
"/  c #75594A",
"(  c #6D5052",
")  c #7D614A",
"_  c #726253",
"`  c #50586A",
"'  c #4A7270",
"]  c #73737A",
"[  c #5C5F53",
"{  c #B20E18",
"}  c #9C321F",
"|  c #82002D",
" . c #8D062A",
".. c #9A0628",
"X. c #873934",
"o. c #962C2F",
"O. c #AE352A",
"+. c #9C1B14",
"@. c #D1151A",
"#. c #DA371B",
"$. c #D52A18",
"%. c #F13311",
"&. c #C23224",
"*. c #E53430",
"=. c #9A4900",
"-. c #F84315",
";. c #D14B30",
":. c #EA522D",
">. c #D17631",
",. c #F67135",
"<. c #FF6A19",
"1. c #853C44",
"2. c #953D52",
"3. c #86104A",
"4. c #F12B4F",
"5. c #825E48",
"6. c #914D4C",
"7. c #A4524D",
"8. c #B15D56",
"9. c #83634C",
"0. c #8A6A52",
"q. c #93735B",
"w. c #956B55",
"e. c #B26958",
"r. c #B07C70",
"t. c #8D5E6E",
"y. c #CD7457",
"u. c #E06054",
"i. c #FF8B32",
"p. c #FFB515",
"a. c #FFD62E",
"s. c #B88775",
"d. c #F98948",
"f. c #FD944C",
"g. c #FF9551",
"h. c #FF9A52",
"j. c #F29651",
"k. c #EA8F50",
"l. c #FFA254",
"z. c #FEA957",
"x. c #FFB659",
"c. c #FFAE45",
"v. c #D88767",
"b. c #FE9D70",
"n. c #EB926C",
"m. c #FDAD6E",
"M. c #D9985A",
"N. c #C0C865",
"B. c #B3E563",
"V. c #123698",
"C. c #103AB3",
"Z. c #263BA3",
"A. c #1024A5",
"S. c #016B88",
"D. c #037B8A",
"F. c #047488",
"G. c #027996",
"H. c #177A8D",
"J. c #2B6F8C",
"K. c #0F43B0",
"L. c #10639D",
"P. c #6B748C",
"I. c #467BBD",
"U. c #1537D1",
"Y. c #532F98",
"T. c #83768A",
"R. c #866AAB",
"E. c #038697",
"W. c #188E98",
"Q. c #028AA6",
"!. c #0396A8",
"~. c #179AA9",
"^. c #0298B5",
"/. c #008CB1",
"(. c #2D95AF",
"). c #04A5BD",
"_. c #10A7B1",
"`. c #25AAB4",
"'. c #30959A",
"]. c #47848E",
"[. c #68B0B5",
"{. c #589CA9",
"}. c #1593DA",
"|. c #3192D6",
" X c #03AAC5",
".X c #00B3CB",
"XX c #09B7CF",
"oX c #03BAD3",
"OX c #1CBDDC",
"+X c #2CB9C6",
"@X c #1090F0",
"#X c #2E99FF",
"$X c #4999DB",
"%X c #03C6DB",
"&X c #17C9DB",
"*X c #2CCFD8",
"=X c #05D6E8",
"-X c #19D3E5",
";X c #37D9E4",
":X c #29D3E6",
">X c #07EAF9",
",X c #12F0F7",
"<X c #39F9FB",
"1X c #2FEAF0",
"2X c #4ACBD5",
"3X c #44D5E3",
"4X c #43FEFE",
"5X c #4BFEFE",
"6X c #44F4F7",
"7X c #54FEFE",
"8X c #5AFFFF",
"9X c #57F2F5",
"0X c #4DEAF2",
"qX c #62FFFF",
"wX c #69FFFF",
"eX c #7AFEFF",
"rX c #75EEF0",
"tX c #70D8DE",
"yX c #91938E",
"uX c #B1B2B1",
"iX c #A4A1A7",
"pX c #F5AF8D",
"aX c #CABBAB",
"sX c #DAB197",
"dX c #8CC6BF",
"fX c #FFCF99",
"gX c #FFD7A6",
"hX c #FFDCBB",
"jX c #EAD3AB",
"kX c #FFE7BD",
"lX c #EBF1BC",
"zX c #D9C8A2",
"xX c #91B4CC",
"cX c #B0B3CE",
"vX c #C7B8C3",
"bX c #AFD0D0",
"nX c #91DCEA",
"mX c #8BFFFF",
"MX c #9AEDF7",
"NX c #A7FDFE",
"BX c #BAFBFD",
"VX c #B5E8F4",
"CX c #D2CFD1",
"ZX c #FBDDCB",
"AX c #FEE8C7",
"SX c #FFF5CA",
"DX c #FFFAD5",
"FX c #E7E5D0",
"GX c #C4FEFF",
"HX c #D5F7FA",
"JX c #FBFFE5",
"KX c #E4FFFF",
"LX c #FDFFFF",
"PX c #FAFFF8",
"IX c #E6E3E7",
"UX c #D6E1DB",
/* pixels */
"^ ^ , i p q r 0 9 t i r 0 0 0 2 p a y q t q i t r 0 q 0 r 0 t y ^ ^ , i p q r q 9 t i r 0 0 0 2 a p y q t q i t r 0 q 0 r 0 t y ",
"p p i t r 0 r 2 9 0 0 r r 0 2 r p i i r 1 y 0.i 9.t r 0 t 3 p y p p i t r q r 3 9 0 0 r r 0 2 r p i i r 1 y 0.i 9.t r 0 t 3 p y ",
"y r y a p 1 r p y a t , p p a 0 0 0 q y t i q i y 2 3 3 q 2 i y y r y a p 1 r p y a t , p p a 0 0 0 q y t i q i y 2 3 3 q 2 i y ",
"q p a a 9.0 r i r t ^ 2 s y t r a y i a Q i i q p i a p i p w i q p p a 9.0 r y r t ^ 2 s y t r a y i a Q i i q p i a a i p w i ",
"q y r i 3 1 0 r r q 9 0 q q q a a a i t t 3 u r p p a y r r 2 < q y r i 3 1 0 r r q 9 0 q q q a a s i t t 3 u r i i a y r r 2 < ",
"q r 3 q t 0 q 2 r 0 t t i a q r t y 3 ! a r q 9 t p t t u t q r q r 3 q t 0 q 2 r 0 t t i a q r t y 3 ! a r q 9 t p t t u t q r ",
"p 0 q Q i p p t , r i i y p t p p r t u s r r q t p y ^ i n z k o o o o * p p t , r i i y p t p p r t u s r r q t p y ^ i q i ~ ",
"t q a u i p p a 3 a a ~ ~ a i 9.< ! s q 3 r r p p 5.Q t i w & J 2X2X2X2XJ.+ % p 3 a a ~ ~ a i 9.< ! s q 3 r r p p 5.Q t i u W y ",
"r w q.5.r r q t q p u ^ p s Q s 0 p ~ ! y 2 p 4 & % % @ @ % + x >X,X-X4XqX(.S.% q p e % % % m m * p ~ ! y 2 p p 9.t t r q q r p ",
"r 9 ^ Q 0 q q q r p i a ! s y a q Q R m R & 4 x F.G.H.P.P.P.P.{.3XoXoX&X;X<X1XG.m 4 m T.H.(.J o % Q a t ) q y ! q.r r q q q Q r ",
"t 2 p r i 0 t y q t i a a a a a q i T j c Y J ^.4XeXmXLXLXLXLXLXLXmXeX:X).&X<X%XH O uXLX5X6XJ f G e ~ r q 2 p i p r q r < $ y ) ",
"w r i 0.Q i a r 0 i q i i t / ) < q r 4 J 5X5X<XNXLXLXLXLXLXLXLXLXLXLXNX<X1X XI K bXKX<X6Xc . Q. XO r i w q i ! r r 0 q 0.9 Q 0.",
"w p a i 0 r r q ~ i 2 q t q / r q q 2 9.4 J 5X5X7XwXwXqXqXqXqXqX8X8XPXLXNX,X1XK vXKX-XoX7Xk S.=XQ.O 3 9.t i 9 q < ~ p Q a r q w ",
"Q i q 0 r 3 < p y p ^ q q q r t i t i r q 4 J 0X*XD.!.E.E.E.E.E.E.E.rXeXGXBX&XbXBX3X%X:X~.K  X>XE.% i m q w a ~ r / Q w w r < q ",
"a u q 0 t Q q t Q p Q Q q < a Q Q a Q t < Q + ~.1XW.H +X_.[.uXiX[.F.).,XmXnX XLXmX.X-X8XK I S..X/.+ & z < Q p u t p t q r 2 1 p ",
"r 3 2 0 i a r t p i r t q y 0.q.0.0.a p 3 a O G.,X1X~.*X4XBXKXLXLXtXXX%X1X,XXXLXNX%X X`.G.G.W.~.G.L L z 3 a ~ w r r r r i t q r ",
"r 3 s 2 i r i u p y y 3 2 y ! Q t u u i 3 i % F. X-X6XD.*X<X,X9XKXLXNX&X%X1X^.UXrX=XQ.D.%XoX<X+XD.%X%Xx 3 i i q q q p i r q a q ",
"0 q r 0 y r ^ q i p r q q p Q q 3 q i q < 9 q @ S.%XoX6X.X&X7X6X<X<XLXBX=X^.I I ^..X&X7X6X5X.X:X2XS..Xx < 9 q 0 0 i i r q q t 1 ",
"s y r 2 ~ t 0 , r p q q 0 p a i q q m z k O O . x D.I D.;X&X&X8X4X4X7XLXxXI ;X:X.X^.=XeXLXLX9X%X&X*Xj < 3 i p t t i q 3 2 r 0 q ",
"a p r q < r 2 3 2 t q 9 t q a q q 2 4 % H ;XvXaXCXUXCXCXeX<X&X-X&XE.D.].[.*X7XGXHX2X.X:XtXmXLXeX=X7X(.m i p p p t w.r p i p q r ",
"0 W p q $ 0 s p a q < t a a < < q r p p G +XBXHXNXnXMXMX;X1X&X/.E.~.`.K !.8X9XLXHX*X/.S.G.G.T.IXNX4X5XJ a p t 5.i q a t y t ~ i ",
"q / t 9 , t p s t i 3 p t ! r t p p p t a % ~.<X,XoXoX.X).^..X!.I 7XwX`.E.;X8XLXOX X{.].].5   P.CX*X5XJ a ^ i i 2 p i q 0 3 2 0 ",
"q 0 q i ! 0 r r t t r t r y t q r i i r q i . (.0X0X5X7X&XXX%X!.D.6X7X1XG.S.9XLXOX[.kXAXAXpXE o . c 3XJ r i 3 3 p u r 0 2 3 < 9 ",
"i w p i i y t r 0 q 2 i 0 t q ~ < i i 4 j j f j o H =X5X5X7X1XQ.D.5X8X:XQ.K H.LX:X[.kXZXAXSX` * < u z k u u 3 q p q 9 3 3 i 0 9 ",
"r q ! i p q p r r 3 q r 3 t q r r r * ` CXaXr.X.@ f H !._.W.D.F.D.E.7X>X].r.F.H.VXPXkXhXAXDX` & r r 4 z q q q 9 r q 2 0.~ Q r t ",
"0 q r p 0 p t s r r p s a , r i Q ~ % ] PXDXhXy.5 - # o X F.%X!.x f E.>XbX,.E Y (.iXfXDXAXfXE b Q ~ p 4 r p s p p p i ~ i 3 i ^ ",
"9 q q q q q 0 0 W s i / r a y t a ^ b ` gXSXDXe.} n.sXT.S P Q.L O ( & !.tX:.o.CX[.` q.dXZXw.* 4 p ^ ~ q p a q q q / p y 3 3 i i ",
"9 q < p r q q , ~ t q r s p 0 0 r r * m y.hXFXT.S s.CXSXfX_ f f M b.u.n ' y.6.ZXLX2XH ' ZXl 2 q q r q u a q r q q q q Q u 3 t i ",
"q 9 1 q i 0 p a t q r q i r r r 0 r t * n y.$X#XL.X b y.jXxX}.L.k v.b.7.6.n.v.y.ZX0X'.b.hXP 4 r 0 r y 9 ! q u r q t u / u q 2 i ",
"3 < 2 r 0 q 0 y i r 0 2 t 2 q q , 3 u u e k |.@XxXlXaXf X J.3XL.k v.b.7.6.n.v.v.y.zXAXhXAXSX` % < 3 u u u u q q i < y r q , 3 0 ",
"t q q t r q q p r q q i p t ~ i 0 i q.p 2 * z xXJXgXn.aXuXJ.Z ;.O.1.1.6 8.b.v.v.y.pXSXSXDX] T w 0 i q.p 2 < 2 3 q 0 0 < r 2 r r ",
"Q i 3 i p t i r 9 2 Q p t ^ p 3 r ! ^ a w w o e.kXAXpXgXPX].  %.-.8.e.6.1.e.n.v.y.pXJXSX] m p 3 r ! ^ a w q u p t t r q t t r i ",
"^ ^ , i p q r q 9 t i r 0 0 0 2 a a y q t q f r.fXAXSX( yX` X.:.2.b.m.e.> 1.y.n.pXAXFX] @ 3 0 2 p p y q t q i t r 0 q 0 r 0 t y ",
"p p i t r q r 3 9 0 0 r r 0 2 r p i i r 1 e m uXsXy.aXj X } i.s.C.s.v.7.S S S e.zXUX] O t 0 2 r p i i r 1 y 0.i 9.t r 0 t 3 p y ",
"y r y a p 1 r p y a t , p p a 0 0 0 q y e k h./ f l b #.$.d.,.o.K.|.( o.A l z j j j n , a p a 0 0 0 q y t i q i y 2 3 3 q 2 i y ",
"q p a a 9.0 r i r t ^ 2 s y t r a y i R M k.:.$.C U.I.#.i.<.o.V.K.}.}.8.+.z q w e e ^ 2 s i t t a y i a Q i i q p i a p i p w i ",
"q y r i 3 1 0 r r q 9 0 q q q a a s Z E M.-.,.i.d.R.U.%.i.yXK.A.V ;.u.6 X k 0 r r q 9 0 q q q a a a i t t 3 u r i i a y r r 2 < ",
"q r 3 q t 0 q 2 r 0 t t i a q r t y k R ,.:.h.z.c.f.t.F g.sXyXiXcX7 +._ ].R & 2 r 0 t t i a 0 r t y 3 ! a r q 9 t p t t u t q r ",
"p 0 q Q i p p t , r i i y p t p p r n - -.x.l.g.g.c.h.Y.t.>.>.n.bXP X uXSXy.` Z 1 r i i y p t p p r t u s r r q t p y ^ i q i ~ ",
"t q a y i p p a 3 a a ~ ~ a i 9.< ! T 5 ;.k.h.h.g.l.d.%.o g j f = b.O.r.pXpXDXM * a a ~ ~ a i 9.< ! s q 3 r r p p 5.Q t i u Q i ",
"r w q.5.r r q t q p u ^ p s Q s 0 p ~ R k | d.z.g.l.d.#.b l 4 u M n.7.> r.JXhXc 4 p u ^ p s Q s 0 p ~ ! y 2 p p 9.t t r q q r p ",
"r 9 ^ Q 0 q q q r p i a ! s y a q Q T x f | f.z.g.h.g.d.M.R k m e M e.gXiXM G 4 w p i a ! s y a q Q Q u ) q y ! q.r r q q q Q r ",
"t 2 p r i 0 t y q t i a a a a a q Z 3 O.- | $.f.x.g.g.l.x._ g b t * T ] ` & 4 y q t i a a a a a q i ~ r q 2 p i p r q r < $ y ) ",
"w r i 0.Q i a r 0 i q i q * Z T % 5 O.@.| | ;.:.d.x.g.g.z.S A _ * r Z m R i a r 0 i q i i t / ) < q r i w q i ! r r 0 q 0.9 Q 0.",
"w p a i 0 r r q ~ i < R J G [ L S.;.@.: ; | d.,.:.j.l.l.x...*.z.g p a i 0 r r q ~ i 2 q t q / r q q 2 9.t i 9 q < ~ p Q a r q w ",
"Q i q 0 r 3 < p i p _ (.|.N.a.$X|.8.{ ; ; | { d.,.#.g.f.j.o.;.M.v w q 0 r 3 < p y p ^ q q q r t i t i r q w a ~ u / Q w w r < q ",
"a u q 0 t Q q u Q W (.}.B.p.4.4.4.:.+.: | | ; &.-.#.%.#.; 8.x.l.k.z 4 0 t Q q t Q p Q Q q < a Q Q a Q t < Q p u t p t q r 2 1 p ",
"r 3 2 0 i a r u p u u.4.6.8 h A N &.-.+.: ; : { > x v k ..,.x.l.j.z 4 0 i a r t p i r t q y 0.q.0.0.a p 3 a ~ w r r r r i t q r ",
"r 3 s 2 i r i u p y 6 o.h Z T T m N ;.%.$.$.%.h b 6 h 6 ,.f.h.z.h.z R 2 i r i u p y y 3 2 y ! Q t u u i 3 i i q q q p i r q a q ",
"0 q r 0 y r ^ q i p n n 4 p Q q 3 4 Z O.} } X.T o.@...%.z.m.z.l.9.n e 0 y r ^ q i p r q q p Q q 3 q i q < 9 q 0 0 i i r q q t 1 ",
"! y r 2 ~ t 0 , r p q q 0 p p e 4 e n l B B z O.@.:  .#.,.d.k.9.b y r 2 ~ t 0 , r p q q 0 p a i q q y 2 3 i p t t i q 3 2 r 0 q ",
"a p r q < r 2 3 2 t q 9 t q R z z k j B C.Z.:.{ : ;  .#.#.%.6 b a p r q < r 2 3 2 t q 9 t q a q q 2 2 0 i p p p t w.r p i p q r ",
"0 W p q $ 0 s p a r < t a a Z Z.C.d T C.Z.Z.:.{ : ; | ..b j m u 0 W p q $ 0 s p a q < t a a < < q r p a a p t 5.i q a t y t ~ i ",
"q / t 9 , t p s t i 3 a t ! e K.C =.} D B B N O.%.%.$.h * * < 0 q / t 9 , t p s t i 3 p t ! r t p p p t a ^ i i 2 p u q 0 3 2 0 ",
"q 0 q i s 0 r r t t t t r E V C D Z 1 - * 4 * Z X.X.6 * 2 3 < 9 q 0 q i s 0 r r t t r t r y t q r i i r r i 3 3 p u q 0 2 3 < 9 ",
"i w p i i y t r 0 q 2 p 0 A D 3.V.B n * u u 2 m M v n 3 3 i 0 9 i w p i i y t r 0 q 2 i 0 t q ~ 2 i i q u u 3 q p q 9 3 3 i 0 9 ",
"r q ! i p q p r r 3 q r 3 6 C V.v e t q q q q 9 r q 2 0.~ Q r t r q ! i p q p r r 3 q r 3 t q r r r t q q q q 9 r q 2 0.~ Q r t ",
"0 q t p 0 p t s r r p s a * j k Q ~ p 9 r p s p p p i ~ i 3 i ^ 0 q t p 0 p t s r r p s a , r i Q ~ p 9 r p s p p p i ~ i 3 i ^ ",
"9 q q q q q 0 0 W s i / r a y t a ^ ~ q p a q q q ! p y 3 3 i i 9 q q q q q 0 0 W s i / r a y t p ^ ~ q p a q q q ! p y 3 3 i i ",
"9 q < p r q q , ~ t q r s p 0 0 q r q i a q r q q q q Q u 3 t i 9 q < p r q q , ~ t q r s p 0 0 q r q u a q r q q q q Q u 3 t i ",
"q 9 1 q i 0 p a t q r q i r r r 0 r y 9 ! q u r q t u / u q 2 i q 9 1 q i 0 p a t q r q i r r r 0 r y 9 ! q u r q t u / u q 2 i ",
"3 < 2 r 0 q 0 y i r 0 2 t 2 q q < 3 u u u u q q i < y r q , 3 0 3 < 2 r 0 q 0 y i r 0 2 t 2 q q < 3 u u u u q q i < y r q , 3 0 ",
"t q q t r q q p r q q i p t ~ i 0 i q.p 2 < 2 3 q 0 0 < r 2 r r t q q t r q q p r q q i p t ~ i 0 i q.p 2 < 2 3 q 0 0 < r 2 r r ",
"Q i 3 i p t i r 9 2 Q p t ^ p 3 r ! ^ a w q u p t t r q t t r i Q i 3 i p t i r 9 2 Q p t ^ p 3 r ! ^ a w q u p t t r q t t r i "
};
