/* XPM */
static char *xpm_[] = {
/* columns rows colors chars-per-pixel */
"64 64 236 2 ",
"   c #3F3021",
".  c #463424",
"X  c #4A3726",
"o  c #4E3A2A",
"O  c #4B3827",
"+  c #543E2C",
"@  c #583F2B",
"#  c #593626",
"$  c #63361E",
"%  c #784902",
"&  c #6A4E10",
"*  c #56412E",
"=  c #5A422E",
"-  c #5D4431",
";  c #5E4834",
":  c #5E493B",
">  c #66462D",
",  c #614633",
"<  c #644935",
"1  c #694D36",
"2  c #664C39",
"3  c #6A4E39",
"4  c #6B4631",
"5  c #754B35",
"6  c #6F513C",
"7  c #6D513B",
"8  c #63513A",
"9  c #72543E",
"0  c #72543D",
"q  c #7A5539",
"w  c #724D2C",
"e  c #291555",
"r  c #3F2E54",
"t  c #1A1962",
"y  c #6D5442",
"u  c #6B574A",
"i  c #745641",
"p  c #765942",
"a  c #7A5B44",
"s  c #745C4A",
"d  c #7D5D48",
"f  c #6C5D54",
"g  c #735F51",
"h  c #624F40",
"j  c #7D614A",
"k  c #78665A",
"l  c #5C5A77",
"z  c #7A6A66",
"x  c #6A6472",
"c  c #5D5965",
"v  c #8E1B19",
"b  c #AF1C0F",
"n  c #8D3232",
"m  c #B03A2B",
"M  c #A62814",
"N  c #C40300",
"B  c #C70C01",
"V  c #CA1401",
"C  c #CD1D05",
"Z  c #C01806",
"A  c #D61600",
"S  c #E21C00",
"D  c #C82205",
"F  c #D42B0C",
"G  c #D62709",
"H  c #DC320B",
"J  c #DA3D15",
"K  c #D53412",
"L  c #C92B12",
"P  c #E3360C",
"I  c #8B4E06",
"U  c #916412",
"Y  c #844A35",
"T  c #865B38",
"R  c #974B2C",
"E  c #B34539",
"W  c #A94524",
"Q  c #96653B",
"!  c #8E6634",
"~  c #AF6F3B",
"^  c #DC4419",
"/  c #FF5F05",
"(  c #FF630A",
")  c #F3611B",
"_  c #E45522",
"`  c #E55924",
"'  c #C67E3F",
"]  c #EB692B",
"[  c #E8632A",
"{  c #F67726",
"}  c #ED7631",
"|  c #F37C34",
" . c #F06823",
".. c #C03E4C",
"X. c #815F48",
"o. c #BB5648",
"O. c #B44F50",
"+. c #83644D",
"@. c #976B45",
"#. c #8B6C53",
"$. c #866B57",
"%. c #93735B",
"&. c #907152",
"*. c #A87448",
"=. c #BA7344",
"-. c #8A7667",
";. c #987C66",
":. c #8D7E75",
">. c #B2756D",
",. c #C15846",
"<. c #C5695A",
"1. c #C7784F",
"2. c #C77768",
"3. c #D67C63",
"4. c #D3833E",
"5. c #F98A3A",
"6. c #FE9D3A",
"7. c #FE9A38",
"8. c #EB803A",
"9. c #FFB433",
"0. c #FEA135",
"q. c #FC821E",
"w. c #9B8574",
"e. c #A88972",
"r. c #D58641",
"t. c #D98D45",
"y. c #D08D47",
"u. c #E68E42",
"i. c #EC9243",
"p. c #FE9442",
"a. c #FE9C45",
"s. c #F99A47",
"d. c #F09A59",
"f. c #FEA349",
"g. c #FEAC4D",
"h. c #FCA746",
"j. c #FFB14F",
"k. c #FFB646",
"l. c #FFB252",
"z. c #FFB853",
"x. c #CF8D75",
"c. c #E2977B",
"v. c #F7A26E",
"b. c #FFC459",
"n. c #0C2183",
"m. c #55678E",
"M. c #6A6C8C",
"N. c #6066BA",
"B. c #205AF3",
"V. c #3274FF",
"C. c #0C5EF1",
"Z. c #5772CC",
"A. c #457CFF",
"S. c #728AB4",
"D. c #7C8295",
"F. c #3B86FF",
"G. c #2780FF",
"H. c #7A94C8",
"J. c #4889FF",
"K. c #568AFF",
"L. c #5A8FF7",
"P. c #718DED",
"I. c #628CFB",
"U. c #6C90EB",
"Y. c #958982",
"T. c #9A8D83",
"R. c #9E9693",
"E. c #9D938B",
"W. c #A79C95",
"Q. c #A8968A",
"!. c #8393B5",
"~. c #BAB7B6",
"^. c #AFA9A8",
"/. c #A89D9D",
"(. c #D2988D",
"). c #D0AB94",
"_. c #E4AA93",
"`. c #E8B59D",
"'. c #E1A987",
"]. c #D0A8A3",
"[. c #D7B8B6",
"{. c #CDB1A5",
"}. c #EDBCA4",
"|. c #E39F86",
" X c #D7C7B8",
".X c #E8CAA8",
"XX c #F5C4AA",
"oX c #F3CBB4",
"OX c #FEDABC",
"+X c #F9D4B9",
"@X c #F2D2AE",
"#X c #FFE9B9",
"$X c #FFF2B9",
"%X c #869DCA",
"&X c #8599DD",
"*X c #95AAD3",
"=X c #9EB2D6",
"-X c #8EA3CD",
";X c #A7B9DA",
":X c #BCBAD4",
">X c #83A5F3",
",X c #B6C3DB",
"<X c #BDC5CC",
"1X c #BCCBE3",
"2X c #CAC8CC",
"3X c #D4D6DB",
"4X c #D0CBD3",
"5X c #FEDCC1",
"6X c #F4DFCF",
"7X c #E4D1CB",
"8X c #FFE2C5",
"9X c #FFE5C9",
"0X c #FFEACD",
"qX c #FFEED1",
"wX c #F7E4D4",
"eX c #FFF2D4",
"rX c #FDF6D8",
"tX c #F7F0D4",
"yX c #C5D1E6",
"uX c #CAD5E8",
"iX c #D2DCEB",
"pX c #D9DDE2",
"aX c #C1CFE5",
"sX c #DCE3EC",
"dX c #D9E2E7",
"fX c #DEE6F1",
"gX c #DEEBF9",
"hX c #EAE8E6",
"jX c #FFFEE5",
"kX c #E0E6F1",
"lX c #E3EAF2",
"zX c #E9EEF5",
"xX c #EDF2F6",
"cX c #E9FEFE",
"vX c #E6F8FD",
"bX c #F4F7F9",
/* pixels */
"d d O 3 7 - , = * < 3 , = = = + 7 6 1 - < - 3 < , = - = , = < 1 d d O 3 7 - , - * < 3 , = = = + 0 6 1 - < - 3 < , = - = , = < 1 ",
"7 7 3 < , - , + * = = , , = + , 7 3 3 , . 1 #.3 +.< , = < @ 7 1 7 7 3 < , - , @ * = = , , = + , 7 3 3 , . 1 #.3 +.< , = < @ 7 1 ",
"1 , 1 0 7 . , 7 1 0 < O 6 7 0 = = = - 1 < 3 - 3 1 + @ @ - + 3 1 1 , 1 0 7 . , 7 1 0 < O 6 7 0 = = = - 1 < 3 - 3 1 + @ @ - + 3 1 ",
"- 7 0 0 +.= , 3 , < d + 9 1 < , 0 1 3 0 i 3 3 - 7 3 0 6 3 7 ; 3 - 7 0 0 +.= , 1 , < d + 9 1 < , 0 1 3 0 i 3 3 - 7 3 0 0 3 7 ; 3 ",
"- 1 , 3 @ . = , , - * = - - - 0 0 0 3 < < @ 2 , 3 3 0 1 , , + o - 1 , 3 @ . = , , - * = - - - 0 0 9 3 < < @ 2 , 3 3 0 1 , , + o ",
"- , @ - < = - + , = < < 3 0 - , < 1 @ p 0 , - * < 6 < < 2 < - , - , @ - < = - + , = < < 3 0 - , < 1 @ p 0 , - * < 6 < < 2 < - , ",
"7 = - i 3 6 6 < X , 3 3 1 7 < 7 7 , < 2 9 , , - < 7 1 d 3 - 3 a 7 = - i 3 6 6 < X , 3 3 1 7 < 7 7 , < 2 9 , , - < 7 1 d 3 - 3 a ",
"< - 0 2 3 7 6 0 @ 0 0 a a 0 3 +.o p 9 - @ , , 7 7 X.i < 3 2 y 3 < - 0 2 3 7 6 0 @ 0 0 a a 0 3 +.o p 9 - @ , , 7 7 X.i < 3 2 y 3 ",
", ; %.X., , - < - 7 2 d 6 9 i 9 = 7 a p 1 + 7 7 +.< < , - - , 6 , ; %.X.-.sXsXsXsXsX-.d 6 9 i T.3X7 a p 1 + 7 7 +.< < , - - , 6 ",
", * d i = - - - , 7 3 0 p 9 1 0 - i i 2 j - 1 p %., , - - - i , , * d i 2 Y.lXlXzXlXpX-.p 9 1 w.zX2Xi 2 j - 1 p %., , - - - i , ",
"< + 7 , 3 = < 1 - < 3 0 0 0 0 0 - 3 a , - + 7 3 6 , - , o   1 j < + 7 , 3 = :.fX;XsXxX3X:.0 0 z ,XzX2X, - + 7 3 6 , - , o   1 j ",
"; , 3 #.i 3 0 , = 3 - 3 3 < s j o - , 2 ; - 3 p , , = - $.* i $.; , 3 #.i 3 i lXaX=XsXbX3X-.s z =XbXzX~.u - 3 p , , = - $.* i $.",
"; 7 0 3 = , , - a 3 + - < - s , - - + +.< 3 * - o d 6 i 0 , - ; ; 7 0 2 = , 3 T.zXaX=XuXxXpX-.2 %X1XlXlXk 3 * - o d 6 i 0 , - ; ",
"i 3 - = , @ o 7 1 7 d - - - , < 3 < 3 , - ; 0 a , s i ; ; , o - i 3 - = , @ + 7 lXbX1XuXxXlX4XR.;X*XfXzXk ; 0 a , s i ; ; , o - ",
"0 2 - = < i - < i 6 i i - o 0 i i 0 i < o i 7 2 < 6 < - , + . 7 0 2 - - < i - < Q.W.W.W.E.~.fXbXsX-XfXzXf i 7 s < 6 < - , + . 7 ",
", @ + = 3 0 , < 6 3 , < - 1 #.%.+.+.0 6 @ 0 a ; , , , , 3 < - , s z z z z z f k g u u u h R.bXxXiX;XfXlXk 0 $.~., , , , 3 < - , ",
", @ 9 + 3 , 3 2 6 1 1 @ + 1 p i < 2 2 3 @ 3 3 - - - 7 3 , - -.-.pXlXxXuX=X;X;X;X*X-X%X%XH.;XsXiXzXzXlXxX: y <XlX- - 7 3 , - 0 - ",
"= - , = 1 , d - 3 7 , - - 7 i - @ - 3 - o * - = = 3 3 , - - 2XpX3XkXlXlXzXzXzXzXzX;X*X=X;X=X*X;XxXlXlXxXh D.H.,X= 3 3 , - - < . ",
"p 1 , + a < = X , 6 - - = 6 0 3 - - 1 + @ 3 7 3 7 6 ; - + 2 : h d ^.zXzXzXzXzXzXzXlXkXlXlXfXfXfXlXlXlXlXzX;XH.,X< 3 - @ + , = - ",
"0 6 , - O , + @ + < - * < - 0 - - + + = 3 7 7 W.dXdXhX3X-X%XS.!.!.%XyXbXlXlXlXlXlXzXzXzXzXzXzXzXlXlXlXzX;X-X%X,X< &., 7 3 7 - , ",
"= y 6 -   = 9 7 0 - o < 0 0 o o - , 7 0 0 7 < -.~.lXlXkXiXsXsX=X%X%X*X;X=X=X*X;XsXzXlXlXlXlXlXlXlXlXlXlXiXiXiXpX3 - 0 < 1 < d 3 ",
"- s < * O < 7 9 < 3 @ 7 < p , < 7 7 7 < 0 d 3 3 - -.E.lXxXxXxXiXuXiXuXyXyXyXyXyXkXlXlXlXlXlXlXlXlXlXlXlXzXxXxXzX+ 7 3 - = @ + = ",
"- = - 3 p = , , < < , < , 1 < - , 3 3 , , 3 @ @ 7 2 , g g g 3XxXxXxXxXxXxXxXxXxXlXlXlXlXlXlXlXlXlXlXlXlXlXlXlX:X7 2 , = + @ o * ",
"3 ; 7 3 3 1 < , = - + 3 = < - a + 3 3 - 2 2 @ - 7 z ~.R.:.Y.iXgXvXcXcXcXcXcXgXgXgXcXvXkXlXlXlXlXlXlXlXlXlX~.Y.k 7 - * @ @ 3 = * ",
", - p 3 7 - 7 , , @ - , @ < - , , , , - - - = * , g <XdXcXhXwXhX[.(.].[.].[.hXhXhX].4XcXvXkXlXlX3XY.T.Y.Y.- - * , - + #.a i , < ",
"= - , 7 = 7 < 9 , , 7 9 0 X , 3 i a 6 * , %.e.w.;.j 3 a [.OXOX8Xc.<.,.m m <.8X8XOX3. X X4XvXlXlX3X-.$.f -.E.-.6 7 7 3 a 3 @ 3 d ",
"* - - - - - = = y 9 3 s , 0 1 < 6 d a = #.oX5X5X0X`.q Y ,.8X0XOX9XjX}.o.E 2.9X5X5X0X0X3.(.cXgXlXlXlXlXlX3X2Xk - - s 7 1 @ @ 3 3 ",
"* - o 7 , - - X a < - , 9 6 = = - , - 2 oX5XOX8XjX`.E o.o.}.0X0X8X5XrX}.E 2.qX8X5X5X5X8XOX6XlXlXlXlXlXlX:.s k u - - - i 2 @ < 3 ",
"- * . - 3 = 6 0 < - , - 3 , , , = , 1 * .X5X5XOX0X_.o.<.<.<.XX+X5X8X5XeX_.2.+X5X5X5X5X5X5XOXwXgXlXlXlXlXlXsXsXW.- < 2 s 2 - + 3 ",
"@ o + , = - = 1 3 , = + < + - - o @ 2 2 .X#XeX|.o.o.2.5X5X+X2.o.`.eX5X8XqX`.<.OX8X5X5X5X5XOXwXgXlXlXlXlXlXY.u 2 3 O 1 , - X @ = ",
"< - - < , - - 6 , - - 3 7 < a 3 = 3 %.Z.I.7XeXc.m E x.eXqX9XoXoX2._.rXOX9X5XXX5X5X5X5X5X5XOXwXgXlXlXw.k u o + @ - = = o , + , , ",
"i 3 @ 3 6 < 3 , * + i 7 < d 6 @ , p d V.A.P.>XP.M.Y 3.rXqX0X0XeXoX<.(.eXOX8X0X5X5X5X5X5X5X).%.k k -.d 0 ; - 2 7 < < , - < < , 3 ",
"d d O 3 7 - , - * < 3 , = = = + 7 a ).2XK.V.V.V.m.= R 2.x.x.+X9XeX}.`.9X5X5X5X5X5X5X5X5X).7 = + 7 6 1 - < - 3 < , = - = , = < 1 ",
"7 7 3 < , - , @ * = = , , = + , 7 d #X#X4X;X:X:X/.< 0 _.E m XXjX9X9X0XOXOX8XrXrXrXrX0X).i = + , 7 3 3 , . 1 #.3 +.< , = < @ 7 1 ",
"1 , 1 0 7 . , 7 1 0 < O 6 7 0 = = 6 5X5X#X#X#X#X).+ ; 2.E |.rX_.oXjX9XOX0XXX2.(.(.2.;.O 6 7 0 - = = - 1 < 3 - 3 1 + @ @ - + 3 1 ",
"- 7 0 0 +.= , 3 , < d + 9 1 < , 0 0 (.).5X5XOX.X;.i >.>.(.jX).v o.x.`.0X0XoXo.v v O.e.e.;.1 < , 0 1 3 0 i 3 3 - 7 3 0 6 3 7 ; 3 ",
"- 1 , 3 @ . = , , - * = - - - 0 0 0 3 < Q.{.{.$.0 x.$X$X$X@X2.>.>.O._.eXOXqX9X2.2.8XtX@X;.- - 0 0 0 3 < < @ 2 , 3 3 0 1 , , + o ",
"- , @ - < = - + , = < < 3 0 - , < 1 @ p 0 , = * R { { { { { @XeX#X#X0XeXqXqXeXjX X X3 < 3 0 - , < 1 @ p 0 , - * < 6 < < 2 < - , ",
"7 = - i 3 6 6 < X , 3 3 1 7 < 7 7 , < 2 0 5 q q W F H P S G { 7.5.{ v.oXXXXXXX+X1 5 q 5 1 7 < 7 7 , < 2 9 , , - < 7 1 d 3 - 3 a ",
"< - 0 2 3 7 6 0 @ 0 0 a a 0 3 +.o p 9 - @ 4.7.f.g.g.g.} C V D D H H H P H F F L b B V R a 0 3 +.o p 9 - @ , , 7 7 X.i < 3 2 i 3 ",
", ; %.X., , - < - 7 2 d 6 9 i 9 = 7 a p 1 > T T #.5 5 t e e e t =.0.5.7. .V D 4 4 5 5 X.6 9 i 9 = 7 a p 1 + 7 7 +.< < , - - , 6 ",
", * d i = - - - , 7 3 0 p 9 1 0 - i i 2 j - 1 p %.4 n V.F.F.F.n.e r r t # S C b b 7 3 0 p 9 1 0 - i i 2 j - 1 p %., , - - - i , ",
"< + 7 , 3 = < 1 - < 3 0 0 0 0 0 - 3 a , - + 7 n b Z L O.O.....Z.C.B.B.C.N.q.| | } u.t.t.Q 0 0 0 - 3 a , - + 7 3 6 , - , o   1 j ",
"; , 3 #.i 3 0 , = 3 - 3 3 < s j o - , 3 ~ ' y.8.] }  .( ( ( / c.{.].].].'.h.g.g.j.f.a.a.i.' y.=.o - , 3 ; - 3 p , , = - $.* i $.",
"; 7 0 3 = , , - a 3 + - < - s q r.r.4.t.f.f.f.j.b.b.b.b.b.b.b.9.9.9.9.9.9.l.l.j.j.j.j.z.f.a.a.a.~ ~ + +.< 3 * - o d 6 i 0 , - ; ",
"i 3 - = , @ o 7 1 7 d - - - , T r.r.r.t.~ Q *.*.~ ` ] ] ] ] ] ] ] ] [ ] [ _ ` ` ` ` ` ^ | g.a.a.a.a.~ , - ; 0 a 2 s i ; ; , o - ",
"0 2 - = < i - < i 6 i i - o 0 i 0 0 0 < # Y Y 5 M N N N N N N V C C B N V ^ ^ J J J J F } g.a.a.a.a.a.~ * i 7 2 < 6 < - , + . 7 ",
", @ + = 3 0 , < 6 3 , < - 1 #.%.*.*.Q T K J J ^ ` ` ` ` ` ` ` K G F J J [ z.g.g.g.g.g.g.f.a.a.a.a.a.a.a.q 0 a ; , , , , 3 < - , ",
", @ 9 + 3 , 3 2 Q Q Q T T Q @.=.a.a.a.g.z.l.z.f.5.p.p.p.p.a.a.^ C V ] b.f.a.a.a.a.a.a.a.a.a.a.a.a.a.a.a.q 3 3 - - - 7 3 , - 0 - ",
"= - , = 1 , d - i.s.s.s.s.s.s.i.u.i.i.u.5.5.f._ B C C C C C G G G V ) k.6.6.6.6.a.a.a.a.a.a.a.a.a.a.a.i.4 * - = = 3 3 , - - < . ",
"p 1 , + a < = X 3 q < 4 , q q 0 1 3 0 > L F K F G F F F G F F F F V [ l.a.a.a.a.a.a.a.a.a.a.a.a.a.a.s.> @ 3 7 < < 3 - @ + , = - ",
"0 6 , - o , + @ + < - * < - 0 q i.i.i.i.5.5.5.p.a.p.p.6.7.p.I % I M.U.P.P.P.U.P.d.7.a.a.a.a.a.a.i.> > = 1 7 7 6 < &., 7 3 7 - , ",
"= y 6 -   = 9 7 0 - o < 0 0 o = T T Q @.Q T T @.! U U @.&X! % & % M.L.K.K.K.J.J.d.7.a.a.a.r.w w 5 , 7 0 0 7 < X.3 - 6 < 1 < d 3 ",
"- s < * O < 7 9 < 3 @ 7 < p , < 7 7 7 < 0 d 3 3 # & % & J.& % % x U.I.I.U.x x z 6.6.a.1.Q X., < 7 7 7 < 0 d 3 3 + 7 2 - = @ + = ",
"- = - 3 9 = , , < < , < , 1 < - , 3 3 , - 3 @ @ & % w S.l % % M.I.Z.l M.x = ; , Q Q Q 1 , 1 < - , 3 3 , , 3 @ @ 7 2 - = + @ o * ",
"3 ; 7 3 3 1 < , = - + 3 = < - a + 3 3 - 2 2 + - w & 8 l @ % % m.M.h 7 2 3 1 2 ; = - + 3 = < - a + 3 3 - 2 2 @ - 7 - * @ @ 3 = * ",
", - p 3 7 - 7 , , @ - , @ < - , , , < - - - - * , - + #.a i , < , - p 3 7 - 7 , , @ - , @ < - , , , < - - - - * , - + #.a i , < ",
"= - < 7 = 7 < 9 , , 7 9 0 X , 3 i a 6 * , 6 9 6 7 7 3 a 3 @ 3 d * - < 7 = 7 < 9 , , 7 9 0 X , 3 i a 6 * , 6 9 6 7 7 3 a 3 @ 3 d ",
"* - - - - - = = y 9 3 s , 0 1 < 6 d a - 6 0 - - - p 7 1 @ @ 3 3 * - - - - - = = y 9 3 s , 0 1 < 6 d a - 6 0 - - - p 7 1 @ @ 3 3 ",
"* - o 7 , - - X a < - , 9 6 = = - , - 3 0 - , - - - - i 2 @ < 3 * - o 7 , - - X a < - , 9 6 = = - , - 2 0 - , - - - - i 2 @ < 3 ",
"- * . - 3 = 6 0 < - , - 3 , , , = , 1 * p - 2 , - < 2 s 2 - + 3 - * . - 3 = 6 0 < - , - 3 , , , = , 1 * p - 2 , - < 2 s 2 - + 3 ",
"@ o + , = - = 1 3 , = + < + - - o @ 2 2 2 2 - - 3 O 1 , - X @ = @ o + , - - = 1 3 , = + < + - - o @ 2 2 2 2 - - 3 O 1 , - X @ = ",
"< - - < , - - 6 , - - 3 7 < a 3 = 3 %.6 + o + @ - = = o , + , , , - - < , - - 6 , - - 3 7 < a 3 = 3 %.6 + o + @ - = = o , + , , ",
"i 3 @ 3 6 < 3 , * + i 7 < d 6 @ , p d 0 ; - 2 7 < < , - < < , 3 i 3 @ 3 6 < 3 , * + i 7 < d 6 @ , p d 0 ; - 2 7 < < , - < < , 3 "
};
