/* XPM */
static char *xpm_[] = {
/* columns rows colors chars-per-pixel */
"64 64 244 2 ",
"   c #3E3020",
".  c #38322E",
"X  c #262A3B",
"o  c #2C313D",
"O  c #3B363A",
"+  c #38123E",
"@  c #55123B",
"#  c #7E002D",
"$  c #740E32",
"%  c #453424",
"&  c #4A3726",
"*  c #4C3927",
"=  c #4E3A2A",
"-  c #4B3728",
";  c #543E2C",
":  c #583F2C",
">  c #4A3C34",
",  c #473B3C",
"<  c #513F31",
"1  c #52263E",
"2  c #752F38",
"3  c #56402E",
"4  c #5A422E",
"5  c #4C403C",
"6  c #554234",
"7  c #5D4431",
"8  c #5F4834",
"9  c #52433B",
"0  c #5B473A",
"q  c #614633",
"w  c #644935",
"e  c #694D37",
"r  c #664C39",
"t  c #6A4E39",
"y  c #6D513B",
"u  c #72543D",
"i  c #73583F",
"p  c #676C3E",
"a  c #051E46",
"s  c #351D43",
"d  c #0D284C",
"f  c #122A4C",
"g  c #1B2C4B",
"h  c #192746",
"j  c #1A324C",
"k  c #082B54",
"l  c #142E54",
"z  c #0D3859",
"x  c #163858",
"c  c #252B45",
"v  c #23324B",
"b  c #2B3444",
"n  c #3A3A44",
"m  c #353846",
"M  c #283C59",
"N  c #35334C",
"B  c #152E64",
"V  c #0D3668",
"C  c #203664",
"Z  c #4C1E4F",
"A  c #443E43",
"S  c #483443",
"D  c #5A2B47",
"F  c #6B265B",
"G  c #374549",
"H  c #364557",
"J  c #0B4465",
"K  c #145171",
"L  c #264464",
"P  c #016C7D",
"I  c #18647A",
"U  c #366A75",
"Y  c #484346",
"T  c #594B47",
"R  c #505258",
"E  c #6E5541",
"W  c #685449",
"Q  c #745641",
"!  c #765943",
"~  c #7A5B44",
"^  c #7D5D48",
"/  c #755B4B",
"(  c #70524F",
")  c #7E614A",
"_  c #787353",
"`  c #46566C",
"'  c #72747E",
"]  c #706B6F",
"[  c #86042C",
"{  c #8C0C31",
"}  c #95132F",
"|  c #A21427",
" . c #923731",
".. c #B82423",
"X. c #AD302F",
"o. c #BD381C",
"O. c #D7371D",
"+. c #C72D1C",
"@. c #E23815",
"#. c #C43829",
"$. c #BD4138",
"%. c #F64F1E",
"&. c #D74223",
"*. c #C4493B",
"=. c #E4562D",
"-. c #E85429",
";. c #EB6838",
":. c #F57139",
">. c #84114F",
",. c #C02945",
"<. c #805F49",
"1. c #815F47",
"2. c #955556",
"3. c #83634C",
"4. c #876651",
"5. c #8B6B53",
"6. c #876A55",
"7. c #916B51",
"8. c #93735B",
"9. c #99654A",
"0. c #B4734F",
"q. c #93637B",
"w. c #9E5566",
"e. c #CC7750",
"r. c #F27C42",
"t. c #E87646",
"y. c #C77C62",
"u. c #CC4149",
"i. c #8B8639",
"p. c #F3A232",
"a. c #E7C925",
"s. c #FFEE23",
"d. c #88AE7C",
"f. c #D5824C",
"g. c #F88849",
"h. c #FE964D",
"j. c #FE9651",
"k. c #FD9B53",
"l. c #F39552",
"z. c #EA8D52",
"x. c #FFA254",
"c. c #CC9170",
"v. c #E99978",
"b. c #FFAC6B",
"n. c #B0C968",
"m. c #CAD54C",
"M. c #30368F",
"N. c #3E35B1",
"B. c #48289D",
"V. c #0D5F8D",
"C. c #2B5797",
"Z. c #027C8C",
"A. c #017587",
"S. c #067A96",
"D. c #0B6986",
"F. c #2C6E89",
"G. c #2555A7",
"H. c #256FB2",
"J. c #5C7490",
"K. c #757B8C",
"L. c #6C78AB",
"P. c #396AD9",
"I. c #4055C2",
"U. c #867798",
"Y. c #068597",
"T. c #2C8699",
"R. c #038CA7",
"E. c #0194AC",
"W. c #0E94A9",
"Q. c #1398A5",
"!. c #009CB3",
"~. c #059BB6",
"^. c #2D95A7",
"/. c #388BBB",
"(. c #00A3BB",
"). c #0AA5B8",
"_. c #1AA5B1",
"`. c #2FABB6",
"'. c #5591AF",
"]. c #6F8BAB",
"[. c #6294A1",
"{. c #01AAC3",
"}. c #01A9C3",
"|. c #01B2CB",
" X c #07B3CA",
".X c #02BBD3",
"XX c #0CBCD1",
"oX c #0BB7D0",
"OX c #1AB9CC",
"+X c #24B6C4",
"@X c #29BED3",
"#X c #35B6C3",
"$X c #4986D6",
"%X c #59A6D4",
"&X c #12C1D5",
"*X c #16C9DA",
"=X c #14C8DA",
"-X c #31CCD7",
";X c #1BD5E1",
":X c #27D8E4",
">X c #36DAE4",
",X c #38E5EC",
"<X c #32EBF1",
"1X c #41C6D9",
"2X c #6AD7E1",
"3X c #41E6EB",
"4X c #42EEF2",
"5X c #45F2F6",
"6X c #48F9FA",
"7X c #53F1F5",
"8X c #54ECF2",
"9X c #68F8FA",
"0X c #73F5F8",
"qX c #66D5DC",
"wX c #88898E",
"eX c #988F95",
"rX c #B1998F",
"tX c #94A8BE",
"yX c #A09CA9",
"uX c #C89C88",
"iX c #DAAE95",
"pX c #EDAF8D",
"aX c #D0B3B1",
"sX c #E8BFA9",
"dX c #F3CAAB",
"fX c #E9C2A6",
"gX c #AEB1C5",
"hX c #80BDC9",
"jX c #B3C7D4",
"kX c #8ADAE8",
"lX c #8BFAFC",
"zX c #97EFF5",
"xX c #A9FBFC",
"cX c #B4F6FA",
"vX c #C9CCD0",
"bX c #FFEBC6",
"nX c #FFF5D0",
"mX c #C5FCFE",
"MX c #D8FEFE",
"NX c #C9ECEF",
"BX c #E9F6F7",
"VX c #FCFEFF",
"CX c #F5FDFF",
"ZX c #F2DBC4",
/* pixels */
"^ ^ * t y 7 q 4 3 w t q 4 4 4 ; y u e 7 w 7 t w q 4 7 4 q 4 w e ^ ^ * t y 7 q 7 3 w t q 4 4 4 ; u y e 7 w 7 t w q 4 7 4 q 4 w e ",
"y y t w q 4 q ; 3 4 4 q q 4 ; q y t t q % e 5.t 3.w q 4 w : y e y y t w q 7 q : 3 4 4 q q 4 ; q y t t q % e 5.t 3.w q 4 w : y e ",
"e q e u y % q y e u w - y y u 4 4 4 7 e w t 7 t e ; : : 7 > t e e q e u y % q y e u w - y y u 4 4 4 7 e w t 7 t e ; : : 7 ; t e ",
"7 y u u 3.4 q t q w ^ ; i e w q u e t u Q t t 7 y t u y n b 8 t 7 y y u 3.4 q e q w ^ ; i e w q u e t u Q t t 7 y t u u t y 8 t ",
"7 e q t : % 4 q q 7 3 4 7 7 7 u u u t w w : r q t t u r h l ; = 7 e q t ; . 4 q q 7 3 4 7 7 7 u u i t w w : r q t t u e q q ; = ",
"7 q : 7 w 4 7 ; q 4 w w t u 7 q w e : ! u q 7 3 w y 0 n `.K > 9 7 q : 7 5 d 7 ; q 4 w w t u 7 q w e : ! u q 7 3 w y w w r w 7 q ",
"y 4 7 Q t y y w & q t t e y w y y q w r i q q 7 e y c K 4X6X^.n y 4 7 Q 0 K G 9 & q t t e y w y y q w r i q q 7 w y e ^ t 7 t ~ ",
"w 7 u e t y y u : u u ~ ~ u t 3.= ! i 7 : q q y u A #X<X6X5X3XK.M 6 y e X -X^.n ; u u ~ ~ u t 3.= ! i 7 : q q y y 1.Q w t r E t ",
"q 8 8.<.q q 7 w 7 y r ^ y i Q i 4 y ~ ! e ; y y / H ,XXX5X5X<XCX%XI R n F.5X4XeXM t r ^ y i Q i 4 y ~ ! e ; y y 3.w w q 7 7 q y ",
"q 3 ^ Q 4 7 7 7 q y t u ! i e u 7 Q Q r ^ > e ! R #X|.4X5X:X;XcXMXzXR.K W.6X:XCX` 5 t T m i e u 7 Q u w ) 7 e ! 8.q q 7 7 7 Q q ",
"w ; y q t 4 w e 7 w t u u u u u 7 t ~ q 6 d y r x +X:X5X5X X&X9XVXBX|..X{.5X=XzXyXc t v f u u u 7 t ~ q 7 ; y t y q 7 q =   e ) ",
"8 q t 5.Q t u q 4 t 7 t t w / ) = 7 q t 6 K H c d W.5X5X,X*XoX<XVXCX1X|.!.:X:XOXqXx 6 T.K 8 / ) = 7 q t 8 7 t ! q q 4 7 6.3 Q 6.",
"8 y u t 4 q q 7 ~ t ; 7 w 7 / q 7 7 ; 3.m ^.+XR.P Q.4X5XXXlX@X;XcXVXzXE.Z..X5X|.Q.z L -XT.O / q 7 7 ; 3.w t 3 7 = ~ y Q u q 7 8 ",
"Q t 7 4 q : = y e y ^ 7 7 7 q w t w t q O K 6X:XZ.Z.>X*X:XxXkX&X0XVXVX}.Q.Y.{.{.Z.[.mX6X#Xh q w t w t q 7 8 u ~ q / Q 8 8 q = 7 ",
"u r 7 4 w Q 7 w Q y Q Q 7 = u Q Q u Q w j {.9X7X&XY.+X*X6X9XBXXX<XVX1X|.,X+XE.E.A.NX7X5X^.. u Q Q u Q w = Q y r w y w 7 q ; % y ",
"q : ; 4 t u q w y t q w 7 e 5.8.4.4.u y h R.kXxX:X).Y. X6X5XCX@X;XMX2X&X9X3XA.{.T.xX&X>Xm r 5.8.4.4.u y : u ~ 8 q q q q t w 7 q ",
"q : i ; t q t r y e e : ; e ! Q w r r t O D.-XxXmX5XY.(.,X4XxXhX_.0X1X8XBX7XZ.oXmX:X:X^.O e ! Q w r r t : t t 7 7 7 y t q 7 u 7 ",
"4 7 q 4 e q ^ 7 t y q 7 7 y Q 7 : 7 t > - V {.:X0XMX`.(.:X:X@X2XY.4X=XcX7X,X_.jXlX=X-Xc 7 y Q 7 : 7 t 7 = 3 7 4 4 t t q 7 7 w % ",
"! e q ; ~ w 4 & q y 7 7 4 y u r , m e g O d E. X:X-X,X|.XX4XoX:XZ.E.lXlX;X;X`.BX;X:XK 6 < m T t 7 7 e ; : t y w w t 7 : ; q 4 7 ",
"u y q 7 - q ; : ; w 7 3 w 7 y h d ' ` l z D.P Q.+X>X X|.|.5X&X!.A._.xX8XXX-XW.0XoX,Xz l z h T 7 7 ; ; 4 t y y y w 7.q y t y 7 q ",
"4 E y 7   4 i y u 7 = w u u o rXnXdXuXrXK |.!.Z.A._.>XXX|.:X:X(.A.@XMX=X,XY.{.).P A.Y.E.~.n = = 7 q y u u y w <.t 7 u w e w ~ t ",
"7 / w 3 * w y i w t : y w ! o ' bXaX].M x S.|.|.E.!.|.|.|.&X,X XA.NXlX=X_.!.|.(.P Y..X}.x E q w y y y w u ^ t t ; y t 7 4 : ; 4 ",
"7 4 7 t ! 4 q q w w q w q e 0 L $X$X].v 9 c z S.}..X.X(.|.|.6XXXR.,X=XOXW.}.|.|.A.~.S.K A r w 7 q t t q q t : : y r q 4 ; : = 3 ",
"t 8 y t t e w q 4 7 ; t 4 w 7 l M.aXpXiX/ v 1 k f S.J a W.V.S.}.|.XX{.A.!.|.|.!.Z.z X 5 6 w 7 ~ ; t t 7 r r : 7 y 7 3 : : t 4 3 ",
"q 7 ! t y 7 y q q : 7 q : w 7 , n ' bXfX2 w.uXD h l C.rX0./ 8.J R.|.}.}.|..X|.A.z b 7 q : w 7 q q q w 7 7 7 7 3 q 7 ; 5.~ Q q w ",
"4 7 q y 4 y w i q q y i u & q t T H dXdX2.sXnXv.].H.G.'.h.g.g.z.W U z D.S.J J K d f r y u & q t Q ~ y 3 q y i y y y t ~ t : t ^ ",
"3 7 7 7 7 7 4 4 E i t / q u e w y v 0.eXD rXdXpXvX/.G.c.k.;.;.:.b.uXf.e.s V.M.H K.` a T , u e w y ^ ~ 7 y u 7 7 7 / y e : : t t ",
"3 7 = y q 7 7 & ~ w 7 q i y 4 4 7 8 O v A N y.y.c.C.[.k.j.l.2.gXBXvXu g.%./.G.yXbXiXdXrXf y 4 4 7 q 7 r u 7 q 7 7 7 7 Q r : w t ",
"7 3 % 7 t 4 y u w 7 q 7 t q q q 4 q r 3 Q 6 v ] [./.c.;.j.f.].tXtXgX` e.h.wXG.tXdXpXv.aXm q q q 4 q e 3 ! 7 r q 7 w r / r 7 ; t ",
": = ; q 4 7 4 e t q 4 ; w ; 7 7 = : r r r r o L ` k.g.;.z.X vXtXvXBX] k.j.q.'.ZXy./ N j 9 ; 7 7 = : r r r r 7 7 t - e q 7 & : 4 ",
"w 7 7 w q 7 7 y q 7 7 t y w ~ t 4 t 8.y ; = ; > d %.&.h.h.u J.gXjXwX9.=.z.M.F.M f v O r y w ~ t 4 t 8.y ; = ; : 7 4 4 = q ; q q ",
"Q t : t y w t q 3 ; Q y w ^ y : q ! ^ u 8 7 r y j X.:.k.k.0.] wXH Y r.;.l.T v , 3 ; Q y w ^ y : q ! ^ u 8 7 r y w w q 7 w w q t ",
"^ ^ * t y 7 q 7 3 w t q 4 4 4 ; y y e 7 w 7 t w , O ( g.k.k.k.t 0.&.&.g.0.b q 7 3 w t q 4 4 4 ; y y e 7 w 7 t w q 4 7 4 q 4 w e ",
"y y t w q 7 q : 3 4 4 q q 4 ; q y t t q % e 5.t 3.q N #.t.=.r.g.:.O.;.0.Y 6 q : 3 4 4 q q 4 ; q y t t q % e 5.t 3.w q 4 w : y e ",
"e q e u y % q y e u w - y y u 4 4 4 7 e w t 7 t e ; > c  .@.@.#.O.O.O.g n % q y e u w - y y u 4 4 4 7 e w t 7 t e ; : : 7 ; t e ",
"7 y u u 3.4 q t q w ^ ; i e w q u e t u Q t t 7 y t u n S q.L.$X#.F N.B T 7 q t q w ^ ; i e w q u e t u Q t t 7 y t u y t y 8 t ",
"7 e q t : % 4 q q 7 3 4 7 7 7 u u u t w w : r q t t u 0 l P.I.B.N.I.P.C.g c 6 7 q 7 3 4 7 7 7 u u u t w w : r q t t u e q q ; = ",
"7 q : 7 w 4 7 ; q 4 w w t u 7 q w e : ! u q 7 3 w y w j g ` w.X.w.U.{ o.g d g O O > w w t u 7 q w e : ! u q 7 3 w y w w r w 7 q ",
"y 4 7 Q t y y w & q t t e y w y y q w r i q q 7 w y 0 S } X.g.=.x.t.{ O.N V M.C B C v t e y w y y q w r i q q 7 w y e ^ t 7 t ~ ",
"w 7 u e t y y u : u u ~ ~ u t 3.= ! i 7 : q q y y 1.Y o...X.:.r.k.k.X.+.2 B >.$ M.Z g / ~ u t 3.= ! i 7 : q q y y 1.Q w t r Q t ",
"q 8 8.<.q q 7 w 7 y r ^ y i Q i 4 y ~ ! e ; y y 3.0 b #.[ t.=.h.j.k.X.|  .g Z M.F @ A ^ y i Q i 4 y ~ ! e ; y y 3.w w q 7 7 q y ",
"q 3 ^ Q 4 7 7 7 q y t u ! i e u 7 Q Q r ) 7 e ! 8.q g 2 *.j.j.k.k.g.| s c g O v j n r u ! i e u 7 Q Q r ) 7 e ! 8.q q 7 7 7 Q q ",
"w ; y q t 4 w e 7 w t u u u u u 7 t ~ q 7 ; y t y q m 1 t.k.j.;.=.&.$ d d > w r 6 w t u u u u u 7 t ~ q 7 ; y t y q 7 q =   e ) ",
"8 q t 5.Q t u q 4 t 7 t t w / ) = 7 q t 8 7 t ! 0 b c ;.j.j.g.=.-.O.S T W t u q 4 t 7 t t w / ) = 7 q t 8 7 t ! q q 4 7 6.3 Q 6.",
"8 y u t 4 q q 7 ~ t ; 7 w 7 / q 7 7 ; 3.w t 3 7 O 7.f.h.j.k.=.t.X.$ j t 4 q q 7 ~ t ; 7 w 7 / q 7 7 ; 3.w t 3 7 = ~ y Q u q 7 8 ",
"Q t 7 4 q : = y e y ^ 7 7 7 q w t w t q 7 8 u ! d z.k.j.j.g.=.t.+ g 7 4 q : = y e y ^ 7 7 7 q w t w t q 7 8 u ~ r / Q 8 8 q = 7 ",
"u r 7 4 w Q 7 w Q y Q Q 7 = u Q Q u Q w = Q y r b 9.k.x.g.=.O.X.m 5 7 4 w Q 7 w Q y Q Q 7 = u Q Q u Q w = Q y r w y w 7 q ; % y ",
"q : ; 4 t u q w y t q w 7 e 5.8.4.4.u y : u ! 8 6 E g.O.+...1 f 9 : ; 4 t u q w y t q w 7 e 5.8.4.4.u y : u ~ 8 q q q q t w 7 q ",
"q : i ; t q t r y e e : ; e ! Q w r r t : t t 7 g O.g.$.# # @ b 7 : i ; t q t r y e e : ; e ! Q w r r t : t t 7 7 7 y t q 7 u 7 ",
"4 7 q 4 e q ^ 7 t y q 7 7 y Q 7 : 7 t 7 = 3 7 4 b  .*.{ [ { ..X.c 6 q 4 e q ^ 7 t y q 7 7 y Q 7 : 7 t 7 = 3 7 4 4 t t q 7 7 w % ",
"! e q ; ~ w 4 & q y 7 7 4 y u t 7 7 e ; : t y 9 1 ..# [ O.+.| O.n 9 q ; ~ w 4 & q y 7 7 4 y u t 7 7 e ; : t y w w t 7 : ; q 4 7 ",
"u y q 7 = q ; : ; w 7 3 w 7 u 7 7 ; ; 4 t y y r c $ [ ..} [ { $ Y y q 7 = q ; : ; w 7 3 w 7 u 7 7 ; ; 4 t y y y w 7.q y t y 7 q ",
"4 E y 7   4 i y u 7 = w u u = = 7 q y u u y w <.f @ [ O.2.L.,.s 6 E y 7   4 i y u 7 = w u u = = 7 q y u u y w <.t 7 u w e w ~ t ",
"7 / w 3 * w y i w t : y w ! q w y y y w u ^ t t O Y ,  .J./.u.G 6 ! w 3 * w y i w t : y w ! q w y y y w u ^ t t ; y r 7 4 : ; 4 ",
"7 4 7 t i 4 q q w w q w q e w 7 q t t q q t : : y r 6 j K H.m._ D O 7 t i 4 8 q w w q w q e w 7 q t t q q t : : y r 7 4 ; : = 3 ",
"t 8 y t t e w q 4 7 ; t 4 w 7 ~ ; t t 7 r r : 7 y 7 : : g _ n.L.a.h r t t e w q 4 7 ; t 4 w 7 ~ ; t t 7 r r : 7 y 7 3 : : t 4 3 ",
"q 7 ! t y 7 y q q : 7 q : w 7 q q q w 7 7 7 7 3 q 7 ; 5.T T k d.s.d W t y 7 y q q : 7 q : w 7 q q q w 7 7 7 7 3 q 7 ; 5.~ Q q w ",
"4 7 w y 4 y w i q q y i u & q t Q ~ y 3 q y i y y y t ~ t > d a.s.p , y 4 y w i q q y i u & q t Q ~ y 3 q y i y y y t ~ t : t ^ ",
"3 7 7 7 7 7 4 4 E i t / q u e w y ^ ~ 7 y u 7 7 7 / y e : : m i.a.G 7 7 7 7 4 4 E i t / q u e w y ^ ~ 7 y u 7 7 7 / y e : : t t ",
"3 7 = y q 7 7 & ~ w 7 q i y 4 4 7 q 7 r u 7 q 7 7 7 7 Q r : 5 G i.O = y q 7 7 & ~ w 7 q i y 4 4 7 q 7 r u 7 q 7 7 7 7 Q r : w t ",
"7 3 % 7 t 4 y u w 7 q 7 t q q q 4 q e 3 ! 7 r q 7 w r / r 7 ; 0 g < % 7 t 4 y u w 7 q 7 t q q q 4 q e 3 ! 7 r q 7 w r / r 7 ; t ",
": = ; q 4 7 4 e t q 4 ; w ; 7 7 = : r r r r 7 7 t - e q 7 & : 4 : = ; q 4 7 4 e t q 4 ; w ; 7 7 = : r r r r 7 7 t - e q 7 & : 4 ",
"w 7 7 w q 7 7 y q 7 7 t y w ~ t 4 t 8.y ; = ; : 7 4 4 = q ; q q q 7 7 w q 7 7 y q 7 7 t y w ~ t 4 t 8.y ; = ; : 7 4 4 = q ; q q ",
"Q t : t y w t q 3 ; Q y w ^ y : q ! ^ u 8 7 r y w w q 7 w w q t Q t : t y w t q 3 ; Q y w ^ y : q ! ^ u 8 7 r y w w q 7 w w q t "
};
