/* XPM */
static char *xpm_[] = {
/* columns rows colors chars-per-pixel */
"64 64 251 2 ",
"   c #060419",
".  c #1C171B",
"X  c #0F0C10",
"o  c #251A17",
"O  c #300712",
"+  c #35251E",
"@  c #2C2118",
"#  c #0A0824",
"$  c #120E23",
"%  c #191627",
"&  c #1C1D32",
"*  c #141836",
"=  c #071136",
"-  c #291E23",
";  c #251C26",
":  c #3C1125",
">  c #241934",
",  c #220D36",
"<  c #172638",
"1  c #2C2328",
"2  c #372928",
"3  c #3D3025",
"4  c #232235",
"5  c #292937",
"6  c #352B34",
"7  c #383339",
"8  c #4F0D1A",
"9  c #6E0F16",
"0  c #511033",
"q  c #6D162C",
"w  c #453325",
"e  c #4A3727",
"r  c #4A372B",
"t  c #4E3A2A",
"y  c #47352A",
"u  c #543E2C",
"i  c #583F2C",
"p  c #59312D",
"a  c #443433",
"s  c #4A3B37",
"d  c #533E33",
"f  c #553B3A",
"g  c #49262D",
"h  c #722C35",
"j  c #7D261B",
"k  c #394737",
"l  c #56402E",
"z  c #5A422E",
"x  c #5D4431",
"c  c #5E4834",
"v  c #574339",
"b  c #614633",
"n  c #644935",
"m  c #694D37",
"M  c #664C39",
"N  c #6A4E39",
"B  c #654738",
"V  c #6E513B",
"C  c #72543D",
"Z  c #76573B",
"A  c #7D5918",
"S  c #131A44",
"D  c #290C48",
"F  c #292A45",
"G  c #2D3348",
"H  c #373649",
"J  c #3A3B51",
"K  c #2C347D",
"L  c #172C65",
"P  c #453B47",
"I  c #553752",
"U  c #7B3149",
"Y  c #3E435E",
"T  c #3B476E",
"R  c #4D4852",
"E  c #6E5541",
"W  c #745641",
"Q  c #765943",
"!  c #7A5B44",
"~  c #7D5D48",
"^  c #765B49",
"/  c #6B4B48",
"(  c #7D614A",
")  c #505368",
"_  c #6C4D6F",
"`  c #5D6475",
"'  c #6B6975",
"]  c #88090C",
"[  c #AC150C",
"{  c #9A2419",
"}  c #84241C",
"|  c #A72418",
" . c #B72717",
".. c #8C1725",
"X. c #AD0625",
"o. c #952B2E",
"O. c #AB3727",
"+. c #CD1A01",
"@. c #D32712",
"#. c #D22C0F",
"$. c #FF2B00",
"%. c #E23609",
"&. c #ED320B",
"*. c #DF271E",
"=. c #A0441F",
"-. c #FB5919",
";. c #F04F17",
":. c #DF5724",
">. c #F04F2F",
",. c #D86E32",
"<. c #F2762F",
"1. c #E25A0A",
"2. c #8E344B",
"3. c #AF3646",
"4. c #B13765",
"5. c #F2275C",
"6. c #815E49",
"7. c #8C5355",
"8. c #AE5951",
"9. c #83634D",
"0. c #816443",
"q. c #876751",
"w. c #8B6B52",
"e. c #876A55",
"r. c #93735B",
"t. c #916E51",
"y. c #B16559",
"u. c #8A546E",
"i. c #906F6F",
"p. c #B87168",
"a. c #AF5371",
"s. c #D27844",
"d. c #D06953",
"f. c #E4734D",
"g. c #D67A69",
"h. c #FA616A",
"j. c #B28119",
"k. c #F8893A",
"l. c #FE993B",
"z. c #FE8529",
"x. c #FFA238",
"c. c #FFFF3D",
"v. c #BA8175",
"b. c #979B46",
"n. c #FD9A42",
"m. c #EC8B56",
"M. c #FFAB4B",
"N. c #FFA447",
"B. c #FFB54A",
"V. c #F1AB4E",
"C. c #CA8D79",
"Z. c #D18571",
"A. c #EB9074",
"S. c #DE9C53",
"D. c #FFE458",
"F. c #0123AF",
"G. c #131893",
"H. c #3C4F8D",
"J. c #1A66B5",
"K. c #285DAC",
"L. c #48548B",
"P. c #4F5D8F",
"I. c #586497",
"U. c #5B6583",
"Y. c #656C9A",
"T. c #697294",
"R. c #5970A9",
"E. c #6978A9",
"W. c #6679AC",
"Q. c #2A6FC9",
"!. c #0C6EC4",
"~. c #4767C2",
"^. c #597BEB",
"/. c #8C778B",
"(. c #BE7F84",
"). c #E75DA0",
"_. c #B37AE7",
"`. c #D967D6",
"'. c #7883AB",
"]. c #7B8AB7",
"[. c #768EAD",
"{. c #0D82E7",
"}. c #7C95C4",
"|. c #75B3FF",
" X c #6FADFF",
".X c #5989F1",
"XX c #9C8886",
"oX c #8D8B95",
"OX c #B4978A",
"+X c #A4958D",
"@X c #B3A49C",
"#X c #9B9BAE",
"$X c #8B96BA",
"%X c #909BBC",
"&X c #858BA4",
"*X c #A5A7B7",
"=X c #AEB5B0",
"-X c #AB9CB0",
";X c #D2938B",
":X c #D8A998",
">X c #C6A597",
",X c #E4A896",
"<X c #F4AF91",
"1X c #D6A8A5",
"2X c #CDB6A6",
"3X c #EDB9A3",
"4X c #F19283",
"5X c #DEC3A5",
"6X c #FCC8AA",
"7X c #FFDEBD",
"8X c #FBD3B4",
"9X c #FFE8B4",
"0X c #FFC49E",
"qX c #899BC5",
"wX c #919EC3",
"eX c #98A4C7",
"rX c #95ACD4",
"tX c #9DB2D7",
"yX c #8EA8CC",
"uX c #A8B2CA",
"iX c #A5B6D7",
"pX c #B3BDD4",
"aX c #B1B2C9",
"sX c #A2BBE6",
"dX c #9CBAE1",
"fX c #BDC6D8",
"gX c #B8D6DA",
"hX c #ADC2E6",
"jX c #BACAE6",
"kX c #B6CEEF",
"lX c #C6CCD9",
"zX c #D0D0D7",
"xX c #FBDAC2",
"cX c #E9D5CB",
"vX c #FCF6D5",
"bX c #FAEACD",
"nX c #CCD6E8",
"mX c #D3DBE7",
"MX c #C3D7F3",
"NX c #DCE2EC",
"BX c #D8E8F9",
"VX c #D3EFFF",
"CX c #FFFBE7",
"ZX c #E3EBF4",
"AX c #E5EDF6",
"SX c #E9F5FD",
"DX c #F5FCFE",
"FX c #FFFFFF",
"GX c #FEFFFF",
"HX c #FAFCF5",
"JX c #E3E5EA",
/* pixels */
"~ ~ e N V x b z l n N b z z z u V V m x n x N n b z x z b z n m ~ ~ e N V x b x l n N b z z z u V V m x n x N n b z x z b z n m ",
"V V N n b z b u l z z b b z u b V N N b w m w.N 9.n b z n i V m V V N n b x b i l z z b b z u b V N N b w m w.N 9.n b z n i V m ",
"m b m C V w b V m C n e V V C z z z x m n N x N m u i i x u N m m b N C V w b V m C n e V V C z z z x m n N x N m u i i x u N m ",
"x V C C 9.z b N b n ~ u Z m n b C m N C W N m x V N C V N V d & & & 4 & & d b N b n ~ u Z m n b C m N C W N N x V N C C N V c N ",
"x m b N i w z b b x l z x x x C C C N n n i M b N N C m b d H nXnXmXmXH 2 w z b b x l z x x x C C C N n n i M b N N C m b b u t ",
"x b i x n z x u b z n n N C x 4 4 5 % % % $ $ . a V n n x 5 mXFXFXFX' a n z x u b z n n N C x b n m i Q C b x l n V n n M n x b ",
"V z x W N V V n e b N N m V n s s $ *XzXuXaXaXuXY y m N 7 mXDXkXmX) 3 W N V V n e b N N m V n V V b n B Z b b x n V m ~ N x N ! ",
"n x C m N V V C i C C ! ! C N 9.t B ) FXFXFXFXFXMXY o F pXFXrXsXlX  C m N V V C i C C ! ! C N 9.t Q Z x i b b V V 6.W n N M E N ",
"b c r.6.b b x n x V M ~ V Z W C 6 V B G JXFX%XY.qXL.S I.SXmXyXZXmX4 e.6.b b x n x V M ~ V Z W W z V ! Q m u V V 9.n n b x x b V ",
"b l ~ W z x x x b V N C Q Z m N & N W t P lXlXK P.nXjX].].SXiXFXNX4 W W z x x x b V N C Q Z m C x W W M ( x m Q r.b b x x x W b ",
"n u V b N z n m x n N C C C C V > o ! b X *XFXmXE.lXFXNX'.E.jXSXiX& M b N z n m a s N C C C C C x N ! b x u V N V b x b t 3 m ( ",
"c b N w.W N C b z N x N N n ^ ( 4 T.7 N d R zXFXlXE.pXFXZXI.].FXqX& b w.W N C r $ 7 x N N n ^ ( t x b N c x N Q b b z x e.l W e.",
"c V C N z b b x ! N u x n x ^ c 4 DX=X6 w . U.DXFX$XI.DXFXAX'.wXwX4 C N z x y R Y d u x n x ^ b x x u 9.n N l x t ! V W C b x c ",
"W N x z b i t V m V ~ x x x b b > lXFX#X` ) R.hXDX$XY.DXBXDXZX].$X  + 2 b y G kXU.o s 2 2 a b n N n N b x c C ! b ^ W c c b t x ",
"C M x z n W x n W V W W x t C W 4 lXDXDXFXSXtX}.jXwX%XFXZXNXDXDXyX` ` ` 2 H iXVXT F ' oX` $ C W W C W n t W V M n V n x b u w V ",
"b i u z N C b n V N b n x m w.r.4 lXFXAXZXDXnXtXyXyXhXZXFXDXAXnXhXFXFXFXoX].hX].R.nXFXFX' a w.r.q.q.C V i C ! c b b b b N n x b ",
"b i Z u N b N m V m m i u m Q W & ZXSXNXDXAXFXBXrXtXrXtXeXpXFXZX'.uXDXfXjXI.I.Y.fXFXAX) + m Q W n M M N i N N x x x V N b x C x ",
"z x b z m b ~ x N V b x x V W x 1 *XMXBXZXAXnXqXW.yXtXW.L.'.NXuXI.Y.fX'.I.H.P.NXFXJX) e x V W x i x N x t l x z z N N b x x n w ",
"Q m b u ! n z e b V x x z V C N x - oXrX}.qXE.I.I.].W.%XFXAX].E.DXZXL.nXFX'.uXZXSX) @ u t c C N x x m u i N V n n N x i u b z x ",
"C V b x t x u i u n x l n x C x x t 1 U.I.H.pXFXFX$XE.DXAXMXdXAXDXZXR.fXDXFXY.W.kXU.& R J % C x x u u z N V V V n t.b V N V x b ",
"z E V x 3 z Z V C x t n C C t t x G lXFXE.%XFXAXDX].'.SXqX%XuXSXSXBXeXqXAXDXY.uXDXAXDXFXoX1 t t x b V C C V n 6.N x C n m n ! N ",
"x ^ n l t n V Z n N i V n Q b x > fXFXDXY.eXFXnXsXW.$XVX#XO.p.DXVXeXy.*XVXE.uXDXZXSXFXoX1 Q b n V V V n C ~ N N u V N x z i u z ",
"x z x N Q z b b n n b n b m n > & J H G # *XBXnXjXjXeX}.zX| d.VXeX8.3XJXW.'.hXhXiXkXU.2 b m n x b N N b b N i i V M b z u i t l ",
"N c V N N m n b z x u N z n x / e c c d . *XDX&X& G P _ R._ p.eXp.3X&XR.L.F '.sXsXU.  a z n x ! u N N x M M i x V x l i i N z l ",
"b x Q N V x V b b i x b i n x b b b n c ; fX*X    8 j /.nX}.T.cX3XE.rXlX_ j g H.W.L.P.Y % 6 x b b b n x x x x l b x u w.! W b n ",
"z x b V z V n Z b b V Z C e b N W ! V l 1 R s x 1 i.;X/.FXrXJ d.y.G gXFXu.,Xf T hXU.F H d y b N W ! V l b V C V V V N ! N i N ~ ",
"l x x x x x z z E Z N ^ b C m n V ~ ! x 5 ; x x 2 @X8Xu.vXcXC.O.:X2XcXHXu.xX' * ) s d W b C m n V ~ ! x V C x x x ^ V m i i N N ",
"l x t V b x x e ! n x b Z V z z x b x M v l b z u R a /.GX7XxX3XbXbXbXFX) P s 2 d b x b Z V z z x b x M C x b x x x x W M i n N ",
"x l w x N z V C n x b x N b b b z b m l Z x n b x n 2 F aXGX7XvX7X7XFX-X* 2 V C n x b x N b b b z b m l Q x M b x n M ^ B x u N ",
"i t u b z x z m N b z u n u x x t i M M m m a ; 1 ; ; O 2.aXFXvXvXFX-Xh   - - - 1 x x u n u x x t i M M M M x x N t m b x e i z ",
"n x x n b x x V b x x N V n ! N z N r.V u 6 O i.#XXX=Xv.] q /.XXXX/.9 { OX=XXX#X7.O s N V n ! N z N r.V u t u i x z z t b u b b ",
"W N i N V n N b l u W V n ~ V i b Q ~ C c % i.FXFX7XA.,X1X1X7.q h i.1X1X,XA.vXFXCX/ 6 V n ~ V i b Q ~ C c x M V n n b x n n b N ",
"~ ~ e N V x b x l n N b z z z u V V m x n o gXHXC.C.8.:XFXFXCXO.d.FXFXFXC.8.g.Z.FX[.w b z z z i V V m x n x N n b z x z b z n m ",
"V V N n b x b i l z z b b z u b V N m b 2 6 v.d.] ,XFXvXvXvX;X{ O.1XbXvXCXGX3X{ d.r.2 d n z i b V N N b w m w.N 9.n b z n i V m ",
"m b m C V w b V m C n e V V C z z z x m & 2.f.v.7.y.6X,X:XZ.p.1X:Xy.C.:X,X<X2XOXp.f.h 4 V V C z z z x m n N x N m u i i x u N m ",
"x V C C 9.z b N b n ~ u Z m n b C m N C 1 0 6XFX+XX o.o.o.:XHXcXcXCX;Xo.o.o.  =XFX;X: 1 Z m n b C m N C W N N x V N C V N V c N ",
"x m b N i w z b b x l z x x x C C C N n ; , ;XcX' $ f <.m.6XA.o.p.9X0Xf.f.6 $ i.xX(.# 2 x x x C C C N n n i M b N N C m b b u t ",
"x b i x n z x u b z n n N C x b n m i / P I 2.g d B B S.,.+.+.m.9Xz.%.,.S.a z 2 h 2.I s n C x b n m i Q C b x l n V n n m n x b ",
"V z x W N V V n e b N N m V n V V b n % 5X3X> 6 n V d * S 2. .S.,.| U = & M V n % g xXOX- V n V V b n B Z b b x n V m ~ N x N ! ",
"n x C m N V V C i C C ! ! C N 9.t Z Z % @XHX' 2 V 6.W s F G.F.F.F.F.G.5 x N V C ; XXDX/.1 C N 9.t Q Z x i b b V V 6.W n N M W N ",
"b c r.6.b b x n x V M ~ V Z W Z z V ! 1 ~. XK + ( m a M -.3..X^..X^.*.<.7 l x b o K.|.H.2 Z W Z z V ! Q m u V V 9.n n b x x b V ",
"b l ~ W z x x x b V N C Q Z m C x W W - ~.|.L.. R b 7 9 -.B.s.U n.;.k.;.: a x 6 . R.|.H.2 W m C x W W M ( x m Q r.b b x x x W b ",
"n u V b N z n m x n N C C C C C x N ! % @XvXvXi.a s 8 ;.N.B.,.h z.%.n.N.%.: c 1 XXvXvXi.1 C V W x N ! b x u V N V b x b t 3 m ( ",
"c b N w.W N C b z N x N N n ^ ( t x b % 2X<Xd./ a s 8 -.B.M.s.h k.%.k.B.l.a M 6 7.d.6X+X1 n ^ ( t x b N c x N Q b b z x e.l W e.",
"c V C N z b b x ! N u x n x ^ b x x u > 2XA.A.XX  E :.%.M.M.s.h k.%.k.M.M.S.a # OXg.<X+X; x ^ b x x u 9.n N l x t ! V W C b x c ",
"W N x z b i t V m V ~ x x x b n N b N $ 2XCXXX5 Z k.Z.<Xl.B.S.q %.#.k.M.n.-.<.v G >XHXXX. x b n N n N b x c C ! M ^ W c c b t x ",
"C M x z n W x n W V W W x t C W W C W d P ` v 2 g g.SX9Xx.l. .0 ..k.N.N.N.%.$.p s R ` P d t C W W C W n t W V M n V n x b u w V ",
"b i u z N C b n V N b n x m w.r.q.q.C V e x v p 9 U A.D.k.;.,.* , :.N.M.n.O.4Xd.g d r c x m w.r.q.q.C V i C ! c b b b b N n x b ",
"b i Z u N b N M V m m i u m Q W n M M N i v g &. .9 -.l.:.<.:.= 4 <.;.n.N.5X*X;.+.g c i u m Q W n M M N i N N x x x V N b x C x ",
"z x b z m b ~ x N V b x x V W x i x N x t <  .&.0 ..;.%.$.:.8 1 7 0.<.-.N.A.q 8 &.} 5 x x V W x i x N x t l x z z N N b x x n w ",
"Q m b u ! n z e b V x x z V C N x x m u i 5 | | D | $.+...8 < x Q = 6.{ ;.$.] D  .j 6 x z C Z N x x m u i N V n n N x i u b z x ",
"C V b x t b u i u n x l n x C x x u u z N < #.@.D j | 0 0 } 4 b V > ] 0 q | q D @.{ 5 l n x C x x u u z N V V V n t.b V N V x b ",
"z E V x 3 z Z V C x t n C C t t x b V C C s p  ...D 0 | @.{ * N l >  .@.{ 0 D ..| g 3 n C C t t x b V C C V n 6.N x C n m n ! N ",
"x ^ n l t n V Z n N i V n Q b n V V V n C ~ 7 9 +.9 [ #.} , 6 z x 7 > { @.[ j +.8 s i V n Q b n V V V n C ~ N N u V M x z i u z ",
"x z x N Z z c b n n b n b m n x b N m b x N 1 L 3.>.u.= < 6 t l x z 5 5 , a.>.2.L a b n b m n x b N N b b N i i V M x z u i t l ",
"N c V N m m n x z x u N z n x ! u N N x m M o {.`.5.J.2 i N z l M c V N 6 Q.5._.!.3 u N z n x ! u N N x M M i x V x l i i N z l ",
"b x Q N V x V b b i x b i n x b b b n x x x ; H.`.2.. w.! W b n b x Q N V $ 4.`.K 2 x b i n x b b b n x x x x l b x u w.! W b n ",
"z x n V z V n Z b b V Z C e b N W ! V l b M k #.).J.3 ! N i N ~ l x n N x 2 Q.h.=.k B Z C e b N W ! V l b V C V V V V ! N i N ~ ",
"l x x x x x z z E Z N ^ b C m n V ~ ! x V > j.c.b.6 V m i i N N l x x x x x $ b.c.A 6 ^ b C m n V ~ ! x V C x x x Q V m i i N N ",
"l x t V b x x e ! n x b Z V z z x b x M M < @.).J.2 x W M i n N l x t V b x - Q.)...5 x Z V z z x b x M C x b x x x x W M i n N ",
"x l w x N z V C n x b x N b b b z b m l 2 Q.).X.5 n M ^ B x u N x l w x N z V 5 X.`.K.2 N b b b z b m l Q x M b x n M ^ B x u N ",
"i t u b z x z m N b x u n u x x t i M M M M x x N t m b x e i z i t u b z x z m N b z u n u x x t i M M M M x x N t m b x e i z ",
"n x x n b x x V b x x N V n ! N z N r.V u t u i x z z t b u b b n x x n b x x V b x x N V n ! N z N r.V u t u i x z z t b u b b ",
"W N i N V n N b l u W V n ~ V i b Q ~ C c x M V n n b x n n b N W N i N V n N b l u W V n ~ V i b Q ~ C c x M V n n b x n n b N "
};
