/* XPM */
static char *xpm_[] = {
/* columns rows colors chars-per-pixel */
"64 64 148 2 ",
"   c black",
".  c #0D1C38",
"X  c #3F3021",
"o  c #521800",
"O  c #463424",
"+  c #4A3726",
"@  c #4C3927",
"#  c #4B3728",
"$  c #4E3A2A",
"%  c #543E2C",
"&  c #583F2C",
"*  c #56402E",
"=  c #5A422E",
"-  c #5D4431",
";  c #5E4834",
":  c #614633",
">  c #644935",
",  c #694D37",
"<  c #664C38",
"1  c #684D38",
"2  c #694C39",
"3  c #694D39",
"4  c #684C38",
"5  c #6A4D38",
"6  c #6A4D39",
"7  c #684F38",
"8  c #684F39",
"9  c #6A4E38",
"0  c #6B4E38",
"q  c #6A4E39",
"w  c #6B4E39",
"e  c #684E3A",
"r  c #694E3A",
"t  c #6B4F3A",
"y  c #6B4F3B",
"u  c #6C4E38",
"i  c #6C4E39",
"p  c #6C4F39",
"a  c #6C4E3A",
"s  c #6C4F3A",
"d  c #6C4F3B",
"f  c #6D4F3B",
"g  c #6C4F3C",
"h  c #6A4E39",
"j  c #6B5039",
"k  c #6D5038",
"l  c #6C5039",
"z  c #6C5139",
"x  c #6F5138",
"c  c #6C503A",
"v  c #6D503A",
"b  c #6C513A",
"n  c #6D513A",
"m  c #6D503B",
"M  c #6D513B",
"N  c #6E513A",
"B  c #6E503B",
"V  c #6E503B",
"C  c #6F523B",
"Z  c #6F533B",
"A  c #6A503C",
"S  c #6E503C",
"D  c #6E503D",
"F  c #6F513D",
"G  c #6F523C",
"H  c #6E523D",
"J  c #6F543F",
"K  c #6E513B",
"L  c #705139",
"P  c #705238",
"I  c #70523A",
"U  c #70533A",
"Y  c #70523B",
"T  c #70533B",
"R  c #72543A",
"E  c #70523C",
"W  c #70533C",
"Q  c #71533C",
"!  c #71533D",
"~  c #71523E",
"^  c #71533E",
"/  c #73543C",
"(  c #72543D",
")  c #71543E",
"_  c #70543E",
"`  c #72543F",
"'  c #73553E",
"]  c #74553E",
"[  c #75573F",
"{  c #77573F",
"}  c #76573F",
"|  c #72543D",
" . c #73583F",
".. c #152560",
"X. c #1B376D",
"o. c #474648",
"O. c #6F5340",
"+. c #6E5541",
"@. c #735640",
"#. c #745640",
"$. c #755640",
"%. c #765641",
"&. c #745641",
"*. c #775840",
"=. c #765843",
"-. c #765943",
";. c #795942",
":. c #785A43",
">. c #7B5B43",
",. c #795B46",
"<. c #7F5D44",
"1. c #7C5E46",
"2. c #7E5F47",
"3. c #7A5B43",
"4. c #765B49",
"5. c #7F5E48",
"6. c #7C5E4A",
"7. c #7C5D48",
"8. c #7A604B",
"9. c #7E6148",
"0. c #7E614A",
"q. c #9E3000",
"w. c #ED1C24",
"e. c #854F3D",
"r. c #FF4F01",
"t. c #815F47",
"y. c #815F47",
"u. c #805F4A",
"i. c #805F49",
"p. c #84634B",
"a. c #80614D",
"s. c #83654E",
"d. c #85654D",
"f. c #83634C",
"g. c #876651",
"h. c #876A55",
"j. c #8E6C54",
"k. c #8B6B52",
"l. c #916E51",
"z. c #927359",
"x. c #95745D",
"c. c #93735B",
"v. c #F0AA0C",
"b. c #CF8D64",
"n. c #2948B8",
"m. c #A5B5B6",
"M. c #FFC79F",
"N. c gray95",
/* pixels */
"2.2.@ p n - : - * > 9 : = = = % n G 4 - > - g > : = - = : = > 9 2.2.@ p n - : - * > 9 : = = = % n G 4 - > - g > : = - = : = > 9 ",
"n j 9 > : - : % * = = : : = % : n 9 9 : O 9 j.p a.> : = > % n , n j 9 > : - : % * = = : : = % : n 9 9 : O 9 j.p a.> : = > % n , ",
"9 : 9 / n O : n 9 / > # J n E = = = - 9 > 9 - 9 9 % % % - % 9 9 9 : 9 / n O : n 9 / > # J n E = = = - 9 > 9 - 9 9 % % % - % 9 9 ",
"- n I I p.= : 9 : > 5.% { 9 > : I 9 p E #.9 9 - n 9 / G 9 n ; 9 - n I I p.= : 9 : > 5.% { 9 > : I 9 p E #.9 9 - n 9 / G 9 n ; 9 ",
"- 4 : 9 % O = : : - * = - - - E R / 9 > > & < : p p E 9 : : % $ - 4 : 9 % O = : : - * = - - - E R / 9 > > & < : p p E 9 : : % $ ",
"- : % - > = - % : = > > u I - : > 9 & *.E : - * > G > > < > -   - : % - > = - % : = > > u I - : > 9 & *.E : - * > G > > < > - : ",
"n = - #.9 G G > + : p p 9 n > A n : > < { :         9 2.p - 9     = - #.9 G G > + : p p 9 n > A n : > < { : : - > n 9 2.p - 9 ;.",
"> - / 4 9 n G I % / / ,.;.E p d.$ *.{                   9 < O.      / 4 9 n G I % / / ,.;.E p d.$ *.{ - % : : n n t.#.> 9 < O.u ",
": ; x.u.: : - > - n < 5.G { #.{ = n ;.*.,                 - : G       u.: : - > - n < 5.G { #.{ = n ;.*., % j n s.> > : - - : G ",
": * 5.#.= - - - : n p / *.{ 9 / - #.&.< 0.- ,               &.:       #.= - - - : n p / *.{ 9 / - #.&.< 0.- , *.z.: : - - - &.: ",
"> % n : 9 = > 4 - > u I E I / / - 9 ;.: - % n 9               8.        9 = > 4 - > 9 I E I / / - 9 ;.: - % n 9 G : - : $ X 9 8.",
"; : 9 k.#.9 E : = 9 - 9 p > 4.0.$ - : 9 ; - 9 *.              h.        #.9 E : = 9 - 9 p > 4.0.$ - : 9 ; - 9 *.: : = - h.* &.h.",
"; n E 9 = : : - ;.9 % - > - 4.: - - % f.> 9 * - $                       =   : - ;.9 % - > - 4.: - - % f.> 9 * - $ ,.G &./ : - ; ",
"#.9 - = : % $ n 9 n 7.- - - : > 9 > 9 : - ; / 3.:                       :   $ n 9 n 7.- - - : > 9 > 9 : - ; / 3.: 4.&.; ; : $ - ",
"/ < - = > #.- > #.J #.&.- $ / #.&.E &.> $       >                           - > #.J #.&.- $ / #.&.E &.> $ &.n < > G > - : % O n ",
": & % = p / : > G 9 : > - 9 k.c.g.g.E                                         > G 9 : >     k.c.g.g.E G % / ;.; : : : : 9 > - : ",
": % { % 9 : 9 < G 9 4 & % 4 *.&.> <                                           < G         4 *.&.> < < g % 9 g - - - n 9 : - E - ",
"= - : = 9 : 5.- 9 n : - - n #.- %                                                       - n #.- % - 9 - $ * - = = p p : - - > O ",
"*.9 : % ;.> = + : G - - = G / 9 - - 9 % % p                                           - = G / 9 - - 9 % % p n > > p - % % : = - ",
"/ G : - $ : % % % > - * > - E - - % % = 9 n n G                                                 - % % = 9 n n G > l.: n 9 n - : ",
"= +.G - X = { n / - $ > E / $ $ - : n / E n                                                 $ $ - : n / E n > u.9 - E > 9 > ,.9 ",
"- 4.> * @ > n { > 9 % n > *.: > n n n > /                       b.                      > *.: > n n n > / 2.9 p % n 9 - = % % = ",
"- = - 9 *.= : : > > : > : 4 > - : 9 9 :                 b.    M.M.    b.              > : 4 > - : 9 9 : : p % % n < : = % % $ * ",
"9 ; n 9 9 9 > : = - % p = > - <.% 9 9 - < < %       b.        M.M.  b.      b.              - <.% 9 9 - < < % - n - * % % 9 = * ",
": - *.9 j - n : : % - : % > - : : : > - - - - * :   b.e.e.N.  M.M.b.  N.  e.b.          % > - : : : > - - - - * : - % k.;.#.: > ",
"= - : j = n > { : : n { I + : 9 #.;.G * : J  .J j   b.e.b.N.o.  M.  o.N.b.e.b.    : n { I + : 9 #.;.G * : J  .J j j 9 ;.9 % 9 5.",
"* - - - - - = = +.#.9 4.: / 9 > G 7.;.- J / - - - 4.    b.b.M.M.M.M.M.b.b.    = +.{ 9 4.: / 9 > G 7.;.- J / - - - 4.j 9 % % 9 p ",
"* - $ n : - - + <.> - : { G = = - : - < / - : - - - - &.  b.M.M.M.M.M.b.  - - + <.> - : { G = = - : - < / - : - - - - &.< % > 9 ",
"- * O - 9 = G / > - : - 9 : : : = : , * *.- < : - >         b.M.M.M.b.        / > - : - 9 : : : = : , * *.- < : - > < 4.< - % 9 ",
"% $ % : = - = 9 9 : = % > % - - $ % < < < < - -       q.r.b.e.e.e.e.e.b.r.r.      : = % > % - - $ % < < < < - - 9 # , : - + % = ",
"> - - > : - - G : - - p n > ;.p = 9 z.J % $ %   . X.r.q.r.M.M.b.e.b.M.M.r.q.r.X..   - p n > ;.p = 9 z.J % $ % % - = = $ : % : : ",
"&.9 % 9 G > 9 : * % #.n > 2.G % : *.2.I ; - <   X.. X.r.q.X.M.M.e.M.M.X.q.r.X.. X.  #.n > 2.G % : *.2.I ; - < n > > : - > > : p ",
"2.2.@ p n - : - * > 9 : = = = % n G 4 - > - g   M.b.. r.r.q.X.X.X.X.X.q.r.r.. b.M.  9 : = = = % n G 4 - > - g > : = - = : = > 9 ",
"n j 9 > : - : % * = = : : = % : n 9 9 : O 9   M.b.M.. r.r.r.X.X.. . . r.r.r.. M.b.M.  : : = % : n 9 9 : O 9 j.p a.> : = > % n , ",
"9 : 9 / n O : n 9 / > # J n E = = = - 9 > 9   b.M.M.  q.q.r.r.X.. . r.N.m.q.  M.M.b.  # J n E = = = - 9 > 9 - 9 9 % % % - % 9 9 ",
"- n I I p.= : 9 : > 5.% { 9 > : I 9 p E #.9   b.M.M.  q.q.q.r.r.X.r.r.m.N.q.  M.M.b.  % { 9 > : I 9 p E #.9 9 - n 9 / G 9 n ; 9 ",
"- 4 : 9 % O = : : - * = - - - E R / 9 > > &   M.e.  E   r.q.r.r.r.r.q.r.r.  =   e.M.  = - - - E R / 9 > > & < : p p E 9 : : % $ ",
"- : % - > = - % : = > > u I - : > 9 & *.E   M.M.  G > >   n.r.r.r.q.r.n.  = - %   M.M.  u I - : > 9 & *.E : - * > G > > 4 > - : ",
"n = - #.9 G G > + : p p 9 n > A n : > < {   n.n.  n 9 2.  ..............  G G >   n.n.  9 n > A n : > < { : : - > n 9 2.p - 9 ;.",
"> - / 4 9 n G I % / / ,.;.E p d.$ *.{ - %   n.n.  t.#.  r.q.n.n.n.n.n.q.r.  G I   n.n.  ;.E p d.$ *.{ - % : : n n t.#.> 9 < @.u ",
": ; x.u.: : - > - n < 5.G { #.{ = n ;.*.,   M.M.M.  >   r.q.r.q.r.q.r.r.q.  -   M.M.M.  G { #.{ = n ;.*., % j n s.> > : - - : G ",
": * 5.#.= - - - : n p / *.{ 9 / - #.&.< 0.  M.M.e.M.  r.q.r.r.q.r.q.r.r.r.q.  M.e.M.M.  *.{ 9 / - #.&.< 0.- , *.z.: : - - - &.: ",
"> % n : 9 = > 4 - 4 u I E I / / - 9 ;.: -   M.M.e.M.  q.r.r.r.q.r.q.r.r.r.r.  M.e.M.M.  E I / / - 9 ;.: - % n 9 G : - : $ X 9 8.",
"; : 9 k.#.9 E : = 9 - 9 p > 4.0.$ - : 9 ;     b.M.  q.r.r.r.q.o o o q.r.r.r.q.  M.b.    p > 4.0.$ - : 9 ; - 9 *.: : = - h.* &.h.",
"; n E 9 = : : - ;.9 % - > - 4.: - - % f.> 9 *       r.r.r.r.q.      r.q.r.r.r.      % - > - 4.: - - % f.> 9 * - $ ,.G &./ : - ; ",
"#.9 - = : % $ n 9 n 7.- - - : > 9 > 9 : - ; / 3.  o r.r.r.q.r.  #.  q.r.r.r.r.o   n 7.- - - : > 9 > 9 : - ; / 3.< 4.&.; ; : $ - ",
"/ < - = > #.- > #.J #.&.- $ / #.&.E &.> $ &.n <   q.r.r.r.r.o   /   o q.r.r.r.q.  J #.&.- $ / #.&.E &.> $ &.n < > G > - : % O n ",
": & % = p / : > G 9 : > - 9 k.c.g.g.E G % / ;.  q.q.q.q.o o q.  :   q.o o q.q.q.q.  : > - 9 k.c.g.g.E G % / ;.; : : : : 9 > - : ",
": % { % 9 : 9 < G 9 4 & % 4 *.&.> < < g % 9 g   r.q.q.q.q.r.  - : %   r.q.q.q.q.r.  4 & % 4 *.&.> < < g % 9 g - - - n 9 : - E - ",
"= - : = 9 : 5.- 9 n : - - n #.- % - 9 - $ * -   r.r.r.r.r.r.  O = -   r.r.r.r.r.r.  : - - n #.- % - 9 - $ * - = = p p : - - > O ",
"*.9 : % ;.> = + : G - - = G / 9 - - 9 % % p n >   q.w.X.r.  = - *.9 :   q.X.w.r.  G - - = G / 9 - - 9 % % p n > > p - % % : = - ",
"/ G : - $ : % % % > - * > - E - - % % = 9 n n G >   w.X.  n - : / G : -   X.w.  % > - * > - E - - % % = 9 n n G > l.: n 9 n - : ",
"= +.G - X = { n / - $ > E / $ $ - : n / E n > u.9   v.v.  > ,.9 = +.G -   v.v.  / - $ > E / $ $ - : n / E n > u.9 - E > 9 > ,.9 ",
"- 4.> * @ > n { > 9 % n > *.: > n n n > / 2.9 p %   w.  = % % = - 4.> * @   w.  > 9 % n > *.: > n n n > / 2.9 p % n 9 - = % % = ",
"- = - 9 *.= : : > > : > : 4 > - : 9 9 : : p % %   w.X.  % % $ * - = - 9 *.  X.w.  > : > : 4 > - : 9 9 : : p % % n < : = % % $ * ",
"9 ; n 9 9 9 > : = - % p = > - <.% 9 9 - < < %   X.w.X.  % 9 = * 9 ; n 9 9   X.w.X.  % p = > - <.% 9 9 - < < % - n - * % % 9 = * ",
": - *.9 j - n : : % - : % > - : : : > - - - - * : - % k.;.#.: > : - *.9 j - n : : % - : % > - : : : > - - - - * : - % k.;.#.: > ",
"= - > j = n > { : : n { I + : 9 #.;.G * : J  .J j j 9 ;.9 % 9 5.= - > j = n > { : : n { I + : 9 #.;.G * : J  .J j j 9 ;.9 % 9 5.",
"* - - - - - = = +.{ 9 4.: / 9 > G 7.;.- J / - - - 4.j 9 % % 9 p * - - - - - = = +.{ 9 4.: / 9 > G 7.;.- J / - - - 4.j 9 % % 9 p ",
"* - $ n : - - + <.> - : { G = = - : - < / - : - - - - &.< % > 9 * - $ n : - - + <.> - : { G = = - : - < / - : - - - - &.< % > 9 ",
"- * O - 9 = G / > - : - 9 : : : = : , * *.- < : - > < 4.< - % 9 - * O - 9 = G / > - : - 9 : : : = : , * *.- < : - > < 4.< - % 9 ",
"% $ % : = - = 9 9 : = % > % - - $ % < < < < - - 9 # , : - + % = % $ % : = - = 9 9 : = % > % - - $ % < < < < - - 9 # , : - + % = ",
"> - - > : - - G : - - p n > ;.p = 9 z.J % $ % % - = = $ : % : : > - - > : - - G : - - p n > ;.p = 9 z.J % $ % % - = = $ : % : : ",
"&.9 % 9 G > 9 : * % #.n > 2.G % : *.2.I ; - < n > > : - > > : p &.9 % 9 G > 9 : * % #.n > 2.G % : *.2.I ; - < n > > : - > > : p "
};
