/* XPM */
static char *xpm_[] = {
/* columns rows colors chars-per-pixel */
"64 64 255 2 ",
"   c #2A1E1A",
".  c #181837",
"X  c #0B1134",
"o  c #251D35",
"O  c #2C1233",
"+  c #1C253D",
"@  c #3F3021",
"#  c #292739",
"$  c #342C3B",
"%  c #382935",
"&  c #393439",
"*  c #322A2E",
"=  c #4E1034",
"-  c #77022D",
";  c #670533",
":  c #731231",
">  c #4A3726",
",  c #4E3A2A",
"<  c #473526",
"1  c #543E2C",
"2  c #583F2C",
"3  c #443A3A",
"4  c #473936",
"5  c #563E34",
"6  c #5B2B3D",
"7  c #683538",
"8  c #783133",
"9  c #56402E",
"0  c #5A422E",
"q  c #5D4431",
"w  c #5E4834",
"e  c #5B463A",
"r  c #57453B",
"t  c #4B403A",
"y  c #614633",
"u  c #644935",
"i  c #694D37",
"p  c #664C39",
"a  c #6A4E39",
"s  c #6E513B",
"d  c #72543D",
"f  c #73583F",
"g  c #061944",
"h  c #1A1A4C",
"j  c #09264B",
"k  c #182B48",
"l  c #19314D",
"z  c #032C56",
"x  c #043656",
"c  c #1B3855",
"v  c #00304D",
"b  c #252B44",
"n  c #293448",
"m  c #3C3B43",
"M  c #343745",
"N  c #283D53",
"B  c #09326F",
"V  c #322252",
"C  c #433C45",
"Z  c #4F3647",
"A  c #682D76",
"S  c #5D1A54",
"D  c #13485C",
"F  c #1A4575",
"G  c #09556E",
"H  c #34526F",
"J  c #016A7D",
"K  c #10697A",
"L  c #355863",
"P  c #464447",
"I  c #564642",
"U  c #504B56",
"Y  c #6D5441",
"T  c #6E574A",
"R  c #745640",
"E  c #765943",
"W  c #7A5B44",
"Q  c #7D5D48",
"!  c #765B49",
"~  c #6F514F",
"^  c #546650",
"/  c #7E614A",
"(  c #7E695B",
")  c #535765",
"_  c #4A5F6E",
"`  c #6B6C72",
"'  c #665F72",
"]  c #A5021C",
"[  c #B70711",
"{  c #85042A",
"}  c #990727",
"|  c #96122D",
" . c #AF1324",
".. c #8C342D",
"X. c #B32B2B",
"o. c #D71D16",
"O. c #D72A19",
"+. c #DC3619",
"@. c #C8291D",
"#. c #E33917",
"$. c #ED2B0C",
"%. c #CD2E29",
"&. c #C01725",
"*. c #984235",
"=. c #AF472C",
"-. c #F94A18",
";. c #F7521C",
":. c #EF4717",
">. c #FF650F",
",. c #E74C24",
"<. c #F05829",
"1. c #FD7535",
"2. c #F26531",
"3. c #CA5A35",
"4. c #A82A62",
"5. c #805F48",
"6. c #925151",
"7. c #B65247",
"8. c #83644D",
"9. c #876651",
"0. c #8A6B53",
"q. c #93735B",
"w. c #926D54",
"e. c #B26957",
"r. c #8F7673",
"t. c #AB6D6D",
"y. c #934874",
"u. c #CE6F50",
"i. c #F07948",
"p. c #E75F61",
"a. c #D72541",
"s. c #3E9A7D",
"d. c #5C905F",
"f. c #FD8B37",
"g. c #D59031",
"h. c #F7D103",
"j. c #AF8774",
"k. c #828776",
"l. c #FA8848",
"z. c #FE9C53",
"x. c #F79756",
"c. c #F58752",
"v. c #FFA557",
"b. c #FFB55C",
"n. c #C98F76",
"m. c #F8976A",
"M. c #EE9774",
"N. c #FDA577",
"B. c #FEAB67",
"V. c #D08B55",
"C. c #F6CE61",
"Z. c #022C96",
"A. c #253794",
"S. c #072DA1",
"D. c #035686",
"F. c #085797",
"G. c #35538C",
"H. c #0A6B88",
"J. c #01788A",
"K. c #047A95",
"L. c #15738A",
"P. c #3A678A",
"I. c #084DB6",
"U. c #0970AA",
"Y. c #2379B2",
"T. c #2F46A9",
"R. c #4E5294",
"E. c #4F6F8E",
"W. c #6F7585",
"Q. c #5E76AD",
"!. c #1573FA",
"~. c #1B61D0",
"^. c #642D8C",
"/. c #8E678E",
"(. c #C56493",
"). c #038495",
"_. c #0E8F9B",
"`. c #048AA2",
"'. c #0094A7",
"]. c #0097B1",
"[. c #1296A8",
"{. c #338AB8",
"}. c #02A3BB",
"|. c #17A8B5",
" X c #1EB4BE",
".X c #32A9B4",
"XX c #299397",
"oX c #5590AA",
"OX c #6D9AAC",
"+X c #74A5AD",
"@X c #608C9C",
"#X c #00AAC5",
"$X c #01A8C5",
"%X c #01B3CC",
"&X c #0AB5CD",
"*X c #04BBD2",
"=X c #13B4CD",
"-X c #2FB9C7",
";X c #1E94FF",
":X c #2993D9",
">X c #5FA3C4",
",X c #01C5D9",
"<X c #13C4D6",
"1X c #34D1D8",
"2X c #2BCAD6",
"3X c #01C9E2",
"4X c #04D6E8",
"5X c #0BD3EA",
"6X c #36DCE4",
"7X c #2BD5E3",
"8X c #00F8FE",
"9X c #14EDF8",
"0X c #38E4EB",
"qX c #38F5F8",
"wX c #2DE7EF",
"eX c #4CFAFB",
"rX c #56FFFF",
"tX c #4AEBF1",
"yX c #6EF1F5",
"uX c #61C8EA",
"iX c #858B94",
"pX c #969392",
"aX c #918DAB",
"sX c #A6B3B2",
"dX c #A59B99",
"fX c #C49984",
"gX c #D0A28C",
"hX c #F4AF8C",
"jX c #CBB5A5",
"kX c #FFCF97",
"lX c #D6CFB9",
"zX c #F5CEAC",
"xX c #FFF7B7",
"cX c #94B2CF",
"vX c #D9B8C3",
"bX c #8CC9CD",
"nX c #B0CDD6",
"mX c #88FCFD",
"MX c #94FDFD",
"NX c #90EBE3",
"BX c #B6FBFE",
"VX c #B4F0F4",
"CX c #BAD6EF",
"ZX c #FDEAC9",
"AX c #FFFCC9",
"SX c #FFF9D6",
"DX c #E5EBD0",
"FX c #CBFCFF",
"GX c #D8FDFE",
"HX c #C7ECF6",
"JX c #E5FAFD",
"KX c #FEFFFF",
"LX c #F8FAF8",
"PX c #F4F1E8",
"IX c #DBD2D5",
/* pixels */
"Q Q > a s q y 0 9 u a y 0 0 0 1 s d i q u q a u y 0 q 0 y 0 u i Q Q , a s q y q 9 u a y 0 0 0 1 d s i q u q a u y 0 q 0 y 0 u i ",
"s s a u y 0 y 1 9 0 0 y y 0 1 y s a a y < i w.a 8.u y 0 u 2 s i s s i u y q y 2 9 0 0 y y 0 1 y s a a y < i w.a 8.u y 0 u 2 s i ",
"i y i d s < y s i d u > s s d 0 0 0 q i u a q a i 1 2 2 q 1 a i i k r f s < y s i d u > s s d 0 0 0 q i u a q a i 1 2 2 q 1 a i ",
"q s d d 8.0 y a y u Q 1 f i u y d i a d R a a q s a d s p l r a q . r d 8.0 y i y u Q 1 f i u y d i a d R a a q s a d d a s w a ",
"q i y a 2 < 0 y y q 9 0 q q q d d d a u u 2 p y a a d i . j 1 , . |.c p 1 < 0 q y q 9 0 q q q d d d a u u 2 p y a a d i y y 1 , ",
"q y 2 q u 0 q 1 y 0 u u a d q y u i 2 E d y q 9 u s u n dXc q $ .XBX1Xk y 0 q 1 y 0 u u a d q y u i 2 E d y q 9 u s u u p u q y ",
"s 0 q R a s s u > y a a i s u s s y u p f y y q u a # vXBXX # -X9XLXGX1Xk p s u $ m a a i s u s s y u p f y y q u s i Q a q a W ",
"u q d i a s s d 2 d d W W d a 8., E f q 2 3 3 s r U nXBXwXK.`.|.}.HXKXKX1XD r d . . d W W d a 8., E f q 2 y y s s 5.R u a p Y i ",
"y w q.5.y y q u q s p Q s f R f 0 s W E i M X e T W.KX4XqX4X'.'.$XHXKXFXGXE.5 q K L.4 Q s d R f 0 s W E i 1 s s 8.u u y q q y s ",
"y 9 Q R 0 q q q y s a d E f i d q f R p / 3 K L.& W.GX*XqXK..XMX%XHXKX6XmX'   D MXbXo d E f i d q R d u / q i E q.y y q q q R y ",
"u 1 s y a 0 u i q u a d d d d d q a W y q @ >XBXx ' KX%X X[.rXKX$XVXKX-X8X_.D yXKXaX* d p I d d q a W y q 1 s a s y q y , @ i / ",
"w y a 0.R a d y 0 a q a a u ! / , q y p 3 # A sX'.c nX$XJ.rXMXLX#XVXGX-X<X4XrXKXmXK.4 a . l ! / , q y a w q a E y y 0 q 0.9 R 0.",
"w s d a 0 y y q W a 1 q u q ! y q q , ` H j P._ OX.X).).J.0XKXFX$XJXmX,X$XtXKXyX8XL.  M H $ ! y q q 1 8.u a 9 q , W s R d y q w ",
"R a q 0 y 2 , s i s Q q q q y u a u # dXvX@XyXLXFXFXmXJ.J $XJX0X$XVXyX%XyXKXyX,XwX|.N bX1Xo y u a u a y q w d W y ! R w w y , q ",
"d p q 0 u R q u R s R R q , d R R d M g +XdXx qX9X2XJXMX|.=XJX=X$XqX*X$XFXmX$X2X,X7XLXBX`.o d R R d R u , R s p u s u q y 1 < s ",
"y 2 1 0 a d y u s a y u q i 0.q.9.9.$ ].].X v `.tX5X=XPX6X&XFX=X$X0X*X].wX,X}.$X7XJXBX8XK.# 0.q.9.9.d s 2 d W w y y y y a u q y ",
"y 2 f 1 a y a i s i i 2 1 i E R u p # K.4X].J G `.3X].J ).*X6X$X#X%X*X).`.*X$X4XGXFX,X9X.X# E R u p p a 2 a a q q q s a y q d q ",
"0 q y 0 i y Q q a s y q q s R q 2 q $ H.3X3X].G [.1X).qX0X$XJ.J.#X#XtXeX).-X<X7XyX7X9X.X# s R q 2 q a q , 9 q 0 0 a a y q q u < ",
"f i y 1 W u 0 > y s q q 0 s d a q q p # H.4X,X].J [.eXeX&XJ.1X0X%X#XGXmXqX_.1X.XK.9X.XX # s d a q q i 1 2 a s u u a q 2 1 y 0 q ",
"d s y q , y 1 2 1 u q 9 u q d q q 1 1 0 & H.3X*XK._.rX0X).1XrXFX%X$XJXKXyX).1X.XJ.9XL.o e q d q q 1 1 0 a s s s u w.y s a s q y ",
"0 Y s q @ 0 f s d q , u d d , , q y s d d 4 H.4X'._.rX6XK.qXrXLXn.j.n.PXmX).1X-XJ J # y d d , , q y s d d s u 5.a q d u i u W a ",
"q ! u 9 , u s f u a 2 s u E y u s s s m l o x ).J.J.|.tX).qXrXLXi.i.i.NX}.2X2XJ J x % s u E y u s s s u d Q a a 1 s a q 0 2 1 0 ",
"q 0 q a E 0 y y u u y u y i u q y a a r # G %X}.).g x XXj.'.eXKXzXzXM.XXk._ j J.%X%XH.. M i u q y a a y y a 2 2 s p y 0 1 2 , 9 ",
"a w s a a i u y 0 q 1 a 0 u q W 1 a a q e N }.8X].= ( J ` w.}.mXSXZXN.D _ pX= `.8X%XD & 3 u q Q 1 a a q p p 2 q s q 9 2 2 a 0 9 ",
"y q E a s q s y y 2 q y 2 u q y y y y q q q n H.B U m.) L.^ ( '.ZXAX` K ` ZX` z H.c 5 y 2 u q y y y u q q q q 9 y q 1 0.W R y u ",
"0 q y s 0 s u f y y s f d > y a R W s 9 y s Y # X ) c.7.CX>X( pXSXsX.XnXN.xXW.. % t s f d > y a R W s 9 y s f s s s a W a 2 a Q ",
"9 q q q q q 0 0 Y f a ! y d i u s Q W q s d q q M P ~ Z ZXKX$XhXN.K.BXKXr.( P 1 Y f a ! y d i u s Q W q s d q q q ! s i 2 2 a a ",
"9 q , s y q q > W u q y f s 0 0 q y q p d q y q q q $ j c.zX+XgXN.bXJXzXN o q > W u q y f s 0 0 q y q p d q y q q q q R p 2 u a ",
"q 9 < q a 0 s d u q y q a y y y 0 y i 9 R q p u q C C k e.i.c.ZXSXSXzXu.O $ P s u q y q a y y y 0 y i 9 E q p y q u p ! p q 1 a ",
"2 , 1 y 0 q 0 i a y 0 1 u 1 q q , 2 p p a e & & & 7 Z B 6.e.M.SXSXzX7.t.G._ 7 % 3 3 4 1 u 1 q q , 2 p p p p q q a , i y q > 2 0 ",
"u q q u y q q s y q q a s u W a 0 a q.s 1 $ c D.~ $.%.T.e.8 e.gXjXe...hXuXj.>.~ D.c n s s u W a 0 a q.s 1 , 1 2 q 0 0 , y 1 y y ",
"R a 2 a s u a y 9 1 R s u Q s 2 y E Q d q 3 F :XE.;.7.S.6.=.6.6...6.M.N.:X6.f.+X:XG.& s u Q s 2 y E Q d w q p s u u y q u u y a ",
"Q Q > a s q y q 9 u a y 0 0 0 1 s s i q u 4 B I.I.@Xi.R.t.n.fXlXn.lXDXlXOXV.iXI.I.B & y 2 0 0 2 s s i q u q a u y 0 q 0 y 0 u i ",
"s s a u y q y 2 9 0 0 y y 0 1 y s a a y < 3 H oXY.R.;.i.R.~.{.{.{.{.U.:Xn.f.R.U.oXE.& e y 0 2 y s a a y < i w.a 8.u y 0 u 2 s i ",
"i y i d s < y s i d u > s s d 0 0 0 q i & U N.N.iXoXf.;.i.G.S.S.S.S.A.nXCXm.E.iXN.N.9.+ Y s d 0 0 0 q i u a q a i 1 2 2 q 1 a i ",
"q s d d 8.0 y a y u Q 1 f i u y d i a d m Z hXSXdX# b.l.:.l.G.A.A.A.c.fXHXkX  iXSXkX~ + R i u y d i a d R a a q s a d s a s w a ",
"q i y a 2 < 0 y y q 9 0 q q q d d d a u & . n.LXpX# v.z.#.#.x.x.x.x.:.O.c.b.# iXLXhXO # q q q d d d a u u 2 p y a a d i y y 1 , ",
"q y 2 q u 0 q 1 y 0 u u a d q y u i 2 R m o u.j.M r N C +.#.;.;.;.;.+.1.Y n 4 M j.i.O n a d q y u i 2 E d y q 9 u s u u p u q y ",
"s 0 q R a s s u > y a a i s u s s y p M ~ u.6 # u s e Y N >X+.$.$.$.Q.P.3 p d y # = M.dX$ s u s s y u p f y y q u s i Q a q a W ",
"u q d i a s s d 2 d d W W d a 8., W E b 9.B.~ b d 5.R u B ~.^.A A A ~.B p s a s # ) SXjX# d a 8., E f q 2 y y s s 5.R u a p R a ",
"y w q.5.y y q u q s p Q s f R f 0 s W & G.cXE.# 8.u w M u.X.!.!.!.!.4.3.P 4 q u * E.uXE.$ f R f 0 s W E i 1 s s 8.u u y q q y s ",
"y 9 Q R 0 q q q y s a d E f i d q R R * F.;XI.X U y e x -.$.n.A fXt.1.>.b 3 q m X Z.;XI.& f i d q R R p / q i E q.y y q q q R y ",
"u 1 s y a 0 u i q u a d d d d d q a W # E.CXnXW.b q M ..2.l.f.] f.-.l.l.X.$ e # ' nXVX@X$ d d d q a W y q 1 s a s y q y , @ i / ",
"w y a 0.R a d y 0 a q a a u ! / , q y # iXAXkXfX& y k 1.v.b.c.| x.,.i.b.f.m d & r.kXxXjX# u ! 8., q y a w q a E y y 0 q 0.9 R 0.",
"w s d a 0 y y q W a 1 q u q ! y q q 1 m iXkXm.gXg C *.v.z.v.c.| v.,.i.v.b.7.& g pXN.hXsX# q ! y q q 1 8.u a 9 q , W s R d y q w ",
"R a q 0 y 2 , s i s Q q q q y u a u a o pXSXzXW.b $ -.z.z.v.c.| 1.+.i.v.v.;.% b ' lXAXjX. q y u a u a y q w d W p ! R w w y , q ",
"d p q 0 u R q u R s R R q , d R d d d 3 ) sX' r m : ,.z.z.v.z.} [ <.z.z.v.<.: C p U sX` & , d R R d R u , R s p u s u q y 1 < s ",
"y 2 1 0 a d y u s a y u q i 0.q.8.9.d s 4 $ I m : ] ,.z.z.v.2.= O 3.v.v.v.<.] : P r # 3 q i 0.q.9.9.d s 2 d W w y y y y a u q y ",
"y 2 f 1 a y a p s i i 2 1 i E R u p p a 2 a m *.O.{ ,.v.v.1.,.v z 3.1.z.b.2.{ o.=.M i 2 1 i E R u p p a 2 a a q q q s a y q d q ",
"0 q y 0 i y Q q a s y q q s R q 2 q a q , & 7 -. .{ ,.x.l.<.V.l j e.2.1.z.<.{ | -...n q q s R q 2 q a q , 9 q 0 0 a a y q q u < ",
"E i y 1 W u 0 > y s q q 0 s d a q q i 1 2 C 7 O.; | :.+.+.i.l q f k u.,.O.:.| ; O.*.n q 0 s f a q q i 1 2 a s u u a q 2 1 y 0 q ",
"d s y q , y 1 2 1 u q 9 u q d q q 1 1 0 a P 8 $.; | #.@.{ { j y d l : {  .:.| ; o.*.n 9 u q d q q 1 1 0 a s s s u w.y s a s q y ",
"0 Y s q @ 0 f s d q , u d d , , q y s d d P 7 O.- - { { ] @.k a 0 l X. .{ { - - O...# u d d , , q y s d d s u 5.a q d u i u W a ",
"q ! u 9 , u s f u a 2 s u E y u s s s u d Q C 7 o.- } +.@.{ k 0 q n ; @.#.] - o.8 M 1 s u E y u s s s u d Q a a 1 s p q 0 2 1 0 ",
"q 0 q a f 0 w y u u y u y i u q y a a y q a & h  .,.%.- b j > 9 9 9 k l ; %.,. .V M y u y i u q y a a y y a 2 2 s p q 0 1 2 , 9 ",
"a w s a i i u y 0 q 1 a 0 u q W 1 a a q p p & D./.p.{.g 1 p 0 9 p w s p . {.p./.F.# 1 a 0 u q W 1 a a q p p 2 q s q 9 2 2 a 0 9 ",
"y q E a s q s y y 2 q y 2 u q y y y u q q q & D.aX%.G T W R y u y q E a r D a.aXU.# q y 2 u q y y y u q q q q 9 y q 1 0.W R y u ",
"0 q u s 0 s u f y y s f d > y a R W s 9 y s I V (.E.X W a 2 a Q 0 q u s 0 # P.(.S M s f d > y a R W s 9 y s f s s s a W a 2 a Q ",
"9 q q q q q 0 0 Y f a ! y d i u s Q W q s I ^ h.g.B r i 2 2 a a 9 q q q q 4 B g.h.d.C ! y d i u s Q W q s d q q q ! s i 2 2 a a ",
"9 q , s y q q > W u q y f s 0 0 q y q p d & ..C.s.X q R p 2 u a 9 q , s y q . s.C.=.# y f s 0 0 q y q p d q y q q q q R p 2 u a ",
"q 9 < q a 0 s d u q y q a y y y 0 y i 9 I D y.4.F 3 a ! p q 1 a q 9 < q a 0 r F 4.4.G 3 a u y y 0 y i 9 E q p y q u p ! p q 1 a ",
"2 , 1 y 0 q 0 i a y 0 1 u 1 q q , 2 p p p p q q a , a p q > 2 0 2 , 1 y 0 q 0 i a y 0 1 u 1 q q , 2 p p p p q q a , i y q > 2 0 ",
"u q q u y q q s y q q a s u W a 0 a q.s 1 , 1 9 q 0 0 , y 1 y y u q q u y q q s y q q a s u W a 0 a q.s 1 , 1 2 q 0 0 , y 1 y y ",
"R a 2 a s u a y 9 1 R s u Q s 2 y E Q d w q p s u p y q u u y a R a 2 a s u a y 9 1 R s u Q d 2 y E Q d w q p s u u y q u u y a "
};
