/* XPM */
static char *xpm_[] = {
/* columns rows colors chars-per-pixel */
"64 64 250 2 ",
"   c #3E2713",
".  c #151C3A",
"X  c #100A2F",
"o  c #2E0C36",
"O  c #192339",
"+  c #3E3020",
"@  c #292738",
"#  c #38353A",
"$  c #342832",
"%  c #180316",
"&  c #7C0D16",
"*  c #5A3A17",
"=  c #562E14",
"-  c #633C13",
";  c #703618",
":  c #571335",
">  c #7B012C",
",  c #68012E",
"<  c #463424",
"1  c #4A3726",
"2  c #4C3927",
"3  c #4D3A2A",
"4  c #493729",
"5  c #543E2C",
"6  c #583F2C",
"7  c #5B3F26",
"8  c #463937",
"9  c #543339",
"0  c #722F34",
"q  c #66441B",
"w  c #56402E",
"e  c #5A422E",
"r  c #5D4325",
"t  c #5D4431",
"y  c #5E4834",
"u  c #574438",
"i  c #4E4136",
"p  c #684829",
"a  c #614633",
"s  c #644935",
"d  c #694D36",
"f  c #664C38",
"g  c #6A4E39",
"h  c #6C4F3A",
"j  c #6A4E39",
"k  c #6D513A",
"l  c #6F513C",
"z  c #6D513B",
"x  c #6E5033",
"c  c #72543E",
"v  c #72543D",
"b  c #765738",
"n  c #734E30",
"m  c #544713",
"M  c #09144A",
"N  c #311047",
"B  c #152849",
"V  c #1C314C",
"C  c #0B3656",
"Z  c #1A3957",
"A  c #062A4E",
"S  c #262943",
"D  c #2A3447",
"F  c #373945",
"G  c #2C2E4E",
"H  c #162967",
"J  c #473946",
"K  c #543454",
"L  c #5F285E",
"P  c #37454F",
"I  c #094869",
"U  c #0D5671",
"Y  c #27576F",
"T  c #006579",
"R  c #11727E",
"E  c #346D79",
"W  c #504A4E",
"Q  c #6E5441",
"!  c #745641",
"~  c #765943",
"^  c #7B5B44",
"/  c #7D5D48",
"(  c #765C4A",
")  c #6B4C49",
"_  c #7D614A",
"`  c #7E6353",
"'  c #504F6E",
"]  c #4C6C74",
"[  c #6B6370",
"{  c #990C17",
"}  c #AF0E12",
"|  c #832618",
" . c #943232",
".. c #B1302B",
"X. c #9F1C1D",
"o. c #C81010",
"O. c #D32D18",
"+. c #F22E0D",
"@. c #CF3428",
"#. c #8E4818",
"$. c #895729",
"%. c #AC4E2F",
"&. c #8F6733",
"*. c #BB6B34",
"=. c #DC5010",
"-. c #FF5801",
";. c #F55208",
":. c #D56A10",
">. c #EE6800",
",. c #FC6700",
"<. c #FA7800",
"1. c #FF651B",
"2. c #D0492C",
"3. c #F85924",
"4. c #D26B34",
"5. c #F97637",
"6. c #F2692F",
"7. c #843F49",
"8. c #825F48",
"9. c #914C4D",
"0. c #83634C",
"q. c #866244",
"w. c #8B6B53",
"e. c #876953",
"r. c #916A53",
"t. c #94735A",
"y. c #95734E",
"u. c #AA7155",
"i. c #8E5E6D",
"p. c #91706C",
"a. c #BB6459",
"s. c #CD7555",
"d. c #E7704B",
"f. c #C27260",
"g. c #73877D",
"h. c #B0853C",
"j. c #FC8800",
"k. c #FF9500",
"l. c #FF9A00",
"z. c #FF9A0F",
"x. c #EC8E09",
"c. c #CA913E",
"v. c #FE8F36",
"b. c #F6A92B",
"n. c #B2894D",
"m. c #9C826F",
"M. c #B79277",
"N. c #D2904C",
"B. c #FE9C52",
"V. c #FD9656",
"C. c #F4934C",
"Z. c #FFAA57",
"A. c #FFB855",
"S. c #FFAE4A",
"D. c #D58465",
"F. c #E89A78",
"G. c #F49A6F",
"H. c #FAAB6B",
"J. c #FFC55B",
"K. c #EEC777",
"L. c #0D30B3",
"P. c #143291",
"I. c #561980",
"U. c #026C83",
"Y. c #007488",
"T. c #017B92",
"R. c #136F85",
"E. c #2B738A",
"W. c #0053BC",
"Q. c #1445B8",
"!. c #1D5DA5",
"~. c #4A538C",
"^. c #6C5287",
"/. c #53728F",
"(. c #4677B0",
"). c #6F7A88",
"_. c #0072D9",
"`. c #2D71C3",
"'. c #086BE2",
"]. c #4B77C0",
"[. c #8A6E8F",
"{. c #028699",
"}. c #138D98",
"|. c #2F8395",
" X c #0389A6",
".X c #0298B2",
"XX c #0897A8",
"oX c #2E99A7",
"OX c #03A4BB",
"+X c #19ADB9",
"@X c #30AAB7",
"#X c #5995A9",
"$X c #7299A5",
"%X c #54A6B3",
"&X c #5B8D94",
"*X c #03A7C4",
"=X c #02B5CC",
"-X c #06BCD3",
";X c #17B3CD",
":X c #2FB4C5",
">X c #45BACA",
",X c #04C7DB",
"<X c #17C9D7",
"1X c #34CDD3",
"2X c #04C6E2",
"3X c #03D5E8",
"4X c #0CD8ED",
"5X c #36DAE4",
"6X c #29D6E3",
"7X c #10E8F3",
"8X c #37E4EC",
"9X c #36FBFC",
"0X c #2CEDF4",
"qX c #46D8DD",
"wX c #47FDFD",
"eX c #59FEFE",
"rX c #4CEAF1",
"tX c #64FCFD",
"yX c #79FBFD",
"uX c #66E8ED",
"iX c #76D6E0",
"pX c #8F948E",
"aX c #A6AA9C",
"sX c #CFA488",
"dX c #FAB395",
"fX c #C4B8B4",
"gX c #CD9C87",
"hX c #B9C0B2",
"jX c #FFCB8E",
"kX c #CFCBB3",
"lX c #FAD1AE",
"zX c #FCE3B4",
"xX c #A7BEE5",
"cX c #AFCAD0",
"vX c #9BDDEB",
"bX c #89FFFF",
"nX c #8CF4F6",
"mX c #A7F2F5",
"MX c #FFFED9",
"NX c #FCEEC9",
"BX c #CDDEE7",
"VX c #C4FCFE",
"CX c #D7FDFE",
"ZX c #CCE9EC",
"AX c #FFFFE7",
"SX c #EAFFFF",
"DX c #FEFFFF",
"FX c #F6FEFC",
"GX c #EDF1F1",
"HX c #D0D3CE",
/* pixels */
"/ / 2 h k t a t w s g a e e e 5 k l d t s t h s a e t e a e s d / / 2 h k t a t w s g a e e e 5 k l d t s t h s a e t e a e s d ",
"k k g s a t a 5 w e e a a e 5 a k g g a < d w.h 0.s a e s 5 k d k k g s a t a 5 w e e a a e 5 a k g g a < d w.h 0.s a e s 5 k d ",
"d a d v k < a k d v s 4 l k v e e e t d s g t g d 5 5 5 t 5 g d d a d v k < a k d v s 4 l k v e e e t d s g t g d 5 5 5 t 5 g d ",
"t k v v 0.e a g a s / 5 c d s a v d h v ! h g t k g v l g k y g t k v v 0.e a g a s / 5 c d s a v d h v ! g g t k g v l g k y g ",
"t d a g 5 < e a a t w e t t t v v v g s s 6 f a h h v d a a 5 3 t d a g 5 < e a a t w e t t t v v c g s s 6 f a h h v d a a 5 3 ",
"t a 5 t s e t 5 a e s s h v t a s d 6 ~ v a t w s l s s f s t a t a 5 t s e t 5 a e s s h v t a s d 6 ~ v a t w s l s s f s t a ",
"k e t ! g l l s 1 a h h d k s z k a s f c a a t s k d / h t g ^ k e t ! g l l s 1 a h h d k s z k a s f c a a t s k d / h t g ^ ",
"s t v f g k l v 5 v v ^ ^ v h 0.3 ~ c t 5 a a k k 8.! s g f Q h s t v f g k l v 5 v v ^ ^ v h 0.3 ~ c t 5 a a k k 8.! s g f Q h ",
"a y t.8.a a t s t k f / v c ! ! e k ^ ~ d 5 k k 0.s s a t t a l a y t.8.a a t s t k f / l c ! c e k ^ ~ d 5 k k 0.s s a t t a l ",
"a w / ! e t t t a k h v ^ c d v t ! ! f _ t d ~ t.a a t t t ! a a w / ! e t t t a k h v ~ c d v t ! ! f _ t d ~ t.a a t t t ! a ",
"s 5 k a g e s d t s h v v v v v t g ^ a t 5 k f l a t a 3 + d _ s 5 k a g e s d t s h v v v v v t g ^ a t 5 k g l a t a 3 + d _ ",
"y a g w.! g v a e g t g h s ( _ 3 t a g y t g ~ a a e t e.w ! e.y a g w.! g v a e g t g h s ( _ 3 t a g y t g ~ a a e t e.w ! e.",
"y k v g e a a t ^ g 5 t s t ( @ 8 t 5 0.s g 5 t 3 / l ! v a t y y k v g e a a t ^ g 5 t s t ( a t t 5 0.s g w t 3 / l ! v a t y ",
"! g t e a 5 3 k d k / t t t y V 8 s g a t y v D # ( ! y y a 3 t ! g t e a 5 3 k d k / t t t a s g s g a t y v ^ a ( ! y y a 3 t ",
"v f t e s ! t s ! l ! ! t 3 . :XE u ! s 3 ! k V B u s t a 5 < k v f t e s ! t s ! l ! ! t 3 v ! ! v ! s 3 ! k f s l s t a 5 < k ",
"a 6 5 e h v a s l g a s t f B 1XZX[ B Z 8 l ^ O cX).8 a g s S # a 6 5 e h v a s l g a s t d w.t.e.e.v l 5 v ^ y a a a a g s t a ",
"a 5 c 5 g a h g l d d 6 5 @ HXbXwXCXnX9XY X u @ qXDX' 8 a t B D a 5 c 5 g a g f l d d 6 5 d ~ ! s f f h 5 g h t t t k g a t v t ",
"e t a e d a / t g k a a t V GXbX7XeXVXCXGXiXY X ;XCXGX' 4 # @X|.# e a e d a / t g k a t t k ! t 5 t g t 3 w t e e h h a t t s < ",
"~ d a 5 ^ s e 1 a l t t O  XSX%X<XwX;X5XFXDXDX|.=XwXDX[.% @XtX|.8 d t 5 ^ s e 1 a l t t e l v g t t d 5 5 h k s s h t 5 5 a e t ",
"v l a t 3 a 5 5 5 D 8 e . .XFX#X.X8X8X,X;XuXbX}.;X9XSX$XT 6XwXR.# f t t 2 a 5 5 5 s t w s t v t t 5 5 e g k k l s r.a k g k t a ",
"e Q l t + e c k v B B u @  XSX#X,X<X8XeX=X*X=XY.1X3XCXaXT {.{.I B C B t + e c k v t 3 s v v 3 3 t a k v v k s 8.g t v s d s / g ",
"t ( s w 2 a k c s V 1XY X  XeXoX1XwX-X8XeX-X*XOX8X,XZX$XXXvXBXZXnXU.@ w 2 s k c s g 5 k s ~ a s k k k s v / g h 5 k g t e 5 5 e ",
"t e t g c e a a s B rXCX:XT.T Y.ZXbX0X-X8XwXrX-X8X<X*X<XCXvXrXbX%X# w g ~ e a a s s a s a d s t a g g a a h 5 5 k f a e 5 5 3 w ",
"g y k g d d s a e B 5XyXSX>XU T GXDXtX0X-X8XtX,X5X<X,XVXvX,X9X}.X 8 k g g d s a e t 5 h e s t ^ 5 g g t f f 5 t k t w 5 5 g e w ",
"a t ~ g k t k a a B 5X4XuXCX:XY.qXSXFXtX0X-X8X<X*X=XVXvX*X,X+XC $ w ~ k k t k a a 5 t a 5 s t a a a s t t t t w a t 5 w.^ ! a s ",
"e t a k e k s c a t Z 5X3XrXDX>XOXrXDXDXyX,XT.T .X2XoXT T Y.Y.C . 8 d k t k s v a a k c v 1 a g ! ^ l w a l c l k k g ^ g 5 g / ",
"w t t t t t e e Q c u Y 6X3XyXVX:X=XrXFXSXoXXX1X-X{.OX1X1X}.T..X.XI 8 t t t e w Q c g ( a v d s l / ^ t l v t t t ( k d 5 5 g g ",
"w t 3 k a t t 1 ^ s t . R 8X3XtX6X*X{.R.E.>XwXwX9XY.1XeXeX<XU.OX7X2XU k a t t 1 ^ s t a c l e e t a t f v t a t t t t ! f 5 s g ",
"t w < t g e l v D S S B I }.*X-X-X{.@X1XT 1XwXmXCX;XiXCXyX9X;XT.Y.,X Xt g e l v s t a t g a a a e a d w ~ t f a t s f ( f t 5 g ",
"5 3 5 a e t e d u B .X=X=XY.T Y.U.:XeXeX{.<XwXSXdXD.|.E.BXmX9XE.X C C a e t e d g s e 5 s 5 t t 3 w f f f f t t g 4 d a t 1 5 e ",
"s t t s a t t l a 8 U -X3X*X.X.XT 5X0X2XpX] 4XCXlXdXhXm.W cXmXR.$ 8 @ s a t t l a t t h k s ^ h e g t.l 5 3 5 5 t e e 3 a 5 a a ",
"! g 5 g l s g a w 5 Q Z I Y.{.{.U.6X4X&XV.d.R 0XGXNXNXNXW X uXoX9 g 5 g l s g a w 5 ! k s / l 5 a ~ / v y t f k s s a t s s a h ",
"/ / 2 h k t a t w s g t X T.=XI r.sXXXp.V.g.T T.HXNXzXAX).$ P Y W / 2 h k t a t w s g a e e e 5 k l d t s t h s a e t e a e s d ",
"k k g s a t a 5 w e S D {.3X4XI d.V.) u.G.) /.T p.zXMXlX) # g . F k g s a t a 5 w e e a a e 5 a k g g a < d w.h 0.s a e s 5 k d ",
"d a d v k < a k d v 8 # U U U C V G 0 s.F. .fXZX] E sX9.# 3 g u u a d v k < a k d v s 4 l k v e e e t d s g t g d 5 5 5 t 5 g d ",
"t k v v 0.e a g a s / 5 f u 6 B w.y.0 f.F.f.F.AX2XoXzX' . y y k e k k k 0.e a g a s / 5 c d s a v d h v ! g g t k g v l g k y g ",
"t d a g 5 < e a a t e e a # S 0 3.S.D.9.f.G.s.lXZXMXsX/.L.M . # t d a g 5 < e a a t w e t t t v v v g s s 6 f a h h v d a a 5 3 ",
"t a 5 t s e t 5 a t s f D r.n.C.+.O.B.D.7.f.lXNXMXF.% W.xXkXkX' 8 a 5 t s e t 5 a e s s h v t a s d 6 ~ v a t w s l s s f s t a ",
"k e t ! g l l s 4 a h h M N.J.5.6.5.v.Z.s.9.i.p.a.L M $XzXf.lXNX' 8 t ! g l l s 1 a h h d k s z k a s f c a a t s k d / h t g ^ ",
"s t v f g k l v 5 v v ^ B s.3.3.pX%X#XB.i.i.4.4.L L.M lXF.& dXDXpX$ v f g h l v 5 v v ^ ^ v h 0.3 ~ c t 5 a a k k 8.! s g f ! h ",
"a y t.8.a a t s t k f / B N.v.pX;XW.L.(.M.^.~.^.`.P.8 J gXzXMXpXF u t.8.a a t s t k f / l c ! c e k ^ ~ d 5 k k 0.s s a t t a l ",
"a w / ! e t t t a k h v A 2.1.#XW.!.!._.d.6.`._.`.Z u t P /.] D a w / ! e t t t a k h v ~ c d v t ! ! f _ t d ~ t.a a t t t ! a ",
"s 5 k a g e s d t s h v W 8 +.^.W.~.hXcXK 4.K.aX' D t f 4 $ 8 ( s 5 k a g e s d t s h v v v v v t g ^ a t 5 k g l a t a 3 + d _ ",
"y a g w.! g v a e g t g h u # G cXu.dXAXY | -.%.i 8 B B G w ! e.y a g w.! g v a e g t g h s ( _ 3 t a g y t g ~ a a e t e.w ! e.",
"y k v g e a a t ^ g 3 t a t B A zXf.a.MX] N L M S 9 %.u.u.F S S S y v g e a a t ^ g 5 t s t ( a t t 5 0.s g w t 3 / l ! v a t y ",
"! g t e a 5 3 k d k / t u t B A gXD.4.t.`.'.' $.u.5.B.A.A.N.r.u.u.W 8 e a 5 3 k d k / t t t a s g s g a t y v ^ f ( ! y y a 3 t ",
"v f t e s ! t s ! l ! ! t # : B a.jXzXD K [.@.v.J.Z.B.Z.Z.Z.Z.Z.J.` S 6 s ! t s ! l ! ! t 3 v ! ! v ! s 3 ! k f s l s t a 5 < k ",
"a 6 5 e h v a s l g a a t V > , J kXAX' } o.%.C.C.B.Z.6.5.A.Z.Z.v.9 # e h v a s l g a s t d w.t.e.e.v l 5 v ^ y a a a a g s t a ",
"a 5 c 5 g a g f l h d 6 5 D ..O.X hXBX(.J & *.h.c.N.4.6.5.6.6.5.O., G 5 g a g f l d d 6 5 d ~ ! s f f h 5 g h t t t k g a t v t ",
"e t a e d a / t g l F D D C O.;.u.p.].(.F   #.&.#.#.%.*. .{ { } > o.0 t g a / t g k a t t k ! t 5 t g t 3 w t e e h h a t t s < ",
"~ d a 5 ^ s e 1 s F 0 ..: o d.3.v.i P.[ b y.n.h.&.- ; | { O.{ : , +.%.5 ^ s e 1 a l t t e l v g t t d 5 5 h k s s h t 5 5 a e t ",
"v l a t 3 a 5 5 # A =.+.> ..5.5.C.i W w.c.N.b.K.j.:.&.= 0 2.+...O...J t 3 a 5 5 5 s t w s t v t t 5 5 e g k k l s r.a k g k t a ",
"t Q l t + e c k A 0 X.> %.5.6.B.C.5 n b.b.A.l.l.l.<.:.b J ' ....n F ) t + e c k v t 3 s v v 3 3 t a k v v k s 8.g t v s d s / g ",
"t ( s w 2 s k P H @.{ , B.v.C.Z.N.3 n N.b.,.k.l.,.<.>.4.3 J : # F ~ d w 2 s k c s g 5 k s ~ a s k k k s v / g h 5 k g t e 5 5 e ",
"t e e g c e F P.Q.2.} > V.J.B.B.N.| p zXz.-.j.l.-.,.>.:.0 ; + r s e t g ~ e a a s s a s a d s t a g g a a h 5 5 k f a e 5 5 3 w ",
"g y k g d d C L.L 0 : > @.V.Z.B.N.#.- jXl.l.l.l.l.j.>.=.$.7 = r v d k g g d s a e t 5 h e s t ^ 5 g g t f f 5 t k t w 5 5 g e w ",
"a t ~ g k D m x : # # S o 2.S.A.q.1 - z.k.<.l.l.<.<.>.:.q = 4 a x t ~ g k t k a a 5 t a 5 s t a a a s t t t t w a t 5 w.^ ! a s ",
"e t s k t A y X.A F k W P 9 8.y.8 p q x.j.-.k.l.-.,.;.n.W 6  .J i a d k e k s c a a k c v 1 a g ! ^ l w a l c l k k k ^ g 5 g / ",
"w t t t t B P.I.: H D ( a W J 8 b n q h.x.k.l.l.l.>.:.p y b %.! i a t t t t e e Q c g ( a v d s l / ^ t l v t t t ~ k d 5 5 g h ",
"w t 3 k a t t 1 ^ s e a c v a p n p * * h.x.x.l.x.*.q q p p b b e e 5 k a t t 1 ^ s t a c l e e t a t f v t a t t t t ! f 5 s g ",
"t w < t g e l v s t a t g s s d p n p * q - $.&.q - q n x d p v a e < t g e l v s t a t g a a a e a d w ~ t f a t s f ( f t 5 g ",
"5 3 5 a e t e d h s t 5 s 6 a a 7 p x p p q * * q * p d p 7 e e e 5 5 a e t e d g a e 5 s 5 t t 3 5 f f f f t t g 4 d a t 1 5 e ",
"s t t s a t t l a t t k k s ^ v e v t.b p r r p p p p r d r s s s a t s a t t l a t t h k s ^ h e g t.l 5 3 5 5 t e e 3 a 5 a a ",
"! g 5 g l s g a e 5 ~ k s / v 6 s ^ q.b x d b b x b x s h d s k ! g 5 g l s g a w 5 ! k s / l 5 a ~ / v y t f k s s a t s s a h "
};
