/* XPM */
static char *xpm_[] = {
/* columns rows colors chars-per-pixel */
"64 64 252 2 ",
"   c #1C1514",
".  c #0C0612",
"X  c #331514",
"o  c #1A1627",
"O  c #191B33",
"+  c #140B2A",
"@  c #251C26",
"#  c #3A1A25",
"$  c #271C35",
"%  c #2A0D2D",
"&  c #2B2229",
"*  c #3A2C2C",
"=  c #362726",
"-  c #3F3021",
";  c #3A312A",
":  c #2B2533",
">  c #282837",
",  c #352A34",
"<  c #3C3436",
"1  c #262129",
"2  c #491113",
"3  c #6A0A18",
"4  c #572B18",
"5  c #5B3A16",
"6  c #503218",
"7  c #67280A",
"8  c #633C15",
"9  c #703013",
"0  c #461D25",
"q  c #690727",
"w  c #462927",
"e  c #5B2C2B",
"r  c #453424",
"t  c #4A3726",
"y  c #4C3927",
"u  c #4D3A2A",
"i  c #46342B",
"p  c #543E2C",
"a  c #593E2C",
"s  c #513B26",
"d  c #4C3A34",
"f  c #463634",
"g  c #553E33",
"h  c #47263B",
"j  c #79383A",
"k  c #6E282E",
"l  c #66421A",
"z  c #6F4A1A",
"x  c #56412E",
"c  c #5A422E",
"v  c #5A4124",
"b  c #5D4431",
"n  c #5E4835",
"m  c #584539",
"M  c #5C5222",
"N  c #654523",
"B  c #6B4B2C",
"V  c #63472C",
"C  c #614633",
"Z  c #644935",
"A  c #694D36",
"S  c #664C38",
"D  c #6A4E39",
"F  c #6C4F3A",
"G  c #6A4E39",
"H  c #654739",
"J  c #6D513A",
"K  c #6F513C",
"L  c #6D513B",
"P  c #6F5137",
"I  c #70523A",
"U  c #72543E",
"Y  c #72543D",
"T  c #765739",
"R  c #724C27",
"E  c #041A56",
"W  c #2D1649",
"Q  c #1B294D",
"!  c #242946",
"~  c #373853",
"^  c #363249",
"/  c #0A0E72",
"(  c #2F3966",
")  c #5B1149",
"_  c #660D57",
"`  c #453B44",
"'  c #543847",
"]  c #713250",
"[  c #50326B",
"{  c #3B4A6F",
"}  c #3F435C",
"|  c #474556",
" . c #554D52",
".. c #6F5441",
"X. c #745641",
"o. c #765943",
"O. c #7B5B44",
"+. c #7D5D48",
"@. c #765B49",
"#. c #675057",
"$. c #7D614B",
"%. c #7C6956",
"&. c #484C66",
"*. c #535170",
"=. c #70536A",
"-. c #7A6B74",
";. c #5F6174",
":. c #891612",
">. c #B2160B",
",. c #912B0F",
"<. c #AB2B15",
"1. c #88162F",
"2. c #8E3439",
"3. c #A8362D",
"4. c #A31329",
"5. c #CA160A",
"6. c #CC310A",
"7. c #EB390D",
"8. c #F41B00",
"9. c #8D5434",
"0. c #AD4B35",
"q. c #836238",
"w. c #B97937",
"e. c #A2723D",
"r. c #DB4F0D",
"t. c #EB5A00",
"y. c #FF5600",
"u. c #FB4B0B",
"i. c #D76C12",
"p. c #EE6800",
"a. c #FC6700",
"s. c #FA7800",
"d. c #F0742F",
"f. c #D35A35",
"g. c #8C3549",
"h. c #841742",
"j. c #805F4A",
"k. c #815F45",
"l. c #8E4B50",
"z. c #B2574A",
"x. c #83634C",
"c. c #846143",
"v. c #876751",
"b. c #8B6B53",
"n. c #876A54",
"m. c #93735B",
"M. c #94714E",
"N. c #A37053",
"B. c #8D5B6F",
"V. c #95716A",
"C. c #B77775",
"Z. c #CC5A48",
"A. c #E2745A",
"S. c #B18538",
"D. c #DD9716",
"F. c #EB8B03",
"G. c #FC8800",
"H. c #FF9500",
"J. c #FF9A00",
"K. c #FF9A0F",
"L. c #FF8B13",
"P. c #C88930",
"I. c #FB9235",
"U. c #FFAB2F",
"Y. c #BF8643",
"T. c #A5855D",
"R. c #A48C66",
"E. c #FFA549",
"W. c #FFB74A",
"Q. c #FFBA52",
"!. c #C88875",
"~. c #E79376",
"^. c #FDA879",
"/. c #FF9E45",
"(. c #FDC650",
"). c #FFC874",
"_. c #0911A8",
"`. c #240DA2",
"'. c #39518F",
"]. c #3A54A9",
"[. c #465890",
"{. c #586B9B",
"}. c #5D6D89",
"|. c #677496",
" X c #71768C",
".X c #536DA7",
"XX c #6676A8",
"oX c #6A7FB5",
"OX c #727DA7",
"+X c #3A69E4",
"@X c #936E83",
"#X c #7684A9",
"$X c #788BB8",
"%X c #7088B2",
"&X c #348DF2",
"*X c #7A98C8",
"=X c #7089C1",
"-X c #6AA7F3",
";X c #5C88C6",
":X c #8E8E8B",
">X c #AA9084",
",X c #8795BA",
"<X c #9698AD",
"1X c #94A3B1",
"2X c #B6B8BF",
"3X c #AFAEBB",
"4X c #A18FA6",
"5X c #C99993",
"6X c #E9AE8F",
"7X c #D5B8B5",
"8X c #C0B99B",
"9X c #FAC794",
"0X c #FEDDB9",
"qX c #EFCCAE",
"wX c #F5E4B6",
"eX c #D5C3AA",
"rX c #889CC8",
"tX c #879FD9",
"yX c #97A4C6",
"uX c #94ABD7",
"iX c #90A9D5",
"pX c #ADB6CD",
"aX c #B6BCC7",
"sX c #A8BADA",
"dX c #AAB4D0",
"fX c #A6BEE4",
"gX c #82A8FF",
"hX c #CFB9C8",
"jX c #BAC4DB",
"kX c #ABC2E6",
"lX c #BCCBE4",
"zX c #BCD6FE",
"xX c #B4CDF6",
"cX c #C4CBD7",
"vX c #CBCDD3",
"bX c #F2D4C7",
"nX c #F9E8C6",
"mX c #FFF3CA",
"MX c #FFFBDB",
"NX c #F8EAD3",
"BX c #C7D5EB",
"VX c #D3DCEB",
"CX c #CBD9EF",
"ZX c #DAE7F7",
"AX c #D8E7F1",
"SX c #FFFEE5",
"DX c #E5ECF4",
"FX c #EAF5FB",
"GX c #F3FCFE",
"HX c #FFFFFF",
"JX c #F8FAF7",
"KX c #EBE7E8",
/* pixels */
"+.+.y F J b C b x Z D C c c c p J I A C Z b F Z C c b c C c Z A +.+.y F J b C b x Z D C c c c p I I A b Z b F Z C c b c C c Z A ",
"J J D Z C b C p x c c C C c p C J D D C r A b.F x.Z C c Z p J A J J D Z C b C p x c c C C c p C J D D C r A b.F x.Z C c Z p J A ",
"A C A Y J r C J A Y Z t K J I c c c b A Z D b D A p p p b p D A A C A Y J r C J A Y Z t K J I c c c b A Z D b D A p p p b p D A ",
"b J I I x.c C D C Z +.p U A Z C I A F I X.F D b J D Y K D J n D b J I I x.c C D C Z +.p U A Z C I A F I X.D D b J D Y I D J n D ",
"b A C D p r c C C b x c b b b I Y Y D Z Z a S C F F I A C C p u b A C D p r c C C b x c b b b I Y U D Z Z a S C F F I A C C p u ",
"b C p b Z c b p C c Z Z F I b C Z A a o.I C b x Z K Z Z S Z b C b C p b Z c b p C c Z Z F I b C Z A a o.I C b x Z K Z Z S Z b C ",
"J c b X.D K K Z t C F F A J Z L J C Z S U C C b Z J A +.F b D O.J c b X.D K K Z t C F F A J Z L J C Z S U C C b Z J A +.F b D O.",
"Z b Y S D J K I p Y Y O.O.I F x.u o.U b p C C J J k.X.Z D S ..F Z b Y S D J K I p Y Y O.O.I F x.u o.X.b p C C J J k.X.Z D S ..F ",
"C n m.j.C C b Z b J S +.K U X.U c J O.o.A x J J x.Z Z C b b C K C n m.j.C C b Z b J S +.K U X.U c J O.o.A p J J x.Z Z C b b C K ",
"C x +.X.c b b b C J F Y o.U A Y b X.X.S $.b A o.m.C C b b b X.C C x +.X.c b b b C J F Y o.U A Y b X.Y S $.b A o.m.C C b b b X.C ",
"Z p J C D c Z A b Z F I I I Y Y b D O.C b p J D K C b C u - A $.Z p J C D c Z A b Z F I I I Y Y b D O.C b p J D K C b C u - A $.",
"n C D b.X.D I C c D b D F Z @.$.u b C D n b D o.C C c b n.x X.n.n C D b.X.D I C c D b D F Z @.$.u b C D n b D o.C C c b n.x X.n.",
"n J I D c C C b O.D s b Z b @.m : : o @ * D x b u O.K X.Y C b n n J I D c C C b O.D s b Z b @.C b b p x.Z D x b u O.K X.Y C b n ",
"X.D b c C p u J A J +.b b b C C = ~ cXvX X  * O.C o.Y n n C u b X.D b c C p u J A J +.b b b C Z D Z D C b n Y O.C @.X.n n C u b ",
"Y S b c Z X.b Z X.K X.X.b u Y X.X.d <XHXGX2X X= Z K Z g o @ o @ @ = b c Z X.b Z X.K X.X.b u Y X.X.I X.Z u X.J S Z K Z b C p r J ",
"C a p c F Y C Z K D C Z b A b.m.v.v.i  XZXGXHX X= C b | aXXX#X3XvX3X@ : F U C Z K D C Z b A b.m.v.v.I K p Y O.n C C C C D Z b C ",
"C p U p D C D S K A A i : A o.X.Z S C > BXsXHXcX  b > uXFXGXGXHXHX;.d * D C D S K A A a p A o.X.Z S S F p D F b b b J D C b I b ",
"c b C c D C +.b D J C f O J X.b p b m | VXuXVXDX&.o [.oX{.OXdXFX| u C c D C +.b D J C b b J X.b p b D b u x b c c F F C b b Z r ",
"o.A C p O.Z c t C K b d O * Y D b b b | AXiXrXZXsX[.BXjXyX=XdX| n A , p O.Z c t C K b b c K Y D b b A p p F J Z Z F b p p C c b ",
"Y K C b u C s p p Z b u ~ |.* b b p y | AXiXkXsX$XZXHXFXlXHXKX. Y n . b u C s p p Z b x Z b I b b p p c D J J K Z M.C J D J b C ",
"c ..K b - u : > , o o   ! zX|.@ b C   ^ VXkXsXXXcXHXFXlXfXKX| n c ` <X< - c U J Y b u Z I Y u u b C J Y I J Z j.D b I Z A Z O.D ",
"b @.Z x y b d & &.vXaX2X<XoXxX|.  : 3XpXkXDXVXjXDXlXVXsXGXaX.   : VXDXO y Z J U Z D p J Z o.C Z J J J Z Y +.D F p J D b c p p c ",
"b c b D o.c C C f 1XHXHXHX,XoXiX{ aXHXGXsXDXFXHXBXsXCXuXHXAX#X{.,XHXcX@ o.c C C Z Z C Z C S Z b C D D C C F p p J S C c p p u x ",
"D n J D D A g f c @ |.FXHXGX,X.XVXHXBXsXsXHXFXlXsXsXkXBXFXsXkXzXZXHXAXo D A Z C c b s F c Z b O.s D D b S S p b J n x p p D c x ",
"C b o.D J b d o i p & |.ZXHXJXpXZXsX'..XfXlX{..XfX*X[.{.yXAX$X$XHXBX*.d J b J C C p b C p Z b C C C Z b b b b x C b p b.O.X.C Z ",
"c b C J c J u &.|.& p d }.BXBXCXrX.X1XaXsXXXyX#X$XAXdXyX,XyXVXdX#X! p J c J Z U C C J U I t C D X.O.K x C K U K J J D O.D p D +.",
"x b b b b b p < #X,X*.- . XXuXrXXXdXHXHXdXXXHXDX#XrXGXHXAXOXdXHXoX} i b b b c c ..U D @.C Y A Z K +.O.b K Y b b b @.J A p p D D ",
"x b u J C b b t * yXxX}.|.$XfX$XXXHXDXBX*X%XHXHXDXXX%XCXHXFX,XrXzXzX|.f C b b t O.Z b C U K c c C C b S Y b C b b b b X.S p Z D ",
"b x r b D b K Y S = |.ZXxXfXkX*XXXHXZX,Xl.=.*XBXHXjX].fXCXHXZX'.~ &.*.O < c K Y Z b C b D C C C c C A x o.b S C b Z S @.S b p D ",
"p u p C b b b D F C * &.XXXXoX$X*XyXFX<X<.3.[ ;XZXbX#.!  XHXBX> - * - d f b c A D Z c p Z p b b u x S S S S b b D u A C b t p c ",
"Z b b Z C b b m : @ ^ $XiX#XO ( XX[ *XDX0X~.<.*.-X7X:.  * :XVX@ Z b b Z C b b K C b b F J Z O.F c D m.K p u p p b c c u C p C C ",
"X.D p D K Z D b * & > |.tX{.X e ! k ] $X*X2X^.<.*.yX!.& Z f &.: X.D p D K Z D C x p X.J Z +.K p C o.+.I n b S J Z Z C b Z Z C F ",
"+.+.y F J b C b x Z g = ( '.h Z.k l.9X>X( .XaX^.:.5XnX+ C c & O +.+.y F J b C b x Z D C c c c p J K A b Z b F Z C c b c C c Z A ",
"J J D Z C b C p x c c C f Q , Z.0.-.HXqXv.BXiXXX@X6X` u Z x J m J J D Z C b C p x c c C C c p C J D D C r A b.F x.Z C c Z p J A ",
"A C A Y J r C J A Y Z t K d O : % B.HXJXeXHX$X( GXeX  p b p A A A C A Y J r C J A Y Z t K J I c c c b A Z D b D A p p p b p D A ",
"b J I I x.c C D C Z +.u : @ h j j g.4XHXmXnX7XwXqX*.].W o = n D b P I I x.c C D C Z +.p U A Z C I A F I X.D D b J D Y K D J n D ",
"b A C D p r c C C b d # l.cXhXg.Z.0.k 4XJXmXMXnX2 / gXeXvX<X@ u b A C D p r c C C b x c b b b I Y Y D Z Z a S C F F I A C C p u ",
"b C p b Z c b p C c i  .NXJXSX5Xz.z.3.k -.B.B.l.2 { bX!.7XJX>X, b C p b Z c b p C c Z Z F I C C Z A a o.I C b x Z K Z Z S Z b C ",
"J c b X.D K K Z t C u ;.HX0XmX0X2.l.6XqX3XN.B.7Xk -.0XX l.MXmXo J c b X.D K K Z t C F F A J Z L J C Z S U C C b Z J A +.F b D O.",
"Z b Y S D J K I p Y g #.SXmXMX0X2.=.MXSXHXqX~.SX# m :X7XwXmX#.d Z b Y S D J K I p Y Y O.O.I F x.u o.U b p C C J J k.X.Z D S X.F ",
"C n m.j.C C b Z b J f ' ~.6XmX!.0.j V.~.C.5X9XN.> Z < :X:X#.i K C n m.j.C C b Z b J S +.K U X.U c J O.o.A p J J x.Z Z C b b C K ",
"C x +.X.c b b b C F S < 3 z.C.:.B.7XV.2 z.qX!.# %.C C i * i X.C C x +.X.c b b b C J F Y o.U A Y b X.X.S $.b A o.m.C C b b b X.C ",
"Z p J C D c Z A b A F I d $ ' C.B.HXKX. f.d.:.O < : : d u - A $.Z p J C D c Z A b Z F I I I Y Y b D O.C b p J D K C b C u - A $.",
"n C D b.X.D I C c J C n e 3  .NX] 6XnXO % 2 + + <.Y.Y.9.$ O > ^ n C D b.X.D I C c D b D F Z @.$.u b C D n b D o.C C c b n.x X.n.",
"n J I D c C C C O.J p c g 0 ' C.3.,.=.&X].,.T.f.I.W.W.E.w.w.Y.N., J I D c C C b O.D s b Z b @.C b b p x.Z D x b u O.K X.Y C b n ",
"X.D b c C p p Y P Y c.C f : = z.qX>X% B.g.7.(.W.E.E.E.E.W.W.(.E.O D b c C p u J A J +.b b b C Z D Z D C b n Y O.S @.X.n n C u b ",
"Y S b c Z X.C A T T k.J w k 0 H 8X8X2 >.,.I.E./.Q.d.r.Q.E.Q.I.6.O S b c Z X.b S X.K X.X.b u Y X.X.I X.Z u X.J S Z K Z b C p r J ",
"C a p c F U Z F T T B ; 6 ,.7 6 m.-.*.2 9.Q.E.Q.I.7.d.7.7.u.6.q $ , p c F Y C Z K D C Z b A b.m.v.v.I K p Y O.n C C C C D Z b C ",
"C p U p F Z J I I < 4 7 7 0.w.S.M.#.*.X 8 (.I.7.u.d.2.q q 3 q q >.O Y p D C D S K A A a p A o.X.Z S S F p D F b b b J D C b I b ",
"c b C c A Z x.b e 9 7 ,.P.w.U.).G.i.T.$.%.v a 2 k l.q 5.1.W W 1.5.$ C c A C +.b D J C b b J X.b p b D b u x b c c F F C b b Z r ",
"o.A C p O.A x > 4 ,.4 D.U.Q.H.J.J.s.i.N.m.X = n < % W h.8.>.5.>.0 m C p O.Z c t C K b b c K Y D b b A p p F J Z Z F b p p C c b ",
"Y K C b u Z u 4 ,.4 7 P.U.a.H.J.a.s.t.P.z P %.b P n E _._ 5.7 0 m K C b u C s p p Z b x Z b I b b p p c D J J K Z M.C J D J b C ",
"c ..K b - c ! ] 6.w 9 0XL.u.G.J.y.a.p.i.5 A T.@ T C E `._ $  .m c ..K b - c U J Y b u Z I Y u u b C J Y I J Z j.D b I Z A Z O.D ",
"b @.A x r > _.[ 6.4 9 9XH.J.H.H.J.G.p.r.R N s w v ! / 1.# i p c b @.Z x y Z J U Z D p J Z o.C Z J J J Z Y +.D F p J D b c p p c ",
"c c b D S / `.1.4 4 7 K.H.s.H.J.s.s.p.i.8 8 6 v Z M P.# p p u x b c b D o.c C C Z Z Z Z C A Z b C D D C C F p p J S C c p p u x ",
"D n K D r z a e p 6 6 F.G.y.H.J.y.a.t.w.8 N N V ~ 1XR.. : < c x D n J D D A Z C c b s F c Z b O.s D D b S S p b J b x p p D c x ",
"C b o.D Q j ,.> V 5 6 S.F.H.H.J.H.t.i.l 8 N B y &.-X&X*.4.1., Z C b o.D J b J C C p b C p Z b C C C Z b b b b x C b p b.O.X.C Z ",
"c b Z J E _._ ) Q s l 8 e.D.F.J.F.w.z 5 N T q.I  . X}.@X3.2.< +.c b Z J c J Z U C C J U I t C D X.O.K x C K U K J J J O.D p D +.",
"x b b b b b C C T T B N 5 l q.q.R l l l T T A Z C O.J D p p D F x b b b b b c c ..U D @.C Y A Z K +.O.b K Y b b b o.J A p p D F ",
"x b u J C b C s c.P B N R N 5 5 5 l N P T A A C b b C X.S p Z D x b u J C b b t O.Z b C U K c c b C b S Y b C b b b b X.S p Z D ",
"b x r b D c K U F Z F B T B N B N B T V k.Z A Z b Z S @.S b p D b x r b D c K Y Z b C b D C C C c C A x o.b S C b Z S @.S b p D ",
"p u p C c b c A J A C c P V B B v V Y Y J J c C F u A C b t p c p u p C c b c A D C c p Z p b b u p S S S S b b D u A C b t p c ",
"Z b b Z C b b I Z C C I T F k.T V Y m.Y x p p p C c c u C p C C Z b b Z C b b K C b b F J Z O.F c D m.K p u p p b c c u C p C C ",
"X.D p D K Z D C c p o.I A +.Y c Z O.+.Y C n A J Z Z C b Z Z C F X.D p D K Z D C x p X.J Z +.K p C o.+.I n b S J Z Z C b Z Z C F "
};
