/* XPM */
static char *xpm_[] = {
/* columns rows colors chars-per-pixel */
"64 64 248 2 ",
"   c #1C1514",
".  c #0B0413",
"X  c #330A12",
"o  c #342014",
"O  c #1B1627",
"+  c #191A34",
"@  c #120829",
"#  c #251B27",
"$  c #3A1B24",
"%  c #2C1030",
"&  c #132639",
"*  c #2B222A",
"=  c #3C2C2C",
"-  c #362827",
";  c #3F3021",
":  c #3D332E",
">  c #2C2532",
",  c #292739",
"<  c #362B34",
"1  c #3C3435",
"2  c #480818",
"3  c #4B1215",
"4  c #6C1011",
"5  c #593916",
"6  c #4F2C15",
"7  c #653C15",
"8  c #6D2E0F",
"9  c #550F31",
"0  c #6C0F2D",
"q  c #4A2928",
"w  c #453425",
"e  c #4A3726",
"r  c #4C3926",
"t  c #45332C",
"y  c #4D3A2A",
"u  c #4B3728",
"i  c #543E2C",
"p  c #583F2C",
"a  c #583B25",
"s  c #4C3A34",
"d  c #463634",
"f  c #533E33",
"g  c #543236",
"h  c #522A33",
"j  c #742E31",
"k  c #66421A",
"l  c #6C4E1B",
"z  c #56402E",
"x  c #5A422E",
"c  c #5D4431",
"v  c #5E4834",
"b  c #584339",
"n  c #6C4C2B",
"m  c #664729",
"M  c #714E2D",
"N  c #614633",
"B  c #644935",
"V  c #694D36",
"C  c #664C38",
"Z  c #6A4E39",
"A  c #6C4F3A",
"S  c #6A4E39",
"D  c #644439",
"F  c #6D513A",
"G  c #6F513C",
"H  c #6E513B",
"J  c #6F5034",
"K  c #735234",
"L  c #72543E",
"P  c #72543D",
"I  c #7A593B",
"U  c #77573A",
"Y  c #0A1551",
"T  c #2E1242",
"R  c #1A294D",
"E  c #393746",
"W  c #2F324B",
"Q  c #00126C",
"!  c #2F3966",
"~  c #3B1476",
"^  c #570F4D",
"/  c #4A3946",
"(  c #503B66",
")  c #72374F",
"_  c #3B4A6F",
"`  c #3F435C",
"'  c #484655",
"]  c #554C52",
"[  c #6E5441",
"{  c #745641",
"}  c #765943",
"|  c #7B5B43",
" . c #7D5D48",
".. c #765B49",
"X. c #664C57",
"o. c #7D614A",
"O. c #7D6453",
"+. c #484C66",
"@. c #585967",
"#. c #4F5273",
"$. c #75546E",
"%. c #7C7172",
"&. c #5F6174",
"*. c #8B1716",
"=. c #B10D08",
"-. c #8A2C0D",
";. c #AE2D1A",
":. c #8D3630",
">. c #AB362D",
",. c #820D37",
"<. c #D11604",
"1. c #ED1400",
"2. c #EE2D06",
"3. c #8A5418",
"4. c #8A5D31",
"5. c #B04439",
"6. c #936C30",
"7. c #A67636",
"8. c #B97A35",
"9. c #AB712D",
"0. c #A8621A",
"q. c #D14D0D",
"w. c #EB5A00",
"e. c #FF5600",
"r. c #FE540D",
"t. c #D5690D",
"y. c #EE6800",
"u. c #FC6700",
"i. c #FA7800",
"p. c #CB7630",
"a. c #F2762A",
"s. c #D24F35",
"d. c #8A3349",
"f. c #805F49",
"g. c #8E4C4F",
"h. c #B0564E",
"j. c #83634C",
"k. c #876751",
"l. c #8B6B53",
"z. c #876A54",
"x. c #93735B",
"c. c #947152",
"v. c #916E51",
"b. c #8B5A6F",
"n. c #927075",
"m. c #B37474",
"M. c #A56658",
"N. c #C85948",
"B. c #F06747",
"V. c #B48435",
"C. c #FC8800",
"Z. c #FF9500",
"A. c #FF9A00",
"S. c #FF9A0F",
"D. c #EC8D08",
"F. c #F79134",
"G. c #FFAB2F",
"H. c #CE9129",
"J. c #988551",
"K. c #9B867C",
"L. c #B68577",
"P. c #C28A45",
"I. c #FF9D44",
"U. c #FEA848",
"Y. c #FFB94C",
"T. c #FFBB52",
"R. c #FFAC5F",
"E. c #CC8A74",
"W. c #E79376",
"Q. c #FAA879",
"!. c #FFC451",
"~. c #FFC874",
"^. c #030BA6",
"/. c #2004A8",
"(. c #39518F",
"). c #3B55A9",
"_. c #465890",
"`. c #586B9B",
"'. c #5E6A89",
"]. c #75778A",
"[. c #677496",
"{. c #6C768E",
"}. c #536DA7",
"|. c #6676A8",
" X c #6A7FB5",
".X c #727DA7",
"XX c #3750C9",
"oX c #457EF4",
"OX c #9C7381",
"+X c #7684A9",
"@X c #788BB8",
"#X c #7088B2",
"$X c #2B8AF2",
"%X c #7A98C8",
"&X c #7089C1",
"*X c #578DFE",
"=X c #6EA8F2",
"-X c #5C88C6",
";X c #8E8E8B",
":X c #A88F85",
">X c #979BA7",
",X c #8E95B6",
"<X c #B6B8BF",
"1X c #AFAEBB",
"2X c #999BAB",
"3X c #CE988F",
"4X c #EBAD8F",
"5X c #D8B6B7",
"6X c #FAC794",
"7X c #FEDBB7",
"8X c #F3CCAE",
"9X c #F5E4B6",
"0X c #D5C3AA",
"qX c #889CC8",
"wX c #879FD9",
"eX c #97A4C6",
"rX c #94ABD7",
"tX c #90A9D5",
"yX c #ADB6CD",
"uX c #A8BADA",
"iX c #AFB7CD",
"pX c #A6BEE4",
"aX c #88AAF5",
"sX c #CFB9C8",
"dX c #BAC5D9",
"fX c #ABC2E6",
"gX c #BCCBE4",
"hX c #BCD6FE",
"jX c #B4CDF6",
"kX c #C4CBD7",
"lX c #CCCDD4",
"zX c #F4D7CA",
"xX c #FCE8C6",
"cX c #FFF3CA",
"vX c #FFFBD9",
"bX c #F0E6CE",
"nX c #C7D5EB",
"mX c #D3DCEB",
"MX c #CBD9EF",
"NX c #DAE7F7",
"BX c #D8E7F1",
"VX c #FFFCE6",
"CX c #E5ECF4",
"ZX c #EAF5FB",
"AX c #F3FCFE",
"SX c #FFFFFF",
"DX c #F8FAF7",
"FX c #E9E6E8",
/* pixels */
" . .r A F c N c z B Z N x x x i F G V c B c A B N x c x N x B V  . .r A F c N c z B Z N x x x i F G V c B c A B N x c x N x B V ",
"F F Z B N c N i z x x N N x i N F Z Z N w V l.A j.B N x B i F V F F Z B N c N i z x x N N x i N F Z Z N w V l.A j.B N x B i F V ",
"V N V P F w N F V P B u G F P x x x c V B Z c Z V i i i c i Z V V N V P F w N F V P B u G F P x x x c V B Z c Z V i i i c i Z V ",
"c F P P j.x N Z N B  .i U V B N P V A P { Z Z c F Z P G Z F v Z c F P P j.x N Z N B  .i U V B N P V A P { Z Z c F Z P P Z F v Z ",
"c V N Z i w x N N c z x c c c P P P Z B B p C N A A P V N N i y c V N Z i w x N N c z x c c c P P P Z B B p C N A A P V N N i y ",
"c N i c B x c i N x B B A P c N B V p } P N c z B G B B C B c N c N i c B x c i N x B B A P c N B V p } P N c z B G B B C B c N ",
"F x c { Z G G B e N A A V F B H F N B C U N N c B F V  .A c Z | F x c { Z G G B e N A A V F B H F N B C U N N c B F V  .A c Z | ",
"B c P C Z F G P i P P | | P A j.y } U c i N N F F f.{ B Z C [ A B c P C Z F G P i P P | | P A j.y } U c i N N F F f.{ B Z C [ A ",
"N v x.f.N N c B c F C  .G U { U x F | } V z F G j.B B N c c N G N v x.f.N N c B c F C  .G U { U x F | } V i F F j.B B N c c N G ",
"N z  .{ x c c c N F A P } U V P c { { C o.c V } x.N N c c c { N N z  .{ x c c c N F A P } U V P c { { C o.c V } x.N N c c c { N ",
"B i F N Z x B V c B A P P P P P c Z | N c i F Z G N c N y ; V o.B i F N Z x B V c B A P P P P P c Z | N c i F Z G N c N y ; V o.",
"v N Z l.{ Z P N x Z c Z A B ..o.y c N Z v c Z } N N x c z.z { z.v N Z l.{ Z P N x Z c Z A B ..o.y c N Z v c Z } N N x c z.z { z.",
"v F P Z x N N c | Z i c B c ..b > > O # = Z z c y | G { P N c v v F P Z x N N c | Z i c B c ..N c c i j.B Z z c y | G { P N c v ",
"{ Z c x N i y F V F  .c c c N v - E kXkX].  = | N } P v v N y c { Z c x N i y F V F  .c c c N B Z B Z N c v P | N ..{ v v N y c ",
"P C c x B { c B { G { { c y P { { s >XSXAX<X].- B G B f O # O # # - c x B { c B { G { { c y P { { P { B y { F C B G B c N i w F ",
"N p i x A P N B G Z N B c V l.x.k.k.t ].NXAXSX].- N c ' iX|.+X1XlX1X# * A P N B G Z N B c V l.x.k.k.P G i P | v N N N N Z B c N ",
"N i U i Z N Z C G V V t > B } { B C N , nXuXSXkX  c , rXZXAXAXSXSX&.s = Z N Z C G V V p i V } { B C C A i Z A c c c F Z N c P c ",
"x c N x V N  .c Z F N t + F { c i c b ' mXrXmXCX+.O _. X`..XrXZX' y N x Z N  .c Z F N c c F { c i c Z c y z c x x A A N c c B w ",
"} V N i | B x e N G c s + < P C c c c ' BXtXqXNXuX_.nXdXeX&XyX' v V < i | B x e N G c c x G P Z c c V i i A F B B A c i i N x c ",
"P G N c y N i i i B c y W [.< c c i r ' BXtXfXuX@XNXSXZXgXSXFX. P b . c y N i i i B c z B c P c c i i x Z F F G B v.N F Z F c N ",
"x [ G c ; y > , > O O   W hX[.# c N   E mXfXuX|.kXSXZXgXpXFX' v x / >X< ; x U F P c y B P P y y c N F P P F B f.Z c P B V B | Z ",
"c ..B z r c s * +.lXiX<X>X XjX[.  > 1XiXfXCXmXdXCXgXmXuXAXiX.   > mXCX+ r B F U B Z i F B } N B F F F B P  .Z A i F Z c x i i x ",
"c x c Z } x N N d 2XSXSXSX,X XtX_ iXSXAXuXCXZXSXnXuXmXrXSXBX+X`.,XSXkX# } x N N B B N B N V B c N Z Z N N A i i F C N x i i y z ",
"Z v F Z V V f d x # [.ZXSXAX,X}.mXSXnXuXuXSXZXgXuXuXfXnXZXuXfXhXNXSXBXO Z V B N x c i A x B c | i Z Z c C C i c F c z i i Z x z ",
"N c } Z F c s O t i * [.NXSXDXyXNXuX(.}.pXgX`.}.pX%X_.`.eXBX@X@XSXnX@.s F c F N N i c N i B c N N N B c c c c z N c i l.| { N B ",
"x c N F x F y +.[.* i s '.nXnXMX%X}.eXiXuX|.eX#X@XBXyXeX,XeXmXyX+XR i F x F B U N N F U P e N Z { | G z N G L G F F Z | Z i Z  .",
"z c c c c c i 1 +X,X#.- . |.rXqX|.yXSXSXyX|.SXCX+XqXAXSXBX.XyXSX X` t c c c x x [ U Z ..N P V B G  .| c G P c c c ..F V i i Z Z ",
"z c y F N c c e = eXjX'.[.@XpX@X|.SXCXnX%X#XSXSXCX|.#XMXSXZX,XqXhXhX[.t N c c e | B c N U G x x c N c C P c N c c c c { C i B Z ",
"c z w c Z c G P C * [.NXjXpXfX%X|.SXNX,Xg.$.%XMXSXdX).pXMXSXNX(.W +.#.+ < x G P B c N c Z N N N x N V z } c C N c B C ..C c i Z ",
"i y i N c c c Z Z N - +.|.|. X@X%XeXZX,X;.;.( -XNXzXX.R {.SXnX, ; - ; s d c x V Z N x i B i c c y i C C C C c c Z y V N c e i x ",
"B c c B N c c b > # E @XtX+X+ ! |.( %XCX7XW.;.X.=X5X*.  = ;XmX# B c c B N c c G N v c A F B | A x Z x.G i y i i c x x y N i N N ",
"{ Z i Z G B Z c : * , [.wX`.$ h R j ) @X%X<XQ.;.#.eXE.* B t +.> { Z i Z G B Z N z i { F B  .G i N }  .P v c C F B B N c B B N A ",
" . .r A F c N c z B f - ! (.d N.j g.4X:X! }.iXQ.*.3XbX@ N x * +  . .r A F c N c z B Z N x x x i F G V c B c A B N x c x N x B V ",
"F F Z B N c N i z x x N d R < N.5.$.SX8Xk.nXtX|.OX4X/ y B z F b F F Z B N c N i z x x N N x i N F Z Z N w V l.A j.B N x B i F V ",
"V N V P F w N F V P B u G s + > % b.SXDX0XSX@X! AX0X  i c i V V V N V P F w N F V P B u G F P x x x c V B Z c Z V i i i c i Z V ",
"c F P P j.x N Z N B  .y > # h j j d.2XSXcXxX0X9X8X#.).T O - v Z c F P P j.x N Z N B  .i U V B N P V A P { Z Z c F Z P G Z F v Z ",
"c V N Z i w x N N c s $ g.kXsXd.N.5.j >XDXxXvXxX3 Q aX0XlX>X# y c V N Z i w x N N c z x c c c P P P Z B B p C N A A P V N N i y ",
"c N i c B x c i N c t ] vXDXVX3Xh.h.>.j b.b.b.g.2 _ zXE.5XDX:X> c N i c B x c i N x B B A P c N B V p } P N c z B G B B C B c N ",
"F x c { Z G G B u N y @.SX7XcX7X:.g.4X8X1XM.b.5Xj %.7XX g.vXcXO F x c U Z G G B e N A A V F B H F N B C U N N c B F V  .A c Z | ",
"B c P C Z F G P i P f ] VXcXvX7X:.$.vXVXSX8XW.vX$ b ;X5X9XcXX.s B c P V Z F G P i P P | | P A j.y } U c i N N F F f.{ B Z C { A ",
"N v x.f.N N c B c F d / W.4XcXE.5.:.n.W.E.3X6XM., V : ;X;XX.t P B c x.j.N N c B c F C  .G U { U x F | } V i F F j.B B N c c N G ",
"N z  .{ x c c c N F C 1 4 h.m.*.b.5Xn.2 h.8XL.$ O.N B t = t | V V x j.| N N c c N F A P } U V P c { { C o.c V } x.N N c c c { N ",
"B i F N Z x B V c B A P s % / m.$.SXFX. s.B.*.+ 1 > > b i e K j.K m U V F N V V c V A P P P P P c Z | N c i F Z G N c N y ; V o.",
"v N Z l.{ Z P N x Z c b h 4 ] bX) 4XbX@ % 2 @ @ ;.P.P.4.< > < b V J U c.| P U B x A c Z A B ..o.y c N Z v c Z } N N x c z.z { z.",
"v F P Z x N N c | Z y f s 3 E m.>.-.@.$XXX-.J.p.F.Y.!.U.8.9.9.4.e n K K n V V B | A i c B c ..N c c i j.B Z z c y | G { P N c v ",
"{ Z c x N i y F A F  .f < + # N.7X:X@ b.d.2.!.Y.U.U.U.F.V.9.6.3.6 7 5 k n m x I K P  .c c c N B Z B Z N c v P | C ..{ v v N y c ",
"P C c x B { c B } P { b % 9 % X.VXbX2 =.*.F.U.I.T.a.q.V.6.3.7.V.7.7.k 5 k U n K | P } { c y P { { P { B y { F C B G B c N i w F ",
"N p i x A P N V P Z b & # <.4 W VXaX).X :.T.U.T.F.q.0.-.3.H.8.G.~.C.t.6.k n M U I F B B N V l.x.k.k.P G i P | v N N N N Z B c N ",
"N i U i Z N Z C C , q *.9 1.1.9.&.*XoX. 6 !.F.2.r.p.j 8 H.G.T.Z.Z.A.i.t.4.7 m K U K A z i V } { B C C A i Z A c c c F Z N c P c ",
"x c N x V N  .f q 4 *.<.9 <.F.F.Y *XlXdX>Xw h 2 j g.8 8 8.G.u.Z.A.u.i.w.p.7 m a J U B N x F { c i c Z c y z c x x A A N c c B w ",
"} V N i | B y & 3 1.9 0 h.Q.!.p.W FX7X8XbX@ # v s $ q 8 7XS.e.C.A.e.u.y.t.l 5 6 m I N c x G P Z c c V i i A F B B A c i i N x c ",
"P G N c y N t 3 =.0 2 >.vXcXU.p.# W.xX4Xh.n.K.f U V = g 6XZ.A.Z.Z.A.C.y.w.l k 5 a F B x B c P c c i i x Z F F G B v.N F Z F c N ",
"x [ G c ; i R ^ <.% :.a.B.R.U.8.W 3X4XxX. :XcXO I m = h S.Z.i.Z.A.i.i.y.t.7 k m U V i B P P y y c N F P P F B f.Z c P B V B | Z ",
"c ..V z w , ^.~ <.9 :.r.a.F.U.a.*.n.4X' f ] ] < m < T 8 D.C.e.Z.A.e.u.w.8.7 m U K P x P B } N B F F F B P  .Z A i F Z c x i i x ",
"x x z F C Q /.,.$ < 0 *.a.I.Y.I.2 1 @.y N A t x V l 0.6 V.D.Z.Z.A.Z.w.t.l 7 m K K A V B N V B c N Z Z N N A i i F C N x i i y z ",
"Z v F C w l y 9 1 < R 2 1.!.U.b : Z s c C C i c E >XJ.o 6 7.D.D.A.D.8.l k m M V m N i F x B c | i Z Z c C C i c F c z i i Z x z ",
"N c } Z R j -.& f i 1 = j I D t N N B c c c c w +.=XoXX.8 8 5 4.4.l k k m n I F V x N B i B c N N N B c c c c z N c i l.| { N B ",
"x c N F Y ^.^ ^ Y d F U d * d Z { | G z N P L Z ] ].{.n.:.:.5 m 5 5 k n m I K I V B F U P e N Z { | G z N G L G F F F | Z i Z  .",
"z c c c c c x x [ U Z ..N P V B G  .| x G P c c N  .P U m m M M m m n n V V m x { U A | N P V B G  .| c G P c c c } F V i i Z A ",
"z c y F N c c e | B c N U G x x c N c C P c N c c N B | P m K U m n x I V N N r | B x N U G x x c N c C P c N c c c c { C i B Z ",
"c z w c Z x G P C c N c Z N N N x N V z } c C B c B Z  .Z B x P B N r N F x G P B c N c Z N N N x N V z } c C N c B C ..C c i Z ",
"i y i N x c x V Z N c i B i c c y i C C C C c c Z y V N c r x x x i i B x N x V Z N x i B i c c y i C C C C c c Z y V N c e i x ",
"B c c B N c c G N c c A F B | A x Z x.G i y i i x x x y N z N B B N c B N c c P N c c A F B | A x Z x.G i y i i c x x y N i N N ",
"{ Z i Z G B Z N z i { F B  .G i N }  .P v c C F B B N c B B N A { Z i Z G B Z N z i { F B  .G i N }  .P v c C F B B N c B B N A "
};
