/* XPM */
static char *xpm_[] = {
/* columns rows colors chars-per-pixel */
"64 64 256 2 ",
"   c #0D0A18",
".  c #0A1A3D",
"X  c #191939",
"o  c #0B0B32",
"O  c #261E35",
"+  c #32162C",
"@  c #1C243C",
"#  c #0E2333",
"$  c #3F3021",
"%  c #2A293A",
"&  c #362B39",
"*  c #3B373A",
"=  c #392A2A",
"-  c #3D031A",
";  c #5B3B18",
":  c #562914",
">  c #633D15",
",  c #6E3013",
"<  c #6E032E",
"1  c #4A3727",
"2  c #4D3A2A",
"3  c #483526",
"4  c #543E2C",
"5  c #593E2C",
"6  c #5A3E21",
"7  c #463938",
"8  c #533A36",
"9  c #4A2633",
"0  c #6A3331",
"q  c #570D20",
"w  c #66421B",
"e  c #734E1D",
"r  c #56412E",
"t  c #5A422E",
"y  c #5D462B",
"u  c #4C413A",
"i  c #5D4431",
"p  c #5E4835",
"a  c #574439",
"s  c #68482A",
"d  c #614633",
"f  c #644935",
"g  c #694D36",
"h  c #664C39",
"j  c #6A4E39",
"k  c #6E513B",
"l  c #6E5034",
"z  c #735234",
"x  c #72543D",
"c  c #78583B",
"v  c #714E2D",
"b  c #0B1848",
"n  c #0C2649",
"m  c #152847",
"M  c #1A3753",
"N  c #0B3355",
"B  c #272A46",
"V  c #362B44",
"C  c #283446",
"Z  c #363745",
"A  c #253953",
"S  c #232B53",
"D  c #0A3663",
"F  c #251E47",
"G  c #443843",
"H  c #543746",
"J  c #6B245F",
"K  c #1D4259",
"L  c #374855",
"P  c #2F4451",
"I  c #045A75",
"U  c #084C6B",
"Y  c #2B4D6B",
"T  c #046377",
"R  c #12606E",
"E  c #356B71",
"W  c #4B4546",
"Q  c #564845",
"!  c #494954",
"~  c #565350",
"^  c #6D5443",
"/  c #745641",
"(  c #765943",
")  c #7B5B44",
"_  c #7D5D48",
"`  c #765B49",
"'  c #6A514C",
"]  c #7D614A",
"[  c #6C6758",
"{  c #576677",
"}  c #716D70",
"|  c #615B70",
" . c #8D151E",
".. c #B10D17",
"X. c #8C310D",
"o. c #B12917",
"O. c #970623",
"+. c #94142C",
"@. c #A71727",
"#. c #943236",
"$. c #B52C29",
"%. c #C70C07",
"&. c #D12F18",
"*. c #F4390E",
"=. c #C52D30",
"-. c #815E36",
";. c #B54832",
":. c #916834",
">. c #AE7B37",
",. c #885804",
"<. c #DA4816",
"1. c #FD4914",
"2. c #F0500A",
"3. c #D5690D",
"4. c #FC6700",
"5. c #FA7800",
"6. c #EE6800",
"7. c #E74A24",
"8. c #EE552B",
"9. c #F86B31",
"0. c #CA632C",
"q. c #933946",
"w. c #B12546",
"e. c #D13766",
"r. c #805F49",
"t. c #924A4F",
"y. c #83634C",
"u. c #886449",
"i. c #896A53",
"p. c #93735A",
"a. c #916E51",
"s. c #AA6354",
"d. c #947671",
"f. c #AF7665",
"g. c #AD5A54",
"h. c #CB6E53",
"j. c #CF7D63",
"k. c #E27146",
"l. c #7C887F",
"z. c #B79930",
"x. c #FC8800",
"c. c #FF9500",
"v. c #FF9A00",
"b. c #FF9A0F",
"n. c #EC8D09",
"m. c #CD902E",
"M. c #FF8936",
"N. c #FFAB2F",
"B. c #B5936A",
"V. c #FC8947",
"C. c #FE954B",
"Z. c #FF9D53",
"A. c #FF9F5C",
"S. c #F4835D",
"D. c #FFA354",
"F. c #FFAA58",
"G. c #FFB654",
"H. c #D68E6F",
"J. c #F1956D",
"K. c #FFAB68",
"L. c #FFC874",
"P. c #FFE70A",
"I. c #011288",
"U. c #182DA1",
"Y. c #0E598F",
"T. c #037789",
"R. c #027C96",
"E. c #0A6A89",
"W. c #38728F",
"Q. c #106EAA",
"!. c #2657A6",
"~. c #5D5484",
"^. c #577A95",
"/. c #4867B4",
"(. c #7C4E99",
"). c #2264C1",
"_. c #0665DC",
"`. c #422FB3",
"'. c #93588F",
"]. c #997493",
"[. c #CB6B90",
"{. c #028499",
"}. c #148893",
"|. c #0397A8",
" X c #039BB5",
".X c #0B91A8",
"XX c #3794AC",
"oX c #03A4B9",
"OX c #17A9B8",
"+X c #35A6B7",
"@X c #2BABB5",
"#X c #2B8894",
"$X c #518B94",
"%X c #788A94",
"&X c #5D9AAE",
"*X c #0E94D0",
"=X c #329CD2",
"-X c #00A7C3",
";X c #00B2CC",
":X c #09B5C7",
">X c #06BDD4",
",X c #17B7CB",
"<X c #29ACE5",
"1X c #619CCE",
"2X c #05C6D9",
"3X c #1AC8D9",
"4X c #15CDD9",
"5X c #30CED6",
"6X c #03D1E8",
"7X c #2AD8E4",
"8X c #32DCE5",
"9X c #13EDF8",
"0X c #26F8FB",
"qX c #36FAFC",
"wX c #31E6ED",
"eX c #74D6E4",
"rX c #43FEFE",
"tX c #4AFAFB",
"yX c #58FDFE",
"uX c #45E8EB",
"iX c #67FDFE",
"pX c #7BEEFC",
"aX c #5DD8E1",
"sX c #92898C",
"dX c #B4948B",
"fX c #B0AEAE",
"gX c #94A3A7",
"hX c #F0B995",
"jX c #C7B4A6",
"kX c #C79F92",
"lX c #FCCC94",
"zX c #D0C3B2",
"xX c #FDD8BD",
"cX c #F4CCAC",
"vX c #FFE7B4",
"bX c #A2B9C4",
"nX c #CBB8C5",
"mX c #ACCCCD",
"MX c #85FAFC",
"NX c #A6FCFD",
"BX c #B9FDFF",
"VX c #B7E3EB",
"CX c #A0DBE0",
"ZX c #D4D1D7",
"AX c #FFEBC9",
"SX c #FFF8C6",
"DX c #FEFDD5",
"FX c #E0F1D5",
"GX c #CAFDFF",
"HX c #D8FBFD",
"JX c #C3E7F1",
"KX c #E9FDFB",
"LX c #FEFFFE",
"PX c #F2FFFF",
"IX c #F8F4E6",
"UX c #E4D6D2",
/* pixels */
"_ _ 1 j k i d t r f j d t t t 4 k k g i f i j f d t i t d t f g _ _ 1 j k i d i r f j d t t t 4 k k g i f i j f d t i t d t f g ",
"k k j f d i d 4 r t t d d t 4 d k j j d 3 g a.j y.f d t f 5 k g k k j f d i d 5 r t t d d t 4 d k j j d 3 g a.j y.f d t f 5 k g ",
"g d g x k 3 d k g x f 1 k k x t t t i g f j i j g 4 5 5 i 4 j g g d g x k 3 d k g x f 1 k k x t t t i g f j i j g 4 5 5 i 4 j g ",
"i k x x y.t d j f f _ 4 c g f d x g j x / j j i k j x k j k p j i k x x y.t d j d f _ 4 c g f d x g j x / j j i k j x x j k p j ",
"i g d j 5 3 t d d 7 m t i i i x x x j f f 5 h d j j x g d d 4 2 i g d j 5 3 t d d i r t i i i x x x j f f 5 h d j j x g d d 4 2 ",
"i d 5 i f t i 4 d 7 . f j x d d f g C W x d i r f k f f h f i d i d 5 i f t i 4 d t f f j x i d f g 5 ( x d i r f k f f h f i d ",
"k t i / j k k f = Y @X% g k f k k d C . u d d i f k g _ j i j ( k t i / j k k f 1 d j j g k f k k d f h c d d i f k g _ j i j ( ",
"f i x h j k k x = U MXnX@ X O y.2 ( % fX%X= d k x ' C f j h ^ j f i x h j k k x 5 x x ) ( x j y.2 ( c i 5 d d k k r./ f j h ^ j ",
"d p p.r.p p i 8 ! bXyXBXnX@XoXB O k 7 eXKX| 7 k y.7 o d i i d x d p p.r.d d i f i k h _ k c / c t k ( ( g 4 k k y.f f d i i d k ",
"d r _ / t i i 3 '.LXqX0XNXPXHXbX+XK    XHXLX{ Q p.A +XZ i i / f d r _ / t i i i d k j x ( c g x i / / h ] i g ( p.d d i i i / d ",
"f 4 k d h t a C 1XKX3XrX0XeXGXLXPXmXP oXiXKXZX  Z 5XtXn 1 $ g ] f 4 k d j t f g i f j x x x x x i j ( d i 4 k j k d i d 2 $ g ] ",
"p d j ~ ^ j & I iXZXT 7XyX2X2XCXHXLX+XoX0XBXfX. OXiXuXm i.r / i.p d j i./ j x d t j i j j f ( ] 2 i d j p i j ( d d t i i.r / i.",
"p k x M X i 7 U pXIXT.2X7XyX3X X2X9XT.@X0XNXmXE.oX:X|.o 7 7 Z a p k x j t d d i ( j 4 i f i ( d i i 4 y.f j r i 2 ) k / x d i p ",
"/ j i % R P + U yXVX{.qX>X7XyX3X-X-XR.5X6XMXZXI }.$X^.{ W.D n u / j i t d 5 2 k g k _ i i i d f j f j d i p x ) d ( / p p d 2 i ",
"x h d X 5XaX@ U 4X3X}.iXqX2X8XyX3X:X;XwX6XeXbX.XNXKXLXPXyXK 3 k x h i t f / i f / k / / i 2 x / / x / f 2 / k h f k f i d 4 3 k ",
"d 5 4 O .XGXBX.XT I $XLXiXwX;X8XyXyX>X8X8X X2XBXVX2XtXuXN a i d d 5 4 t j x d f k j d f i g i.p.i.i.x k 5 x ( p d d d d j f i d ",
"d 5 c X @XqXBXGX.XU #XLXLXiX9X>X8XyX4X7X3X>XBXJX2XqX5XN X 8 x i d 5 c 4 j d j h k g g 5 4 g ( / f h h j 5 j j i i i k j d i x i ",
"t i d O +X9X2XBXBX.X{.iXLXPXyXwX>X7X3X-X-XeXJX X;X:XT . 8 i f 3 t i d t g d _ i j k d i i k / i 5 i j i 2 r i t t j j d i i f 3 ",
"( g d 4 & XX9X>XBXHXoX;XtXLXLXiX2XR.T |.2XOXT E.T.T.T m m a 5 i ( g i 4 ( f t 1 d k i i t k x j i i g 4 5 j k f f j i 5 4 d t i ",
"x k d i 1 & +X9X3XBXJX-X;XiXLXLX#X|.aX2XR..X8XuX@XT.;XoXoXM r d k k d i 2 d 4 5 4 f i r f i x i i 4 4 t j k k k f a.d k j k i d ",
"t ^ k i $ 3 K 7X9X7XMX;X;X{.W.$X+XuXrX0XT.}.rXrXwX{.{.6X6X XA p t ^ k i $ t c k x i 2 f x x 2 2 i d k x x k f r.j i x f g f ) j ",
"i ( Z C % + . T.,X>X6X;XT.OXOXI 8XtXMXGX3X,XKXBX0X3XR.|.|.6XI 2 i ( f r 2 f k c f j 5 k f ( d f k k k f x _ j j 4 k j i t 5 4 t ",
"i t * b T {.{.T.I {.R..X@XyXiXT.7XqXGXxXdX&X&XCXNX0X3XN N E.D 2 i t i j ( t d d f f d f d g f i d j j d d j 5 5 k h d t 4 5 2 r ",
"j p k a K ;X9X2X X XR.T.yX9X6Xl.}.9XKXcXK.hX} G fXGX8Xb & 7 m * j p k j j g f d t i 4 j t f i ) 4 j j i h h 5 i k i r 5 5 j t r ",
"d i ( j a M R.R.|.oX|.R.rX;X$XJ.h.#XiXKXAXDXSXs.o bXrXm ( / 7 a d i ( j k i k d d 5 i d 5 f i d d d f i i i i r d i 4 i.( / d f ",
"t i d k t k + n |.T.K $X2X8XS.k.B.Y |.VXAXxXDXUXo K +XM h 5 j _ t i f k t k f c d d k c x 1 d j / ( k r d x x k k k j ( j 5 j _ ",
"r i i i u 7 Z .X9X-XH S.E 5XH.S.E E.U sXSXAXxXsXC ( X n 8 5 j j r i i i i i t r ^ c j ( d x g f k _ ( i k x i i i ( k g 5 5 j j ",
"r i 2 k Z X I -XoXQ.S J.J.E B.J.#.sX+X[ H.FXdXo @ r i A a 5 f j r i 2 k d i i 1 ) f i d c k t t i d i h x i d i i i i / h 5 f j ",
"i t 3 i j 4 L U B + ! f.p.t.H.J.#.kXLX+XI mXjXb K A p ` h p 4 j i r 3 i j t k x f i d i j d d d t d g r ( i h d i f h ` h i 4 j ",
"5 4 4 d t * U *X~.8.k.A F t.j.H.H.h.xXaXeXKXd.S =XQ.. d r 1 5 t 5 2 4 d t i t g j d t 4 f 4 i i 2 5 h h h h i i j 1 g d i 1 5 t ",
"f i i f p * Y U.).^.8.V.7.h.t.h.J.H.cXDXDX%Xq =.).XXm 2 d 4 d d f i i f d i i k d p i j k f ( j t j p.k 4 2 4 5 i t t 2 d 4 d d ",
"/ j 5 j & %XlXd.Q.Q.^.1.C.J.j.q.s.cXAXDX%X+ *.#./.DXzXn d d d j / j 5 j k f j d r 4 / k f _ k 5 d ( _ x p i h k f f d i f f d j ",
"_ _ 1 j V V #.H.VX_.U.*.D.&XXXj.;.t.t.t.s.0.*.+./.DXSXf.m 4 f g _ _ 2 j k i d i r f j d t t t 4 k k g i f i j f d t i t d t f g ",
"k j j & } zXg.< s.!.`.*.1.g.=X1X$XW.W.W.=XdXo.V t.p.t.g.f.Z @ @ X p j f d i d 5 r t t d d t 4 d k j j d 3 g a.j y.f d t f 5 k g ",
"g d g X jXLXxXdXj.;.b + - - D Y.Q.).)._./.8.#.n 0 k.g.#.A.~.I.gXfXL O a k 3 d k g x f 1 k k x t t t i g f j i j g 4 5 5 i 4 j g ",
"i k x m L B.vXLXDX/.Y.%XgXgXkXn I.U.U.J o., G * L [ ~ Z (.`.'.hXDXdXd.} y.t d j d f _ 4 c g f d x g j x / j j i k j x k j k p j ",
"i g d W % O i.sX1X<XVXSXlXcXfX-.#.q.q.$.8 * h d j Z Z Z I.I.J.A.J.S.vXfXr 3 t d d i r t i i i x x x j f f 5 h d j j x g d d 4 2 ",
"i d 5 i f 8 % X I.&XDXxXhXs.  0 =.w.e.D B 7 * V W k f f u 7 ~ ` kXhXDXfXf t i 4 d t f f j x i d f g 5 ( x d i r f k f f h f i d ",
"k t i / j k k p O & jXDXcXhXsXN _._.`.9 f [ [ ' & G G W a 8 7 o dXSXzX| j k k f 1 d j j g k f k k d f h c d d i f k g _ j i j ( ",
"f i x h j k k x 4 x b fXhXvXcXH !.1XJ %.M.G.C.C.7.! ! ! ! 9 Q Z ' j.Z 7 j k k x 5 x x ) ( x j y.2 ( c i 5 d d k k r./ f j h / j ",
"d p p.r.d d i f i W Z ! fX} o &...%...$.M.8.8.F.D.D.D.D.F.9.V k 7 m [ y.d d i f i k h _ k c / c t k ( ( g 4 k k y.f f d i i d k ",
"d r _ / t i i i * ! G.V.B n Z 7.O.o.O.h.9.8.K.Z.Z.C.Z.D.D.F.L a f t y.( d i i i d k j x ( c g x i / / h ] i g ( p.d d i i i / d ",
"f 4 k d j t f g * ! 9.7.C.Z.D.F.+...@.O.9.D.V.V.V.Z.Z.C.C.Z.W ' z s x g k d g g i g j x x x x x i j ( d i 4 k j k d i d 2 $ g ] ",
"p d j i./ j x d 7 V 7.C.Z.Z.D.Z.+...$.< $.8.7.&.8.F.V.7.7.7.+.V a l c a.) x c f t j i j j f ( ] 2 i d j p i j ( d d t i i.r / i.",
"p k x j t d d d Q O 7.F.D.Z.Z.8.O.< $.<.&.8.Z.C.Z.V.&.&.&.&. .o.5 t z z v g g f ) j 4 i f i ( d i i 4 y.f j r i 2 ) k / x d i p ",
"/ j i t d 5 2 Q F O.7.D.D.C.7.M.Q b B Z V Z L L H @.O. . .X., X.> ; ; > v s t c z x _ i i i d f j f j d i p x ) h ( / p p d 2 i ",
"x h i t f / * 8 $.O.&.7.7.8.V.~ W Q Q a 7 Q h G V *.o.q : , :.m.>.:.w ; w z v z ) x ( / i 2 x / / x / f 2 / k h f k f i d 4 3 k ",
"d 5 4 t j x Z 0 &.O.7.&.O.O.#.n ` i.x k 5 c ) f W 0  .X.X.m.>.N.L.x.3.:.w s v c c k f f d g i.p.i.i.x k 5 x ( p d d d d j f i d ",
"d 5 c 4 j d Z 8 =.< @.@.< < O.B u h h j 5 j k f g 7 9 6 m.N.G.c.c.v.5.3.-.> s v c z j t 4 g ( / f h h j 5 j j i i i k j d i x i ",
"t i d t g d L 0 *.+.< < @.&.1.V * i j i 2 t d d s l * 8 z.N.4.c.v.4.5.6.0.> w ; l x f d i k / i 5 i j i 2 r i t t j j d i i f 3 ",
"( g d 4 ( f 7 V ;.*...%.1.1.#.C u i g 4 5 j x j c l = 8 vXb.2.x.v.2.4.6.3.e ; : s c d t t k x j i i g 4 5 j k f f j i 5 4 d t i ",
"x k d i 2 d 4 2 + 8.d.d.#.0 Z i i 4 4 t j k x c k Q Q e lXc.v.c.c.v.x.6.3.e w ; 6 l f t f i x i i 4 4 t j k k k f a.d k j k i d ",
"i ^ k i $ t h P J e.<XQ.A Z 2 2 i d k x x k j u.a Y [ ,.b.c.5.c.v.5.5.6.3.> w s c g 4 f x x 2 2 i d k x x k f r.j i k f g f ) j ",
"i ( f r 2 f 7 R B.k.Y.% f ( d f k k k f x _ k x r L | 0 n.x.2.c.v.4.4.2.>.> s z z x t x f ( d f k k k f x _ j j 4 k h i t 5 4 t ",
"i t i j ( i C [ P.z.B f d g f i d j g d d k t t c k { ~ m.n.c.c.v.c.6.3.e > s z z j g f d g f i d j j d d j 5 5 k h i t 4 5 2 r ",
"j p k j j * Y.].w.n 4 j t f i ) 4 j j i g g r d x g y ~ , >.n.n.v.n.>.e > s v l d d 4 k t f i ) 4 j j i h h 5 i k i r 5 5 j t r ",
"d i ( j k 7 q.[.Q.@ i f 5 f i d d d f i i i i t l f y c s > > -.-.e w w s v c z g t d f 5 f i d d d f i i i i r d i 4 i.( / d f ",
"t i f k t #.'.Q.C d k c x 1 d j / ( k r d x c x k x x -.v ; w s ; ; w v s c z c g f k c x 1 d j / ( k r d k x k k k k ) j 5 j _ ",
"r i i i i 7 M C ^ c j ( d x g f k _ ( i k x i i d _ x c d s v v s s v s g g d t / c j ( d x g f k _ ( i k x i i i ( k g 5 5 j j ",
"r i 2 k d i i 1 ) f t d c k t t i d i h x i d i i d f ( x d z c d s y c g d d 2 ) f t d c k t t i d i h x i d i i i i / h 5 f j ",
"i r 3 i j t k x f i d i j d d d t d g r ( i h f i g j _ j f t x f d 1 d k t x x f i d i j d d d t d g r ( i h d i f h ` h i 4 j ",
"5 2 4 d t i t g j d t 4 f 5 i i 2 5 h h h h i i j 2 g d i 2 t t t 4 4 f t d t g j d t 4 f 4 i i 2 5 h h h h i i j 1 g d i 1 5 t ",
"f i i f d i i k d i i j k f ( j t j p.k 4 2 4 5 i t t 2 d r d f f d i f d i i x d i i j k f ( j t j p.k 4 2 4 5 i t t 2 d 4 d d ",
"/ j 5 j k f j d r 4 / k f _ k 5 d ( _ x p i h k f f d i f f d j / j 5 j k f j d r 4 / k f _ k 5 d ( _ x p i h k f f d i f f d j "
};
