/* XPM */
static char *xpm_[] = {
/* columns rows colors chars-per-pixel */
"64 64 256 2 ",
"   c #0A1A3D",
".  c #1A1939",
"X  c #0D0C31",
"o  c #241D33",
"O  c #31172B",
"+  c #1C243C",
"@  c #00253D",
"#  c #3E3020",
"$  c #2A293A",
"%  c #372A3A",
"&  c #3B3739",
"*  c #352929",
"=  c #140F14",
"-  c #58381A",
";  c #51102E",
":  c #6B0331",
">  c #78092C",
",  c #453424",
"<  c #4A3726",
"1  c #4D3A2A",
"2  c #4A3729",
"3  c #543E2C",
"4  c #583F2C",
"5  c #553C23",
"6  c #473A38",
"7  c #543B38",
"8  c #4F2735",
"9  c #693536",
"0  c #612212",
"q  c #3E403B",
"w  c #56412E",
"e  c #5A422E",
"r  c #5E4122",
"t  c #5D4431",
"y  c #5E4834",
"u  c #564439",
"i  c #4D4138",
"p  c #614633",
"a  c #644935",
"s  c #694D37",
"d  c #664C39",
"f  c #6A4E39",
"g  c #6D513B",
"h  c #72543D",
"j  c #775739",
"k  c #6A462C",
"l  c #67461E",
"z  c #0B1846",
"x  c #331A48",
"c  c #0E2749",
"v  c #162747",
"b  c #1A3753",
"n  c #0E3753",
"m  c #282A46",
"M  c #283446",
"N  c #373745",
"B  c #253953",
"V  c #342C46",
"C  c #083862",
"Z  c #433946",
"A  c #4F2744",
"S  c #581B5E",
"D  c #1D4259",
"F  c #334554",
"G  c #004968",
"H  c #045A75",
"J  c #0D4E6C",
"K  c #2E4D6A",
"L  c #046377",
"P  c #12606E",
"I  c #356B71",
"U  c #4A4446",
"Y  c #564948",
"T  c #555054",
"R  c #6E5441",
"E  c #625248",
"W  c #745641",
"Q  c #765942",
"!  c #7B5B44",
"~  c #7D5D48",
"^  c #775A48",
"/  c #6B524E",
"(  c #7D614A",
")  c #6F6653",
"_  c #545A68",
"`  c #6A4F75",
"'  c #586476",
"]  c #6B7474",
"[  c #8A3D12",
"{  c #960927",
"}  c #951029",
"|  c #A91528",
" . c #943334",
".. c #AF2D2F",
"X. c #B31811",
"o. c #D62F1A",
"O. c #F0340D",
"+. c #C72C27",
"@. c #C60F14",
"#. c #8A541D",
"$. c #8C4612",
"%. c #835E39",
"&. c #915C26",
"*. c #B64C30",
"=. c #8E6534",
"-. c #B27032",
";. c #B84115",
":. c #D84D1A",
">. c #FF5600",
",. c #FA4714",
"<. c #F25009",
"1. c #D8690D",
"2. c #FC6700",
"3. c #FA7800",
"4. c #EE6800",
"5. c #E85128",
"6. c #ED6D31",
"7. c #CD6E29",
"8. c #A42D55",
"9. c #E2385E",
"0. c #805F4A",
"q. c #815F46",
"w. c #934C4D",
"e. c #B05A4D",
"r. c #83634D",
"t. c #8B6C53",
"y. c #876953",
"u. c #94745A",
"i. c #916D4C",
"p. c #AB6C54",
"a. c #92736D",
"s. c #AF7665",
"d. c #CD7051",
"f. c #E37A51",
"g. c #7C887F",
"h. c #B39E36",
"j. c #FA8901",
"k. c #FF9500",
"l. c #FF9A00",
"z. c #F89709",
"x. c #EF8D0B",
"c. c #C98C3E",
"v. c #F9A522",
"b. c #FFE70A",
"n. c #B08D75",
"m. c #A7B06B",
"M. c #D19243",
"N. c #FE964D",
"B. c #FD9E56",
"V. c #F28851",
"C. c #FEA654",
"Z. c #FFB758",
"A. c #DA8867",
"S. c #CE8F72",
"D. c #F1966D",
"F. c #FFA370",
"G. c #FFC874",
"H. c #071487",
"J. c #3B2E87",
"K. c #1429A0",
"L. c #4E3288",
"P. c #0B5689",
"I. c #32538F",
"U. c #037789",
"Y. c #027C96",
"T. c #0A6A89",
"R. c #34778A",
"E. c #0F70A9",
"W. c #0B55BA",
"Q. c #5D5484",
"!. c #587B95",
"~. c #5963AD",
"^. c #1469CA",
"/. c #5A33CB",
"(. c #93588F",
"). c #997493",
"_. c #CB6B90",
"`. c #028499",
"'. c #148893",
"]. c #2B8894",
"[. c #078DA6",
"{. c #0397A8",
"}. c #039BB5",
"|. c #149CAC",
" X c #3794AC",
".X c #03A4B9",
"XX c #17A9B8",
"oX c #35A6B7",
"OX c #2BABB5",
"+X c #518B94",
"@X c #778991",
"#X c #4B91B1",
"$X c #72ACBB",
"%X c #699FB3",
"&X c #0E94D0",
"*X c #3396C9",
"=X c #00A7C3",
"-X c #00B2CC",
";X c #09B5C7",
":X c #06BDD4",
">X c #17B7CB",
",X c #2EADE5",
"<X c #6B97CF",
"1X c #05C6D9",
"2X c #1AC8D9",
"3X c #15CDD9",
"4X c #30CED6",
"5X c #03D1E8",
"6X c #2AD8E4",
"7X c #32DCE5",
"8X c #1BE9F5",
"9X c #0FF0FA",
"0X c #26F8FB",
"qX c #36FAFC",
"wX c #31E6ED",
"eX c #74D6E4",
"rX c #43FEFE",
"tX c #4AFAFB",
"yX c #58FDFE",
"uX c #45E8EB",
"iX c #67FDFE",
"pX c #7BEEFC",
"aX c #5ED8E1",
"sX c #93898E",
"dX c #B4978D",
"fX c #B3AFB1",
"gX c #ABA395",
"hX c #ECBA98",
"jX c #C8A69A",
"kX c #FBCE92",
"lX c #D0C3B2",
"zX c #F8D0B4",
"xX c #F8E7B5",
"cX c #B5B7C4",
"vX c #8FBBC5",
"bX c #CBB8C5",
"nX c #B0CBCF",
"mX c #B9E9DE",
"MX c #85FAFC",
"NX c #A6FCFD",
"BX c #B9FDFF",
"VX c #B7E3EB",
"CX c #94D5E2",
"ZX c #D4D1D7",
"AX c #F5D6C6",
"SX c #FFEBC9",
"DX c #FFF7C6",
"FX c #FEFCD6",
"GX c #E0F1D5",
"HX c #CAFDFF",
"JX c #D8FBFD",
"KX c #C3E7F1",
"LX c #E9FDFB",
"PX c #FEFFFE",
"IX c #F2FFFF",
"UX c #F8F4E6",
/* pixels */
"~ ~ < f g t p e w a f p e e e 3 g g s t a t f a p e t e p e a s ~ ~ < f g t p t w a f p e e e 3 g g s t a t f a p e t e p e a s ",
"g g f a p t p 3 w e e p p e 3 p g f f p , s t.f r.a p e a 4 g s g g f a p t p 4 w e e p p e 3 p g f f p , s t.f r.a p e a 4 g s ",
"s p s h g , p g s h a 2 g g h e e e t s s f t f s 3 4 4 t 3 f s s p s h g , p g s h a 2 g g h e e e t s a f t f s 3 4 4 t 3 f s ",
"t g h h r.e p f a a ~ 3 j s a p h s f h W f f t g f h g f g y f t g h h r.e p s p a ~ 3 j s a p h s f h W f f t g f h h f g y f ",
"t s p f 4 , e p p 6 v e p t t h h h f a a 4 d p f f h s p p 3 1 t s p f 4 , e p p t w e t t t h h h f a a 4 d p f f h s p p 3 1 ",
"t p 4 t a e t 3 p 6   a f h p p a s M U h p t w a g a a d a t p t p 4 t a e t 3 p e a a f h t p a s 4 Q h p t w a g a a d a t p ",
"g e t W f g g a * K OX$ s g a g g p M   i p p t a g s ~ f t f Q g e t W f g g a < p f f s g a g g p a d j p p t a g s ~ f t f Q ",
"a t h d f g g h * G MXbX+ . o r.1 Q $ fX@X* p g h E M a f d R f a t h d f g g h 4 h h ! Q h f r.1 Q j t 4 p p g g q.W a f d R f ",
"p y u.0.p p t 7 T vXyXBXcXOX.XM o g 6 eXLX` 6 g r.6 X p t t p h p y u.0.p p t a t g f ~ g j W j e g Q Q s 3 g g r.a a p t t p g ",
"p w ~ W e t t 2 (.PXqX0XNXIXJXcXoXD = }.JXPX' Y u.B oXN t t W a p w ~ W e t t t p g f W Q j s h t W W d ( t s Q u.p p t t t W p ",
"a 3 g p f e 7 M $XLX2XrX0XeXHXPXIXnXF .XiXLXZX= N 4XtXc 2 # s ( a 3 g p f e a s t a f h h h h h t f Q p t 3 g f g p t p 1 # s ( ",
"y p f E E f % H iXZXL 6XyX1X1XCXJXPXoX.X0XBXfX@ XXiXuXv y.w W y.y p f t.W f h p e f t f f a Q ( 1 t p f y t f Q p p e t y.w W y.",
"y g h b . t 6 G pXUXU.:X6XyX2X}.1X8XU.OX0XNXnXT..X;X{.X 6 6 N u y g h f e p p t Q f 3 t a t Q p t t 3 r.a f w t 1 ! g W h p t y ",
"W f t $ P F O G yXVX`.qX:X6XyX3X=X=XY.4X5XCXZXH '.+X!.' R.C c i W f t e p 4 1 g s g ~ t y t p a f a f p t y h ! p Q W y y p 1 t ",
"h d t . 4XaX+ G 3X2X'.iXqX1X7XyX2X;X-XwX5XeXvX|.NXLXPXIXyXJ , g h d t e a W t a W g W W t 1 h W W h W a 1 W g d a g a t p 3 , g ",
"p 4 4 o |.HXBX{.L H +XPXiXwX-X7XyXyX:X7X7X}.1XBXVX1XtXuXn u t p p 4 3 e f j p a g f p a t s t.u.y.y.h g 4 h Q y p p p p f a t p ",
"p w j . OXqXBXHX[.G ].PXPXiX8X:X7XyX3X6X2X1XBXKX1XqX4Xn . w h t p 4 j 3 f p f f g s s 4 3 s Q W a d d f 4 f f t t t g f p t h t ",
"e t p o  X8X1XBXBX[.`.yXPXPXyXwX:X6X2X=X=XeXKX}.-X;XL   7 t a , e t p e s p ~ t f g p t t g W t 4 t f t 1 w t e e f f p t t a , ",
"Q s p 3 %  X9X:XBXJX.X-XtXPXPXiX1XY.L {.1X|.L T.U.U.H v v u e t Q s t 3 Q a e < p g t t e g h f t t s 3 4 f g p a f t 4 3 p e t ",
"h g p t 2 % oX8X2XBXKX=X-XiXPXPX].{.uX1XY.{.7XuXOXU.-X.X.Xb w p h g p t 1 p 3 4 3 a t w a t h t t 3 3 e f g g g a i.p g f g t p ",
"e R g t # , D 6X8X6XMX-X-X`.R.+XoXuXrX0XU.'.rXrXwXY.`.5X5X}.B y e R g t # e j g h t 1 a h h 1 1 t p g h g g a 0.f t h a s a ! f ",
"t Q N M $ O @ U.>X:X5X-XU.XXXXH 7XtXMXHX2X>XLXBX0X2XY.{.{.5XH 2 t Q a w 1 a g j a f 4 g a Q p a g g g a h ~ f f 3 g f t e 4 3 e ",
"t e & z L `.`.U.H `.`.[.OXiXiXU.6XqXHXAXdX+X%XCXNX0X2XG n T.C 2 t e t f Q e p p a a p a p s a t p f f p p f 4 4 g f p e 3 4 1 w ",
"f y g u D -X9X1X}.}.Y.U.yX8X5Xg.'.9XLXzXF.hX] Z fXHX7Xz % 6 v & f y g f f s a p e t 3 f e a t ! 3 f f t f f 4 t g t w 4 4 f e w ",
"p t Q f u b Y.Y.{.}.{.`.rX-X+XD.d.].iXLXSXFXDXp.X nXrXc Q W 6 u p t Q f g t g p p 4 t p 4 a t p p p a t t t t w p t 3 t.Q W p a ",
"e t p g e g O c {.U.D +X1X7XV.f.S.K [.mXSXzXFXAXX B oXn d 4 f ~ e t a g e g a j p p g j h < p f W Q g w p g h g g g f Q f 4 f ~ ",
"w t t t i 6 N [.9X=XA V.I 4XS.V.I T.H sXDXSXzXsXM Q . c 3 4 f f w t t t t t e w R W f Q p h s a g ~ Q t g h t t t Q g s 4 4 f f ",
"w t 1 g N . H =X.XE.m F.D.I n.D. .sXoX) S.GXgXX + w t B u 4 a f w t 1 g p t t < ! a t p j g e e t p t f h t p t t t t W d 4 a f ",
"t t , t f 3 F J m O T s.a.w.A.D. .jXPXoXH nXjXz D B y ^ d y 3 f t w , t f e g h a t p t f p p p e p s w Q t d p t a f ^ d t 3 f ",
"4 3 3 p e & J &XQ.5.f.B v w.d.A.A.d.zXaXeXLXa.m *XE.  p w < 4 e 4 1 3 p t t e s f p e 3 a 3 t t 1 4 f f f f t t f 2 s p t < 4 e ",
"a y t a y & K K.W.!.5.V.5.d.w.d.D.A.zXFXFX@X0 +.^. Xv 2 p 4 p p a t t a p t t g p t t f g p Q f e f u.g 3 1 3 4 t e e 1 p 3 p p ",
"W f 4 f % @XkXa.W.W.!.,.N.D.A.w.p.kXSXFX@XO O. .~.FXlXc p a p f W f 4 f g a f p w 3 W g a ! g 4 p Q ~ h y t f g a a p t a a p f ",
"~ ~ < f V Z  .S.mX^.J.,.C.%X#XA.*.w.e.w.p.d.O. .~.FXDXs.c 3 d d ~ ~ 2 f g t p t w a f p e e e 3 g g s t a t f a p e t e p e a s ",
"g f f % ] lXe.> p.I.L.,.<.e.#X@X] _ _ ' #Xn.;.N w.u.w.e.s.N + + . y f a p t p 4 w e e p p e 3 p g f f p , s t.f r.a p e a 4 g s ",
"s p s . jXPXzXdXA.*.v 8 0 0 & q U U U K _ :. .b W d.e. .B.Q.H.sXfXF o u g , p g s h a 2 g g h e e e t s a f t f s 3 4 4 t 3 f s ",
"t g h v K n.xXPXFX~.I.@X] ) j %.p.u.t.9 0 0 7 u U y./ Z Q./.(.hXFXdXa.] r.e p f p a ~ 3 j s a p h s f h W f f t g f h g f g y f ",
"t s p U $ o y.sX<X,XnXjXi.%.M.-.v.G.j.1.=.- l k j Z Z N H.H.D.B.D.V.xXfXw , e p p t w e t t t h h h f a a 4 d p f f h s p p 3 1 ",
"t p 4 t a 3 $ . H.%XxXn.%.v.v.Z.k.k.l.3.1.%.- 2 y j f s i 6 T ^ dXhXFXgXa e t 4 p e a a f h t p a s 4 Q h p t w a g a a d a t p ",
"g e t W f g h p * 6 gXn.%.M.v.2.k.l.2.3.4.7.l - , i Z Y u 7 6 X dXDXlX_ f h h a < p f f s g a g g p a d j p p t a g s ~ f t f Q ",
"a t h s f g g h e %.m ( &.xXz.>.j.l.>.2.4.1.#.#.[ U T T T 8 Y N / d.N 6 f g g h 4 h h ! Q h f r.1 Q j t 4 p p g g q.W a f d W f ",
"p y u.0.p p t s a E u e j kXk.l.k.k.l.j.4.1.#.&.&.M.C.C.C.6.V g & v ) 0.p p t a t g f ~ g j W j e g Q Q s 3 g g r.a a p t t p g ",
"p w ~ W e t t p 6 T M.&.- z.k.3.k.l.3.3.4.1.#.&.-.V.B.C.C.Z.F u p w ~ W e t t t p g f h Q j s h t W W d ( t s Q u.p p t t t W p ",
"a 3 g p f e a f 6 T 6.[ #.z.j.>.k.l.>.2.<.c.#.-.f.N.B.N.N.N.Z E a 3 g p f e a s t a f h h h h h t f Q p t 3 g f g p t p 1 # s ( ",
"y p f t.W f h a 6 Z :.-.#.c.j.k.k.l.k.4.1.$.$.;.6.Z.N.:.:.:.{ m 6 p f t.W f h p e f t f f a Q ( 1 t p f y t f Q p p e t y.w W y.",
"y g h f e p p p Y % 5.M.&.#.c.x.x.l.x.7.[ $.-.V.C.V.o.o.o.o.{ o.7 U h f e p p t Q f 3 t a t Q p t t 3 r.a f w t 1 ! g W h p t y ",
"W f t e p 4 3 Y m { 5.B.c.&.[ $.j j l - < 1 Y T Y | { { { +.{ o.9 U t e p 4 1 g s g ~ t y t p a f a f p t y h ! d Q W y y p 1 t ",
"h d t e a W & 7 ..{ :.5.:.:.-.e 5 - r r 5 g g U % O.+.: : > +.O.7 Z t e a W t a W g W W t 1 h W W h W a 1 W g d a g a t p 3 , g ",
"p 4 3 e f h N 9 o.} ,.o.{ |  .V h j j j k j q.a Z 9 @.o.o.o.O.9 N 7 4 t f h p a g f p a t s t.u.y.y.h g 4 h Q y p p p p f a t p ",
"p 4 j 3 f p N 9 +.: | | : > | N y j j j p j h p p V x ` ` +. .M t 4 j 3 f p f f g s s 4 3 s Q W a d d f 4 f f t t t g f p t h t ",
"e t p e s p F 9 O.} : : | +.,.Z 6 s h p 3 e p e t d C K.J.A M , e t p e s p ~ t f g p t t g W t 4 t f t 1 w t e e f f p t t a , ",
"Q s p 3 Q a 6 V *.O.@.@.,.,. .N u a f e e f g a d d z K.| $ 7 t Q s p 3 Q a e < p g t t e g h f t t s 3 4 f g a a f t 4 3 p e t ",
"h g p t 1 p 3 1 O 5.a.a. .9 N p t 3 3 e s g g g u F R.m.A V w p h g p t 1 p 3 4 3 a t w a t h t t 3 3 e f g g g a i.p g f g t p ",
"t R g t # e d F S 9.,XE.B N 1 1 t p g h h g a 0.6 P.$Xz.n a ! f e R g t # e j g h t 1 a h h 1 1 t p g h h g a 0.f t h a s a ! f ",
"t Q a w 1 a 6 P m.f.P.$ a Q p a g g g a h ~ f f 2 D #X8.A & 1 e t Q a w 1 a g j a f 4 g a Q p a g g g a h ~ f f 3 g f t e 4 3 e ",
"t e t f Q t B ) b.h.m a p s a t p f f p p f 4 4 g E oX*X9.A & w t e t f Q e y p a a p a p s a t p f f p p f 4 4 g f t e 3 4 1 w ",
"f y g f f & P.).8.c 3 f e a t ! 3 f f t f s 4 t g t u #X9.A 6 w f y g f f s a y e t 3 f e a t ! 3 f f t f f 4 t g t w 4 4 f e w ",
"p t Q f g 6  ._.E.+ t p 4 a t p p p a t t t t w p t 3 t.! W p a p t Q f g t g p p 4 t p 4 a t p p p a t t t t w p t 3 t.Q W p a ",
"e t a g e ..(.E.M p g j h < p f W Q g w p g h g g g f ! f 4 f ~ e t a g e g a j p p g j h < p f W Q g w p g h g g g f ! f 4 f ~ ",
"w t t t t 6 b M R j f Q p h s a g ~ Q t g h t t t Q g s 4 4 f f w t t t t t e e R j f Q p h s a g ~ Q t g h t t t Q g s 4 4 f f ",
"w t 1 g p t t < ! a t p j g e e t p t f h t p t t t t W d 4 a f w t 1 g p t t < ! a t p j g e e t p t f h t p t t t t W d 4 a f ",
"t w , t f e g h a t p t f p p p e p s w Q t d p t a f ^ d t 3 f t w , t f e g h a t p t f p p p e p s w Q t d p t a f ^ d t 3 f ",
"4 1 3 p e t e s f p t 3 a 4 t t 1 4 f f f f t t f 2 s p t < 3 e 4 1 3 p e t e s f p t 3 a 4 t t 1 4 f f f f t t f 2 s p t < 3 e ",
"a t t a p t t g p t t f g a Q f e f u.g 3 1 3 4 t e e 1 p 3 p p a t t a p t t g p t t f g a Q f e f u.g 3 1 3 4 t e e 1 p 3 p p ",
"W f 4 f g a f p w 3 W g a ~ g 4 p Q ~ h y t f g a a p t a a p f W f 4 f g a f p w 3 W g a ~ g 4 p Q ~ h y t f g a a p t a a p f "
};
