/* XPM */
static char *xpm_[] = {
/* columns rows colors chars-per-pixel */
"64 64 254 2 ",
"   c #040206",
".  c #050416",
"X  c #120D1B",
"o  c #1A131A",
"O  c #15100C",
"+  c #261919",
"@  c #2C0B15",
"#  c #382316",
"$  c #030727",
"%  c #181528",
"&  c #0A1639",
"*  c #1C1C33",
"=  c #161A37",
"-  c #180D2D",
";  c #281B29",
":  c #331A31",
">  c #18253A",
",  c #102536",
"<  c #2B232A",
"1  c #372828",
"2  c #3D3326",
"3  c #292735",
"4  c #362B33",
"5  c #393337",
"6  c #48130D",
"7  c #710510",
"8  c #5B3B18",
"9  c #4C2C12",
"0  c #623D13",
"q  c #66320F",
"w  c #541825",
"e  c #591938",
"r  c #4A102D",
"t  c #681833",
"y  c #69132B",
"u  c #462929",
"i  c #4A3726",
"p  c #4D3A2A",
"a  c #473527",
"s  c #543E2C",
"d  c #593F2C",
"f  c #583C22",
"g  c #4B3933",
"h  c #453836",
"j  c #523E34",
"k  c #4D2834",
"l  c #71282E",
"z  c #65421A",
"x  c #70491E",
"c  c #56402E",
"v  c #5A422E",
"b  c #5E4021",
"n  c #5D4431",
"m  c #594536",
"M  c #654729",
"N  c #755229",
"B  c #614633",
"V  c #644935",
"C  c #694D36",
"Z  c #664C38",
"A  c #6A4E39",
"S  c #614738",
"D  c #6D513B",
"F  c #72543D",
"G  c #785739",
"H  c #081447",
"J  c #2F0F49",
"K  c #1A2850",
"L  c #363547",
"P  c #2F334F",
"I  c #102E6A",
"U  c #212269",
"Y  c #4F2B4F",
"T  c #6A364F",
"R  c #5B1760",
"E  c #3E4258",
"W  c #34496A",
"Q  c #4F4A55",
"!  c #6E5442",
"~  c #635147",
"^  c #745641",
"/  c #765942",
"(  c #7B5B44",
")  c #7D5D48",
"_  c #775849",
"`  c #724E54",
"'  c #7D614A",
"]  c #736459",
"[  c #464B67",
"{  c #4F5677",
"}  c #735368",
"|  c #6E6A71",
" . c #5E636C",
".. c #9B1817",
"X. c #910D08",
"o. c #AA1509",
"O. c #8F340A",
"+. c #B12404",
"@. c #891724",
"#. c #983837",
"$. c #8C2D28",
"%. c #A52C22",
"&. c #D70900",
"*. c #C91A05",
"=. c #D41903",
"-. c #C90602",
";. c #F21700",
":. c #D63411",
">. c #F32A0A",
",. c #F73033",
"<. c #E52D34",
"1. c #8E5015",
"2. c #855431",
"3. c #A9493B",
"4. c #906227",
"5. c #AD7036",
"6. c #DC4A1B",
"7. c #D95A03",
"8. c #FE5501",
"9. c #F2530D",
"0. c #D66A11",
"q. c #FC6700",
"w. c #FA7800",
"e. c #F5690B",
"r. c #EF5D22",
"t. c #C97C2D",
"y. c #FB7727",
"u. c #EF6729",
"i. c #C2482D",
"p. c #8E3E41",
"a. c #D42C68",
"s. c #F91F52",
"d. c #805F49",
"f. c #8C4E54",
"g. c #A84843",
"h. c #B1584B",
"j. c #84654B",
"k. c #896A53",
"l. c #93735B",
"z. c #976C53",
"x. c #B27153",
"c. c #945F62",
"v. c #85716D",
"b. c #BF7668",
"n. c #A04370",
"m. c #CD4F4F",
"M. c #CD7051",
"N. c #CC7866",
"B. c #F16C50",
"V. c #B98937",
"C. c #FC8800",
"Z. c #FF9500",
"A. c #FF9A00",
"S. c #FF9A0F",
"D. c #ED8E08",
"F. c #FA953B",
"G. c #F88B34",
"H. c #FDAA33",
"J. c #D68D25",
"K. c #F7D422",
"L. c #FCD11C",
"P. c #AA8452",
"I. c #958B7B",
"U. c #CF964A",
"Y. c #F1924B",
"T. c #FDA748",
"R. c #FEB952",
"E. c #F6B74C",
"W. c #D39374",
"Q. c #E88E6E",
"!. c #FEC555",
"~. c #F9CC74",
"^. c #1D219F",
"/. c #3A4E8F",
"(. c #005EB6",
"). c #59689A",
"_. c #5B709E",
"`. c #616A8B",
"'. c #707997",
"]. c #586CA5",
"[. c #5570AF",
"{. c #6777A8",
"}. c #6779AD",
"|. c #6155A7",
" X c #052ED2",
".X c #0015C1",
"XX c #1361E9",
"oX c #4D7CC1",
"OX c #6D65D3",
"+X c #8B6E8E",
"@X c #8361CC",
"#X c #798690",
"$X c #778AB6",
"%X c #7B94BB",
"&X c #7184B1",
"*X c #3CBAFF",
"=X c #7590C6",
"-X c #5C97EA",
";X c #8C8C99",
":X c #AA918B",
">X c #8B92B2",
",X c #9BA3B2",
"<X c #B1B4BD",
"1X c #A293A8",
"2X c #D19889",
"3X c #E29A8E",
"4X c #D3A697",
"5X c #ECAE90",
"6X c #EBB8AF",
"7X c #CEB1AF",
"8X c #F8CA95",
"9X c #E8D3BB",
"0X c #FCD9B4",
"qX c #F0C9AE",
"wX c #FCE7BB",
"eX c #F6E2B5",
"rX c #E3D5A0",
"tX c #849AC9",
"yX c #8B95CA",
"uX c #94AAD3",
"iX c #90A7D6",
"pX c #91A9CD",
"aX c #B6B9C3",
"sX c #A6B8D9",
"dX c #AAB4D2",
"fX c #A4BBE4",
"gX c #9DA1EB",
"hX c #D0BFC8",
"jX c #B3C3D9",
"kX c #B8C8E4",
"lX c #ACC8F1",
"zX c #BAD5FA",
"xX c #B4CBEC",
"cX c #C5CBD9",
"vX c #D6D5D3",
"bX c #F2D6C6",
"nX c #FEEBC3",
"mX c #F9E4C5",
"MX c #FEFCD8",
"NX c #FAF0D0",
"BX c #CAD6E9",
"VX c #D6DDE8",
"CX c #CBDDF9",
"ZX c #C9D4E8",
"AX c #DAE4EE",
"SX c #D9E7FA",
"DX c #D0EBFF",
"FX c #FDFBE5",
"GX c #E4ECF5",
"HX c #EBF2F8",
"JX c #F4FCFE",
"KX c #FEFFFF",
"LX c #F5F8F8",
"PX c #EBE9ED",
/* pixels */
") ) i A D n B v c V A B v v v s D D C n V n A V B v n v B v V C ) ) p A D n B n c V A B v v v s F F C n V n A V B v n v B v V C ",
"D D A V B n B s c v v B B v s B D A A B a C k.A ' B B v V d D C D A C V B v B s c v v B B v s B D A A B a C k.A j.V B v V d D C ",
"C B C F D a B D C F V i D D m * * 3 * * h A n A C s d d n s A C C B C F D a B D C F V i D D F v v v n C V A n A C s d d n s A C ",
"n D F F j.v B A B V ) s F C B h * aXVXVX| X 4 n D A F D A D n A v D F F j.v B C B V ) s F C V B F C A F ^ A A n D A F F A D n A ",
"n C B A d a v B B n c v n n n F V Q JXKXAXvX,Xo A A F C g X % % % % % n d a v B B n c v n n n F F F A V V d Z B A A F C B B s p ",
"n B d n V v n s B v V V A F n B V s L cXGXSXKX,X4 Z V 2 Q jX_.&XaXaXVX[ X 4 n s B v V V A F n B V C d / F B n c V D V V Z V n B ",
"D v n ^ A D D V i B h j C D V D D B O <XCXsXKXHX. D i Q jXJXJXJXKXKX<X5 4 m D V i B A A C D V D D B V V F B B n V D C ) A n A / ",
"V n F Z A D D F d F * h / F D j.p F % aXSXuXAXGX{ g % ].=X{.,XdXKX>X< Z A D D F d F F ( / F A j.p / F n d B B D D d.^ V A Z ! C ",
"B n l.d.B B n V n D 3 4 A F ^ ^ v D % aXSX=XuXSXDXK ).tX{.{./.$X<X% l.! s B n V n D Z ) D F ^ F v D / / C s D D j.V V B n n B D ",
"B c ) ^ v n n n B D 4 P h D C F n ^ % aXSXtXuXkXcX}.ZXKXJXZXSXVX  c ) $ < n n n B D A F / F C F n ^ ^ Z ' n C / l.B B n n n ^ B ",
"V s D n S d B V n B o $X'.; D F n Z X aXSXtXkXcX_.VXJXLXkXsXKXaX% s A 3 5 v V C n V A F F F F F n A / B n s D A D B n B p 2 C ' ",
"n B A 5 * * * * * * . '.CX`.; ' p * . aXDXkXcX_.BXLXGXHXkXzXaX; n B o cX>X< F B v A n A A V / ' p n B A n n A / B B v n k.c ^ k.",
"n D F m p ; E GXvXcXvX{.=XzX`.O X aXvXdXkXHXAXZXHXsXVXkXsXJX,X  o o ,XKX;X+ B n / A s n V n / B n n s j.V A c n p ( D ^ F B n n ",
"^ A n v B d 4 '.SXKXKXAX).=XiXW aXKXKXsXsXLXHXKXHXpXAXjXsXKXZX{.&X{.GXKX'.+ p D C D ) n m n B V A V A B n n F ( B / ^ n n B p n ",
"F Z n v g m n < { CXJXKXcX].}.BXKXCXBXuXkXKXJXBXkXuXkXfXBXJXsXlXzXCXHXKX>X+ n V ^ D ^ ^ n p F ^ ^ F ^ V p ^ D Z V D V n B s a D ",
"B d d n 4 % p V 2 [ xXJXKXZX>XJXCX}.).$XZXBX$X[.uXuX}.].&XdXkX=X}.JXJXaXQ g B V D A B V n C k.l.k.k.F D d F / n B B B B A V n B ",
"B v F s 5 P [ j V 1 [ kXGXGXSXtX}.}.{.dXsX}._.}.$XkXpX{._.&XBXsX{.dX$X* s B A Z D C C d s C / ^ V Z Z A d A A n n n D A B n F n ",
"v n B v u { pXP P Z + { fXuXuX%X_.GXKXKX$X}.KXAX{.jXHXJXKXdX{.HXKX{.K a C B ) n A D B n n D ^ n d n A n p c n v v A A B n n V a ",
"/ C B s / a P lXfXK   P tXxX&X{.HXHXGXKX>X&XKXHXGX).&XSXJXKXdX_.JXsXfXE h V v i B D n n v D F A n n C s d A D V V A n d s B v n ",
"F D B n p n 1 [ lXpX>XtXuXfX&X{.JXHXsXlX[.%XKXHXHXVX}.&XCXKXHXdX{.fXzXlX{ 1 s d s V n c V n F n n s s v A D D D V z.B D A D n B ",
"v ! D n 2 v F g E lXzXlXsXxX$X_.KXHXfX+Xg.| =XkXLXKX}.[.zXCXKXVX/.E P { P % 5 D F n p V F F p p n B D F F D V d.A n F V C V ( A ",
"n / V c p V A F p L ).}.&X=X=XtXtXJXlXf.+.#.{ &XZXJX:XQ P #XKXjXK h u 1 1 h j F V A d D V / B V D D D V F ) A A s D A n v d s v ",
"n v n A / g 3 3 h `.%XiX{ $ W yXY $XDX0X8XQ...} [.zXN.6 o 1 aXHX. v n A / v B B V V B V B C V n B A A B B A d d D Z B v s d p c ",
"A n D A C m 4 < * `.tXfXP @ k K T Y >XjXdX7XQ.%.} oX7X_ < A L '.% m D A A C V B v n s A v V n ( s A A n Z Z d n D n c d d A v c ",
"B n / A D n D B 3 o K ].I l 3.; T M.'./.I $X9XN.i.Y FX:X; ^ n X * j / A D n D B B d n B d V n B B B V n n n n c B n s k./ ^ B V ",
"v n B D v D V F B B 2 [ I k B.g.T mXFXf.] %X}.9Xf.h.qX| 1 d C ^ 3 c V D v D V F B B D F F i B A ^ / D c B F F D D D A ( A d A ) ",
"c n n n n n v v ! F A 4 $ k h.p.T LXKXf.:XKXdX/.].MX] a d s A A c n n n n n v v ! F A / B F C V D ) / n D F n n n / D C d d A A ",
"c n p D B n n i ( V 4 * % * % ; T LXKXmX0XFX,XE GXFXQ g Z s V A c n p D B n n i ( V n B F D v v n B n Z F n B n n n n ^ Z d V A ",
"n d a n A v D F Z % :XPXh.c.4Xl #.} HXFX0XmX9X9XMXQ $ = * X % 4 n c a n A v D F V n B n A B B B v B C c / n Z B n V Z _ V n s A ",
"s p s B v n v C 3 t m.N.5X0XFXFXbX@.T JXKXnXMXMXf.l l 7 z.AX;X  d p s B n n v C A B v s V s n n p d Z Z Z Z n n A p C B n i d v ",
"V n n V B v 1 1 Y Q.4Xg.5XKXbXbXKX6X7 } 1X:X:Xc.7 %.3X4XQ.qXKX .4 n n V B n n D B n n A D V / A v A l.D s p s d n v v p B s B B ",
"^ A c D S Q #X] f.FXKX5XM.qXM.%.wXKXqXc.T r t +X4XN.NXKXqXM.NXKX. A d A D V A B c s ^ D V ) D d B / ) F n n Z D V V B n V V B A ",
") ) p F < v.MXwX` cXhXx.$.l #.W.nX0XKXKX:Xt 5XKXKXMX0XnXMXQ.h.7X4 ~ i A D n B n c V A B v v v s D D C n V n A V B v n v B v V C ",
"D D D A p w x.7X} T # + 1 + ] FXnXnXnXeXc.f.nXnXnXnXNXmXb.#.x.h.h.: h V B n B d c v v B B v s B D A A B a C k.A j.V B v V d D C ",
"C V D G G 9 5 _.`.k 9 9 b f ~ eX0X0XwXN.g.g.b.0X0X0XnXQ.6 Q MXqXg.` L m A a B D C F V i D D F v v v n C V A n A C s d d n s A C ",
"v F G G 2.9 a  .` 9 N k.M 9 # g T h.#.6XKXKX5X3.3.g.#.6Xv.L FX0Xg.PXMXQ h v B A B V ) s F C V B F C A F ^ A A n D A F D A D n A ",
"B A C G 8 9 8 V.x.H.~.C.0.P.B 9 J.F.5XKXbXh.N.5XqX9XY.!.x.$ W ~ i.nXKX| + a v B B n c v n n n F F F A V V d Z B A A F C B B s p ",
"B C M M z 8 J.H.R.Z.Z.A.w.0.P.9 N G !.Y.%.g.vXMXy.B.x.6 ] :X  $ >XdX'.h j d n s B v V V A F n B V C d / F B n c V D V V Z V n B ",
"F B C G z z V.H.q.Z.A.q.w.9.t.9 9 + ;X>.;.~.eX~.n.7   { 4X5XW.%X*X-XH S A D D V i B A A C D V D D B V V F B B n V D C ) A n A / ",
"C B 2.N z z 0XS.8.C.A.8.q.e.7.x 8 # XXR %.z.1.f.XXI . I.3X2XMX3X|.[.L m A A A F d F F ( / F A j.p / F n d B B D D d.^ V A Z ^ A ",
"V C l.2.0 0 8XZ.A.Z.Z.A.C.e.7.N z f r ^. X X X.XJ w %    .KX3Xh.Q.+ k.d.B B n V n D Z ) D F ^ F v D / / C s D D j.V V B n n B D ",
"C B j.G 8 0 S.Z.w.Z.A.w.w.e.0.q 9 5.9.+X-XgX-XyX>.;.l < | 2Xx.FX9X4 ! ^ v n n n B D A F / F C F n ^ ^ Z ' n C / l.B B n n n ^ B ",
"A v G N z 0 D.C.8.Z.A.8.q.7.5.O.O.+.F.$.h.y.=.T.T.=.r.!.5.. | qX% s D B A v V C n V A F F F F F n A / B n s D A D B n B p 2 C ' ",
"V C G j.M 0 V.D.Z.Z.A.Z.e.0.1.4.t.F.R.l 3.y.=.T.T.T.:.r.!.5.& 5 n B A k.^ A F B v A n A A V / ' p n B A n n A / B B v n k.c ^ k.",
"B G G G M 8 0 5.D.D.A.D.t.1.4.5.Y.R.!.l h.y.*.T.T.T.G.G.R.y.7 $ * D F Z v B B B / A s n V n / B n n s j.V A c n p ( D ^ F B n n ",
"/ D V M C z 8 z z 2.N N O.O.V.U.E.:.:.y x.G.*.R.R.R.!.T.Y.T.F.U.U.* n v B d p D C D ) n m n B V A V A B n n F ( Z / ^ n n B p n ",
"F C B B D G M M 8 N N j.2.+.E.T.6.r.;.7 ` 6.;.r.r.r.:.G.!.Y.r.8.y.x.5 g V ^ n V ^ D ^ ^ n p F ^ ^ F ^ V p ^ D Z V D V n B s a D ",
"V v d B G G C v q 6 G I.5.0.T.6.6.P.%.w - r ..7 X.&.:.6.G.u.-.i.X.x.h p A F B V D A B V n C k.l.k.k.F D d F / n B B B B A V n B ",
"B v G s D A Z 1 +.o.x.7X~.H.9.9.F.* = 3 < 3 > > > X.y.r.u.y.Q.FXr @ m s A B A C D C C d s C / ^ V Z Z A d A A n n n D A B n F n ",
"v n B v A V ^ 4 t e o.8.E.6.+.Y.o.: Z n p c n v v , 7 r.T.u.Q.4Xy =.w h C B ) n A D B n n D ^ n d n A n p c n v v A A B n n V a ",
"/ C B s ( C s 1 *.t ..=.=...e e = n C s d A D V V > : o.=.*.=.o.e *.r 2 / V c i B D n n v D F A n n C s d A D V V A n d s B v n ",
"F D B n p B a : =.y e y y r @.o.& s s v A D D D B > o...r y y r e =.w h p n p d s V n c V n F n n s s v A D D D V z.B D A D n B ",
"v ! D n 2 v Z : ;.t J r J @.&.7 = m D F F D V d.A = y =...J J t *.@.: h 2 v F D F n p V F F p p n B D F F D V d.A n D V C V ( A ",
"n / V c p V S = U +.=.*.=.o.w - j A D V F ) A A s j = r ..&.o.X.X.: 5 s p V D F V A d D V / B V D D D V F ) A A s D Z n v d s v ",
"n v n A F v j * R t @.X...w 5 h B A A B B A d d D C g 3 1 #.m.<./.> c A F v B B V V B V B C V n B A A B B A d d D Z n v s d p c ",
"A n D A C C B w ,..XI , 3 g n ( s A A n Z Z d n D n d d 1 (.gXs.*XK n A C C V B v n s A v V n ( s A A n Z Z d n D n c d d A v c ",
"B n / D D n h J s.U K s d V n B B B V n n n n c B n s k.m W |.a.@XH D A D n D B B d n B d V n B B B V n n n n c B n s k./ ^ B V ",
"v n V D v g H ^.,.u m F F i B A ^ / D c B D F D D D D ( A i H ^.,.a m A v D V F B B D F F i B A ^ / D c B D F D D D D ( A d A ) ",
"c n n n n 4 5 K.K.4 j / B F C V D ) / n D F n n n / D C d d h h K.L.2 g n n v v ! F A / B F C V D ) / n D F n n n / D C d d A A ",
"c n p D n 4 e ,.5 m n B F D v v n B n Z F n B n n n n ^ Z d V m 5 ,.e h n n n i ( V n B F D v v n B n Z F n B n n n n ^ Z d V A ",
"n c a n h y a.OX& n B n A B B B v B C c / n Z B n V Z _ V n s n & OXa.w h v D F V n B n A B B B v B C c / n Z B n V Z _ V n s A ",
"d p s B v n v C A B v s V d n n p d Z Z Z Z n n A p C B n i d v d p s B v n v C A B v s V d n n p d Z Z Z Z n n A p C B n i d v ",
"B n n V B n n D B n n A D V / A v A l.D s p s d n v v p B s B B V n n V B n n D B n n A D V / A v A l.D s p s d n v v p B s B B ",
"^ A d A D V A B c s ^ D V ) D d B / ) F n n Z D V V B n V V B A ^ A c D D V A B c s ^ D V ) D d B / ) F n n Z D V V B n V V B A "
};
