/* XPM */
static char *xpm_[] = {
/* columns rows colors chars-per-pixel */
"64 64 256 2 ",
"   c #020114",
".  c #151C3A",
"X  c #0F092E",
"o  c #2C0B36",
"O  c #192339",
"+  c #3F3021",
"@  c #2A2638",
"#  c #39353A",
"$  c #362830",
"%  c #300417",
"&  c #7E0618",
"*  c #583917",
"=  c #4C2C19",
"-  c #633D14",
";  c #6C3610",
":  c #4F1533",
">  c #7B002D",
",  c #680030",
"<  c #463424",
"1  c #4A3726",
"2  c #4C3926",
"3  c #4E3A2A",
"4  c #48352B",
"5  c #543E2C",
"6  c #583F2C",
"7  c #573B22",
"8  c #4B3B36",
"9  c #443836",
"0  c #4F2F33",
"q  c #733034",
"w  c #66431B",
"e  c #724B1D",
"r  c #56402E",
"t  c #5A422E",
"y  c #5A4823",
"u  c #5D4431",
"i  c #5E4834",
"p  c #574439",
"a  c #48413F",
"s  c #6C4C2B",
"d  c #66472A",
"f  c #734B24",
"g  c #614633",
"h  c #644935",
"j  c #694D36",
"k  c #664C38",
"l  c #6A4E39",
"z  c #6C4F3A",
"x  c #6A4E39",
"c  c #6D513A",
"v  c #6F513C",
"b  c #6D513B",
"n  c #6E5034",
"m  c #735234",
"M  c #72543E",
"N  c #72543D",
"B  c #79583A",
"V  c #6F532E",
"C  c #544713",
"Z  c #0B164A",
"A  c #300F47",
"S  c #152949",
"D  c #1C314C",
"F  c #0B3556",
"G  c #1A3957",
"H  c #062A4E",
"J  c #272C44",
"K  c #2A3447",
"L  c #383845",
"P  c #293353",
"I  c #0F3272",
"U  c #132367",
"Y  c #4B384C",
"T  c #52376B",
"R  c #641E57",
"E  c #384652",
"W  c #094869",
"Q  c #0D5671",
"!  c #2D566E",
"~  c #006579",
"^  c #11727E",
"/  c #346D79",
"(  c #4F474D",
")  c #6C5442",
"_  c #745641",
"`  c #765943",
"'  c #7B5B43",
"]  c #7D5D48",
"[  c #765B49",
"{  c #67504F",
"}  c #7D614A",
"|  c #53536C",
" . c #516C71",
".. c #6C6E72",
"X. c #645E75",
"o. c #B30708",
"O. c #8D3728",
"+. c #A42220",
"@. c #D4100C",
"#. c #F62E0D",
"$. c #CE342A",
"%. c #CD3018",
"&. c #8A4B19",
"*. c #96542B",
"=. c #906A35",
"-. c #B17638",
";. c #A74D27",
":. c #DB4F10",
">. c #FF5801",
",. c #F35506",
"<. c #D4690D",
"1. c #EE6800",
"2. c #FC6700",
"3. c #FA7800",
"4. c #FF651B",
"5. c #CB4B32",
"6. c #F05925",
"7. c #D37034",
"8. c #F87034",
"9. c #843F49",
"0. c #825D48",
"q. c #914C4D",
"w. c #83634C",
"e. c #8C6A4F",
"r. c #896A53",
"t. c #916A53",
"y. c #93735A",
"u. c #9B7A4E",
"i. c #AA7153",
"p. c #8E5E6D",
"a. c #936D6C",
"s. c #B76B5C",
"d. c #CD7555",
"f. c #EA734A",
"g. c #C27260",
"h. c #CA5F4D",
"j. c #73877D",
"k. c #BE873C",
"l. c #FC8800",
"z. c #FF9500",
"x. c #FF9A00",
"c. c #FF9A0F",
"v. c #EB8F0C",
"b. c #C89339",
"n. c #FE9035",
"m. c #FFAB2F",
"M. c #B88A48",
"N. c #968A6B",
"B. c #AD897A",
"V. c #D1894B",
"C. c #FE9853",
"Z. c #FB914E",
"A. c #FEA656",
"S. c #FFB957",
"D. c #F1A84D",
"F. c #D58465",
"G. c #E89A78",
"H. c #F49A6F",
"J. c #F4A075",
"K. c #FFC85C",
"L. c #EEC777",
"P. c #0D30B3",
"I. c #143291",
"U. c #561980",
"Y. c #026C83",
"T. c #007488",
"R. c #017B92",
"E. c #136F85",
"W. c #2C6F8A",
"Q. c #0053BC",
"!. c #1445B8",
"~. c #176DB9",
"^. c #1B549B",
"/. c #4A538C",
"(. c #6C5287",
"). c #536F8E",
"_. c #637B93",
"`. c #004EC7",
"'. c #0072D9",
"]. c #2F74CA",
"[. c #077CFF",
"{. c #866B8F",
"}. c #028699",
"|. c #138D98",
" X c #2F8395",
".X c #0389A6",
"XX c #0298B2",
"oX c #0897A8",
"OX c #2E99A7",
"+X c #03A4BB",
"@X c #19ADB9",
"#X c #30AAB7",
"$X c #688388",
"%X c #5492A9",
"&X c #7299A5",
"*X c #54A6B3",
"=X c #51919B",
"-X c #03A7C4",
";X c #02B5CC",
":X c #06BCD3",
">X c #17B3CD",
",X c #2FB4C5",
"<X c #3498F0",
"1X c #45BACA",
"2X c #588DC6",
"3X c #04C7DB",
"4X c #17C9D7",
"5X c #34CDD3",
"6X c #04C6E2",
"7X c #03D5E8",
"8X c #0CD8ED",
"9X c #36DAE4",
"0X c #29D6E3",
"qX c #10E8F3",
"wX c #37E4EC",
"eX c #36FBFC",
"rX c #2CEDF4",
"tX c #46D8DD",
"yX c #47FDFD",
"uX c #59FEFE",
"iX c #4CEAF1",
"pX c #64FCFD",
"aX c #79FBFD",
"sX c #66E8ED",
"dX c #76D6E0",
"fX c #90948E",
"gX c #B5978D",
"hX c #A4B4A6",
"jX c #CFA488",
"kX c #FCB592",
"lX c #C4B8B4",
"zX c #CD9C87",
"xX c #B5C0B1",
"cX c #FFCD92",
"vX c #CECBB3",
"bX c #F9D0AE",
"nX c #FCE3B4",
"mX c #A3BDE7",
"MX c #AFCAD0",
"NX c #9BDDEB",
"BX c #89FFFF",
"VX c #8CF4F6",
"CX c #A7F2F5",
"ZX c #FFF3C9",
"AX c #FFFDD8",
"SX c #FAE9C8",
"DX c #CCDFE9",
"FX c #C4FCFE",
"GX c #D7FDFE",
"HX c #CCE9EC",
"JX c #FFFFE7",
"KX c #EAFFFF",
"LX c #FEFFFF",
"PX c #F6FEFC",
"IX c #EDF1F1",
"UX c #D0D3CE",
/* pixels */
"] ] 2 z c u g u r h l g t t t 5 c v j u h u z h g t u t g t h j ] ] 2 z c u g u r h l g t t t 5 c v j u h u z h g t u t g t h j ",
"c c l h g u g 5 r t t g g t 5 g c l l g < j t.z w.h g t h 5 c j c c l h g u g 5 r t t g g t 5 g c l l g < j t.z w.h g t h 5 c j ",
"j g j N c < g c j N h 1 v c N t t t u j h l u l j 5 5 5 u 5 l j j g j N c < g c j N h 1 v c N t t t u j h l u l j 5 5 5 u 5 l j ",
"u c N N w.t g l g h ] 5 M j h g N j z N _ z l u c l N v l c i l u c N N w.t g l g h ] 5 M j h g N j z N _ l l u c l N N l c i l ",
"u j g l 5 < t g g u r t u u u N N N l h h 6 k g z z N j g g 5 3 u j g l 5 < t g g u r t u u u N N M l h h 6 k g z z N j g g 5 3 ",
"u g 5 u h t u 5 g t h h z N u g h j 6 ` N g u r h v h h k h u g u g 5 u h t u 5 g t h h z N u g h j 6 ` N g u r h v h h k h u g ",
"c t u _ l v v h 1 g z z j c h b c g h k M g g u h c j ] z u l ' c t u _ l v v h 1 g z z j c h b c g h k M g g u h c j ] z u l ' ",
"h u N k l c v N 5 N N ' ' N z w.3 ` M u 5 g g c c 0._ h l k ) z h u N k l c v N 5 N N ' ' N z w.3 ` M u 5 g g c c 0._ h l k ) j ",
"g i y.0.g g u h u c k ] N M _ _ t c ' ` j 5 c c w.h h g u u g v g i y.0.g g u h u c k ] v M _ M t c ' ` j 5 c c w.h h g u u g v ",
"g r ] _ t u u u g c z N ' B j N u _ _ k } u j ` y.g g u u u _ g g r ] _ t u u u g c z N ` M j N u _ _ k } u j ` y.g g u u u _ g ",
"h 5 c g l t h j u h z N N N N N u l ' g u 5 c l v g u g 3 + j } h 5 c g l t h j u h z N N N N N u l ' g u 5 c l v g u g 3 + j } ",
"i g l r._ l N g t l u l z h [ } 3 u g l i u l ` g g t u r.r _ r.i g l r._ l N g t l u l z h [ } 3 u g l i u l ` g g t u r.r _ r.",
"i c N l t g g u ' l 5 u h u [ @ 8 u 5 w.h l 5 u 3 ] v _ N g u i i c N l t g g u ' l 5 u h u [ g u u 5 w.h l r u 3 ] v _ N g u i ",
"_ l u t g 5 3 c j c ] u u u i D 9 h l g u i N K # [ _ i i g 3 u _ l u t g 5 3 c j c ] u u u g h l h l g u i N ' g [ _ i i g 3 u ",
"N k u t h _ u h _ v _ _ u 3 . ,X/ p _ h 3 _ c D S p h u g 5 < c N k u t h _ u h _ v _ _ u 3 N _ _ N _ h 3 _ c k h v h u g 5 < c ",
"g 6 5 t z N g h v l g h u k S 5XHXX.S G 9 v ' O MX_.8 g l h J # g 6 5 t z N g h v l g h u j r.y.r.r.N v 5 N ' i g g g g l h u g ",
"g 5 M 5 l g l k v j j 6 5 @ UXBXyXGXVXeXQ X p @ tXLXX.8 g u S K g 5 M 5 l g l k v j j 6 5 j ` _ h k k z 5 l z u u u c l g u N u ",
"t u g t j g ] u l c g g u D IXBXqXuXFXGXIXdX! X >XGXIX| 4 # #X X$ t g t j g ] u l c g u u c _ u 5 u l u 3 r u t t z z g u u h < ",
"` j g 5 ' h t 1 g v u u O .XKX*X4XyX>X9XPXLXLX X;XyXLX{.  #XpX X9 j u 5 ' h t 1 g v u u t v N l u u j 5 5 z c h h z u 5 5 g t u ",
"N v g u 3 g 5 5 5 K 8 t . XXPX%XXXwXwX3X>XsXBX|.>XeXKX&X~ 0XyXE.# k u u 3 g 5 5 5 h u r h u N u u 5 5 t l c c v h t.g c l c u g ",
"t ) v u + t M c N S S p @ .XKX*X3X4XwXuX;X-X;XT.5X7XGXhX~ }.}.W S F S u + t M c N u 3 h N N 3 3 u g c N N c h 0.l u N h j h ] l ",
"u [ h r 2 g c M h D 5X! X .XuXOX5XyX:XwXuX:X+X+XwX3XHX&XoXNXDXHXVXY.@ r 2 h c M h l 5 c h ` g h c c c h N ] l z 5 c l u t 5 5 t ",
"u t u l B t i g h S iXGX,XR.~ T.HXBXrX:XwXyXiX:XwX4X-X4XGXNXiXBX*X# r l ` t g g h h g h g j h u g l l g g z 5 5 c k g t 5 5 3 r ",
"l i c l j j h g t S 9XaXKX1XQ ~ IXLXpXrX:XwXpX3X9X4X3XFXNX3XeX|.X 9 c l l j h g t u 5 z t h u ' 5 l l u k k 5 u c u r 5 5 l t r ",
"g u ` l c u c g g S 9X8XsXGX,XT.tXKXPXpXrX:XwX4X-X;XFXNX-X3X@XF # p ` l c u c g g 5 u g 5 h u g g g h u u u u r g u 5 r.' _ g h ",
"t u g c t c h M g p G 9X7XiXLX1X+XiXLXLXaX3XR.~ XX6XOX~ ~ T.T.F . 8 h b u c h M g g c M N 1 g l _ ' v r g v M v c c l ' l 5 l ] ",
"r u u u u u t t ) M p ! 0X7XaXFX,X;XiXPXKXOXXX5X:X}.+X5X5X|.R.XXXXW 9 u u t t t ) M l [ g N j h v ] ' u v N u u u [ c j 5 5 l l ",
"r u 3 c g u u 1 ' h u . ^ wX7XpX0X-X}.E.W.1XyXyXeXT.5XuXuX4XY.+XqX6XQ c g u u 1 ' h u g M v t t u g u k N u g u u u u _ k 5 h l ",
"u r < u l t v N K J J S W |.-X:X:X}.#X5XY.5XyXCXGX>XdXGXaXeX>XR.T.3X.Xu l t v N h u g u l g g g t g j r ` u k g u h k [ k u 5 l ",
"5 3 5 g t u t j p S XX;X;XT.~ T.Y.,XuXuX}.4XyXKXkXF. XW.DXCXeXW.X F F g t u t j l h t 5 h 5 u u 3 5 k k k k u u l 1 j g u 1 5 t ",
"h u u h g u u v g 8 Q :X7X-XXXXX~ 9XrX6XfX .8XGXbXkXxXN.( MXCXE.$ 8 @ h g u u v g u u z c h ' z t l y.v 5 3 5 5 u t t 3 g 5 g g ",
"_ l 5 l v h l g r 5 ) G W T.}.}.Y.0X8X$XZ.f.^ rXIXSXZXZX( X sXOX8 l 5 l v h l g r 5 _ c h ] v 5 g ` ] N i u k c h h g u h h g z ",
"] ] 2 z c u g u r h l u X R.;XW t.jXoXa.Z.j.~ R.UXZXnXJX_.$ E W ( ] 2 z c u g u r h l g t t t 5 c v j u h u z h g t u t g t h j ",
"c c l h g u g 5 r t J K }.7X8XW f.C.{ i.H.{ ).~ a.nXAXbX{ # l . L c l h g u g 5 r t t g g t 5 g c l l g < j t.z w.h g t h 5 c j ",
"j g j N c < g c j N 9 # Q Q Q F P P q d.G.O.lXHX ./ jXq.# 3 l p p g j N c < g c j N h 1 v c N t t t u j h l u l j 5 5 5 u 5 l j ",
"u c N N w.t g l g h ] 5 k p 5 S r.u.q g.G.g.G.JX6XOXnX| . p i l u c c N w.t g l g h ] 5 M j h g N j z N _ l l u c l N v l c i l ",
"u j g l 5 < t g g u r t g # J q 4.A.F.q.g.J.d.bXHXAXjX).P.Z O # u j g l 5 < t g g u r t u u u N N N l h h 6 k g z z N j g g 5 3 ",
"u g 5 u h t u 5 i u h k K e.M.Z.#.%.C.F.9.g.bXZXAXG.% Q.mXvXvX| 8 g 5 u h t u 5 g t h h z N u g h j 6 ` N g u r h v h h k h u g ",
"c t u _ l v v h 1 g z z Z V.K.8.8.8.n.A.d.q.p.a.s.T Z &XnXg.bXSX| 9 u _ l v v h 1 g z z j c h b c g h k M g g u h c j ] z u l ' ",
"h u N k l c v N 5 N N ' S d.4.6.fX*X%XC.p.p.7.7.R P.U bXG.& kXLXfX@ N j l c v N 5 N N ' ' N z w.3 ` M u 5 g g c c 0._ h l k _ z ",
"g i y.0.g g u h u c k ] S V.n.fX>X`.P.).B.(./.(.].^.9 Y gXnXAXfX# p y.w.g g u h u c k ] v M _ M t c ' ` j 5 c c w.h h g u u g v ",
"g r ] _ t u u u g c z N H 5.4.%XQ.~.~.'.f.8.].'.].G p i E $X .L h t w.' g g u u g c z N ` M j N u _ _ k } u j ` y.g g u u u _ g ",
"h 5 c g l t h j u h z N ( 0 #.(.`./.xXMXY 7.L.jX| K g l 5 $ 8 w.m d B j N g j j u j z N N N N N u l ' g u 5 c l v g u g 3 + j } ",
"i g l r._ l N g t l u l z p # D MXs.kXJX! O.>.;.p ( J J ( d B e.s n B t.' N M h t z u l z h [ } 3 u g l i u l ` g g t u r.r _ r.",
"i c N l t g g u ' l 3 u g u S H nXg.s.AX .A R Z J q -.i.u.a 9 4 4 d m m s j j h ' z 5 u h u [ g u u 5 w.h l r u 3 ] v _ N g u i ",
"_ l u t g 5 3 c j c ] u p u S H zXd.5.y.~.[.T *.u.8.D.D.b.*.f f f 7 * w s d t B m N ] u u u g h l h l g u i N ' k [ _ i i g 3 u ",
"N k u t h _ u h _ v _ _ u # : S s.cXnXD T {.%.n.S.A.V.-.*.&.-.k.M.u.* * w B s m ' N ` _ u 3 N _ _ N _ h 3 _ c k h v h u g 5 < c ",
"g 6 5 t z N g h v l g h u D > , L vXJX! o.@.5.A.A.Z.k.&.&.b.b.m.L.l.<.=.w f s m B c h h g j r.y.r.r.N v 5 N ' i g g g g l h u g ",
"g 5 M 5 l g l k z k h 6 5 K +.@.X xXDX].P & f.S.A.D.;.&.v.m.S.z.z.x.3.<.=.- s m B m z t 5 j ` _ h k k z 5 l z u u u c l g u N u ",
"t u g t j g ] u k c L K K F %.#.i...].<XI   f.K.8.6.;.e k.m.2.z.x.2.3.,.7.- w * n B h g u c _ u 5 u l u 3 r u t t z z g u u h < ",
"` j g 5 ' h t 1 h L q ;.: o f.6.n.# `.mXxXhX..{ q 0 &.; nXc.>.l.x.>.2.1.<.e * = d B g u t v N l u u j 5 5 z c h h z u 5 5 g t u ",
"N v g u 3 g 5 5 # H :.#.& $.8.8.Z.( 2XAXcXAX..X Y { = ; cXz.x.z.z.x.l.1.:.e w * 7 n h t h u N u u 5 5 t l c c v h t.g c l c u g ",
"u ) v u + t M c H q +.> h.8.6.C.A.L s.ZXbXkXh.B.{ s 7 * c.z.3.z.x.3.3.1.<.- w d m j 5 h N N 3 3 u g c N N c h 0.l u N h j h ] l ",
"u [ h r 2 h c E I $.+., C.n.Z.A.C.P gXkXAXB.% ZXfXu w * v.l.>.z.x.>.2.,.-.- f B m N t N h ` g h c c c h N ] l z 5 c l u t 5 5 t ",
"u t t l B t L I.!.$.o.> C.K.C.C.A.5.X.bXgXK # X.| g 7 4 M.v.z.z.x.z.1.<.e - s m m z j h g j h u g l l g g z 5 5 c k g t 5 5 3 r ",
"l i c l j j F P.T q : > $.C.A.C.S.5.@ ).E k 5 9 Y j $ V ; -.v.v.x.v.-.e w d V n d g 5 c t h u ' 5 l l u k k 5 u c u r 5 5 l t r ",
"g u ` l c K C V : # # A o 5.S.S.e.K h 8 r u u t x 8 ! N.y = * B =.e w w s s B n j t g h 5 h u g g g h u u u u r g u 5 r.' _ g h ",
"t u h c u H i +.H L c ( L 0 0.r.K ' v r g N B N v S %X<XW.6 q 2 * * w s d B m B j h c M N 1 g l _ ' v r g v M v c c c ' l 5 l ] ",
"r u u u u S I.U.R P P [ g ( L # v ] ' u v N u u g {  ... .q.;.j 5 d s s j j d t _ M z [ g N j h v ] ' u v N u u u ` c j 5 5 l z ",
"r u 3 c g u u 1 ' h t g M v t t u g t j N u g u t g h ' N d m B d s t B j g g 2 ' j u g M v t t u g u k N u g u u u u _ k 5 h l ",
"u r < u l t v N j u g u l g g g t g j r ` u k h u h c ] l h t N h g 2 g c t v N h u g u l g g g t g j r ` u k g u h k [ k u 5 l ",
"5 3 5 g t u t j c g t 5 h 5 u u 3 5 k k k k u u j 3 j g u 2 t t t 5 5 h t g t j l g t 5 h 5 u u 3 5 k k k k u u l 1 j g u 1 5 t ",
"h u u h g u u v g u u z c h ' z t l y.v 5 3 5 5 t t t 3 g r g h h g u h g u u N g u u z c h ' z t l y.v 5 3 5 5 u t t 3 g 5 g g ",
"_ l 5 l v h l g r 5 _ c h ] v 5 g ` ] N i u k c h h g u h h g z _ l 5 l v h l g r 5 _ c h ] v 5 g ` ] N i u k c h h g u h h g z "
};
