/* XPM */
static char *xpm_[] = {
/* columns rows colors chars-per-pixel */
"64 64 256 2 ",
"   c #020104",
".  c #05051D",
"X  c #160218",
"o  c #1A0609",
"O  c #310912",
"+  c #06092A",
"@  c #150B23",
"#  c #17152B",
"$  c #071836",
"%  c #191C35",
"&  c #01132E",
"*  c #251838",
"=  c #340E2E",
"-  c #1A253B",
";  c #0A2B3B",
":  c #3F3021",
">  c #3A2A3B",
",  c #2A2638",
"<  c #36211D",
"1  c #5D0904",
"2  c #4A0C0F",
"3  c #6D040B",
"4  c #663312",
"5  c #501332",
"6  c #6A102C",
"7  c #4A3726",
"8  c #4D3A2A",
"9  c #483525",
"0  c #543E2C",
"q  c #583F2C",
"w  c #523233",
"e  c #702830",
"r  c #552615",
"t  c #56402E",
"y  c #5A422E",
"u  c #5D4431",
"i  c #5E4835",
"p  c #5A4A3A",
"a  c #4B4233",
"s  c #614633",
"d  c #644935",
"f  c #694D37",
"g  c #664C38",
"h  c #6A4E39",
"j  c #6E513B",
"k  c #62503E",
"l  c #72543D",
"z  c #73583F",
"x  c #764434",
"c  c #5D661D",
"v  c #0A0E45",
"b  c #311449",
"n  c #032A47",
"m  c #182B44",
"M  c #053956",
"N  c #183D55",
"B  c #15334C",
"V  c #252544",
"C  c #2F324F",
"Z  c #060E76",
"A  c #2C2B6C",
"S  c #4D1149",
"D  c #483B57",
"F  c #50304D",
"G  c #6D394B",
"H  c #5C2067",
"J  c #13465B",
"K  c #2E4553",
"L  c #11526C",
"P  c #29576B",
"I  c #304C6F",
"U  c #2B6677",
"Y  c #1A6C6A",
"T  c #585145",
"R  c #6D5541",
"E  c #675948",
"W  c #745641",
"Q  c #765943",
"!  c #7B5B44",
"~  c #7D5D48",
"^  c #765B49",
"/  c #704754",
"(  c #5B6458",
")  c #7B614B",
"_  c #696959",
"`  c #726C58",
"'  c #524F70",
"]  c #6E546B",
"[  c #56766F",
"{  c #6E706C",
"}  c #850002",
"|  c #911115",
" . c #B0110D",
".. c #AF2C14",
"X. c #8A1629",
"o. c #893639",
"O. c #A93132",
"+. c #AF0025",
"@. c #C80802",
"#. c #D21700",
"$. c #CD1108",
"%. c #EF1503",
"&. c #D3310F",
"*. c #E82A04",
"=. c #90483D",
"-. c #B0493C",
";. c #B75A2A",
":. c #FC5D1A",
">. c #FA4B0F",
",. c #E65621",
"<. c #F2752E",
"1. c #DC5F22",
"2. c #8C3945",
"3. c #A91B62",
"4. c #815E49",
"5. c #8E4951",
"6. c #B95648",
"7. c #AE534B",
"8. c #83634C",
"9. c #896B53",
"0. c #92745A",
"q. c #916E51",
"w. c #AD6157",
"e. c #8E6B7B",
"r. c #B86D6A",
"t. c #9A546A",
"y. c #C65648",
"u. c #CA6E51",
"i. c #CA7563",
"p. c #E56465",
"a. c #DF125B",
"s. c #3D8575",
"d. c #59867E",
"f. c #698579",
"g. c #FD993A",
"h. c #F68B34",
"j. c #EA9434",
"k. c #9D8572",
"l. c #F59448",
"z. c #FCA64A",
"x. c #FFB755",
"c. c #FFB352",
"v. c #D89779",
"b. c #ED8B6D",
"n. c #F8B670",
"m. c #CB8E49",
"M. c #FFC95A",
"N. c #FFD65A",
"B. c #EAD71A",
"V. c #000284",
"C. c #091485",
"Z. c #010FAF",
"A. c #311086",
"S. c #187288",
"D. c #0F758F",
"F. c #2C768C",
"G. c #2D48A8",
"H. c #225290",
"J. c #485C99",
"K. c #4F6699",
"L. c #747395",
"P. c #546DA7",
"I. c #6776A7",
"U. c #747DA7",
"Y. c #1A6BFF",
"T. c #1868E8",
"R. c #521081",
"E. c #8D758A",
"W. c #9D64A2",
"Q. c #FF6CE4",
"!. c #2F8999",
"~. c #168DAC",
"^. c #3197AA",
"/. c #36A7B9",
"(. c #2BA8B4",
"). c #598C85",
"_. c #579996",
"`. c #4E9396",
"'. c #65978C",
"]. c #5BA39A",
"[. c #62A39C",
"{. c #4498A6",
"}. c #7989B6",
"|. c #7786B2",
" X c #59A9A8",
".X c #56B7B9",
"XX c #4CAEB3",
"oX c #62BCB4",
"OX c #62C2BC",
"+X c #38B7C9",
"@X c #748CC4",
"#X c #47B7C4",
"$X c #4FBBC7",
"%X c #6FA3EE",
"&X c #37CFE7",
"*X c #3DCCDC",
"=X c #57C8C9",
"-X c #49C8D8",
";X c #52D2D7",
":X c #66D4CF",
">X c #4CD8E9",
",X c #48D3E5",
"<X c #48E6F8",
"1X c #52E8F6",
"2X c #56F5F7",
"3X c #4FEBF0",
"4X c #63FAF9",
"5X c #978D92",
"6X c #AB938D",
"7X c #949CBC",
"8X c #8891B3",
"9X c #AD9CA7",
"0X c #B3ABB5",
"qX c #BAA899",
"wX c #C6928C",
"eX c #D4A491",
"rX c #EFB494",
"tX c #CCADB3",
"yX c #E9B8AE",
"uX c #F49B82",
"iX c #FDCB93",
"pX c #FDDAB8",
"aX c #F0CDAC",
"sX c #FFE6BC",
"dX c #FFEDAF",
"fX c #DCCBB4",
"gX c #8999C4",
"hX c #98A7C9",
"jX c #95ACD5",
"kX c #8FA9D2",
"lX c #A6B9DB",
"zX c #AFB5CB",
"xX c #A5BDE4",
"cX c #92B0E2",
"vX c #D9BEC1",
"bX c #B3C3D9",
"nX c #B4CBF0",
"mX c #9ED4F9",
"MX c #D3CFD6",
"NX c #FFE7C7",
"BX c #FFFED5",
"VX c #FDFDDD",
"CX c #F0EDC9",
"ZX c #C8D4E9",
"AX c #D2DCEC",
"SX c #C3D7F3",
"DX c #D9E5F5",
"FX c #D3E5F1",
"GX c #FFFEE8",
"HX c #E5EBF5",
"JX c #E9F6FC",
"KX c #F4FBFE",
"LX c #FEFFFF",
"PX c #F5F5F7",
"IX c #EEE7EB",
"UX c #EAD6CC",
/* pixels */
"~ ~ 7 h j u s y t d h s y y y 0 j l f u d u h d s y u y s y d f ~ ~ 7 h j u s u t d h s y y y 0 l j f u d u h d s y u y s y d f ",
"j j h d s y s 0 t y y s s y 0 s j h h s 9 f q.h 8.d s y d q j f j j f d s y s q t y y s s y 0 s j h h s 9 f q.h 8.d s y d q j f ",
"f s f l j 9 s j f l d 7 j j l y y y u f f h u h f 0 q q u 0 h f f s f l j 9 s j f l d 7 j j l y y y u f d h u h f 0 q q u 0 h f ",
"u j l l 8.y s h s d ~ 0 z f d s l f h l W h h u .X-X-X-X-X-X-XE p j l l 8.y s f s d ~ 0 z f d s l f h l W h h u j h l l h j u h ",
"u f s h q 9 y s s u t y u u u l l l h d d q g s 3XP X - + . $ >X2X_ s h q 9 y s s u t y u u u l l z h d d q g s h h l f s s 0 8 ",
"u s q u d y u 0 s y d d h l u s d f q W l s u t _ .X$ = MX0X9XB & XX[ u d y u =X=X=X=X=X=X[.u s d f q W l s u t d j d d g d u s ",
"j y u W h j j d 7 s h h f j d j j s d g z s s u f _ XXP 9XLXLX5X5Xm !.{ h R .XM J J J M ; S.oX.X Xi d g z s s u d j f ~ h u h ! ",
"d u l g h j j l q l l ! ! l h 8.8 W z u t ).s j l 8.` {.J 5XHXJXLX5XK ^.[.XXP e.D C ] { e.E.P F.>X) z u q s s j j 4.W d h g R h ",
"s u 0.4.s s u d u j g ~ l z W W y j ! ` `.^.d.j 8.d d E (.X DXjXAXLX/ J 3XP ] KXJXDXKXLXPXL.- < `.R ! W f 0 j j 8.d d s u u s j ",
"s t ~ W y u u u s j h l ! z f l u W W [ ^.- 1XW 0.s s [ ^.> HXlXZXLXE.S.S.* cX@XZXZXKXIXD J :Xl u W l d ) u f W 0.s s u u u W s ",
"d 0 j s h y d f u d h l l l l l u h ! ( XX- /._ j s u _ ^.C HXlXkXZXJX' m }.I.I.K.P.ZX] S.2X#X` u h ! s u 0 j h j s u s 8 : f ) ",
"u s h 9.W h l s y h u h h d ) ) a p k f.-X@ * #X[ T p [ ^.> HXlXkXjXDX8X|.LXHXFXjXJXF L 2X/.# 1X8 u s h u u h W s s y u 9.t W 9.",
"u j l h y s s u ! h 0 u d u =X,X>X>X,X1X+XC 8X* ^.2X>X2X~.> HXlXkXHX7X8XKXPXDXlXDXLXF S.4X!.# 1Xi u 0 8.d h t u 8 ! j W l s u i ",
"W h u y s q 8 j f j ~ u u ,XK @ C B ; ; + V nXhX, +X#X% . V HXlXAX|.|.PXKXJXAXkXKX] !.2XS.D zXK XXk h s u u l ! s Q W i u s 8 u ",
"l g u y d W u d W j W W u [ /.^.  G UX9X0X7XK.nX7XI   X 0XzXlXZXPXzXAXAXbXFXlXFXLX, . ; ' MXMX@ *X^ W d 8 W j g d j d u s 0 9 j ",
"s q 0 y h l s d j h s d u f f.4X(.' tXLXLXKX8XK.nX' , zXLXKXkXHXHXLXLXlXbXFXjXKXLX8XD V 0XLXzX% -X9.l j q l ! u s s s s h d u s ",
"s q z 0 h s h g j f f q 0 f ` `.4X(.+ L.KXLXKX8XP.|.HXLXFXZXjXHXLXHXAXlXlXZXbXKXZXnXnXnXDXLXMXX *XE g h q h h u u u j h s u l u ",
"y u s y f s ~ u h j s u u j >X# ; 3X>XN L.DXKXLXhXzXKXbXJ.I.jXFXzXP.}.xX}.P.I.hXZXlXP.ZXLXMX{ U `.i h u 8 t u y y h h s u u d 9 ",
"z f s 0 ! d y 7 s j u u y j >X- < K.(.^.N }.DXFXJXnX@XI.I.}.lXgXI.I.I.lXlXI.I.I.zXZX|.hX0XI Y  Xu u f 0 q h j d d h u q 0 s y u ",
"l j s u 8 s 0 q 0 d u y d u .XJ U.L.@ U (.# gXjXjXjXI.}.LXLXDXJ.ZXLXhX|.HXKXLXHXK.hXLXlXv N -Xp u 0 0 y h j j j d q.s j h j u s ",
"y R j u : y z j l u 8 d l l 8 ;XN ' SX}.. V P.jXxXK.7XLXHXJXAXK.ZXKXLX7XJ.bXJXJXJXU.zXSXxXL.m ,XT s j l l j d 4.h u l d f d ! h ",
"u Q d t 8 d j z d h q j d W s g ;XJ D nXgXhXkXjXlXK.7XLXZXjXcXK.AXLXJXKXgXJ.bXPXKXHXI.@XnXnX8Xm -Xj j d l ~ h h 0 j h u y q 0 y ",
"u y u h W y s s d d s d s f d u E _.J ' nXnXxXlXnXJ.7XLXSX7Xw.5.I.cXDXLXhXJ.nXSXHXLX@XC = C b   B =Xh s s h q q j g s y 0 q 8 t ",
"h i j h h f d s y u 0 h y d u ! [ :X2XU D I.I.}.@XgX}.lXJX8X....2.J.%XKXvX/ C D KXLX' J !.F.!.!.F._.j u g g q u j u t q q h y t ",
"s u W h j u j s s q u s q d u .XU % P {.U.gX}.C & I.L.A xXIXeXrX1.X.I mXyX3 & S.T IX/ S.OX).).).d.s d u u u u t s u 0 9.! W s d ",
"y u s j y j d z s s j z l 7 s  XF.P # o L.cX}.# 2 C C e ' lXBXbX] b.u.H.hXw.N 2XY ] : !.'.7 s h W ! j t s j z j j j h ! h q h ~ ",
"t u u u u u y y R z h Q s l f d f.:X1XU L I J.$ 7.o.* t.r.5XpX' H.jXiX2.0XaX+ >XoXF.  !. Xl f d j ~ ! u j l u u u Q j f q q h h ",
"t u 8 j s u u 7 ! d u s z j y y u ).#X<X(.+ I % =.p.o.{ VXBXaXe 5XP.hXuXb.6XL ,X~ [.P F.'.j y y u s u h l u s u u u u W g q d h ",
"u t 9 u h y j l d u s u h s s s =XF.o , , , % & G 6.e E.LXLXaXW MXKXP.0Xv.n 1X>Xg u -X`.h s s s y s f t W u g s u d g ^ g u 0 h ",
"q 8 0 s y u y f h s y 0 d 0 u u =XL w VXPXaX=.# % # = E.LXLXpXpXNXPXK.6XeX  P >XE s p 0 d 0 u u 8 q g g g g u u h 8 f s u 7 q y ",
"d u u d s u u j s u u h j s ! h =XL ] LXVXpX7.=.5.2.=.o.5XLXNXNXNXNXCX{ w e m >Xk u u h j d ! h y h 0.j t 8 0 q u y y 8 s 0 s s ",
"W h q h j d h s t 0 W j d ~ j $XU * 5.6.7.7.7.6.-.uXNXv.3 E.LXBXNXBXk.] MXwXn ,Xp 0 W j d ~ j q s W ~ l i u g j d d s u d d s h ",
"~ ~ 7 h j u s u t d h s y y y 2XM o W.yXrXrX7.7.O.rXVXNXMX0X] ] / F e.eXuX7.+ &Xt s h s y q y 0 j j f u d u h d s y u y s y d f ",
"j j h d s u s q t y y s s y d.D.5 2 hXLXBXk.7.6.O.rXBXNXLXGXE.e E.e.CXaX} m $XFX]._._.T s y t s j h h s 9 f q.h 8.d s y d q j f ",
"f s f l j 9 s j f l d 7 j d./.w i.r.t.tX{ . 5.7.2.r.pXBXsXVXLX6.GXLXsXw.2 K :XJXXXD.L {._ j l y y y u f d h u h f 0 q q u 0 h f ",
"u j l l 8.y s h s d ~ 0 z &X@ pXLXv.,.=.. > F F D 6 i.fXaXyXv.-.v.fXb.O V 2.v ~.. w w F.XX_ d d l f h l W h h u j h l j h j u h ",
"u f s h q 9 y s s u q y u $XP 9XLXeXwX0X# 8 & + / u.y.-.O.2.w.r.7.O.O.x A Z.C., @ 6XNXe M ;XT l l l h d d q g s h h l f s s 0 8 ",
"u s q u d y u 0 s y d d h l .XN qXnX%X@X@ # * % ;.n.c.:.@.i.dXdXy.*.1 w t.V.G.NX5.] r.b.e n 1Xs d f q W l s u t d j d d g d u s ",
"j y u W h j j d 7 s f h f j d >X- Z SXUXF / 6.y.< T.W.@.&.z.z.l.#.<.0.+ o + G.pXy.yXLXGX4.n ;Xj j s d g z s s u d j f ~ h u h ! ",
"d u l f h j j l q l l ! ! l h 2XB   5XyXG NXNXy.< Z Z.V.Z Z Z Z * o {.).h p O u.sXi.GXE.J ;XR 8.8 W z u q s s j j 4.W d h g W h ",
"s u 0.4.s s u d u j g ~ j z W { -X; x BXfXsXi.pXK O +.H Y.Y.Y.Y.M   & #XOX).0 O BXBX5.L XX` W z y j ! W f 0 j j 8.d d s u u s j ",
"s t ~ W y u u u s j h l W z f l [ #XN 0.GXuXrX[ k.#.%.z.wXt.r.eXF =...O L (._.(.{ ^ P XX` W f l u W W g ) u f W 0.s s u u u W s ",
"d 0 j s h y d f u d h l l l l l u E ].F./ > L.u ,.>.j.N.:.@.%.g.e l.g.;.3 2 ~.D.  M ].j j j j l u h ! s u 0 j h j s u s 8 : f ) ",
"u s h 9.W h l s y h u h h d Q ) 8 ( `.[ 4 a r g.>.<.x.z.<. .$.z.e u.M.M.g.&.= / x `.d.E h s Q ) 8 u s h u u h W s s y u 9.t W 9.",
"u j l h y s s u ! h 0 u d u Q s u [ !.T j.g.iXn.c.z.z.M.<.#.:.u.6 ..h.c.c.<.y.GXM.1 ~._.d u Q s u u 0 8.d h t u 8 ! j W l s u i ",
"W h u y s q 8 j f j ~ u u u s d f d '.&X  ..UXGXn.g.g.h.,.*.m.= =  .>.z.x.<.&.iXc.r ~.).u u s d h d h s u u l ! g Q W u u s 8 u ",
"l g u y d W u d W j W W u 8 l W W _.<X/.X 6 6.pXn.g.,.$.%. .- B $ m.:.&.z.x.h.#.g.r ~.'.u 8 l W W l W d 8 W j g d j d u s 0 9 j ",
"s q 0 y h l s d j h s d u f 9.0.:X!.. V 6 &.g.z.c.&.&.x.;.m &X<XM | <.,.&.M.h.#.g.w ~.).u f 9.0.9.9.l j q l ! u s s s s h d u s ",
"s q z 0 h s h g j f f q 0 f W =XS.1 @.| 6 &.z.g.z.z.:...K &X<XP | 6 | <.<.&.*.#.2 !.).p 0 f W W d g g h q h h u u u j h s u l u ",
"y u s y f s ~ u h j s u u j W 1XM } %.6 6 &.x.M.:.>. .@ +X[ *X@ @.X.= ..>.%.@.5 ~._.s u u j W u q u h u 8 t u y y h h s u u d 9 ",
"W f s 0 ! d y 7 s j u u y j l ;XL }  .b 6 *.:.:. .3 C (.( s ,X- @.X.b 6 | | 3 n <X_ u u y j l h u u f 0 q h j d d h u q 0 s y u ",
"l j s u 8 s 0 q 0 d u t d u l ;XL }  .b 6 | } } 5 . ~.=Xh _ ,XX } #.| b b 6 | V >X[ u t d u l u u 0 0 y h j j j d q.s j h j u s ",
"y R j u : y z j l u 8 d l l 8 1XM } %.| S b b 6 X.2 F.=Xf E  XF.* X. .| X.$. .X `.( 8 d l l 8 8 u s j l l j d 4.h u l d f d ! h ",
"u Q d t 8 d j z d h q j d W s  XF.r  .X.| | | %.%.1 D.;Xy q 8 2XK V.A %.%.} * N d h q j d W s d j j j d l ~ h h 0 j g u y q 0 y ",
"u y u h z y u s d d s d s f d u =X!.v A $. . . .@.2 ~. X0 q a >XC Z Z.S 6 n P ;Xg d d d s f d u s h h s s h q q j g u y 0 q 8 t ",
"h i j h h f d s y u 0 h y d u ! =XD.} a.Z.Z - - @ ^._.q q h u >XC Z H 1 S.2X=Xu y u 0 h y d u ! 0 h h u g g q u j u t q q h y t ",
"s u W h j u j s s q u s t d u s =XD.} a.Z m ,X>X*X).8 9.! W s 1XN 4 r F..Xp R s s q u d q d u s s s d u u u u t s u 0 9.! W s d ",
"y u d j y j d z s s j z l 7 s .XH.c B.1.v #Xf.{ [ E g W h T .XP Z X.1 ~. Xj d z s s j z l 7 s h W ! j t s j z j j j h ! h q h ~ ",
"t u u u u u y y R z h Q s l  XU T.p.>.Y XX{ u u u Q h h q ( -X@ Z 3.3 ~. Xu y y R z h ! s l f d j ~ ! u j l u u u Q j f q q h h ",
"t u 8 j s u u 7 ! d u s z j >X$ O.Q.R.$ 2Xu s u u u u W g p [ w C A.6 w (. Xu 7 ! d u s z j y y u s u g l u s u u u u W g q d h ",
"u t 9 u h y j l d u s u h s ,XB 3.W.H.^.'.u s d u d g ^ g u 0 h u C S 4 K _.j l d u s u h s s s y s f t W u g s u d g ^ g u 0 h ",
"q 8 0 s y u y f h s y 0 d 0 $X, G.H.s.'.g f y u h 8 f s u 7 q y 0 8 0 s y u y f h s y 0 d 0 u u 8 q g g g g u u h 8 f s u 7 q y ",
"d u u d s u u j s u u h j d ! h y f 0.j 0 8 0 q u y y 8 s 0 s s s u y s s u u j s u u h j d ! h y h 0.j 0 8 0 q u y y 8 s 0 s s ",
"W h q h j d h s t 0 W j d ~ j q s Q ~ j i u f j d f s u d d s h W h 0 h j d h s t 0 W j d ~ j q s W ~ l i u g j d d s u d d s h "
};
