/* XPM */
static char *xpm_[] = {
/* columns rows colors chars-per-pixel */
"64 64 256 2 ",
"   c #07051B",
".  c #040C34",
"X  c #04153A",
"o  c #181834",
"O  c #11092A",
"+  c #17233D",
"@  c #3F3123",
"#  c #282738",
"$  c #342A35",
"%  c #383439",
"&  c #322D31",
"*  c #301F26",
"=  c #5A3A19",
"-  c #633612",
";  c #560934",
":  c #700B2E",
">  c #4A3726",
",  c #4E3A2A",
"<  c #483625",
"1  c #543E2C",
"2  c #583F2C",
"3  c #5A3E21",
"4  c #463937",
"5  c #563839",
"6  c #4A2C2E",
"7  c #743034",
"8  c #701E1A",
"9  c #694118",
"0  c #56412E",
"q  c #5A422E",
"w  c #5D4431",
"e  c #5E4834",
"r  c #58463A",
"t  c #4C423D",
"y  c #67482C",
"u  c #614633",
"i  c #644935",
"p  c #694D37",
"a  c #664C38",
"s  c #6A4E39",
"d  c #6D513B",
"f  c #72543D",
"g  c #76563A",
"h  c #784C2E",
"j  c #071845",
"k  c #171C48",
"l  c #001150",
"z  c #2D1543",
"x  c #0A2349",
"c  c #172949",
"v  c #18344D",
"b  c #032B55",
"n  c #152E51",
"m  c #0C3352",
"M  c #272943",
"N  c #293547",
"B  c #383A44",
"V  c #32344D",
"C  c #063766",
"Z  c #0F326F",
"A  c #262D72",
"S  c #4C344A",
"D  c #723342",
"F  c #502C6D",
"G  c #13415C",
"H  c #31474F",
"J  c #01586B",
"K  c #0E516D",
"L  c #2F4B6F",
"P  c #026678",
"I  c #10697D",
"U  c #2F6B7B",
"Y  c #464447",
"T  c #564948",
"R  c #564E50",
"E  c #6E5441",
"W  c #745641",
"Q  c #765943",
"!  c #7B5B44",
"~  c #7D5D48",
"^  c #765C4A",
"/  c #6C5353",
"(  c #7D614A",
")  c #726456",
"_  c #4A546E",
"`  c #767470",
"'  c #8C3711",
"]  c #AF3013",
"[  c #8F0D2B",
"{  c #8F3630",
"}  c #AD302B",
"|  c #981920",
" . c #CF1818",
".. c #D72719",
"X. c #D73617",
"o. c #EC2F13",
"O. c #CA3627",
"+. c #E01505",
"@. c #894817",
"#. c #8E4C16",
"$. c #905730",
"%. c #AF5532",
"&. c #906839",
"*. c #A46F37",
"=. c #B44F15",
"-. c #D64915",
";. c #F4510C",
":. c #D76B13",
">. c #FC6700",
",. c #FB7801",
"<. c #F46F0C",
"1. c #F95825",
"2. c #E9522B",
"3. c #D26F34",
"4. c #F87436",
"5. c #FB692A",
"6. c #D64E2B",
"7. c #94344A",
"8. c #F62B50",
"9. c #815E49",
"0. c #964F52",
"q. c #A75049",
"w. c #84644A",
"e. c #896A53",
"r. c #94735B",
"t. c #956D53",
"y. c #B16A54",
"u. c #98757B",
"i. c #AA646E",
"p. c #CF714C",
"a. c #FA7E4A",
"s. c #D05B5F",
"d. c #A99535",
"f. c #FC8800",
"g. c #FF9500",
"h. c #FF9A00",
"j. c #F89609",
"k. c #F18F0E",
"l. c #D0892F",
"z. c #FE912E",
"x. c #F8A62E",
"c. c #FFFF14",
"v. c #FDDB25",
"b. c #B08C50",
"n. c #A38A6F",
"m. c #F88949",
"M. c #FB9853",
"N. c #F28B51",
"B. c #FEA44C",
"V. c #FDA75A",
"C. c #FEB758",
"Z. c #F5AF51",
"A. c #DA896B",
"S. c #EF956D",
"D. c #FBAF6B",
"F. c #CA9E52",
"G. c #FFC874",
"H. c #0A16A4",
"J. c #0D34AC",
"K. c #182D94",
"L. c #4434B0",
"P. c #5D318D",
"I. c #124C90",
"U. c #304A97",
"Y. c #076A84",
"T. c #007486",
"R. c #017C92",
"E. c #1A709B",
"W. c #28748A",
"Q. c #154CA4",
"!. c #1D65B8",
"~. c #606497",
"^. c #076CD2",
"/. c #296ECF",
"(. c #5F78C9",
"). c #875C82",
"_. c #9E6189",
"`. c #02869A",
"'. c #128D99",
"]. c #0295AB",
"[. c #0298B7",
"{. c #058FA8",
"}. c #3297AD",
"|. c #02A4B8",
" X c #11ACB8",
".X c #2CB4BB",
"XX c #2B909C",
"oX c #508691",
"OX c #6F9099",
"+X c #4896AC",
"@X c #6A94A2",
"#X c #4DA9BA",
"$X c #00A9C5",
"%X c #05B5CB",
"&X c #02B9D2",
"*X c #13B8CD",
"=X c #2EBBC9",
"-X c #2794E4",
";X c #65B3C9",
":X c #5CA5E6",
">X c #02C6DA",
",X c #16C7D8",
"<X c #31CCD2",
"1X c #06D6E8",
"2X c #17D5E6",
"3X c #10ECF8",
"4X c #39E5EB",
"5X c #37EBF4",
"6X c #27F5FA",
"7X c #38FCFD",
"8X c #27E5F0",
"9X c #2DDAE5",
"0X c #48C8D9",
"qX c #47FCFC",
"wX c #53FFFF",
"eX c #58FDFE",
"rX c #41E6ED",
"tX c #77FDFD",
"yX c #63F8FA",
"uX c #6CDAE1",
"iX c #92928F",
"pX c #91AEB0",
"aX c #AEA3A0",
"sX c #F5B38C",
"dX c #F2B7A1",
"fX c #D2A88F",
"gX c #FFCA8B",
"hX c #D6C6B0",
"jX c #FBDBB8",
"kX c #EBCCB3",
"lX c #FEE4B6",
"zX c #FFF49A",
"xX c #9EABC1",
"cX c #A3B8CB",
"vX c #C2BDCB",
"bX c #8AC3CF",
"nX c #8CD6E7",
"mX c #88FFFF",
"MX c #9FF9FC",
"NX c #A6FEFF",
"BX c #B9FFFF",
"VX c #B0EDE1",
"CX c #B8D1DD",
"ZX c #D0CDD6",
"AX c #EEDAD5",
"SX c #FEE7C7",
"DX c #FDFAD4",
"FX c #FFF8CB",
"GX c #C8FDFE",
"HX c #D7FDFE",
"JX c #D0E8EE",
"KX c #EAFDFE",
"LX c #FEFFFF",
"PX c #FAFAF8",
"IX c #F6F5E8",
"UX c #CEDFE1",
/* pixels */
"~ ~ > s d w u q 0 u s u q q q 1 d d p w a w s i u 2 w q u q i p ~ ~ > s d w u w 0 i s u q q q 1 d d p w i w s i u q w q u q i p ",
"d d s i u w u 1 0 q N 4 u q 1 u d s s u < s e.s w.i u q i 2 d p d d s i u w u 2 0 q q u u q 1 u d s s u < p e.s w.i u q i 2 d p ",
"p u p f d < u d i f . # d d f q q q w B r s w s p 1 2 2 w 1 s p p u p f d < u d p f i > d d f q q q w p i s w s p 1 2 2 w 1 s p ",
"w d f f w.q u s u 4 W.v s p i u f p s n + a a w d s f d s d e s w d f f w.q u s u i ~ 1 g p i u f p s f W s s w d s f f s d e s ",
"w p u s 2 < q u u . 7X;X$ , 4 a f f s M _ H e u s s f r r u 1 , w p u s 2 < q u u w 0 q w w w f f f s i i 2 a u s s f p u u 1 , ",
"w u 2 w i q w 1 r V <XHXvXk G m w e 2 # UXCX# 1 i d i j 4 i w u w u 2 w i q w 1 u q i i p f w u i p 2 Q f u w q i d i i a i w u ",
"d q w W s d d u c IXtX3XBXHX7X0Xx x e #  XHXaXo p d p n Y w s Q d q w W s d d i > u s s p d i d d u i a g u u w i d p ~ s w s Q ",
"i w f a s d d d c PXmX6X7XNXLXLXJX4XG   |.BXLXpX# 9.c <XW.4 E p i w f a s d d f 2 f f ! Q f s w., Q g w 2 u u d d 9.W i s a E p ",
"u e r.9.u u w v [.KX+X,XqX9X0XNXLXLXAXU |.qXGXZX  # =XwXW.& u d u e r.9.u u w i w d a ~ d g W g q d Q Q p 1 d d w.i i u w w u d ",
"u 0 ~ Y N w 0 b >XKXW.R.5XqX>X%X0XNXBXXX X6XBXZXJ [.wXyXI 4 f u u 0 ~ W q w w w u d s f Q g p f w W W a ( w p Q r.u u w w w W u ",
"i 1 d N j 4 i b %XLXoX{.2XrXeX$X[.1X2XT..X3XMXUXT.].|.|.b O 4 Y B 1 d u s q i p w i p f f f f f w s Q u w 1 d s d u w u , @ p ( ",
"e u s T K K 4 j &XBXW.%X8X%XrXwX*X[.[.R.<X>XnXAXJ {.@X@X~.oXK X N u s e.W s f u q s w s s i Q ( , w u s e w s Q u u q w e.0 W e.",
"e d f $ '.yXS C [.2XT.#XtX2X%X5XwX,X*X%X5X1XuXbX].NXHXKXLXmXI % e d f s q u u w Q s 1 w i w Q u w w 1 w.i s 0 w , ! d W f u w e ",
"W s w $ P mXLX0XT.J J ZXKXqX2X%X4XwXwX&X4X9X[.2XBXJX,X6XrXK * w W s w q u 2 , d p d ~ w r w u i s i s u w e f ! u Q W e e u , w ",
"f a w $ U 7XeXKX=XT.J bXLXGX7X8X%X4XwX,X9X,X,XGXJX$X5XqXK O & d W a w q i W w i W d W W w , f W W f W i , W d a i d i w u 1 < d ",
"u 2 1 $ U 5X%XyXLX=XP  XNXLXGX7X4X$X4X,X$X$XnXJX|.$X%X`.m 4 w u u 2 1 q s g u i d s u i w p e.r.e.e.f d 2 f Q e u u u u s i w u ",
"u 2 g 1 4 W.7X&XtXLX*X[.1XBXLXGX6X&XT.J {.1X XP P P T.P x o r w u 2 g 1 s u s a d p p 2 1 p Q W i a a s 2 s s w w w d s u w f w ",
"q w u q a % XX8X>XmXKX;X|.8XGXLXGXT. X<X&X`.{.<X<X=XP ].[.[.G * q w u q p u ~ w s d u w w d W w 2 w s w , 0 w q q s s u w w i < ",
"Q p u 1 Q u . =X6X>XBXuX$X|.'.@XpX.XqXqX6XT.'.7X7XwX].R.>X3X%XG S p w 1 Q i q > u d w w q d f s w w p 1 2 s d i i s w 2 1 u q w ",
"f d B B % $ . J <X&X1X1X].`.'.R.P wXqXtXNX,X*XGXNX6X2X`.`.].3X[.o d u w , u 1 2 1 i w 0 i w f w w 1 1 q s d d d i t.u d s d w u ",
"q E B x C Y.I R.J `.{.].`.=XtX4XT.qX7XHXAXpX#XcXVXNXqX3XY.m R.Y.# E d w @ q g d f w , i f f , , w u d f f d i 9.s w f i p i ! s ",
"w Q i 4 G >X3X>X`.R.`.J .XeX5X,XU <X7XKXdXm.n.K U AXMXeXK O + x n Q i 0 , i d g i s 2 d i Q u i d d d i f ~ s s 1 d s w q 2 1 q ",
"w q w s s G |.[.|.|.%XT.=X6X[.@XA.P %XNXIXlXSXjXy.X vXtXY.& , % M q w s Q q u u i i u i u p i w u s s u u s 2 2 d a u q 1 2 , 0 ",
"s e d s s r o x T.T.P J =X3X}.m.A.P J >XVXjXSXDXhX. . 4XW.4 0 0 s e d s s p i u q w 1 s q i w ! 1 s s w a a 2 w d w 0 2 2 s q 0 ",
"u w Q s d w a n $X&XC q.` &XuXN.p.D OX`.` sXSXDXhXj , H n T u a u w Q s d w d u u 2 w u 2 i w u u u i w w w w 0 u w 1 e.Q W u i ",
"q w u d 4 c v $X1X1XC q.N.oXXXS.p.7 ZXJXoXH pXkXV r s E x N s ~ q w i d q d i g u u d g f > u s W Q d 0 u f f d d d s Q s 2 s ~ ",
"0 w w w t % B Y.K K l t.D.y.T S.A.y.fXPX,X[.UXaXo Q s p 4 4 s s 0 w w w w w q 0 E g s Q u f p i d ~ Q w d f w w w Q d p 2 2 s s ",
"0 w , d u w w @     X H L S q.S.A.S.p.kXVXUXLXhXo w w W a 2 i s 0 w , d u w w > ! i w u g d q q w u w a f w u w w w w W a 2 i s ",
"w 2 < w s q d Y I.W.Z z 4 7 } y.S.A.p.dXSXDXhXL j B B S B t 1 s w 0 < w s q d f i w u w s u u u q u p 0 Q w a u w i a ^ a w 1 s ",
"2 1 1 u q w % R @X+X^.7.5.B.O.D y.S.sXSXIXkX/ B / 6 f w.N & 2 q 2 , 1 u q w q p s u q 1 i 1 w w , 2 a a a a w w s , p u w > 2 q ",
"a e w e 4 $ V D.S.U.$Xt.1.V.D.A.{ y.dXkXhX0.{ V.4.1.D.S.S # r u i w w i u w w d u e w s d i Q s q s r.d 1 , 1 2 w q q , u 1 u u ",
"W s 1 B b # q.FXDXU.^.0.1.B.sXSXA.D 7 7 : y.sXp.;.V.}.J.J.Z % s W s 2 s d i s u 0 1 W d i ~ d 2 u Q ~ f e w a d i i u w i i u s ",
"~ ~ o ` IXfX{ jXSXU.J.7.5.B.n.#XlXjX0.%.dXSXSXsXz.M.U.!.}.L % p ~ ~ > d d w u w 0 i s u q q q 1 d d p w i w s i u q w q u q i p ",
"d s k ) lXkX{ 0.V n n k t.C.y.J.;XDXq.fXDXFXbX@Xx.M.U.u.A.S.R % d d s i u w u 2 0 q q u u q 1 u d s s u < p e.s w.i u q i 2 d p ",
"p u e 4 _ :X(.P.o o p % 7 <.fX!.U.;X+X#X;X+XnXCXu.X.c fXlXsXq.O # u s f d < u d p f i > d d f q q q w p i s w s p 1 2 2 w 1 s p ",
"w f f % Z :X-XA aXaXt * $.:.3.aX!.Q.!.Q.Q.H./.HXZX2.o AXLXsXA.hXiXB d f w.q u s u i ~ 1 g p i u f p s f W s s w d s f d s d e s ",
"u p i e H U.L e.&.&.w.Q i h =.:.iXK.H.H.H.P.q.A.zXZ.. L ~.p.gXLXSXX w s 2 < q u u w 0 q w w w f f f s i i 2 a u s s f p u u 1 , ",
"u u q i i * h n.h $.b.b.b.= 9 ' l.u._.u.~.V.,.+.$.E iXR   L vXxX` % 2 w i q w 1 u q i i p f w u i p 2 Q f u w 0 i d i i a i w u ",
"f q u g r T &.&.F.y.x.G.f.:.&.> t.l.z.z.z.V.p.: l U jXgX) ^.-XQ.O q w W s d d i > u s s p d i d d u i a g u u w i d p ~ s w s Q ",
"a w g g u T w.x.x.C.g.g.h.,.:.Q R ' ] O.+.~.^.. _ jXA.jXFXxX/.U.# w f a s d d f 2 f f ! Q f s w., Q g w 2 u u d d 9.W i s a W p ",
"i u r.e.y = = F.z.>.g.h.>.,.;.3.5 S F L.L.L.A X j m jXDXsXS.) M u e r.9.u u w i w d a ~ d g W g q d Q Q p 1 d d w.i i u w w u d ",
"i q w.w.y = - lXk.;.f.h.;.>.<.:.@.R _ (.-X).o.{ x x kXsXdXFX` $ u 0 ~ W q w w w u d s f Q g p f w W W a ( w p Q r.u u w w w W u ",
"p q g g h = 9 gXg.h.g.h.h.f.<.:.$.7 $.%.p.C.1.6.V.N.V j kXiX% ^ i 1 d u s q i p w p p f f f f f w s Q u w 1 d s d u w u , @ p ( ",
"u i g t.g 9 9 j.g.,.g.h.,.,.>.:.#.8 %.-.5.C.V.5.1.B.] j C % W e.e u s e.W s f u q s w s s i Q ( , w u s e w s Q u u q w e.0 W e.",
"w f g g y = - k.f.;.g.h.>.>.;.l.#.8 p.2.4.C.V.m.4.M.z.} &.R 4 e e d f s q u u u Q s 1 w i w Q u w w 1 w.i s 0 w , ! d W f u w e ",
"g d i y y = = d.k.g.g.h.g.>.:.@.@.8 M.4.X.2.a.C.V.M.V.4.5.E M w W s w q u 2 , d p d ~ w r w u i s i s u w e f ! a Q W e e u , w ",
"g a i u d d = = *.k.k.h.k.l.#.#.] | 3.1.1.1.1.a.V.M.M.V.5.4 # d f a w q i W w i W d W W w , f W W f W i , W d a i d i w u 1 < d ",
"i q q u g g 2 < ' #.*.*.$.@.@.&.{ : ; | p.F.3.2.m.V.V.M.C.9.M w u 2 1 q s f u i d s u i w p e.r.e.e.f d 2 f Q e u u u u s i w u ",
"u q g q f t S | ] %.$.$.#.=.*.M N N v v n k / m.2.m.m.m.B.O.; N w 2 g 1 s u s a d p p 2 1 p Q W i a a s 2 s s w w w d s u w f w ",
"q q u u r 5 X.| -.-.=.] 3.3.{ N u i s w , q % R m.-.X.X.2.[  .{ n w u q p u ~ w s d u w w d W w 2 w s w , 0 w q q s s u w w i < ",
"g p u 1 T 5 o.[ X.-.-.| | 7 B d i i p 1 2 s Y z } m.X...X.[  .{ n p u 1 Q i q > u d w w q d f s w w p 1 2 s d i i s w 2 1 u q w ",
"f d u w % 5 o.[ [ [ [ :  .{ V i u 1 1 q s d Y 5 ..[ [ [ [ : ..$.v d u w , u 1 2 1 i w 0 i w f w w 1 1 q s d d d i t.u d s d w u ",
"q E d u & 5 o.: : : ; } o.: n 1 u u d g d d B z  . .: : ; } o.: m E d w @ q g d f w , i f f , , w u d f f d i 9.s w f i p i ! s ",
"w Q p q % Z F ..o...o.} S z t i d d d p f ~ r V z 7 ..+.]  .: c 4 Q i 0 , i d g i s 2 d i Q u i d d d i f ~ s s 1 d a w q 2 1 q ",
"q q q d r A P.0.{ { } B N t i w u s s u u s 2 1 B V 7 t.2.7.C % w q w s Q q u u i i u i u p i w u s s u u s 2 2 d a w q 1 2 , 0 ",
"s e d p r 7 8.J.b c c r q i w ! 1 s s w a a 2 w s w b $Xs.iX{.# a e d s s p i u q w 1 s q i w ! 1 s s w a a 2 w d w 0 2 2 s q 0 ",
"u w Q e B F 8.A v 0 w u 2 i w u u u i w w w w 0 u w c E.i._.I.$ u w Q s d w d u u 2 w u 2 i w u u u i w w w w 0 u w 1 e.Q W u i ",
"q w i B C ).2.c u u s f f > u s W Q d 0 u d f d d d d # K.s.%.H 1 w i d q d i g u u d g f > u s W Q d 0 u d f d d d d ! s 2 s ~ ",
"0 w w M R c.v.c E W s Q u f p i d ~ Q w d f w w w Q d p k d.c.d.k w w w w w q q E g s Q u f p i d ~ Q w d f w w w Q d p 2 2 s s ",
"0 w , B S 2.H @ ~ i w u g d q q w u w a f w u w w w w W r H 6.} n w , d u w w > ! i w u g d q q w u w a f w u w w w w W a 2 i s ",
"w 0 # D s.U.l f i w u w s u u u q u p 0 Q w a u w i a ^ a + U._.{ N < w s 0 d f i w u w s u u u q u p 0 Q w a u w i a ^ a w 1 s ",
"2 , 1 u q w w a s u q 1 i 2 w w , 2 a a a a w w s , p u w > 2 q 2 , 1 u w w q p s u w 1 i 2 w w , 2 a a a a w w s , p u w > 2 q ",
"i u w i u w w E u w w s d i Q s q s r.d 1 , 1 2 w q q , u 1 u u u w w i u w w d u w w s d i Q s q s r.d 1 , 1 2 w q q , u 1 u u ",
"W s 2 s d i s w 0 1 W d i ~ d 2 u Q ~ f e w a d i p u w i i u s W s 2 s d i s u 0 1 W d i ~ d 2 u Q ~ f e w a d i i u w i i u s "
};
