/* XPM */
static char *xpm_[] = {
/* columns rows colors chars-per-pixel */
"64 64 256 2 ",
"   c #060418",
".  c #1A1318",
"X  c #120B0F",
"o  c #241A1A",
"O  c #370912",
"+  c #30231C",
"@  c #1C1B2D",
"#  c #181527",
"$  c #1C1C34",
"%  c #161A35",
"&  c #0B112D",
"*  c #261B28",
"=  c #241E34",
"-  c #36122E",
";  c #19223A",
":  c #2B232B",
">  c #392A29",
",  c #3D3225",
"<  c #282837",
"1  c #352B35",
"2  c #3E3334",
"3  c #35353A",
"4  c #581214",
"5  c #6E1414",
"6  c #542C15",
"7  c #713214",
"8  c #4A1638",
"9  c #591537",
"0  c #4F0B2B",
"q  c #6A152E",
"w  c #453425",
"e  c #4A3726",
"r  c #4A362B",
"t  c #4D3A2A",
"y  c #48362A",
"u  c #543E2C",
"i  c #583F2C",
"p  c #503729",
"a  c #443334",
"s  c #4A3935",
"d  c #533D33",
"f  c #593834",
"g  c #4B2A30",
"h  c #7B2A38",
"j  c #6A3031",
"k  c #794C18",
"l  c #56402E",
"z  c #5A422E",
"x  c #584A29",
"c  c #5D4431",
"v  c #5E4834",
"b  c #584438",
"n  c #4D4138",
"m  c #684628",
"M  c #774B26",
"N  c #614633",
"B  c #644935",
"V  c #694D36",
"C  c #664C39",
"Z  c #6A4E39",
"A  c #61473B",
"S  c #6D513B",
"D  c #72543D",
"F  c #775639",
"G  c #6C5231",
"H  c #0B184E",
"J  c #363547",
"K  c #2D344E",
"L  c #1E3668",
"P  c #2B3A6C",
"I  c #1A0C5F",
"U  c #48344A",
"Y  c #6E384B",
"T  c #4F1F60",
"R  c #3B4B6E",
"E  c #4F4650",
"W  c #6D5443",
"Q  c #745641",
"!  c #765943",
"~  c #7B5B44",
"^  c #7D5D48",
"/  c #765C4A",
"(  c #704949",
")  c #7D614A",
"_  c #7A6259",
"`  c #484E6E",
"'  c #6A5566",
"]  c #6C666C",
"[  c #5F6873",
"{  c #8A0F12",
"}  c #B30B06",
"|  c #AA2D12",
" . c #8D182B",
".. c #873539",
"X. c #963630",
"o. c #A72F28",
"O. c #843609",
"+. c #C71805",
"@. c #D71800",
"#. c #C1150D",
"$. c #EF1109",
"%. c #D22D07",
"&. c #E82502",
"*. c #FE113B",
"=. c #894A17",
"-. c #895B2A",
";. c #8E4D31",
":. c #B24E30",
">. c #97682C",
",. c #AA7332",
"<. c #98631D",
"1. c #DB4D13",
"2. c #FF5600",
"3. c #FD5718",
"4. c #F04F0C",
"5. c #DA6E13",
"6. c #FC6700",
"7. c #FA7800",
"8. c #F36C06",
"9. c #CC4F33",
"0. c #F0752D",
"q. c #CD6729",
"w. c #883A45",
"e. c #D42B58",
"r. c #825E48",
"t. c #944E4E",
"y. c #A6514A",
"u. c #83644C",
"i. c #896A53",
"p. c #926D53",
"a. c #93735B",
"s. c #8B6F54",
"d. c #B27249",
"f. c #906D68",
"g. c #B47369",
"h. c #965A64",
"j. c #CE6952",
"k. c #D96C5B",
"l. c #B29426",
"z. c #FC8800",
"x. c #FF9500",
"c. c #FF9A00",
"v. c #FF9A0F",
"b. c #EE8C0C",
"n. c #D28D3A",
"m. c #FE9437",
"M. c #FF9929",
"N. c #FEA82B",
"B. c #D99A1D",
"V. c #F8E80D",
"C. c #AE8B4F",
"Z. c #8D8271",
"A. c #A98E6C",
"S. c #9EA55A",
"D. c #C6954B",
"F. c #F89741",
"G. c #F1984D",
"H. c #FEA949",
"J. c #FAB64C",
"K. c #CC9475",
"L. c #E89B62",
"P. c #FFC551",
"I. c #FFC471",
"U. c #FFF458",
"Y. c #0C1193",
"T. c #372C80",
"R. c #4E3C88",
"E. c #2D4D90",
"W. c #2E59A2",
"Q. c #22629A",
"!. c #485B96",
"~. c #495686",
"^. c #4E619B",
"/. c #56679B",
"(. c #5A668A",
"). c #6F7491",
"_. c #566BA4",
"`. c #516DA9",
"'. c #6777A9",
"]. c #6F7EAF",
"[. c #625E8E",
"{. c #4F73CF",
"}. c #4B7EFF",
"|. c #2559E4",
" X c #987199",
".X c #EA4E9B",
"XX c #9D76D7",
"oX c #8B2994",
"OX c #7684A8",
"+X c #7789B7",
"@X c #748FBE",
"#X c #7B8792",
"$X c #7790C5",
"%X c #5990F0",
"&X c #6B95E7",
"*X c #888A98",
"=X c #988F91",
"-X c #B09191",
";X c #B9AB92",
":X c #9A9CA8",
">X c #8694B9",
",X c #949DBB",
"<X c #878DAB",
"1X c #9CA1B1",
"2X c #ACACB4",
"3X c #B69AAB",
"4X c #E89C83",
"5X c #D3AF94",
"6X c #F0AD8E",
"7X c #DCBAA9",
"8X c #F7BBA5",
"9X c #C98D84",
"0X c #FFCA91",
"qX c #D6C7AE",
"wX c #FCD6B5",
"eX c #F1CFAC",
"rX c #FDEABD",
"tX c #FFE0AC",
"yX c #FFE893",
"uX c #869AC6",
"iX c #8CA1CA",
"pX c #97A4C5",
"aX c #8DA4D0",
"sX c #95ABD4",
"dX c #9FB4DA",
"fX c #A7B2CD",
"gX c #A6B8D9",
"hX c #B4BED6",
"jX c #B0B1C5",
"kX c #8DB7EB",
"lX c #A5BCE3",
"zX c #B6C3DC",
"xX c #BEC1C5",
"cX c #B8C9E5",
"vX c #B9D4FA",
"bX c #B1C9F0",
"nX c #C7C6CB",
"mX c #CED0D3",
"MX c #EBDCCD",
"NX c #FCF7CB",
"BX c #F3F1CF",
"VX c #C4D3E9",
"CX c #D3DCEA",
"ZX c #C8D8F0",
"AX c #DCE2EB",
"SX c #DBE8F8",
"DX c #D3ECFD",
"FX c #FDFEE7",
"GX c #E6EDF6",
"HX c #EEF4FA",
"JX c #E9F5FC",
"KX c #F3FAFE",
"LX c #FEFFFF",
"PX c #F3F6FF",
"IX c #EBECE6",
"UX c #E9DFE1",
/* pixels */
"^ ^ e Z S c N z l B Z N z z z u S D V N C c S B N z c z N z B V ^ ^ e Z S c N c l B Z N z z z u D D V c B c Z B N z c z N z B V ",
"S S Z B N c N u l z z N N z u N S Z Z N w V s.Z u.B N z B i S C S Z Z B N c N i l z z N N z u N S Z Z N w V s.Z u.B N z B i S C ",
"V N V D S w N S V D B e S 2 $ $ $ @ @ v B Z c Z V u i i c u Z V V N V D S w N S V D B e S S D z z z c V B Z c Z V u i i c u Z V ",
"c S D D u.z N Z N B ^ u D v . [ GXmXmX< X d Z c S Z D S Z S v Z z S D D u.z N Z N B ^ u D V B N D V Z D Q Z Z c S Z D D Z S v Z ",
"c V N Z i w z N N c l z c c c 2 2XLXLXnXnXJ e N Z Z D * . o . . . o N Z i w z N N c l z c c c D D D Z B B i C N Z Z D V N N u t ",
"c N i c B z c u N z B B Z D c c 1 :XAXJXLXxXU > B S > ).).R ).*X:X1X1 : b z c u N z B B Z D c N B V i ! D N c l B S B B C B c N ",
"S z c Q Z S S B w s Z Z V S B S v   CXdXVXLX*XX B a ` JXLXDXKXLXLX2X< * b S S B e N Z Z V S B S S N B A D N N c B S V ^ Z c Z ! ",
"B c D V Z S S D a $ D ~ ! D Z u., < CXbXzXLX1X: s K uX$XfXzXGXLX).. D V Z S S D i D D ~ ! D Z u.t ! D c i N N S S r.Q B Z C W Z ",
"N v a.r.N N c B s = b ^ S D Q D y < AXcX$XcXJX>X% ].'.'.^.E.hX*Xo v i.^ N N c B c S Z ^ S D Q D z S ! ! C u S S u.B B N c c N S ",
"N l ^ Q z c c c b $ < Z ! D V D r < AXcXaXaXCXhX'.GXHXGXgXJX*Xo N d % A z c c c N S Z D ! D V D c Q D B ) c C ! a.N N c c c Q N ",
"B u S N Z z B V l K iX$ v D D D d < AXcX$XGX,X/.PXHXHXgXVXLX*X+ V u   d Z z B V c B Z D D D D D c Z ! N c u S Z S N c N t , V ) ",
"v N < < 1 * # . X ; bXiX< u / W X # AXlXVX>X].CXLXGXHXaXSX:Xs i.c * 2XE A Z D N z Z c Z Z B / ) t c N Z v c Z ! N N z c i.l Q i.",
"v S a 2   ).nX:X:X*X_.vXpXJ + J 2X:XzXVXKXfXVXKXcXAXcXcXLXE X + 1 2XLX` w N N c ! Z p c B c / N c c u u.B Z l c t ~ S Q D N c v ",
"Q Z c z r E CXLXLXKX>X^.vX/.K nXLXLXaXCXHXLXLXVXsXGXsXAXLX,X` R OXLXHXJ r i t S V S ^ c b c N B Z B Z N c v D ~ N / Q v v N t c ",
"D C c 1 B S # +XJXLXLXpX/.+XPXLXVXVXsXAXLXGXVXgXdXVXlXKXCXlXbXZXSXLXLXE y Q c B Q S Q Q c t D Q Q D Q B t Q S C B S B c N u w S ",
"N i u $ * D N : +XSXLXLXpXhXKXgX!.`.iXCXhX'.@XlXuX`.'.>XcXbX`.fXLXDX1X3 v D N B S Z N B c V i.a.i.i.D S i D ! v N N N N Z B c N ",
"N l D @ ` U d d : >XSXCXHXcX$X'.'.OXgXiX'./.OXsXzXOX'./.fXAX+X>XhX(.* u Z N Z Z S V V i u V ! Q B C C Z i Z Z c c c S Z N c D c ",
"z c N # aXOX# 1 Z $ aXsXsXdX_.<XLXLXHX^.hXLX>X/.HXKXLXLX'.>XLXVXL . c z V N ^ c Z S N c c S Q c i c Z c t l c z z Z Z N c c B w ",
"! V N t * (.vXOX  % _.sXlX_.>XKXGXHXGX_.hXLXKXfX^.gXGXHXHX'.pXJXsXuX< r ! B l e N S c c z S D Z c c V u i Z S N B Z c i u N z c ",
"D S N c w : OXvX>X>XuXsXgX!.,XLXCXgXlX`.zXLXKXHXfX_.sXGXLXGX>X+XvXvXsXJ w c p i u B c l B c D c c u u z Z S S S B p.N S Z S c N ",
"z Q S c , u > ).DXbXlXgXbX!.,XLXZXuXh.t.'.kXAXLXCXW.sXvXSXLXgXL J ` ` < @ a D S D c t B D D t t c N S D S S B r.Z c D B V B ~ Z ",
"c / B l t B Z s ` '.'.$X$XuX@XVXKXuXo.| w.!.&XJXUXh.` K CXLX<X# > s w 2 2 N Z D B Z i S B ! N B S S S B D ^ Z Z u S Z c z i u z ",
"c z z Z b 1 a s [ +X].P H @X'.~.vXCX4XL.9.h ^.kXMXo.X o [ LX:Xo c z c Z S , a d B B N B N V B c N Z Z N N Z i i S Z N z u i t l ",
"Z v S Z 1 <   K sXlXuX# O P ` 9 [.cXmXmX4X9...`.uXg.= i + *X*X* Z v S d U [ J # z c p Z z B c ~ p Z Z c Z Z i c S c l i i Z z l ",
"N c ! Z S c b @ @ !.^.% y.j = y.g./.~.E.xX6X9...).NXJ / ~ a & 1 N c Z < qXFX-X: c i c N i B c N N N B c c c c l N c u s.! Q N B ",
"z c N S z S B D c K !.% ..j.h  XNXwX( #X`.nX6XX.k.eX3 W Z i 1 1 z l @ qXFXg.4X7X# c S D D e N Z Q ! S l N S D S S S Z ! Z i Z ^ ",
"l c c c c c z z W A $ & t.k.h =XLXIXj nXJX@XE.<XeX< Z Z i i C Z t . X.wXFXh.-XwXh = Z / N D V B S ^ ! c S D c c c / S V i i Z Z ",
"l c t S N c c e ^ V d & < 1 - 3XLXLX7XMXKXR ~.KXrX  * Q C i B c ; {.8XrX4XY t.4X5X% c N D S z z c N c Z D c N c c c c Q C i B Z ",
"c l w c Z z S D V < 2 j q f ;.t.jXLXNXwXMX-XBXIXE q q * A c w K %XkXFXNXg.- O L.FX% N c Z N N N z N C l ! c C N c B Z / A c u Z ",
"i t u N z c z v a j ( 6X6Xj.:.X.( =XMXBXrXFXwXY j 0X6X=X3 o O R.|.~.4XrX]   f.wX] 2 z u B u c c t i Z Z Z Z c c Z r C N c e i z ",
"B c c B N c c n a 9.9.K.qXA.;.=.7 6 _ a.A.;X;.4 y.qXFXLXf.s K.g.I X q NX] . f.=X> c c Z S N ! Z z Z a.S u t u i c z z t N u N N ",
"Q Z i Z S B S l * :.d.;.r.u.m 7 =.M m N 6 Y 9XK.' Y 8XwXy.4XLXeX5 @ @ ;X' d d * z u D S B ~ S i N ! ^ D v c Z S B B N c B B N Z ",
"^ ^ e Z S N v y j K.;XZ.M l.,.N.I.z.5.A.S f.nXKXeXY h X.Y 7XBX] 2 ^ e : < s N c l B Z N z z z u S S V c B c Z B N z c z N z B V ",
"S S Z B N N 2 - k.eXA.u.B.N.J.c.x.c.8.5.A.Z F MXeXY & U X.eXZ.: S S Z B N c N i l z z N N z u N S Z Z N w V s.Z u.B N z B i S C ",
"V N V D S w s 1 w.j.A.6 D.M.6.x.c.6.7.4.n.M M ;X5X: l < = < a C V N Z D S w N S V D B e S S D z z z c V B Z c Z V u i i c u Z V ",
"c S D D u.> ] MXeXK.;.E tXv.2.z.c.2.6.8.5.k 7 r.5X: D Z v v b Z z S D D u.z N Z N B ^ u D V B N D V Z D Q Z Z c S Z D S Z S v Z ",
"c V N Z i # j 0XFXqX' W 0Xx.c.x.x.c.z.8.5.-.F p.t.< D V N N u t c V N Z i w z N N c l z c c c D D D Z B B i C N Z Z D V N N u t ",
"c N i c B t > j s.' ` W v.x.7.x.c.7.7.8.5.M -.S.q.= B C C N c N c N i c B z c u N z B B Z D c N B V i ! D N c l B S B B C B c N ",
"S z c Q Z D Z 2 + w > f b.z.2.z.c.2.6.4.q.O.O.G >.v Z r.Z c Z ! S z z Q Z S S B e N Z Z V S B S S N B A D N N c B S V ^ Z c Z ! ",
"B c D V Z S D F N F 6 6 l.b.x.x.c.x.8.5.7 7 7 < = ~ v Z Z C W Z B c D V Z S S D i D D ~ ! D Z u.t ! D c i N N S S r.Q B Z C Q Z ",
"N v a.r.N N N V V F m m 7 ,.b.b.c.b.d.E U P g.N.1 a - s d d d Z N v a.r.N N c B c S Z ^ S D Q D z S ! ! C u S S u.B B N c c N S ",
"N l ^ Q z c c N V F F G m 6 k <.>._ ( ' ).&X-XN.H.F.%.8 ; * = 2 c l ^ Q z c c c N S Z D ! D V D c Q Q C ) c C ! a.N N c c c Q N ",
"B u S N Z z B V N G F F w -.=.-.,.-.-.| 0.t.y.J.H.H.m.F.H.%.3.d.= u S N Z z B V c V Z D D D D D c Z ! N c u S Z S N c N t , V ) ",
"v N Z i.Q Z D N c D V < ,.n.,.=.<.<.,.%.b.;.;.P.H.H.H.H.H.H.3.{ ; N Z i.Q Z D N z Z c Z Z B / ) t c N Z v c Z ! N N z c i.l Q i.",
"v S D Z z c N N ~ < : { 7.J.G.n.n.D.G.%.M.p.5 &.+.%.H.H.F.J.m.%.5 < D Z z N N c ! Z p c B c / N c c u u.B Z l c t ~ S Q D N c v ",
"Q Z c z N u t D a 5 8 k.0XI.m.J.F.1.1.&.9.o.%.0.3.3.3.H.P.m.yXG.} = < z N i t S V S ^ c b c N B Z B Z N c v D ~ C / Q v v N t c ",
"D C c z B Q f g 8 } h LXIXL.J.F.1.4.4.| - 4 :.C.C.d.{ :.d.m.0X8Xj.0 4 2 v Q c B Q S Q Q c t D Q Q D Q B t Q S C B S B c N u w S ",
"N i u z Z D f q  .8 q 6X9.1.m.3.1.D.D.3 $ < < @ % % & 0 0 y.:.g.2X0 $.g n D N B S Z N B c V i.a.i.i.D S i D ! v N N N N Z B c N ",
"N i D u Z N s 4 @.9 9 } +.} } 1.C.& % Z i V Z c c c $ +. .- 0 0 0  .+.- n B Z V S V V i u V ! Q B C C Z i Z Z c c c S Z N c D c ",
"z c N z V N E 4 @.9 9 9 9 9 q 8 < N C c t i c z z Z $ +. .8 9 8 { @.q $ b B ^ c Z S N c c S Q c i c Z c t l c z z Z Z N c c B w ",
"! V N u ! B 3 4 $.} 8 8 8 - o.o.; v Z u i Z S N B Z d = } &.+.@.} 9 Y.H v B z e N S c c z S D Z c c V u i Z S B B Z c i u N z c ",
"D S N c t N > P  X@.} #.#.+.#.9 ; i u z Z Z Z S B p.N b g 5 8 T T q H 2 e N p i u B c l B c D c c u u z Z S S S B p.N S Z S c N ",
"z Q S c , z t Q.%X*.XXg 4 5 - $ d N S D D S B r.Z c S B b s K Y.Y.} * c , z D S D c t B D D t t c N S D D S B r.Z c D B V B ~ Z ",
"c / C l t N u O .XXXW.a 2 E 2 b S S S B D ^ Z Z u S Z c z i r 1 I I & l t B S D B Z i S B ! N B S S S B D ^ Z Z u S Z c z i u z ",
"c z c Z ! r L oX*.Q.> B N V B c N Z Z N N Z i i S Z c z u i t , 3 S.l.2 ! z N N B B N B N V B c N Z Z N N Z i i S Z c z u i t l ",
"Z v S Z Z + Q.mX3.X p Z z B c ~ p Z Z c Z Z i c S c l i i Z z 2 x V.U.X.> n N N z c p Z z B c ~ p Z Z c Z Z i c S c l i i Z z l ",
"N c ! Z S 1 k V.l.< c N i B c N N N B c c c c l N c u s.! Q N B d H }..X .= a b N i c N i B c N N N B c c c c l N c u s.! Q N B ",
"z c B S i 3  .e.& N S D D e N Z Q ! S l N S D S S S Z ~ Z i Z ^ y $ %X%Xe.$. .< N N S Q D e N Z Q ! S l N S D S S S Z ~ Z i Z ^ ",
"l c c c < { .X{.@ D Z / N D V B S ^ ! c S D c c c ! S V i i Z Z l c v b N N N u W Q Z / N D V B S ^ ! c S D c c c ! S V i i Z Z ",
"l c t S N c c e ~ B c N D S z z c N c Z D c N c c c c Q C i B Z l c t S N c c e ~ B c N D S z z c N c Z D c N c c c c Q C i B Z ",
"c l w c Z z S D C c N c Z N N N z N C l ! c C N c B Z / A c u Z c i w c Z c S D B c N c Z N N N z N C l ! c C N c B Z / A c u Z ",
"i t u N z c z V Z N z u B u c c t i Z Z Z Z c c Z r C N c e i z i t u N z c z V Z N z u B i c c t i Z Z Z Z c c Z r C N c e i z ",
"B c c B N c c S N c c Z S B ! Z z Z a.S u t u i c z z t N u N N B v c B N c c S N c c Z S B ! Z z Z a.S u t u i c z z t N u N N ",
"Q Z i Z S B Z N l u Q S B ^ S i N ! ^ D v c Z S B B N c B B N Z Q Z i Z S B Z N l u Q S B ^ S i N ! ^ D v c Z S B B N c B B N Z "
};
