/* XPM */
static char *xpm_[] = {
/* columns rows colors chars-per-pixel */
"64 64 256 2 ",
"   c #080618",
".  c #150B10",
"X  c #300F14",
"o  c #2F231E",
"O  c #080A24",
"+  c #1A1627",
"@  c #1C1B35",
"#  c #12082D",
"$  c #271D27",
"%  c #331530",
"&  c #182237",
"*  c #2B232B",
"=  c #372927",
"-  c #3F3022",
";  c #3D312C",
":  c #272735",
">  c #342B32",
",  c #382A35",
"<  c #3B3336",
"1  c #2A303A",
"2  c #4D0915",
"3  c #73100E",
"4  c #5A3917",
"5  c #4F3116",
"6  c #633D14",
"7  c #6D3112",
"8  c #4B172F",
"9  c #691422",
"0  c #731E23",
"q  c #453424",
"w  c #4A3727",
"e  c #43322B",
"r  c #4D3A2A",
"t  c #4C3828",
"y  c #543E2C",
"u  c #593F2C",
"i  c #583D23",
"p  c #442836",
"a  c #4C3B33",
"s  c #473837",
"d  c #533D33",
"f  c #503C3B",
"g  c #552629",
"h  c #6A2737",
"j  c #6F2D32",
"k  c #63421D",
"l  c #694318",
"z  c #734C1D",
"x  c #56402E",
"c  c #5A422E",
"v  c #5F4325",
"b  c #5D4431",
"n  c #5E4834",
"m  c #584338",
"M  c #4E4238",
"N  c #6C4C2B",
"B  c #664728",
"V  c #744B2C",
"C  c #614633",
"Z  c #644935",
"A  c #694D36",
"S  c #664C39",
"D  c #6A4E39",
"F  c #6E513B",
"G  c #6E5034",
"H  c #735234",
"J  c #72543D",
"K  c #7B5A3B",
"L  c #785739",
"P  c #76413C",
"I  c #636A33",
"U  c #331547",
"Y  c #152B53",
"T  c #292D48",
"R  c #393949",
"E  c #2B3251",
"W  c #19396F",
"Q  c #303465",
"!  c #16145E",
"~  c #44374A",
"^  c #703A52",
"/  c #612350",
"(  c #364669",
")  c #17496A",
"_  c #474757",
"`  c #4E4951",
"'  c #6E5542",
"]  c #745641",
"[  c #765943",
"{  c #7B5B43",
"}  c #7D5D48",
"|  c #765B49",
" . c #6D4956",
".. c #7B6249",
"X. c #746959",
"o. c #585867",
"O. c #4D506C",
"+. c #6F4E68",
"@. c #666878",
"#. c #716E70",
"$. c #880608",
"%. c #961719",
"&. c #AF0F05",
"*. c #862F0D",
"=. c #AD260D",
"-. c #8F2E2E",
";. c #A8352A",
":. c #941625",
">. c #CA1802",
",. c #CF290A",
"<. c #E53109",
"1. c #D91C1C",
"2. c #895F37",
"3. c #BD4E3C",
"4. c #956E35",
"5. c #B47A33",
"6. c #BB6C0D",
"7. c #FF5600",
"8. c #F75309",
"9. c #D5690D",
"0. c #EE6800",
"q. c #FC6700",
"w. c #FA7800",
"e. c #FF7116",
"r. c #C84F31",
"t. c #CB782D",
"y. c #F46E2A",
"u. c #E9591C",
"i. c #862A4D",
"p. c #E6194C",
"a. c #994749",
"s. c #825D49",
"d. c #9C555C",
"f. c #B05549",
"g. c #83634C",
"h. c #8B694C",
"j. c #896A53",
"k. c #93735B",
"l. c #90714B",
"z. c #AE655B",
"x. c #89526C",
"c. c #906F6E",
"v. c #B6746E",
"b. c #CB5446",
"n. c #CC6453",
"m. c #CE7A65",
"M. c #FF7151",
"N. c #AB823A",
"B. c #DB971C",
"V. c #FC8800",
"C. c #FF9500",
"Z. c #FF9A00",
"A. c #FF9A0F",
"S. c #EF8C07",
"D. c #D19137",
"F. c #FC8D38",
"G. c #FA973C",
"H. c #F28B2E",
"J. c #FEAB35",
"K. c #F3CB0D",
"L. c #A88970",
"P. c #CF8B47",
"I. c #FB9B45",
"U. c #ED9248",
"Y. c #FFAA4B",
"T. c #FFB649",
"R. c #FFB853",
"E. c #F4A84D",
"W. c #D48C6F",
"Q. c #E68D6F",
"!. c #F2AC7D",
"~. c #FFC651",
"^. c #FFC874",
"/. c #0A0C8B",
"(. c #0F2397",
"). c #32548E",
"_. c #12498E",
"`. c #485B95",
"'. c #566695",
"]. c #52648D",
"[. c #6A7391",
"{. c #5C6DA2",
"}. c #5671AD",
"|. c #6677A8",
" X c #6C77AF",
".X c #4A4DB1",
"XX c #2F6FF9",
"oX c #2D5BDA",
"OX c #5B7DD4",
"+X c #CE3381",
"@X c #8C738F",
"#X c #B16ABB",
"$X c #8A79E3",
"%X c #E568CB",
"&X c #7785AD",
"*X c #7589B8",
"=X c #6C82B6",
"-X c #688DA5",
";X c #218CFF",
":X c #7A95C8",
">X c #6F89C2",
",X c #4F89FA",
"<X c #8C8791",
"1X c #AC9487",
"2X c #AFA494",
"3X c #8496BA",
"4X c #8990AC",
"5X c #9CA4AC",
"6X c #B0B1B6",
"7X c #CC9488",
"8X c #D3AB95",
"9X c #F4B190",
"0X c #D8B5A3",
"qX c #E8BAA5",
"wX c #FFCB95",
"eX c #F8C7A6",
"rX c #F6D2AE",
"tX c #FDEBB9",
"yX c #E1DCA9",
"uX c #879CC7",
"iX c #8899D3",
"pX c #94ABD4",
"aX c #9DB4D8",
"sX c #8EA4CE",
"dX c #A6B9DB",
"fX c #A9B5D1",
"gX c #A4BCE1",
"hX c #97BBEC",
"jX c #C7BDCD",
"kX c #B8C3DA",
"lX c #B2C6E5",
"zX c #BAD3F6",
"xX c #B0C8E9",
"cX c #C2CBDD",
"vX c #C5C3CA",
"bX c #E9DACD",
"nX c #FFEACA",
"mX c #FDF6CA",
"MX c #FFFFDD",
"NX c #FFF9D3",
"BX c #ECEBCB",
"VX c #CAD5E7",
"CX c #D4DBE9",
"ZX c #C8DAF6",
"AX c #C6D2E5",
"SX c #DAE2ED",
"DX c #D7E6F8",
"FX c #CDE9FD",
"GX c #FFFDE8",
"HX c #E6EDF5",
"JX c #ECF3FB",
"KX c #E7F5FD",
"LX c #F3FCFE",
"PX c #FEFFFF",
"IX c #F6F9F6",
"UX c #EDEBEB",
/* pixels */
"} } w D F b C c x Z D C c c c y F F A b Z b D Z C c b c C c Z A } } w D F b C b x Z D C c c c y F F A b Z b D Z C c b c C c Z A ",
"F F D Z C b C y x c c C C c y C F D D C q A j.D g.Z C c Z u F A F F D Z C b C u x c c C C c y C F D D C q A j.D g.Z C c Z u F A ",
"A C A J F q C F A J Z t F F J c c c b A Z D b D A y u u b y D A A C A J F q C F A J Z t F F J c c c b A Z D b D A y u u b y D A ",
"b F J J g.c C D C Z } y L A Z C J A D J ] D D b F D J F D F n D b F J J g.c C A C Z } y L A Z C J A D J ] D D b F D J J D F n D ",
"b A C D u q c C C b x c b b b J J J D Z Z u S C D D J A C C y r b A C D u q c C C b x c b b b J J J D Z Z u S C D D J A C C y r ",
"b C u b Z c b y C c Z d , > $ $ = A u [ J C b x Z F Z Z S Z b C b C u b Z c b y C c Z Z D J b C Z A u [ J C b x Z F Z Z S Z b C ",
"F c b ] D F F Z w C A d O _ 5X<X@.= = S L C C b Z F A } D b D [ F c b ] D F F Z w C D D A F Z F F C Z S L C C b Z F A } D b D [ ",
"Z b J S D F F J u J J { S ~ LXPXJX@.O.- u C C F m d d e e e S D Z b J S D F F J u J J { [ J D g.r [ L b u C C F F s.] Z D S ' D ",
"C n k.s.C C b Z b F S } F F > vXJXLXPX@.s y F m o.O.Q o.@.<Xo.e d n k.s.C C b Z b F S } F L ] L c F [ [ A y F F g.Z Z C b b C F ",
"C x } ] c b b d m F D J [ L c _ KXaXPXLX+ x b 1 CXLXZXLXPXPX@.  e x } ] c b b b C F D ] [ L A J b ] ] S ..b A [ k.C C b b b ] C ",
"Z y F C D c Z > , Z D J J J d o.KXdXDXHX_ = + |.iXfXkXLXUXR r ..Z y F C D b Z A b Z D J J J J J b D [ C b y F D F C b C r - A ..",
"n C D j.] D F , * D b D D Z m o.JXpXsXSXZXE `.=X|.`.`.AXo.- ' ..n C D j.] D J C c D b D D Z [ ..r b C D n b D [ C C c b j.x ] j.",
"n F J D c C C ; E < r b Z b n o.JXpXsXlXcX*XVXPXSXdXLXo.e C * * n F J D c C C b [ D y b Z b [ C b b y g.Z D x b r { F ] J C b n ",
"] n d y b r t o 3X3X= b m b q _ LXpXdXkX{.CXPXJXdXSXIX_ e C : < J D b c C u r F A F } b m b C Z D Z D C b n J { C [ ] n n C r b ",
"J : : @ R R T @ [.zX[.= x ; + @.DXlXVX&XAXHXHXHXdXKXo.- m $ 6X5X; S b c Z ] b Z ] F ] ] b r J ] ] J ] Z r ] F S Z F Z b C y q F ",
"C y y + 6XPXHXIX&X}.zX[.  O.PXVXaXHXHXHXIXdXSXkXAXPX_     4XPX4Xo u y c D J C Z F D C Z b A j.k.j.j.J F u J [ n C C C C D Z b C ",
"C c L r < [.KXPXJX3X*X*X4XHXPXZXpXJXIXJXSXaXCXdXCXJXpX3X3XVXPX<Xo u L y D C D S F A A u y A [ ] Z S S D u D D b b b F D C b J b ",
"c b : s A $ '.FXPXPX&X&XPXHXuXsXdXHXSXpXpXpXsXsXVXlXaXpXDXPXPX&Xo b C c A C } b D F C b b F ] b u b D b r x b c c D D C b b Z q ",
"[ A : @ F Z + '.KXPXHXcXlXuX).{.gXpX'.`.sXaX{.`.'.VXAX`.fXLX'.= J A b y [ Z c w C F b b c F J D b b A y u D F Z Z D b u y C c b ",
"J F $ &X_ + q = &XzXlXlX X|.AXSXkX|.cXkX{.kXSXcXkX XkXCXsX( * C F F C b r C y u y Z b x Z b J b b y y c D F F F Z l.C F D F b C ",
"c ' S R 3XgX_ . Y :XgX=X&XSXPXPXcX{.LXPXcX|.dXPXPXAX|.SXZX*X_ r c ' F b - c L F J b r Z J J r r b C F J J F Z s.D b J Z A Z { D ",
"b [ Z t T dXgX[.&XsXlX}.4XPXCXlXsX|.IXPXPXkX{.uXJXPXcX&XsXFXzXO.e [ Z x t Z F L Z D u F Z [ C Z F F F Z J } D D y F D b c u y c ",
"b c b D S $ pXFXxXdXxX|.4XPXZX4Xa.x.>XxXPXPX}.>XZXHXPX>XQ R O.R + , b D [ c C C Z Z C Z C A Z b C D D C C D u u F S C c y u r x ",
"D n F D D Z > ]. X X>X:X*XkXKX@X=.;. .}.zXLX@X~ ( HXPX].$ e = ; f M F D D A Z C c b y D c Z b { y D D b S S u b F n x u u D c x ",
"C b [ < : = O.uXpX].O ). XQ hXUXwX!.;. .OXxXn.X = _ LX@.d ] C Z n $ * s D c F C C u b C u Z b C C C Z b b b b x C b y j.[ ] C Z ",
"x b C s > O O.uXhX( X ~ E h +.pXaX6X!.;.^ }.0X` n r @._ a u D D ~ 5Xo.. c F Z L C C F L J w C D ] [ F x C J J F F F D [ D u D } ",
"x b b b b a = + }.W j r.8 d.8X[.Q `.6X9Xr.j GX#.e [ a O , u m R bXNX9Xo.; c c c ' L D [ C J A Z F } [ b F J b b b [ F A u u D D ",
"x b r F C b b - E Y j M.;.@XPXqXg fX>XfX+.m.2Xs u b b s m w . 7XPXW.7XnXX ; b w { Z b C L F c c b C b S J b C b b b b ] S u Z D ",
"b x q b D c F J b + : h % @XPXbXL.PXlXW :XGX: = b Z S | b Y @XeXrXd.x.9Xv.O F J Z b C b D C C C c C A x [ b S C b Z S | S b y D ",
"u r y C c b c C m p 2 + p x.CXPXtXnXvXL.PX6X% X = r A a T ,XKXNXW.8 2 Q.nXO c A D C c y Z y b b r u S S S S b b D t A C b w u c ",
"Z b b Z C b a s % z.9Xn.3.-.^ VXGXmXNXMX7X8 m.9Xc.> = X .XoX<XtX1X   .eXc.* b F C n b D F Z [ D c D k.F y r y u b c c r C y C C ",
"] D u D F Z & ^ r.m.GXnXn.b.-.^ jX8X0X7X2 -.0XGXGX ., W.x.# X eX2X. c.2X= Z D C x y ] F Z } F u C [ } J n b S F Z Z C b Z Z C D ",
"} } w D F b : g n.f.Q.BX1X-.n.z.+.^ 8 x.v.x.U 8XtXf.qXPX!.X   1X1X; = $ F b C b x Z D C c c c y F F A b Z b D Z C c b c C c Z A ",
"F F D Z b d * a.rXGXW.X p X z.GXGXbX@XvXGXnXx.h a.i.rXbX` e F a > s D Z C b C u x c c C C c y C F D D C q A j.D g.Z C c Z u F A ",
"A C A J F + 2 Q.MXBXX.p b.h _ yXmXMXPX+.tXNX+.# % a.0X` e y D A A C A J F q C F A J Z t F F J c c c b A Z D b D A y u u b y D A ",
"b F J J [ < o.d.9X+.<XeX% 8X8X, yXmX9Xf.9XmX_ d s : * C D F n D b F J J g.c C D C Z } y L A Z C J A D J ] D D b F D J F D F n D ",
"b A C D O 1XMXMXQ..XzXW.c.NXeXj T eXn.f.z.eX_ a D D J A C C y r b A C D u q c C C b x c b b b J J J D Z Z u S C D D J A C C y r ",
"b C u b : j 9XtXiX,X XW.GXeXQ.1X. z.eXz.eXW.% e Z F Z Z S Z b C b C u b Z c b y C c Z Z D J b C Z A u [ J C b x Z F Z Z S Z b C ",
"F c b ] D , @ * ! oX,XaXtXBX2X, r.3.f.f.E.I.p a Z F A } D b D [ F c b ] D F F Z w C D D A F Z F F C Z S L C C b Z F A } D b D [ ",
"Z b J S D D S S $ @ T E , * _. XJ.y.>.&.= : a D F g.] S D S ] D Z b J S D F F J u J J { [ J D g.r [ L b u C C F F s.] Z D S ] D ",
"C n k.s.C C b Z b S C s 2 $./.(.(.(./.! P.= # @ ' A Z C c b C J Z b k.g.C C C Z b F S } F L ] L c F [ [ A y F F g.Z Z C b b C F ",
"C x } ] c b b b C D D f L e.i.XXXXXXXXXXY.H.P.,.% & : : a C J A A c g.[ C C b b C F D J [ L A J b ] ] S ..b A [ k.C C b b b ] C ",
"Z y F C D c Z Z b Z s ` y.<.G.!.Q.b.W.+.U.T.T.F.H.P.=.t...= H g.H B J A F C A A b A D J J J J J b D [ C b y F D F C b C r - A ..",
"n C D j.] D F n c s m E.F.y.Y.J.e.<.H.0 U.T.Y.Y.Y.T.F.8.0 a K l.A H L l.{ J L Z c D b D D Z [ ..r b C D n b D [ C C c b j.x ] j.",
"n F J D c C C s T 2 8.T.Y.Y.I.~.F.<.Y.h &.,.>.F.R.I.R.H.,.g y B B N H H N A A Z { D y b Z b [ C b b y g.Z D x b r { F ] J C b n ",
"] D b c C y > 9 9 a.eXwXF.R.I.,.<.<.;.,.e.y.y.8.F.~.G.yXr.3 q 4 l 6 4 k N B c L H J } b m b C Z D Z D C b n J { S [ ] n n C r b ",
"J S b c Z P U 0 3 6XLXW.~.G.<.e.u.9 # 0 l.l.l.0 -.f.D.L.h.7 2.5.N.4.l 4 k L N H { J [ ] b r J ] ] J ] Z r ] F S Z F Z b C y q F ",
"C u y c F p %.:.% f.u.>.u.8.u.X...` s < * < s & 9 9 V 7 V D.5.J.^.V.9.4.l N N L K F Z Z C A j.k.j.j.J F u J [ n C C C C D Z b C ",
"C u L y D 1 &.&.U 3 &.&.$.;...> > S S D u D F : ,.-.8 5 B.J.R.C.C.Z.w.9.2.6 B H L H D c y A [ ] Z S S D u D D b b b F D C b J b ",
"c b C c A 1 &.>.8 U U U h 0 : b u C S b r c C s 0 =.*.7 t.A.q.C.Z.q.w.0.t.6 B i G J Z C b F ] b u b D b r x b c c D D C b n Z q ",
"[ A C y [ : ^ 1.&.$.:.%.1.;.& S b b A y u D J D M *.*.7 tXA.7.V.Z.7.q.0.9.l 4 5 B L C b c F J D b b A y u D F Z Z D b u y C c b ",
"J F C b r o ;X#Xp.x.$.%.9 @ f b b y y c D F J L L S 5 5 wXC.Z.C.C.Z.V.0.9.z k 5 i G Z c Z b J b b y y c D F F F Z l.C F D F b C ",
"b ' F b - o O.%X$X_.+ : 1 s r r b C F L J F D g.L N k 6 A.C.w.C.Z.w.w.0.9.6 k B L A y Z J J r r b C F J J F Z s.D b F Z A Z { D ",
"b [ Z x - W p.+X) y u F Z [ C Z F F F Z J } F J B H k 6 S.V.7.C.Z.7.q.8.5.6 B L H J c J Z [ C Z F F F Z J } D D y F S b c u y c ",
"b c b D + -X9X=.e Z C Z C A Z b C D D C C F c c L H k 4 N.S.C.C.Z.C.0.9.z 6 B H H D A Z C A Z b C D D C C D u u F S b c y u r x ",
"D n F D @ 6.K.I e b y D c Z b { y D D b A A x C J A v 4 4 4.B.S.Z.S.5.l 6 B H H B C y F c Z b { y D D b S S u b F b x u u D c x ",
"C b [ m * p./ > C u b C u Z b C C C Z b b b b c G Z v K B 5 u X.h.*.7 5 B N K H A c C Z u Z b C C C Z b b b b x C b y j.[ ] C Z ",
"c b Z 1 1.#X).t C C F J J w C D ] [ F x C J J J F J J 2.N 4 k B 4 4 k N B L L K A Z F L J w C D ] [ F x C F J F F F F { D u D } ",
"x b b b b b c c ' ] D [ C J A Z F } [ b F J b b C } J L B B V V B B N N A A B c ] L D [ C J A Z F } [ b F J b b b [ F A u u D D ",
"x b r F C b b w { Z b C L F c c b C b S J b C b b C Z [ J B H L B N v L A C C t { Z c C L F c c b C b S J b C b b b b ] S u Z D ",
"b x q b D c F J Z b C b D C C C c C A x [ b S Z b A D } D Z c J A C t C F c F J Z b C b D C C C c C A x [ b S C b Z S | S b y D ",
"u r y C c b c A D C c y Z u b b r u S S S S b b D r A C b t c c c y y Z c C c A D C c y Z y b b r u S S S S b b D t A C b w u c ",
"Z b b Z C b b F C b b D F Z [ D c D k.F y r y u b c c r C x C Z Z C b Z C b b F C b b D F Z [ D c D k.F y r y u b c c r C y C C ",
"] D u D F Z D C x y ] F Z } F u C [ } J n b S F Z Z C b Z Z C D ] D u D F Z D C x y ] F Z } F u C [ } J n b S F Z Z C b Z Z C D "
};
