/* XPM */
static char *xpm_[] = {
/* columns rows colors chars-per-pixel */
"64 64 248 2 ",
"   c #010101",
".  c #090504",
"X  c #0C0907",
"o  c #05050A",
"O  c #0A0B0C",
"+  c #09040A",
"@  c #130E0A",
"#  c #160905",
"$  c #1B130D",
"%  c #16110C",
"&  c #000214",
"*  c #0D0E11",
"=  c #0B0713",
"-  c #170E16",
";  c #0F1014",
":  c #001014",
">  c #121316",
",  c #1E1611",
"<  c #16171B",
"1  c #0E1308",
"2  c #380702",
"3  c #231A13",
"4  c #291E16",
"5  c #221A16",
"6  c #32150D",
"7  c #2C2017",
"8  c #2E2219",
"9  c #31251A",
"0  c #36291D",
"q  c #39291D",
"w  c #1A1C23",
"e  c #151425",
"r  c #091025",
"t  c #241A25",
"y  c #1E2129",
"u  c #1D2027",
"i  c #102634",
"p  c #22252D",
"a  c #272921",
"s  c #3C2D22",
"d  c #322524",
"f  c #3E3021",
"g  c #3D332A",
"h  c #262932",
"j  c #292C36",
"k  c #2B2F39",
"l  c #242731",
"z  c #342B37",
"x  c #2E323C",
"c  c #2E3330",
"v  c #30343F",
"b  c #1C2916",
"n  c #4E0F0E",
"m  c #6D0A0E",
"M  c #442A17",
"N  c #532D0D",
"B  c #66340F",
"V  c #4A1D33",
"C  c #443324",
"Z  c #4A3726",
"A  c #4C3926",
"S  c #4B3729",
"D  c #4D3A2A",
"F  c #44362A",
"G  c #543E2C",
"H  c #583F2C",
"J  c #553223",
"K  c #4F2932",
"L  c #7B273E",
"P  c #6F3033",
"I  c #700627",
"U  c #56402E",
"Y  c #5A422E",
"T  c #5D4431",
"R  c #5E4834",
"E  c #544539",
"W  c #614633",
"Q  c #644935",
"!  c #694D37",
"~  c #664C38",
"^  c #6A4E39",
"/  c #6C4F3A",
"(  c #6A4E39",
")  c #6D513A",
"_  c #6E513B",
"`  c #72543D",
"'  c #73583F",
"]  c #734632",
"[  c #0C1441",
"{  c #122F49",
"}  c #393E4B",
"|  c #333844",
" . c #3C295E",
".. c #302E4D",
"X. c #143964",
"o. c #451A45",
"O. c #572B57",
"+. c #4D2849",
"@. c #63274B",
"#. c #7C2E4A",
"$. c #752E51",
"%. c #6E354F",
"&. c #50386D",
"*. c #72386F",
"=. c #3A434C",
"-. c #3E4352",
";. c #0E497B",
":. c #384B78",
">. c #274879",
",. c #444659",
"<. c #504054",
"1. c #694B42",
"2. c #7C4843",
"3. c #6E5541",
"4. c #675646",
"5. c #745641",
"6. c #765943",
"7. c #7B5B44",
"8. c #7C5D49",
"9. c #765B49",
"0. c #775158",
"q. c #7D614A",
"w. c #746453",
"e. c #4E4A65",
"r. c #7F7E7C",
"t. c #4A616C",
"y. c #8E1A1B",
"u. c #90291A",
"i. c #B32A16",
"p. c #971030",
"a. c #952429",
"s. c #9D382A",
"d. c #862739",
"f. c #922D3B",
"g. c #A62A28",
"h. c #B93727",
"j. c #B93437",
"k. c #AE2D2F",
"l. c #AF1616",
"z. c #CC301E",
"x. c #CB2714",
"c. c #CA3525",
"v. c #D63829",
"b. c #C33338",
"n. c #C72D28",
"m. c #F12C2F",
"M. c #E2310F",
"N. c #9A5639",
"B. c #864E3C",
"V. c #B84E2F",
"C. c #AF663E",
"Z. c #F94B12",
"A. c #FF651E",
"S. c #D24B2E",
"D. c #F54B29",
"F. c #FB5927",
"G. c #E85534",
"H. c #ED5030",
"J. c #D06B39",
"K. c #FF642B",
"L. c #FF762B",
"P. c #FF6533",
"I. c #FE6B34",
"U. c #FF623C",
"Y. c #FF7637",
"T. c #E8672F",
"R. c #933444",
"E. c #883144",
"W. c #C63643",
"Q. c #E63261",
"!. c #954448",
"~. c #805F48",
"^. c #8E5350",
"/. c #AA4F44",
"(. c #83634D",
"). c #8C6A4E",
"_. c #876751",
"`. c #8B6B53",
"'. c #886856",
"]. c #916E51",
"[. c #93735B",
"{. c #AB6842",
"}. c #AA7457",
"|. c #8F4B68",
" X c #8E746D",
".X c #A36562",
"XX c #BB4864",
"oX c #C87648",
"OX c #D97B48",
"+X c #CF7652",
"@X c #FD6F45",
"#X c #D16E66",
"$X c #D65E58",
"%X c #B1842E",
"&X c #FF8D3D",
"*X c #9B8E71",
"=X c #AF9077",
"-X c #D98455",
";X c #E78A59",
":X c #F88D4F",
">X c #FFAD4E",
",X c #D09067",
"<X c #F8946F",
"1X c #FEA96C",
"2X c #C4A178",
"3X c #FFC77C",
"4X c #143E83",
"5X c #413E9A",
"6X c #00409A",
"7X c #1F4985",
"8X c #2F5093",
"9X c #2563AF",
"0X c #2969BA",
"qX c #51558A",
"wX c #775583",
"eX c #705588",
"rX c #60629A",
"tX c #5175B4",
"yX c #5B7193",
"uX c #3267D5",
"iX c #2574D8",
"pX c #5A6ED1",
"aX c #897791",
"sX c #B370C0",
"dX c #6A91E6",
"fX c #B89486",
"gX c #B0ADB0",
"hX c #9E9C97",
"jX c #C4988C",
"kX c #CFAD84",
"lX c #EAB994",
"zX c #F0B186",
"xX c #FAC799",
"cX c #FDD99B",
"vX c #FFCB8D",
"bX c #D6C6AE",
"nX c #FFDAAC",
"mX c #FCD7A6",
"MX c #ECD6B0",
"NX c #FEE8B5",
"BX c #F3EFB4",
"VX c #8DAFD0",
"CX c #B2B4C1",
"ZX c #AAC3CC",
"AX c #FFFFDF",
"SX c white",
"DX c #FDF2E6",
"FX c #CCCECF",
/* pixels */
"8.8.A / ) T W T U Q ^ W Y Y Y G ) ` ! T Q T / Q W Y T Y W Y Q ! 8.8.A / ) T W T U Q ^ W Y Y Y G ) _ ! T Q T / Q W Y T Y W Y Q ! ",
") ) ^ Q W T W G U Y Y W W Y G W ) ^ ^ W C ! `./ (.Q W Y Q G ) ! ) ) ^ Q W T W G U Y Y W W Y G W ) ^ ^ W C ! `./ (.Q W Y Q G ) ! ",
"! W ! ` ) C W ) ! ` Q S _ ) ` Y Y Y T ! Q ^ T ^ ! G G G T G ^ ! ! C 4 7 3 $ W ) ! ` Q S _ ) ` Y Y Y T ! Q ^ T ^ ! G G G T G ^ ! ",
"T ) ` ` (.Y W ^ W Q 8.G ' ! Q W ` ! / ` 5.^ ^ T ) / ` _ ^ ) R ^ Z , *     , W ^ W Q 8.G ' ! Q W ` ! / ` 5.^ ^ T ) ^ ` ` ^ ) R ^ ",
"T ! W ^ G C Y W W T U Y T T T ` ` ` ^ Q Q H ~ W / / ` ! W W G C > j w . 7 C Y W W T U Y T T T ` ` ' ^ Q Q H ~ W / / ` ! W W G D ",
"T W G T Q Y T G W Y Q Q / ` T W Q ! H 6.` W T U Q _ Q Q ~ Q G . j <   4 Q Y G S G G T T / ` T W Q ! H 6.` W T U Q _ Q Q ~ Q T W ",
") Y T 5.^ _ _ Q Z W / / ! ) Q _ ) W Q Q ' W W T Q ) ! 8./ T X v >     0 ^ G       o . . C ! T ~ ) W Q Q ' W W T Q ) ! 8./ T ^ 7.",
"Q T ` ! ^ ) _ ` G ` ` 7.7.` / (.D 6.W . A W W ) ) ~.5.Q T X l =.*   0 W Z ; x k k j j x > X X s D 6.' T G W W ) ) ~.5.Q ^ ~ 3./ ",
"W R [.~.W W T Q T ) ~ 8._ ' 5.' Y ) W   T G ) ) (.Q Q W G   x -.;   9.6.O | | } } * O O   % R ! Y ) 7.6.! G ) ) (.Q Q W T T W _ ",
"W U 8.5.Y T T T W ) / ` 6.' ! ` T 5.W   3 G ! 6.[.W W G , p x < o   , 5 k } x ; *       9 Q ! ` T 5.` Q q.T ! 6.[.W W T T T 5.W ",
"Q G ) W ^ Y Q ! T Q / ` ` ` ` ` T ^ ~     G ) ^ _ W T G O =.|       * x -.x O     l O 4 _ ` ` ` T ^ 7.W T G ) ^ _ W T W D f ! q.",
"R W ^ `.5.^ ` W Y ^ T ^ / Q s C D T G   w 4 U 6.W W Y T O -.} .   ; k ,.x *     p y 8 W / Q 6.q.D T W ^ R T ^ 6.W W Y T '.U 5.'.",
"R ) ` ^ Y W W T 7.^ G T Q T X   D T Z   |   C T D 7.F C . p y     j e.| >     w j 3 G T S C 6.W T T G (.Q ^ U T D 7._ 5.` W T R ",
"5.^ T Y W G D ) ! ) 8.T T T 4 O < A ^   j w 0 7.R 9               ; j *     w w   ) 8.S   @ W Q ^ Q ^ W T R ` 7.W 6.5.R R W D T ",
"` ~ T Y Q 5.T Q 5._ 5.5.T D 3 > j < D   x ,.; C 4             ; <       o y | O O D U 5 O 3 ` 5.5.` 5.Q D 5.) ~ Q _ Q T W G C ) ",
"W H G Y / ` W Q _ ^ W Q T ! C X ; x O   p } ;       O O     o j } w .   > } l x | * O l < 4 `.[._._.` _ G ` 7.R W W W W ^ Q T W ",
"W G ' G ^ W ^ ~ _ ! ! H G ! 6.G   O j o   x >     > } j     x O   l p   > k .   k v | >   9 6.5.Q ~ ~ / G ^ ( T T T ) ^ W T ` T ",
"Y T W Y ! W 8.T ^ ) W T T ) 5.C     * j O x >   < -.p .     j o     y y . > l     . o   q ^ 5.T G T ^ T D U T Y Y / / W T T Q C ",
"' ! W G 7.Q Y Z W _ T T Y _ ` Q q     o k } *   w ,.u                 y p   > x       9 Y _ ` ^ T T ! G G / ) Q Q / T G G W Y T ",
"` _ W T D W G G G Q T U Q T ` T T C     * =.>   w ,.y                 r i     < j   C U Q T ` T T G G Y ^ ) ) _ Q ].W ) ^ ) T W ",
"Y 3._ T f Y ' ) ` T D Q ` ` 4 @ $ 7       > o   O j l   % {.C.N..     J ]       w p , A ` ` D D T W ) ` ` ) Q ~.^ T ` Q ! Q 7.^ ",
"T 6.Q U A Q ) ' Q ^ G ) Q 6.C 8 @                   e r . B N 1XkX3   }.,X        E d H Q 6.W Q ) ) ) Q ` 8.^ / G ) ^ T Y G G Y ",
"T Y T ^ 6.Y W W Q Q W Q W ! Q T T 3           M K   $ 9.& = =.2 nXMX@ 4.bXX 3     Q W Q W ! Q T W ^ ^ W W / G G ) ~ W Y G G D U ",
"^ R ) ^ ^ ! Q W Y T G / Y Q T 7.G ^ 7 4       oX<XK H :X1.0.SXt.1.*XR =X,X% Q 3   D G / Y Q T 7.G ^ ^ T ~ ~ G T ) T U G G ^ Y U ",
"W T 6.^ ) T ) W W G T W G Q T W W W Q T 3 $   C.1X+X^.;XOX!.bXSX| o gXcXN 7 ) W , D T W G Q T W W W Q T T T T U W T G `.7.5.W Q ",
"Y T W ) Y ) Q ' W W ) ' ` Z W ^ 5.7._ U W _ 0 ] oXB.2.;XOXOXJ.DXr.gXSX).$ ) Q ' W W ) ' ` Z W ^ 5.7._ U W _ ' _ ) ) ^ 7.^ G ^ 8.",
"U T T T T T Y Y 3.' ^ 6.W ` ! Q _ 8.7.T ` ` T 4 @ X q ;X-XOXoXlXnXnXNXw.3 T Y Y 3.' ^ 6.W ` ! Q _ 8.7.T _ ` T T T 6.) ! G G ^ ^ ",
"U T D ) W T T Z 7.Q T W ' _ Y Y T W T ~ ` T R G G q - ^.+XOX-XxXnXNX4.8 W T T Z 7.Q T W ' _ Y Y T W T ~ ` T W T T T T 5.~ G Q ^ ",
"T U C T ^ Y _ ` Q T W T ^ W W W Y W ! U 6.T 3 . . . M +X2.OXxXnXNX=X+ 8 ^ Y _ ` Q T W T ^ W W W Y W ! U 6.T ~ W T Q ~ 9.Q T G ^ ",
"G D G W Y T Y ! ^ W Y G Q G T T D G T % % % m y.h.J.{.OXC.P 0.'.0.a.l.n @ 4 Y ! ^ W Y G Q G T T D U ~ ~ ~ ~ T T ^ D ! W T Z G Y ",
"Q T T Q W T T _ W T T / ) Q 7./ Y ^ 8.  :.8XrX@XZ.D.1XmXzXfXN.n  XlX@XZ.^.X.4 _ W T T / ) Q 7./ Y ^ [._ G D G G T Y Y D W G W W ",
"5.^ G ^ _ Q ^ W U G 5.) Q 8._ G W 6.(   7X8X>.yX#XM.j.#XNXBXvXzX}.cXbX$X<X9X  W U G 5.) Q 8._ G W 6.8.` R T ~ ) Q Q W T Q Q W / ",
"8.8.A / ) T W T U Q ^ W Y Y Y G ) _ Y   1.hXqX4X.XK.x.S.VXgXCXFXeXaXdX|.@X9X  T U Q ^ W Y Y Y G ) _ ! T Q T / Q W Y T Y W Y Q ! ",
") ) ^ Q W T W G U Y Y W W Y G W ) ^ ^   OX3XfX8X.XL.K.S.r.6X4X7X8X8X4XfXzX{ 9 G U Y Y W W Y G W ) ^ ^ W C ! `./ (.Q W Y Q G ) ! ",
"! W ! ` ) C W ) ! ` Q S _ ) ` Y Y Y 0 - {.;X>XqX0.F.S.v.F.2.>...v | r VXZX@ W ) ! ` Q S _ ) ` Y Y Y T ! Q ^ T ^ ! G G G T G ^ ! ",
"T ) ` ` (.Y W ^ W Q 8.G ' ! Q W ! Z S !.%.MXAXb 2 m.H.Y.n.F.aX7X>.7X<. Xe.% W ~ W Q 8.G ' ! Q W ` ! / ` 5.^ ^ T ) ^ ` _ ^ ) R ^ ",
"T ! W ^ G C Y W W T U Y T T T ` Z a nX;X%.lXMXa 2 k.h.G.i.x.K.aXtXtX<Xi.  3 D W W T U Y T T T ` ` ` ^ Q Q H ~ W / / ` ! W W G D ",
"T W G T Q Y T G W Y Q Q / ` T W C 3 nXnX^.oX6 D C .   # j.j.F.P.P.P.Y.B M oXX G T Y W Q / ` T W Q ! H 6.` W T U Q _ Q Q ! Q T W ",
") Y T 5.^ _ _ Q Z W / / ! ) Q _ Z # ;XNXxX$   X s ^ C & pXpXj.x.z.m.n 0 1XC.@ Q . . . Z ! ) Q _ ) W Q Q ' W W T Q ) ! 8./ T ^ 7.",
"Q T ` ! ^ ) _ ` G ` ` 7.7.` / (.A G d dXdXfXkXbX4.3 @ o 8X8X&.O.O.*.& N <X&...@   kXBXF R ` / (.D 6.' T G W W ) ) ~.5.Q ^ ~ 5./ ",
"W R [.~.W W T Q T ) ~ 8._ ' 5.' Y ^   [ hXzX1XzXW   n V.a.a.0XuXuXiX*.m z 5Xe.{.=X=X XjXE C 5.' Y ) 7.6.! G ) ) (.Q Q W T T W _ ",
"W U 8.5.Y T T T W ) / ` 6.' ! ` T ` C   cX:X-XmX,X6 N @Xx.F.#X|.#XwX$Xu.  [ wX:X1XV m NX[.$ ! ` T 5.5.~ q.T ! 6.[.W W T T T 5.W ",
"Q G ) W ^ Y Q ! T Q / ` ` ` ` ` T ^ 7.9 4.vXNXzXcX*X  H.G.Y.A.x.Z.s./.T.N   <.vXJ.=XmX2Xg G ` 5.T ^ 7.W T G ) ^ _ W T W D f ! q.",
"R W ^ `.5.^ ` W Y ^ T ^ / Q 6.q.D T W ^ 0 w.nXnX*X=.u.H.I.I.P.k.K.!.R.&XV.% C  XxXcX=X4 Q Q 9.q.D T W ^ R T ^ 6.W W Y T '.U 5.'.",
"R ) ` ^ Y W W T 7.^ G T Q T 6.W T T G (.Q 9 T gXt n :XI.P.Y.I.c.D.E.!.Y.S.6 G 3 *XN.% G W T 6.W T T G (.Q ^ U T D 7._ 5.` W T R ",
"5.^ T Y W G D ) ! ) 8.T T T W Q ^ Q ^ W T R 7   n U.I.I.P.G.U.j.a.o./.L.U.g.. ) 3 , 7.T T T W Q ^ Q ^ W T R ` 7.~ 6.5.R R W D T ",
"` ~ T Y Q 5.T Q 5._ 5.5.T D ` 5.5.` ` Q D W $ # s.Y.P.I.H.v.a.K %.@.V.L.Y.S.X Q 5._ 5.5.T D ` 5.5.` 5.Q D 5.) ~ Q _ Q T W G C ) ",
"W H G Y / ` W Q _ ^ W Q T ! `.[.(._.) ) G # . y.F.Y.I.H.v.T.#   V.D.S.I.Y.S.X W _ ^ W Q T ! `.[._._.` _ G ` 7.R W W W W ^ Q T W ",
"W G ' G ^ W ^ ~ _ ! ! H G ! 6.5.Q ~ ~ / X i.E.d.D.Y.H.v.S.. W @ y.P.S.v.L.G.o.X _ ! ! H G ! 6.5.Q ~ ~ / G ^ ( T T T ) ^ W T ` T ",
"Y T W Y ! W 8.T ^ ) W T T ) 5.T G T T X u.R.O.k.c.c.v.g., G Q . V $.S.F.c.k.$.a.# W W T T ) 5.T G T ^ T D U T Y Y / / W T T Q C ",
"6.! W G 7.Q Y Z W _ T T Y _ ` ^ T T G   k.$.O.k.z.g.$.K X W Y . V O.%.R.L @.#.n.. W T T Y _ ` ^ T T ! G G / ) Q Q / T G G W Y T ",
"` _ W T D W G G G Q T U Q T ` T T G C   i.$.O.#.d.O.$.g.@ ) Y   o.W.d. . .@.b.#.  Y T U Q T ` T T G G Y ^ ) ) _ Q ].W ) ^ ) T W ",
"Y 3._ T f Y ' ) ` T D Q ` ` D D T W Y   E.h.L  . .@.b.f.  Q 7.s - L b.g.s.W.R.e s T D Q ` ` D D T W ) ` ` ) Q ~.^ T ` Q ! Q 7.^ ",
"T 6.Q U A Q ) ' Q ^ G ) Q 6.W Q ) ) ! 0 w |.!.y.k.W.L r 0 G G Y C w +.j.l.n r C Q ^ G ) Q 6.W Q ) ) ) Q ` 8.^ / G ) ^ T Y G G Y ",
"T Y T ^ ' Y W W Q Q Q Q W ! Q T W ! ^ W X iXXXv.s.L e 4 G G D U T 4 i *.I   8 W Q Q Q Q W ! Q T W ^ ^ W W / G G ) ~ W Y G G D U ",
"^ R ) ^ ^ ! Q W Y T G / Y Q T 7.G ^ ^ R X 0XQ.sX;.  7 G G ^ Y U ^ 3 { *.n 8 Q W Y T G / Y Q T 7.G ^ ^ T ~ ~ G T ) T U G G ^ Y U ",
"W T 6.^ ) T ) W W G T W G Q T W W W Q T X qXQ.wX{ 7 G `.7.5.W Q W 3 z c 4 T ) W W G T W G Q T W W W Q T T T T U W T G `.7.5.W Q ",
"Y T Q ) Y ) Q ' W W ) ' ` Z W ^ 5.7._ G 1 m.|.: s ) ^ 7.^ G ^ 8.Y 3 N B , ) Q ' W W ) ' ` Z W ^ 5.7._ U W _ ' _ _ ) ^ 7.^ G ^ 8.",
"U T T T T T Y Y 3.' ^ 6.W ` ! Q _ 8._ . %X>XC s T 6.^ ! G G ^ / U 3 i $.m . @ G 3.' ^ 6.W ` ! Q _ 8.7.T _ ` T T T 6.) ! G G ^ / ",
"U T D ) W T T Z 7.Q T W ' _ Y Y T W G   m.M f T T T T 5.~ G Q ^ U , i :.@.p.I . 7.Q T W ' _ Y Y T W T ~ ` T W T T T T 5.~ G Q ^ ",
"T U C T ^ Y _ ` Q T W T ^ W W W Y G 6 W.wX& S W T Q ~ 9.Q T G ^ T D s E ~ P ] G Q T W T ^ W W W Y W ! U 6.T ~ W T Q ~ 9.Q T G ^ ",
"G D G W Y T Y ! ^ W Y G Q G T T D G ~ ~ ~ ~ T T ^ D ! W T Z G Y G D G W Y T T ^ ^ W Y G Q G T T D G ~ ~ ~ ~ T T ^ D ! W T Z G Y ",
"Q T T Q W T T _ W T T / ) Q 7./ Y ^ [._ G D G G T Y Y D W G W W Q W T Q W T T _ W T T / ) Q 7./ Y ^ [._ G D G G T Y Y D W G W W ",
"5.^ G ^ _ Q ^ W U G 5.) Q 8._ G W 6.8.` R T ~ ) Q Q W T Q Q W / 5.) U / _ Q ^ W U G 5.) Q 8._ G W 6.8.` R T ~ ) Q Q W T Q Q W / "
};
