/* XPM */
static char *xpm_[] = {
/* columns rows colors chars-per-pixel */
"64 64 152 2 ",
"   c #0F0D1F",
".  c #100E1E",
"X  c #141414",
"o  c #11101F",
"O  c #1B1B1B",
"+  c #1D121F",
"@  c #22131F",
"#  c #29121E",
"$  c #2C181F",
"%  c #321A1D",
"&  c #3D1F1D",
"*  c #3C2415",
"=  c #3E291A",
"-  c #0F0F21",
";  c #100F21",
":  c #140F2C",
">  c #0F1122",
",  c #0F122E",
"<  c #121123",
"1  c #1A1422",
"2  c #171820",
"3  c #1B1A22",
"4  c #12142B",
"5  c #131A2B",
"6  c #191C2D",
"7  c #150F32",
"8  c #180F34",
"9  c #161032",
"0  c #191034",
"q  c #131B33",
"w  c #121C39",
"e  c #1C113F",
"r  c #251420",
"t  c #2A1821",
"y  c #2E132C",
"u  c #17202E",
"i  c #1F2023",
"p  c #162134",
"a  c #192332",
"s  c #14223D",
"d  c #192A3B",
"f  c #252424",
"g  c #492716",
"h  c #4D2B16",
"j  c #432D1E",
"k  c #4D2D1D",
"l  c #432113",
"z  c #512F17",
"x  c #502E1D",
"c  c #54321D",
"v  c #59371F",
"b  c #5D3B23",
"n  c #613F27",
"m  c #494A1F",
"M  c #52541E",
"N  c #5E611E",
"B  c #5D5F20",
"V  c #515220",
"C  c #64422A",
"Z  c #68462E",
"A  c #6A4830",
"S  c #5D6020",
"D  c #1E1245",
"F  c #1F1249",
"G  c #191A45",
"H  c #201247",
"J  c #21124B",
"K  c #3E1C43",
"L  c #351456",
"P  c #371558",
"I  c #3B155D",
"U  c #152441",
"Y  c #162947",
"T  c #192D43",
"R  c #1A3047",
"E  c #384C4C",
"W  c #355151",
"Q  c #395555",
"!  c #3E5A5A",
"~  c #2B4747",
"^  c #1E5E67",
"/  c #1E5F68",
"(  c #1C5462",
")  c #1E6C73",
"_  c #216D74",
"`  c #425E5E",
"'  c #466262",
"]  c #4A6666",
"[  c #4E6A6A",
"{  c #516D6D",
"}  c #567272",
"|  c #597575",
" . c #9A2314",
".. c #A62913",
"X. c #AD2312",
"o. c #AC3616",
"O. c #BB3714",
"+. c #CA3812",
"@. c #BC5111",
"#. c #CA4F0F",
"$. c #D0550E",
"%. c #D65B11",
"&. c #E6560C",
"*. c #DE6011",
"=. c #BFBC3A",
"-. c #EA881B",
";. c #F1911B",
":. c #C1BD3A",
">. c #DEDB3F",
",. c #F7CE33",
"<. c #F9D333",
"1. c #F9E039",
"2. c #DDDA40",
"3. c #09309D",
"4. c #1A5EBB",
"5. c #1E62B3",
"6. c #2066B5",
"7. c #1D69D3",
"8. c #1F6FD9",
"9. c #1E71DC",
"0. c #2372CC",
"q. c #2070DB",
"w. c #2778D3",
"e. c #237BE6",
"r. c #3591BF",
"t. c #53A69E",
"y. c #5DBBB1",
"u. c #5EC1B5",
"i. c #3698C6",
"p. c #3A9CC5",
"a. c #3BA2CD",
"s. c #3CA4D1",
"d. c #3AABDE",
"f. c #37A5D3",
"g. c #42AAD2",
"h. c #41AFDD",
"j. c #45B3DE",
"k. c #42B5E3",
"l. c #47BAE6",
"z. c #45BFF3",
"x. c #6BDBCB",
"c. c #47C3F7",
"v. c #6BEAE6",
"b. c #6BE7E5",
"n. c #70E3E5",
"m. c #75EBE5",
"M. c #7BECE6",
"N. c #70F2E5",
"B. c #7DF9E4",
"V. c #D2EFE7",
"C. c #DCEFE7",
"Z. c #CFF0E5",
/* pixels */
"; ; < 5 < ; ; ; ; ; ; ; ; ; ; ; < J J 7 ; ; ; ; ; ; - 5 < < 2 ; ; ; ; ; ; ; ; ; ; ; ; ; O O O O ] Q ' { } } } { | | | | | | } } ",
"; ; a u.a ; ; ; ; ; ; ; ; ; ; ; 9 J P < ; ; ; ; ; ; q k.T 3 S 2 ; ; ; ; ; ; ; ; ; ; ; J O O X O ] { { { | } ] ] | | | } } | { { ",
"2 ; < a < ; ; ; ; ; ; ; D 7 ; ; F 7 < ; ; ; ; ; ; ; i.v.p.q 3 < ; F 9 < ; < a < ; ; D J O O O O ` ] [ ] } { { } | | | } { ` E [ ",
"M ; : 7 7 ; ; ; ; ; ; ; 7 J J ; ; ; ; ; ; ; ; ; ; ; q a.T < ; ; ; 7 J F ; 4 u.a ; ; < D O X O O { } } } } ' } } } | ] ! ] { { } ",
"2 ; F F 7 - ; ; ; ; ; ; < P J 7 ; ; ; ; ; ; ; ; D ; ; q < ; ; ; ; ; P J 7 < a < ; ; ; ; O X O O { { [ | { ] | | | [ { ] ' ` ] } ",
"; ; F K &.+ ; ; ; ; ; 4 ^ 5 7 F ; ; ; ; ; ; ; ; ; ; ; ; ; ; ; ; ; ; ; 9 F < ; ; ; ; ; ; X O O O [ { { | } } | | | | | | } ] { } ",
"; ; @ *.1.&.; ; ; ; ; ; > ; - ; ; ; ; ; ; ; ; ; ; ; ; ; ; ; ; ; ; ; ; ; > ; ; ; ; ; ; < X O O O [ ] ' } } { } } | | [ ] { { { } ",
"; ; < & %.$ ; ; ; ; ; ; ; ; ; ; ; ; ; ; ; ; ; ; ; ; ; ; ; ; ; ; ; ; ; ; ; ; ; ; ; ; ; D X O O O } [ ] { } } ] [ } { { ` } ] { ` ",
"; ; ; ; @ ; ; ; ; ; ; ; ; ; ; ; ; ; ; ; ; ; ; ; ; ; ; ; ; ; ; ; ; ; ; ; ; ; ; ; ; ; ; ; X X O O { { [ { } [ [ [ { { { [ ! [ ` ' ",
"; ; ; ; ; ; ; ; ; ; ; ; ; ; ; ; ; ; ; ; ; ; ; ; ; ; ; ; ; ; ; ; ; ; ; ; ; ; ; ; ; ; ; ; X O O O [ ' ] { } } [ ] ] ' } } ! ' [ } ",
"; ; ; ; ; ; ; ; ; ; ; 7 F < ; ; ; < ; ; ; ; ; ; ; ; J H ; ; ; ; ; ; ; 5 _ < 7 F ; ; ; ; X O O O ` ] ! | { [ } | } } { | { [ ' ' ",
"F ; ; ; ; ; ; ; ; ; I J 7 < a ; 1 X.@ ; ; ; ; < 2 ; F F 9 ; ; ; < @ < ; < I J 7 ; ; < < O O O O } } [ | [ W [ | } | } | | } } | ",
"; ; ; ; ; ; ; ; ; : J F : a u.5 ; @ < ; ; ; ; 2 m < < 9 9 ; ; ; t $.% < 9 J F : ; ; ; ; X O O O } } [ | [ [ { | } | | | | | | { ",
"; ; ; ; ; ; 2 < < F 7 ; ; < a < ; ; ; ; ; ; ; < 2 - < a < ; ; ; #.,.@.1 D 9 ; ; ; ; ; ; X O O O { { } | | } [ | { { { | | | | { ",
"; ; ; ; ; < N 3 ; ; ; ; ; ; ; ; ; ; ; ; ; ; ; ; ; ; < x.d ; ; ; t &.% ; ; ; ; ; ; ; ; ; X O O O ' ` [ ` | | | | [ [ | | | | | | ",
"; ; ; ; ; ; < < ; ; ; ; ; ; ; ; ; ; ; ; ; ; ; ; ; ; ; 5 < ; ; ; < 1 ; ; ; ; ; ; ; ; < ; X X O O [ [ { | | | | } ! ] } } { } { ' ",
"; ; ; ; ; ; ; ; ; ; ; ; ; ; ; ; ; ; ; ; ; ; ; ; ; ; ; 4 / 4 ; ; ; ; < < ; ; 2 < ; ; B ; O O O O { ' } | | } { { ` ' | } { } } ] ",
"; ; ; < 6 > ; ; ; ; ; ; ; ; ; ; ; ; ; ; ; ; ; ; ; ; 5 ; - ; ; ; ; ; F 7 ; < N 3 ; ; - < X X O O [ ` } | } [ ! } [ [ { { } } } { ",
"; ; ; a y.< ; ; ; ; ; ; ; ; ; ; q - ; ; ; f ; ; ; - y.; < ; < ; ; ; 7 : ; ; 2 < ; ; ; T X X X O ' Q [ } } } | | | | } { ` | } { ",
"; ; < p 6 ; ; ; ; ; ; ; ; ; ; w w.q > ; ; =.; ; ; ; 6 7 0 4 D ; ; ; ; ; ; ; ; ; ; ; < s.X X X O } ` ! | | { } } | | | { W | { [ ",
"; ; q r.q ; ; ; - - ; ; ; ; . 7.b.7.q ; < i - ; ; ; < 8 P J ; ; ; ; ; ; ; ; ; ; ; ; ; d O X X X { ` ` | | } } } | | | { W | | | ",
"; ; ; < ; ; ; 4 / < ; ; ; ; ; < 8.> ; ; ; ; ; ; ; ; < < H F ; ; ; ; ; ; ; ; ; ; ; ; ; ; O O O X [ ! ` { | } } { [ | | | ] } { } ",
"4 ; ; ; ; ; ; ; ; ; ; ; ; ; ; ; ; ; ; ; ; ; ; ; ; ; < J 4 < ; ; ; ; ; ; ; ; ; ; ; ; ; ; X O X O [ ] ` [ { | } } } } | | } { } { ",
"3.. ; ; ; ; ; ; ; ; ; ; ; ; ; ; ; ; ; ; ; ; ; ; ; ; < U 6.U > ; ; ; ; ; ; F F < ; ; ; < X O X X { [ ' [ [ | } } { | | | | | | } ",
", ; ; ; ; ; ; ; ; ; ; ; ; ; ; ; ; ; < ; ; ; ; ; ; ; w l.n.g.U ; ; ; ; 4 0 J H < ; ; ; ; X O X X ] } | [ [ | { | } | | | | | | | ",
"; ; - ; ; ; ; ; ; ; ; ; ; ; ; ; ; ; D ; ; ; ; ; ; ; 9.B.V.m.e.4 ; ; ; J I 9 ; ; ; ; ; ; X O O O ' } | ` } { } [ | | } Q [ | | | ",
"; 1  .1 ; ; ; ; ; ; ; ; ; ; ; ; ; ; 5 / 4 ; ; ; ; ; 5 z.v.h.q ; ; ; 7 J J ; ; < < ; ; ; X O X O W [ | } ] { } } } [ { } ' | | | ",
"; ; ; ; ; ; ; ; ; ; ; ; ; ; ; ; ; ; ; ; ; ; ; ; ; ; ; 5 4.q ; ; ; ; : : ; ; 4 ^ 4 ; ; ; O O X O ~ ] } } ' { } { } { { ] [ | | | ",
"; ; ; ; ; ; - 2 ; ; ; ; ; ; ; ; ; ; ; ; ; ; ; ; ; ; ; < q < ; ; ; ; ; ; ; ; ; 5 < ; ; ; X O O X Q ' } ` [ ! } [ | | { [ } | { } ",
"; ; ; < F 7 < m 2 ; ; ; ; ; ; ; a ; ; ; ; ; ; ; ; ; ; ; ; ; ; ; ; < f < ; ; ; ; ; ; ; ; X X X O ] ] { { { ` { } | | [ | } } ] } ",
"; ; ; < 7 J F < ; ; ; ; ; ; ; < x.  ; ; ; ; ; ; ; ; F F ; ; ; ; ; 3 =.3 ; ; ; ; ; ; ; ; X X X O [ { [ { { ] ' [ [ } | | } } } } ",
"; ; ; ; ; J J ; ; ; ; ; ; ; ; ; 5 ; ; ; ; ; ; ; ; < J F 9 ; ; ; ; < 3 < ; ; ; ; ; ; ; ; O O X X ' | { Q ' | | [ } | | | | | | | ",
"; ; ; ; ; ; ; ; ; ; ; ; ; ; ; ; ; ; ; ; ; ; ; ; 3 S < 7 F ; ; ; ; ; ; < ; ; ; ; ; ; ; ; X O O O A C Z Z C b b n Z Z Z C A b C Z ",
"; ; ; ; ; ; ; ; ; ; ; ; ; ; ; ; ; ; 7 : ; ; ; ; -   ; > ; ; ; ; ; ; ; 4 ; ; ; ; ; ; ; J X O O X Z b n C b b c z = n b b Z C b C ",
"; ; ; ; ; ; ; ; ; ; - 4 < ; ; ; ; J P 9 2 ; ; ; ; ; ; ; ; ; ; ; ; ; ; ; ; ; ; ; ; ; ; 7 X O O O Z v b C b b c c j b b C Z C C C ",
"; ; ; ; ; ; ; ; ; ; > / 5 ; ; ; ; F H 6 V < ; ; ; ; ; < a < ; ; ; ; ; ; ; ; ; ; ; ; ; < X O X O Z C n n n b g j j c j c b n C n ",
"; ; ; D ; ; ; ; ; ; ; 4 < ; ; ; ; < 4 D 2 ; ; ; ; ; ; u y.a ; ; ; ; ; ; ; ; ; ; ; ; ; ; X O X O b b c c x h z b c c c n C b n Z ",
"; ; ; < ; ; ; ; ; ; ; ; ; ; ; ; ; ; < 4 ; ; ; ; ; ; ; < < ; ; ; ; < ; ; ; ; ; ; f >.2 ; X X O O C b c k k c c b c k c v b b v n ",
"; ; ; ; ; ; - ; ; ; ; ; ; ; ; ; ; ; a u.6 ; ; ; ; ; ; ; ; ; ; ; 4 _ 5 ; ; ; ; ; ; - ; ; X X O O Z b c * c c c b Z b C Z A Z Z Z ",
"; ; ; ; ; D ; ; ; ; ; ; ; ; ; ; ; ; < a < ; ; ; ; ; ; ; ; ; ; ; < 5 < ; ; ; ; ; ; ; ; ; X X O O Z C C h c v c c c C Z C Z A Z Z ",
"; ; ; J J < ; ; ; ; ; ; ; ; ; ; ; ; ; ; ; ; ; ; ; ; ; ; ; ; ; ; ; ; < ; ; ; 3 < ; ; < a X X X O b C C b C Z v n j b C Z A A Z Z ",
"; ; ; J I 7 ; ; ; ; ; - ; ; ; F ; ; ; ; ; ; ; ; ; ; ; ; ; ; ; ; ; ; F 7 ; < N 3 ; ; 4 x.X X O O C C C c x k b n k j C Z Z Z Z b ",
"; ; D : 7 4 ; ; ; ; ; @  .r . ; - ; ; ; ; ; ; ; ; ; ; < ; ; ; ; ; ; : : ; ; < ; < ; ; 4 O X O O Z b b h c c b b k k n C n Z C k ",
"; - ; ; ; ; H < ; ; @ +.;.O.r ; ; ; ; ; ; ; ; ; ; ; < 7 9 4 F ; ; ; ; ; ; ; ; 2 M 2 ; 7 O O O O C C b h j c h k j c b b C Z C c ",
"; ; ; ; ; ; ; ; ; -  .;.<.-...1 ; ; ; ; ; ; ; ; ; ; ; 9 P H : ; ; ; ; ; ; ; ; < 3 < F F O X O O A n = v n b z j v b b C Z C x k ",
"; ; ; ; D ; ; ; ; - @ O.-.o.# ; ; ; ; ; ; ; ; ; ; ; < : H F ; ; ; ; ; ; ; ; ; ; ; < F F X X O O A v k b C b j n Z b n Z A A Z j ",
"; ; ; ; ; ; ; ; ; ; ; # ..y ; ; ; ; ; ; ; ; ; ; ; ; < F ; ; ; ; ; ; ; ; ; ; ; ; ; ; < < X X O O A v b C Z n v C n n Z A Z Z b k ",
"; ; ; ; ; ; ; ; ; ; ; < < < ; ; ; ; ; < F 9 < M 2 ; ; q 4.q - ; ; ; ; ; ; J J < ; ; ; ; X X X O c k C n k c j k x c Z Z C C C j ",
"; > > ; ; ; ; ; ; ; ; ; ; < 3 < ; ; ; ; 7 J J < ; ; 5 c.m.k.q ; ; ; ; ; 7 J J ; ; ; ; ; X O O O b C C Z Z b j j b k v b n Z b j ",
"4 _ 5 ; ; ; ; ; ; ; ; ; ; f 2.3 ; ; ; ; ; F F < ; - q.B.Z.m.e.5 ; ; ; J I 9 ; ; ; ; ; ; X X X O Z C C C b c = v Z v C Z C A Z j ",
"; 5 ; ; D 7 ; ; ; ; ; ; ; < f < ; ; ; ; ; ; ; ; ; ; w k.n.g.s ; ; < 7 J J < ; 4 < ; ; ; X X X X Z Z C b x j = C Z b C C A A Z j ",
"; ; ; ; : J F < < 5 ; ; ; ; ; ; ; ; ; ; ; ; ; ; ; ; ; s 5.s < ; ; ; : : ; ; < ( G ; ; p X X X X Z Z C c c j * n C b n Z Z A Z j ",
"; ; ; ; ; J J < 5 ) < ; ; 4 4 ; ; ; ; ; ; ; ; ; ; ; ; > 5 ; ; ; ; ; ; ; ; ; ; 4 < ; 4 f.O O X X c Z C b n j = n C c Z Z A A A n ",
"; ; ; ; ; ; ; ; ; < ; ; F J 7 ; ; ; ; ; ; ; ; ; ; ; ; ; ; ; ; ; ; ; 2 ; ; ; ; ; ; - d.N.O O O O n C C Z C C c A C C A C Z Z A A ",
"; ; ; ; ; ; ; ; ; ; ; 0 P J ; ; ; ; ; F ; ; ; ; ; ; J J ; ; ; ; ; 3 :.3 ; ; ; ; ; ; < d.X X O X Z n n C b v b A Z Z Z C Z Z A C ",
"; ; ; ; ; ; ; ; ; ; F F 0 < ; ; ; ; ; < ; ; ; ; < 2 F F 9 ; ; ; ; < f < ; ; ; ; ; ; < p X X O X v C n k * c b A Z Z Z n C Z Z Z ",
"; ; ; ; ; ; ; ; ; ; F F ; ; ; ; ; ; ; ; ; < ; ; 2 M < 7 D ; ; ; ; ; ; < q ; ; ; ; ; ; ; X X O X h k c n v b b Z C C C c c n b Z ",
"; ; ; ; ; ; ; ; ; ; ; ; ; - - ; ; ; ; - - F - ; ; < ; ; ; ; ; ; ; ; ; G 7.< ; ; ; ; ; ; X X O O b c c x z C Z Z Z Z n c v v c Z ",
"; ; ; ; ; ; ; ; ; ; ; q i.p ; ; ; ; < J J ; ; ; ; ; ; ; ; ; ; ; ; ; p k.N.k.> ; ; ; ; ; X X O X Z C b b b C C Z A A Z n C b b A ",
"; ; ; ; ; ; ; ; ; ; < k.v.s.5 ; ; ; < J I 9 ; ; ; ; ; < 6 < ; ; - 4 0.M.C.N.7.q ; ; ; ; X O O X v h v b b C C C Z Z Z n n b v Z ",
"; ; ; ; ; ; ; ; ; ; < T p.R < ; ; ; e : 8 4 ; ; ; ; ; 6 t.u ; ; ; < Y j.M.j.w < ; ; ; ; X X O O b l b c h g b Z Z Z Z b b v b Z ",
"; ; ; ; ; ; ; ; ; ; 3 < q 9 9 ; ; ; ; ; ; < D < ; ; ; < a < ; ; ; 5 < Y 0.p ; ; ; ; ; ; X X X X n b k b h h n C C Z Z C c x C C ",
"; ; ; ; ; ; ; ; ; ; B ; ; 7 F ; ; ; ; ; ; ; ; ; ; ; ; ; ; ; ; ; > _ 5 < 5 ; ; ; ; ; ; ; X X X X n C k h b C C b C Z A C x j n C ",
"; ; ; ; ; ; ; ; ; ; 2 - ; ; ; - ; ; ; ; H ; ; ; ; ; ; ; ; ; ; ; ; 4 < ; ; ; ; ; ; ; ; ; X O O X z n b c h c C b C Z Z C c j b Z "
};
