/* XPM */
static char *xpm_[] = {
/* columns rows colors chars-per-pixel */
"64 64 152 2 ",
"   c #0F0D1F",
".  c #100E1E",
"X  c #141414",
"o  c #11101F",
"O  c #1B1B1B",
"+  c #1D121F",
"@  c #22131F",
"#  c #29121E",
"$  c #2C181F",
"%  c #321A1D",
"&  c #3D1F1D",
"*  c #3C2415",
"=  c #3E291A",
"-  c #0F0F21",
";  c #100F21",
":  c #140F2C",
">  c #0F1122",
",  c #0F122E",
"<  c #121123",
"1  c #1A1422",
"2  c #171820",
"3  c #1B1A22",
"4  c #12142B",
"5  c #131A2B",
"6  c #191C2D",
"7  c #150F32",
"8  c #180F34",
"9  c #161032",
"0  c #191034",
"q  c #131B33",
"w  c #121C39",
"e  c #1C113F",
"r  c #251420",
"t  c #2A1821",
"y  c #2E132C",
"u  c #17202E",
"i  c #1F2023",
"p  c #162134",
"a  c #192332",
"s  c #14223D",
"d  c #192A3B",
"f  c #252424",
"g  c #492716",
"h  c #4D2B16",
"j  c #442D1E",
"k  c #4D2D1D",
"l  c #432113",
"z  c #512F17",
"x  c #502E1D",
"c  c #54321D",
"v  c #59371F",
"b  c #5D3B23",
"n  c #613F27",
"m  c #494A1F",
"M  c #52541F",
"N  c #5E611E",
"B  c #5D5F20",
"V  c #515220",
"C  c #64422A",
"Z  c #68462E",
"A  c #6A4830",
"S  c #5D6020",
"D  c #1E1245",
"F  c #1F1249",
"G  c #191A45",
"H  c #201247",
"J  c #21124B",
"K  c #3E1C43",
"L  c #351456",
"P  c #371558",
"I  c #3B155D",
"U  c #152441",
"Y  c #162947",
"T  c #192D43",
"R  c #1A3047",
"E  c #384C4C",
"W  c #355151",
"Q  c #395555",
"!  c #3E5A5A",
"~  c #2B4747",
"^  c #1E5E67",
"/  c #1E5F68",
"(  c #1C5462",
")  c #1E6C73",
"_  c #216D74",
"`  c #425E5E",
"'  c #466262",
"]  c #4A6666",
"[  c #4E6A6A",
"{  c #516D6D",
"}  c #567272",
"|  c #597575",
" . c #9A2314",
".. c #A62913",
"X. c #AD2312",
"o. c #AC3616",
"O. c #BB3714",
"+. c #CA3812",
"@. c #BC5111",
"#. c #CA4F0F",
"$. c #D0550E",
"%. c #D65B11",
"&. c #E6560C",
"*. c #DE6011",
"=. c #BFBC3A",
"-. c #EA881B",
";. c #F1911B",
":. c #C1BD3A",
">. c #DEDB3F",
",. c #F7CE33",
"<. c #F9D333",
"1. c #F9E039",
"2. c #DDDA40",
"3. c #09309D",
"4. c #1A5EBB",
"5. c #1E62B3",
"6. c #2066B5",
"7. c #1D69D3",
"8. c #1F6FD9",
"9. c #1E71DC",
"0. c #2372CC",
"q. c #2070DB",
"w. c #2778D3",
"e. c #237BE6",
"r. c #3591BF",
"t. c #53A69E",
"y. c #5DBBB1",
"u. c #5EC1B5",
"i. c #3698C6",
"p. c #3A9CC5",
"a. c #3BA2CD",
"s. c #3CA4D1",
"d. c #3AABDE",
"f. c #37A5D3",
"g. c #42AAD2",
"h. c #41AFDD",
"j. c #45B3DE",
"k. c #42B5E3",
"l. c #47BAE6",
"z. c #45BFF3",
"x. c #6BDBCB",
"c. c #47C3F7",
"v. c #6BEAE6",
"b. c #6BE7E5",
"n. c #70E3E5",
"m. c #75EBE5",
"M. c #7BECE6",
"N. c #70F2E5",
"B. c #7DF9E4",
"V. c #D2EFE7",
"C. c #DCEFE7",
"Z. c #CFF0E5",
/* pixels */
"; ; ; ; ; ; ; ; ; ; ; ; ; ; 4 ; ; ; ; ; ; ; ; ; ; ; ; ; ; ; ; ; ; ; ; ; ; ; ; , 3.4 ; ; ; ; ; ; ; ; ; ; F ; ; ; ; ; ; 2 M 2 ; ; ",
"; ; ; ; ; ; ; ; ; ; ; ; ; 5 _ > ; ; ; ; - ; ; ; ; ; ; ; ; ; ; ; ; ; ; ; ; 1 ; ; . ; ; ; ; ; ; ; ; ; ; ; ; ; ; ; ; ; ; ; ; ; ; ; ",
"; ; ; ; ; ; ; ; ; ; ; ; ; ; 5 > ; ; ; ; ; D ; ; ; ; ; ; ; ; ; ; ; ; ; ; ;  .- ; ; ; ; q < ; ; ; ; ; ; ; ; ; ; ; < @ F F : < a < ",
"; ; ; ; ; ; ; ; ; ; ; ; ; ; ; ; ; ; ; ; ; : J H ; ; < D ; ; ; ; ; < < ; ; 1 ; ; ; ; < r.p a < ; ; ; ; ; ; ; ; ; & *.K F 7 a u.5 ",
"; ; ; ; ; ; ; ; ; ; ; ; : D ; ; ; ; D ; ; 7 I J ; ; ; ; ; ; ; ; ; 7 F ; ; ; ; ; ; ; ; q 6 y.6 ; ; ; ; ; ; ; ; @ %.1.&.7 7 < a < ",
"; ; ; ; ; ; ; ; ; ; ; H H 7 ; ; ; ; ; ; ; 4 7 < D ; ; ; ; ; ; ; H H 7 ; ; ; ; ; ; ; ; ; ; < > ; ; < ; ; ; ; ; ; $ &.+ - ; ; ; ; ",
"; ; ; ; ; ; ; ; ; ; ; H F ; ; ; ; ; ; ; H ; ; ; ; - ; ; ; ; ; ; H F < - ; ; ; ; ; ; ; ; ; ; ; ; 1 N 2 ; ; ; ; ; ; ; ; ; ; ; ; ; ",
"; ; ; ; ; ; ; ; ; ; ; < < ; ; ; ; ; ; ; < ; ; ; ; ; ; ; ; ; ; ; ; < m 2 ; ; ; ; ; ; 4 ; ; ; ; ; < 2 < ; ; ; ; ; ; ; ; ; ; ; ; ; ",
"; ; ; ; ; ; ; ; ; ; ; 5 < ; ; ; ; ; ; ; ; ; ; ; ; ; ; ; ; ; ; ; ; ; 2 ; ; ; ; ; ; ; / - ; ; ; ; ; ; < ; ; ; ; ; ; ; ; ; ; ; ; ; ",
"; ; ; ; ; ; ; ; ; ; < ) 5 ; ; ; ; ; - - ; ; ; ; ; ; ; ; ; ; ; ; ; ; ; ; ; ; ; ; ; ; < - ; ; ; ; ; ; F : ; ; ; ; ; ; ; ; ; ; ; ; ",
"2 B 2 < < ; ; F F ; ; < ; ; ; ; ; ; @  .@ ; ; ; ; ; ; ; > - ; ; ; ; ; ; ; ; ; ; ; ; ; ; ; ; ; ; ; ; 7 J I ; ; ; ; ; ; ; ; ; ; ; ",
"- ; < T k.q ; F F 0 ; ; ; ; ; ; < # O.;.+.@ - ; ; ; ; 4 / 4 ; ; ; ; ; ; ; ; ; ; ; ; ; ; ; ; ; ; ; ; ; F J 8 ; ; ; ; 4 ; ; ; ; ; ",
"; ; q p.v.i.; ; 0 P F ; ; ; ; ; 1 ..-.<.;. .; ; ; ; ; < 5 < ; ; ; ; ; ; ; ; ; ; ; ; ; ; ; ; ; ; ; ; ; : 7 F ; ; ; > ^ < 7 D ; ; ",
"; 7 9 R s.p - ; < H H 4 ; < f < < y o.-.O.r ; ; ; ; ; ; ; ; ; ; ; ; ; ; ; ; ; ; ; ; ; ; ; ; ; ; ; ; < a < < ; ; ; ; 5 P H 7 ; ; ",
"; F 9 < 5 ; - ; ; ; 7 4 ; f 2.3 ; ; # ..r . ; ; ; ; ; ; ; ; ; ; ; ; ; ; ; ; ; ; ; ; ; . ; ; ; ; ; ; a u.a ; ; ; ; - 7 J H ; ; ; ",
"- ; ; ; ; ; ; ; ; ; ; ; ; < 3 < ; ; ; 1 ; ; F ; ; ; ; ; ; ; ; ; ; < ; ; ; ; ; ; ; ; < 7.w ; ; ; ; ; < 5 ; ; ; ; ; ; F 7 ; ; ; ; ",
"; ; ; ; ; ; ; ; ; ; ; ; ; ; ; ; ; ; ; ; ; - ; ; ; ; ; ; ; ; ; ; 5 x.a ; ; ; ; ; ; ; 8.b.w.q ; ; ; ; ; ; 1 ; ; ; ; ; ; ; ; F 0 < ",
"; ; ; ; ; ; ; ; ; ; ; ; ; ; ; ; ; ; ; ; ; ; ; ; ; ; ; < F H ; ; ;   ; ; ; ; ; ; ; ; > 7.q - ; ; ; ; ; @ X.< ; ; ; ; ; ; ; 7 J J ",
"; ; ; e < < ; ; ; ; ; ; ; ; ; ; ; ; ; ; ; ; ; ; < a < 4 H L 7 ; ; ; ; ; ; 5 D < ; ; ; q > ; ; ; ; ; ; < @ ; ; ; ; ; ; ; ; < L J ",
"; ; ; : H H - ; < F ; ; ; ; ; ; < ; ; ; ; ; ; ; a u.4 D 6 9 : ; ; ; ; ; ; / ; ; ; ; ; ; ; ; ; ; ; ; ; ; ; ; ; ; ; ; ; ; ; ; < 7 ",
"H ; ; 8 I H - ; ; ; ; ; ; ; ; 7 F ; ; ; ; ; ; ; < 6 ; 2 V 2 ; ; ; ; ; ; ; 4 ; ; ; ; ; < ; ; ; ; ; ; ; ; ; ; ; ; ; ; ; ; ; ; ; ; ",
"; ; < 4 9 ; F < ; ; ; ; ; ; F J 9 ; ; ; ; ; ; ; ; ; ; ; < ; ; ; ; ; ; ; ; ; ; ; ; ; ; i =.f ; ; ; ; ; ; ; ; ; ; ; ; ; ; ; ; ; ; ",
"; ; D ; ; ; - ; ; ; ; ; ; ; F H 1 ; ; ; ; ; ; ; ; ; ; ; ; ; ; ; ; ; ; ; ; ; ; ; ; ; ; - ; ; ; ; ; ; ; ; ; ; ; ; ; ; ; ; ; ; ; ; ",
"; ; < ; ; ; ; ; ; ; ; ; ; ; < < M ; ; ; ; ; ; ; ; ; ; ; ; ; ; ; ; ; ; ; ; ; ; ; ; ; ; ; ; ; ; ; ; ; < 2 < ; ; ; ; ; ; ; ; ; ; ; ",
"; ; ; ; ; ; ; 2 < ; ; ; ; ; ; ; 2 ; ; ; ; ; ; ; ; ; ; ; ; ; - 2 ; ; ; ; ; ; ; ; ; ; ; ; ; ; ; ; ; ; 2 m 2 ; ; ; ; ; ; D ; ; ; ; ",
"; ; ; ; ; ; 1 M 2 ; ; ; ; ; - ; ; ; ; ; ; ; ; ; ; ; ; ; ; ;   S o ; ; ; ; ; ; ; ; ; ; ; ; - ; ; ; ; - 1 ; ; ; ; ; ; ; ; ; ; ; ; ",
"; ; ; ; ; ; ; < F H ; ; ; w q.5 ; < < ; < ; ; ; ; ; ; ; ; ; ; < H F ; ; ; 4 9.w < < < < 6 y.5 ; ; < < < F H ; ; ; ; ; ; q i.q - ",
"; ; < 6 < ; ; 7 F H ; > s k.B.c.q F : 0 7 < ; ; ; ; < u < ; > 8 F F ; < 4 z.B.l.U H < 8 7 ; ; 4 5 x.a 9 F H ; ; ; ; ; q a.v.k.4 ",
"; ; a t.6 ; ; D 9 ; ; 4 5.n.Z.m.4.; H L 9 ; ; ; ; ; < y.a ; ; F 0 ; ; q 4.v.V.n.6.4 H P 0 < - / < d < 9 9 ; ; ; ; ; ; < T p.T < ",
"; ; < u < ; ; ; ; ; ; ; s g.m.k.q ; F H 4 ; ; ; ; ; ; a < ; ; ; ; ; ; < q h.m.g.U < F H 4 ; ; 4 ; ; ; ; ; ; ; ; ; ; ; ; < q 2 < ",
"; ; ; ; ; ; ; ; ; ; ; ; < s e.q - ; ; : F ; ; ; ; ; ; ; ; ; ; ; ; ; ; ; ; q e.U > ; ; ; D < ; ; ; ; ; ; ; ; ; ; ; ; ; ; ; 2 S 2 ",
"; ; ; ; ; ; ; ; ; ; ; ; ; ; 4 ; ; ; ; ; ; ; ; ; ; ; ; ; ; ; ; ; ; ; ; ; ; ; 4 ; ; ; ; ; ; ; ; ; ; ; ; ; ; ; ; ; ; ; ; ; ; < 2 ; ",
"; > ; ; - ; ; ; ; ; ; ; ; ; ; ; ; ; ; ; ; ; ; ; < 4 ; ; ; ; ; ; ; ; ; ; ; ; ; ; ; ; ; ; ; ; ; ; < t #.t < ; ; ; ; ; ; ; ; ; ; ; ",
"4 _ 5 < 4 ; ; ; < 3 ; ; ; < ; ; ; ; ; ; ; ; ; ; 5 _ < ; ; ; ; ; < 3 < ; ; ; ; ; ; ; ; ; ; ; ; ; 1 &.,.$.@ ; ; ; ; ; ; ; 7 F ; ; ",
"< 5 < Y 0.p ; ; f :.2 ; : 7 ; ; ; ; ; ; ; : F < < 5 ; ; ; ; ; ; 2 =.f ; : 7 ; ; ; ; ; ; ; 7 F < ; % @.% < ; ; ; ; ; ; P J 9 ; ; ",
"; < Y j.M.k.G < < 3 ; ; : H J ; ; ; ; ; ; : 7 ; ; ; ; ; ; ; 4 < < 3 < ; : H J 4 ; ; ; ; ; : 7 < ; ; 1 < ; 5 ; ; ; ; 9 H F < ; ; ",
"; 4 0.M.C.N.7.q ; ; ; ; ; H I 7 ; ; ; ; ; ; ; ; ; ; ; ; ; ; ; ; ; ; ; ; ; J I 0 ; ; ; ; ; ; ; ; ; ; D 9 < _ ; ; ; > F 7 ; ; ; ; ",
"; ; p j.N.k.< ; ; ; ; ; ; < 9 J H ; ; ; ; ; < ; ; ; ; ; ; ; ; ; ; ; ; ; ; ; 9 H F ; ; ; ; ; < ; ; ; 9 J I < ; ; ; ; < < 4 < ; ; ",
"; ; ; w 7.> ; ; ; ; ; ; < ; ; H H ; ; ; ; < N 2 ; ; ; ; ; ; ; ; ; ; ; ; 4 ; ; H F ; ; ; ; 2 N 2 ; ; ; F J 7 ; ; ; ; ; a u.a ; ; ",
"; ; ; < q ; ; ; ; ; ; 4 ( 4 ; ; < ; ; < 2 ; 2 < ; ; ; ; ; ; ; ; ; ; ; 5 ^ < ; < < ; ; ; ; < 2 < ; ; ; : 7 F ; ; ; ; ; < a < ; ; ",
"; ; ; ; ; ; ; ; ; ; ; < G < ; ; ; ; ; 2 M < ; ; ; ; f ; ; ; ; ; ; ; ; < 4 < ; ; ; ; ; ; ; ; ; ; ; ; ; ; ; ; ; ; ; ; ; ; ; ; ; ; ",
"; ; ; ; ; ; ; ; ; ; - ; ; ; ; ; ; ; < < 2 ; ; ; ; - >.; ; ; ; ; ; ; ; ; ; ; ; ; ; ; ; ; ; ; ; ; ; ; ; ; ; ; ; ; ; ; ; ; ; ; ; ; ",
"; ; ; ; ; ; ; ; < < d.4 ; ; ; ; ; ; F F ; ; 4 < ; ; 2 ; ; ; ; ; ; ; ; ; ; ; ; ; ; ; ; ; < ; - B < ; < < ; ; ; ; ; ; ; ; < D ; ; ",
"; ; ; ; ; ; ; ; p d.N.f.p ; ; ; ; ; F F 7 4 x.a ; ; ; ; < 8 H ; ; ; ; ; ; ; ; ; < ; ; d s.T < ; ; ; < < ; ; ; ; D < ; ; D J H ; ",
"X X X X X X X X X X O O X X X X X X X O O O X X X X X X X X X X O X X X O X X X X X O O X X X O X X X O O X X X X X X O O O O O ",
"O X X X O X X X X X O O X X X O X X X O O X X X X X X O O O O O O X X O O O O O O O O X X X X O X O O O O O O X O O O X X O O O ",
"O X X O O O O O O O O X X X X O X O O O O O O X O O O X X O O O X X X O X X O X X X O X X X O O O O O O O O O O O O O O O O X O ",
"X X X O X X O X X X O X X X O O O O O O O O O O O O O O O O X O X O O X O O O X X O X X O O O O O O O O O O O O O O O O O O O O ",
"z n n b v Z b h v C n v C C Z b c A A A C C C b C C C b Z C Z A ' [ ] Q ~ W ' ] { [ [ { } ' [ { [ ' { } } ` [ { } [ [ { { ` ] ] ",
"n C b l h C z k C n C Z Z Z C C k v v n C b C C C b b b C v b C | { ] ' ] [ } } [ ] ! ` ` Q ` ' [ ` { } } ] ' { [ ] { { } ] { Q ",
"b k k b v b c v n n C C C C C C C b k = b b C C C c z v n b n C { [ { } } | | | ' ` ` ` ! [ } } { [ } [ [ ! ] [ ] ' { [ } [ { ' ",
"c h b v b b x n k C C b c b C C n C b v h h c b h * k c n C C Z Q { { ` } } ` [ [ [ { | | } | | | ` | | | | { { { } | | } ] { { ",
"h b h h b b z v * b C n v x b C k C C n j c x C v c k k n b b C ' { { [ ' ] } [ [ { | | | } } | | | | [ [ { } } } } } { } } | } ",
"c C h g C C C b c v C j j j c b c n b b c c k C v v c g b b b b | ] ` ! { { { | | | } } { } [ } | | } [ W [ } [ } { } ] ' { } } ",
"C C n b C C Z b b b c = * = = j j v j z h b b v c c v c g c c b | ' { } } } } { } } } } } | ! { | | [ { [ } [ [ ] } | | } { ] } ",
"b b C C C Z Z C A A A n n C v j k C n j k b n n c b b b j c z n [ [ } [ { } [ | } } { } } | } { } | | | | | ] [ [ } | | } } ] { ",
"C C C C Z A Z C Z Z C C C Z C b x n C v j k k j c C v c j j = C } [ | | } } | } { } [ | | | [ ` ! [ { } } } ] { } | | | } | | | ",
"Z Z Z Z C A Z C C C C v b b v k c n b b c k j b C b k v c b n Z | } | | { [ | | | } | | | | [ ' ] [ { | | } ' { { | | [ | | | | ",
"Z A Z Z Z Z n C C Z A Z n C C v C Z n b b n C C C C b c j b b C | | [ { { { } | | | | | | } { | } | { | } { } { { [ | { ] | | | ",
"C C C b n n c c n C C C C C C b C A Z C b C C Z C Z v n c C b C | | | [ ] } Q | | | | { { { { } } | | | | | } [ ` ] | ] ! } } | ",
"v x v b n C v v C C C A Z A C n C Z A Z C n Z A C A b C b C C A | } } } [ ' [ | | } ] W W ` } { { | | | | { ! ! } { } ' ] { } | ",
"j j x v b b v n Z C Z A A A A Z C Z A C C C Z A A Z b b n C C b | } } | | | | | | { } | | | } } } | | | } [ ' [ ] { ] ` { ` | | ",
"b n C b v b v b Z A A A C Z Z b C b Z x C C C Z Z Z v n C C b C | } ] { | | | | | } { | { } } } { | | | } ' [ ` { { { ] { E { } ",
"C C C Z C A Z C C C A n j j j j j k j k c k n C C C n C n C C Z | } } } | | | | } { } | [ { { ] ' | { { | ' } ' ` } } } } [ { } "
};
