/* XPM */
static char *xpm_[] = {
/* columns rows colors chars-per-pixel */
"64 64 152 2 ",
"   c #0F0D1F",
".  c #100E1E",
"X  c #141414",
"o  c #11101F",
"O  c #1B1B1B",
"+  c #1D121F",
"@  c #22131F",
"#  c #29121E",
"$  c #2C181F",
"%  c #321A1D",
"&  c #3D1F1D",
"*  c #3C2415",
"=  c #3E291A",
"-  c #0F0F21",
";  c #100F21",
":  c #140F2C",
">  c #0F1122",
",  c #0F122E",
"<  c #121123",
"1  c #1A1422",
"2  c #171820",
"3  c #1B1A22",
"4  c #12142B",
"5  c #131A2B",
"6  c #191C2D",
"7  c #150F32",
"8  c #180F34",
"9  c #161032",
"0  c #191034",
"q  c #131B33",
"w  c #121C39",
"e  c #1C113F",
"r  c #251420",
"t  c #2A1821",
"y  c #2E132C",
"u  c #17202E",
"i  c #1F2023",
"p  c #162134",
"a  c #192332",
"s  c #14223D",
"d  c #192A3B",
"f  c #252424",
"g  c #492716",
"h  c #4D2B16",
"j  c #442D1E",
"k  c #4D2D1D",
"l  c #432113",
"z  c #502E1D",
"x  c #512F17",
"c  c #54321D",
"v  c #59371F",
"b  c #5D3B23",
"n  c #613F27",
"m  c #494A1F",
"M  c #52541F",
"N  c #5E611E",
"B  c #5D5F20",
"V  c #515220",
"C  c #64422A",
"Z  c #68462E",
"A  c #6A4830",
"S  c #5D6020",
"D  c #1E1245",
"F  c #1F1249",
"G  c #191A45",
"H  c #201247",
"J  c #21124B",
"K  c #3E1C43",
"L  c #351456",
"P  c #371558",
"I  c #3B155D",
"U  c #152441",
"Y  c #162947",
"T  c #192D43",
"R  c #1A3047",
"E  c #384C4C",
"W  c #355151",
"Q  c #395555",
"!  c #3E5A5A",
"~  c #2B4747",
"^  c #1E5E67",
"/  c #1E5F68",
"(  c #1C5462",
")  c #1E6C73",
"_  c #216D74",
"`  c #425E5E",
"'  c #466262",
"]  c #4A6666",
"[  c #4E6A6A",
"{  c #516D6D",
"}  c #567272",
"|  c #597575",
" . c #9A2314",
".. c #A62913",
"X. c #AD2312",
"o. c #AC3616",
"O. c #BB3714",
"+. c #CA3812",
"@. c #BC5111",
"#. c #CA4F0F",
"$. c #D0550E",
"%. c #D65B11",
"&. c #E6560C",
"*. c #DE6011",
"=. c #BFBC3A",
"-. c #EA881B",
";. c #F1911B",
":. c #C1BD3A",
">. c #DEDB3F",
",. c #F7CE33",
"<. c #F9D333",
"1. c #F9E039",
"2. c #DDDA40",
"3. c #09309D",
"4. c #1A5EBB",
"5. c #1E62B3",
"6. c #2066B5",
"7. c #1D69D3",
"8. c #1F6FD9",
"9. c #1E71DC",
"0. c #2372CC",
"q. c #2070DB",
"w. c #2778D3",
"e. c #237BE6",
"r. c #3591BF",
"t. c #53A69E",
"y. c #5DBBB1",
"u. c #5EC1B5",
"i. c #3698C6",
"p. c #3A9CC5",
"a. c #3BA2CD",
"s. c #3CA4D1",
"d. c #3AABDE",
"f. c #37A5D3",
"g. c #42AAD2",
"h. c #41AFDD",
"j. c #45B3DE",
"k. c #42B5E3",
"l. c #47BAE6",
"z. c #45BFF3",
"x. c #6BDBCB",
"c. c #47C3F7",
"v. c #6BEAE6",
"b. c #6BE7E5",
"n. c #70E3E5",
"m. c #75EBE5",
"M. c #7BECE6",
"N. c #70F2E5",
"B. c #7DF9E4",
"V. c #D2EFE7",
"C. c #DCEFE7",
"Z. c #CFF0E5",
/* pixels */
"Z b j v C Z Z C b C c h c b n x X O O X ; ; ; ; ; ; ; ; ; < < ; ; ; ; ; ; ; ; ; ; ; ; H ; ; ; ; - ; ; ; - 2 ; ; ; ; ; ; ; ; ; ; ",
"C n j z C A Z C b C C b h k C n X X X X ; ; ; ; ; ; ; 4 < 5 _ > ; ; ; ; ; ; ; ; ; ; ; ; ; ; ; ; ; D 7 ; ; B ; ; ; ; ; ; ; ; ; ; ",
"C C z v C Z Z C C n h h b k b n X X X X ; ; ; ; ; ; p 0.Y < 5 ; ; ; < a < ; ; ; < D < ; ; ; ; ; ; 9 9 q < 2 ; ; ; ; ; ; ; ; ; ; ",
"Z b v b b Z Z Z Z b g h v b l b O O X X ; ; ; ; < w j.M.j.Y < ; ; ; u t.6 ; ; ; ; ; 4 8 : e ; ; ; < R p.T < ; ; ; ; ; ; ; ; ; ; ",
"Z v b n n Z Z Z C C C b b v h v X O O X ; ; ; ; w 7.N.C.M.0.4 - ; ; < 6 < ; ; ; ; ; 9 I J < ; ; ; 5 s.v.k.< ; ; ; ; ; ; ; ; ; ; ",
"A b b C n Z A A Z C C b b b C Z X O X X ; - ; ; ; > k.N.k.p ; ; ; ; ; ; ; ; ; ; ; ; ; J J < ; ; ; ; p i.w ; ; ; ; ; ; ; ; ; ; ; ",
"Z v v v c n Z Z Z Z C x z c c b O O X X ; ; ; ; ; ; < 7.G ; ; ; ; ; ; ; ; ; < ; ; - D - - ; ; ; ; - - ; ; ; ; ; ; ; ; ; ; ; ; ; ",
"Z b n v c C C C Z b b v n v k h X O X X ; ; ; ; ; ; ; w < ; ; ; ; ; ; D 7 < M 2 ; ; < ; ; ; ; ; ; ; ; ; D D ; ; ; ; ; ; ; ; ; ; ",
"Z Z Z C n Z Z Z A b c * k n C v X O X X p < ; ; ; ; ; ; < f < ; ; ; ; 9 F F 2 < ; ; ; ; < ; ; ; ; ; < 0 F D ; ; ; ; ; ; ; ; ; ; ",
"C A Z Z C Z Z Z A b v b C n n Z X O X X d.< ; ; ; ; ; ; 3 :.3 ; ; ; ; ; J J ; ; ; ; ; ; D ; ; ; ; ; J P 0 ; ; ; ; ; ; ; ; ; ; ; ",
"A A Z Z C A C C A c C C Z C C n O O O O N.d.- ; ; ; ; ; ; 2 ; ; ; ; ; ; ; ; ; ; ; ; ; ; ; ; ; ; ; 7 J D ; ; < ; ; ; ; ; ; ; ; ; ",
"n A A A Z Z v C n = j n b C Z v X X O O f.4 ; < < ; ; ; ; ; ; ; ; ; ; 4 > ; ; ; ; ; ; ; ; ; ; ; ; 4 4 ; ; < ) 5 < J J ; ; ; ; ; ",
"j Z A Z Z n b C n * j v c C Z C X X X X p ; ; G ( < ; ; : : ; ; ; < s 5.s ; ; ; ; ; ; ; ; ; ; ; ; ; ; ; ; ; 5 < < F J 7 ; ; ; ; ",
"j Z A A C C b Z C = j z b C Z Z X X X X ; ; ; < 4 ; < J J 7 < ; ; s g.n.k.w ; ; ; ; ; ; ; ; ; ; < f < ; ; ; ; ; ; ; 7 D ; ; 5 ; ",
"j Z A C Z C v Z v = c b C C C Z O X X X ; ; ; ; ; ; 9 I J ; ; ; 4 e.m.Z.B.q.- ; < F F ; ; ; ; ; 3 2.f ; ; ; ; ; ; ; ; ; ; 5 _ < ",
"j b Z n b v k b j j b Z Z C C b O O O X ; ; ; ; ; J J 7 ; ; ; ; ; w k.m.c.5 ; ; < J J 7 ; ; ; ; < 3 < ; ; ; ; ; ; ; ; ; ; > > ; ",
"j C C C Z Z c z k j c k n C k c O X X X ; ; ; ; < J J ; ; ; ; ; ; - w 4.w ; ; 2 M < 9 D < ; ; ; ; ; < < < ; ; ; ; ; ; ; ; ; ; ; ",
"k b Z Z A Z n n C v n Z C b v A O O X X ; ; ; ; ; ; ; ; ; ; ; ; ; ; ; ; D < ; ; ; ; ; ; ; ; ; ; ; ; y ..# ; ; ; ; ; ; ; ; ; ; ; ",
"j Z A A Z n b Z n j b C b k v A O O X X D D < ; ; ; ; ; ; ; ; ; ; ; D H : < ; ; ; ; ; ; ; ; ; ; ; # o.-.O.@ - ; ; ; ; D ; ; ; ; ",
"k z C Z C b b v j x b n v = n A O O X O D D < 2 < ; ; ; ; ; ; ; ; : H P 9 ; ; ; ; ; ; ; ; ; ; ; 1 ..-.<.;. .- ; ; ; ; ; ; ; ; ; ",
"c C Z C b b c j k h c j h b C C O O O O 7 ; 2 M 2 ; ; ; ; ; ; ; ; D 4 9 7 < ; ; ; ; ; ; ; ; ; ; ; r O.;.+.@ ; ; < H ; ; ; ; - ; ",
"k C Z n C n k k b b c c h b b Z O O X O 5 ; ; < ; < ; ; : : ; ; ; ; ; ; < ; ; ; ; ; ; ; ; ; ; - ; . r  .@ ; ; ; ; ; 4 7 : D ; ; ",
"b Z Z Z Z C j k n b k z c C C C O O X O x.< ; ; 2 N < ; 7 D ; ; ; ; ; ; ; ; ; ; ; ; ; ; ; ; ; ; D ; ; ; - ; ; ; ; ; 7 I J ; ; ; ",
"Z Z A A Z C b j n v Z C b C C b O X X X a < ; ; < 2 ; ; ; < ; ; ; ; ; ; ; ; ; ; ; ; ; ; ; ; ; ; ; ; ; ; ; ; ; ; ; ; < J J ; ; ; ",
"Z Z A Z C Z C c c c v v h C C Z O O X X ; ; ; ; ; ; ; ; ; < 5 < ; ; ; ; ; ; ; ; ; ; ; < a < ; ; ; ; ; ; ; ; ; ; ; ; D ; ; ; ; ; ",
"Z Z Z A Z C b Z b c v c * c b Z O O X X ; ; - ; ; ; ; ; ; 5 _ < ; ; ; ; ; ; ; ; ; ; ; 6 u.a ; ; ; ; ; ; ; ; ; ; ; - ; ; ; ; ; ; ",
"n v b b v c k v b v c k g x b C O O X X ; 2 >.f ; ; ; ; ; ; < ; ; ; ; < < ; ; ; ; ; ; ; 4 < ; ; ; ; ; ; ; ; ; ; ; ; ; ; < ; ; ; ",
"Z n b C n c v c b c g z c v b b O X O X ; ; ; ; ; ; ; ; ; ; ; ; ; ; a y.u ; ; ; ; ; ; 2 D 4 < ; ; ; ; < 4 ; ; ; ; ; ; ; D ; ; ; ",
"n C n b c j c j j g b n n n C Z O X O X < ; ; ; ; ; ; ; ; ; ; ; ; ; < a < ; ; ; ; ; < V 6 H F ; ; ; ; 5 / > ; ; ; ; ; ; ; ; ; ; ",
"C C C Z n b b j c c b b C b v Z O O O X 7 ; ; ; ; ; ; ; ; ; ; ; ; ; ; ; ; ; ; ; ; ; ; 2 9 P J ; ; ; ; < 4 - ; ; ; ; ; ; ; ; ; ; ",
"C b C Z b b n = x c b b C n b Z X O O X J ; ; ; ; ; ; ; 4 ; ; ; ; ; ; ; > ;   - ; ; ; ; : 7 ; ; ; ; ; ; ; ; ; ; ; ; ; ; ; ; ; ; ",
"Z C b A C Z Z Z n b b C Z Z C A O O O X ; ; ; ; ; ; ; ; < ; ; ; ; ; ; D 7 < S 2 ; ; ; ; ; ; ; ; ; ; ; ; ; ; ; ; ; ; ; ; ; ; ; ; ",
"| | | | | | | } [ | | ' Q { | ' X X O O ; ; ; ; ; ; ; ; < 2 < ; ; ; ; 9 F J o ; ; ; ; ; ; ; ; 5 ; ; ; ; ; ; ; ; ; J J ; ; ; ; ; ",
"} } } } | | } [ [ ' ] { { [ { [ O X X X ; ; ; ; ; ; ; ; 3 =.3 ; ; ; ; ; D F ; ; ; ; ; ; ; ;   x.< ; ; ; ; ; ; ; < F J 7 < ; ; ; ",
"} ] } } | [ | | } { ` { { { ] ] O X X X ; ; ; ; ; ; ; ; < f < ; ; ; ; ; ; ; ; ; ; ; ; ; ; ; ; a ; ; ; ; ; ; ; 2 m < 7 D < ; ; ; ",
"} { | } [ { | | [ } ! [ ` } ' Q X O O X ; ; ; < 5 ; ; ; ; ; ; ; ; ; < w < ; ; ; ; ; ; ; ; ; ; ; ; ; ; ; ; ; ; ; 2 - ; ; ; ; ; ; ",
"| | | [ ] { { } { } { ' } } ] ~ O X O O ; ; ; 4 ^ < ; ; : : ; ; ; ; q 4.4 ; ; ; ; ; ; ; ; ; ; ; ; ; ; ; ; ; ; ; ; ; ; ; ; ; ; ; ",
"| | | ' } { [ } } } { ] } | [ W O X O X ; ; ; < < ; ; J J 7 ; ; ; q h.v.z.4 ; ; ; ; ; < / 5 ; ; ; ; ; ; ; ; ; ; ; ; ; ; 1  .1 ; ",
"| | | [ Q } | | [ } { } ` | } ' O O O X ; ; ; ; ; ; 9 I J ; ; ; 4 e.m.V.B.9.; ; ; ; ; ; ; D ; ; ; ; ; ; ; ; ; ; ; ; ; ; ; - ; ; ",
"| | | | | | | } | { | [ [ | } ] X X O X ; ; ; ; < H J 0 4 ; ; ; ; U g.n.l.w ; ; ; ; ; ; ; < ; ; ; ; ; ; ; ; ; ; ; ; ; ; ; ; ; , ",
"} | | | | | | { } } | [ [ ' [ { X X O X < ; ; ; < D F ; ; ; ; ; ; > U 6.U < ; ; ; ; ; ; ; ; ; ; ; ; ; ; ; ; ; ; ; ; ; ; ; ; . 3.",
"{ } { } | | } } } } | { [ ` ] [ O X O X ; ; ; ; ; ; ; ; ; ; ; ; ; ; < 4 J < ; ; ; ; ; ; ; ; ; ; ; ; ; ; ; ; ; ; ; ; ; ; ; ; ; 4 ",
"} { } ] | | | [ { } } | { ` ! [ X O O O ; ; ; ; ; ; ; ; ; ; ; ; ; ; F H < < ; ; ; ; ; ; ; ; > 8.< ; ; ; ; ; < / 4 ; ; ; < ; ; ; ",
"| | | W { | | | } } } | | ` ` { X X X O d ; ; ; ; ; ; ; ; ; ; ; ; ; J P 8 < ; ; ; - i < ; q 7.b.7.. ; ; ; ; - - ; ; ; q r.q ; ; ",
"[ { | W { | | | } } { | | ! ` } O X X X s.< ; ; ; ; ; ; ; ; ; ; ; D 4 0 7 6 ; ; ; ; =.; ; > w w.w ; ; ; ; ; ; ; ; ; ; 6 p < ; ; ",
"{ } | ` { } | | | | } } } [ Q ' O X X X T ; ; ; < 2 ; ; : 7 ; ; ; < ; < ; y.- ; ; ; f ; ; ; - q ; ; ; ; ; ; ; ; ; ; < y.a ; ; ; ",
"{ } } } { { [ [ } ! [ } | } ` [ O O X X < - ; ; 2 N < ; 7 D ; ; ; ; ; - ; 5 ; ; ; ; ; ; ; ; ; ; ; ; ; ; ; ; ; ; ; ; > 6 < ; ; ; ",
"] } } { } | ' ` { { } | | } ' { O O O O ; B ; ; < 2 ; ; < < ; ; ; ; 4 / 4 ; ; ; ; ; ; ; ; ; ; ; ; ; ; ; ; ; ; ; ; ; ; ; ; ; ; ; ",
"' { } { } } ] ! } | | | | { [ [ O O X X < < < < ; ; ; ; ; ; 1 < ; ; ; < 5 ; ; ; ; ; ; ; ; ; ; ; ; ; ; ; ; ; ; ; < < ; ; ; ; ; ; ",
"| | | | | | [ [ | | | | ` [ ` ' O O O X < < ; < ; ; ; ; ; % &.t ; ; ; d x.< ; ; ; ; ; ; ; ; ; ; ; ; ; ; ; ; ; ; 2 N < ; ; ; ; ; ",
"{ | | | | { { { | [ } | | } { { O O O X ; ; ; ; ; ; 9 D 1 @.,.#.; ; ; < a < - 2 < ; ; ; ; ; ; ; < a < ; ; 7 D < < 2 ; ; ; ; ; ; ",
"{ | | | | | | } | { [ [ | [ } } O O O X ; ; ; ; : F J 9 < % $.t ; ; ; 9 9 < < m 2 ; ; ; ; < @ ; 5 u.a : D J : ; ; ; ; ; ; ; ; ; ",
"| } } | | } | } | [ W [ | [ } } O O O O ; ; ; ; 7 J I < ; < @ < ; ; ; 9 F D ; 2 < ; ; ; ; @ X.1 ; a < 7 J I ; ; ; ; ; ; ; ; ; D ",
"' ' [ { | { } } | } [ { | ! ] ` O O O X ; ; ; ; D 7 < _ 5 ; ; ; ; ; ; ; H J ; ; ; ; ; ; ; ; < ; ; ; < D 7 ; ; ; ; ; ; ; ; ; ; ; ",
"} [ ' ! } } ' ] ] [ } } { ] ' [ O O O X ; ; ; ; ; ; ; ; ; ; ; ; ; ; ; ; ; ; ; ; ; ; ; ; ; ; ; ; ; ; ; ; ; ; ; ; ; ; ; ; ; ; ; ; ",
"' ` [ ! [ { { { [ [ [ } { [ { { O O X X ; ; ; ; ; ; ; ; ; ; ; ; ; ; ; ; ; ; ; ; ; ; ; ; ; ; ; ; ; ; ; ; ; ; ; ; ; ; ; @ ; ; ; ; ",
"` { ] } ` { { } [ ] } } { ] [ } O O O X D ; ; ; ; ; ; ; ; ; ; ; ; ; ; ; ; ; ; ; ; ; ; ; ; ; ; ; ; ; ; ; ; ; ; ; ; ; $ %.& < ; ; ",
"} { { { ] [ | | } } { } } ' ] [ O O O X < ; ; ; ; ; ; > ; ; ; ; ; ; ; ; ; ; ; ; ; ; ; ; ; ; ; ; ; - ; > ; ; ; ; ; ; &.1.*.@ ; ; ",
"} { ] } | | | | | | } } | { { [ O O O X ; ; ; ; ; ; < D 9 ; ; ; ; ; ; ; ; ; ; ; ; ; ; ; ; ; ; ; D 7 5 ^ 4 ; ; ; ; ; + &.K D ; ; ",
"} ] ` ' ] { [ | | | ] { | [ { { O O X O ; ; ; ; < a < 7 J P ; ; ; ; ; < q ; ; D ; ; ; ; ; ; ; ; 7 J P < ; ; ; ; ; ; - 7 D D ; 2 ",
"} { { ] ! ] | } } } ' } } } } { O O X O D < ; ; a u.4 ; D J 7 ; ; ; < T a.q ; ; ; ; ; ; ; ; ; ; ; J J 7 ; ; ; ; ; ; ; 7 7 : ; M ",
"[ E ` { } | | | } { { } ] [ ] ` O O O O J D ; ; < a < ; < 9 D ; < 2 q p.v.i.; ; ; ; ; ; ; < 7 D ; ; 7 D ; ; ; ; ; ; ; < a < ; 2 ",
"{ { | } } | | | ] ] } | { { { ] O X O O J ; ; ; ; ; ; ; ; ; ; ; 2 S 2 T k.q ; ; ; ; ; ; < P J 9 ; ; ; ; ; ; ; ; ; ; ; a u.a ; ; ",
"} } | | | | | | { } } } { ' Q ] O O O O ; ; ; ; ; ; ; ; ; ; ; ; ; 2 < < 4 - ; ; ; ; ; ; 7 J J < ; ; ; ; ; ; ; ; ; ; ; < 5 < ; ; "
};
