/* XPM */
static char *xpm_[] = {
/* columns rows colors chars-per-pixel */
"64 64 153 2 ",
"   c #0F0D1F",
".  c #100E1E",
"X  c #141414",
"o  c #1B1B1B",
"O  c #17111F",
"+  c #22131F",
"@  c #29121E",
"#  c #2C181F",
"$  c #351C1D",
"%  c #3C2415",
"&  c #3E291A",
"*  c #0F0F21",
"=  c #100F21",
"-  c #140F2C",
";  c #0F1122",
":  c #0F122E",
">  c #121123",
",  c #1A1422",
"<  c #1B1A22",
"1  c #12142B",
"2  c #131A2B",
"3  c #191C2D",
"4  c #171820",
"5  c #150F32",
"6  c #180F34",
"7  c #161032",
"8  c #191034",
"9  c #131B33",
"0  c #121C39",
"q  c #1C113F",
"w  c #251420",
"e  c #2A1821",
"r  c #2E132C",
"t  c #17202E",
"y  c #1F2023",
"u  c #162134",
"i  c #192332",
"p  c #14223D",
"a  c #192A3B",
"s  c #252424",
"d  c #492716",
"f  c #4D2B16",
"g  c #442D1E",
"h  c #4D2D1D",
"j  c #432113",
"k  c #502E1D",
"l  c #512F17",
"z  c #54321D",
"x  c #59371F",
"c  c #5D3B23",
"v  c #613F27",
"b  c #494A1F",
"n  c #52541F",
"m  c #5E611E",
"M  c #5D5F20",
"N  c #515220",
"B  c #64422A",
"V  c #68462E",
"C  c #6A4830",
"Z  c #5D6020",
"A  c #1E1245",
"S  c #1F1249",
"D  c #191A45",
"F  c #201247",
"G  c #21124B",
"H  c #3E1C43",
"J  c #351456",
"K  c #371558",
"L  c #3B155D",
"P  c #152441",
"I  c #162947",
"U  c #192D43",
"Y  c #1A3047",
"T  c #355151",
"R  c #395555",
"E  c #3E5A5A",
"W  c #324A4A",
"Q  c #1E5E67",
"!  c #1E5F68",
"~  c #1C5462",
"^  c #1E6C73",
"/  c #216D74",
"(  c #425E5E",
")  c #466262",
"_  c #456161",
"`  c #486464",
"'  c #4B6767",
"]  c #4D6969",
"[  c #4F6B6B",
"{  c #516D6D",
"}  c #536F6F",
"|  c #557171",
" . c #577373",
".. c #587474",
"X. c #597575",
"o. c #5A7676",
"O. c #9A2314",
"+. c #A62913",
"@. c #AD2312",
"#. c #BB3714",
"$. c #AC3616",
"%. c #CA3812",
"&. c #BC5111",
"*. c #CA4F0F",
"=. c #D0550E",
"-. c #D65B11",
";. c #E6560C",
":. c #DE6011",
">. c #BFBC3A",
",. c #EA881B",
"<. c #F1911B",
"1. c #C1BD3A",
"2. c #DEDB3F",
"3. c #F7CE33",
"4. c #F9D333",
"5. c #F9E039",
"6. c #DDDA40",
"7. c #09309D",
"8. c #1A5EBB",
"9. c #1E62B3",
"0. c #2066B5",
"q. c #1D69D3",
"w. c #1F6FD9",
"e. c #1E71DC",
"r. c #2372CC",
"t. c #2474D7",
"y. c #237BE6",
"u. c #3591BF",
"i. c #53A69E",
"p. c #5DBBB1",
"a. c #5EC1B5",
"s. c #3698C6",
"d. c #3A9CC5",
"f. c #3BA2CD",
"g. c #3CA4D1",
"h. c #3AABDE",
"j. c #37A5D3",
"k. c #42ACD6",
"l. c #45B3DE",
"z. c #42B5E3",
"x. c #47BAE6",
"c. c #45BFF3",
"v. c #6BDBCB",
"b. c #47C3F7",
"n. c #6BEAE6",
"m. c #6BE7E5",
"M. c #70E3E5",
"N. c #75EBE5",
"B. c #7BECE6",
"V. c #70F2E5",
"C. c #7DF9E4",
"Z. c #D7EFE7",
"A. c #CFF0E5",
/* pixels */
"| { [ | | | | ( ) | ) o.{ { o.) ` { { [ o.| { | o.o.o.o.| | | o.V B B v B v B B B c h z h h h h g h g g v C B B B V C B V B B B ",
"| { T { ` { { { ( [ ) | o.o.o.{ | | | { o.{ | o.o.o.o.o.{ ` | o.B c B B v x V V V B B B k V c B c V V B C C C V c z c x c B v c ",
"o.o.( { ( ` { ` [ ) [ | o.o.o.| | | o.o.o.| { o.o.o.o.o.o.| | o.c B B v c c V C C V B B B C V B V C C C C V B V v x c c x k g g ",
"o.| { ` ) | { | E E { o.o.o.o.{ { | ( T T ` | o.o.[ ) [ | | | o.C B B c B c C B C V v B V C V B v B C V C B B B z x B v c z k z ",
"o.| | E [ o.` ( [ | o.o.o.o.o.| | { { { { o.o.o.o.E | ` [ o.o.o.B c B z v x V B C B B c B V C B c B B B B B B v z z v v c B B B ",
"o.o.o.` { o.[ { { | { | o.{ o.| o.{ | o.o.o.o.o.o.| { { { [ o.o.B c c g z z B B B B v c c v V B x B B v V C V B B v V V V V C V ",
"o.o.o.o.[ o.o.{ { ) | o.o.{ [ ` ) [ o.o.o.o.| o.o.o.[ { o.o.| o.V v c z z h c B c g h z c c v z h x c c z B B B B V C B V V V V ",
"o.o.o.| o.o.o.| { ` | | | { [ E ( [ o.o.o.[ | { | o.| | o.o.[ | B & g g z z B z g h h g x B v k c B V B B B V V B V C V B B B B ",
"{ ` | | o.o.| [ [ ` o.o.o.o.o.| { | o.| | { | | o.[ | { [ | [ [ v l z g c c c z v v c h g v B h g x B v v C C C B V V B B B c c ",
"| ` { | o.o.| ` [ [ | [ { [ o.o.{ E o.| | | | | { | | | | { ) o.c z z d z z z z x c c f l h x g g & & % & z c c c V B B c v B B ",
"| | { ) ` | { | [ | [ T [ | o.o.| [ | { | | o.o.o.{ { { E ( ` o.c c c c d z z x B h z z c c v z c z g g g B x z c B B B d f B z ",
"| o.| | { | | | | | { [ [ o.o.o.o.| | o.o.o.{ [ [ | ` ) [ { { ) B c c v k h z z B k z g v B B h B c k z v B c % x l c c f f c f ",
"{ { ` | o.o.| { { { o.o.o.o.( o.o.o.| o.o.{ [ [ [ ( | | ( { { E V B B v z h % f c z f f x c B v B B c z c B B h v k c c z c f z ",
") { [ | [ { ) ` [ ` E [ [ | [ { | | [ E ( ( ( ) o.o.o.| | { [ { B v c v z z z B B B c c & h c B B B B B B B v v z z c x c h h c ",
"E { ` | { { ` [ { ) ` | | { ( [ ) ( E ( ( E ` [ | | [ ` ) ` { o.B c x B c c c B B B c B v x x h B B V V V B v B h z B f j c B v ",
"` ` ( { { [ [ | { [ ( | | { ) [ { [ ) | { [ [ { ` ) T W E ` [ ) C V B V c B B B c B B B C C C z c V B B z v B x f c V x c v v l ",
"o o o o o o o o o o o o o o o o o o o o X X o X X o o o X o o X o X o o o o o o o o o o o o o o o o X X X o X X X o X X o X X X ",
"o X o o o o o o o o o o o o o o o o X X X o X X X o X X o X X X o o o X X o o o X o o o o o o X o X X X X o o o o o o o o X X o ",
"o o o X X o o o X o o o o o o X o X X X X o o o o o o o o X X o o o o o o X X X X X X o X X X X o X X X o o X X X X X o X X X o ",
"o o o o o X X X X X X o X X X X o X X X o o X X X X X o X X X o X X X X X X X X X X o o o X X X X X X X o o X X X X X X X X X X ",
"= G G A = = > A = > > > = = = = = > U g.a = = > = = = = = = = = = G 5 > = = = = i v.2 5 A A = = = = = u j.V.h.u = = = = = = = = ",
"= = A > = = = = > > = = = = = > M * = > = = = = = = = = = = = = = = = = = 4 = = > > = = A A = = = = = = 1 h.> > = = = = = = = = ",
"= = = = = = = = = = = = = = = = = = = = = = = = = = = = = = = = = = = = = 2.* = = = = > > > = = = = = = = * = = = = = = = = = = ",
"= = = = = = = = = = = = = = = = = = = = = = = = = = > 1 > = = = = = = = = s = = = = > n < = = = = = > D > = = = = = = = = = = = ",
"= = > i > = = = = = A 5 - = = = > < > = = = = > > = > Q 2 = = = = = = = = = = = > < = > > = = > = = 1 ~ > = = = = = = 9 > = = = ",
"= = i a.i = = = = = 5 G S = = = > m 4 = = = = A F = = > = = = = = = = = = = = = < m > = = = = G G = = > = = = = = = ; q.0 = = = ",
"= = > 1 > > = = = = > L G 7 = = = > = = = = = S G 7 = = = = = = = = = = = = = = = > = = = = = G G 7 > = = = = = = > z.V.l.u = = ",
"= = = = 5 A ; = = = / > 7 A = = = = = = = = = = 8 L G = = = = = = = = = = = = = = = = = = = = = 5 L G = = = = = 9 q.V.Z.B.r.2 = ",
"= = > A G 7 = = = = 2 = > , = = > 5 - = = = = = 1 G G - = > < > > 1 = = = = = = = 5 - = = = = = = G G - = = < > > D z.B.l.I > = ",
"= = 7 G K = = = = = = > $ &.$ = > A 5 = = = = = = = 5 - = s >.< = = = = = = 2 > > A - = = = = = = = 5 - = > 1.s = = u r.I > 2 > ",
"= = A 5 = = = = = = = + =.3.;., = = = = = = = = = = = = = > < > = = = = = > / 2 = = = = = = = = = = > = = = < > = = = 1 > 2 / > ",
"= = = = = = = = = = = > e *.e > = = = = = = = = = = = = = = = = = = = = = = > > = = = = = = = = = = = = = = = = = = = * = = ; = ",
"= > > = = = = = = = = = = = = = = = = = = = = = = 1 = = = = = = = = = = = = = = = = = = = = = = = 2 = = = = = = = = = = = = = = ",
"> Z < = = = = = = = = = = = = = = = > A = = = ; P y.9 = = = = = = = = = = = = = = = = A - = = * 9 y.p > = = = = = = = = = = = = ",
"> < 9 > = = = = = = = = = = = = 1 = = 1 G S > P k.N.l.9 > = = = = = = > i = = = = = = 1 F A = 9 z.N.k.p = = = = = = = > t > = = ",
"> U d.U > = = = = = = 7 7 > a > ! * > 8 K F 1 0.M.A.n.8.9 = = 7 A = = i p.> = = = = = 7 K F = 8.N.A.M.9.2 = = 7 A = = 3 i.i = = ",
"2 z.n.f.9 = = = = = F S 7 i v.2 1 = = 5 6 > G P x.C.c.2 > = A S 5 ; = > t > = = = = > 5 7 - A 9 b.C.z.p ; = G S 5 = = > 3 > = = ",
"* 9 s.9 = = = = = = G A > > > = = 2 p.3 > > > > 0 e.2 = = = S G > = = = = = = = = = = > = > > = 2 t.0 = = = G S > = = = = = = = ",
"= = = = = = = = > = = = > * = = = = * = = = = = = = = = = = = . Z   = = = = = = = = = = = = = = = * = = = = = > n > = = = = = = ",
"= = = = A = = = = = = > b > = = = = = = = = = = = = = = = = = = < * = = = = = = = = = = = = = > = = = = = = = > > = = = = = = = ",
"= = = = = = = = = = = > > > = = = = = = = = = = = = = = = = = = = = = = = = = = = = = = = = = n > > = = = = = = = = = = = > = = ",
"= = = = = = = = = = = = = = = = = = = = * = = = = = = = = = = = = = = = = = = = = = = = = = = > G S = = = = = = = * = = = A = = ",
"= = = = = = = = = = = = = = = = = = s >.y = = = = = = = = = = = = = = > = = = = = = = = = = = 7 G S = = = = = = > A = 7 1 > = = ",
"= = = = = = = = = = = = = = = = = = = = > = = = = = > = = = = = = = 4 N > = 3 > = = = = = = = A 5 = = = = = = = = * G L 6 = = F ",
"5 > = = = = = = = = = = = = = = = = = = = = = = = = ! = = = = = = - 7 3 A 1 a.i = = = = = = = > = = = = = = A > = * G G - = = = ",
"G K > = = = = = = = = + > = = = = = = ; 9 = = = > A 2 = = = = = = 5 K F 1 > i > = = = = = = = = = = = = = = = = = = > > q = = = ",
"G G 5 = = = = = = = > @.+ = = = = = * 9 q.; = = = = = = = =   = = = G S > = = = = = = = = = = = = = = = = = = = = = = = = = = = ",
"> 7 A = = = = = = = = , = = = = = = 9 t.m.w.= = = = = = = i v.2 = = = = = = = = = = * = = = = = = = = = = = = = = = = = = = = = ",
"= = = = 5 A = = = = = = 2 > = = = = = 0 q.> = = = = = = = = > = = = = = = = = = = A = = , = = = > < > = = = = = = = = = = = = * ",
"= = = G G 5 * = = = = i a.i = = = = = = . = = = = = = = = = = = = = = = = = = = = = . w +.@ = = < 6.s = 1 5 = = = * = 2 > 7 A = ",
"= = 5 G K 2 = = = = > > i > = = = = = = = = = = = = = = = = = = = = = = = = = = = = w #.,.$.r > > s > = 1 G G > = * u g.Y 7 5 = ",
"= = A 5 > ! ; = = = A 5 - = = = = = = = = = = = = = = = = = = = = = > 2 > = = = = = O.<.4.,.+.> = = = = = A K 8 = = s.n.d.9 = = ",
"= = = = = 1 = = = = 5 G A = = = = = = = = = = = = = = = = = = = = = 1 ! 1 = = = = * + %.<.#.@ > = = = = = = 8 S A = 9 z.U > = * ",
"= = = = = = = = = = = L G 5 = = = = = = = = = = = = = = = = = = = = * ; = = = = = = = + O.+ = = = = = = > = = A A = = > > < M > ",
"= = = = = = = = = = = = - A = = = = = = * > = = = = = = = = = = = = = = = = = = = = = = * * = = = = = 2 ^ > = = = = = = = = = = ",
"= = = = = = = = = = = = = > = = = = = = * ! = = = = = = = > = = = = = = = = = = = = = = = = = = = = = > 2 = = = = = = = = = = = ",
"= = = = = = = = = = = = = > < > = = = = = 1 = = = = = = > b > = = = = = = = = = = = = > = = = = = = = > > = = = = = = = = = = = ",
"= = = = = = = = = = = = = 4 m > = = = = = = = = = = = = * > S G = = = = = = * = = = = F = = = = = = = S G = = = = = = = = = = = ",
"= = = = * O ;.# = = = = = = > = = ; > = = = = = = = = = = 5 G G = = = = = = = A > 5 1 = = = = = = = 5 G G = = = = = = = = = = = ",
"> i > 5 5 ;.5.-.+ = = = = = = = = 3 p.3 9 = = = = = = = = A 5 = = = = = = = = = G L 5 = = A = = = = A - = = = = = = = = = = = = ",
"2 a.i 5 A H :.$ = = = = = = = = = > i u u.> = = = = , = = > > = = = = = A > = = G G - = = = = = = = = = = = = = = = = = = = = = ",
"> i > - A A + > = = = = = = = = = = = > 9 = = = = * O.= = = = = = = = = = = = = = = A = = = = = ; 2 = = = = = = = = = = = = = = ",
"= = = = = = = = = = = = = = = = = = = = = = = . = = , = = = = = = = = = = = = = = = = * = = = = ; / 2 = = = = = = = = = = = = = ",
"= = 4 n > = = = = = = A = = = = = = = = = = 1 7.: = = = = = = = = = = = = = = = = = = = = = = = = > = = = = = = = = = = = = = = "
};
