/* XPM */
static char *_61ac0590e354c4dc5e2992f4325d78btexoUp4Auulm1Nc6[] = {
/* columns rows colors chars-per-pixel */
"64 64 158 2 ",
"   c #070507",
".  c #080607",
"X  c #080608",
"o  c #0C090A",
"O  c #160507",
"+  c #120B06",
"@  c #180E05",
"#  c #130E0D",
"$  c #181507",
"%  c #16100E",
"&  c #1A120F",
"*  c #1C1512",
"=  c #1F1815",
"-  c #250408",
";  c #350408",
":  c #2A1908",
">  c #331D04",
",  c #201713",
"<  c #231A15",
"1  c #291D17",
"2  c #291E18",
"3  c #261C18",
"4  c #282506",
"5  c #3B2204",
"6  c #393506",
"7  c #2D211A",
"8  c #33251D",
"9  c #37291E",
"0  c #3A2B1F",
"q  c #3D2D22",
"w  c #3F3022",
"e  c #440409",
"r  c #530309",
"t  c #62030A",
"y  c #71030A",
"u  c #412603",
"i  c #413204",
"p  c #593503",
"a  c #503519",
"s  c #613A03",
"d  c #412F23",
"f  c #443324",
"g  c #493626",
"h  c #4C3927",
"j  c #4A3729",
"k  c #4D3A29",
"l  c #473429",
"z  c #543D2C",
"x  c #583E2C",
"c  c #553F30",
"v  c #494406",
"b  c #584404",
"n  c #5B5405",
"m  c #6E5E04",
"M  c #685703",
"N  c #6A6405",
"B  c #7B7405",
"V  c #56402E",
"C  c #5A422E",
"Z  c #574231",
"A  c #5C4431",
"S  c #5F4834",
"D  c #594739",
"F  c #644727",
"G  c #614633",
"H  c #644A35",
"J  c #694D37",
"K  c #664A38",
"L  c #664C38",
"P  c #694D38",
"I  c #6A4D39",
"U  c #6B4E39",
"Y  c #684E3A",
"T  c #6A4F3A",
"R  c #6C4F3B",
"E  c #6C4F39",
"W  c #6C4F3C",
"Q  c #6A4E39",
"!  c #6E5037",
"~  c #6C503A",
"^  c #6E513A",
"/  c #6E513D",
"(  c #6D513C",
")  c #70533A",
"_  c #715339",
"`  c #71533D",
"'  c #71533E",
"]  c #72543D",
"[  c #72553E",
"{  c #76563F",
"}  c #72543D",
"|  c #6E5440",
" . c #6F5846",
".. c #755741",
"X. c #745641",
"o. c #755943",
"O. c #7D5E46",
"+. c #7A5B44",
"@. c #765B49",
"#. c #7D5E48",
"$. c #7D614C",
"%. c #81020B",
"&. c #9F020C",
"*. c #90020B",
"=. c #AE010C",
"-. c #BD010D",
";. c #CD010D",
":. c #DC000E",
">. c #EB000E",
",. c #FF2200",
"<. c #FF3100",
"1. c #885507",
"2. c #BB7201",
"3. c #FF4800",
"4. c #FF5D00",
"5. c #FF6F00",
"6. c #FF7300",
"7. c #805F47",
"8. c #805F4A",
"9. c #82624C",
"0. c #87694F",
"q. c #8E6B4F",
"w. c #876A55",
"e. c #8B6C53",
"r. c #8F6F59",
"t. c #806450",
"y. c #92735A",
"u. c #8B8404",
"i. c #9C9404",
"p. c #ACA404",
"a. c #BDB403",
"s. c #C48E01",
"d. c #C98500",
"f. c #DF9500",
"g. c #E78F00",
"h. c #FF8F00",
"j. c #EC9400",
"k. c #E49600",
"l. c #FF9700",
"z. c #F99D00",
"x. c #FFA400",
"c. c #FFAB00",
"v. c #FFB400",
"b. c #FFBA00",
"n. c #FFB70E",
"m. c #D49534",
"M. c #CDC303",
"N. c #DED303",
"B. c #EEE302",
"V. c #FFF302",
"C. c #FFC62A",
"Z. c #FFD77C",
"A. c #FFDD9E",
"S. c #FFE8AC",
"D. c #FFF8BB",
"F. c #FFFBC8",
"G. c #FFF6C4",
"H. c #FFFFFE",
/* pixels */
"O.O.h T ! C G C V H J H x x C x ^ / U A J C / H G x A G G x H J O.O.h J ^ G G C V H E H x C C x ! / H G H G E H G x A G G x J J ",
"^ ~ U H G G G V V V C G H C x G ! ^ U G g ! e.E 9.H H x J z _ J ^ T U H G C G C z C x G G C x H ! T U G f J e.E 8.H G C G x ^ H ",
"! G U ] ^ f G ` ! ] H h / ! _ C C C C U J T A T K z z z Z z T K U G U ] ! f G ^ U _ H g [ E ` C C C C U J T A T K x x z C z U U ",
"C ! ! ] 9.C G T G H 9.h { J H H _ U J ^ [ L H A ' I ` ' T ^ A T C ^ _ _ 9.C G L G G O.z ..J H G ! U E [ ..T J G ` W ` / L ~ A U ",
"S J G T x f x G G C V C G C A _ ] ] U H H V L S I I ' H G G z z A H A T V f V G G A V C C C A ^ ] ] ! G G C K H E E ] J G G c k ",
"C A z A H C Z z G G H K J _ C H G J x { / G V V H W H G K G x H C A x A G V V z A C H H ! _ C G G H V { ` G Z C H W J G T G A L ",
"_ C Z [ T _ / H h H T E J ! H ~ ~ C G G ` G A C H E H 7.I A K ..E C V [ J ~ ! G g A J T U J G T ! A H H [ G G A J E J 7.E A L +.",
"H A [ T T E / _ z _ ` o.o.^ U 9.k [ [ C x G S ! I +.] H J G W J G V / H H U ~ ! z ^ ~ o.X.! U 9.h [ { A x G G E ' 7...J T K / U ",
"G G y.8.G G A H G E K #.E ` [ [ V T ..[ G z L Y $.G G A C Z Z ~ A A r.#.A A Z G A U G o.T ^ / [ V L +.[ S V ~ ( 9.H K G A A G R ",
"G x 8...C A A A G E J ` ..{ H ^ C / / S o.V S / e.A S Z C Z / A A z +./ x Z x c A H K W ` ` G ^ C } ) S $.C H { y.G G S A S ..H ",
"I x W G I C H K A H J J W E / / A f 7 q V k 7 & * 3 A S g 0 G @.G k K A H 3 & o < d H f 7 * # o $ 7 } S V V L L W S S H k w J #.",
"G G I q...I ' G Z T G J T S o.j % X X   9 7     . X o < $.k ~ $.Z A G $.7   o o     & .     X     o 7 L C V Y [ H G c G w.Z X.w.",
"D W ' I x G H G +.K z x G z 7 X   $ i.  X # X M.M.6     3 A z Z c H H S %   M.N.i.6     i.M.N.B.M.  % $.G J z S k O./ X./ G S S ",
"X.I A x H z k R J E @.c Z < X $ p.V.V.p.    v V.V.V.N.$   8 %     X % < o   N.V.V.V.u.  a.V.V.V.B.  o Z Z Z ^ o.S o.[ G S G k A ",
"X.K G x H ..G H { / X.| Z # X N.V.V.V.V.N   M.V.V.V.M.  @ : F 1.1.p @ . o . B.V.V.V.n   N V.V.V.V.  . S g / E H G / G A S z g ( ",
"H x x x E ] G H ` H G G Z 3   4 B.V.V.V.B.N V.V.V.V.4 + F S.F.C.v.v.z.p . . V.V.V.V.$   $ V.V.V.V.$   S z / X.A S A G G T H A S ",
"G x { V U G E J ~ H H x z C 3   4 B.V.V.V.V.V.V.V.i.  a G.H.S.n.v.v.b.z.m   V.V.V.V.      B.V.V.V.v   j k H T C A A E T G A ` A ",
"C C G C J G #.V K T S Z x J G ,   v B.V.V.V.V.V.B.$ @ m.D.Z.v.x.c.v.v.b.s.$ V.V.V.B.  o   M.V.V.V.v X q j z z Z x I E G G S H f ",
"+.T G z +.H V g A ^ z x x T T c #   n V.V.V.V.V.N   > x.v.c.l.4.6.x.v.b.k.N B.V.V.B.  o   M.V.V.V.v X 9 z H T A H E x x z H x A ",
"_ ^ G C h A h z z G A z A V T z 8   $ N.V.V.V.M.  X > c.v.v.6.,.<.h.v.v.j.M N.V.V.B.  o   p.V.V.V.v   f G H J T G e.H E T ^ A G ",
"A | / C w C ] J _ A h G T T g 0 X   p.V.V.V.V.4   3 > x.b.v.l.3.4.c.v.v.f.n M.V.V.V.      a.V.V.V.v   k T H G +.J C ^ H U G +.L ",
"A o.H V h G ! _ G K z H A / C ,   N V.V.V.V.i.X % z + 2.b.v.c.x.x.c.v.b.s.  i.V.V.V.N     N.V.V.V.$   V U ..H K z T J C x z k C ",
"Z V V Y [ C A G G G A A Z G 7   $ B.V.V.V.B.$   q Z , 5 x.b.v.v.b.v.b.j.b   6 V.V.V.N.4 6 V.V.V.B.  o C x G z z H G C V h V k V ",
"Y S Y J J J G A z z j H x C %   M.V.V.V.V.N X * S k g & 5 g.v.v.v.c.d.i   o   M.V.V.V.V.V.V.V.V.a.  * z A A k Z L A z x V L V V ",
"S Z [ L J C ~ C C z V C h V   $ B.V.V.V.M.    w V k f | , $ u s p > :   % 3   v V.V.V.V.V.V.V.V.n   7 V V V k V S V k 0.X.X.S H ",
"V V S Y V L S ^ A C G U G f =   $ N.V.V.4   7 G A A Z L A 3 * o     o o o   .   B V.V.V.V.V.V.M.  o Z j V S Y S H S H X.J k H $.",
"V V A C g &     o o o % % & 7 =     i.p.  # o o o   & 7 f =                     X v N.V.V.V.p.      * 7 *       o o = A z z H U ",
"V V V L *       .     .       3 ,                       7 %   -.-.-.:.:.:.>.:.  o                                   X 3 S z G U ",
"V V f V     >.>.:.:.:.;.-.-.  % j *   &.-.;.:.:.:.>.-.  %     >.>.>.>.>.>.>.:.  o = o X t >.>.>.>.>.# X &.>.>.>.>.:.X o S Z z H ",
"k h k A o   :.>.>.>.>.>.>.:.  o 9 o   :.>.>.>.>.>.>.-.  #     >.>.>.>.>.>.>.:.  o k 7 X y >.>.>.>.>.y   &.>.>.>.>.:.. o z f z z ",
"S A V S o   :.>.>.>.>.>.>.:.. o . o   :.>.>.>.>.>.>.=.  & o   :.>.>.>.>.>.>.-.  % k <   %.>.>.>.>.>.;.o &.>.>.>.>.:.  X C z Z G ",
"/ J k G #   ;.>.>.>.>.>.>.:..   - .   :.>.>.>.>.>.>.&.  = o   :.>.>.>.>.>.>.-.  % f <   =.>.>.>.>.>.>.r =.>.>.>.>.:.  o A G A K ",
"$.o.f G %   -.>.>.>.>.>.>.:.    ;.O   :.>.>.>.>.>.>.&.  , X   :.>.>.>.>.>.>.-.  # z , . &.>.>.>.>.>.>.=.&.>.>.>.>.>.    x z A H ",
"H H H S &   =.>.>.>.>.>.>.-.  y >.y   :.>.>.>.>.>.>.y   8 o   :.>.>.>.>.>.>.&.  * g # . -.>.>.>.>.>.>.>.&.>.>.>.>.>.    A z U G ",
"J C H L <   &.>.>.>.>.>.>.-.  ;.>.-.  :.>.>.>.>.>.>.y . 2 #   -.>.>.>.>.>.>.&.  , A #   -.>.>.>.>.>.>.>.:.>.>.>.>.>.X   z h G H ",
"V J Y H 7   =.>.>.>.>.>.>.-.t >.>.>.; :.>.>.>.>.>.>.e . q % X -.>.>.>.>.>.>.&.  , z #   ;.>.>.>.>.>.>.>.>.>.>.>.>.>.    S H A G ",
"C J C G 2 . y >.>.>.>.>.>.-.-.>.>.>.=.:.>.>.>.>.>.>.e   q # X -.>.>.>.>.>.>.%.  3 h . . :.>.>.>.>.>.>.>.>.>.>.>.>.>.    Z Z z j ",
"C V h z 8 X y >.>.>.>.>.>.-.>.>.>.>.:.:.>.>.>.>.>.>.O   k % . -.>.>.>.>.>.>.y   7 h o . :.>.>.>.>.>.>.>.>.>.>.>.>.>.    Z A z A ",
"J z V U q X r >.>.>.>.>.>.>.>.>.>.>.>.>.>.>.>.>.>.>.    z ,   &.>.>.>.>.>.>.y   , z     >.>.>.>.>.>.>.>.>.>.>.>.>.>.    G z G ..",
"S V ! C g   e >.>.>.>.>.>.>.>.>.>.>.>.>.>.>.>.>.>.>.    V =   &.>.>.>.>.>.>.t   7 V   O >.>.>.>.>.>.>.>.>.>.>.>.>.>.X X G A T H ",
"A Z e...j   - >.>.>.>.>.>.>.>.>.>.>.>.>.>.>.>.>.>.:.  o j *   &.>.>.>.>.>.>.e   0 w   e >.>.>.>.>.>.>.>.>.>.>.>.>.>.    k z C T ",
"A z ..E z   X >.>.>.>.>.>.>.>.>.>.>.>.>.>.>.>.>.>.;.  o k =   &.>.>.>.>.>.>.e   q f   e >.>.>.>.>.>.>.>.>.>.>.>.>.>.e   q c T S ",
"H z H Z A X X >.>.>.>.>.>.>.>.>.>.>.>.>.>.>.>.>.>.-.X * w &   %.>.>.>.>.>.>.-   f 7   y >.>.>.>.>.>.>.>.>.>.>.>.>.>.e X 8 q G o.",
"Z A H 9.W o X :.>.>.>.>.>.>.>.>.y >.>.>.>.>.>.>.>.-.  #  .2   y >.>.>.>.>.>.    g 8   y >.>.>.>.>.>.>.>.>.>.>.>.>.>.e X D k ~ t.",
"Z T T G z o . :.>.>.>.>.>.>.>.;.  -.>.>.>.>.>.>.>.&.X , S 7   y >.>.>.>.>.>.    H ,   &.>.>.>.>.>.>.>.>.>.>.>.>.>.>.e   k A c Z ",
"X.H z z c # X -.>.>.>.>.>.>.>.%.  y >.>.>.>.>.>.>.&.X = k 7   y >.>.>.>.>.:.  o Z ,   &.>.>.>.>.>.>.>.>.>.>.>.>.>.>.e   w A j Z ",
"/ G Z z A * . -.>.>.>.>.>.>.>.O     :.>.>.>.>.>.>.%.  1 z 3   y >.>.>.>.>.:.  o K =   =.>.>.>.>.>.>.>.>.>.>.>.>.>.>.e   f h f L ",
"G z k z H ,   =.>.>.>.>.>.>.=.X =   &.>.>.>.>.>.>.y   8 Z f   e >.>.>.>.>.:.  o S %   -.>.>.>.>.>.>.>.>.>.>.>.>.>.>.e   l A Z A ",
"C x ^ h G < . &.>.>.>.>.>.>.; . 7   ; >.>.>.>.>.>.t   q z q X e >.>.>.>.>.;.. # S #   ;.>.>.>.>.>.>.>.:.>.>.>.>.>.>.e   f z E C ",
"C C C C G 7 . *.>.>.>.>.>.-.  % g %   -.>.>.>.>.>.e   q z f   e >.>.>.>.>.-.. # Z o   :.>.>.>.>.>.>.>.y >.>.>.>.>.>.e   f Z G f ",
"[ J C h _ 9   y >.>.>.>.>.y   7 k 7   y >.>.>.>.>.e   9 g f   e >.>.>.>.>.-.  # z #   :.>.>.>.>.>.>.>.o :.>.>.>.>.>.y   7 A z Z ",
"^ ~ S C f 8   y >.>.>.>.:.    w z 0     =.;.:.:.>.  X G A G     >.>.>.>.>.=.  * g   . >.>.>.>.>.>.>.>.  %.>.>.>.>.>.y   9 U C A ",
"C ( ~ C 0 f               . * g V V 8         .     = A G S =   .             8 J *             . .                     k A o.J ",
"A o.S V h A V =       X . 3 z C H J J 8 = % o o   * z Z z z q &           * 9 E C z #           . .   * *           * g x z k V ",
"Z V V L [ C A S G A A A A G A C A G H A V L V k J S C z h z g z z V z H ` x A A G S A A Z G G z x G H C x G z z G G C V k z h V ",
"Y S Y Y L H H A x c k L z G V { k G J A G S k Z L A z k k H z z H A ~ G H H G Z z x j K x G z [ j H H C G S k Z L A k z z H V V ",
"H Z X.J ~ C E G G z C G h G C C A A G Z C V V V S V k 0...X.G G S Z } L L C L A C x C A z A C C C A S V V Z V V S Z k 0.[ [ S G ",
"V Z H Y C E H ] G G T ` _ g G H ` +./ z A / } ( Y L H { K z H +.V Z H Y V ~ H _ G G J ^ ! g G H [ [ ~ V D ( ( ( Y L L o.Y V U $.",
"V S A A C C C x ( [ U o.A ` H H ^ +.o.V / / S A S o.T U z z K E V A A V A C C V / [ K ..A / H A ~ o.X.V ~ ( A Z A X.Y ! x z H J ",
"V C z ^ G Z A h +.H C A { / C C A G C L / S S V C C A X.K z G T V V k ~ H V C h +.H Z G [ ^ C C A A A H ( Z S C C A S / K z H ^ ",
"A V g A K x ` ] H A G Z T G A G V A J V X.A H G A H H @.H A z L A V f A H V ^ ^ H A G Z U G A G C A J z X.S S G A G L @.H S z L ",
"V k z S x G Z K R H A z H x A A h V L L Y L A C ! j Y S V g c c z k z G C A C L W G c z G x A A k z H L H H A A T k T G Z j z Z ",
"H A V H G A A | G A A E R H +.J V ! y.^ V k V V A C A k G x G G K G Z H G A S / G S A ^ ^ H +.J V ~ y./ V k z x A C C k G x G G ",
"X.T V T ' H I G c c ..^ J +.` x S X.$.^ S S ! ^ H H S S H K G E X.T z T ` H ^ A Z z ..^ H O.^ x G o.$./ S S J ^ H U G A H H G E "
};
